<svg id="icon" xmlns="http://www.w3.org/2000/svg" viewBox="0 0 360 360"><defs><style>.cls-1{fill:#fff}.cls-2{fill:#c1c1c1}</style></defs><title>icon-gride</title><path d="M0 0h360v360H0z"/><path class="cls-1" d="M154.7 262.7a15 15 0 0 1-6.9-1.6 14.6 14.6 0 0 1-5.3-4.7 24.1 24.1 0 0 1-3.4-7.7 41.5 41.5 0 0 1-1.2-10.6 40.6 40.6 0 0 1 1.2-10.6 23.8 23.8 0 0 1 3.4-7.6 14.1 14.1 0 0 1 5.3-4.6 16.4 16.4 0 0 1 13.8 0 14.1 14.1 0 0 1 5.3 4.6 23.8 23.8 0 0 1 3.4 7.6 40.6 40.6 0 0 1 1.2 10.6 41.5 41.5 0 0 1-1.2 10.6 24.2 24.2 0 0 1-3.4 7.7 14.6 14.6 0 0 1-5.3 4.7 15 15 0 0 1-6.9 1.6zm0-8.5a5 5 0 0 0 2.6-.7 5.8 5.8 0 0 0 2.1-2.6 18.2 18.2 0 0 0 1.4-5 53.6 53.6 0 0 0 .5-8 52.9 52.9 0 0 0-.5-7.9 16.5 16.5 0 0 0-1.4-4.8 5.6 5.6 0 0 0-2.1-2.4 5.2 5.2 0 0 0-2.6-.7 5.1 5.1 0 0 0-2.5.7 5.5 5.5 0 0 0-2.1 2.4 17.2 17.2 0 0 0-1.4 4.8 49.1 49.1 0 0 0-.5 7.9 49.9 49.9 0 0 0 .5 8 18.9 18.9 0 0 0 1.4 5 5.7 5.7 0 0 0 2.1 2.6 4.9 4.9 0 0 0 2.5.7z" transform="translate(-70.5 -70.5)"/><path class="cls-2" d="M193.8 243.9h-3.2v-5.1l3.6-.3.8-6.2h5.7v6.2h5.6v5.4h-5.6v9.4a4.1 4.1 0 0 0 .8 2.8 2.9 2.9 0 0 0 2.2.9h1.2l1.1-.3 1.1 5-2.2.6a13.8 13.8 0 0 1-3 .3 9.3 9.3 0 0 1-3.7-.7 6.5 6.5 0 0 1-2.5-1.8 7.5 7.5 0 0 1-1.4-2.8 14.3 14.3 0 0 1-.4-3.7v-9.5zM209.1 250.1a13.5 13.5 0 0 1 .9-5.2 11.4 11.4 0 0 1 2.5-3.8 10.9 10.9 0 0 1 3.6-2.4 11.5 11.5 0 0 1 4.3-.8 11.3 11.3 0 0 1 4.3.8 10.9 10.9 0 0 1 3.6 2.4 11.4 11.4 0 0 1 2.5 3.8 14.8 14.8 0 0 1 0 10.4 11.4 11.4 0 0 1-2.5 3.8 10.9 10.9 0 0 1-3.6 2.4 11.3 11.3 0 0 1-4.3.8 11.5 11.5 0 0 1-4.3-.8 10.9 10.9 0 0 1-3.6-2.4 11.4 11.4 0 0 1-2.5-3.8 13.5 13.5 0 0 1-.9-5.2zm7.1 0a9.5 9.5 0 0 0 1.1 4.8 3.8 3.8 0 0 0 6.4 0 11.4 11.4 0 0 0 0-9.7 3.8 3.8 0 0 0-6.4 0 9.5 9.5 0 0 0-1.1 4.9z" transform="translate(-70.5 -70.5)"/><path class="cls-1" d="M251.7 255.6l8.3-7.9q3.8-3.7 6.5-6.9a37.8 37.8 0 0 0 4.2-6 11.1 11.1 0 0 0 1.5-5.3 7.3 7.3 0 0 0-1.8-5.3 6.6 6.6 0 0 0-4.9-1.8 7.7 7.7 0 0 0-4.6 1.4 25.4 25.4 0 0 0-3.8 3.4l-5.9-5.9a27.1 27.1 0 0 1 7.1-5.6 18.6 18.6 0 0 1 8.7-1.9 17.9 17.9 0 0 1 6.4 1.1 14.6 14.6 0 0 1 4.9 3 13.3 13.3 0 0 1 3.2 4.7 16.3 16.3 0 0 1 1.1 6.2 15.9 15.9 0 0 1-1.3 6.1 33.1 33.1 0 0 1-3.3 6.1 65.6 65.6 0 0 1-4.8 6.2q-2.7 3.1-5.6 6.1l4-.4 3.9-.2h9.5v9.2h-33.3v-6.2zM294.8 249.2a25.1 25.1 0 0 0 4.6 3.3 11.2 11.2 0 0 0 5.5 1.4 8.6 8.6 0 0 0 5.8-1.9 6.9 6.9 0 0 0 2.2-5.5 7 7 0 0 0-2-5.4 7.7 7.7 0 0 0-5.4-1.9h-1.9l-1.6.4-1.6.7-1.9 1.1-4.9-3.1 1.3-23.9h26.8v9.2h-17.3l-.8 8.8 2.6-.9 2.7-.3a18.3 18.3 0 0 1 5.8.9 14 14 0 0 1 4.8 2.7 12.3 12.3 0 0 1 3.3 4.5 18.3 18.3 0 0 1-.2 13.5 15.6 15.6 0 0 1-3.8 5.2 16.5 16.5 0 0 1-5.5 3.2 19.6 19.6 0 0 1-6.6 1.1 22.9 22.9 0 0 1-9.8-1.9 24.1 24.1 0 0 1-6.8-4.7zM334.1 249.2a25.1 25.1 0 0 0 4.6 3.3 11.2 11.2 0 0 0 5.5 1.4 8.6 8.6 0 0 0 5.8-1.9 6.9 6.9 0 0 0 2.2-5.5 7 7 0 0 0-2-5.4 7.7 7.7 0 0 0-5.4-1.9h-1.9l-1.6.4-1.6.7-1.9 1.1-4.9-3.1 1.3-23.9H361v9.2h-17.3l-.8 8.8 2.6-.9 2.7-.3a18.3 18.3 0 0 1 5.8.9 14 14 0 0 1 4.8 2.7 12.3 12.3 0 0 1 3.3 4.5 18.3 18.3 0 0 1-.2 13.5 15.6 15.6 0 0 1-3.8 5.2 16.5 16.5 0 0 1-5.5 3.2 19.6 19.6 0 0 1-6.6 1.1 22.9 22.9 0 0 1-9.8-1.9 24.1 24.1 0 0 1-6.8-4.7z" transform="translate(-70.5 -70.5)"/><path class="cls-2" d="M55 211.8h250v5H55z"/></svg>