<svg id="icon" xmlns="http://www.w3.org/2000/svg" viewBox="0 0 360 360"><defs><style>.cls-1{fill:#b72532}.cls-2{fill:#fff}</style></defs><title>1001fonts</title><path class="cls-1" d="M0 0h360v360H0z"/><path d="M0 105.9h360v148H0z"/><path class="cls-1" d="M179.3 197.9a52.6 52.6 0 1 0 52.6 52.6 52.7 52.7 0 0 0-52.6-52.6zM374.3 250.5a52.6 52.6 0 1 0-52.6 52.6 52.7 52.7 0 0 0 52.6-52.6zM250.5 281.4a78.6 78.6 0 0 1-47.8 43.2h95.7a78.6 78.6 0 0 1-47.9-43.2z" transform="translate(-70.5 -70.5)"/><path class="cls-1" d="M345.1 176.6a77.6 77.6 0 0 1 0 148h62.4v-148h-62.4zM250.5 219.8a78.6 78.6 0 0 1 47.8-43.2h-95.6a78.6 78.6 0 0 1 47.8 43.2zM101.7 250.6a77.8 77.8 0 0 1 54.2-74H93.5v148h62.4a77.8 77.8 0 0 1-54.2-74z" transform="translate(-70.5 -70.5)"/><path class="cls-1" d="M23 162.9h314v34H23z"/><path class="cls-2" d="M39 193.1h6v-10h9v-5h-9v-6h11v-5H39v26z"/><path class="cls-2" d="M191.6 240.5a10.3 10.3 0 0 0-3.7-2.6 13.4 13.4 0 0 0-9.6 0 10.4 10.4 0 0 0-3.7 2.6 11.8 11.8 0 0 0-2.4 4.2 19.4 19.4 0 0 0 0 11.4 12.4 12.4 0 0 0 2.4 4.3 10.5 10.5 0 0 0 3.7 2.7 12.8 12.8 0 0 0 9.6 0 10.5 10.5 0 0 0 3.7-2.7 12.4 12.4 0 0 0 2.4-4.3 17.7 17.7 0 0 0 .9-5.7 17.4 17.4 0 0 0-.9-5.7 12 12 0 0 0-2.4-4.2zm-4.3 16.1a5.1 5.1 0 0 1-8.5 0 11 11 0 0 1-1.6-6.3 10.4 10.4 0 0 1 1.6-6.1 5.2 5.2 0 0 1 8.5 0 10.4 10.4 0 0 1 1.6 6.1 11 11 0 0 1-1.6 6.4zM255.5 246.7c0 1.5.4 3.4.6 5.1s.7 2.8.8 4.8h-.2l-2.6-5.9-6.8-13.1h-5.9v26h5v-9.2a47.4 47.4 0 0 0 0-5c-.2-1.7-.1-2.8-.2-4.8h.2l2.6 5.8 6.8 13.2h5.7v-26h-6v9.1z" transform="translate(-70.5 -70.5)"/><path class="cls-2" d="M237 172.1h7v21h6v-21h7v-5h-20v5z"/><path class="cls-2" d="M389.8 251.5a9.2 9.2 0 0 0-3.8-2.6l-3.4-1.4-1.6-.7-1.3-.6-.8-.8a1.7 1.7 0 0 1-.3-1 2 2 0 0 1 .9-1.7 4.2 4.2 0 0 1 2.4-.6 7.3 7.3 0 0 1 2.8.5 11.4 11.4 0 0 1 2.6 1.5l3-3.7a11.4 11.4 0 0 0-3.9-2.6 12.1 12.1 0 0 0-4.5-.9 11.2 11.2 0 0 0-3.7.6 9.2 9.2 0 0 0-2.9 1.7 7.5 7.5 0 0 0-1.9 2.5 6.9 6.9 0 0 0-.7 3 7.1 7.1 0 0 0 .4 2.6 6.8 6.8 0 0 0 1.2 2 8.6 8.6 0 0 0 1.7 1.5l1.9 1 3.4 1.4 1.7.8 1.2.6a2.5 2.5 0 0 1 .8.8 2 2 0 0 1 .3 1 2.2 2.2 0 0 1-.9 1.8 4.5 4.5 0 0 1-2.7.7 8.1 8.1 0 0 1-3.3-.8 12.7 12.7 0 0 1-3.1-2l-3.4 4a13.3 13.3 0 0 0 4.5 2.8 14.6 14.6 0 0 0 5.1.9 12.3 12.3 0 0 0 4.2-.7 9.6 9.6 0 0 0 3.1-1.8 7.4 7.4 0 0 0 2.6-5.7 6.8 6.8 0 0 0-1.6-4.1z" transform="translate(-70.5 -70.5)"/></svg>