<svg id="icon" xmlns="http://www.w3.org/2000/svg" viewBox="0 0 360 360"><defs><style>.cls-1{fill:#4f0e4f}.cls-2{fill:#f2abfc}</style></defs><title>adobecolor</title><path class="cls-1" d="M0 0h360v360H0z"/><path class="cls-2" d="M279.9 212.1l-25.5 25.5a29.4 29.4 0 0 1-.2 25.9l25.4 25.4a64.7 64.7 0 0 0 .3-76.8z" transform="translate(-70.5 -70.5)"/><path class="cls-2" d="M228 279.6a29.3 29.3 0 1 1 14-55.1l25.4-25.4a64.7 64.7 0 1 0-.5 102.5l-25.3-25.3a29.2 29.2 0 0 1-13.6 3.3z" transform="translate(-70.5 -70.5)"/><path class="cls-2" d="M330.7 309.1h-2.4l-10.7-10.7a102.2 102.2 0 0 0 .4-95.8l10.8-10.8h1.9a44.7 44.7 0 1 0-44.7-44.6 45.2 45.2 0 0 0 .3 4.8l-9 9a102 102 0 1 0-.7 178.8l9.7 9.7c-.1 1.4-.2 2.9-.2 4.3a44.7 44.7 0 1 0 44.6-44.7zM332 377a23.3 23.3 0 0 1-21.7-32l-31-31a82 82 0 1 1 .5-127.2l31-31a23.3 23.3 0 1 1 13.1 12.3l-31.5 31.5a82 82 0 0 1-.4 101.5l31 31a23.3 23.3 0 1 1 9 44.9z" transform="translate(-70.5 -70.5)"/></svg>