<svg id="icon" xmlns="http://www.w3.org/2000/svg" viewBox="0 0 360 360"><defs><style>.cls-1{fill:#fff}.cls-2{fill:#fdfcfb}.cls-3{fill:#e9423a}.cls-4{fill:#f4d40f}.cls-5{fill:#d84d95}.cls-6{fill:#239bcd}.cls-7{fill:#a96cae}.cls-8{fill:#6ecacc}.cls-9{fill:#c9d72d}.cls-10{fill:#f49022}</style></defs><title>amazingslider</title><path class="cls-1" d="M0 0h360v360H0z"/><path class="cls-2" d="M231.8 194.5c20.4-10.1 42.7-14.6 64.1-21.6 18.4-6.1 29-18.8 32-37.7.9-5.4 1.1-10.8-5.1-14.8-19.2-12.2-52.4-8.6-66.7 9.1s-23.1 40.8-24.2 65.2l-1.6 1.1a1.6 1.6 0 0 0 .9 0 4.4 4.4 0 0 0 .6-1.3zM270.4 306c-22.4 10.7-44.2 15-65 22.1-18.9 6.4-29.9 19.5-32.5 39.4-.6 5-.7 9.8 5.1 13.3 17.6 10.7 47.5 9.5 62.6-4.8 19.3-18.3 25.1-42.7 29.8-70zm35.3-75.3c11.5 22.6 15.2 44.5 22.5 65.3 6.7 19.2 22 31.6 39.2 32.3 5.1.2 9.8.5 13.3-5.2 12.2-19.6 8.9-51.3-8.8-66.8s-40.2-21.6-66.2-25.6zm-79 74c-12.2-5.5-22.6-9.8-32.6-14.8s-20.6-11.7-31.2-16.8c-17.2-8.2-33.9-6.8-49.4 4.6-4.8 3.6-7.4 7.8-5.7 14.5 6.6 26 33.3 43.5 60.1 39.2 21.3-3.3 38.7-15.4 58.8-26.7zm-30.4-78.2c5.4-11.8 9.8-22.2 14.8-32.2s11.5-20.7 16.7-31.2c8.6-17.2 7-33.8-4.5-49.3-3.5-4.7-7.2-8-14.2-6.3-22.1 5.4-40.2 27.7-40.1 50.8.1 26 14.8 45.9 27.3 68.2zm-1.3 46c-4.7-13-8.8-23.4-12.3-34.1s-6.3-22.9-10.2-34c-6.4-18-19-29.1-38.4-31.5-5.8-.7-10.6-.1-14.1 6.3-14.4 25.9-6.2 58 19.2 73.1 16.5 9.9 35.1 13.9 55.8 20.2zm78.5-75.6c25.1 7.6 44.4 21.7 65.9 31.6 16.9 7.8 33.1 6 48.1-5.2 4.8-3.6 7.6-7.5 5.9-14.4-5.8-22.5-27.7-39.9-51.3-39.7-25.8.1-45.5 14.8-68.6 27.7zm30.4 76.6c-7 25.1-20.7 43.5-30.4 63.8-8.5 17.8-7.2 34.8 4.6 50.8 4.2 5.6 8.9 7.2 16 4.8 29.8-10.2 44.4-38.6 35.1-69.1-5.3-17.4-14.6-32.6-25.3-50.3z" transform="translate(-70.5 -70.5)"/><path class="cls-3" d="M270.4 306c-4.6 27.3-10.5 51.8-29.8 70-15.1 14.3-45 15.5-62.6 4.8-5.8-3.5-5.7-8.3-5.1-13.3 2.5-19.9 13.6-33 32.5-39.4 20.8-7.1 42.6-11.4 65-22.1z" transform="translate(-70.5 -70.5)"/><path class="cls-4" d="M305.7 230.7c26 4 48.2 9.9 66.2 25.6s21 47.2 8.8 66.8c-3.5 5.6-8.2 5.4-13.3 5.2-17.2-.7-32.4-13.1-39.2-32.3-7.3-20.8-11-42.8-22.5-65.3z" transform="translate(-70.5 -70.5)"/><path class="cls-5" d="M226.7 304.7c-20.1 11.3-37.4 23.4-58.9 26.8-26.8 4.3-53.6-13.2-60.1-39.2-1.7-6.7.9-10.9 5.7-14.5 15.5-11.4 32.2-12.8 49.4-4.6 10.7 5.1 20.7 11.5 31.2 16.8s20.5 9.2 32.7 14.7z" transform="translate(-70.5 -70.5)"/><path class="cls-6" d="M196.3 226.5c-12.5-22.3-27.2-42.2-27.2-68.2 0-23.1 18.1-45.4 40.1-50.8 7-1.7 10.7 1.5 14.2 6.3 11.4 15.5 13 32.1 4.5 49.3-5.3 10.6-11.4 20.7-16.7 31.2s-9.5 20.3-14.9 32.2z" transform="translate(-70.5 -70.5)"/><path class="cls-7" d="M195 272.5c-20.7-6.3-39.3-10.3-55.9-20.2-25.4-15.1-33.6-47.2-19.2-73.1 3.6-6.5 8.4-7 14.1-6.3 19.4 2.4 32 13.4 38.4 31.5 3.9 11.2 6.5 22.8 10.2 34s7.7 21.1 12.4 34.1z" transform="translate(-70.5 -70.5)"/><path class="cls-8" d="M231.9 194.7c1.1-24.3 9-46.3 24.2-65.2s47.5-21.4 66.7-9.1c6.2 4 6 9.4 5.1 14.8-3 18.9-13.6 31.6-32 37.7-21.4 7.1-43.7 11.5-64.1 21.6h.1z" transform="translate(-70.5 -70.5)"/><path class="cls-9" d="M273.5 196.9c23.2-13 42.9-27.6 68.6-27.8 23.6-.1 45.5 17.2 51.3 39.7 1.8 6.9-1.1 10.9-5.9 14.4-15 11.2-31.2 13-48.1 5.2-21.5-9.7-40.9-23.8-65.9-31.5z" transform="translate(-70.5 -70.5)"/><path class="cls-10" d="M303.9 273.5c10.7 17.7 20 33 25.3 50.3 9.3 30.5-5.3 58.8-35.1 69.1-7 2.4-11.8.8-16-4.8-11.9-16-13.1-32.9-4.6-50.8 9.7-20.3 23.4-38.7 30.4-63.8z" transform="translate(-70.5 -70.5)"/><path class="cls-8" d="M231.8 194.5a4.4 4.4 0 0 1-.6 1.1 1.6 1.6 0 0 1-.9 0l1.6-1.1h-.1z" transform="translate(-70.5 -70.5)"/></svg>