<svg id="icon" xmlns="http://www.w3.org/2000/svg" viewBox="0 0 360 360"><defs><style>.cls-1{fill:#cc4e46}.cls-2{fill:#ff8f29}.cls-3{fill:#fca163}.cls-4{fill:#ffd899}</style></defs><title>amiresponsive</title><path class="cls-1" d="M0 0h360v360H0z"/><path class="cls-2" d="M240.8 183.6h6.2l-8.2-26h-7.1l-8.2 26h6l1.6-7h8zm-8.4-11l.6-2.5c.4-1.3.7-2.7 1.1-4.2s.7-3.3 1-4.3h.2c.3 1 .7 2.8 1 4.2s.7 3 1.1 4.3l.6 2.5h-5.6zM267.2 170.5l2.2-6h.2c-.1 1-.2 1.4-.2 2.2l-.2 2.4c-.1.8-.3 1.6-.3 2.4s-.2 1.5-.2 2.1v9.9h6v-26H268l-4.2 11.6-1.6 4.4h-.2l-1.6-4.4-4.4-11.6h-6.7v26h6v-9.9c0-.6-.1-1.3-.2-2.1s-.2-1.6-.2-2.3-.2-1.6-.2-2.4-.2-1.2-.3-2.2h.2l2.1 6 4 10h2.4z" transform="translate(-70.5 -70.5)"/><path class="cls-3" d="M177 163.1h6v26h-6z"/><g><path class="cls-4" d="M159 322.5a8.3 8.3 0 0 0 1.3-4.7 8.5 8.5 0 0 0-.8-3.9 6.7 6.7 0 0 0-2.2-2.5 8.9 8.9 0 0 0-3.2-1.3 18.1 18.1 0 0 0-3.9-.4h-9.8v26h6v-9h3.6l5 9h6.6l-5.9-10.4a7.6 7.6 0 0 0 3.3-2.8zm-5.7-1.8a5.5 5.5 0 0 1-3.5 1h-3.3v-7h3.3a6.9 6.9 0 0 1 3.5.6 2.8 2.8 0 0 1 1.2 2.6 3.3 3.3 0 0 1-1.2 2.7z" transform="translate(-70.5 -70.5)"/><path class="cls-4" d="M101 254.1h9v-5h-9v-5h10v-5H95v26h17v-5h-11v-6z"/><path class="cls-4" d="M200.1 321l-3.4-1.4-1.6-.7-1.3-.6-.8-.8a1.7 1.7 0 0 1-.3-1 2 2 0 0 1 .9-1.7 4.2 4.2 0 0 1 2.4-.6 7.3 7.3 0 0 1 2.8.5 11.4 11.4 0 0 1 2.6 1.5l3-3.7a11.4 11.4 0 0 0-3.9-2.6 12.1 12.1 0 0 0-4.5-.9 11.2 11.2 0 0 0-3.7.6 9.2 9.2 0 0 0-2.9 1.7 7.5 7.5 0 0 0-1.9 2.5 6.9 6.9 0 0 0-.7 3 7.1 7.1 0 0 0 .4 2.6 6.8 6.8 0 0 0 1.2 2 8.6 8.6 0 0 0 1.7 1.5l1.9 1 3.4 1.4 1.5.7 1.2.6a2.5 2.5 0 0 1 .8.8 2 2 0 0 1 .3 1 2.2 2.2 0 0 1-.9 1.8 4.5 4.5 0 0 1-2.7.7 8.1 8.1 0 0 1-3.3-.8 12.7 12.7 0 0 1-3.1-2l-3.4 4a13.3 13.3 0 0 0 4.5 2.8 14.6 14.6 0 0 0 5.1.9 12.3 12.3 0 0 0 4.2-.7 9.6 9.6 0 0 0 3.1-1.8 7.4 7.4 0 0 0 2.6-5.7 6.8 6.8 0 0 0-1.4-4.4 9.2 9.2 0 0 0-3.8-2.2zM226.4 311.4a8.9 8.9 0 0 0-3.2-1.4 18 18 0 0 0-4-.4h-9.7v26h6v-9h3.7a14.4 14.4 0 0 0 3.9-.4 9.3 9.3 0 0 0 3.2-1.5 7.6 7.6 0 0 0 2.2-2.7 10.1 10.1 0 0 0 0-7.9 6.8 6.8 0 0 0-2.1-2.7zm-7.6 11.2h-3.3v-8h3.3a6.4 6.4 0 0 1 3.6.7 3.5 3.5 0 0 1 1.2 3c0 2.8-1.6 4.3-4.8 4.3zM253.1 312.6a10.3 10.3 0 0 0-3.7-2.6 13.4 13.4 0 0 0-9.6 0 10.4 10.4 0 0 0-3.7 2.6 11.8 11.8 0 0 0-2.4 4.2 19.4 19.4 0 0 0 0 11.4 12.4 12.4 0 0 0 2.4 4.3 10.5 10.5 0 0 0 3.7 2.7 12.8 12.8 0 0 0 9.6 0 10.5 10.5 0 0 0 3.7-2.7 12.4 12.4 0 0 0 2.4-4.3 17.7 17.7 0 0 0 .9-5.7 17.4 17.4 0 0 0-.9-5.7 12 12 0 0 0-2.4-4.2zm-4.3 16.1a5.1 5.1 0 0 1-8.5 0 11 11 0 0 1-1.6-6.3 10.4 10.4 0 0 1 1.6-6.1 5.2 5.2 0 0 1 8.5 0 10.4 10.4 0 0 1 1.6 6.1 11 11 0 0 1-1.7 6.4zM276.5 318.8a48.8 48.8 0 0 0 .1 5c.2 1.7.1 2.8.3 4.8h-.2l-2.6-5.9-6.8-13.1h-5.8v26h5v-9.1a48.7 48.7 0 0 0-.1-5c-.2-1.7-.1-2.8-.3-4.8h.2l2.6 5.8 6.8 13.2h5.8v-26h-5v9.2zM300.5 321l-3.4-1.4-1.6-.7-1.3-.6-.8-.8a1.7 1.7 0 0 1-.3-1 2 2 0 0 1 .9-1.7 4.2 4.2 0 0 1 2.4-.6 7.3 7.3 0 0 1 2.8.5 11.4 11.4 0 0 1 2.6 1.5l3-3.7a11.4 11.4 0 0 0-3.8-2.5 12.1 12.1 0 0 0-4.5-.9 11.2 11.2 0 0 0-3.7.6 9.2 9.2 0 0 0-2.9 1.7 7.5 7.5 0 0 0-1.9 2.5 6.9 6.9 0 0 0-.7 3 7.1 7.1 0 0 0 .4 2.6 6.8 6.8 0 0 0 1.2 2 8.6 8.6 0 0 0 1.7 1.5l1.9 1 3.4 1.4 1.5.7 1.2.6a2.5 2.5 0 0 1 .8.8 2 2 0 0 1 .3 1 2.2 2.2 0 0 1-.9 1.8 4.5 4.5 0 0 1-2.7.7 8.1 8.1 0 0 1-3.3-.8 12.7 12.7 0 0 1-3.1-2l-3.4 4a13.3 13.3 0 0 0 4.5 2.8 14.6 14.6 0 0 0 5.1.9 12.3 12.3 0 0 0 4.2-.7 9.6 9.6 0 0 0 3.1-1.8 7.4 7.4 0 0 0 2.6-5.7 6.8 6.8 0 0 0-1.4-4.4 9.2 9.2 0 0 0-3.9-2.3z" transform="translate(-70.5 -70.5)"/><path class="cls-4" d="M240 239.1h5v26h-5z"/><path class="cls-4" d="M332.5 321.8c-.4 1.4-.7 3.1-1 4.4s-.7 2.4-1 4.4h-.2c-.4-2-.8-3.1-1.1-4.4s-.7-2.9-1.1-4.3l-3.1-12.3h-6.2l7.9 26h7.1l7.8-26h-6z" transform="translate(-70.5 -70.5)"/><path class="cls-4" d="M280 260.1v-6h9v-5h-9v-5h10v-5h-16v26h17v-5h-11z"/></g></svg>