<svg id="icon" xmlns="http://www.w3.org/2000/svg" viewBox="0 0 360 360"><defs><style>.cls-1{fill:#fff}.cls-2{fill:#b2b2b2}.cls-3{fill:#b52e31}.cls-4{fill:#e23237}.cls-5{fill:#f2f2f2}</style></defs><title>angularjs</title><path class="cls-1" d="M0 0h360v360H0z"/><path class="cls-2" d="M250.1 102.1l-139.7 49.1 22.1 183 117.8 64.7 118.4-65.6 22.1-183zm0 0" transform="translate(-70.5 -70.5)"/><path class="cls-3" d="M376.7 160.9l-127-43.3v265.9l106.4-58.9zm0 0" transform="translate(-70.5 -70.5)"/><path class="cls-4" d="M126 161.7l19 163.7 104.8 58.1V117.6zm0 0" transform="translate(-70.5 -70.5)"/><path class="cls-5" d="M279.2 249.9l-29.2-61-25.7 61h54.9zm11.1 25.6h-77.4l-17.3 43.3-32.2.6 86.4-192.1 89.4 192.1h-30zm0 0" transform="translate(-70.5 -70.5)"/><path class="cls-2" d="M249.7 127.3l.2 61.6 29.2 61h-29.3v25.6h40.6l19 43.9 30.8.6zm0 0" transform="translate(-70.5 -70.5)"/></svg>