<svg id="icon" xmlns="http://www.w3.org/2000/svg" viewBox="0 0 360 360"><defs><style>.cls-1{fill:#ff735e}.cls-2{fill:#fff}</style></defs><title>animate</title><path class="cls-1" d="M0 0h360v360H0z"/><path class="cls-2" d="M259.4 135.6h-17.8l-83.9 222h19.6l22.8-62h100.7l23 62h19.5zm-53.4 144l44.5-120.7L295 279.6h-89z" transform="translate(-70.5 -70.5)"/><path class="cls-2" d="M204.3 332.9a9.6 9.6 0 0 1 8.1-3.8 9 9 0 0 1 6.6 2.3 10.4 10.4 0 0 1 3 6.2h6.5a14.7 14.7 0 0 0-4.8-10.3 16.1 16.1 0 0 0-11.3-4 17.7 17.7 0 0 0-9.6 2.6 16.5 16.5 0 0 0-6.2 7.2 24.5 24.5 0 0 0-2.2 10.5v1.2q0 9.6 4.9 15.1t13.1 5.5a17 17 0 0 0 7.8-1.9 16 16 0 0 0 5.9-5.1 13.9 13.9 0 0 0 2.4-6.7H222a8.6 8.6 0 0 1-3.1 5.7 10 10 0 0 1-6.5 2.3 9.6 9.6 0 0 1-8.2-3.7c-1.9-2.5-2.8-6.1-2.8-10.7V344c.1-5 1-8.6 2.9-11.1zM260.4 344a37.3 37.3 0 0 0-8.4-2.8 24.3 24.3 0 0 1-7.2-2.4 4.2 4.2 0 0 1-2-3.8 5.2 5.2 0 0 1 2.1-4.3 9.4 9.4 0 0 1 5.9-1.6 8.9 8.9 0 0 1 6.1 1.8 5.7 5.7 0 0 1 2.4 4.7h6.9a11.9 11.9 0 0 0-4.3-8.9c-2.9-2.4-6.6-3.4-11.1-3.4a16.4 16.4 0 0 0-10.7 3.5 10.5 10.5 0 0 0-4.2 8.4 9 9 0 0 0 1.5 5.2 11.9 11.9 0 0 0 4.6 3.7 34.8 34.8 0 0 0 8.3 2.7q5.2 1.1 7.4 2.7a5.1 5.1 0 0 1 2.1 4.4 4.9 4.9 0 0 1-2.4 4.2 11.1 11.1 0 0 1-6.3 1.6 10.9 10.9 0 0 1-6.9-2.3c-1.7-1.4-2.7-2.8-2.8-5.8h-6.9a11.1 11.1 0 0 0 2.1 6.9 14.2 14.2 0 0 0 5.8 4.9 20.4 20.4 0 0 0 8.6 1.8c4.6 0 8.4-1.1 11.2-3.2a10.3 10.3 0 0 0 4.3-8.7 9.5 9.5 0 0 0-1.6-5.5 12.2 12.2 0 0 0-4.5-3.8zM299.9 344a37.3 37.3 0 0 0-8.4-2.8 24.3 24.3 0 0 1-7.2-2.4 4.2 4.2 0 0 1-2-3.8 5.2 5.2 0 0 1 2.1-4.3 9.4 9.4 0 0 1 5.9-1.6 8.9 8.9 0 0 1 6.1 1.8 5.7 5.7 0 0 1 2.4 4.7h6.9a11.9 11.9 0 0 0-4.3-8.9c-2.9-2.4-6.6-3.4-11.1-3.4a16.4 16.4 0 0 0-10.7 3.5 10.5 10.5 0 0 0-4.2 8.4 9 9 0 0 0 1.5 5.2 11.9 11.9 0 0 0 4.6 3.7 34.8 34.8 0 0 0 8.3 2.7q5.2 1.1 7.4 2.7a5.1 5.1 0 0 1 2.1 4.4 4.9 4.9 0 0 1-2.4 4.2 11.1 11.1 0 0 1-6.3 1.6 10.9 10.9 0 0 1-6.9-2.3c-1.7-1.4-2.7-2.8-2.8-5.8H274a11.1 11.1 0 0 0 2.1 6.9 14.2 14.2 0 0 0 5.8 4.9 20.4 20.4 0 0 0 8.6 1.8c4.6 0 8.4-1.1 11.2-3.2a10.3 10.3 0 0 0 4.3-8.7 9.5 9.5 0 0 0-1.6-5.5 12.2 12.2 0 0 0-4.5-3.8z" transform="translate(-70.5 -70.5)"/></svg>