<svg id="icon" xmlns="http://www.w3.org/2000/svg" viewBox="0 0 360 360"><defs><style>.cls-1{fill:#5fb57d}.cls-2{fill:none;stroke:#000;stroke-miterlimit:10;stroke-width:5px}.cls-3{fill:#fff}</style></defs><title>atom</title><path class="cls-1" d="M0 0h360v360H0z"/><path class="cls-3" d="M349.9 216.7c-25.5-10.9-59.7-18-96.3-20.1-5.7-.3-11.5-.5-17.3-.5 13.4-16.4 27.3-30.2 40.8-40.3 19.6-14.7 35.8-19.8 44.7-14s10.7 22.8 5 46.5a5.1 5.1 0 1 0 10 2.4c6.8-28.7 3.5-49.1-9.4-57.5s-32.9-3.3-56.5 14.4c-15.9 12-32.4 28.8-47.9 48.7a319.1 319.1 0 0 0-37.8 3.3c-7.8-34.5-4.8-59.2 6.7-65.1 9.4-4.8 25 2.2 42.8 18.9a5.1 5.1 0 0 0 7.1-7.5c-21.4-20.2-40.8-27.6-54.5-20.7-18.3 9.2-20.3 39.7-12.1 75.9-36.5 7-63.6 20.9-64.8 41.4s22.2 36.9 59.5 48.6a199.6 199.6 0 0 0-5.7 19.2c-6.8 28.7-3.5 49.1 9.4 57.5a25 25 0 0 0 14 3.9c15.7 0 36.4-11.3 58-31.2 19.7 22.7 40.2 37.8 57 37.8a24.4 24.4 0 0 0 11.1-2.6c26.4-13.3 21.1-75.2-12.3-144.1a5.1 5.1 0 0 0-9.3 4.5C324.5 303 327 357.5 309 366.6a14 14 0 0 1-6.4 1.4c-12.2 0-30.5-12.3-49.8-34.5a334.1 334.1 0 0 0 39.3-48.3 5.1 5.1 0 1 0-8.5-5.8 324 324 0 0 1-37.4 46c-5.4-6.8-10.7-14.3-16-22.5l11.1 1h.4a5.1 5.1 0 0 0 .4-10.3c-6.4-.5-12.7-1.1-18.7-1.8q-6.1-10.3-11.9-21.7c-3.9-7.6-7.3-15.1-10.4-22.5 4-7 8.3-14.1 12.9-21.1s9.4-13.8 14.2-20.2c8-.1 16.2.1 24.8.6 35.5 2 68.5 8.8 92.9 19.3 22.5 9.6 35.1 21.1 34.5 31.7s-14.4 20.6-37.8 27.6a5.1 5.1 0 0 0 2.9 9.9c28.2-8.4 44.3-21.5 45.1-36.9s-13.6-30.3-40.7-41.8zm-229.2 26.4c.7-12.9 22.3-25.5 57-32.1a319.2 319.2 0 0 0 12.1 36 311.8 311.8 0 0 0-16.3 34.5C139.7 271 120 256 120.7 243.1zm96.5 58.3a319.1 319.1 0 0 0 21.8 31.1c-26 24.1-48.9 33.8-59.7 26.7-8.8-5.8-10.6-22.8-5-46.5a190.6 190.6 0 0 1 5.5-18.7 308.9 308.9 0 0 0 37.4 7.4zm-14.9-26.6q3.9 7.7 8.2 15.2c-9.7-1.6-18.7-3.5-27-5.7 3.3-8.2 7.1-16.6 11.5-25.1 2.3 5.2 4.7 10.4 7.3 15.6zm3-53.9q-4.8 7.3-9.1 14.6c-3.4-9.1-6.3-17.9-8.5-26.2 8.5-1.2 17.7-2.1 27.4-2.6q-4.9 6.9-9.7 14.2z" transform="translate(-70.5 -70.5)"/><circle class="cls-3" cx="180" cy="179.5" r="18.6"/></svg>