<svg id="icon" xmlns="http://www.w3.org/2000/svg" xmlns:xlink="http://www.w3.org/1999/xlink" viewBox="0 0 360 360"><defs><style>.cls-1{fill:#fff}.cls-2{fill:url(#linear-gradient)}.cls-3{fill:url(#linear-gradient-2)}.cls-4{fill:url(#linear-gradient-3)}.cls-5{fill:url(#linear-gradient-4)}</style><linearGradient id="linear-gradient" x1="172.15" y1="348.39" x2="314.04" y2="151.54" gradientUnits="userSpaceOnUse"><stop offset="0" stop-color="#7d5ec0"/><stop offset="1" stop-color="#000a4d"/></linearGradient><linearGradient id="linear-gradient-2" x1="109.7" y1="283.83" x2="251.7" y2="86.83" xlink:href="#linear-gradient"/><linearGradient id="linear-gradient-3" x1="146.66" y1="310.47" x2="288.66" y2="113.47" xlink:href="#linear-gradient"/><linearGradient id="linear-gradient-4" x1="195.28" y1="350.14" x2="279.22" y2="214.25" xlink:href="#linear-gradient"/></defs><title>calltoidea</title><path class="cls-1" d="M0 0h360v360H0z"/><path class="cls-2" d="M256.8 207.5a27.7 27.7 0 0 0-28.1 28.1h56.1a27.7 27.7 0 0 0-28-28.1z" transform="translate(-70.5 -70.5)"/><path class="cls-3" d="M151 171.1h72v11h-72z"/><path class="cls-4" d="M180 251.1h11v11h-11z"/><path class="cls-5" d="M321.9 280a71.8 71.8 0 0 1-34.4 35.1l1.2 24.2-65.1 23.7 2.4-47 1.2-.4 59.3-21.6-1.6-32.2h-56.2l-2.7 53.3a71.5 71.5 0 1 1 94.2-97.4l68.6-29.9a146.4 146.4 0 1 0-137.5 208.8l44.4-16.2v11a146.4 146.4 0 0 0 94.6-81.5zm-71.5-2h10.9v11h-10.9v-10.9zm10.9 97.8h-10.9V365h10.9v10.9z" transform="translate(-70.5 -70.5)"/></svg>