<svg id="icon" xmlns="http://www.w3.org/2000/svg" viewBox="0 0 360 360"><defs><style>.cls-1{fill:#ebe2cf}.cls-2{fill:#584e3b}.cls-3{fill:#39b54a}.cls-4{fill:#ab2a18}.cls-5{font-size:14px;fill:#e5e5e5;font-family:Roboto}.cls-6{fill:#67c16d}</style></defs><title>caniuse</title><path class="cls-1" d="M0 0h360v360H0z"/><path class="cls-2" d="M0 160.6h360v40H0z"/><path class="cls-3" d="M86.6 165.7h73.9v29.83H86.6zM86.6 89.7h73.9v29.83H86.6zM86.6 53.7h73.9v29.83H86.6zM168.1 165.7H242v29.83h-73.9zM249.6 165.7h73.9v29.83h-73.9zM331.1 165.1H360v29.83h-28.9z"/><path class="cls-4" d="M5.1 165.7H79v29.83H5.1z"/><text class="cls-5" transform="translate(34 184.7)">14</text><path class="cls-4" d="M5.1 124.7H79v29.83H5.1z"/><text class="cls-5" transform="translate(34 143.7)">15</text><path class="cls-3" d="M5.1 90.7H79v29.83H5.1z"/><text class="cls-5" transform="translate(34 109.7)">16</text><text class="cls-5" transform="translate(115.5 184.7)">49</text><text class="cls-5" transform="translate(197 184.7)">5.0</text><text class="cls-5" transform="translate(115.5 72.7)">52</text><text class="cls-5" transform="translate(115.5 108.7)">51</text><path class="cls-3" d="M86.6 125.7h73.9v29.83H86.6z"/><text class="cls-5" transform="translate(115.5 144.7)">50</text><path class="cls-3" d="M249.6 124.7h73.9v29.83h-73.9z"/><text class="cls-5" transform="translate(278.5 143.7)">9.4</text><path class="cls-3" d="M249.6 89.7h73.9v29.83h-73.9z"/><text class="cls-5" transform="translate(278.5 108.7)">9.5</text><path class="cls-6" d="M86.6 205.7h73.9v29.83H86.6z"/><text class="cls-5" transform="translate(115.5 224.7)">48</text><path class="cls-6" d="M86.6 240.7h73.9v29.83H86.6z"/><text class="cls-5" transform="translate(115.5 259.7)">47</text><text class="cls-5" transform="translate(276.6 184.7)">9.3</text><path class="cls-4" d="M168.2 205.7h73.9v29.83h-73.9z"/><text class="cls-5" transform="translate(195.2 224.7)">4.0</text><path class="cls-4" d="M168.2 241.7h73.9v29.83h-73.9z"/><text class="cls-5" transform="translate(195.2 260.7)">3.0</text></svg>