<svg id="icon" xmlns="http://www.w3.org/2000/svg" viewBox="0 0 360 360"><defs><style>.cls-1{fill:#18b9c1}.cls-2{fill:#fdfdfd}</style></defs><title>canva</title><path class="cls-1" d="M0 0h360v360H0z"/><path class="cls-2" d="M351.4 297.4c-8.2-5.5-13.5 1.1-18.2 6.9-3.3 4-6.2 8.5-9.6 12.4-25.4 30-61.6 43.3-88.6 32.7s-43.9-42.6-43.5-86.9c2.3-32.5 13.3-68.1 38.2-98.2 11.4-13.8 24.7-28.3 45-21.7s17.4 23.7 16.2 39.7c-.5 6.5.2 13.3 7.5 15.4s13.6-3.5 18.2-9.4c15.5-20.2 8.5-50.8-16.4-64.5-30.9-17-61.5-12-88.3 8.9-53.2 41.6-73.7 97.8-65.8 163.9 5.8 48.8 42.1 85.2 86.7 90.6s104.7-29.1 120.5-69.9c3-7.4 5.8-14.8-1.9-19.9z" transform="translate(-70.5 -70.5)"/></svg>