<svg id="icon" xmlns="http://www.w3.org/2000/svg" viewBox="0 0 360 360"><defs><style>.cls-1{fill:#fff}.cls-2{fill:#f30}</style></defs><title>circletypejs</title><path class="cls-1" d="M0 0h360v360H0z"/><path class="cls-2" d="M42 204.4l-.4-2.5-16.9 2.8-1-6.1-2 .3 2.4 14.7 2-.4-1-6 16.9-2.8zM40.3 191l-8.9.4-.4-9.7 8.8-.4-.1-2.5-19.2.8.2 2.5 8.2-.3.4 9.6-8.2.4.1 2.5 19.2-.8-.1-2.5z"/><path class="cls-2" transform="rotate(-87.3 28.726 244.945)" d="M99.7 233.7h2.5v19.2h-2.5z"/><path class="cls-2" d="M96.6 236.9a4.4 4.4 0 0 0 3.5-1 11.9 11.9 0 0 0 2.9-4.4 11.4 11.4 0 0 1 2-3.4 2.6 2.6 0 0 1 2.3-.7 2.7 2.7 0 0 1 2.1 1.3 5 5 0 0 1 .4 3.2 5.4 5.4 0 0 1-1.4 3.3 3.3 3.3 0 0 1-2.9.9l-.3 2.5a5.1 5.1 0 0 0 3.1-.5 6.2 6.2 0 0 0 2.4-2.4 9 9 0 0 0 1.2-3.6 7.8 7.8 0 0 0-.8-5 4.5 4.5 0 0 0-3.5-2.3 4.8 4.8 0 0 0-2.6.3 5.7 5.7 0 0 0-2.1 1.7 15.7 15.7 0 0 0-1.9 3.5 9.8 9.8 0 0 1-1.9 3.2 2.5 2.5 0 0 1-2.1.7 2.8 2.8 0 0 1-2.1-1.3 4.6 4.6 0 0 1-.4-3 4.5 4.5 0 0 1 1.4-3 3.5 3.5 0 0 1 2.9-.7l.3-2.5a5.4 5.4 0 0 0-3 .5 5.8 5.8 0 0 0-2.4 2.1 7.9 7.9 0 0 0-1.2 3.4 7.2 7.2 0 0 0 .9 4.9 4.6 4.6 0 0 0 3.2 2.3z" transform="translate(-70.5 -70.5)"/><path class="cls-2" d="M28.6 137.4l16.5 4.7.7-2.4-16.5-4.8 1.8-5.9-2-.6-4.2 14.3 2 .6 1.7-5.9zM53 120.3l-1.9-.8-3.7 9-6.3-2.6 3.2-7.7-1.9-.8-3.2 7.7-5.7-2.4 3.7-8.8-2-.8-4.6 11.2 17.8 7.3 4.6-11.3zM53.5 119.3l1.4-2.7-4.2-7.7 8.8-.6 1.5-2.6-11.5.8-5.4-9.9-1.5 2.6 4.3 7.6-8.7.5-1.4 2.6 11.2-.8 5.5 10.2zM51 90.1l14 9.9 1.4-2.1L52.5 88l3.6-5-1.7-1.2-8.6 12.1 1.7 1.2 3.5-5zM77 84.8l-5.2-5.4-5.8-5.5 15.3 6.6 1.4-1.3-6.3-15.5 5.4 5.9 5.3 5.4 1.8-1.8-13.5-13.7-2.3 2.3 6.5 15.5-15.5-6.8-2.3 2.3 13.4 13.7 1.8-1.7z"/><path class="cls-2" d="M163.2 140.8l-1.5-5.1 6.5-4.7 4.4 3 2.1-1.5-17.3-11.2-1.8 1.3 5.4 19.8zm-4.8-16.4l7.9 5.3-5.3 3.9z" transform="translate(-70.5 -70.5)"/><path class="cls-2" d="M108.3 59.6l-3.2-5.7.8-3.2 10.3 4.4 2.7-1.5-12.4-5.3 2.5-11.1-2.7 1.5-2.8 12.4-4.6-8.2-2.2 1.2 9.4 16.7 2.2-1.2zM131.7 48.3l-.8-1.9-8.9 3.7-2.6-6.2 7.6-3.3-.8-1.9-7.6 3.3-2.5-5.7 8.8-3.7-.8-1.9-11.1 4.7 7.5 17.6 11.2-4.7z"/><path class="cls-2" d="M214.9 113.7a4.5 4.5 0 0 0 .7-4.1 4.8 4.8 0 0 0-1.4-2.3 5.7 5.7 0 0 0-2.5-1.2 15.7 15.7 0 0 0-4-.3 9.8 9.8 0 0 1-3.7-.5 2.5 2.5 0 0 1-1.5-1.6 2.8 2.8 0 0 1 .3-2.5 4.6 4.6 0 0 1 2.6-1.6 4.5 4.5 0 0 1 3.3.1 3.5 3.5 0 0 1 1.8 2.3l2.4-.7a5.4 5.4 0 0 0-1.7-2.6 5.8 5.8 0 0 0-2.9-1.3 7.9 7.9 0 0 0-3.6.3 7.2 7.2 0 0 0-4.1 2.8 4.6 4.6 0 0 0-.7 4.1 4.4 4.4 0 0 0 2.4 2.8 11.9 11.9 0 0 0 5.2.8 11.4 11.4 0 0 1 3.9.4 2.6 2.6 0 0 1 1.6 1.8 2.7 2.7 0 0 1-.4 2.4 5 5 0 0 1-2.7 1.7 5.4 5.4 0 0 1-3.6 0 3.3 3.3 0 0 1-2-2.3l-2.4.7a5.1 5.1 0 0 0 1.7 2.6 6.2 6.2 0 0 0 3.1 1.2 9 9 0 0 0 3.8-.3 7.8 7.8 0 0 0 4.4-2.7zM240.9 110.5l-9.7-18.1-2.2.3-4.8 20 2.6-.3 1.2-5.2 8-1 2.5 4.7zm-12.5-5.5l2.1-9.3 4.4 8.5zM263.8 104.7h-2.5a5.3 5.3 0 0 1-1.6 3.3 4.9 4.9 0 0 1-3.3.8 4.2 4.2 0 0 1-3.6-2 8.5 8.5 0 0 1-1.1-5v-1.9a8.2 8.2 0 0 1 1.6-5 4.5 4.5 0 0 1 3.9-1.6 4.3 4.3 0 0 1 3 1.1 5.5 5.5 0 0 1 1.3 3.4h2.5a7.2 7.2 0 0 0-2-4.8 6.9 6.9 0 0 0-4.8-1.9 7.5 7.5 0 0 0-4.1.9 7.1 7.1 0 0 0-2.8 3 10.9 10.9 0 0 0-1.1 4.7v1.8a9.8 9.8 0 0 0 1.8 6.6 6.8 6.8 0 0 0 5.4 2.6 7.4 7.4 0 0 0 5.1-1.5 7.1 7.1 0 0 0 2.3-4.5zM280.7 109.4a11.9 11.9 0 0 0 1.7-4.7l.2-1.2a11.9 11.9 0 0 0-.1-5 7.2 7.2 0 0 0-2.1-3.6 7.4 7.4 0 0 0-3.8-1.8 7.1 7.1 0 0 0-7.4 3.2 11.7 11.7 0 0 0-1.7 4.7l-.2 1.4a11.4 11.4 0 0 0 .2 4.9 7.6 7.6 0 0 0 10.1 4.9 7.2 7.2 0 0 0 3.1-2.8zm-3-.1a4.9 4.9 0 0 1-7.5-1.3 8.6 8.6 0 0 1-.5-5.4l.2-1.4a8.4 8.4 0 0 1 2.2-4.8 4.5 4.5 0 0 1 4-1.2 4.5 4.5 0 0 1 3.5 2.4 8.6 8.6 0 0 1 .5 5.4l-.2 1.4a8.6 8.6 0 0 1-2.2 4.9z" transform="translate(-70.5 -70.5)"/><path class="cls-2" d="M218.3 37.3l2.2-7.7 1.2 16.6 1.9.6 10.7-12.9-2.7 7.6-2.2 7.2 2.4.7 5.8-18.2-3.1-1-10.8 13-1.2-16.9-3.1-1-5.8 18.3 2.4.8 2.3-7.1z"/><path class="cls-2" d="M308 122.7l3.3-6.8 4.1 2a7.4 7.4 0 0 0 5.2.8 5.4 5.4 0 0 0 3.4-3.1 5.5 5.5 0 0 0 .2-4.6 7.1 7.1 0 0 0-3.7-3.6l-6.4-3.1-8.4 17.3zm7.5-15.4l4.2 2a4.3 4.3 0 0 1 2.2 2.3 3.6 3.6 0 0 1-.2 2.9 3.5 3.5 0 0 1-2.2 2 4.5 4.5 0 0 1-3.2-.5l-4.1-2z" transform="translate(-70.5 -70.5)"/><path class="cls-2" d="M259.9 64.7L261 63l-7.7-4.9 9.1-14.5-2.2-1.3L250 58.5l9.9 6.2zM271.4 73.7l1.3-1.7-7.6-5.9 4.2-5.4 6.5 5.1 1.3-1.6-6.5-5.1 3.8-4.9 7.5 5.9 1.2-1.7-9.5-7.4-11.8 15.1 9.6 7.6zM276.9 78.8l1.8 1.8 11.9-12.3 4.5 4.3 1.4-1.5-10.6-10.3-1.5 1.5 4.4 4.3-11.9 12.2zM292.4 96.1l1.6-1.3-6.2-7.5 5.3-4.3 5.3 6.4 1.6-1.3-5.3-6.4 4.8-4 6 7.4 1.6-1.3-7.7-9.3-14.8 12.2 7.8 9.4z"/><path class="cls-2" d="M369.4 176.3l6.7-4 2.3 3.9-4.6 7.5 1.4 2.3h.1l4.7-8a5.8 5.8 0 0 0 3.1 1.3 5.2 5.2 0 0 0 3.2-.8 5.3 5.3 0 0 0 2.8-3.7 7.5 7.5 0 0 0-1.3-5l-3.2-5.5-16.5 9.8zm14.7-8.7l2 3.3a4.5 4.5 0 0 1 .7 3.1 3.5 3.5 0 0 1-1.8 2.3 3.3 3.3 0 0 1-2.8.4 4.4 4.4 0 0 1-2.4-2.1l-2-3.3zM383.9 183.9a11.4 11.4 0 0 0-4 2.8 7.6 7.6 0 0 0 1.4 11.2 7.2 7.2 0 0 0 4 1.2 11.9 11.9 0 0 0 4.9-1.1l1.1-.5a11.9 11.9 0 0 0 4.1-2.8 7.2 7.2 0 0 0 1.9-3.8 7.4 7.4 0 0 0-.6-4.2 7.1 7.1 0 0 0-6.7-4.4 11.7 11.7 0 0 0-4.9 1.1zm7.7.9a4.5 4.5 0 0 1 3.2 2.7 4.5 4.5 0 0 1-.1 4.2 8.6 8.6 0 0 1-4.3 3.4l-1.3.6a8.6 8.6 0 0 1-5.2.8 4.9 4.9 0 0 1-3-7 8.6 8.6 0 0 1 4.2-3.4l1.3-.6a8.4 8.4 0 0 1 5.2-.7z" transform="translate(-70.5 -70.5)"/><path class="cls-2" d="M313.8 138.2l.7 2.4 16.4-4.9 1.8 5.9 1.9-.6-4.3-14.2-1.9.5 1.7 5.9-16.3 5z"/><path class="cls-2" d="M387.2 219.1l5.3.9 1.5 7.9-4.6 2.7.5 2.6 17.5-10.7-.4-2.2-20.2-3.7zm16.9 2.8l-8.2 4.9-1.2-6.4z" transform="translate(-70.5 -70.5)"/><path class="cls-2" d="M336.6 166.2l-17 1.4.1 2.5 17.1-1.4.5 6.2 2.1-.2-1.2-14.8-2.1.2.5 6.1z"/><path class="cls-2" transform="rotate(-89.1 328.962 251.326)" d="M398.9 241.2h2.5v19.2h-2.5z"/><path class="cls-2" d="M405.6 257.8a11.7 11.7 0 0 0-4.8-1.4h-1.4a11.4 11.4 0 0 0-4.8.6 7.6 7.6 0 0 0-4.1 10.5 7.2 7.2 0 0 0 3 3 11.9 11.9 0 0 0 4.8 1.4h1.2a11.9 11.9 0 0 0 5-.5 7.2 7.2 0 0 0 3.5-2.4 7.4 7.4 0 0 0 1.5-4 7.1 7.1 0 0 0-3.9-7.2zm1.6 6.9a4.5 4.5 0 0 1-2.2 3.7 8.6 8.6 0 0 1-5.3.9h-1.4a8.6 8.6 0 0 1-5-1.8 4.9 4.9 0 0 1 .8-7.6 8.6 8.6 0 0 1 5.3-.9h1.4a8.4 8.4 0 0 1 4.9 1.9 4.5 4.5 0 0 1 1.5 3.8z" transform="translate(-70.5 -70.5)"/><path class="cls-2" d="M317.8 206l14.4 3.3-16.6 6.2-.5 2.4 18.7 4.2.6-2.4-14.5-3.3 16.6-6.2.5-2.5-18.7-4.2-.5 2.5zM310.9 230.2l13.7 5.7-17.4 3.2-1 2.3 17.6 7.5 1-2.3-13.7-5.8 17.5-3.1 1-2.4-17.7-7.5-1 2.4z"/><path class="cls-2" d="M384 320l-1.2-.7a11.4 11.4 0 0 0-4.6-1.6 7.6 7.6 0 0 0-8.2 7.7 7.2 7.2 0 0 0 1.4 3.9 11.9 11.9 0 0 0 3.8 3.3l1 .6a11.9 11.9 0 0 0 4.7 1.7 7.2 7.2 0 0 0 4.2-.7 7.4 7.4 0 0 0 3-2.9 7.1 7.1 0 0 0-.3-8 11.7 11.7 0 0 0-3.8-3.3zm2.2 10.2a4.5 4.5 0 0 1-3.5 2.4 8.6 8.6 0 0 1-5.2-1.5l-1.2-.7a8.6 8.6 0 0 1-3.7-3.8 4.9 4.9 0 0 1 4-6.5 8.6 8.6 0 0 1 5.2 1.4l1.2.7a8.4 8.4 0 0 1 3.6 3.8 4.5 4.5 0 0 1-.4 4.2z" transform="translate(-70.5 -70.5)"/><path class="cls-2" d="M289.7 267.4l5.6 5 6.2 5.1-15.8-5.6-1.3 1.5 7.5 15-5.9-5.5-5.6-5-1.7 1.9 14.4 12.7 2.2-2.4-7.6-15.1 15.9 5.7 2.2-2.5-14.4-12.7-1.7 1.9z"/><path class="cls-2" d="M345.6 353.5l1.9 5-6.1 5.2-4.6-2.6-2 1.7 18 9.9 1.7-1.4-6.8-19.4zm6 16l-8.3-4.7 5-4.2z" transform="translate(-70.5 -70.5)"/><path class="cls-2" d="M269.7 309.1L260 295l-2 1.4 9.6 14.2-5.1 3.4 1.2 1.7 12.3-8.3-1.2-1.7-5.1 3.4zM254.6 318.4l-8-15.1-2.3 1.2 8.1 15.1-5.5 2.9 1 1.8 13.1-6.9-1-1.9-5.4 2.9zM225.4 312.7l.8 2 8.9-3.6 2.5 6.3-7.7 3.1.8 1.9 7.7-3 2.3 5.7-8.9 3.5.8 1.9 11.2-4.4-7.1-17.9-11.3 4.5z"/><path class="cls-2" d="M290.9 384.7l2 7.5-4.3 1.2-6.1-6.4-2.6.7v.2l6.5 6.7a5.8 5.8 0 0 0-2.1 2.6 5.2 5.2 0 0 0-.1 3.3 5.3 5.3 0 0 0 2.8 3.7 7.5 7.5 0 0 0 5.2.1l6.1-1.7-4.9-18.6zm4.5 16.5l-3.7 1a4.5 4.5 0 0 1-3.2-.1 3.5 3.5 0 0 1-1.7-2.4 3.3 3.3 0 0 1 .4-2.8 4.4 4.4 0 0 1 2.6-1.7l3.8-1z" transform="translate(-70.5 -70.5)"/><path class="cls-2" d="M198.4 319l.9 8.8-9.7.9-.8-8.8-2.5.2 1.8 19.2 2.5-.3-.8-8.2 9.7-.9.8 8.2 2.5-.3-1.9-19.1-2.5.3z"/><path class="cls-2" d="M249.8 391.5a7.9 7.9 0 0 0-8.1-.3 7.2 7.2 0 0 0-2.8 3.1 11.9 11.9 0 0 0-1.1 4.9v1.2a11.9 11.9 0 0 0 .8 5 7.2 7.2 0 0 0 2.6 3.3 7.4 7.4 0 0 0 4 1.2 7.1 7.1 0 0 0 6.9-4.2 11.7 11.7 0 0 0 1.1-4.9v-1.4a11.4 11.4 0 0 0-.8-4.8 7.4 7.4 0 0 0-2.6-3.1zm.9 9.6a8.4 8.4 0 0 1-1.6 5 4.5 4.5 0 0 1-3.8 1.7 4.5 4.5 0 0 1-3.8-2 8.6 8.6 0 0 1-1.2-5.3v-1.4a8.6 8.6 0 0 1 1.6-5.1 4.9 4.9 0 0 1 7.6.4 8.6 8.6 0 0 1 1.2 5.2v1.4z" transform="translate(-70.5 -70.5)"/><path class="cls-2" d="M159 318.6l-6.5 13-.6 1.4v-1.5l-1.4-14.5-2.3-.4-8 18.1 2.5.4 5.3-12.3.8-2.5.1 2.4 1.3 13.8 2.1.4 6.1-12.5 1-2.2-.1 2.6.6 13.5 2.5.4-1.1-19.7-2.3-.4zM123.8 310.8l8.5 3.2-6 16 2.3.9 6.8-18-10.9-4.1-.7 2z"/><path class="cls-2" d="M187.4 375.3a7.4 7.4 0 0 0-4.1-.8 7.2 7.2 0 0 0-3.8 1.6 11.9 11.9 0 0 0-3.1 4l-.5 1.1a11.9 11.9 0 0 0-1.4 4.8 7.2 7.2 0 0 0 1 4.1 7.4 7.4 0 0 0 3.1 2.8 7.1 7.1 0 0 0 8-.9 11.7 11.7 0 0 0 3.1-3.9l.6-1.2a11.4 11.4 0 0 0 1.3-4.7 7.2 7.2 0 0 0-4.2-6.9zm.5 10.6l-.6 1.3a8.4 8.4 0 0 1-3.6 3.9 4.5 4.5 0 0 1-4.2-.1 4.5 4.5 0 0 1-2.6-3.4 8.6 8.6 0 0 1 1.1-5.3l.6-1.3a8.6 8.6 0 0 1 3.5-3.9 4.9 4.9 0 0 1 6.8 3.5 8.6 8.6 0 0 1-1 5.3z" transform="translate(-70.5 -70.5)"/><path class="cls-2" d="M105 298.5l-8.3 12.2.4-17.7-2.1-1.4-10.9 15.8 2.1 1.5 8.4-12.3-.4 17.7 2.1 1.5 10.8-15.9-2.1-1.4z"/><path class="cls-2" d="M156 367.8l1.1-1.2a10.8 10.8 0 0 0 2.4-4.2 7.3 7.3 0 0 0 0-4.2 7.9 7.9 0 0 0-2.4-3.6 11 11 0 0 0-3.5-2.2 5.9 5.9 0 0 0-3.4-.3l-4.7 5.3 5.2 4.6 1.4-1.5-3.3-3 2.9-3.2a3.9 3.9 0 0 1 2 .4 8.8 8.8 0 0 1 2.1 1.4 4.8 4.8 0 0 1 1.7 4.1 8.2 8.2 0 0 1-2.3 4.8l-1 1.2a8.7 8.7 0 0 1-4.4 3 4.5 4.5 0 0 1-4.1-1.2 4.2 4.2 0 0 1-.8-5.9l-1.9-1.7a6.7 6.7 0 0 0-1.2 4.7 7.3 7.3 0 0 0 2.6 4.4 7.1 7.1 0 0 0 5.8 2 10.1 10.1 0 0 0 5.8-3.7z" transform="translate(-70.5 -70.5)"/><path class="cls-2" transform="rotate(-40.5 5.985 408.245)" d="M127.1 346.4h19.2v2.53h-19.2z"/><path class="cls-2" d="M67.4 263.4l-1.5-2.1-13.8 10.1-3.7-5-1.6 1.2 8.7 12 1.7-1.2-3.6-5 13.8-10z"/><path class="cls-2" transform="rotate(-29 -52.253 423.772)" d="M109.9 321.7h19.2v2.53h-19.2z"/><path class="cls-2" d="M114.9 317.1a11.9 11.9 0 0 0 .1-5.3 11.4 11.4 0 0 1-.1-3.9 2.6 2.6 0 0 1 1.6-1.8 2.7 2.7 0 0 1 2.5.1 5 5 0 0 1 2 2.5 5.4 5.4 0 0 1 .5 3.5 3.3 3.3 0 0 1-2 2.3l1 2.3a5.1 5.1 0 0 0 2.3-2.1 6.2 6.2 0 0 0 .8-3.3 9 9 0 0 0-.8-3.7 7.8 7.8 0 0 0-3.3-3.9 4.5 4.5 0 0 0-4.2-.1 4.8 4.8 0 0 0-2 1.6 5.7 5.7 0 0 0-.9 2.6 15.7 15.7 0 0 0 .2 4 9.8 9.8 0 0 1 0 3.7 2.5 2.5 0 0 1-1.4 1.7 2.8 2.8 0 0 1-2.5 0 4.6 4.6 0 0 1-2-2.3 4.5 4.5 0 0 1-.4-3.3 3.5 3.5 0 0 1 2-2.1l-1-2.3a5.4 5.4 0 0 0-2.3 2 5.8 5.8 0 0 0-.9 3.1 7.9 7.9 0 0 0 .8 3.5 7.2 7.2 0 0 0 3.3 3.7 4.6 4.6 0 0 0 4.2.1 4.4 4.4 0 0 0 2.5-2.6zM118 296.9a1.4 1.4 0 0 0-1.1 0 1.5 1.5 0 0 0-.9.7 1.5 1.5 0 0 0 0 1.2 1.4 1.4 0 0 0 .8.9 1.5 1.5 0 0 0 1.1 0 1.4 1.4 0 0 0 .8-.7 1.5 1.5 0 0 0 0-1.2 1.5 1.5 0 0 0-.7-.9z" transform="translate(-70.5 -70.5)"/></svg>