<svg id="icon" xmlns="http://www.w3.org/2000/svg" viewBox="0 0 360 360"><defs><style>.cls-1{fill:#212121}.cls-2{fill:#fffdfd}</style></defs><title>colorzilla</title><path class="cls-1" d="M0 0h360v360H0z"/><path class="cls-2" d="M123.8 168.5c3.6-4.9 9.2-7.4 15.9-7.4a19.3 19.3 0 0 1 13.4 5c3 2.8 5.1 7.6 5.8 14.6h15.5c-1-11-4.5-18-10.5-23.4s-14-8.4-23.8-8.4c-7.3 0-13.8 1.6-19.4 5a33.4 33.4 0 0 0-12.8 14.8c-3 6.4-4.4 13.8-4.4 22.2v8.3a50.1 50.1 0 0 0 4.5 21.7 33.2 33.2 0 0 0 12.5 14.4 34.8 34.8 0 0 0 18.8 5.1c10.2 0 18.3-2.4 24.5-7.7s9.6-12 10.5-22h-15.4c-.8 6-2.8 10.7-5.8 13.4s-7.7 4-13.8 4-12.5-2.6-15.9-7.7-5.9-12.5-5.9-22.2v-7.9c0-9.7 2.6-16.9 6.3-21.8zM236.6 180.1q-8.4-8.7-21.8-8.7a30.6 30.6 0 0 0-16.1 4.2 27.7 27.7 0 0 0-10.6 12c-2.6 5.2-3.6 11.1-3.6 17.6v.8c0 10.4 2.6 18.7 8.2 25s13 9.4 22.4 9.4a30.6 30.6 0 0 0 16.2-4.2 27.8 27.8 0 0 0 10.8-12 39.5 39.5 0 0 0 3.8-17.6v-3.5q-.9-14.3-9.3-23zm-9.9 42.4a13.6 13.6 0 0 1-11.8 5.9 13.8 13.8 0 0 1-11.8-5.8q-4.2-5.8-4.2-16.1t4.3-17.3a14.6 14.6 0 0 1 23.4.1q4.3 5.9 4.3 16t-4.2 17.3z" transform="translate(-70.5 -70.5)"/><path class="cls-2" d="M189 75.1h14v94h-14z"/><path class="cls-2" d="M340.3 180.1q-8.4-8.7-21.8-8.7a30.6 30.6 0 0 0-16.1 4.2 28.5 28.5 0 0 0-11 12 39.2 39.2 0 0 0-4 17.6v.8c0 10.4 2.9 18.7 8.5 25s13.2 9.4 22.5 9.4a30.9 30.9 0 0 0 16.3-4.2 27.9 27.9 0 0 0 10.8-12 39.5 39.5 0 0 0 3.8-17.6v-3.5q-.6-14.3-9-23zm-9.9 42.4a13.6 13.6 0 0 1-11.8 5.9 13.8 13.8 0 0 1-11.8-5.8q-4.2-5.8-4.2-16.1t4.3-17.3a14.6 14.6 0 0 1 23.4.1q4.3 5.9 4.3 16t-4.2 17.3zM376.7 180.6l-.4-7h-13.8v66h14v-45.9c3-5.2 7.2-7.9 14-7.9a38.3 38.3 0 0 1 6.2.5v-14a14.2 14.2 0 0 0-5.3-.6c-6.2 0-11.1 3.1-14.7 8.9z" transform="translate(-70.5 -70.5)"/><g><path class="cls-2" d="M224 262.8a8.2 8.2 0 0 0-6.2 2.3 8 8 0 0 0-2.2 5.8 7.8 7.8 0 0 0 2.2 5.7 8.3 8.3 0 0 0 6.2 2.3 8.4 8.4 0 0 0 6.3-2.3 7.8 7.8 0 0 0 2.2-5.7 8 8 0 0 0-2.2-5.8 8.3 8.3 0 0 0-6.3-2.3z" transform="translate(-70.5 -70.5)"/><path class="cls-2" d="M131 204.5v-8.4H67v12h45.8L65 273.9v11.2h68v-13H85.4l45.6-67.6zM145 218.1h14v67h-14zM177 190.1h15v95h-15zM210 190.1h14v95h-14z"/><path class="cls-2" d="M364.5 339.3v-30c-2-7.1-2.6-12.6-7.2-16.5s-10.9-5.9-18.7-5.9a34.7 34.7 0 0 0-13.9 2.7 25.5 25.5 0 0 0-9.9 8.1 17.6 17.6 0 0 0-3.6 10.9h14.9c0-4 1.1-5.4 3.3-7.1a13.3 13.3 0 0 1 8.3-2.9c3.9 0 6.4.9 8.4 2.9s2.5 4.7 2.5 8.1v4.9h-8.3c-9.8 0-17.3 1.6-22.6 5.4s-7.9 9.1-7.9 16.2a18.1 18.1 0 0 0 6.3 14c4.2 3.8 9.7 5.7 16.3 5.7s12.7-2 17.4-7a42.1 42.1 0 0 0 1.7 6.7h13.9v-2c-.9-3.5-.9-8.3-.9-14.2zm-16-3.3c-2 2.4-2.8 4.3-5.4 5.8a16.2 16.2 0 0 1-8.1 2.1 10.8 10.8 0 0 1-7.5-2.5 8.7 8.7 0 0 1-2.8-6.8 9.2 9.2 0 0 1 4.2-8.1c2.8-1.9 7-2.8 12.5-2.8h7.2V336z" transform="translate(-70.5 -70.5)"/></g></svg>