<svg id="icon" xmlns="http://www.w3.org/2000/svg" viewBox="0 0 360 360"><defs><style>.cls-1{fill:#e1e3e4}.cls-2{fill:#333}</style></defs><title>colorpalettes</title><path class="cls-1" d="M0 0h360v360H0z"/><path class="cls-2" d="M341.6 193c-3.9 0-6.9 2.5-11.2 4.8 1.2-4.6-1.2-4.9-4-4.8-12.2 0-9.7-.9-12.1 9.6-.1.5-.3 1.1-.4 1.6-.4 3.1-2.5 4.1-5.2 4.2s-2.4-2.5-2.7-4.2c-1.7-9.2-6.8-13-16-11.8s-13.7 5.4-17.9 12a46.7 46.7 0 0 0-7.1 24.3c0 1.9.1 3.9-2 5.1s-3.7 1.5-5.5.3-1.8-3.8-1.3-6c3.1-14.9 6.3-29.9 9.5-44.8 2.6-12.1 3.2-10.5-8.7-9.2-3.2.3-4.8 1.8-5.4 5-1.6 8.4-3.6 16.7-5.3 25-.6 3-2.4 4.2-5.1 4.3s-2.6-2.6-2.9-4.4c-1.7-8.9-6.7-12.7-15.8-11.7s-13.7 5.3-18 11.9a39.1 39.1 0 0 0-6.8 20.1c-.2 5.8-3.3 8-7.8 9.7a30 30 0 0 1-6 1.5c-8.3 1.2-13.7-2.4-14.3-10.8-1.2-16.5 2.2-32 11.3-46a13.7 13.7 0 0 1 6.9-5.7c4.7-1.7 8.8 1.4 8.5 6.3a12.7 12.7 0 0 1-2 5.8c-2.2 3.7-1.2 5.3 3.1 5.4s5.9-1.8 6.9-5.3c2.3-8-1.8-15.2-10-17-12.1-2.7-22 1.3-29.5 10.9s-10.5 20.4-12.1 32c-1 7.1-1.2 14.3.8 21.3s6.6 11.2 13.8 12.6a33 33 0 0 0 27.6-6.7c2.3-1.8 3.7-2.4 5.4.6s4.8 4.4 8.2 5.1c8.9 2 17.2-1.2 22.7-9a39.9 39.9 0 0 0 6.8-18c.4-2.7 2.1-4.1 4.5-3.7s1.1 2.9.9 4.3c-.8 5.3-2.6 10.4-2.3 15.9.4 7.7 5.1 11.9 12.7 11.2a18.9 18.9 0 0 0 10.8-4.6c1.5-1.3 2.6-1.4 4.3-.1 8.3 6.7 19.2 6 26.9-1.4 5.6-5.4 8.1-12.3 9.6-19.7a19.4 19.4 0 0 1 .9-3.6c.8-1.8 2.6-2.2 4.2-1.9s1.2 2.2.9 3.4c-1.1 5.7-2.4 11.3-3.5 17-2.4 11.8-3.6 10.3 8.6 10.5 3 0 4.5-1.1 5-4.1 1.5-7.6 3.1-15.1 4.8-22.6.7-3.5 1.4-7 2.3-10.5s3-4.3 5.6-4.9 3.3 1.8 4.2 3.6 2.8 2.8 5.2 2.3c3.8-.8 6.2-4.1 5.8-8.3s-3.6-6.9-7.8-6.8zm-114.1 19c2.3 3 1.4 5.9.5 8.9a29.3 29.3 0 0 1-4.8 10.4c-1.7 2.3-3.8 4.2-6.9 3.3s-3.4-3.9-3.5-6.7v-2.8a48.3 48.3 0 0 1 6.3-20.8 16.2 16.2 0 0 1 2.4-3.3c1.8-1.8 3.9-3.6 6.4-1.8s1.9 4.2.1 6.5-1.9 4.5-.5 6.3zm67.7-.1c2.4 3.2 1.3 6.2.5 9.3a28.5 28.5 0 0 1-4.7 10c-1.8 2.4-4 4.4-7.3 3.2s-3-3.9-3.2-6.5v-2.8a48.1 48.1 0 0 1 6.2-20.7 17.4 17.4 0 0 1 2.7-3.6c1.7-1.7 3.8-3.3 6.1-1.5s2 4.1.2 6.5-1.9 4.4-.5 6.2zM148.8 256.7c-14.8-2.8-27.4 2.1-37.7 12.8-4.1 4.3-6.3 9.6-5.3 15.9a7.6 7.6 0 0 0 5.6 6.5c3.5 1.1 4.5.3 4.1-3.4-1.7-17.5 10.1-29.3 27.6-27.4a11 11 0 0 1 10 8c3.1 9.5-2.5 23.9-11.4 28.8-1.3.7-2.8 1.9-4.2.9s-.3-2.6-.1-3.9c1.7-8.2 3.4-16.4 5.2-24.6.7-3.3-.2-4.7-3.7-4.1a61 61 0 0 1-6.5.9c-3.1.2-4.5 1.8-5.1 4.8-3.8 18.4-7.8 36.9-11.7 55.3-1.1 5.1-.7 5.5 4.4 5.6h2.1c7.1 0 7.1 0 8.6-6.8 1.1-5.2 2.5-10.4 3.3-15.7s2.6-6.3 7.3-7.1c11.9-1.9 20-8.9 23.3-20.6s-3.1-23.6-15.8-25.9zM393.9 289.3c-.7-12.7.3-10.8-11.3-9.5-3.3.3-5.1 1.8-6.1 5a142.4 142.4 0 0 1-9.6 23.2c-1.6 3-5 4.5-5.9 7.8-1.8 6.8-7.1 8.2-13 8.6s-7-1.5-7.7-5.6-.2-5.9 5.3-7.6c9.3-2.8 16.3-8.1 17.9-18.4 1.2-7.6-2.5-11.9-10.2-12.1-10.5-.3-17.7 5-22.7 13.8-4 7.1-5.6 14.9-6 23a5.7 5.7 0 0 1-6.7 5.6c-3.9-.8-3.5-3.7-2.9-6.5 1.8-8.9 3.8-17.8 5.6-26.7.5-2.6 1.6-4.3 4.5-4.3 1.3 0 2.5-.4 2.6-2s-.9-1.9-2.1-2c-2.8-.3-2.9-2-2.4-4.2l1.7-8.1c.6-2.6-.5-3.7-3-3.4s-5.2.8-7.8 1-4 1.8-4.5 4.4-1.6 6.7-2.4 10h-9.1l1.3.5a2.1 2.1 0 0 1-1.3-.5c-.1-4.1 1.3-7.9 2-11.8s-.5-4.2-3.5-3.7l-7.8 1.1c-2.2.3-4 1.4-3.8 3.6.7 6.7-7.8 11.3-4.1 18.6.2.5-.2 1.3-.3 2-1.5 6.9-2.9 13.7-4.4 20.6s-7.1 12-14.7 12.6c-5.4.4-7.9-1.1-8.7-5.3s-.3-6.2 5.8-8c10.1-2.9 17.1-10.7 17.6-19.6.4-6.3-2.6-10-8.9-10.7a22.3 22.3 0 0 0-19.9 7.8c-7 7.9-9.4 17.6-10.2 27.8-.3 4.5-2.8 7.1-6.5 6.8s-4.1-2.4-3-7.5c3-14.5 6.2-29.1 9.2-43.6 2.6-12.4 3.7-10.8-9.1-9.4-2.9.3-4.3 1.8-4.8 4.7s-1.7 7.8-2.5 11.7l-8.3 40.4c-.6 3.1-2.7 4.5-5.7 4.1s-3.4-2.8-3.2-5.3a29.5 29.5 0 0 1 .6-3.2c2-9.7 4-19.4 6.1-29.1.6-2.9-.2-4.4-3.2-4.2s-8-1.5-11.4 1.6c-.7.6-1.3.1-1.9-.3-7.2-3.8-14-2.2-19.6 2.7-11.2 9.8-15.2 22.7-12.8 37.2 1.2 7.3 7.3 11.1 14.6 10.3a16 16 0 0 0 10.1-5.2c1.8-1.9 3.2-3.1 4.7.4s4.5 4.6 8.1 4.8a16.7 16.7 0 0 0 11.5-3.7c1.8-1.4 3.1-1.7 4.8.3s5.2 3.4 8.5 3.4a18.5 18.5 0 0 0 12.7-5.1c1.7-1.5 2.8-1.7 4.4.2 2.9 3.6 7 4.7 11.4 4.9a27.4 27.4 0 0 0 19.7-7.1c2-1.7 3.2-2.3 4.3.8s5.3 6.1 9.8 6.2a19 19 0 0 0 12.2-4.2c1.1-.8 2.1-2 3.5-.3 5.1 6.3 11.8 6 17.5 2.4s8-3.5 13.3.1 14.8 2.6 21.6-1.4c4.2-2.5 7.7-5.1 11.2.6a5 5 0 0 0 2.1 1.3c13 6.5 28.7-3.2 28.2-17.7-.1-8.1-1-16.4-1.4-24.6zM342 304.1c1.4-5.8 3.4-11.3 7.6-15.8 1.1-1.2 2.6-2.3 4.4-1.5s1.7 2.4 1.8 3.6c.1 6.3-5.2 13.7-10.8 15.6-2 .7-3.7.8-3.1-1.9zm-87.5-.3c1.4-5.5 3.3-10.8 7.2-15.1 1.2-1.3 2.6-2.7 4.6-1.9s1.8 2.8 1.9 3.9c-.4 6.8-5.3 13.4-10.7 15.3-2.2.8-3.8.7-3-2.2zm-61-9.7l-4.2 19.8a13.1 13.1 0 0 1-3.2 6.6c-1.8 1.9-3.9 3.2-6.6 2.3s-3.2-3.2-3.4-5.6 0-1.9 0-2.9a45.4 45.4 0 0 1 5-19 18 18 0 0 1 4.6-5.8c2-1.6 4.2-2.3 6.5-.9s1.7 3.4 1.2 5.5zm112.4-4.4c-2 9.7-4 19.3-6 29a5.8 5.8 0 0 1-6.9 4.3c-3.3-.9-3.2-3.5-2.7-5.9 1.9-9.3 4-18.5 5.8-27.8.9-4.4 4.3-3.3 7.1-3.7a.5.5 0 0 0 .8 0c2.5.5 2.2 2.2 1.8 4.1zm66.3 35.3c-1.7 0-3.4-.2-4.6-1.5s-2.6-3.1.7-4.2 5.1-3.3 3.4-7.4c-.7-1.7-.2-2.9.4-4.3l5.3-12.1 1.5.8c.5 6 1.2 12 1.5 18.1s-2.9 10.5-8.2 10.6z" transform="translate(-70.5 -70.5)"/></svg>