<svg id="icon" xmlns="http://www.w3.org/2000/svg" viewBox="0 0 360 360"><defs><style>.cls-1{fill:#fff}.cls-2{fill:#333}.cls-3{fill:#545454}</style></defs><title>colorlovers</title><path class="cls-1" d="M0 0h360v360H0z"/><g id="Favorites_-_Grey" data-name="Favorites - Grey"><path class="cls-2" d="M334.5 179.1v-12.5c-2-37.5-27.3-61.9-48.7-63.9-3.5-.3-6.5-.5-9.6-.5-24.7 0-36.5 10.7-50.1 26.8-13.6-16.2-25.4-26.8-50.1-26.8-3.1 0-6.7.2-10.2.5-21.3 2.1-45.8 26.4-49.4 63.9v12.5c2.4 35.9 29.8 75.4 109 130.9 79.3-55.5 107.1-95 109.1-130.9z" transform="translate(-70.5 -70.5)"/><path class="cls-3" d="M355.9 279.5l-5.2-.3c-14.2 0-20.9 6.1-28.7 15.4-7.8-9.3-14.5-15.4-28.7-15.4l-6.1.3c-12.3 1.2-26.6 12.5-28.6 34.1v7.2c2 20.7 16.9 46.1 62.5 78.1 45.6-32 61.3-57.5 62.5-78.1v-7.2c-1.3-21.7-15.4-32.9-27.7-34.1z" transform="translate(-70.5 -70.5)"/></g></svg>