<svg id="icon" xmlns="http://www.w3.org/2000/svg" viewBox="0 0 360 360"><defs><style>.cls-1{fill:#fff}.cls-2{fill:#feed30}.cls-3{fill:#924992}.cls-4{fill:#263646}.cls-5{fill:#ff6868}</style></defs><title>colorhunt</title><path class="cls-1" d="M0 0h360v360H0z"/><path class="cls-2" d="M333.5 166.4v87.2h-154v-83.8c22 3.8 44.9 6.6 70.5 6.6h6.6c27.5-.7 54.9-5 76.9-10z" transform="translate(-70.5 -70.5)"/><path class="cls-3" d="M163.9 353.9a85.6 85.6 0 0 1-7.4-12.3v-1.5a3.7 3.7 0 0 0 .5 1.5 102.2 102.2 0 0 0 6.9 12.3z" transform="translate(-70.5 -70.5)"/><path class="cls-4" d="M163.6 353.9a104.9 104.9 0 0 0 24 25.6 113.8 113.8 0 0 1-24-25.6z" transform="translate(-70.5 -70.5)"/><path class="cls-3" d="M325.8 332.6c-13.2 28-40.6 46.2-72.5 47.3-28.6-3.9-52.6-21.3-64.6-47.3h137.1z" transform="translate(-70.5 -70.5)"/><path class="cls-4" d="M397.3 136.8a10.3 10.3 0 0 0-13.2-6c-.7.2-67.6 25.1-133.5 25.1-72.6 0-132.6-24.7-133.2-24.9a10.3 10.3 0 0 0-13.5 5.5c-2.2 5.2.9 11.3 6.1 13.5 1.2.5 14.5 6.2 37.5 12.1v134.3c0 15.6 2.8 30.4 9 43.7.2.5.1 1 .4 1.5a102.3 102.3 0 0 0 6.9 12.3 113.5 113.5 0 0 0 23.9 25.6c1.9 1.4 3.7 2.8 5.7 4.1a104 104 0 0 0 114.4 0 104.9 104.9 0 0 0 36-40.6c.2-.5-.1-.9.1-1.4 6.6-13.7 9.7-29 9.7-45.2V162c0-.2.6-.4.6-.6 21.3-5.7 35.6-10.9 36.9-11.3a10.4 10.4 0 0 0 6.2-13.3zm-63.8 159.6a86.2 86.2 0 0 1-2.1 20.2c-.4 1.6-.7 2.4-1.2 5.1a81.1 81.1 0 0 1-4.3 11c-13.5 27.6-42.2 48-75.5 48-37.5 0-69-26.1-79.6-59-.5-2.7-3.4-18.5-3.4-25.4V167.1a379.2 379.2 0 0 0 83 9.3c29.8 0 60-4.6 83-10v130z" transform="translate(-70.5 -70.5)"/><circle class="cls-4" cx="273.9" cy="45.6" r="15.8"/><circle class="cls-4" cx="86" cy="45.6" r="15.8"/><path class="cls-5" d="M333.5 253.6v42.9a86.2 86.2 0 0 1-2.1 20.2c-.4 1.6-.7 2.3-1.2 5s-2.5 7.9-4.3 10.9H188.7a58.9 58.9 0 0 1-4.4-10.9 47.1 47.1 0 0 0-1.3-5.1l-.6-.3a86.4 86.4 0 0 1-2.8-19.9v-42.8h154z" transform="translate(-70.5 -70.5)"/></svg>