<svg id="icon" xmlns="http://www.w3.org/2000/svg" viewBox="0 0 360 360"><defs><style>.cls-1{fill:#fff}.cls-2{fill:#212121}.cls-3{fill:#f1f467}.cls-4{fill:#9bf56c}.cls-5{fill:#4cd8b0}.cls-6{fill:#6d5050;fill-opacity:.14}.cls-7{fill:#00b9f3}.cls-8{fill:#2ba2cc}</style></defs><title>coolors</title><path class="cls-1" d="M0 0h360v360H0z"/><path class="cls-2" d="M339.1 123.3l-.9-.6a3.3 3.3 0 0 1 .9.6zM162.5 132.3v236.4-236.4zM162.9 368.7zM221.5 185.4v-82 82zM221.7 315.7zM280.5 321v78.9V321zM280.5 101v79.3V101zM339.1 377.7a3.3 3.3 0 0 1-.9.6z" transform="translate(-70.5 -70.5)"/><path class="cls-3" d="M375 231c-11.5 6.2-25.5 6-35.5.5V123.3a152 152 0 0 1 51.2 55.4A38.5 38.5 0 0 1 375 231zM387.9 327a150.4 150.4 0 0 1-48.4 50.7V272.1c10-4.7 23.7-4.3 34.8 2.1a38.5 38.5 0 0 1 13.6 52.8z" transform="translate(-70.5 -70.5)"/><path class="cls-4" d="M339.5 123.3v108.2a3.9 3.9 0 0 0-1.1-.5h-.1a38 38 0 0 1-15.5-15.5 73.2 73.2 0 0 0-42.2-35.2V101a148.9 148.9 0 0 1 57.6 21.7l1.1.6h.2z" transform="translate(-70.5 -70.5)"/><path class="cls-5" d="M280.4 101h.1v79.6h-.2c-7.3-3-15.2-4-23.2-4a75.3 75.3 0 0 0-35.6 8.8v-82a156.3 156.3 0 0 1 35.7-4.2 154.1 154.1 0 0 1 23.2 1.8z" transform="translate(-70.5 -70.5)"/><path class="cls-4" d="M339.5 272.1v105.6h-.2l-1 .6h-.1l-4.6 2.8a148.5 148.5 0 0 1-53.1 18.8V321a74.4 74.4 0 0 0 40.8-33 38.2 38.2 0 0 1 16.8-15.4h.2a3.9 3.9 0 0 0 1.2-.5z" transform="translate(-70.5 -70.5)"/><path class="cls-6" d="M221.6 315.6z" transform="translate(-70.5 -70.5)"/><path class="cls-5" d="M280.5 321v78.6h-.2a178.9 178.9 0 0 1-23.2 2 155.8 155.8 0 0 1-35.6-4v-81.9a75.5 75.5 0 0 0 35.6 9.1 74.4 74.4 0 0 0 23.2-3.7h.2z" transform="translate(-70.5 -70.5)"/><path class="cls-7" d="M183 250.5a74.3 74.3 0 0 0 38.5 65h-.1v81.9h-.3c-21.7-5.3-40.7-15.2-58.7-28.8V132.3c18-13.5 37-23.5 58.7-28.8h.3v82a74.2 74.2 0 0 0-38.4 65z" transform="translate(-70.5 -70.5)"/><path class="cls-6" d="M221.6 315.6zm-58.7-183.3v236.4h.1V132.3h-.1z" transform="translate(-70.5 -70.5)"/><path class="cls-8" d="M162.5 132.3v236.4h.2a151.3 151.3 0 0 1-.2-236.2h-.1z" transform="translate(-70.5 -70.5)"/><path class="cls-6" d="M162.9 132.3v236.4h.1V132.3h-.1z" transform="translate(-70.5 -70.5)"/></svg>