<svg id="icon" xmlns="http://www.w3.org/2000/svg" viewBox="0 0 360 360"><defs><style>.cls-1{fill:#fff}</style></defs><title>copypastecharacter</title><path class="cls-1" d="M0 0h360v360H0z"/><path d="M364.3 284c31.1-10.1 42.7-41.8 32.6-72.9s-38.1-49.9-69.2-39.8c-9.7 3.2-20.9 12.8-31.6 24.7 7.9-13.9 13.7-27.5 13.7-37.7 0-32.7-26.5-53.5-59.3-53.5s-59.3 20.8-59.3 53.5c0 10.2 5.8 23.8 13.7 37.7-10.8-11.8-21.9-21.5-31.6-24.7-31.1-10.1-59.1 8.7-69.2 39.8s1.4 62.8 32.6 72.9c9.7 3.2 24.4 1.9 40.1-1.4-14.6 6.6-27.2 14.2-33.2 22.4-19.2 26.5-10 58.9 16.5 78.1s60.2 18 79.4-8.4c6-8.3 9.3-22.6 11.1-38.5 1.7 15.9 5.1 30.3 11.1 38.5 19.2 26.5 52.9 27.7 79.4 8.4s35.7-51.6 16.5-78.1c-6-8.3-18.6-15.9-33.2-22.4 15.5 3.3 30.2 4.5 39.9 1.4zm-113.8 42.2a66.1 66.1 0 1 1 66.1-66.1 66.1 66.1 0 0 1-66.1 66.1z" transform="translate(-70.5 -70.5)"/></svg>