<svg id="icon" xmlns="http://www.w3.org/2000/svg" viewBox="0 0 360 360"><defs><style>.cls-1{fill:#fff}.cls-2{fill:#0f1d2e}</style></defs><title>coverr</title><path class="cls-1" d="M0 0h360v360H0z"/><path class="cls-2" d="M250.5 106.9c-79.2 0-143.6 64.4-143.6 143.6s64.4 143.6 143.6 143.6 143.6-64.4 143.6-143.6-64.4-143.6-143.6-143.6zm0 264.4a120.9 120.9 0 1 1 120.9-120.8 121 121 0 0 1-120.9 120.9z" transform="translate(-70.5 -70.5)"/><circle class="cls-2" cx="180" cy="180" r="75.9"/><path class="cls-1" d="M285.7 248.8l-50-40.3c-1.9-1.5-5.2-.4-5.2 1.7v80.7c0 2.2 3.3 3.3 5.2 1.7l50-40.3a2.1 2.1 0 0 0 0-3.5z" transform="translate(-70.5 -70.5)"/></svg>