<svg id="icon" xmlns="http://www.w3.org/2000/svg" viewBox="0 0 360 360"><defs><style>.cls-1{fill:#fff}.cls-2{fill:#ffd16c;stroke:#ef9300;stroke-miterlimit:10;stroke-width:10px}.cls-3{fill:url(#linear-gradient)}</style><linearGradient id="linear-gradient" x1="180" y1="281.59" x2="180" y2="73.62" gradientUnits="userSpaceOnUse"><stop offset="0" stop-color="#ffcf58"/><stop offset=".53" stop-color="#ffc03f"/><stop offset="1" stop-color="#ffb025"/></linearGradient></defs><title>cssmediaqueries</title><path class="cls-1" d="M0 0h360v360H0z"/><path class="cls-2" d="M6.2 57.4h347.6v245.11H6.2z"/><path class="cls-3" d="M23 73.6h314v207.97H23z"/><g><path class="cls-1" d="M171.3 296.8q-15.5 0-24.8-11.8t-9.3-32q0-20.1 10-33.3t25.7-13.1q16.5 0 24 7.4l9.2-18.4q-12.9-8.8-34.5-8.8-25.2 0-41.3 18.7T114 252.1q0 29.9 14.6 47.2t40.8 17.3q26.3 0 39.9-14.5l-10.4-18q-9.9 12.7-27.6 12.7zM285.9 254.2q-5.6-5.2-18.2-11.3-23.9-11.6-23.9-22.4a14 14 0 0 1 4.2-10.6q4.2-4.1 11.9-4.1 13 0 24.7 8.4l6.8-19.2q-10.2-8.1-31.9-8.1-16.7 0-27.4 9.6a31.1 31.1 0 0 0-10.7 24.1 36.4 36.4 0 0 0 2.7 14.2 31.8 31.8 0 0 0 7.7 11.1q5 4.7 19.4 11.9t19.1 13.1a19.4 19.4 0 0 1 4.6 12.2q0 13.7-19.6 13.7-12.8 0-25.9-9.2l-8.2 20a57.4 57.4 0 0 0 31.7 9.1q20.2 0 32.2-9.8t12-25.1a39.2 39.2 0 0 0-2.9-15.4 34.9 34.9 0 0 0-8.3-12.2zM384 266.3a34.9 34.9 0 0 0-8.5-12.1q-5.6-5.2-18.2-11.3-23.9-11.6-23.9-22.4a14 14 0 0 1 4.2-10.6q4.2-4.1 11.9-4.1 13 0 24.7 8.4L381 195q-10.2-8.1-31.9-8.1-16.7 0-27.4 9.6a31.1 31.1 0 0 0-10.7 24.1 36.4 36.4 0 0 0 2.7 14.2 31.8 31.8 0 0 0 7.7 11.1q5 4.7 19.4 11.9t19.1 13.1a19.4 19.4 0 0 1 4.6 12.2q0 13.7-19.6 13.7-12.8 0-25.9-9.2l-8.2 20a57.4 57.4 0 0 0 31.7 9.1q20.2 0 32.2-9.8t12-25.1a39.2 39.2 0 0 0-2.7-15.5z" transform="translate(-70.5 -70.5)"/></g></svg>