<svg id="icon" xmlns="http://www.w3.org/2000/svg" viewBox="0 0 360 360"><defs><style>.cls-1{fill:#fff}</style></defs><title>csstexttopath</title><path d="M0 0h360v360H0z"/><path id="c" class="cls-1" d="M196.1 232.8a5.9 5.9 0 0 1 .8 1.7c1.7 17.3 1.7 17.3-15.4 17.3-23.9 0-47.8-.2-71.7.2-5.9.1-7.2-1.6-7.1-7.3.3-27 .3-54 0-81 0-5.1 1.2-7 6.7-6.9 27 .3 54 .4 81-.1 8.6-.2 6.7 5 6.8 9.7s1.7 10.5-6.8 9.7c-3.5-.3-7.4-1.2-10.9.9 2.1 12.9.6 25.9.9 38.9s.1 12 11.8 14.8a7 7 0 0 1 3.9 2.1z" transform="translate(-70.5 -70.5)"/><path id="s" class="cls-1" d="M296.5 156.7a20.6 20.6 0 0 1 .9 3.5c1.2 14.9 1.2 14.9-13.9 15.6a17.3 17.3 0 0 0-3.4.9c-3.3 4.7-1.6 10.1-1.4 15.1s5.8 3.7 8.8 3.4c8.1-.9 10.8 1.6 10.3 10.1-.8 13-.5 26.1-.1 39.1.2 5.7-1.4 7.4-7.2 7.3-28.9-.3-57.7-.2-86.6-.2-.4-6.2-.8-12.4.3-18.6 3.7 0 7.4-.2 11.1.2 5.3.6 7.6-.7 7.4-6.8-.3-12.3.1-12.3-12-12.3H204c-.9-19.2-1.2-38.3.2-57.5h92.3z" transform="translate(-70.5 -70.5)"/><path id="s-2" data-name="s" class="cls-1" d="M396.8 156.8c1.4 5.8 2.8 12.7-.1 17.1s-11.1 0-16.4 2.8c-3.6 5-2 10.8-1.2 15.9s6.2 2.9 9.4 2.7c7-.5 9.8 1.4 9.4 9.1-.7 13-.5 26 0 39.1.2 6.4-1.4 8.5-8.1 8.4-28.5-.4-57.1-.2-85.6-.2-.5-6.2-.9-12.4.3-18.6 3.7 0 7.5-.3 11.2.2 5.9.7 7.3-1.6 7.1-7.3-.6-14.5 1.4-11.4-11.8-11.8h-6.5c-1-19.2-1.3-38.3.2-57.5z" transform="translate(-70.5 -70.5)"/><g><path id="w" class="cls-1" d="M169.9 272.6a2.4 2.4 0 0 1 2.5 2.2c.8 14.8.5 33 .2 54.6 0 2.8.1 6.2.2 9a5.2 5.2 0 0 1-5.2 5.3h-13.5c-3.6-.1-8.3-8.1-11.1-10.3s-7.4-1.8-9.5 0-8 9.9-12.2 10.1c-2.6.1-9.2.3-13.9 0a5.8 5.8 0 0 1-5.2-5.8c0-4.6-.1-11.1.1-13.9.8-19.2-.3-35.3.6-48.2a3.5 3.5 0 0 1 3.4-3.3c10-.1 10-2.1 10 10.1 0 2.3.3-2.7-.1-.5-1.2 7 1.8 8.6 8.4 8.3 4.8-.3 6.6-1.4 6.2-6.3s.4 0-.2-5.6 2.6-6.1 7.1-6 7.7-.2 7.1 6 .2.9-.2 6.9 2.7 5.3 6.1 4.7 8.7 2.8 8.5-4.5c-.1-5.6 0 .1-.1-5.6s1.6-8.5 7.7-7.5a16.2 16.2 0 0 0 3.1.3z" transform="translate(-70.5 -70.5)"/><path class="cls-1" d="M397.4 272.4h-68c-1.8 2.3-1.1 4.9-1.1 7.4l-.2 63.5c11.4.2 22.8-.1 34.1.6 6.7.4 9.5-1.4 8.2-8.3-.9-4.8 1-6.5 6-6.2 7.4.4 14.9-.1 22.3-.2 0-16.5 0-33-.1-49.6 0-2.3.8-5-1.2-7.2zm-33.9 42.9c-5.9 1.5-7.4-.8-7.5-6.7s1.5-7.8 7.6-7.6 7.5 1.1 7.5 7.1-1.4 8.8-7.7 7.2zM316.4 327.6c-3-.3-4.6-1.5-4.7-4.7s1.3-5.1 4.7-5.3 5.1.2 6.8-2.3c0-10.9.1-21.8 0-32.7 0-3.4 1.2-7-1.3-10.1H254c-1.6 2.3-1 4.9-1 7.5l-.2 63.5c6.9.2 13.9-.1 20.8.6s8.4-1.4 7.6-7.6c-.3-2.1-1.7-5.3 1.6-6.7 7.1-3 12.9.7 12.7 8.3-.1 4.4.9 6.3 5.7 5.9 7.4-.5 14.8-.4 22.2-.5v-13.6c-1.8-2.6-4.6-2.1-7-2.3zm-28.9-11.9c-6.9.7-7-3-6.3-8-2-7.1 2.8-6.1 7.4-6.5 6.2-.5 6.8 2.1 7.2 7.5.6 7.4-3.4 6.5-8.3 7zM241.9 272.4h-57.5a6.2 6.2 0 0 0-6.2 5.9c-1.2 21 .1 42-.4 62.9-.1 2.3 1.5 2.6 3.2 2.5 6.3-.3 12.6.3 18.9 0a6.2 6.2 0 0 0 5.8-6.3c-.2-7.7 1-7.5 8-7.9s7.2 1.9 6.6 7v.9a6.3 6.3 0 0 0 5.6 6.7 95.8 95.8 0 0 0 16.7 0 6.2 6.2 0 0 0 5.7-6.2v-59a6.2 6.2 0 0 0-6.4-6.5zm-29.8 43.3c-7 .8-6.1-3.2-6.6-7.8-.7-6.8 2.8-6.5 7.7-6.7s8.2 1.7 6.7 7.6c2.3 7.6-3 6.3-7.7 6.9z" transform="translate(-70.5 -70.5)"/></g></svg>