<svg id="icon" xmlns="http://www.w3.org/2000/svg" viewBox="0 0 360 360"><defs><style>.cls-1{fill:#fff}.cls-2{fill:#7592a7}</style></defs><title>deathtothestockphoto</title><path class="cls-1" d="M0 0h360v360H0z"/><path class="cls-2" d="M368.4 223.9c10.8-14.4 10.7-14.4-2-27.6-18.2-19-40.3-31.7-65.2-39.8-4.4-1.4-5.7-3.5-5.5-7.8.3-6.7.1-13.4.1-20.1 1.1-3.6.9-6.8-3.7-8-25.7-6.6-51.7-9.1-78.1-5.3-24.4 3.5-47.2 11.9-68.5 24-3.7 2.1-5.8 2-7.7-1.9-.9-1.9-1.7-5.1-4.7-4s-9.2 4.3-8.3 5.9c2.8 5.4.6 11.9 3.3 16.2 18.8 30.1 38.3 59.8 57.6 89.6.9 1.4 1.9 4 3.3 3.7 6.4-1.8 7.3 3.7 9.4 7q41.4 64.1 82.5 128.4c4 6.2 6.6 1.9 10.1.2s3.7-4.1 1.4-7.6c-16-24.4-31.7-49-47.5-73.5l-37.1-57.6c-3.7-5.8-3.4-6.5 3-8.7a152.3 152.3 0 0 1 24.6-5.9c4.6-.8 6.8.3 6.4 5.5-.6 8.2-.6 16.5-1.1 24.7-.2 3.9 1.2 5.4 5.2 5.7 10.5.8 20.8 3.2 31 6 4 1.1 5.3 3 3.4 7.1s-3.9 10-6.3 14.8-1.6 6.1 1.7 8.9a162.4 162.4 0 0 1 15.2 14.9c11.1 12.8 22.6 25.3 25.1 43.2.1 1 .3 2.6 1.8 2.5s2-1.6 2.7-2.7c16.8-25.1 20.2-52.1 11.1-80.7-1.3-4-.9-6.8 1.5-10 11.9-15.7 23.6-31.4 35.3-47.1zm-133.4.2c-14.2 1.7-27.9 5.3-40.2 12.8-3.3 2-4.9 1.5-6.9-1.5q-25-39-50.3-77.9c-2.1-3.2-1.1-4.8 1.6-6.4 30.8-17.8 63.1-30.9 99.4-30.4a236.2 236.2 0 0 1 45.1 5.3c4.3.9 5.8 2.7 5.4 7a101.6 101.6 0 0 0-.1 10.4h-.2c-.8 24.9-1.6 49.9-2.2 74.8-.1 4.2-1.9 5.2-5.7 4.9a258.5 258.5 0 0 0-45.9 1zm87.9 118.6c-.5 1.4-.8 3.3-2.5 3.6s-2.3-1.7-3-3c-7.2-14.2-17.6-26-29-37-1.2-1.1-3.3-2.1-2.7-4s2.8-1.7 4.4-2.1c5.9-1.5 11.8-3.3 17.8-4.5s10.7-2.8 13.4-8.5c.6-1.2 1.5-3 3.4-2.5s1.4 2.2 1.7 3.4c1.7 7.1 3.4 14.2 2.9 21.3.6 11.8-2.3 22.7-6.4 33.3zm-3.5-64.7c-2.9 4-5 4.3-9.3 1.8-14.8-8.8-30.9-14.2-47.8-17.4a11.6 11.6 0 0 1-5.8-2.2c9.7-7.4 18.6-14.9 28.2-21.3 6.6-4.4 9.1-9.6 9-17.6-.2-17.4.7-34.9 1.2-52.3.2-6.3 1-6.9 6.7-4.9 24.4 8.7 45.9 21.9 63.4 41.3 3.2 3.5 3.8 5.9.5 10.2-15.5 20.6-30.8 41.5-46.1 62.4z" transform="translate(-70.5 -70.5)"/><path class="cls-2" d="M271.6 164.3c-12.1-11.2-26.4-16.6-42.9-16.5-24.5.2-42.8 11.2-55.6 31.8-2.6 4.2-1.8 6.6 1.7 9.7a63.8 63.8 0 0 0 98.3-16.7c2-3.5 1.4-5.6-1.5-8.3zm-90.1 21.3c-1.9-1.5-1.8-3.3-.5-5 5.5-7.7 11.8-14.5 21.3-18.5a29.3 29.3 0 0 0-3.4 18c.8 6.6 4.4 11.7 9 16.6-10.1-.5-18.6-5-26.4-11zm41.4 7.7c-10.1-.1-17.1-7-17.1-16.9s7.6-16.9 17.4-16.7a17 17 0 0 1 17 17.3c0 9.1-7.8 16.5-17.3 16.4zm37-14.5c-5.6 6.4-10.6 10.2-17.4 12.7 7.4-13.5 5.7-24.8-4.9-34.6 5.4-1 12.2.9 19.8 5.5 10.3 6.3 10.5 7.5 2.6 16.5z" transform="translate(-70.5 -70.5)"/></svg>