<svg id="icon" xmlns="http://www.w3.org/2000/svg" viewBox="0 0 360 360"><defs><style>.cls-1{fill:#fff}.cls-2{fill:#0c438b}.cls-3{fill:#2970dd}.cls-4{fill:#1650a3}</style></defs><title>designernews</title><path class="cls-1" d="M0 0h360v360H0z"/><path class="cls-2" d="M162.2 369.2h-39.4c-13.5 0-14.3-19.5-14.3-27.4V216.5h53.7v152.7z" transform="translate(-70.5 -70.5)"/><path class="cls-3" d="M392.5 338.3a29.9 29.9 0 0 1-29.8 29.9l-230.4 1.1h-9.5c18.3.4 16.7-23.6 16.8-36.6l1.1-200.9h251.8v206.5z" transform="translate(-70.5 -70.5)"/><path class="cls-4" d="M91.7 81.6h206.4v22.67H91.7zM91.7 118.5H174v11.93H91.7zM91.7 142.6H174v11.93H91.7zM91.7 166.8H174v11.93H91.7zM91.7 190.9H174v11.93H91.7zM91.7 215H174v11.93H91.7zM91.7 239.1H174v11.93H91.7zM196.7 118.5h101.4v105.01H196.7z"/></svg>