<svg id="icon" xmlns="http://www.w3.org/2000/svg" xmlns:xlink="http://www.w3.org/1999/xlink" viewBox="0 0 360 360"><defs><style>.cls-1{fill:#fff}.cls-2{fill:url(#radial-gradient)}.cls-3,.cls-5{fill:#e28c1a}.cls-4{fill:url(#linear-gradient)}.cls-5{fill-opacity:.5}.cls-6{fill:url(#linear-gradient-2)}.cls-7{fill:url(#linear-gradient-3)}.cls-8{fill:url(#radial-gradient-2)}.cls-9{fill:url(#linear-gradient-4)}.cls-10{fill:url(#linear-gradient-5)}</style><radialGradient id="radial-gradient" cx="254.84" cy="286.36" r="174.51" gradientUnits="userSpaceOnUse"><stop offset=".03" stop-color="#ffcb7a"/><stop offset=".17" stop-color="#ffc771"/><stop offset=".4" stop-color="#febc57"/><stop offset=".69" stop-color="#fdab2e"/><stop offset=".87" stop-color="#fc9f12"/></radialGradient><linearGradient id="linear-gradient" x1="250.5" y1="234.17" x2="250.5" y2="147.46" gradientUnits="userSpaceOnUse"><stop offset="0" stop-color="#fc9f12"/><stop offset=".21" stop-color="#fdab2e"/><stop offset=".56" stop-color="#febc57"/><stop offset=".83" stop-color="#ffc771"/><stop offset="1" stop-color="#ffcb7a"/></linearGradient><linearGradient id="linear-gradient-2" x1="191.27" y1="233.09" x2="191.27" y2="156.07" xlink:href="#linear-gradient"/><linearGradient id="linear-gradient-3" x1="309.73" y1="233.09" x2="309.73" y2="155.88" xlink:href="#linear-gradient"/><radialGradient id="radial-gradient-2" cx="259.17" cy="320.98" r="198.35" gradientTransform="matrix(1 0 0 .28 0 231.6)" gradientUnits="userSpaceOnUse"><stop offset=".25" stop-color="#ffcb7a"/><stop offset=".37" stop-color="#ffc771"/><stop offset=".58" stop-color="#febc57"/><stop offset=".84" stop-color="#fdab2e"/><stop offset="1" stop-color="#fc9f12"/></radialGradient><linearGradient id="linear-gradient-4" x1="87.33" y1="266.84" x2="87.33" y2="196.03" gradientUnits="userSpaceOnUse"><stop offset=".13" stop-color="#fc9f12"/><stop offset=".31" stop-color="#fdab2d"/><stop offset=".62" stop-color="#febd58"/><stop offset=".78" stop-color="#ffc469"/><stop offset=".86" stop-color="#ffc771"/><stop offset="1" stop-color="#ffcb7a"/></linearGradient><linearGradient id="linear-gradient-5" x1="-14.17" y1="337.34" x2="-14.17" y2="266.53" gradientTransform="matrix(-1 0 0 1 258.5 -70.5)" xlink:href="#linear-gradient-4"/></defs><title>developphp</title><path class="cls-1" d="M0 0h360v360H0z"/><path class="cls-2" d="M375.1 288.5a124.1 124.1 0 0 1-9.6 48c-30.1 7.2-70.5 11.7-115.1 11.7s-85-4.4-115.1-11.7a124.1 124.1 0 0 1-9.6-48c0-4.1.2-8.2.6-12.2a124.6 124.6 0 0 1 248.1 0c.6 4 .7 8.1.7 12.2z" transform="translate(-70.5 -70.5)"/><path class="cls-3" d="M259 235.3h-17a4.8 4.8 0 0 1-4.7-4.5l-3.8-78.3a4.8 4.8 0 0 1 4.7-5h24.7a4.8 4.8 0 0 1 4.7 5l-3.8 78.3a4.8 4.8 0 0 1-4.8 4.5z" transform="translate(-70.5 -70.5)"/><path class="cls-4" d="M258.1 234.2h-15.2a4.8 4.8 0 0 1-4.8-4.6l-3.6-77.1a4.8 4.8 0 0 1 4.8-5h22.5a4.8 4.8 0 0 1 4.8 5l-3.6 77.1a4.8 4.8 0 0 1-4.9 4.6z" transform="translate(-70.5 -70.5)"/><path class="cls-5" d="M212.4 235.3h-28.2l-10.4-50.7a5.5 5.5 0 0 1 2.6-5.3l4.6-6.8c1.3-1.6 5.7-5.5 7.6-6.4 6.2-3.1 10.8-5.1 11.9-5.5l6.6-1.8a4.2 4.2 0 0 1 5.3 4.1v72.5z" transform="translate(-70.5 -70.5)"/><path class="cls-6" d="M207.3 233.1h-22.2a3.3 3.3 0 0 1-3.2-2.6l-9.9-48.1a5.5 5.5 0 0 1 2.1-5 3.9 3.9 0 0 0 .9-.9l4.1-6.1.2-.3c1.4-1.7 5.7-5.4 7.5-6.3 6-3 10.5-5 11.8-5.5h.3l7.6-2.1a3.3 3.3 0 0 1 4.2 3.2v70.4a3.3 3.3 0 0 1-3.4 3.3z" transform="translate(-70.5 -70.5)"/><path class="cls-5" d="M288.6 235.3h28.2l10.4-50.7a5.5 5.5 0 0 0-2.6-5.3l-4.6-6.8c-1.3-1.6-5.7-5.5-7.6-6.4-6.2-3.1-10.8-5.1-11.9-5.5l-7.2-2a3.8 3.8 0 0 0-4.7 3.6v73.1z" transform="translate(-70.5 -70.5)"/><path class="cls-7" d="M293.1 233.1h23.3a2.7 2.7 0 0 0 2.6-2.2l10-48.5a5.5 5.5 0 0 0-2.2-5.1l-.7-.7-4.2-6.3-.2-.3c-1.4-1.7-5.7-5.4-7.5-6.3-6.1-3-10.5-5-11.8-5.5h-.2l-8.4-2.3a2.7 2.7 0 0 0-3.4 2.6v71.8a2.7 2.7 0 0 0 2.7 2.8z" transform="translate(-70.5 -70.5)"/><path class="cls-8" d="M373.5 277.6c.3 1.1 1.6 2.2 1.6 3.4 0 10.6-14.1 20.1-38.5 26.9-22.5 6.2-52.8 10-86.1 10s-63.6-3.8-86.1-10C140 301.2 127 291.6 127 281a30.1 30.1 0 0 1 .5-5.5c-26.6 8.1-45 20.9-45 32.6s20.3 24.9 52.9 33.2c30.1 7.7 70.5 12.4 115.1 12.4s85-4.7 115.1-12.4c32.6-8.3 52.9-20.1 52.9-33.2s-18.4-22.5-45-30.5z" transform="translate(-70.5 -70.5)"/><path class="cls-9" d="M100.3 245l-26-7.6v-25l26 3.3V245z"/><path class="cls-10" d="M259.7 245l26-7.6v-25l-26 3.3V245z"/></svg>