<svg id="icon" xmlns="http://www.w3.org/2000/svg" viewBox="0 0 360 360"><defs><style>.cls-1{fill:#fff}.cls-2{fill:#fc8829}</style></defs><title>dommanipulation</title><path class="cls-1" d="M0 0h360v360H0z"/><path class="cls-2" d="M310.3 194.8l-7.9-48.3a22.8 22.8 0 1 0-12.5 2.1l7.7 47.4a57.8 57.8 0 0 0-28.6 15.2l-83.7-64.8a27.9 27.9 0 1 0-9 9l84.6 65.6a57.7 57.7 0 0 0 12.7 77l-32.1 50a25.4 25.4 0 1 0 11.1 6.2l31.8-49.5a57.9 57.9 0 1 0 25.9-109.9zm-.9 94.6a36.7 36.7 0 1 1 36.7-36.7 36.8 36.8 0 0 1-36.7 36.7z" transform="translate(-70.5 -70.5)"/></svg>