<svg id="Layer_3" data-name="Layer 3" xmlns="http://www.w3.org/2000/svg" viewBox="0 0 360 360"><defs><style>.cls-1{fill:#fff}.cls-2{fill:#ea4c89}.cls-3{fill:#c32361}</style></defs><title>dribbble</title><path class="cls-1" d="M0 0h360v360H0z"/><circle class="cls-2" cx="180" cy="179" r="136.4"/><path class="cls-3" d="M361 149.3a149.9 149.9 0 0 0-156-41.6 148.6 148.6 0 0 0-20.4 8.2 150.5 150.5 0 0 0-81 104.1 148.9 148.9 0 0 0-2.8 20.8q-.3 4.9-.3 9.8a150 150 0 0 0 299.8 7.6q.2-3.8.2-7.6A149.4 149.4 0 0 0 361 149.3zm17.5 101.3c0 7.2-.1 14.2-1.2 21.1a128.9 128.9 0 0 1-56.4 86.9 127.1 127.1 0 0 1-70.4 21.1 129.2 129.2 0 0 1-129-129q0-3.8.2-7.5a127.2 127.2 0 0 1 2.9-20.8 129.5 129.5 0 0 1 73.5-89.6 127 127 0 0 1 20.8-7.2 128.9 128.9 0 0 1 115.5 27.1 125.5 125.5 0 0 1 14.4 15.1 127.4 127.4 0 0 1 29.7 82.4v.5z" transform="translate(-70.5 -70.5)"/><path class="cls-3" d="M378.5 250.1v.5c0 7.2-.1 14.2-1.2 21.1a166.6 166.6 0 0 0-55.7-9.5 168.3 168.3 0 0 0-27.7 2.3 165.4 165.4 0 0 0-20.6 4.8A169.6 169.6 0 0 0 172 353a129.4 129.4 0 0 1-16-14.5 189.8 189.8 0 0 1 130-93.9 186.5 186.5 0 0 1 92.5 5.5zM349.3 167.7c-11 14.1-26 27-44.7 38.2a233.7 233.7 0 0 1-29.1 14.7q-9.6 4-19.7 7.4c-31.8 10.6-67.7 16.2-104.9 16.2-9.8 0-19.6-.4-29.2-1.2a127.2 127.2 0 0 1 2.9-20.8q12.9 1 26.2 1c33.9 0 66.5-4.9 95.5-14.2 6.8-2.2 13.4-4.6 19.8-7.3a212.3 212.3 0 0 0 27.6-13.9c17.4-10.4 31.1-22.4 40.6-35.3a129.8 129.8 0 0 1 15 15.2z" transform="translate(-70.5 -70.5)"/><path class="cls-3" d="M275.5 220.7q-9.6 4-19.7 7.4 5.1 10.6 9.7 21.6a191.8 191.8 0 0 1 20.6-5.2q-5.1-12.1-10.6-23.8zM321.1 358.5a127.9 127.9 0 0 1-19.4 10.5 554.7 554.7 0 0 0-28.3-99.8 166.4 166.4 0 0 1 20.6-4.8 578.4 578.4 0 0 1 27.1 94.1zM266.2 201.8c-6.4 2.7-13 5.1-19.8 7.3a531.6 531.6 0 0 0-38.8-63.6q-4.7-6.5-9.5-12.8a127 127 0 0 1 20.8-7.2 549.9 549.9 0 0 1 47.3 76.3z" transform="translate(-70.5 -70.5)"/></svg>