<svg id="Layer_3" data-name="Layer 3" xmlns="http://www.w3.org/2000/svg" viewBox="0 0 360 360"><defs><style>.cls-1{fill:#fff}.cls-2{fill:#444}.cls-3{fill:#666}.cls-4{fill:#ccc}</style></defs><title>effecktcsss</title><path class="cls-1" d="M0 0h360v360H0z"/><path class="cls-2" d="M53.6 130.1h50v50h-50z"/><path class="cls-1" d="M88 145.1v-5H68v29h6v-12h12v-5H74v-7h14z"/><path class="cls-2" d="M155 130.1h50v50h-50z"/><path class="cls-1" d="M239.6 239.9v-28.7h21.2v4.8h-15.4v6.3h14.4v4.8h-14.4v7.8h16v4.8h-21.8z" transform="translate(-70.5 -70.5)"/><g><path class="cls-2" d="M256.4 130.1h50v50h-50z"/><path class="cls-1" d="M283.6 151.4l10.8-11.3h-7.8L275 153.5v-13.4h-6v29h6v-8.4l4.7-4.9 7.8 13.3h7.5l-11.4-17.7z"/></g><g><path class="cls-3" d="M104.3 80.2h50v50h-50z"/><path class="cls-1" d="M140 95.1v-5h-20v29h6v-12h12v-5h-12v-7h14z"/><path class="cls-3" d="M2.9 80.2h50v50h-50z"/><path class="cls-1" d="M87.5 190v-28.6h21.2v4.8H93.3v6.3h14.4v4.8H93.3v7.8h16v4.9H87.5z" transform="translate(-70.5 -70.5)"/><g><path class="cls-3" d="M205.7 80.2h50v50h-50z"/><path class="cls-1" d="M308.2 179.1a8.5 8.5 0 0 1-2.4 4.6 5.8 5.8 0 0 1-4 1.5 6.3 6.3 0 0 1-5.1-2.3q-2-2.3-2-7.7t2-7.4a6.5 6.5 0 0 1 5.2-2.3 5.9 5.9 0 0 1 6 4.8l5.7-1.4a11.3 11.3 0 0 0-2.9-5.3 11.9 11.9 0 0 0-8.5-3.1 12.7 12.7 0 0 0-9.7 4q-3.7 4-3.7 11.1t3.7 10.7a13.5 13.5 0 0 0 17 1.6 12.6 12.6 0 0 0 4.3-7z" transform="translate(-70.5 -70.5)"/></g><g><path class="cls-3" d="M307.1 80.2h50v50h-50z"/><path class="cls-1" d="M321 90.1v5h8v24h6v-24h9v-5h-23z"/></g></g><g><path class="cls-4" d="M104.7 179.9h50v50h-50z"/><path class="cls-1" d="M207.3 279.1a8.5 8.5 0 0 1-2.4 4.6 5.8 5.8 0 0 1-4 1.5 6.3 6.3 0 0 1-5.1-2.3q-2-2.3-2-7.7t2-7.4a6.5 6.5 0 0 1 5.2-2.3 5.9 5.9 0 0 1 6 4.8l5.7-1.4a11.3 11.3 0 0 0-2.9-5.3 11.9 11.9 0 0 0-8.5-3.1 12.7 12.7 0 0 0-9.7 4q-3.7 4-3.7 11.1t3.7 10.7a13.5 13.5 0 0 0 17 1.6 12.6 12.6 0 0 0 4.3-7z" transform="translate(-70.5 -70.5)"/><g><path class="cls-4" d="M205.3 179.9h50v50h-50z"/><path class="cls-1" d="M311.4 276.7a8 8 0 0 0-3.2-2.9 28 28 0 0 0-6.2-2.1q-4.2-1-5.3-1.9a2.2 2.2 0 0 1-.9-1.7 2.1 2.1 0 0 1 .9-1.8 6.6 6.6 0 0 1 3.9-1 5.8 5.8 0 0 1 3.7 1 4.9 4.9 0 0 1 1.6 3.2l5.8-.3a8.3 8.3 0 0 0-2.9-6.3q-2.7-2.4-8.1-2.4a14.3 14.3 0 0 0-5.6 1 7.8 7.8 0 0 0-3.6 2.9 7.4 7.4 0 0 0-1.2 4.1 7.4 7.4 0 0 0 2.6 5.8q1.9 1.7 6.5 2.8l4.6 1.3a4.8 4.8 0 0 1 2.1 1.2 2.6 2.6 0 0 1 .6 1.7 3.5 3.5 0 0 1-1.4 2.8 6.4 6.4 0 0 1-4.2 1.2 6.2 6.2 0 0 1-4.2-1.3 6.9 6.9 0 0 1-2.1-4.2l-5.6.5a10.9 10.9 0 0 0 3.5 7.3q2.9 2.5 8.3 2.5a16.2 16.2 0 0 0 6.2-1 8.2 8.2 0 0 0 3.9-3.2 9 9 0 0 0 .3-9.2z" transform="translate(-70.5 -70.5)"/></g></g><g><path class="cls-4" d="M155 229.8h50v50h-50z"/><path class="cls-1" d="M261 326.7a8 8 0 0 0-3.2-2.9 28 28 0 0 0-6.2-2.1q-4.2-1-5.3-1.9a2.2 2.2 0 0 1-.9-1.7 2.1 2.1 0 0 1 .9-1.8 6.6 6.6 0 0 1 3.9-1 5.8 5.8 0 0 1 3.7 1 4.9 4.9 0 0 1 1.6 3.2l5.8-.3a8.3 8.3 0 0 0-2.9-6.3q-2.7-2.4-8.1-2.4a14.3 14.3 0 0 0-5.6 1 7.8 7.8 0 0 0-3.6 2.9 7.4 7.4 0 0 0-1.2 4.1 7.4 7.4 0 0 0 2.6 5.8q1.9 1.7 6.5 2.8l4.6 1.3a4.8 4.8 0 0 1 2.1 1.2 2.6 2.6 0 0 1 .6 1.7 3.5 3.5 0 0 1-1.4 2.8 6.4 6.4 0 0 1-4.2 1.2 6.2 6.2 0 0 1-4.2-1.3 6.9 6.9 0 0 1-2.1-4.2l-5.6.5a10.9 10.9 0 0 0 3.5 7.3q2.9 2.5 8.3 2.5a16.2 16.2 0 0 0 6.2-1 8.2 8.2 0 0 0 3.9-3.2 9 9 0 0 0 .3-9.2z" transform="translate(-70.5 -70.5)"/></g></svg>