<svg id="icon" xmlns="http://www.w3.org/2000/svg" viewBox="0 0 360 360"><defs><style>.cls-1{fill:#fff}.cls-2{fill:#1684c1}.cls-3{fill:#1a9ce5}.cls-4{fill:#1ba3fd}</style></defs><title>fancybox</title><path class="cls-1" d="M0 0h360v360H0z"/><path class="cls-2" d="M174.4 311.4L43.7 281.1 49 99.8l130.7 30.3-5.3 181.3z"/><path class="cls-3" d="M179.7 130.1L49 99.8l140.2-35.1L320 95.1l-140.3 35z"/><path class="cls-4" d="M320 95.1l-5.3 181.3-140.3 35 5.3-181.3 140.3-35z"/><path class="cls-1" d="M155.6 250a2.5 2.5 0 0 1-.9 1.3 1.8 1.8 0 0 1-1.6.2 2.3 2.3 0 0 1-1-.6 3.4 3.4 0 0 1-.6-.9 6.4 6.4 0 0 1-.4-1.2l-.3-1.1q-1.3-.4-2.6 1.2a16.8 16.8 0 0 0-2.5 5.4l-.6 2 4.9 1.6-.6 1.9-4.9-1.6-4.3 13.7a2.2 2.2 0 0 0-.1 1.2 1.7 1.7 0 0 0 .6.9l1.2.7 1.3.6-.4 1.3-10.1-3.2.4-1.3.9.2h.9a1.5 1.5 0 0 0 1-.4 2.3 2.3 0 0 0 .6-1.1l4.4-13.9-3.8-1.2.6-1.9 3.8 1.2.4-1.2a11.1 11.1 0 0 1 4.5-6.3 7.4 7.4 0 0 1 6.5-.9 4.4 4.4 0 0 1 2.4 1.5 2.1 2.1 0 0 1 .3 1.9zM163.7 282.6h-1.8l-1.6-.3a4 4 0 0 1-2.2-1.5 3.4 3.4 0 0 1-.5-2.4h-.1a9.9 9.9 0 0 1-3.4 1.3 8 8 0 0 1-3.7-.4 5.2 5.2 0 0 1-3.1-2.4 4.8 4.8 0 0 1-.3-3.9 6.1 6.1 0 0 1 .9-1.9 5 5 0 0 1 1.4-1.3 4.9 4.9 0 0 1 1.6-.6l1.7-.3h3.9l4-.3.6-1.9.2-1a4.3 4.3 0 0 0 0-1.5 4 4 0 0 0-.7-1.6 3.5 3.5 0 0 0-1.8-1.2 4.7 4.7 0 0 0-1.8-.2l-1.3.3a5.7 5.7 0 0 0-.2 1.2 6.2 6.2 0 0 1-.3 1.5 1.7 1.7 0 0 1-1 1 2.5 2.5 0 0 1-1.9 0 1.7 1.7 0 0 1-1.2-1.1 2.9 2.9 0 0 1 1.2-3.2 6.7 6.7 0 0 1 2.1-.9 9.3 9.3 0 0 1 2.4-.3 8.7 8.7 0 0 1 2.5.4l2.8 1.1a5.5 5.5 0 0 1 1.9 1.7 4.7 4.7 0 0 1 .9 2.4 8.7 8.7 0 0 1-.5 3.3l-1.6 4.9-1.5 4.7a2.5 2.5 0 0 0-.1 1.3 2.2 2.2 0 0 0 .6 1l.9.5 1.3.4zm-3.5-12.4H157a12.4 12.4 0 0 0-2.7.4 5.5 5.5 0 0 0-2 1.1 4.2 4.2 0 0 0-1.2 2 3.2 3.2 0 0 0 .1 2.6 3.2 3.2 0 0 0 1.9 1.4 4.6 4.6 0 0 0 2.6.1 7.4 7.4 0 0 0 2.3-1zM186.6 290.3l-9.3-3 .4-1.3 1 .2h.9a1.5 1.5 0 0 0 1-.4 2.3 2.3 0 0 0 .6-1.1l3.1-9.8a4.9 4.9 0 0 0 0-3.4 3.1 3.1 0 0 0-2-1.8 5.6 5.6 0 0 0-2-.3l-1.8.3-1.3.6-.8.7-3.5 11a2.1 2.1 0 0 0-.1 1.2 1.8 1.8 0 0 0 .6.9l.8.6.9.4-.4 1.3-9.4-3 .4-1.3.9.2h.9a1.5 1.5 0 0 0 1-.4 2.3 2.3 0 0 0 .6-1.1l3.7-11.8a2.8 2.8 0 0 0 .1-1.3 2.5 2.5 0 0 0-.5-1.1l-.8-.6-1-.5.4-1.3 6.5 1.6.2.4-.9 2.7h.1l1.5-.7 1.7-.6 2-.2a7.8 7.8 0 0 1 2.3.4 5.1 5.1 0 0 1 3.5 3 7.6 7.6 0 0 1-.1 5l-3.2 9.9a2.4 2.4 0 0 0-.1 1.2 1.6 1.6 0 0 0 .6.9l.7.5 1.2.7zM197.6 294.3a8.5 8.5 0 0 1-5.6-4.8 13 13 0 0 1 1.8-11.7 10.9 10.9 0 0 1 2.8-2.6 9 9 0 0 1 7.6-1 7.7 7.7 0 0 1 4.1 2.8 4.6 4.6 0 0 1 .6 4.2 3.3 3.3 0 0 1-1 1.6 1.7 1.7 0 0 1-1.8.3 2.6 2.6 0 0 1-1.6-1.1 1.8 1.8 0 0 1-.2-1.5 7.6 7.6 0 0 1 .8-1.7l.7-1.3a1.8 1.8 0 0 0-.8-1.1l-1.4-.7a4.3 4.3 0 0 0-1.9-.2 4.8 4.8 0 0 0-2.1.9 8.3 8.3 0 0 0-2 2.3 16 16 0 0 0-1.7 3.8 10.5 10.5 0 0 0-.3 6.4 5.1 5.1 0 0 0 3.5 3.6 5.5 5.5 0 0 0 3.4.1 9.4 9.4 0 0 0 3.2-2l1 1.2a10.5 10.5 0 0 1-4.5 2.6 8.3 8.3 0 0 1-4.6-.1zM203.6 302.5a2.4 2.4 0 0 1 1-1.4 1.8 1.8 0 0 1 1.5-.2 2.4 2.4 0 0 1 1 .6l.6.8.4 1 .3 1a8.1 8.1 0 0 0 3.2-2 23.3 23.3 0 0 0 3.2-3.3q-.4-5.2-.7-9.3t-.7-8.5a2.9 2.9 0 0 0-.8-1.8 5.4 5.4 0 0 0-1.5-1.2l.4-1.3 8.7 2.8-.4 1.4-1.5-.2a1 1 0 0 0-1 .3 1.6 1.6 0 0 0 0 .4v.6c0 .2.2 3.5.5 6.2s.4 4.9.5 6.5l3.2-3.7 3.8-4.6.7-.9a3.4 3.4 0 0 0 .6-1 1.3 1.3 0 0 0-.6-1.2 5.5 5.5 0 0 0-1.5-1.1l.4-1.2 7.1 2.2-.4 1.2a5 5 0 0 0-1.7.2 3.7 3.7 0 0 0-1.9 1.2l-7.2 8.5-4.8 5.6a37.7 37.7 0 0 1-3.5 3.5 13.4 13.4 0 0 1-2.6 1.8 5.8 5.8 0 0 1-2 .6 4.4 4.4 0 0 1-1.6-.2 3.8 3.8 0 0 1-2.1-1.5 2.2 2.2 0 0 1-.6-1.8z" transform="translate(-70.5 -70.5)"/><g><path class="cls-1" d="M305.4 276a7.1 7.1 0 0 1 2.8 1.2 6.4 6.4 0 0 1 2.1 2.7 6.8 6.8 0 0 1 .6 3.6 7.5 7.5 0 0 1-1.1 3.1 10.5 10.5 0 0 1-2.3 2.5 12.9 12.9 0 0 1-3.1 1.9l-12.4 5.5-.6-1.3 1.2-.7 1.1-.8a1.8 1.8 0 0 0 .5-1.1 2.5 2.5 0 0 0-.2-1.2l-8.3-19a3 3 0 0 0-.7-1 1.8 1.8 0 0 0-1.2-.4h-1.4l-1.2.3-.6-1.3 12.2-5.3a14.1 14.1 0 0 1 2.8-.9 8.8 8.8 0 0 1 2.9-.1 5.8 5.8 0 0 1 2.6 1 5.4 5.4 0 0 1 1.9 2.4 6.4 6.4 0 0 1 .6 2.7 5.9 5.9 0 0 1-.6 2.5 9 9 0 0 1-1.4 2.1 12.6 12.6 0 0 1-2.1 1.8v.2l2.8-.5a9.6 9.6 0 0 1 3.1.1zm-6.2-2a5 5 0 0 0 .2-2.2 9.1 9.1 0 0 0-.7-2.4 5.2 5.2 0 0 0-2.7-2.9 5.5 5.5 0 0 0-4.3.4l-1.5.7-1.5.7 4.4 10.2 2.4-1a8.4 8.4 0 0 0 2.4-1.5 4.4 4.4 0 0 0 1.3-2.1zm6.3 7.3a5.6 5.6 0 0 0-3.3-3.2 6.8 6.8 0 0 0-5.2.4l-2 .9-1.2.6 4 9.3a2.1 2.1 0 0 0 1.7 1.4 5.4 5.4 0 0 0 2.9-.6 5.9 5.9 0 0 0 3.5-3.5 7.5 7.5 0 0 0-.5-5.3zM330.4 268.7a13.2 13.2 0 0 1 1 4.1 9.9 9.9 0 0 1-.4 3.9 8.9 8.9 0 0 1-2 3.5 10.5 10.5 0 0 1-3.5 2.4 9.4 9.4 0 0 1-3.6.8 9.2 9.2 0 0 1-3.7-.7 10.1 10.1 0 0 1-3.3-2.2 11.8 11.8 0 0 1-2.5-3.7 10.9 10.9 0 0 1-.5-8.1 10 10 0 0 1 12.9-5.8 10.4 10.4 0 0 1 5.6 5.8zm-3.8 1.7a18.3 18.3 0 0 0-1.6-2.8 10.2 10.2 0 0 0-2-2.3 5.6 5.6 0 0 0-2.4-1.2 4.3 4.3 0 0 0-2.7.3 4.6 4.6 0 0 0-2.2 1.8 5.7 5.7 0 0 0-.8 2.7 9.3 9.3 0 0 0 .3 3 18.7 18.7 0 0 0 1 2.9 19.2 19.2 0 0 0 1.7 3.2 10.4 10.4 0 0 0 2.1 2.3 5.7 5.7 0 0 0 2.4 1.2 4.4 4.4 0 0 0 2.7-.4 4.5 4.5 0 0 0 2.7-3.9 13.1 13.1 0 0 0-1.3-6.8zM354.8 269.2l-8.4 3.7-.5-1.2 1.4-.8a.6.6 0 0 0 .4-.7l-.4-.4-.7-.5-2.1-1.4-3.3-2.1q-.4 1.6-.8 3.1l-.7 3.2a3.8 3.8 0 0 0-.1.6 1.2 1.2 0 0 0 .1.5.9.9 0 0 0 .8.5 5 5 0 0 0 1.8-.3l.5 1.2-6.8 3-.5-1.2a7.9 7.9 0 0 0 1.6-1.8 7.7 7.7 0 0 0 .9-1.9l.7-2.8q.5-1.8 1.1-4.7l-3.8-2.3-3.7-2.3a4.9 4.9 0 0 0-1.6-.7 3.3 3.3 0 0 0-2 .3l-.5-1.2 8-3.5.5 1.2-1.1.6c-.4.2-.5.4-.4.6l.3.3.5.3 2.1 1.4 3.1 2 .6-2.8.6-3a2.7 2.7 0 0 0 0-.4 1.2 1.2 0 0 0-.1-.4.8.8 0 0 0-.9-.3l-1.4.2-.5-1.2 6.8-2.9.5 1.2a8.6 8.6 0 0 0-1.8 1.7 6.4 6.4 0 0 0-.8 1.8l-.6 2.5-1 4.2 4.5 2.7 3.5 2.2a5.3 5.3 0 0 0 1.8.8 3.8 3.8 0 0 0 2.1-.2z" transform="translate(-70.5 -70.5)"/></g></svg>