<svg id="Layer_3" data-name="Layer 3" xmlns="http://www.w3.org/2000/svg" viewBox="0 0 360 360"><defs><style>.cls-1{fill:#13c7b0}.cls-2{fill:#00c973}.cls-3{fill:#41ade2}.cls-4{fill:#9d5eb4}.cls-5{fill:#009e86}.cls-6{fill:#3cbc80}.cls-7{fill:#3c9ac7}.cls-8{fill:#904aab}.cls-9{fill:#f9cc3c}.cls-10{fill:#ef7d16}.cls-11{fill:#f24d34}.cls-12{fill:#ebf0f0}.cls-13{fill:#fc9a00}.cls-14{fill:#dc5400}.cls-15{fill:#c93a23}.cls-16{fill:#bcc3c6}</style></defs><title>flatcolor</title><path class="cls-1" d="M0 0h90v90H0z"/><path class="cls-2" d="M90 0h90v90H90z"/><path class="cls-3" d="M180 0h90v90h-90z"/><path class="cls-4" d="M270 0h90v90h-90z"/><path class="cls-5" d="M0 90h90v90H0z"/><path class="cls-6" d="M90 90h90v90H90z"/><path class="cls-7" d="M180 90h90v90h-90z"/><path class="cls-8" d="M270 90h90v90h-90z"/><path class="cls-9" d="M0 180h90v90H0z"/><path class="cls-10" d="M90 180h90v90H90z"/><path class="cls-11" d="M180 180h90v90h-90z"/><path class="cls-12" d="M270 180h90v90h-90z"/><path class="cls-13" d="M0 270h90v90H0z"/><path class="cls-14" d="M90 270h90v90H90z"/><path class="cls-15" d="M180 270h90v90h-90z"/><path class="cls-16" d="M270 270h90v90h-90z"/></svg>