<svg id="Layer_3" data-name="Layer 3" xmlns="http://www.w3.org/2000/svg" viewBox="0 0 360 360"><defs><style>.cls-1{fill:#fff}.cls-2{fill:#222}.cls-3{fill:#a9fd00}</style></defs><title>flaticon</title><path class="cls-1" d="M0 0h360v360H0z"/><circle class="cls-2" cx="180" cy="180" r="148"/><path class="cls-1" d="M186.5 230.6l-.1-.1v-.1h-.1l-.1-.2M239.5 138.5v.1h-.1l.1-.1z"/><path class="cls-3" d="M348.3 196.9l-.5.6h-30.9l15.5-26h.8c13.4.1 21.7 13.9 15.1 25.4z" transform="translate(-70.5 -70.5)"/><path class="cls-1" d="M319 171.6H167.8c-13.4 0-21.7 13.8-15 25.3l82.7 142.8a17.3 17.3 0 0 0 30-.1v-.2l-42.3-74.1v.3h41.1l15.4-26.8v-.2h-72l-23.6-41h119.4z" transform="translate(-70.5 -70.5)"/><path class="cls-3" d="M239.4 139.1l-53.2 91.3.1.1h.1v.1h.1l15.3 26.6.1.1v.2l68.5-118.4h-31z"/><path class="cls-1" d="M239.5 138.5v.1h-.1l.1-.1z"/><path class="cls-1" d="M309.9 209.1zm0 0zm0 0zm0 0zm0 0zm0 0zm0 0zm0 0zm0 0zm0 0zm0 0zm0 0zm0 0zm0 0zm0 0zm0 0zM257 301.1h-.1v-.2" transform="translate(-70.5 -70.5)"/></svg>