<svg id="Layer_3" data-name="Layer 3" xmlns="http://www.w3.org/2000/svg" viewBox="0 0 360 360"><defs><style>.cls-1{fill:#fff}</style></defs><title>fokus</title><path class="cls-1" d="M0 0h360v360H0z"/><circle cx="180" cy="180" r="148"/><path class="cls-1" d="M309.8 169.6H189.5v4h5.6a21.9 21.9 0 0 1 11 2.5c2.5 1.4 4.1 3 4.9 5s1.6 7.9 1.6 16.1v104.5c0 9.7-1 16.7-2.9 19.2s-7.9 6.7-14.6 6.7h-5.6v4h70v-4H253c-3.8 0-7.5-1.8-11-3.7a12.6 12.6 0 0 1-5.5-5.5c-1-2.6-2-8.5-2-16.7v-50.1h30.4c5.4 0 9.5.4 12.2 1.8a16.4 16.4 0 0 1 6.4 7c1.6 2.9 2.4 8.2 2.4 14.2h4.5v-55H286c-1 10-3.1 14.6-6.3 17.6s-8.1 4.4-14.9 4.4h-30.3v-63h36.6c8.4 0 14.7.1 18.7 1.7a24.8 24.8 0 0 1 10.1 8.2c2.7 3.5 5.2 9.1 7.2 17.1h4.2z" transform="translate(-70.5 -70.5)"/></svg>