<svg id="Layer_3" data-name="Layer 3" xmlns="http://www.w3.org/2000/svg" viewBox="0 0 315.4 315.4"><defs><style>.cls-1{fill:#fefefe}</style></defs><title>fontawesome</title><path d="M250.3 408.2H132.8c-22.7 0-40-17.3-40-39.9V132.9c0-22.8 17.4-40.1 40.2-40.1h235.1c22.8 0 40.1 17.4 40.2 40.1v235.4c0 22.6-17.4 39.9-40 39.9h-118z" transform="translate(-92.8 -92.8)"/><path class="cls-1" d="M378 234.7v49c0 8.5-3.7 14.9-11.3 18.8-12.8 6.7-26.2 11.5-40.7 12.8-10.1.9-19.8-.5-29-5.3s-20.2-10.4-31-13.9c-19.2-6.1-38.1-4.5-56.7 2.5a282 282 0 0 0-31.4 13.8c-6.4 3.3-10.1 1.2-10.1-6V205.8c0-6.9 2.9-12.7 8.9-15.9 15.9-8.7 32.4-15.8 50.2-19.5s32.1-.7 47.4 5.4a140.7 140.7 0 0 1 19 9c14.6 8.5 30 8.9 45.9 5a118.1 118.1 0 0 0 29.2-11.5c6.2-3.4 9.8-1.4 9.8 5.7q-.2 25.4-.2 50.7zM136.1 268.3v-80.9a5.2 5.2 0 0 0-2.3-4.7 20.4 20.4 0 0 1-2.9-30.3 21.1 21.1 0 0 1 31.1-.2 20.4 20.4 0 0 1-2.7 30.6 5.2 5.2 0 0 0-2.2 4.8q.1 80.1 0 160.2c0 6.8-1.3 8.1-8.2 8.1h-7c-3.9-.1-5.8-1.9-5.9-5.9s0-9.8 0-14.6q.1-33.7.1-67.1z" transform="translate(-92.8 -92.8)"/></svg>