<svg id="Layer_3" data-name="Layer 3" xmlns="http://www.w3.org/2000/svg" viewBox="0 0 359 359"><defs><style>.cls-1{fill:#d43e27}.cls-2{fill:#fff}.cls-3{opacity:.76}.cls-4{fill:#2b1310;fill-opacity:.15}</style></defs><title>fontscom</title><path class="cls-1" d="M0 0h359v359H0z"/><path class="cls-2" d="M250.5 101.5a149 149 0 1 0 149 149 149 149 0 0 0-149-149zm63.8 65a62.4 62.4 0 0 0-14.9-2.2c-8.9-.1-16.6 2.1-23 6.8s-10.3 11.6-11.9 20.9l-2.7 15.6h37.4l-6.6 38h-37.1l-26.4 152.2a147.7 147.7 0 0 1-48.1-15.6l23.7-136.6h-28l6.6-37.7h27.9l2.5-19.3q4.6-30.9 25.2-48.6t52.4-17.3a168.8 168.8 0 0 1 27.4 3.7z" transform="translate(-70.5 -70.6)"/><g class="cls-3"><path class="cls-4" d="M350 139.1l-.2.3a149 149 0 0 1-184.3 233.5l-1 1.2 55.9 55.9H430V219.1z" transform="translate(-70.5 -70.6)"/><path class="cls-4" d="M116.9 274.5l-6.4 37.1 6.4-37.1z"/></g></svg>