<svg id="Layer_3" data-name="Layer 3" xmlns="http://www.w3.org/2000/svg" viewBox="0 0 360 360"><defs><style>.cls-1{fill:#fff}.cls-2{fill:#4c4c4c}</style></defs><title>fontfaceninja</title><path class="cls-1" d="M0 0h360v360H0z"/><path id="path4164" class="cls-2" d="M149.3 111.4c-4.3-.2-8.4 1.6-12.4 5.1s-10.7 6.3-9 11.6c2.8 8.5 11.8 12.8 19.7 13.2s13.6 5 17.6 10.8c20.7 30.6 27.1 63.9 16.2 99.5-6.2 20.2-9.7 40.7-8.8 61.6 1 24.1 9.6 45.2 32.2 57 8.3 4.3 13.1 8.9 13 19.2 6.3-9.4 12.5-18.9 19.1-28.1 3.5-4.9 3.4-7.6-1-12.9-15-17.8-14-25 2.6-40.8 22.2-21.1 24.4-20.6 36.5 8.3 5.2 12.5 15.9 18.5 25 14.1s19.6-30.5 15.7-37.3c-.4-.8-1.4-1.9-1.9-1.8-11.9 1.3-6.7-7.5-7.1-12.5-.7-6.7-.1-13.6-.7-20.3s-2.6-14.9-13-13.4c-7.5 1.1-5.4-3.9-5.1-7.8.9-14.5 21.7-28.3 38.7-24.8 11.7 2.4 23 6.6 35.2 5.5 3.1-.3 6.6.3 7.2-3.9s1.5-6.9-2.9-7.5c-9.3-1.4-4.5-6.1-2.3-9.6s6.1-8.1 9.7-12.6c-12.6-6.8-24.2-15.3-35.1 1.3-1.7 2.6-5.2 2.1-7 .5-8.5-7.2-28.2-.7-25.9-21.9.4-3.9-6.4-9.1-10.7-12.8-20.6-18-45.1-25.1-72.1-25.6-11-.2-15.4 3.5-8.7 13.6 4.1 6.2.7 10.6-2.8 13.6s-7.3-1.6-9.9-4.5c-12.2-13.1-27.3-22.6-41.6-33a18.8 18.8 0 0 0-10.4-3.8zm74.9 90.9l1.1.3c8.4 3.7 21.2 1.3 24.5 11.8 2 6.4-6.1 9.4-12.9 10.3-10.3-.9-14.2-8.9-17.1-17.1a4 4 0 0 1 4.4-5.3zm58.7.8c2.5-.1 4.4 2.1 5 5.8-1.7 6.8-5.5 12.3-13.1 13.1-5.2.6-12.4-.4-12.3-6.4.2-10.5 11.7-7.8 17.8-11.6a5.7 5.7 0 0 1 2.6-.9z" transform="translate(-70.5 -70.5)"/></svg>