<svg id="Layer_3" data-name="Layer 3" xmlns="http://www.w3.org/2000/svg" viewBox="0 0 360 360"><defs><style>.cls-1{fill:#fff}.cls-2{fill:#fd535a}</style></defs><title>fontastic</title><path class="cls-1" d="M0 0h360v360H0z"/><path id="path4139" class="cls-2" d="M210.1 190.3c-13.6.1-26.4 4.6-39.2 8.9-19.9 6.7-39 15.8-59.2 21.7-6.6 1.9-13.4 4.5-19.9-.6-1.7 15.9 5.4 21.8 19.9 16.9 9.3-3.1 18.1-7.6 26.9-12 3.4-1.7 4.8-1.3 4.3 2.6-1 8.3-1.8 16.7-2.9 25.1-.1 1.3.1 3.1-1.6 3.6-6.9 2-13.4 6.7-21.2 3.9-1.3-.5-2.7-1-2.5.7.2 3.9 1.2 7.6 4.2 10.2a6.8 6.8 0 0 0 8.3 1.1l11.2-6c-.2 4.8-.4 8.9-.7 13a114.9 114.9 0 0 0 .4 22.3c.8 6.1 3.6 8.7 9.9 8.9 2.4.1 3.7-.4 3.6-3.3-.6-17.5 3.6-34.2 9.8-50.4a7.1 7.1 0 0 0-1.6-7.7c-1.8-2-3.5.7-5.3 1.1l-3.1 1.1c0-7.7 2.8-14.5 4.3-21.4.7-3.3 2.8-6.7 1.4-9.9s-.1-4.1 2.4-5.3c12.2-5.7 24.5-11 37.5-14.6 7.1-2 14.3-3.7 21.9-1.7s11.7 9.4 8 17.3c-1.2 2.5-2.8 3.6-5.7 3.1-4.9-.7-10-1.3-14.9-1.8-7.5-.7-14.8-1.1-22.2 1.1s-9.8 9.9-4 15.9a19.5 19.5 0 0 0 11.1 5.5c13.5 2.2 24.9-2 34.2-12 2.7-2.9 16.6-3.3 19.2-.4a4.3 4.3 0 0 1 .5 2.8c-2.3 20.1-4.9 40.2-12 59.4-1.1 2.9-1.8 6.3-5.7 7.6a20.1 20.1 0 0 1-.8-4.2c-.2-12-.1-24.2 3.4-35.8 1.6-5.3-1.4-6.9-4.8-8.7s-6.3-.1-7.8 3.6-3.7 8.4-4.6 13c-1.4.8-1.7-.4-2-1.3a48.6 48.6 0 0 0-2-12.4c-1.2-4.2-4.9-4.2-8.1-5.2s-3.4 2.4-4.6 4.1-1.4 2.4-2.4 3.5-1.8 3.5-3.4 2.8-4.2-2.7-4.3-4.3c-.6-5.9-5.5-6.4-9.4-7.3s-5.5 3.3-6.9 6.3c-6.6 14.6-7.7 29.8-4.6 45.3 1.2 6.1 5.4 9.9 11.1 12.5s7 1.1 8.8-3.4a86.9 86.9 0 0 0 6-37.1c-.2-5.2 1.9-8.3 5.2-11.4s3.4-1.7 3.5 1.4c.8 10.4 1.4 20.8-.6 31.2-.7 4-1.9 7.8-2.6 11.7s2.7 8.4 8.6 9.2 5.4-2.8 5.4-6.6c0-8.9 1.4-17.6 3.1-26.3.8-4.2 1.2-8.6 4-12.3a36.8 36.8 0 0 1 0 8.9c-.8 8.6-1.2 17.2.2 25.8a11.6 11.6 0 0 0 7.5 9.4c3.7 1.6 6.1 1.4 7.2-3.5 1.9-8 4.7-15.8 7.1-23.6 3.5 1.1.7 4.3 2.2 6 .5 4.8.6 9.6 1.4 14.3s5.4 6.6 9.8 7.5 4-3.5 5.3-5.9 1.8-7.8 5.1-11.7c.2 7.1 1 13 7.3 16.4 3.6 1.9 6 1.7 7.2-2.5s2-7.9 3.3-12.5c.6 2.5 1.2 4.5 1.6 6.4 1.3 6 6 8.8 11.1 9.6s5.1-4.8 6.9-7.8c.5-.8.2-2 1.8-2.4 2.7 3.4 5.3 6.7 9.2 9 7.2 4.1 13.4 1.9 16.3-5.8 1.3-3.5 2.2-7.2 3.3-11 3.3.5.6 3.5 2 4.8s-.1 4.1.4 6c1.1 5.3 5.5 6.6 9.9 7.4s4-3.3 4.8-5.7c2.3-7 4.2-14 6.5-21.9.6 6.5 1 12.2 1.6 17.7a11.3 11.3 0 0 0 10.2 10c5.4.2 4.6-4.7 5.5-7.7 1.8-5.9 3-11.9 4.5-18a27.5 27.5 0 0 1 2.6 8.7 21.4 21.4 0 0 0 11.2 15.5c3.5 1.9 6.5 1.9 9-1.4a46.6 46.6 0 0 0 9.9-27.8c.4-2.5 0-4.8-3-5.7a37.1 37.1 0 0 1-6.3 20c-1.2 1.8-2.7 3.9-5.2 3.4s-3.6-2.7-4.1-4.8c-1.8-7.8-2.7-15.8-.2-23.7a10.6 10.6 0 0 1 .6-1.8 2.9 2.9 0 0 0 .4 1.9c7.6 3.6 9.5 3 13.4-4.1s2.7-13.3-6.6-16.5-12.9-2-16.6 7.6c-4.5 11.2-6.6 23.1-10.5 34.5-.8 2.4-1.1 5.5-4.9 7.1-.7-15.1-.5-29.3 4.9-43 .5-1.2 2.2-2.4.6-3.6s-6.1-4.1-9.9-3.9-3.4 4.1-3.7 6.6a205.1 205.1 0 0 1-9.8 37.1c-.7 2.2-1.1 4.7-3.5 5.8-1.3-.5-1.2-1.6-1.3-2.5a383 383 0 0 1 2.3-49.9c.4-3.6 2.5-2.9 4.7-2.8a135.3 135.3 0 0 0 28.8-.2c11.4-1.3 19.3-7 21.3-15.7s-1.1-14.1-6.5-16.4c0 10.5-4.1 16.3-14.2 19.6a52.4 52.4 0 0 1-17.7 2.8c-4.7-.1-10.8 2-13.9-1.1s.7-8.3 1.3-12.7c0-.2.1-.4.1-.6.5-4.3-7-11-11.1-10-1.9.5-1.7 1.8-1.8 3.3-.1 4.8-.8 9.6-.7 14.5s-1.3 5.8-5.9 5.7c-22.6-1.1-45.2-3.3-67.7-5.9-3.5-.4-4.2-1.4-3.6-4.8 1.1-6.5-1.1-9.8-7.5-12-3.3-1.2-4.9-1-5.1 3.5-.4 12.7 1.7 11.6-11.9 9.6-2.8-.4-3.6-1-3-4 3.4-16.8-4.5-26.6-21.6-26.5zm155.4 7.7c-1.6 0-.7 1.8-.6 3 .4 3.6.6 7.2.7 9.4-.2 4.2-.6 7-.6 9.8s-1.8 3.9.8 4.7 3.9-.4 5.1-2.3a48.2 48.2 0 0 0 6.4-16.1c.4-2 .7-4-1.7-5.2s-6.5-3.4-10.1-3.3zm-164.7 23.7a83.4 83.4 0 0 1 19.2 2.2c-6 7.5-19.9 10.8-28.2 6.9-1.8-.8-3.7-1.9-3.6-4.3s2.2-3.1 4.1-3.7a29.5 29.5 0 0 1 8.5-1.1zm59.9 8l1.5.2c22.9 3.9 45.9 7.2 69 9.9 1.6.2 4-.2 3.6 2.6-2 15.4.8 31.4-6.5 46.5-3.1-7.6-6.1-14.6-8.8-21.7a22.1 22.1 0 0 1-.7-14.2c.8-2.7 1.2-4.8-2-5.7s-6.4-1.6-8.4 2.3-1.3 6.6-1.1 10c.7 12-3.4 22.8-8.6 33.4-1 1.9-2.2 4.6-4.7 4s-1.7-3.4-1.8-5.3a80.1 80.1 0 0 1 2.2-25.1c2.2-9.8-10.7-22-20.2-19.5-3 .8-3.6 3.5-4.3 6-2.9 10-5.4 20.1-8.4 30.1a101.1 101.1 0 0 1-4 10.6c-.6 1.3-1.2 3.5-3.3 2.9s-1-2.4-1.1-3.7a336.6 336.6 0 0 1 1.7-42.6c.5-5.4 1.4-10.7 1.9-16.1.2-3.3.8-4.8 3.9-4.6zm23.7 23.9a3.3 3.3 0 0 1 2.1 1.2c.8 1.1.4 1.9-1 3.3-3.5 3.3-2.3 8.2-3.3 12.3-1.6 6.7-2.5 13.7-3.9 20.6a12.7 12.7 0 0 1-3.1 6.9c-2.4-14-.5-26.3 3.7-38.3a14.7 14.7 0 0 1 3.3-4.9 2.5 2.5 0 0 1 2.1-1.1zm-127 3.3l-8.1 28.6c-2.9-.4-1.4-2.3-1.3-3.7.5-5.2 1.1-10.2 1.3-15.4s2.1-8.4 8-9.4zm236.3 5.2a5.7 5.7 0 0 1-1.3 2.5zm-216.3 3.1c10.5 7.8 7.1 17.7 4.6 27.5-.5 2-1.4 4.8-4 4.5s-2.8-3-3.3-5.2c-1.7-9.1-.4-18.1 2.6-26.7zm133.4 6.8c3.6 7 6.4 13 6.1 20-.1 3.6-1.6 6.3-5.9 5.7s-7.6-4.2-6.5-8c1.7-5.5 3.8-10.8 6.3-17.7z" transform="translate(-70.5 -70.5)"/></svg>