<svg id="Layer_3" data-name="Layer 3" xmlns="http://www.w3.org/2000/svg" viewBox="0 0 360 360"><defs><style>.cls-1{fill:#fff}.cls-2{fill:#6d84b4}</style></defs><title>fontsgeek</title><path class="cls-1" d="M0 0h360v360H0z"/><path d="M33 147.1h10v-37h37v-12H43v-24h41v-11H33v84z"/><path d="M214.4 161.5a26.9 26.9 0 0 0-9.4-6.7 31 31 0 0 0-23.8 0 26.9 26.9 0 0 0-9.4 6.7 31 31 0 0 0-6.1 10.5 43.2 43.2 0 0 0 0 27.1 31.1 31.1 0 0 0 6.1 10.4 26.9 26.9 0 0 0 9.4 6.7 31 31 0 0 0 23.8 0 26.9 26.9 0 0 0 9.4-6.7 31.1 31.1 0 0 0 6.1-10.4 43.2 43.2 0 0 0 0-27.1 31 31 0 0 0-6.1-10.5zm-8.2 40.9a16.7 16.7 0 0 1-26.1 0q-4.8-6.2-4.8-16.9t4.8-16.9a16.7 16.7 0 0 1 26.1 0q4.8 6.2 4.8 16.9t-4.8 17zM284.2 160.8a19.5 19.5 0 0 0-7.9-5.9 32 32 0 0 0-12.5-2.1 102.7 102.7 0 0 0-15.9 1.1c-4.3.7-9.4 1.4-11.4 2.1v61.7h12v-53.8a10 10 0 0 0 2.7-.4l3.5-.4 3.9-.3h3.8a21.6 21.6 0 0 1 7.6 1.2 10.4 10.4 0 0 1 4.9 3.7 17.2 17.2 0 0 1 3.2 6.7 49.4 49.4 0 0 1 1.4 9.9v33.5h8v-36.1c0-4.3.6-8.2-.2-11.8s-1.2-6.6-3.1-9.1zM338.6 207.3a24 24 0 0 1-8.2 1.2 16.1 16.1 0 0 1-5.1-.7 7.8 7.8 0 0 1-3.6-2.5 12.2 12.2 0 0 1-2.8-4.9 31.3 31.3 0 0 1-1.4-7.8v-28h23v-8h-23v-22.1l-12 1.9v56.3c0 4.2 1.4 7.9 2 11.1a20.3 20.3 0 0 0 4.1 8.1 16.3 16.3 0 0 0 7 4.9 30.1 30.1 0 0 0 10.7 1.6 34.3 34.3 0 0 0 9.8-1.3 42.5 42.5 0 0 0 6-2.1l-2.2-9.3zM391.5 188a25.1 25.1 0 0 0-6-3.8q-3.5-1.6-8-3.3l-5.8-2.3a19.9 19.9 0 0 1-4.1-2.4 8.4 8.4 0 0 1-2.4-2.9 8 8 0 0 1-.8-3.6 6.2 6.2 0 0 1 3.5-5.9 17.3 17.3 0 0 1 8.2-1.9 36.8 36.8 0 0 1 9.3 1 28.4 28.4 0 0 1 5.7 2l2.1-9.7-2.7-.8-4.1-.9-5-.7a47.9 47.9 0 0 0-5.3-.3q-10.7 0-16.9 4.9a16.1 16.1 0 0 0-6.2 13.3 15.9 15.9 0 0 0 1.5 7.2 15.6 15.6 0 0 0 3.9 5 24.4 24.4 0 0 0 5.8 3.6l7 3A51.9 51.9 0 0 1 382 195a7.7 7.7 0 0 1 3.3 6.5 6.2 6.2 0 0 1-3.3 5.8q-3.3 1.8-10.3 1.8a35.7 35.7 0 0 1-11.3-1.5l-6.2-2.2-2.1 9.7a67.6 67.6 0 0 0 6.4 2.1 48.4 48.4 0 0 0 13.1 1.4q12 0 18.5-4.5t6.5-13.2a19.1 19.1 0 0 0-1.3-7.6 14.7 14.7 0 0 0-3.8-5.3z" transform="translate(-70.5 -70.5)"/><g><path d="M134.3 271.1a33.3 33.3 0 0 0-12.9 2.4 27.5 27.5 0 0 0-9.6 6.5 28.1 28.1 0 0 0-6 9.9 37.4 37.4 0 0 0-2.1 12.7 38 38 0 0 0 2.2 13.6 27.3 27.3 0 0 0 5.9 9.5 23.3 23.3 0 0 0 8.8 5.6 31.3 31.3 0 0 0 10.7 1.8 27.8 27.8 0 0 0 9.6-1.5c2.8-1 5.5-1.8 5.5-2.5v2.7c0 5.8-1.3 10.1-4.3 12.7s-7.7 4-14.4 4a49.6 49.6 0 0 1-10.2-1 52.5 52.5 0 0 1-8.3-2.4l-2.1 9.8a64.4 64.4 0 0 0 9.2 2.3 62.2 62.2 0 0 0 11.2 1c10.2 0 18.1-2.2 23.1-6.5s7.8-11.4 7.8-21.1v-56.2c-2-.6-6.2-1.4-10.2-2.1a75.6 75.6 0 0 0-13.9-1.2zm12.2 48.2a30 30 0 0 1-5.9 3 25.4 25.4 0 0 1-8.2 1.3 17.2 17.2 0 0 1-6.4-1.2 14.6 14.6 0 0 1-5.4-3.8 18.5 18.5 0 0 1-3.8-6.4 27.7 27.7 0 0 1-1.4-9.3q0-9.8 4.9-15.8t14-5.9a53.8 53.8 0 0 1 7.6.4c1.9.3 2.5.6 4.5.9v36.9zM391.5 326.9c-2.3-3.3-4.8-6.8-7.5-10s-5.3-6.3-8-9a77.5 77.5 0 0 0-7.7-7l6.7-7 7.1-7.4c2.3-2.5 4.6-3.9 6.8-6.3s4.2-3.6 6.1-5.6h-13.3c-1.5 2-3.2 2.6-5.2 4.8s-4.2 4-6.4 6.4-4.7 4.6-7 6.9-2.6 4.2-6.6 6.2v-57.5l-12 1.9v93.2h12v-31.3c4 1.5 4.8 3.4 7.3 5.7a100.2 100.2 0 0 1 7.5 7.5c2.4 2.7 4.8 6.1 7 9s4.2 5.2 5.9 9.2h13.2c-1.6-4-3.6-6.4-5.9-9.7z" transform="translate(-70.5 -70.5)"/><circle cx="137.9" cy="226.8" r="6.4"/><circle cx="225" cy="226.8" r="6.4"/><path class="cls-2" d="M295.5 323.9c-14.6-.3-26.6-11.9-26.6-26.6a26.6 26.6 0 0 1 26.6-26.6 25 25 0 0 1 17.4 6.8l-7.2 5.4 8.9 10 14-12.6C321 266.2 309.5 260 295 260c-7 0-11.6 2-19.6 5.4v3.1h-49V265c-7-3.3-11.4-4.9-18.6-4.9a37.2 37.2 0 1 0 37.4 41.1s-20.7 23-37 22.7c-14.6-.3-26.6-11.9-26.6-26.6a26.6 26.6 0 0 1 26.6-26.6 25 25 0 0 1 17.4 6.8l-7.2 5.4 8.9 10 14-10.8c-1.1-2-2.2-3.6-3.4-3.6h27.8c-4.7 2-7.5 12.1-7.5 20.5 0 20.5 16.7 36.3 37.2 36.3s35-15.1 37-33.7c.1.1-20.6 22.6-36.9 22.3zM268.2 352.6s-2.8 14.9-14.9 14.9-14.9-14.9-14.9-14.9h29.8z" transform="translate(-70.5 -70.5)"/></g></svg>