<svg id="Layer_3" data-name="Layer 3" xmlns="http://www.w3.org/2000/svg" viewBox="0 0 360 360"><defs><style>.cls-1{fill:#333}.cls-2{fill:#fff}.cls-3{fill:#ffdf01}</style></defs><title>fontstruct</title><path class="cls-1" d="M0 0h360v360H0z"/><path class="cls-2" d="M89.5 236.4a12.1 12.1 0 0 1 4-9.1 13.7 13.7 0 0 1 9.8-3.9H117v13H89.5zm0 13.8v-13h13.8v13H89.5zm0 13.8v-13H117v13H89.5zm0 13.8v-13h13.8v13H89.5zM117.6 250.1a12.1 12.1 0 0 1 4-9.1 13.7 13.7 0 0 1 9.8-3.9h13.8a13.3 13.3 0 0 1 9.7 3.9 12 12 0 0 1 4.1 9.1h-41.4zm0 13.8v-13h13.8v13h-13.8zm13.8 13.8a13.7 13.7 0 0 1-9.8-3.8 12.4 12.4 0 0 1-4-9.2h41.3a12.3 12.3 0 0 1-4.1 9.2 13.8 13.8 0 0 1-9.7 3.8h-13.7zm13.8-13.7v-13H159v13h-13.9zM159.5 250.1v-13H187a13.3 13.3 0 0 1 9.7 3.9 12 12 0 0 1 4.1 9.1h-41.3zm0 13.8v-13h13.8v13h-13.8zm0 13.8v-13h13.8v13h-13.8zm27.5-13.8v-13h13.8v13H187zm0 13.8v-13h13.8v13H187zM201.4 236.4v-13h13.8v13h-13.8zm0 13.8v-13h27.5v13h-27.5zm0 13.8v-13h13.8v13h-13.8zm13.8 13.8a13.7 13.7 0 0 1-9.8-3.8 12.4 12.4 0 0 1-4-9.2h27.5v13h-13.7z" transform="translate(-70.5 -70.5)"/><path class="cls-3" d="M229.6 250.1a12.1 12.1 0 0 1 4-9.1 13.7 13.7 0 0 1 9.8-3.9h13.8v13h-27.6zm13.8 13.8a13.7 13.7 0 0 1-9.8-3.8 12.4 12.4 0 0 1-4-9.2h13.8a13.3 13.3 0 0 1 9.7 3.9 12 12 0 0 1 4.1 9.1h-13.9zm-13.7 13.8v-13h27.5a12.3 12.3 0 0 1-4.1 9.2 13.8 13.8 0 0 1-9.7 3.8h-13.8zM257.7 236.4v-13h13.8v13h-13.8zm0 13.8v-13h27.5v13h-27.5zm0 13.8v-13h13.8v13h-13.8zm13.8 13.8a13.7 13.7 0 0 1-9.8-3.8 12.4 12.4 0 0 1-4-9.2h27.5v13h-13.8zM285.8 250.1a12.1 12.1 0 0 1 4-9.1 13.7 13.7 0 0 1 9.8-3.9h13.8v13h-27.6zm0 13.8v-13h13.8v13h-13.8zm0 13.8v-13h13.8v13h-13.8zM314 250.1v-13h13.8v13H314zm0 13.8v-13h13.8v13H314zm13.8 13.8a13.7 13.7 0 0 1-9.8-3.8 12.4 12.4 0 0 1-4-9.2h41.3a12.3 12.3 0 0 1-4.1 9.2 13.8 13.8 0 0 1-9.7 3.8h-13.8zm13.8-27.5v-13h13.8v13h-13.9zm0 13.8v-13h13.8v13h-13.9zM355.9 250.1a12.1 12.1 0 0 1 4-9.1 13.7 13.7 0 0 1 9.8-3.9h13.8v13h-27.6zm0 13.8v-13h13.8v13h-13.8zm13.8 13.8a13.7 13.7 0 0 1-9.8-3.8 12.4 12.4 0 0 1-4-9.2h27.5v13h-13.8zM384 236.4v-13h13.8v13H384zm0 13.8v-13h27.5v13H384zm0 13.8v-13h13.8v13H384zm13.8 13.8a13.7 13.7 0 0 1-9.8-3.8 12.4 12.4 0 0 1-4-9.2h27.5v13h-13.7z" transform="translate(-70.5 -70.5)"/></svg>