<svg id="Layer_3" data-name="Layer 3" xmlns="http://www.w3.org/2000/svg" viewBox="0 0 360 360"><defs><style>.cls-1{fill:#fff}.cls-2{fill:#7f7f7f}.cls-3{fill:#60466b}.cls-4{fill:#60476b}.cls-5{fill:#f3f3f3}</style></defs><title>fontsquirrel</title><path class="cls-1" d="M0 0h360v360H0z"/><path id="path4156" class="cls-2" d="M346.8 159c-26.9.1-49.7 11.5-68.9 30.8a47.4 47.4 0 0 0-12.2 19.4c-4 8.3-4.9 17.1-4.2 26.1.1 1.2 1 2.4-.3 3.5l5.2 6.3c0-12.6.2-24.3-.8-36 3.6 2.3 7.6 1 11.5 1.2 5.6.2 5.9.1 5.6 5.8-.7 12.8-.8 25.5-.7 38.3 0 2-.4 4.1 1.2 5.8a67.4 67.4 0 0 0 22.1-5.3 3.1 3.1 0 0 0 1-2.4c.2-7.5.3-15 0-22.5-.1-2.5-1.6-3.6-4-3.7s-5.8-.1-8.8-.1-3.4-1.1-3.2-3.5.7-5 .8-7.6c.3-4.8.3-4.8 5.1-4.8h41.9c7.8 0 7.8-.9 6.6 7.7s-1 8.1-9.5 8.2l-2.7.2a3.6 3.6 0 0 0-3.2 2.3c-1 3.2-1.7 6.4.4 9.4.8-.7 1.5-1.7 2.4-.2a35.3 35.3 0 0 1 2.4 4.7c6.1 15.4 3.7 30.5-1.2 45.6-.5 1.6-1.6 1.6-3 1.6h-9.9c-1.3 0-2.4.2-2.2 1.8.5 4.5-.5 9.1.6 13.5 2-2.3 1.1-5.1 1.2-7.6.2-5.8.1-5.9 6-5.8h.4c4.6.1 5 .4 5.1 5 .1 6.8-.1 13.7.1 20.5.1 4.1 1.3 5.1 5.4 4.8 1.9-.1 3.8-.5 5.7-.6s3.2 1.1 3.5 3.6c.4 4.1-2.7 4.6-5.1 5.9.1 2.7 2 3 4 2.7s4.7-.9 7.1-1.2 3.9-1 4.2 2.1c.2 1.3 1.8 1.3 2.9 1.2 5.9-.8 11.8-1.7 17.7-.4 2.3.5 3-1 2.1-3s-3.2-6-7.6-6.4c4.5-3 8-7.5 13.8-3.3a4.2 4.2 0 0 0 2.6.5c1.6-.1 2.5-.8 1.1-2.4a20.2 20.2 0 0 1-1.6-1.6c-.7-1-2.1-1.8-1.4-3.2a3.5 3.5 0 0 1 2.4-1.6c1.4-.1 1.4 1.5 1.9 2.4 2.5 4.4 5.9 7.6 11.2 8.2.8.1 1.9.4 2.4-.5s-.5-1.5-1.1-2.2a26.7 26.7 0 0 1-4.9-7.7c-1.3-3.1-1-5 2.8-6.1 6.1-1.8 12.2-3.5 17.6-7 3-2 3.3-3.7 1.2-6.6a23 23 0 0 0-10.6-7.8c-2.9-1-4.4-2.3-4.1-5.5.1-1.4 0-3.5-1.7-3.8s-2.1 1.8-2.7 3.1-.7 2.1-1.1 3.2c-1.6-1.3-.3-5-2.8-4.8s-2.5 3.4-3.2 5.5a7.6 7.6 0 0 0-.4 1.5 1.9 1.9 0 0 1-2 1.9c-4.8.3-9.7 1.6-14.4.6-6.3-1.4-12.6-3.3-20.1-3.4l2.8-2.2c12.7-9.8 24.5-20.6 33.9-33.7 10.6-14.7 14.7-30.6 10.7-48.5-5.9-26.2-26.9-40.7-51.8-42h-5.4z" transform="translate(-70.5 -70.5)"/><path id="path4160" class="cls-3" d="M177 207.3a47.8 47.8 0 0 0-10.3 1c-12.1 2.5-20.1 9.7-23.9 21.5-2.6 7.8-2.8 15.9-2.1 24.1 1.7 19 13.8 30.9 32.8 32s31.6-7.6 36.4-24a45.3 45.3 0 0 0 1.7-15.1c0-1.9.1-3.8 0-5.7-.9-15.5-8.9-27.3-21.6-31.6a42.3 42.3 0 0 0-13-2.2zm6.2 21.1c4.6 9.4 5 25.3 1.8 34.1s-14.4 8.6-17.3.4a52.5 52.5 0 0 1-.2-33.5c3.4-7.5 11.7-7.5 15.7-1z" transform="translate(-70.5 -70.5)"/><path id="path4164" class="cls-3" d="M265.7 209.2h17.6c.5 27.1.1 48.4 0 74.8H267c-10.4-12.8-19.3-24.6-28.9-36.4v19.8c0 4.4.1 16.8.1 16.8s-12-.1-18.1 0v-75h18.5c8.7 11.7 18.6 24.6 26.7 34.5.1-12 .4-34.5.4-34.5z" transform="translate(-70.5 -70.5)"/><path id="path4168" class="cls-3" d="M86.5 209.3h48.4c.6 5.9 1.6 18.7 1.6 18.7-6.3-.1-24.9.3-24.9.3v14.2h21.6c-.1 6.2 0 15.8 0 15.8h-21.7V284h-25" transform="translate(-70.5 -70.5)"/><path id="path4172" class="cls-3" d="M305.4 255c-.3-9.9.4-18.5 0-27.5H289l2-18.4h56.2c-.6 5.2-1.7 13-2.5 18.4 0 0-10.5-.7-14.6 0 0 0 0 38.4.3 56.1h-25.2s.1-20.1.2-28.7" transform="translate(-70.5 -70.5)"/><g><path id="path4176" class="cls-3" d="M266 290.1h-8.4c-2 0-1.8 1.1-1.8 2.5v17.9h.2v8.4c0 2.8.1 5.6-.1 8.4s.3 4.3 3.6 3.9 7.6 1.3 9.5-.7.4-6 .6-9.1c0-1-.6-2.4 1-2.9s2.6.1 3.5 1.5a28.5 28.5 0 0 0 6.5 6.9c8.9 6.8 19 7.5 29.7 6.1 3.6-.5 4.9-1.5 4.6-5.3-.6-7.7-.4-7.5-7.8-6.6s-14.7.3-20.8-4.9c-1.3-1.1-2-1.6-.3-3.4 7.9-7.9 4.9-18.5-5.8-21.3a54.8 54.8 0 0 0-14.2-1.4zm5 8.7c2.4 0 4.9.5 5.4 3.6a9.9 9.9 0 0 1 .1 2.3c-.2 3.1-3 6.1-5.6 5.5s-.6-3.8-1.4-5.4a8.7 8.7 0 0 1 0-2.2c.4-1.3-1.3-3.7 1.6-3.8z" transform="translate(-70.5 -70.5)"/><path id="path4180" class="cls-3" d="M132.9 289c-11.9 0-20.4 9.4-19.3 23 .6 7.7 2.6 15.1 10.5 17.9a13.9 13.9 0 0 1 8.9 8.6c.3.8.9 1.5 1.3 2.3a1.9 1.9 0 0 0 2.5 1l10.6-2.6-5.9-8.6c11.1-6.8 14.7-23.2 7.6-33.9a16.2 16.2 0 0 0-9.3-6.8 25.1 25.1 0 0 0-6.9-.9zm-.2 9.2a4.6 4.6 0 0 1 4.3 2.6c1.9 3.3 2 7 2.1 9.3 0 4.2-.2 7-1.4 9.6a4.7 4.7 0 0 1-4.3 3.2 4.4 4.4 0 0 1-4.5-2.9 26.2 26.2 0 0 1-.3-18.9 4 4 0 0 1 4.2-2.9z" transform="translate(-70.5 -70.5)"/><path id="path4184" class="cls-3" d="M219.6 290.1c-2.6-.1-3.5.5-3.4 3.3.2 5.7.1 11.4.1 17.1h.1c0 3.8.1 7.6 0 11.4-.1 9.2-.2 9.2 8.8 9.2h2.7c1.7.2 2.2-.6 2.2-2.2s-.2-4.8-.1-7.2-.9-2.9 1.3-3.4 1.8 1.3 2.4 2.3a53.1 53.1 0 0 0 2.8 5c3.1 4.3 7.2 6.8 12.6 6.4 1.3-.1 3.2.6 3.4-1.4s1.2-5.9.8-9a2.3 2.3 0 0 0-1.3-.3c-3.6.1-5.4-2.2-7.2-4.8-.7-1-1.1-1.7.3-2.7 4.9-3.6 6.6-8.6 4.9-14.4s-7-7.5-12.4-8.4-12.1-.7-18-.9zm12.8 8.7c3.1 0 4.8 2.1 4.6 6.3a5.1 5.1 0 0 1-2.6 4.1c-1.2.7-2.6 1.5-3.9 1s-.6-2.2-.7-3.4a9.8 9.8 0 0 1 0-3.4c.4-1.6-1.6-4.4 1.8-4.6h.6z" transform="translate(-70.5 -70.5)"/><path id="path4188" class="cls-3" d="M191 305.3c0 3.9.1 7.9 0 11.8-.3 8.7-5.6 14.1-14.2 14.8-12.9 1-21.1-6-20.2-18.5.2-2 0-4.1 0-6.1 0-4.8.1-9.6 0-14.5-.1-2.2.7-2.9 2.8-2.8a62.4 62.4 0 0 0 8.4 0c2.6-.2 2.9 1 2.9 3.1-.2 7.1-.2 14.2-.3 21.3a20.5 20.5 0 0 0 .2 4.2c.5 2.5 2 4.1 4.7 4.2a4.8 4.8 0 0 0 5.2-3.5 17 17 0 0 0 .7-5.6c0-6.9.1-13.7 0-20.5 0-2.2.4-3.1 2.9-3.1 7.1 0 7.1-.1 7.1 6.9v8.4" transform="translate(-70.5 -70.5)"/><path id="path4192" class="cls-3" d="M319 305.4c0-3.9.2-7.9.1-11.8-.1-2.2.7-2.9 2.9-2.8 13.1.3 10.6-1.9 10.8 10.3.1 5.5.2 10.9-.1 16.4-.2 3.4 1.3 4.3 4.2 3.8a43.8 43.8 0 0 1 8.7-.7c1.7 0 2.8.3 2.1 2.4a8.3 8.3 0 0 0-.3 2.2c-.3 6-.3 6-6.1 6s-12.9-.2-19.3 0c-2.6.1-3.8-.3-3.6-3.4.5-7.4.5-14.9.6-22.3" transform="translate(-70.5 -70.5)"/><path id="path4196" class="cls-3" d="M82.5 331.9c-2.6.6-3.1-.7-2.5-3.1a33.5 33.5 0 0 0 .6-4.5c.2-1.7.4-3 2.7-3.3s4.7-2.9 5.5-5.7 1.6-7.1 2.5-10.7c2.5-9.9 8.9-15.1 18.5-15.4 2.2-.1 3 .5 2.6 2.7s-.6 4-.7 6-.3 1.8-1.7 2c-3.6.4-5.1 3.1-5.9 6.1s-1.6 7.2-2.6 10.7c-2.6 9.6-8.9 14.6-19.2 15.1" transform="translate(-70.5 -70.5)"/><path id="path4200" class="cls-3" d="M210 310.4c0 6-.1 11.9 0 17.9 0 2.2-.7 3-2.8 2.8a27.4 27.4 0 0 0-3 0c-7.8 0-7.8 0-7.8-8 0-9.8 0-19.6-.2-29.3-.1-2.8.5-3.9 3.5-3.6s7.8-1 9.9.7.2 6.4.4 9.8 0 6.6 0 9.9" transform="translate(-70.5 -70.5)"/><path id="path4204" class="cls-4" d="M294.9 303.3c0-3.4.1-6.8 0-10.3s.3-3.1 2.6-3c4.4.2 8.9.2 13.3 0s2.3 1.9 2.4 3.6.2 3.4-2.4 3.1-2.5 0-3.8 0-2.2 1.5-2.1 2.8 1.5.5 2.2.4 3.3-.5 4.4 1.3a2.5 2.5 0 0 1 0 3.2c-1.2 1.5-2.8 1.5-4.5.9s-2.2-.6-2.3 1.2-.3 2.7 1.8 2.4l3.4-.2c4.4-.1 5.6 1.8 3.9 6-.5 1.1-1.2 1.1-2.1 1.1H297c-1.6 0-2.2-.5-2.1-2.2.2-3.4 0-6.8 0-10.3h-.1" transform="translate(-70.5 -70.5)"/></g><path id="path4212" class="cls-5" d="M252.4 250.6a1.8 1.8 0 0 1-1.9 1.9 1.8 1.8 0 0 1-1.9-2 1.9 1.9 0 0 1 2-1.9 1.8 1.8 0 0 1 1.8 2" transform="translate(-70.5 -70.5)"/></svg>