<svg id="Layer_3" data-name="Layer 3" xmlns="http://www.w3.org/2000/svg" viewBox="0 0 359 359"><defs><style>.cls-1{fill:#fff}</style></defs><title>freeimages</title><path d="M0 0h359v359H0z"/><path d="M152.3 161.3h9.9v9.89h-9.9z"/><rect class="cls-1" x="65.5" y="75.6" width="228" height="228" rx="23.5" ry="23.5"/><path class="cls-1" d="M88.1 55H140v17.3H88.1z"/><rect x="214.1" y="89.6" width="61.8" height="17.3" rx="3.5" ry="3.5"/><path d="M364.5 258.6h-29.1c-11.3-10-45.1-35.8-84.9-35.8s-73.6 25.8-84.9 35.8h-29.1v8h29.1c11.3 6 45.1 35.8 84.9 35.8s73.6-29.8 84.9-35.8h29.1v-8z" transform="translate(-71 -71)"/><path class="cls-1" d="M250.5 296.5a32.1 32.1 0 1 1 32.1-32.1 32.2 32.2 0 0 1-32.1 32.1zm0-59.3a27.2 27.2 0 1 0 27.2 27.2 27.2 27.2 0 0 0-27.2-27.2z" transform="translate(-71 -71)"/><circle class="cls-1" cx="179.5" cy="193.4" r="19.8"/><circle cx="189.4" cy="183.5" r="7.4"/></svg>