<svg id="Layer_3" data-name="Layer 3" xmlns="http://www.w3.org/2000/svg" viewBox="0 0 359 357.6"><defs><style>.cls-1{fill:#333}.cls-2{fill:#fff}.cls-3{fill:#009300}</style></defs><title>freebanglafont</title><path class="cls-1" d="M0 0h359v357.59H0z"/><path class="cls-2" d="M55.5 215.9h19v-46h41v-16h-41v-26h47v-17h-66v105z"/><path class="cls-3" d="M270.2 260.6a25.2 25.2 0 0 0 9.9-8.5 22.2 22.2 0 0 0 3.6-12.7 25.4 25.4 0 0 0-3.3-13.5 24.8 24.8 0 0 0-9.3-8.8 44.9 44.9 0 0 0-14.1-4.8 102.2 102.2 0 0 0-17.7-1.4l-7.3.2-7.8.5-7.6.8-7 1.1v101.8a74.3 74.3 0 0 0 14.7 2.2c5.6.4 11.2.5 16.7.5q24.3 0 36.1-8.1t11.8-24.3q0-9.5-4.5-15.7t-14.2-9.3zm-41.7-33.4a50.8 50.8 0 0 1 5.6-.5l7.7-.2c6.9 0 12.4 1.1 16.6 3.2s6.4 5.7 6.4 10.7-2.1 9-6.2 11.1-9.8 3.1-17.1 3.1h-13v-27.4zm38.6 66.5a15.7 15.7 0 0 1-5.9 5.1 28.4 28.4 0 0 1-8.8 2.6 74.2 74.2 0 0 1-11 .8l-6.4-.2-6.6-.5v-31.9h16.3q11.5 0 18 3.5t6.5 12.4a14.1 14.1 0 0 1-2.1 8.1z" transform="translate(-71 -71.7)"/><path class="cls-2" d="M303.5 127.9v-17h-66v105h19v-46h42v-16h-42v-26h47z"/></svg>