<svg id="Layer_3" data-name="Layer 3" xmlns="http://www.w3.org/2000/svg" viewBox="0 0 360 360"><defs><style>.cls-1{fill:#fff}.cls-2{fill:#171515}.cls-3{fill:#222020}.cls-4{fill:#1d1b1b}.cls-5{fill:#1c1a1a}.cls-6{fill:#292727}.cls-7{fill:#2f2d2d}</style></defs><title>github</title><path class="cls-1" d="M0 0h360v360H0z"/><path class="cls-2" d="M277.8 319.8a128 128 0 0 0 25.7-5.3c24.4-8.1 37.5-25.5 41.3-50.4 1.8-11.8 2.3-23.6-1.2-35.3a55.4 55.4 0 0 0-11.1-20.1 4.3 4.3 0 0 1-1-4.7c3.7-11.8 2.5-23.4-1.6-34.9-.6-1.8-1.7-2.3-3.5-2.3-7.3.1-13.9 2.5-20.5 5.4a106.1 106.1 0 0 0-15.8 8.8 5.1 5.1 0 0 1-4.6.8 142.3 142.3 0 0 0-70.4 0 5.2 5.2 0 0 1-4.6-.9c-9.8-6.3-19.9-11.9-31.7-13.8l-1.4-.2c-5.5-.6-5.8-.5-7.5 4.9-3.4 10.9-4 21.9-.5 32.9a2.8 2.8 0 0 1-.5 3.2c-13.6 15.4-16 33.6-13.5 53a81.3 81.3 0 0 0 5.1 20.3c8 19.6 23.4 30 43.1 35.2a170.5 170.5 0 0 0 19 3.5 33.3 33.3 0 0 0-9 18.6c-.2 1.4-1.1 1.7-2.1 2.1-16.1 6.2-31.7 3.7-41.7-12.8-4.7-7.8-11.2-13.4-20.4-15.3a13.5 13.5 0 0 0-7.4.3c-2.3.8-2.7 2.3-1.2 4a16.7 16.7 0 0 0 3.9 3.6c8 4.8 13.2 11.9 16.6 20.3 5.7 14.2 16.8 20.2 31.3 21.3a56.3 56.3 0 0 0 17.7-1.2c2.2-.5 2.6.2 2.6 2.2 0 7.7 0 15.4.1 23.2s-4.4 11.1-11.7 8.6a145.9 145.9 0 0 1-47.2-26.4c-30.5-25.7-48.7-58.3-52.9-97.9-7.5-71.5 35.7-136.6 104.2-158.2 78.7-24.8 163.2 18.7 188.1 97.4 24.4 77.1-17.4 158.7-94.3 185.1-7.2 2.5-11.6-.7-11.6-8.3 0-12.6.1-25.2.1-37.8.1-10.6-1.8-20.5-9.9-28.9z" transform="translate(-70.5 -70.5)"/><path class="cls-3" d="M212.3 346.9a3.6 3.6 0 0 1-3.9 2.3c-1.4-.1-2.8-.6-2.4-2.3s2.2-2.3 4-2.1a2.2 2.2 0 0 1 2.3 2.1zM174.4 337.7a3.7 3.7 0 0 1 3.4 3.5c.1 1.3-.8 1.9-2.1 1.7a3.6 3.6 0 0 1-3.4-3.3c-.2-1.2.5-1.9 2.1-1.9zM197.5 346.1c1.5.1 3.2.4 3.2 2.1s-1.7 2.4-3.3 2.3-3-.5-2.9-2.3 1.7-1.9 3-2.1z" transform="translate(-70.5 -70.5)"/><path class="cls-4" d="M185.8 348.7c-1.5-.1-3.1-.5-3.5-2.5s.9-2 2.2-2 3.6.6 3.9 2.7-1.1 1.8-2.6 1.8z" transform="translate(-70.5 -70.5)"/><path class="cls-5" d="M167.2 329.3a3.4 3.4 0 0 1 2.7 3.5 1.4 1.4 0 0 1-1.8 1.6 3.2 3.2 0 0 1-2.8-3.5c-.1-1.1.6-1.7 1.9-1.6z" transform="translate(-70.5 -70.5)"/><path class="cls-6" d="M163.8 324.2c.1 1.2-.5 1.8-1.4 1.8a2.8 2.8 0 0 1-2.9-2.6c-.2-1.1.3-2 1.5-1.9a3.3 3.3 0 0 1 2.8 2.7z" transform="translate(-70.5 -70.5)"/><path class="cls-7" d="M154.9 316.4c1.2.2 2.3.7 2.4 2.1s-.9 1.3-1.8 1.2-2.1-.6-2.3-1.8.8-1.4 1.7-1.5z" transform="translate(-70.5 -70.5)"/></svg>