<svg id="Layer_3" data-name="Layer 3" xmlns="http://www.w3.org/2000/svg" viewBox="0 0 360 360"><defs><style>.cls-1{fill:#fff}.cls-2{fill:#e33629}.cls-3{fill:#f8bd00}.cls-4{fill:#587dbd}.cls-5{fill:#319f43}</style></defs><title>google</title><path class="cls-1" d="M0 0h360v360H0z"/><path class="cls-1" d="M203.6 106A153 153 0 0 0 214 398.3c25.5 6.8 52.6 6.7 78.2.8a138.1 138.1 0 0 0 62.6-32.6c18.5-17 31.7-39.4 38.7-63.5a179.7 179.7 0 0 0 3.9-81.2H253.6v59.7h83.3a71.8 71.8 0 0 1-30.6 47.2 87.4 87.4 0 0 1-33.7 13.3 99.8 99.8 0 0 1-36.5-.1 89.8 89.8 0 0 1-34-14.7 95 95 0 0 1-35.1-47 92.6 92.6 0 0 1 0-59.6 94.9 94.9 0 0 1 22.2-36.1 89.9 89.9 0 0 1 90.6-23.5 82.9 82.9 0 0 1 33 19.4l28.1-28.1c4.9-5 10.1-9.9 14.9-15a148 148 0 0 0-49.2-30.5 154.6 154.6 0 0 0-103-.8z" transform="translate(-70.5 -70.5)"/><path class="cls-2" d="M203.6 106a154.6 154.6 0 0 1 103 .9 148 148 0 0 1 49.2 30.5c-4.8 5.2-9.9 10-14.9 15l-28.1 28.1a82.9 82.9 0 0 0-33-19.4 89.9 89.9 0 0 0-90.6 23.5 94.9 94.9 0 0 0-22.2 36.1l-50.1-38.9a153.6 153.6 0 0 1 86.7-75.8z" transform="translate(-70.5 -70.5)"/><path class="cls-3" d="M103.7 220.3a152.1 152.1 0 0 1 13.3-38.4l50.1 38.9a92.6 92.6 0 0 0 0 59.6L117 319.3a153.1 153.1 0 0 1-13.3-99z" transform="translate(-70.5 -70.5)"/><path class="cls-4" d="M253.6 221.8h143.9a179.7 179.7 0 0 1-3.9 81.2c-7 24.1-20.2 46.5-38.7 63.5l-48.6-37.8a71.8 71.8 0 0 0 30.6-47.2h-83.3c-.1-19.9 0-39.8 0-59.7z" transform="translate(-70.5 -70.5)"/><path class="cls-5" d="M116.9 319.2l50.1-38.9a95 95 0 0 0 35.1 47 89.8 89.8 0 0 0 34 14.7 99.8 99.8 0 0 0 36.5.1 87.4 87.4 0 0 0 33.7-13.3l48.6 37.8a138.1 138.1 0 0 1-62.6 32.6c-25.6 5.8-52.8 6-78.2-.8a152.2 152.2 0 0 1-55.6-28 154.1 154.1 0 0 1-41.6-51.2z" transform="translate(-70.5 -70.5)"/></svg>