<svg id="Layer_3" data-name="Layer 3" xmlns="http://www.w3.org/2000/svg" viewBox="0 0 360 360"><defs><style>.cls-1{fill:#fff}.cls-2{fill:#f6981c}.cls-3{fill:#f05620}</style></defs><title>googleanalytics</title><path class="cls-1" d="M0 0h360v360H0z"/><rect class="cls-2" x="32" y="32" width="295.9" height="295.91" rx="26.1" ry="26.1"/><path class="cls-1" d="M398.5 195.5l-26.7-18a31.4 31.4 0 1 0-56.1 11.1L257.8 277a31.2 31.2 0 0 0-27.6 6.6l-38.7-22.3a31.4 31.4 0 1 0-60.1 7.8l-28.9 26.8v28.5l42.9-39.8a31.4 31.4 0 0 0 36.5-4.7l37.7 21.7a31.4 31.4 0 1 0 55.7-13.2l57.4-87.7a31.1 31.1 0 0 0 27.7-5.5l38 25.6v-25.3z" transform="translate(-70.5 -70.5)"/><path class="cls-3" d="M360.4 195.1a31.1 31.1 0 0 1-27.7 5.5l-57.4 87.7a31.4 31.4 0 1 1-55.7 13.2l-37.7-21.7a31.4 31.4 0 0 1-36.5 4.7l-42.9 39.8v47.9a26.2 26.2 0 0 0 26.1 26.1h243.7a26.2 26.2 0 0 0 26.1-26.1V220.7z" transform="translate(-70.5 -70.5)"/></svg>