<svg xmlns="http://www.w3.org/2000/svg" viewBox="0 0 360 360"><defs><style>.cls-1{isolation:isolate}.cls-2{fill:#fff}.cls-3{fill:#ff5e5e}.cls-4{opacity:.26;mix-blend-mode:multiply;fill:url(#linear-gradient)}.cls-5{opacity:.33}.cls-6{fill:#686868}</style><linearGradient id="linear-gradient" x1="171.55" y1="175.13" x2="340.02" y2="343.6" gradientUnits="userSpaceOnUse"><stop offset="0"/><stop offset="1" stop-color="#fff"/></linearGradient></defs><title>googlefonts</title><g class="cls-1"><g id="Layer_3" data-name="Layer 3"><path class="cls-2" d="M0 0h360v360H0z"/><path class="cls-3" d="M399.5 250.5a149 149 0 1 1-149-149 150 150 0 0 1 149 149z" transform="translate(-70.5 -70.5)"/><path class="cls-4" d="M397.6 274.2a149.1 149.1 0 0 1-129.7 124.3L198.4 329l-.2-152.5H300z" transform="translate(-70.5 -70.5)"/><g class="cls-5"><path class="cls-6" d="M129.1 107.9h32.4v152.7h-32.4z"/><path class="cls-6" d="M129.1 107.9h101.8v29.61H129.1zM129.1 170.7H217v27.76h-87.9z"/></g><path class="cls-2" d="M127.7 106h32.4v152.7h-32.4z"/><path class="cls-2" d="M129.1 106h100.4v29.61H129.1zM129.1 168.9h86.5v27.76h-86.5z"/></g></g></svg>