<svg id="Layer_3" data-name="Layer 3" xmlns="http://www.w3.org/2000/svg" viewBox="0 0 360 360"><defs><style>.cls-1{fill:#fff}.cls-2{fill:#0098d6}.cls-3{fill:#00a3e4}</style></defs><title>gratisography</title><path class="cls-1" d="M0 0h360v360H0z"/><circle class="cls-2" cx="180" cy="180" r="152"/><circle class="cls-3" cx="180" cy="180" r="121"/><path class="cls-2" d="M306.5 207.5c-1.2-.2-2.6.1-1.9-1.9s-.7-5.7-3.3-7.8-5.6-4.9-8.3-7.4-4.9-2.5-7.8-1.8-5.9-.3-4-4.2c2.8-5.8 4.1-12 5.5-18.1 1-4.3 2.9-8.5 1.8-13.2-.6-2.5-2-4.3-4.4-4.5s-2.5 2.4-3.1 4c-2.4 6.4-4.7 12.8-7.4 20.3-1.9-4.5-3.9-7.6-3.9-11.7s-.8-7.6-4.2-10.3a3 3 0 0 0-3.6-.6c-1.2.7-1.2 1.7-1.1 3.1.2 2.9.5 6-.2 8.7a14.4 14.4 0 0 0-.5 6.9c1.3 6.5 2.3 13 3.1 19.5.6 4.4.7 8.9-2.7 12.7s-3.1 5.7-3.6 9.1a78.9 78.9 0 0 1-3.1 15.1c-.6 1.8-1.3 3.9-3.3 4.1-4.9.5-9.4 2.2-14.1 3.4-1.5.4-3.2 1-4.7.7-5.7-1.1-11 1.1-16 2.5-7.6 2.1-14.5 6.9-20.8 11.7-9.4 7.2-15.9 16.9-21.8 27.1-2.4 4.1-4.1 8.4-4 13.5a53.3 53.3 0 0 0 3.8 17.4c.8 2.1 1.7 3.6-2 4.1s-5.4 3.5-2.4 7.4a7.5 7.5 0 0 1 .9 1.3c3.4 7.2 10.4 9.1 17.1 10 10.6 1.4 21.3-2.7 32.1-.6 6 1.2 11.9-.8 17.6-1.9 3.8-.7 7.9-.8 11.4-3 1.8-1.2 2.6-2.4.6-4.4a9.2 9.2 0 0 0-9.1-2.5c-4.6 1-9.3 2-14 2.8-1.3.2-3.1.9-3.8-1.1s.2-2.9 1.9-3.9c4.5-2.5 9-4.9 12.4-9s6.8-7.3 10.2-11c1.8-1.9 3.2-2 5.2 0 4.4 4.2 7.5 9.6 12.8 13 1.7 1.1 3.6 2 4.6 4.2 2.6 5.4 11.9 9.6 17.6 7.3 1.4-.5 3.7-.4 3.6-2.4s-2.2-2.4-3.9-2.7-5.1-.8-6.5-3.2c-4.9-8.3-9.7-16.7-14.7-25-1-1.8-.5-2.8.8-4.1 3.6-3.4 7.6-6.5 8.9-11.7s6.4-10.1 6.3-16.4 1.1-9.5 6.5-11.6a6.1 6.1 0 0 0 1.1-1.2c3.7-3 6.4-7 10.8-9.3 7-3.9 10.9-10.1 12.2-17.9.3-3.2-1.3-5-4.6-5.5zm-10.5 6.8c-1.4 2.3-6.9 6.6-8.9 6.7a5.4 5.4 0 0 1-3.9-2.1 19.7 19.7 0 0 0-5.8-5.9c-.8-.5-1.2-1-.5-1.9 3.2-3.7 6.4-7.6 11.5-8.4 2.4-.4 4.6 1.4 5.1 4.3.2 1.2.3 2.3.6 3.5s3.1 1.7 1.9 3.8z" transform="translate(-70.5 -70.5)"/></svg>