<svg id="Layer_3" data-name="Layer 3" xmlns="http://www.w3.org/2000/svg" viewBox="0 0 360 360"><defs><style>.cls-1{fill:#0068b7}.cls-2{fill:#fff}</style></defs><title>hakim</title><path class="cls-1" d="M0 0h360v360H0z"/><path class="cls-2" d="M157.3 343.2V157.8a2.1 2.1 0 0 1 2.1-2.1h27.1a2.1 2.1 0 0 1 2.1 2.1v70.5a2.1 2.1 0 0 0 2.1 2.1h57.5a2.1 2.1 0 0 0 2.1-2.1v-70.5a2.1 2.1 0 0 1 2.1-2.1h27.1a2.1 2.1 0 0 1 2.1 2.1v185.4a2.1 2.1 0 0 1-2.1 2.1h-27a2.1 2.1 0 0 1-2.1-2.1v-78.7a2.1 2.1 0 0 0-2.1-2.1h-57.6a2.1 2.1 0 0 0-2.1 2.1v78.7a2.1 2.1 0 0 1-2.1 2.1h-27.1a2.1 2.1 0 0 1-2.1-2.1zM313.9 343.2v-32.1a2.1 2.1 0 0 1 2.1-2.1h25.6a2.1 2.1 0 0 1 2.1 2.1v32.2a2.1 2.1 0 0 1-2.1 2.1H316a2.1 2.1 0 0 1-2.1-2.2z" transform="translate(-70.5 -70.5)"/></svg>