<svg id="Layer_3" data-name="Layer 3" xmlns="http://www.w3.org/2000/svg" viewBox="0 0 360 360"><defs><style>.cls-1{fill:#fff}.cls-2{fill:#27ae60}.cls-3{fill:none}</style></defs><title>heydesigner</title><path class="cls-1" d="M0 0h360v360H0z"/><rect id="path-1" class="cls-2" x="38.5" y="38.5" width="283" height="283" rx="17.7" ry="17.7"/><rect id="path-1-2" data-name="path-1" class="cls-3" x="38.5" y="38.5" width="283" height="283" rx="17.7" ry="17.7"/><path id="link-2-icon" class="cls-1" d="M280.2 220.8a8.8 8.8 0 0 1 0 12.5l-46.9 46.9a8.8 8.8 0 0 1-12.5 0 8.8 8.8 0 0 1 0-12.5l46.9-46.9a8.8 8.8 0 0 1 12.5 0zm-53.9 78.9a17.7 17.7 0 1 1-25-25l33.2-33.2a34 34 0 0 0-32.1 9l-12.7 12.7a34 34 0 0 0 48.1 48.1l12.7-12.7a34 34 0 0 0 9-32.1l-33.2 33.2zm36.9-110l-12.7 12.7a34 34 0 0 0-9 32.1l33.2-33.2a17.7 17.7 0 0 1 25 25l-33.2 33.2a34 34 0 0 0 32.1-9l12.7-12.7a34 34 0 1 0-48.1-48.1z" transform="translate(-70.5 -70.5)"/></svg>