<svg id="Layer_3" data-name="Layer 3" xmlns="http://www.w3.org/2000/svg" viewBox="0 0 360 360"><defs><style>.cls-1{fill:#fff}</style></defs><title>iconmonstr</title><path d="M0 0h360v360H0z"/><path class="cls-1" d="M308.3 96.5a57.8 57.8 0 1 0 57.7 57.7 57.8 57.8 0 0 0-57.7-57.7zm0 80.2a22.5 22.5 0 1 1 22.5-22.5 22.5 22.5 0 0 1-22.5 22.5zM237.7 314.8s32.6 39.6 51.6 63.4c15 18.7 26 26.3 44.5 26.3s32.2-13.7 32.2-29.6c0-6.9-2.4-14.2-7.6-21.1-19.5-25.3-30.9-38.9-30.9-38.9h-89.8z" transform="translate(-70.5 -70.5)"/><path class="cls-1" d="M197.4 314.7h-36.7a12.8 12.8 0 1 1 0-25.7h170.4c11.4 0 18 3.2 25.2 12.3 12.3 15.6 32.1 40.6 32.9 41.7a63.4 63.4 0 0 0 15.3-41.2 64.2 64.2 0 0 0-64.2-64.2H160.7a64.2 64.2 0 0 0 0 128.3h78.8c-14.7-18-42-51.3-42-51.3z" transform="translate(-70.5 -70.5)"/><path class="cls-1" d="M127.6 83.8l26.7 26.7-18.1 18.2-26.8-26.8-26.8 26.8-18.1-18.2 26.8-26.7L64.5 57l18.1-18.2 26.8 26.8 26.8-26.8L154.3 57l-26.7 26.8z"/></svg>