<svg id="Layer_3" data-name="Layer 3" xmlns="http://www.w3.org/2000/svg" viewBox="0 0 360 360"><defs><style>.cls-1{fill:#32c24d}.cls-2{fill:#fff}</style></defs><title>icons8</title><path class="cls-1" d="M0 0h360v360H0z"/><path class="cls-2" d="M356.5 164.4c0-22.5-17.2-39.7-39.7-39.7q-13.9 0-23.8 7.9c-9.3-13.3-25.2-21.2-42.4-21.2s-33.1 7.9-42.4 21.2q-9.9-8-23.9-7.9c-22.5 0-39.7 17.2-39.7 39.8H118v159h39.8v41.1a13.9 13.9 0 0 0-6.6 11.9c0 8 5.3 13.3 13.3 13.3 10.6 0 19.9-9.3 19.9-21.2v-45h13.3v41.1a13.9 13.9 0 0 0-6.6 11.9c0 8 5.3 13.3 13.3 13.3 10.6 0 19.9-9.3 19.9-21.2v-45h53v41.1a13.9 13.9 0 0 0-6.6 11.9c0 8 5.3 13.3 13.3 13.3 10.6 0 19.9-9.3 19.9-21.2v-45h13.3v41.1a13.9 13.9 0 0 0-6.6 11.9c0 8 5.3 13.3 13.3 13.3 10.6 0 19.9-9.3 19.9-21.2v-45H383v-159h-26.5zm0 132.5h-212v-106h212v106zm-119.2-53c0-8 5.3-13.2 13.3-13.2s13.3 5.3 13.3 13.3-5.3 13.3-13.2 13.3-13.4-5.5-13.4-13.4zm53 0c0-8 5.3-13.2 13.3-13.2s13.3 5.3 13.3 13.3-5.3 13.3-13.2 13.3-13.4-5.5-13.4-13.4zm-106 0c0-8 5.3-13.2 13.3-13.2s13.3 5.3 13.3 13.3-5.3 13.3-13.2 13.3-13.4-5.5-13.4-13.4z" transform="translate(-70.5 -70.5)"/></svg>