<svg id="Layer_3" data-name="Layer 3" xmlns="http://www.w3.org/2000/svg" viewBox="0 0 360 360"><defs><style>.cls-1{fill:#fff}</style></defs><title>iconfinder</title><path class="cls-1" d="M0 0h360v360H0z"/><path id="rect2995" d="M124.1 92.5a31.5 31.5 0 0 0-31.6 31.6v252.8a31.5 31.5 0 0 0 31.6 31.6h252.8a31.5 31.5 0 0 0 31.6-31.6V124.1a31.5 31.5 0 0 0-31.6-31.6H124.1zM250.7 124c79.2 28.9 135.8 119.2 121.2 210.5 0 0-47.3 42.6-121.2 42.6s-121.3-42.6-121.3-42.6c-14.6-91.3 42.1-181.6 121.3-210.5zm0 19.5c-47.8 19.1-83 65.4-84 118.2a84.2 84.2 0 0 0 28.9 65.8 70 70 0 0 1-32.3-29.1 69 69 0 0 1-8.6-23.3 4.9 4.9 0 0 0-.5-1.4 3 3 0 0 0-4.2-1.2 3.9 3.9 0 0 0-1.8 2.6 136.7 136.7 0 0 0-1.9 49.2c41.1 32.3 99.8 39.4 146.4 12.5a83.8 83.8 0 0 0 40.4-56.8 69.9 69.9 0 0 1-9 42.5 69.2 69.2 0 0 1-15.9 19.1 5 5 0 0 0-1 1.1 3 3 0 0 0 1 4.2 3.9 3.9 0 0 0 3.2.3 136.4 136.4 0 0 0 43.5-22.9c7.3-50.8-15-104.3-60-131.6a84.1 84.1 0 0 0-71.8-8.1 69.9 69.9 0 0 1 41.3-13.4 68.9 68.9 0 0 1 24.4 4.2l1.4.3a3 3 0 0 0 3.2-3 4 4 0 0 0-1.4-2.9 136.8 136.8 0 0 0-41.4-26.3zm0 80.4c28.7 0 54 9.8 68.4 24.6a52.8 52.8 0 0 1 1 10.4c0 33.2-31.1 60-69.4 60s-69.4-26.9-69.4-60a52.5 52.5 0 0 1 1-10.4c14.4-14.8 39.6-24.7 68.3-24.7zm0 7.3a32.9 32.9 0 0 0-12.8 2.6 13.7 13.7 0 1 1-17.5 17.5 32.9 32.9 0 1 0 30.2-20.2z" transform="translate(-70.5 -70.5)"/></svg>