<svg id="Layer_3" data-name="Layer 3" xmlns="http://www.w3.org/2000/svg" viewBox="0 0 360 360"><defs><style>.cls-1{fill:#fff}</style></defs><title>icon54</title><path class="cls-1" d="M0 0h360v360H0z"/><path d="M399.6 243.6a69.8 69.8 0 0 0-8.7-27.5 70.7 70.7 0 0 0-18.7-21.3 69.6 69.6 0 0 0-32.9-13.6c-1.4-.2-12.2-.9-18.2.3a66.3 66.3 0 0 0-15.4 5.3c-13.2 6.3-24.9 15.5-35.7 25.1-6.8 6-33.5 31.6-40.5 38-2.5 2.4-4.9 4.9-7.3 7.4s-7.6 7.3-11.6 10.7c-7.3 6.3-14.9 12.4-23.3 17.2a49.1 49.1 0 0 1-10.1 4.6 23.9 23.9 0 0 1-8 .8 40.1 40.1 0 0 1-7.3-79.1c4.2-1 8.9-1.6 13.2-.6s9 3.4 13.1 5.8c10.2 6.1 19.3 13.9 28 21.9 2.2 2 4.4 4 6.4 6.2 1.4-1.5 3-2.8 4.5-4.2l10.2-9.5 7.1-6.6c-11.2-11.2-23.1-21.8-36.3-30.4-9.5-6.1-20-11.5-31.3-13a58.3 58.3 0 0 0-16.4.5 69.5 69.5 0 0 0-16.8 4.8 70 70 0 0 0 18 133.6 57.6 57.6 0 0 0 14.7.3c11.2-1.3 21.7-6.6 31.1-12.6 13.2-8.5 25.1-19.1 36.2-30.1l6.9-7.1c4.3 4.7 9 9.2 13.7 13.6s10.1 9.2 15.5 13.5c8.6 6.9 17.9 13.3 28 17.8a55.8 55.8 0 0 0 24.5 5.3 69.8 69.8 0 0 0 27.8-6.8 70 70 0 0 0 39.6-70.3zm-30.4 15.1a40.1 40.1 0 0 1-39.3 31.9 24.1 24.1 0 0 1-9.3-2.3 72.4 72.4 0 0 1-11.2-6.2 189.4 189.4 0 0 1-24.4-19.6l-5.8-5.6-3.1-3.1a26.6 26.6 0 0 1-3-3.1c-.2-.3-.2-.2 0-.5l.6-.6 1.3-1.3 2.6-2.6 5.3-5.1a212.6 212.6 0 0 1 22.6-18.9c6.1-4.4 12.9-8.9 20.3-10.7a27.9 27.9 0 0 1 12.2.2 40.1 40.1 0 0 1 31.2 47.5z" transform="translate(-70.5 -70.5)"/></svg>