<svg id="Layer_3" data-name="Layer 3" xmlns="http://www.w3.org/2000/svg" viewBox="0 0 360 360"><defs><style>.cls-1{fill:#ed463c}.cls-2{fill:#fff}</style></defs><title>illustrio</title><path class="cls-1" d="M0 0h360v360H0z"/><g id="icon"><path id="Fill-9" class="cls-2" d="M250.5 396.5c-80.5 0-146-65.5-146-146s65.5-146 146-146 146 65.5 146 146-65.5 146-146 146zm0-262.8a116.8 116.8 0 1 0 116.8 116.8 116.9 116.9 0 0 0-116.8-116.8z" transform="translate(-70.5 -70.5)"/><path id="Fill-10" class="cls-2" d="M288.6 326.9a70 70 0 0 1-39.4 11.9 69.1 69.1 0 0 1-38.7-11.5 51.8 51.8 0 0 1-32.5 11.5c-51.9 0-63.8-51.6-63.8-95.8h7.2c0 7.1 14.1 69.3 56.6 69.3a24.8 24.8 0 0 0 12.9-3.7c-13-17.4-20.1-40.2-20.1-62.7 0-13.7 2.8-25.9 8.2-35.1 6.9-11.9 17.7-18.4 30.5-18.4s22.9 6.3 29.4 17.7c4.8 8.6 7.4 20 7.4 33.2 0 20.4-6.1 44.7-18 63.7a43.1 43.1 0 0 0 21 5.3 44.3 44.3 0 0 0 22.1-5.7c-10.6-17.5-16.4-39.9-16.4-61.5 0-13.6 2.6-25.5 7.6-34.5 6.6-11.9 17.3-18.5 30-18.5s23 6.3 29.7 17.6c5.2 8.8 7.9 20.4 7.9 33.6 0 23-7.7 46.9-21.7 65a24.4 24.4 0 0 0 13.1 4c43.1 0 59.1-53.5 59.1-64.3h7.2c0 45.2-16.6 90.8-66.3 90.8-12.7 0-23.7-4.5-33-11.9zm-79.2-108c-1.4 0-4.4 0-7.4 5.2s-4.6 12.8-4.6 21.8a84.3 84.3 0 0 0 11.3 41.6 102.7 102.7 0 0 0 10.8-44.2c0-8.5-1.4-15.7-4-20.2s-4.3-4.2-6.2-4.2zm82.9-.2c-1.4 0-4 0-6.7 4.8s-4.2 12.6-4.2 21.6a102.2 102.2 0 0 0 9.5 41.8 86.8 86.8 0 0 0 12.3-43.5c0-8.4-1.5-15.5-4.2-20.1s-4.6-4.5-6.7-4.5z" transform="translate(-70.5 -70.5)"/></g></svg>