<svg id="Layer_3" data-name="Layer 3" xmlns="http://www.w3.org/2000/svg" viewBox="0 0 360 360"><defs><style>.cls-1{fill:#32cb8f}.cls-2{fill:#fff}</style></defs><title>isorepublic</title><path class="cls-1" d="M0 0h360v360H0z"/><path class="cls-2" d="M36 85.1h28v189H36z"/><path class="cls-2" d="M229.6 179.4c4.4 0 7.2 3.6 9 8.7s2.1 12.3 2.1 18.5l27.2-2.6c0-10.5-1.5-23.1-6.9-33.4s-15.2-17-31.9-16.7c-13.1.3-22.1 6.2-28 14.4s-8.2 19.5-8.2 29.8a50.5 50.5 0 0 0 2.3 15.2 107.8 107.8 0 0 0 13.6 29.3c6.2 9.5 12.1 18.2 17.5 26 2.6 3.9 4.9 7.7 7.2 11.3 4.1 7.5 7.2 14.7 7.2 20.8 0 12.1-3.1 20.8-11.3 20.8-5.9 0-9-4.1-10.8-10.3s-2.3-13.9-2.3-21.8L189 292c0 14.1 1.3 27.8 6.9 38s15.7 17 33.4 17c15.2 0 24.7-5.7 30.6-14.4s8-20.6 8-33.2c0-10.3-3.3-20-8.2-29.6S248.4 250.5 242 241c-5.4-8-10.8-15.4-14.9-22.6s-6.9-13.9-6.9-20.3c-.1-11 2.2-18.4 9.4-18.7zM389.9 174.5a36 36 0 0 0-11-14.1c-5.1-3.9-12.1-6.4-21.3-6.4s-16.4 2.6-21.6 6.4a35.5 35.5 0 0 0-10.9 14.1 47.2 47.2 0 0 0-4.7 20.3v111.4a47.5 47.5 0 0 0 4.7 20.6 34.7 34.7 0 0 0 10.9 13.8c5.1 4.1 12.4 6.4 21.6 6.4s16.2-2.3 21.3-6.4a35.2 35.2 0 0 0 11-13.9 47.5 47.5 0 0 0 4.6-20.6V194.9a47.1 47.1 0 0 0-4.6-20.4zm-23.4 131.7c0 2.8-.1 5.1-.8 6.9-1 3.9-3.2 6.9-8.1 6.9a7.1 7.1 0 0 1-5.3-2.1c-2.6-2.8-3.7-6.4-3.7-11.8V194.9a19.7 19.7 0 0 1 1-6.9c1-3.3 3.3-6.9 8.2-6.9a7.5 7.5 0 0 1 5.4 2.1c2.6 3.1 3.4 6.7 3.4 11.8v111.2z" transform="translate(-70.5 -70.5)"/></svg>