<svg id="Layer_3" data-name="Layer 3" xmlns="http://www.w3.org/2000/svg" viewBox="0 0 360 360"><defs><style>.cls-1{fill:#fff}</style></defs><title>istock</title><path d="M0 0h360v360H0z"/><g id="istock-logo"><path class="cls-1" d="M136.7 291.9h2.2v-15.6h-2.3V274h4.9v6.9a7.1 7.1 0 0 1 5.5-2.4 8.1 8.1 0 0 1-.1 16.2 7 7 0 0 1-5.4-2.4v2.1h-4.9V292zm10.1-10.9a5.6 5.6 0 1 0 5.3 5.5 5.4 5.4 0 0 0-5.3-5.5zm11.5 15.9h2.4l1.2-3-5-12.6h-2v-2.4h6.9v2.4h-2.1l3.6 9.2 3.6-9.2h-2.1v-2.4h6.8v2.4h-2l-6.2 15.6h2.1v2.4h-7.3v-2.4zm29.5-12.8h12.4v10.2H198v-3.2a10.2 10.2 0 0 1-7.9 3.6c-6.1 0-10.4-4.8-10.4-10.7a10.5 10.5 0 0 1 10.7-10.5 9.8 9.8 0 0 1 6.2 2.1V274h2.2v5.5h-2.5a7.6 7.6 0 0 0-13.6 4.7 7.6 7.6 0 0 0 7.5 7.8 7.2 7.2 0 0 0 6.9-5.3h-9.3v-2.5zm30.4 5.3a7.9 7.9 0 0 1-7.6 5.3 8 8 0 0 1-8.1-8.1 8.1 8.1 0 1 1 16.1.1 5.8 5.8 0 0 1-.1.9h-13.1a5.2 5.2 0 0 0 5.2 4.6 5 5 0 0 0 4.6-2.8h3zm-2.4-4c-.7-2.9-2.6-4.5-5.2-4.5a5.3 5.3 0 0 0-5.2 4.5h10.4zm6.1-4.2h-2.4v-2.4h2.4V274h2.6v4.9h2.3v2.4h-2.3v10.6h2.3v2.4h-4.9v-13.1zm8.7 0h-2.4v-2.4h2.4V274h2.6v4.9h2.3v2.4h-2.3v10.6h2.3v2.4h-4.9v-13.1zm9.8 15.6h2.4l1.2-3-5-12.6h-2v-2.4h6.9v2.4h-2.1l3.6 9.2 3.7-9.2H247v-2.4h6.9v2.4h-2l-6.2 15.6h2.2v2.4h-7.3v-2.4zm21.2-5h2.3v-15.4h-2.3V274h7.4v2.4h-2.3v15.5h2.3v2.5h-7.4v-2.5zm9.6 0h2.2v-10.6h-2.2v-2.4h4.8v2.2a4.5 4.5 0 0 1 4.2-2.5 5.1 5.1 0 0 1 4.9 3.1c1.2-2.1 2.7-3.1 4.8-3.1 3.8 0 5.6 2.8 5.6 6.6v6.7h2.2v2.4h-7.1v-2.4h2.2V285c0-2.6-1.2-4-3.3-4s-3.8 1.8-3.8 5.5v5.4h2.2v2.4h-7v-2.4h2.2v-5.1c0-3.6-.4-5.7-3.4-5.7s-3.7 1.8-3.7 5.5v5.4h2.2v2.4h-7V292zm40.6.4a7.1 7.1 0 0 1-5.3 2.4 7.9 7.9 0 0 1-8.1-8.1 7.8 7.8 0 0 1 7.9-8.1 7 7 0 0 1 5.5 2.4v-2h4.8v2.4h-2.2v10.6h2.2v2.5h-4.9v-2.1zm-5.2-11.2a5.6 5.6 0 0 0 0 11.2 5.6 5.6 0 0 0 0-11.2zm15.4 14.3c.5 1.6 2 2.5 4.2 2.5a5 5 0 0 0 5.2-4.8v-.8a6.8 6.8 0 0 1-5.4 2.5 8.1 8.1 0 0 1-.1-16.2 6.8 6.8 0 0 1 5.5 2.5v-2.2h4.8v2.4H334v10.5c0 5.3-3.1 8.2-7.8 8.2s-6.2-1.6-7.2-4.8h3zm9.4-8.6a5.5 5.5 0 0 0-5.3-5.7 5.6 5.6 0 0 0 0 11.2 5.5 5.5 0 0 0 5.3-5.5zm21.4 2.8a7.9 7.9 0 0 1-7.6 5.3 8 8 0 0 1-8.1-8.1 8.1 8.1 0 1 1 16.2.1 5.5 5.5 0 0 1-.1.9H340a5.2 5.2 0 0 0 5.2 4.6 4.9 4.9 0 0 0 4.6-2.8h3zm-2.4-4c-.7-2.9-2.6-4.5-5.2-4.5a5.3 5.3 0 0 0-5.3 4.5h10.4zm4.5 4h2.6a3.1 3.1 0 0 0 3.2 3 2.3 2.3 0 0 0 2.6-2.4c0-1.7-1.2-2.3-4-2.8s-4.2-2.5-4.2-4.4 1.8-4.5 4.8-4.5a4 4 0 0 1 3.1 1.3v-.9h2.1v4.1h-2.4a2.5 2.5 0 0 0-2.7-2.2c-1.4 0-2.2.7-2.2 1.9s1.4 2 3.8 2.7 4.4 2.1 4.4 4.6-2 4.8-5.2 4.8a4.5 4.5 0 0 1-3.6-1.5v1.1h-2.4v-4.9z" transform="translate(-70.5 -70.5)"/><path id="istock-logo-mobile" class="cls-1" d="M147.8 261.7h-11.1v-41.5h11.1v41.5zm10.7-16a19.7 19.7 0 0 0 14.1 6.6c5.1 0 8.7-3.2 8.7-7.5 0-7.7-11.1-8.6-19.2-13.3-4.7-2.7-8.5-6.8-8.5-13.6 0-10.7 9.8-16.9 19.8-16.9a27.8 27.8 0 0 1 17.4 5.6l-6 8.6a16.1 16.1 0 0 0-10.4-3.9c-4.4 0-9.2 1.9-9.2 6.5 0 9.7 27.6 6.7 27.6 26.9 0 10.6-9.5 18-20.3 18-8 0-15.5-3.3-21.6-9zm69 16a27.6 27.6 0 0 1-6.9.8c-6.7 0-11.5-2.2-14.4-6s-3.1-6.5-3.1-12.4v-14.5h-11.6v-9.4h11.6v-11.5h11.1v11.6h13.7v9.4h-13.7v15.8c0 2.6.4 4.1 1.4 5.2s2.9 2.1 5.6 2.1a26.8 26.8 0 0 0 4.5-.4zm24.7-42.4c12.6 0 22.1 9.7 22.1 21.7s-9.5 21.6-22.1 21.6S230 253 230 241s9.6-21.6 22.1-21.6zm0 32.9c6.5 0 10.9-5 10.9-11.3s-4.4-11.4-10.9-11.4-11 5.1-11 11.4 4.4 11.4 10.9 11.4zm66 .9c-4.9 6.5-11 9.3-18.8 9.3-12.8 0-22.3-9.6-22.3-21.6s9.7-21.7 22.3-21.7a22.2 22.2 0 0 1 17.5 8.3l-7.9 6.9a12 12 0 0 0-9.6-5 11.1 11.1 0 0 0-11.2 11.7c0 6.5 4.7 11.3 11.5 11.3a12.2 12.2 0 0 0 9.9-5.5zm25-14.4l22.8 23h-15l-17.5-18v18h-11.1v-59.9h11.1v31.8l14.3-13.4h15.7zM135 208.2a7.3 7.3 0 1 1 7.3 7.3 7.3 7.3 0 0 1-7.3-7.3z" transform="translate(-70.5 -70.5)"/></g></svg>