<svg id="Layer_3" data-name="Layer 3" xmlns="http://www.w3.org/2000/svg" viewBox="0 0 360 360"><defs><style>.cls-1{fill:#f0f0e8}.cls-2{fill:#f14e32}</style></defs><title>jcarousel</title><path class="cls-1" d="M0 0h360v360H0z"/><path class="cls-2" d="M140.5 224.6h16v87.5c0 6.6-1.4 11.9-4 15.9s-6.5 6-11.7 6.3l.4 24.7a69.2 69.2 0 0 0 20.7-2.8 37.4 37.4 0 0 0 15.2-8.8 38.3 38.3 0 0 0 9.3-15.3c2.1-6.2 3.1-13.6 3.1-22.2V194.6h-49v30zM187.4 144.8a20.3 20.3 0 0 0-6.2-4.1 18.7 18.7 0 0 0-7.5-1.5 19.2 19.2 0 0 0-7.7 1.5 19.6 19.6 0 0 0-6.2 4.1 18.8 18.8 0 0 0-4.1 6.2 20.2 20.2 0 0 0 0 15.1 18.8 18.8 0 0 0 4.1 6.2 19.5 19.5 0 0 0 6.2 4.1 19.2 19.2 0 0 0 7.7 1.5 18.7 18.7 0 0 0 7.5-1.5 20.2 20.2 0 0 0 6.2-4.1 19.9 19.9 0 0 0 4.3-6.2 18.9 18.9 0 0 0 0-15.1 19.9 19.9 0 0 0-4.3-6.2zM325.4 251.2a39.4 39.4 0 0 1-5.4 9.4 42.4 42.4 0 0 1-8.1 8 40.9 40.9 0 0 1-10.3 5.6 34.5 34.5 0 0 1-12.2 2.1 36.7 36.7 0 0 1-17.2-4.1 42.6 42.6 0 0 1-13.5-11.1 52.9 52.9 0 0 1-8.9-16.3 60.5 60.5 0 0 1-3.2-19.9 59.3 59.3 0 0 1 3.3-19.8 53.9 53.9 0 0 1 9-16.3 42.9 42.9 0 0 1 13.6-11.1 36.3 36.3 0 0 1 17-4.1 44.1 44.1 0 0 1 11.9 1.6 31.6 31.6 0 0 1 10.6 5.1c3.3 2.4 6.9 6.2 11 12.2h33.7v-37H332c-7.3-6-14.1-10.7-20.2-12.9s-13.6-3.2-22.6-3.2a74 74 0 0 0-31.3 6.8 80 80 0 0 0-25.3 18.3 86.8 86.8 0 0 0-17 27.2 88.9 88.9 0 0 0-6.2 33.3 91.4 91.4 0 0 0 10.8 43.3 84.2 84.2 0 0 0 12.4 17.4 78.7 78.7 0 0 0 16.1 13.4 77.6 77.6 0 0 0 19.1 8.6 74.8 74.8 0 0 0 21.5 3.1 78.3 78.3 0 0 0 24.8-3.8 76 76 0 0 0 20.7-10.5 68.9 68.9 0 0 0 15.7-15.7 69.7 69.7 0 0 0 9.9-19.8z" transform="translate(-70.5 -69.1)"/></svg>