<svg id="Layer_3" data-name="Layer 3" xmlns="http://www.w3.org/2000/svg" viewBox="0 0 174.6 312"><defs><style>.cls-1{opacity:.1}.cls-1,.cls-5,.cls-6{isolation:isolate}.cls-2{fill:url(#linear-gradient)}.cls-3{fill:url(#linear-gradient-2)}.cls-4{fill:#333}.cls-5,.cls-6{fill:#fff}.cls-5{opacity:.3}.cls-6{opacity:.5}</style><linearGradient id="linear-gradient" x1="206.22" y1="300.02" x2="264.57" y2="241.68" gradientTransform="scale(1 -1) rotate(24.3 1456.579 23.24)" gradientUnits="userSpaceOnUse"><stop offset="0" stop-color="#919191"/><stop offset="1" stop-color="#fff"/></linearGradient><linearGradient id="linear-gradient-2" x1="184.28" y1="255.52" x2="219.61" y2="220.19" gradientTransform="scale(1 -1) rotate(24.3 1456.579 23.24)" gradientUnits="userSpaceOnUse"><stop offset="0" stop-color="#900"/><stop offset="1" stop-color="#e80000"/></linearGradient></defs><title>jekyllrb</title><g id="test-tube"><path id="shadow" class="cls-1" d="M260.4 100.7a4.2 4.2 0 0 0 0 1.8s1.9 12.7-.3 18.3L168 360.2a34.3 34.3 0 0 0 64 24.6l92.1-239.4c1.8-4.7 12.1-13.8 12.1-13.8a4.2 4.2 0 0 0 1.2-1.4v-.3c2.4-6.2-12.9-17.8-34.2-26s-40.4-9.8-42.8-3.6v.3z" transform="translate(-163.2 -94.5)"/><path id="tube" class="cls-2" d="M257.7 98.7a4.2 4.2 0 0 0 0 1.8s1.9 12.7-.3 18.3l-92 239.4a34.3 34.3 0 0 0 64 24.6l92.1-239.4c1.8-4.7 12.1-13.8 12.1-13.8a4.2 4.2 0 0 0 1.2-1.4v-.3c2.4-6.2-12.9-17.8-34.2-26s-40.4-9.8-42.8-3.6v.3z" transform="translate(-163.2 -94.5)"/><path id="liquid" class="cls-3" d="M286.6 207l-66.4 172.6a24.8 24.8 0 0 1-31.8 14c-12.6-4.9-19.5-19.4-14.8-31.9L216 251.4a49 49 0 0 1 15.7-14.6c10.4-6.1 19-4.8 30.5-9.9s24.4-19.9 24.4-19.9z" transform="translate(-163.2 -94.5)"/><ellipse id="top" class="cls-4" cx="296.1" cy="113.7" rx="6.7" ry="25.6" transform="rotate(-69 145.618 185.237)"/><path id="side-reflection" class="cls-5" d="M257.7 100.5s1.9 12.7-.3 18.3l-92 239.4a34.3 34.3 0 0 0 29.1 46.1A34.3 34.3 0 0 1 183 365l90.3-234.7a58.2 58.2 0 0 1-15.6-29.8z" transform="translate(-163.2 -94.5)"/><g id="bubbles"><circle class="cls-6" cx="64.9" cy="160.4" r="2.7"/><circle class="cls-6" cx="82.4" cy="179.8" r="4"/><circle class="cls-6" cx="55.7" cy="202.8" r="7.5"/><circle class="cls-6" cx="43.4" cy="216.7" r="4"/><circle class="cls-6" cx="59.5" cy="246.6" r="2.7"/></g></g></svg>