<svg id="Layer_3" data-name="Layer 3" xmlns="http://www.w3.org/2000/svg" viewBox="0 0 360 360"><defs><style>.cls-1,.cls-6,.cls-7{fill:#fff}.cls-2{opacity:.1}.cls-2,.cls-6,.cls-7{isolation:isolate}.cls-3{fill:url(#linear-gradient)}.cls-4{fill:url(#linear-gradient-2)}.cls-5{fill:#333}.cls-6{opacity:.3}.cls-7{opacity:.5}</style><linearGradient id="linear-gradient" x1="207.48" y1="298.96" x2="263.82" y2="242.62" gradientTransform="scale(1 -1) rotate(24.3 1456.579 23.24)" gradientUnits="userSpaceOnUse"><stop offset="0" stop-color="#919191"/><stop offset="1" stop-color="#fff"/></linearGradient><linearGradient id="linear-gradient-2" x1="186.3" y1="255.99" x2="220.41" y2="221.88" gradientTransform="scale(1 -1) rotate(24.3 1456.579 23.24)" gradientUnits="userSpaceOnUse"><stop offset="0" stop-color="#900"/><stop offset="1" stop-color="#e80000"/></linearGradient></defs><title>jekyllrb</title><path class="cls-1" d="M0 0h360v360H0z"/><g id="test-tube"><path id="shadow" class="cls-2" d="M260.1 105.9a4.1 4.1 0 0 0 0 1.7s1.8 12.2-.2 17.7l-89 231.2a33.1 33.1 0 0 0 61.8 23.8L321.6 149c1.7-4.5 11.7-13.3 11.7-13.3a4.1 4.1 0 0 0 1.1-1.3v-.4c2.3-6-12.5-17.2-33-25.1s-39-9.5-41.3-3.5v.3z" transform="translate(-70.5 -70.5)"/><path id="tube" class="cls-3" d="M257.5 103.9a4 4 0 0 0 0 1.7s1.8 12.2-.2 17.7l-89 231.2a33.1 33.1 0 0 0 61.8 23.8L319 147.1c1.7-4.5 11.7-13.3 11.7-13.3a4.1 4.1 0 0 0 1.1-1.3v-.3c2.3-6-12.5-17.2-33-25.1s-39-9.5-41.3-3.5v.3z" transform="translate(-70.5 -70.5)"/><path id="liquid" class="cls-4" d="M285.4 208.5l-64.1 166.7a24 24 0 0 1-30.7 13.5c-12.2-4.7-18.8-18.7-14.3-30.8l41-106.5a47.3 47.3 0 0 1 15.2-14.1c10-5.9 18.3-4.6 29.5-9.6s23.4-19.2 23.4-19.2z" transform="translate(-70.5 -70.5)"/><ellipse id="top" class="cls-5" cx="294.6" cy="118.4" rx="6.5" ry="24.7" transform="rotate(-69 207.82 134.475)"/><path id="side-reflection" class="cls-6" d="M257.5 105.6s1.8 12.3-.2 17.7l-89 231.2a33.1 33.1 0 0 0 28.1 44.5 33.1 33.1 0 0 1-11.1-38l87.2-226.6a56.2 56.2 0 0 1-15-28.8z" transform="translate(-70.5 -70.5)"/><g id="bubbles"><circle class="cls-7" cx="158.3" cy="184.3" r="2.6"/><circle class="cls-7" cx="175.2" cy="202.9" r="3.9"/><circle class="cls-7" cx="149.5" cy="225.2" r="7.3"/><circle class="cls-7" cx="137.7" cy="238.6" r="3.9"/><circle class="cls-7" cx="153.1" cy="267.4" r="2.6"/></g></g></svg>