<svg id="Layer_3" data-name="Layer 3" xmlns="http://www.w3.org/2000/svg" viewBox="0 0 360 360"><defs><style>.cls-1{fill:#fff}.cls-2{fill:#dc005a}.cls-3{fill:#7a4b94}</style></defs><title>jqueryrain</title><path class="cls-1" d="M0 0h360v360H0z"/><path class="cls-2" d="M114.2 57.2L90.8 33 67.6 57.2l23.2 24.5 23.4-24.5z"/><path class="cls-2" d="M143.5 318.5c0 8.1-.2 15.6-.6 22.3a125.6 125.6 0 0 1-2.4 18.4 79.7 79.7 0 0 1-4.8 15.3 55.5 55.5 0 0 1-8.1 13.1l10.5 9.9a112.7 112.7 0 0 0 19-17.8 91 91 0 0 0 13.2-21.1 109.5 109.5 0 0 0 7.7-25.5 175.7 175.7 0 0 0 2.5-31.1V176.6h-37v141.9z" transform="translate(-70.5 -70.5)"/><path class="cls-3" d="M371.5 285.6a26.8 26.8 0 0 1-16.5-5.7 78.7 78.7 0 0 1-15.2-15.6 206.9 206.9 0 0 1-15-23.2q-7.5-13.3-15.7-28.2a74.5 74.5 0 0 0 13.3-7.8 50.5 50.5 0 0 0 11.2-11.4 57.3 57.3 0 0 0 7.8-15.8 69 69 0 0 0 3-21.3q0-27.4-17.4-40.3t-51-12.8c-8.7 0-18 .2-27.6.6s-17.9.9-25.9 1.5v194h39v-80H273l10.3 20.4a361 361 0 0 0 18.2 33q7.8 12.2 15.1 18.5a36.1 36.1 0 0 0 15 8.2 75.9 75.9 0 0 0 18 1.9 85.7 85.7 0 0 0 13.3-1c3.9-.6 6.6-1.4 10.6-2.4v-12.6h-2zm-67-111.9a42.9 42.9 0 0 1-2.7 9.7 22.9 22.9 0 0 1-3.8 6.1 25.6 25.6 0 0 1-4.2 3.8c-2.8 2-6.6 3.3-11.5 4.6a56.3 56.3 0 0 1-15.1 1.7h-5.6v-75.3a22.9 22.9 0 0 1 4.6-.5h4.8a55.8 55.8 0 0 1 14.8 1.8 25.6 25.6 0 0 1 10.9 5.9 25.1 25.1 0 0 1 6.6 10.9 54.1 54.1 0 0 1 2.2 16.7 86 86 0 0 1-1.1 14.6z" transform="translate(-70.5 -70.5)"/></svg>