<svg id="Layer_3" data-name="Layer 3" xmlns="http://www.w3.org/2000/svg" viewBox="0 0 360 360"><defs><style>.cls-1{fill:#0769ad}.cls-2{fill:#78cff5}.cls-3{fill:#fff}</style></defs><title>jquery</title><path class="cls-1" d="M0 0h360v360H0z"/><path class="cls-2" d="M174.8 140.8c-15.4 22.1-13.5 50.8-1.7 74.2l.9 1.7.6 1.1.3.6.6 1.1 1.1 1.9.7 1.1 1.3 2 .6.9 1.9 2.7.3.4 1.7 2.3.6.8 1.6 2 .6.7 2.2 2.5h.1l2.2 2.4.7.7 1.8 1.8.7.7 2.5 2.2.4.4 2.2 1.9.9.7 1.9 1.5 1 .8 2.1 1.5.8.5.2.2 2 1.3.9.6 3.2 2 .9.5 2.4 1.3 1.3.7 1.7.9.4.2.7.3 2.7 1.3.6.3 3.2 1.3.8.3 3 1.1h.4l3.3 1.1.8.2a33.3 33.3 0 0 0 3.4 1C311.5 280.2 333 222 333 222c-18.1 23.6-50.3 29.8-80.8 22.9l-3.4-1-.8-.3-3.3-1.1-.5-.2-2.9-1.1-.8-.3-3.1-1.3-.6-.3-2.6-1.2-.8-.4-2-1-1.4-.7-2.5-1.4-.8-.5-3.2-1.9-.9-.6-2.3-1.5-.7-.5-2.1-1.5-.9-.7-1.9-1.5-.8-.7-2.4-2-.3-.2-2.5-2.3-.7-.7-1.8-1.8-.7-.7-2.2-2.4h-.1l-2.3-2.6-.6-.7-1.6-2-.6-.8-1.9-2.5c-16.9-23.1-23-54.9-9.5-81" transform="translate(-70.5 -70.5)"/><path class="cls-2" d="M222.5 122.2c-11.1 16-10.5 37.4-1.9 54.3a66.3 66.3 0 0 0 4.9 8.2c1.7 2.4 3.5 5.2 5.7 7.1l2.5 2.6.7.6 2.5 2.4h.1l3 2.5.7.5 3.1 2.3h.1l1.4.9.7.4 2.3 1.4.3.2 2 1.1.7.4 1.4.7h.3l3 1.4.7.3 2.4 1 1 .4 2.2.8 1 .3a22.3 22.3 0 0 0 3.2.9c57.3 9.5 70.6-34.6 70.6-34.6-11.9 17.2-35.1 25.4-59.7 19l-3.2-.9-1-.3-2.3-.8-1-.4-2.4-1-.7-.3-3-1.4-1.5-.8-.9-.4-1.9-1.1-.5-.2-2.3-1.4-.7-.5-1.5-1-3.1-2.3-.7-.6c-10.8-8.5-19.4-20.2-23.4-33.4s-3.3-29.1 4-41.6" transform="translate(-70.5 -70.5)"/><path class="cls-2" d="M262.6 108.3c-6.6 9.6-7.2 21.6-2.7 32.2a45.5 45.5 0 0 0 26.1 24.4l1.4.5.6.2 2 .6c31.7 6.1 40.2-16.2 42.6-19.5-7.5 10.8-20.2 13.4-35.7 9.7l-3.7-1.2-4.5-1.8a46.9 46.9 0 0 1-7.8-4.8c-13.9-10.5-22.5-30.6-13.4-47" transform="translate(-70.5 -70.5)"/><g><path class="cls-3" d="M185.9 353.7c0 .7-.1 1.3-.2 2.1l2.7-4.9-.3-1.6 2.7-.4 1 6.8 1.2-4.2a5.2 5.2 0 0 0 .2-1 4 4 0 0 0-.1-1.1l2.8-.5a7.4 7.4 0 0 1 .2 1.6 7 7 0 0 1-.7 2.5l-2.3 6.1h-3.4l-.7-4.6-2.6 4.6h-3.3a66 66 0 0 0-.3-9.7l2.8-.4a27.6 27.6 0 0 1 .3 4.7zM203.4 351.3l-3 1.7-1.3 5.9h-2.9l2.1-9.8 2.6-.4v1.4l2.7-1.4v2.6zM205.2 349.1l3-.4L206 359h-2.9zm.9-4.4l3-.4-.7 3.1-3 .4zM213.5 351.2l-1.1 5v.3c0 .1.1.2.3.2a4.7 4.7 0 0 0 1.6-.4l.5 2a7.2 7.2 0 0 1-3.2.8c-1.5 0-2.2-.7-2.2-1.9a3.2 3.2 0 0 1 .1-.4l1.2-5.6h-1.5l.5-2.3h1.5l.5-2.4 3-.4-.6 2.8h2.4l-.7 2.3h-2.2zM217 352.5c.5-2.3 1.6-3.8 4.8-3.8s3.3.8 3.3 2.5-1.1 2.9-3.6 3.6l-2.1.6v.7c-.1.4 0 .7.5.7a11.7 11.7 0 0 0 4-1.1l.5 2.1a10.2 10.2 0 0 1-5 1.4c-2.1 0-2.9-.9-2.9-2.6a6.7 6.7 0 0 1 .2-1.2zm5.3-1c0-.4-.3-.6-.8-.6a1.5 1.5 0 0 0-1.6 1.4v.7l1.3-.4a1.3 1.3 0 0 0 1.1-1.1zM232.5 344.8l3-.4-3 14.6h-2.9zM235.9 352.5c.5-2.3 1.6-3.8 4.8-3.8s3.3.8 3.3 2.5-1.1 2.9-3.6 3.6l-2.1.6v.7c-.1.4 0 .7.5.7a11.7 11.7 0 0 0 4-1.1l.5 2.1a10.2 10.2 0 0 1-5 1.4c-2.1 0-2.9-.9-2.9-2.6a6.7 6.7 0 0 1 .2-1.2zm5.3-1c0-.4-.3-.6-.8-.6a1.5 1.5 0 0 0-1.6 1.4v.7l1.3-.4a1.3 1.3 0 0 0 1.1-1.1zM244.2 358.5l.6-2.1a7.7 7.7 0 0 0 2.7.5c1 0 1-.3 1.1-.8s-.2-.7-1.3-1.3-2.1-1.9-1.8-3.4 1.1-2.7 3.9-2.7a10.7 10.7 0 0 1 3 .5l-.6 2.2a10.9 10.9 0 0 0-2.5-.4c-.9 0-1 .1-1.1.6s0 .6 1 1.1 2.6 1.7 2.3 3.3-1.2 3.2-4.2 3.2a8.5 8.5 0 0 1-3.1-.7zM252.5 358.5l.6-2.1a7.7 7.7 0 0 0 2.7.5c1 0 1-.3 1.1-.8s-.2-.7-1.3-1.3-2.1-1.9-1.8-3.4 1.1-2.7 3.9-2.7a10.7 10.7 0 0 1 3 .5l-.6 2.2a10.9 10.9 0 0 0-2.5-.4c-.9 0-1 .1-1.1.6s0 .6 1 1.1 2.6 1.7 2.3 3.3-1.2 3.2-4.2 3.2a8.5 8.5 0 0 1-3.1-.7zM260.5 361.2l1.7-2.3h-1.1l.7-3.4h2.9l-.8 3.7-2.4 2.9zM276.5 359v-.9a5 5 0 0 1-3.2 1.1c-2.2 0-2.7-1.3-2.2-3.6l.6-2.7c.5-2.4 1.2-4.2 5.4-4.2h1.2l.8-4 3-.4-3.2 14.7h-2.5zm-2.7-3c-.1.5 0 .8.5.8a3.6 3.6 0 0 0 2.4-1l.9-4.5h-1.1a1.9 1.9 0 0 0-2.1 1.8zM281.6 355.8a4.1 4.1 0 0 1 .1-.7l.5-2.3c.5-2.6 1.9-4.1 5.4-4.1s3.9 1.5 3.8 3.3a4.6 4.6 0 0 1-.1.7l-.5 2.3c-.5 2.4-1.7 4.1-5.4 4.1s-3.8-1.5-3.8-3.3zm6.8-3.5c0-.7-.4-1.1-1.4-1.1a1.8 1.8 0 0 0-2 1.5l-.5 2.5v.4c0 .7.4 1.1 1.4 1.1a1.8 1.8 0 0 0 2-1.6l.5-2.5v-.4zM309.2 352.1v-.3c0-.2-.1-.3-.4-.3a8.7 8.7 0 0 0-2.7 1l-1.4 6.5h-2.9l1.4-6.8v-.3c0-.2-.1-.3-.4-.3a8.7 8.7 0 0 0-2.6 1L299 359h-2.9l2.1-9.8 2.6-.4v1.1a9.7 9.7 0 0 1 4-1.1 1.5 1.5 0 0 1 1.7 1.2 8.2 8.2 0 0 1 4.1-1.2c1.3 0 1.8.8 1.8 2a6 6 0 0 1-.1 1.2l-1.5 7.1h-2.9zM313.3 355.8a4.1 4.1 0 0 1 .1-.7l.5-2.3c.5-2.6 1.9-4.1 5.4-4.1s3.9 1.5 3.8 3.3a4.6 4.6 0 0 1-.1.7l-.5 2.3c-.5 2.4-1.7 4.1-5.4 4.1s-3.9-1.5-3.8-3.3zm6.8-3.5c0-.7-.4-1.1-1.4-1.1a1.8 1.8 0 0 0-2 1.5l-.5 2.5v.4c0 .7.4 1.1 1.4 1.1a1.8 1.8 0 0 0 2-1.6l.5-2.5v-.4zM330.8 351.3l-3 1.7-1.3 5.9h-2.9l2.1-9.8 2.6-.4v1.4l2.7-1.4v2.6zM331.4 352.5c.5-2.3 1.6-3.8 4.8-3.8s3.3.8 3.3 2.5-1.1 2.9-3.6 3.6l-2.1.6v.7c-.1.4 0 .7.5.7a11.7 11.7 0 0 0 4-1.1l.5 2.1a10.2 10.2 0 0 1-5 1.4c-2.1 0-2.9-.9-2.9-2.6a6.7 6.7 0 0 1 .2-1.2zm5.3-1c0-.4-.3-.6-.8-.6a1.5 1.5 0 0 0-1.6 1.4v.7l1.3-.4a1.3 1.3 0 0 0 1.1-1.1zM340.6 355.5h2.9l-.7 3.4h-2.9zM337 304.2l.4 1.7a.7.7 0 0 1-.7.9M304.9 301.3l-.3 1.4-3.5 16.4 3.7-17.3v-.6z" transform="translate(-70.5 -70.5)"/><path class="cls-3" d="M129.2 241.8l-2 6.9 2-6.9z"/><path class="cls-3" d="M337.4 305.9l-1-4.3c-.8-3.1-3.1-4.6-8.1-4.6h-21.5a1 1 0 0 0-1.1.7l-8.1 38.5a2.7 2.7 0 0 0-.1 1.1c.1.2 1 .2 1.5.2h9.1a2.3 2.3 0 0 0 .5-1.3l2.6-13.5 3.2-15a1.2 1.2 0 0 1 1.1-.9h21.2a.7.7 0 0 0 .7-.9" transform="translate(-70.5 -70.5)"/><path class="cls-3" d="M367.5 290.3h-9.4a2.1 2.1 0 0 0-1.4.9l-16.5 24.3c-.3.4-.6.4-.7-.1l-1.2-5.3a1.2 1.2 0 0 0-1.1-.9h-10.6a.7.7 0 0 0-.7.9l4.8 16.7a3.9 3.9 0 0 1 0 1.7l-2.2 8.4c-.1.5.2.6.7.6h10.5a1 1 0 0 0 1.1-.6l2.2-8.6a5.1 5.1 0 0 1 .8-1.5l26.9-35.7c.3-.4.3-.9-.2-.9h-2.9zM257.1 297h-9.6a1 1 0 0 0-1.1.7l-3.2 14.8-3.2 14.2c-.1.5-.6.4-1.1.4h-6.3c-6.2 0-5.5-3.9-4.2-9.8l4-19.6c.1-.5-.2-.7-.7-.7h-9.1a1 1 0 0 0-1.1.7l-3.5 19.6c-1.8 10.6-1.9 19.9 10.4 20.2h19.4a1 1 0 0 0 1.1-.6l4.2-19.6 4.1-19.7s.1-.6-.1-.6zM161.8 297h-10.2a1 1 0 0 0-1.1.6l-1.9 8a.7.7 0 0 0 .7.9h9.8a1.2 1.2 0 0 0 1.1-.9l1.8-8.1s.2-.5-.2-.5zM148.6 309.2a1.2 1.2 0 0 0-1.1.9l-1.4 6.1-3.1 14.1s-1.6 7.5-1.8 8-1.4 5.4-4.7 5.2a29.6 29.6 0 0 1-3.3-.5c-.9-.3-1 .7-1.1 1.2l-2 8.8a.7.7 0 0 0 .7.9 67.2 67.2 0 0 0 7.5.6h.5c7.7 0 11.8-4.5 14.4-16.8l3-14.2 2.9-13.2a.7.7 0 0 0-.7-.9M281.3 297c-17.3 0-21.4 10.7-23.7 21.2s-2.1 19.3 15.8 19.3h16.3a1.2 1.2 0 0 0 1.1-.9l1.8-6.8c.1-.5-.2-.6-.7-.6h-16.1c-5.8 0-7.9-1.8-7.7-5.8 0-.5.5-1.6 1-1.6h24.7c1.1 0 1.1-.6 1.1-.6 2.5-11.4 2.7-24.1-13.6-24.1m4.5 16.9c0 .5-1.7.4-1.7.4h-13.4c-.5 0-.6-.7-.6-1.1a5.8 5.8 0 0 1 .1-.7c1-3.6 4.1-5.7 9.1-5.7s6.7 2.7 6.7 5.8M206.8 326.4s4.8-11.7 5.9-18.5c1.5-9.1-3-22.3-20.6-22.3s-25 12.6-27.9 26.2.9 25.8 18.3 25.7H209a1.2 1.2 0 0 0 1.1-.9l2.2-8.5a.7.7 0 0 0-.7-.9h-4.3a.5.5 0 0 1-.6-.6v-.2m-9.1-7.2l-2 6.8a1.3 1.3 0 0 1-1.2.8h-10.2c-7.8 0-9.7-6-7.8-15s5.7-14.9 13.3-15.4c10.5-.8 12.6 6.6 10.1 15.1z" transform="translate(-70.5 -70.5)"/></g></svg>