<svg id="Layer_3" data-name="Layer 3" xmlns="http://www.w3.org/2000/svg" viewBox="0 0 360 360"><defs><style>.cls-1{fill:#fff}.cls-2{fill:#5dc0c0}</style></defs><title>kinstapagespeed</title><path class="cls-1" d="M0 0h360v360H0z"/><path id="_Path_" data-name="&lt;Path&gt;" class="cls-2" d="M338.5 391.4h-176a32.1 32.1 0 0 1-32-32V141.6a32.1 32.1 0 0 1 32-32h176a32.1 32.1 0 0 1 32 32v217.8a32.1 32.1 0 0 1-32 32z" transform="translate(-70.5 -70.5)"/><path id="_Path_2" data-name="&lt;Path&gt;" class="cls-1" d="M339.8 383.7H161.2a22.5 22.5 0 0 1-22.4-22.4V139.7a22.5 22.5 0 0 1 22.4-22.4h178.6a22.5 22.5 0 0 1 22.4 22.4v221.6a22.5 22.5 0 0 1-22.4 22.4z" transform="translate(-70.5 -70.5)"/><path id="_Path_3" data-name="&lt;Path&gt;" class="cls-2" d="M338.5 180.4h-176a9.6 9.6 0 0 1-9.6-9.6v-32.6a9.6 9.6 0 0 1 9.6-9.6h176a9.6 9.6 0 0 1 9.6 9.6v32.7a9.6 9.6 0 0 1-9.6 9.6z" transform="translate(-70.5 -70.5)"/><circle id="_Path_4" data-name="&lt;Path&gt;" class="cls-1" cx="254" cy="84.9" r="10.2"/><path id="_Path_5" data-name="&lt;Path&gt;" class="cls-2" d="M338.5 244.3h-176a9.6 9.6 0 0 1-9.6-9.6V202a9.6 9.6 0 0 1 9.6-9.6h176a9.6 9.6 0 0 1 9.6 9.6v32.7a9.6 9.6 0 0 1-9.6 9.6z" transform="translate(-70.5 -70.5)"/><circle id="_Path_6" data-name="&lt;Path&gt;" class="cls-1" cx="254" cy="148.8" r="10.2"/><path id="_Path_7" data-name="&lt;Path&gt;" class="cls-2" d="M338.5 308.3h-176a9.6 9.6 0 0 1-9.6-9.6V266a9.6 9.6 0 0 1 9.6-9.6h176a9.6 9.6 0 0 1 9.6 9.6v32.7a9.6 9.6 0 0 1-9.6 9.6z" transform="translate(-70.5 -70.5)"/><circle id="_Path_8" data-name="&lt;Path&gt;" class="cls-1" cx="254" cy="212.7" r="10.2"/><path id="_Path_9" data-name="&lt;Path&gt;" class="cls-2" d="M338.5 372.4h-176a9.6 9.6 0 0 1-9.6-9.6v-32.6a9.6 9.6 0 0 1 9.6-9.6h176a9.6 9.6 0 0 1 9.6 9.6v32.7a9.6 9.6 0 0 1-9.6 9.6z" transform="translate(-70.5 -70.5)"/><circle id="_Path_10" data-name="&lt;Path&gt;" class="cls-1" cx="254" cy="276.9" r="10.2"/></svg>