<svg id="Layer_3" data-name="Layer 3" xmlns="http://www.w3.org/2000/svg" viewBox="0 0 360 360"><defs><style>.cls-1{fill:#3c3c3c}.cls-2{fill:#fff}</style></defs><title>kramdown</title><path class="cls-1" d="M0 0h360v360H0z"/><path class="cls-2" d="M93.4 115.1H71.2L51 142.8V94.1H31v80h20v-17.5l5-7.5 16.6 25h22.3l-23-33.6 21.5-25.4z"/><path class="cls-2" d="M214.1 186.7a26.7 26.7 0 0 0-9.1 1.8 38.3 38.3 0 0 0-11.5 7.2v-10.1h-20v59h20v-37.9a36.6 36.6 0 0 1 7.2-1.8 46.7 46.7 0 0 1 7.5-.5c1.2 0 2.8-.7 4.6-.6a29.3 29.3 0 0 0 4.1-.2h-.4v-16.7l-1.2-.2h-1.2zM278.4 190.2c-4.9-3.4-13.2-5-24.1-5a101.1 101.1 0 0 0-14.8 1.1c-4.6.7-9 1.4-11 1.9v13.4h3.5c1.6 0 4.1-.9 7.7-2.1a33.4 33.4 0 0 1 10.1-1.4c5.3 0 10.6.8 13.3 2s5.4 3.7 5.4 7v.3c-6 .3-12.4.8-17.7 1.5a52.2 52.2 0 0 0-13.9 3.4 20.8 20.8 0 0 0-8.7 6.6 18.2 18.2 0 0 0-3.1 10.7 17.4 17.4 0 0 0 5.7 13.5 20.3 20.3 0 0 0 14.3 5.3 33.7 33.7 0 0 0 6.6-.6 27.2 27.2 0 0 0 5.9-1.9c1.4-.6 4.2-1.5 5.7-2.6a23.2 23.2 0 0 1 5.2-2.8v4.1h18V206a18.5 18.5 0 0 0-8.1-15.8zm-9.9 40.9a40.2 40.2 0 0 1-6.6 3.1 19.4 19.4 0 0 1-6.5 1.2 23.6 23.6 0 0 1-5.7-.5 8.5 8.5 0 0 1-3.1-1.6 4.8 4.8 0 0 1-1.7-2.2 11.6 11.6 0 0 1-.4-3 6.6 6.6 0 0 1 1.5-4.5 9.4 9.4 0 0 1 4.4-2.6 65.2 65.2 0 0 1 8.3-1.3c3-.4 7.8-.7 9.8-.9v12.4zM380.5 185.2a23.3 23.3 0 0 0-10.7 2.8 59.6 59.6 0 0 0-11.2 7.6 18 18 0 0 0-7.1-7.8 20.4 20.4 0 0 0-10.4-2.6 18.9 18.9 0 0 0-9.1 2.2c-3 1.5-4.6 3.5-8.6 6.1v-7.9h-20v59h20v-40.3c2-.9 2.1-1.7 3.9-2.4a11.7 11.7 0 0 1 5-1.1 12.4 12.4 0 0 1 5.2.9 5.6 5.6 0 0 1 2.8 2.8 13 13 0 0 1 1.5 5c.1 2 .5 4.5.5 7.4v27.7h20v-40.3a25.5 25.5 0 0 1 4.8-2.7 11.7 11.7 0 0 1 4.3-.8 13 13 0 0 1 5.4.9 5.4 5.4 0 0 1 2.8 2.8 12.8 12.8 0 0 1 1.3 5c.1 2 .4 4.5.4 7.5v27.7h20v-36.9c0-7.3-2.3-12.9-5.6-16.8s-8.7-5.8-15.2-5.8z" transform="translate(-70.5 -70.5)"/><g><path class="cls-2" d="M139.5 281a38.8 38.8 0 0 0-6.3-2.7 25.4 25.4 0 0 0-8.1-1.1 23.9 23.9 0 0 0-9.5 2.1 23 23 0 0 0-8.1 5.8 28.8 28.8 0 0 0-5.6 9.4 35.7 35.7 0 0 0-2 12.6q0 13.3 6.1 21.1a19.6 19.6 0 0 0 16.3 7.8 21.2 21.2 0 0 0 9-1.8c2.7-1.2 4.3-3 8.3-5.6v4.9h18v-76h-18V281zm0 38.2c-2 1-2.7 1.8-4.5 2.4a15.2 15.2 0 0 1-5 .9c-4.2 0-7.1-1.2-9-3.7s-2.8-6.4-2.8-11.9 1.2-9.3 3.5-12.2 5.9-4.4 10.6-4.4a20 20 0 0 1 3.5.3c1.4.2 1.7.6 3.7 1.1v27.4zM201.4 277q-14.4 0-22.5 7.9t-8.1 21.7q0 13.7 8 21.7t22.5 7.9q14.5 0 22.5-7.9t8-21.7q0-13.7-8-21.7t-22.4-7.9zm11.1 38a14.3 14.3 0 0 1-2.6 5.1 8.5 8.5 0 0 1-3.7 2.8 14.1 14.1 0 0 1-9.7-.1 9.4 9.4 0 0 1-3.8-2.8 13.9 13.9 0 0 1-2.5-5.4 32.7 32.7 0 0 1-.8-7.9 31.3 31.3 0 0 1 1-8.5 14.2 14.2 0 0 1 2.6-5.3 9.3 9.3 0 0 1 3.8-2.8 14 14 0 0 1 4.6-.7 13.5 13.5 0 0 1 4.8.8 8.7 8.7 0 0 1 3.8 2.9 14.4 14.4 0 0 1 2.5 5.3 32.3 32.3 0 0 1 .9 8.2 31.2 31.2 0 0 1-.9 8.4z" transform="translate(-70.5 -70.5)"/><path class="cls-2" d="M235.3 246.5L224 208.1h-15.8l-11.9 38.4-9.6-38.4H168l17.1 55h19.2l11.2-37.6 11.3 37.6h19l17.3-55h-18.4l-9.4 38.4z"/><path class="cls-2" d="M395.3 282.4c-3.4-3.5-8.2-5.3-14.2-5.3a25.1 25.1 0 0 0-10.1 2c-2.9 1.3-5.5 3.2-9.5 5.7v-6.3h-16v55h16V295a29.8 29.8 0 0 1 5.8-2.5 17.4 17.4 0 0 1 5.1-.8 14 14 0 0 1 5.4.8 6 6 0 0 1 2.9 2.7 13.8 13.8 0 0 1 1.3 4.9 65.5 65.5 0 0 1 .5 6.7v26.8h18v-35.4c0-7-1.8-12.2-5.2-15.8z" transform="translate(-70.5 -70.5)"/></g></svg>