<svg id="Layer_3" data-name="Layer 3" xmlns="http://www.w3.org/2000/svg" viewBox="0 0 360 360"><defs><style>.cls-1{fill:#fff}.cls-2{fill:#16a13a}</style></defs><title>landbook</title><path class="cls-1" d="M0 0h360v360H0z"/><path class="cls-2" d="M250.5 108.5c-78.3 0-142 63.7-142 142s63.7 142 142 142 142-63.7 142-142-63.7-142-142-142zm113.8 189.2a150.7 150.7 0 0 0-69.1 19.5c-13.2 7.5-24.7 17-35.7 28.1v-11.8a6.2 6.2 0 0 0 1.2-4 143.7 143.7 0 0 1 111.9-63.7 122 122 0 0 1-8.3 31.9zM241.5 300a175.1 175.1 0 0 0-40-31.9 163.6 163.6 0 0 0-74-21.2 122.8 122.8 0 0 1 3.8-27.1A136 136 0 0 1 240.8 280c0 1-.2 2 .8 3v17zm-113.2-34.2a143.9 143.9 0 0 1 112.4 63.7c0 1.1-.1 2.2.9 3.2v12.2c-11-10.9-22.3-20.3-35.3-27.7a150.3 150.3 0 0 0-69.4-19.5 122.3 122.3 0 0 1-8.6-31.9zm171.6 2.3a173.3 173.3 0 0 0-40.4 32.3v-16.5a5.7 5.7 0 0 0 1.2-3.8 135.8 135.8 0 0 1 109.1-60.2 122.8 122.8 0 0 1 3.8 27.1 163.4 163.4 0 0 0-73.7 21.1zm-49.4-140.8a123.4 123.4 0 0 1 113 74.1 155.3 155.3 0 0 0-66.2 20 164.7 164.7 0 0 0-38.6 31.2h-16a164.7 164.7 0 0 0-38.6-31.2 155.3 155.3 0 0 0-66.5-20 123.4 123.4 0 0 1 112.9-74.1zM147 317.3a130.2 130.2 0 0 1 92.8 55.9 123.3 123.3 0 0 1-92.8-55.9zm114.5 55.9a130.2 130.2 0 0 1 92.4-55.9 123.3 123.3 0 0 1-92.4 55.9z" transform="translate(-70.5 -70.5)"/></svg>