<svg id="Layer_3" data-name="Layer 3" xmlns="http://www.w3.org/2000/svg" viewBox="0 0 360 360"><defs><style>.cls-1{fill:#2f3c45}.cls-2{fill:#863027}.cls-3{fill:#c44032}.cls-4{fill:#9b4d1f}.cls-5{fill:#e36b23}.cls-6{fill:#2f597f}.cls-7{fill:#4584be}.cls-8{fill:#9c8b26}.cls-9{fill:#e6c92e}.cls-10{fill:#427021}.cls-11{fill:#5da028}.cls-12{fill:#4a4d88}.cls-13{fill:#7073cf}.cls-14{fill:#356793}</style></defs><title>letteringjs</title><path class="cls-1" d="M0 0h360v360H0z"/><path class="cls-2" d="M118.8 274.4l.3 7.6a1.1 1.1 0 0 1-1.1 1.2l-11.5.5h-.3l-7.6.3a1.1 1.1 0 0 1-1.2-1.1l-2.4-57a1.1 1.1 0 0 1 1.1-1.2l7.6-.3a1.1 1.1 0 0 1 1.2 1.1l2 48.3 10.5-.4a1.1 1.1 0 0 1 1.4 1z" transform="translate(-70.5 -70.5)"/><path class="cls-3" d="M120.9 272.3l.3 7.6a1.1 1.1 0 0 1-1.1 1.2l-11.5.5h-.3l-7.6.3a1.1 1.1 0 0 1-1.2-1.1l-2.4-57a1.1 1.1 0 0 1 1.1-1.2l7.6-.3a1.1 1.1 0 0 1 1.2 1.1l2 48.3 10.5-.4a1.1 1.1 0 0 1 1.4 1z" transform="translate(-70.5 -70.5)"/><path class="cls-4" d="M143.5 273.9v7.6a1.1 1.1 0 0 1-1.2 1.2h-18.4a1.1 1.1 0 0 1-1.2-1.2v-57.2a1.1 1.1 0 0 1 1.2-1.2h18.4a1.1 1.1 0 0 1 1.2 1.2v7.6a1.1 1.1 0 0 1-1.2 1.2h-9.7v12.2h8.4a1.1 1.1 0 0 1 1.2 1.2v7.6a1.1 1.1 0 0 1-1.2 1.2h-8.4v17.4h9.7a1.1 1.1 0 0 1 1.2 1.2z" transform="translate(-70.5 -70.5)"/><path class="cls-5" d="M145.6 272v7.6a1.1 1.1 0 0 1-1.2 1.2H126a1.1 1.1 0 0 1-1.2-1.2v-57.2a1.1 1.1 0 0 1 1.2-1.2h18.4a1.1 1.1 0 0 1 1.2 1.2v7.6a1.1 1.1 0 0 1-1.2 1.2h-9.7v12.2h8.4a1.1 1.1 0 0 1 1.2 1.2v7.6a1.1 1.1 0 0 1-1.2 1.2h-8.4v17.4h9.7a1.1 1.1 0 0 1 1.2 1.2z" transform="translate(-70.5 -70.5)"/><path class="cls-6" d="M227.1 273.9v7.6a1.1 1.1 0 0 1-1.2 1.2h-18.5a1.1 1.1 0 0 1-1.2-1.2v-57.2a1.1 1.1 0 0 1 1.2-1.2h18.4a1.1 1.1 0 0 1 1.2 1.2v7.6a1.1 1.1 0 0 1-1.2 1.2h-9.7v12.2h8.4a1.1 1.1 0 0 1 1.2 1.2v7.6a1.1 1.1 0 0 1-1.2 1.2h-8.4v17.4h9.7a1.1 1.1 0 0 1 1.3 1.2z" transform="translate(-70.5 -70.5)"/><path class="cls-7" d="M229.2 272v7.6a1.1 1.1 0 0 1-1.2 1.2h-18.4a1.1 1.1 0 0 1-1.2-1.2v-57.1a1.1 1.1 0 0 1 1.2-1.2H228a1.1 1.1 0 0 1 1.2 1.2v7.5a1.1 1.1 0 0 1-1.2 1.2h-9.7v12.2h8.4a1.1 1.1 0 0 1 1.2 1.2v7.6a1.1 1.1 0 0 1-1.2 1.2h-8.4v17.4h9.7a1.1 1.1 0 0 1 1.2 1.2z" transform="translate(-70.5 -70.5)"/><path class="cls-8" d="M173.5 224.7l-.3 7.6a1.1 1.1 0 0 1-1.2 1.1l-6-.3-2.1 48.3a1.1 1.1 0 0 1-1.2 1.1l-7.6-.3a1.2 1.2 0 0 1-.8-.4 1.1 1.1 0 0 1-.3-.9l2.1-48.3-5.9-.3a1.1 1.1 0 0 1-1.1-1.2l.3-7.6a1.1 1.1 0 0 1 1.2-1.1l21.9 1a1.1 1.1 0 0 1 1 1.3z" transform="translate(-70.5 -70.5)"/><path class="cls-9" d="M175.5 223l-.3 7.6a1.1 1.1 0 0 1-1.2 1.1l-6-.3-2.1 48.3a1.1 1.1 0 0 1-1.2 1.1l-7.6-.3a1.2 1.2 0 0 1-.8-.4 1.1 1.1 0 0 1-.3-.9l2-48.2-5.9-.3a1.1 1.1 0 0 1-1.1-1.2l.3-7.6a1.1 1.1 0 0 1 1.2-1.1l21.9 1a1.1 1.1 0 0 1 1.1 1.2z" transform="translate(-70.5 -70.5)"/><path class="cls-10" d="M200.6 220.1v7.6a1.1 1.1 0 0 1-1.2 1.2h-6v48.3a1.1 1.1 0 0 1-1.2 1.2h-7.6a1.2 1.2 0 0 1-.8-.3 1.1 1.1 0 0 1-.4-.8v-48.5h-5.9a1.1 1.1 0 0 1-1.2-1.2V220a1.1 1.1 0 0 1 1.2-1.2h21.9a1.1 1.1 0 0 1 1.2 1.3z" transform="translate(-70.5 -70.5)"/><path class="cls-11" d="M202.7 218.2v7.6a1.1 1.1 0 0 1-1.2 1.2h-6v48.3a1.1 1.1 0 0 1-1.2 1.2h-7.6a1.2 1.2 0 0 1-.8-.3 1.1 1.1 0 0 1-.4-.8v-48.5h-5.9a1.1 1.1 0 0 1-1.2-1.2v-7.6a1.1 1.1 0 0 1 1.2-1.2h21.9a1.1 1.1 0 0 1 1.2 1.3z" transform="translate(-70.5 -70.5)"/><path class="cls-12" d="M259.5 279.2l-7-24.4a10.9 10.9 0 0 0 4.3-3.8 10.2 10.2 0 0 0 1.7-5.6l.3-13.8a10.3 10.3 0 0 0-.8-4.2 10.8 10.8 0 0 0-5.6-5.8 10.3 10.3 0 0 0-4.1-.9l-12.7-.3a1.1 1.1 0 0 0-1.2 1.2l-1.4 57.1a1.1 1.1 0 0 0 1.2 1.2l7.6.2a1.1 1.1 0 0 0 1.2-.8l.5-21.1 5.7 21a1.7 1.7 0 0 0 .6.9 1.6 1.6 0 0 0 1 .4l7.7.2q1.2-.3 1-1.5zm-10.8-34.4a2 2 0 0 1-2.1 2h-2.7l.4-17.1h2.7a2 2 0 0 1 2 2.1z" transform="translate(-70.5 -70.5)"/><path class="cls-13" d="M261.5 277.1l-7-24.4a10.9 10.9 0 0 0 4.3-3.8 10.2 10.2 0 0 0 1.7-5.6l.3-13.8a10.3 10.3 0 0 0-.8-4.2 10.8 10.8 0 0 0-5.6-5.8 10.3 10.3 0 0 0-4.1-.9l-12.7-.3a1.1 1.1 0 0 0-1.2 1.2l-1.4 57.1a1.1 1.1 0 0 0 1.2 1.2l7.6.2a1.1 1.1 0 0 0 1.2-.8l.5-21.1 5.7 21a1.7 1.7 0 0 0 .6.9 1.6 1.6 0 0 0 1 .4l7.7.2q1.2-.3 1-1.5zm-10.8-34.4a2 2 0 0 1-2.1 2h-2.7l.4-17.1h2.7a2 2 0 0 1 2 2.1z" transform="translate(-70.5 -70.5)"/><rect class="cls-12" x="195.9" y="152.6" width="9.9" height="59.47" rx="1.2" ry="1.2"/><rect class="cls-13" x="198.1" y="150.7" width="9.9" height="59.47" rx="1.2" ry="1.2"/><path class="cls-14" d="M309.1 223.5l3.8 57a1.1 1.1 0 0 1-1.1 1.3l-5.4.4a1.6 1.6 0 0 1-1-.3 1.8 1.8 0 0 1-.7-.7l-10.8-27.5 1.8 28a1.1 1.1 0 0 1-1.1 1.3l-7.5.5a1.1 1.1 0 0 1-1.3-1.1l-3.8-57a1.1 1.1 0 0 1 1.1-1.3l5.6-.4a1.6 1.6 0 0 1 1 .3 1.8 1.8 0 0 1 .7.7l10.6 26.6-1.8-27.1a1.1 1.1 0 0 1 1.1-1.3l7.5-.5a1.1 1.1 0 0 1 1.3 1.1z" transform="translate(-70.5 -70.5)"/><path class="cls-7" d="M310.9 221.6l3.8 57a1.1 1.1 0 0 1-1.1 1.3l-5.4.4a1.6 1.6 0 0 1-1-.3 1.8 1.8 0 0 1-.7-.7l-10.8-27.5 1.8 28a1.1 1.1 0 0 1-1.1 1.3l-7.5.5a1.1 1.1 0 0 1-1.3-1.1l-3.8-57a1.1 1.1 0 0 1 1.1-1.3l5.6-.4a1.6 1.6 0 0 1 1 .3 1.8 1.8 0 0 1 .7.7l10.6 26.6-1.8-27.1a1.1 1.1 0 0 1 1.1-1.3l7.5-.5a1.1 1.1 0 0 1 1.3 1.1z" transform="translate(-70.5 -70.5)"/><path class="cls-10" d="M336.5 223.3a10.8 10.8 0 0 1 5.2 6.2 10.3 10.3 0 0 1 .5 4.2l-.2 2.7a1.5 1.5 0 0 1-1.2 1.4l-7.9 2.1q-1.1.2-1-.9l.5-5.8a2 2 0 0 0-1.9-2.2h-.7a2 2 0 0 0-2.2 1.9l-3.3 38.3a2 2 0 0 0 1.9 2.2h.7a2 2 0 0 0 2.2-1.9l1.3-15.1-2.4-.2.8-9.6 11.1 1a1.1 1.1 0 0 1 1.1 1.3l-2.1 24a10.3 10.3 0 0 1-1.2 4.1 10.8 10.8 0 0 1-6.2 5.2 10.4 10.4 0 0 1-4.2.5l-3.2-.3a10.3 10.3 0 0 1-4.1-1.2 10.8 10.8 0 0 1-5.2-6.2 10.3 10.3 0 0 1-.5-4.2l3.4-39.1a10.3 10.3 0 0 1 1.2-4.1 10.8 10.8 0 0 1 6.2-5.2 10.3 10.3 0 0 1 4.2-.5l3.2.3a10.4 10.4 0 0 1 4 1.1z" transform="translate(-70.5 -70.5)"/><path class="cls-11" d="M338.5 221.4a10.8 10.8 0 0 1 5.2 6.2 10.3 10.3 0 0 1 .5 4.2l-.2 2.7a1.5 1.5 0 0 1-1.2 1.4l-7.9 2.1q-1.1.2-1-.9l.5-5.8a2 2 0 0 0-1.9-2.2h-.7a2 2 0 0 0-2.2 1.9l-3.3 38.3a2 2 0 0 0 1.9 2.2h.7a2 2 0 0 0 2.2-1.9l1.3-15.1-2.4-.2.8-9.6 11.1 1a1.1 1.1 0 0 1 1.1 1.3l-2.1 24a10.3 10.3 0 0 1-1.2 4.1 10.8 10.8 0 0 1-6.2 5.2 10.4 10.4 0 0 1-4.2.5l-3.2-.3a10.3 10.3 0 0 1-4.1-1.2 10.8 10.8 0 0 1-5.2-6.2 10.3 10.3 0 0 1-.5-4.2l3.4-39.1a10.3 10.3 0 0 1 1.2-4.1 10.8 10.8 0 0 1 6.2-5.2 10.3 10.3 0 0 1 4.2-.5l3.2.3a10.4 10.4 0 0 1 4 1.1z" transform="translate(-70.5 -70.5)"/><path class="cls-8" d="M344.3 242a5.5 5.5 0 1 1 1.6 3.8 5.2 5.2 0 0 1-1.6-3.8z" transform="translate(-70.5 -70.5)"/><path class="cls-9" d="M346.4 240.3a5.5 5.5 0 1 1 1.6 3.8 5.2 5.2 0 0 1-1.6-3.8z" transform="translate(-70.5 -70.5)"/><path class="cls-4" d="M369.6 222.6a1.1 1.1 0 0 1 1.3 1.1l2.9 48.1a10.3 10.3 0 0 1-.6 4.2 10.8 10.8 0 0 1-5.3 6 10.3 10.3 0 0 1-4.1 1.1l-3.2.2a10.3 10.3 0 0 1-4.2-.6 10.8 10.8 0 0 1-6-5.3 10.3 10.3 0 0 1-1.1-4.1l-.7-10.8a1.4 1.4 0 0 1 1-1.6l7.6-2.5q1.1-.4 1.2.8l.8 13.1a2 2 0 0 0 2.2 1.9h.6a2 2 0 0 0 1.9-2.2l-2.9-47.7a1.1 1.1 0 0 1 1.1-1.3z" transform="translate(-70.5 -70.5)"/><path class="cls-5" d="M371.4 220.7a1.1 1.1 0 0 1 1.3 1.1l2.9 48.1a10.3 10.3 0 0 1-.6 4.2 10.8 10.8 0 0 1-5.3 6 10.3 10.3 0 0 1-4.1 1.1l-3.2.2a10.3 10.3 0 0 1-4.2-.6 10.8 10.8 0 0 1-6-5.3 10.3 10.3 0 0 1-1.1-4.1l-.7-10.8a1.4 1.4 0 0 1 1-1.6l7.6-2.5q1.1-.4 1.2.8l.8 13.1a2 2 0 0 0 2.2 1.9h.7a2 2 0 0 0 1.9-2.2l-2.9-47.7a1.1 1.1 0 0 1 1.1-1.3z" transform="translate(-70.5 -70.5)"/><path class="cls-2" d="M397.2 222.8a10.8 10.8 0 0 1 5.7 5.7 10.3 10.3 0 0 1 .8 4.2v3.2a1.5 1.5 0 0 1-1.1 1.5l-7.7 2q-1.1.3-1.1-.8v-5.5a2 2 0 0 0-2-2h-.7a2 2 0 0 0-2 2v7.7a6.2 6.2 0 0 0 .3 1.6 3.9 3.9 0 0 0 .9 1.4l11.1 8.3a5.5 5.5 0 0 1 1.7 2.4 15 15 0 0 1 .6 2.8v14.6a10.3 10.3 0 0 1-.8 4.2 10.8 10.8 0 0 1-5.7 5.7 10.3 10.3 0 0 1-4.2.8h-3.2a10.3 10.3 0 0 1-4.2-.8 10.8 10.8 0 0 1-5.7-5.7 10.3 10.3 0 0 1-.8-4.2v-8.2a1.5 1.5 0 0 1 1.1-1.5l7.7-2q1.1-.3 1.1.8v10.5a2 2 0 0 0 2 2h.7a2 2 0 0 0 2-2v-11.2a9.4 9.4 0 0 0-.3-2 3.3 3.3 0 0 0-1-1.5l-11-8.4a7.9 7.9 0 0 1-1.8-2.4 7.5 7.5 0 0 1-.6-3.1v-10.3a10.3 10.3 0 0 1 .8-4.2 10.8 10.8 0 0 1 5.7-5.7 10.3 10.3 0 0 1 4.2-.8h3.2a10.3 10.3 0 0 1 4.3.9z" transform="translate(-70.5 -70.5)"/><path class="cls-3" d="M399.4 221a10.8 10.8 0 0 1 5.7 5.7 10.3 10.3 0 0 1 .8 4.2v3.2a1.5 1.5 0 0 1-1.1 1.5l-7.7 2q-1.1.3-1.1-.8v-5.5a2 2 0 0 0-2-2h-.7a2 2 0 0 0-2 2v7.7a6.2 6.2 0 0 0 .3 1.6 3.9 3.9 0 0 0 .9 1.4l11.1 8.3a5.5 5.5 0 0 1 1.7 2.4 15 15 0 0 1 .6 2.8v14.6a10.3 10.3 0 0 1-.8 4.2 10.8 10.8 0 0 1-5.7 5.7 10.3 10.3 0 0 1-4.2.8H392a10.3 10.3 0 0 1-4.2-.8 10.8 10.8 0 0 1-5.7-5.7 10.3 10.3 0 0 1-.8-4.2v-8.2a1.5 1.5 0 0 1 1.1-1.5l7.7-2q1.1-.3 1.1.8v10.5a2 2 0 0 0 2 2h.7a2 2 0 0 0 2-2v-11.2a9.4 9.4 0 0 0-.3-2 3.3 3.3 0 0 0-1-1.5l-11-8.4a7.9 7.9 0 0 1-1.8-2.4 7.5 7.5 0 0 1-.6-3.1v-10.3a10.3 10.3 0 0 1 .8-4.2 10.8 10.8 0 0 1 5.7-5.7 10.3 10.3 0 0 1 4.2-.8h3.2a10.3 10.3 0 0 1 4.3.9z" transform="translate(-70.5 -70.5)"/></svg>