<svg id="Layer_3" data-name="Layer 3" xmlns="http://www.w3.org/2000/svg" xmlns:xlink="http://www.w3.org/1999/xlink" viewBox="0 0 360 360"><defs><style>.cls-1{fill:#fff}.cls-2{fill:url(#radial-gradient)}.cls-3{fill:url(#radial-gradient-2)}</style><radialGradient id="radial-gradient" cx="250.5" cy="194.02" r="180.89" gradientUnits="userSpaceOnUse"><stop offset="0" stop-color="#e5174c"/><stop offset="1" stop-color="#5f1d2d"/></radialGradient><radialGradient id="radial-gradient-2" cx="250.61" cy="194.02" r="180.79" xlink:href="#radial-gradient"/></defs><title>lipsum</title><path class="cls-1" d="M0 0h360v360H0z"/><path class="cls-2" d="M419.3 248.2c-.9.4-1.9-1.6-.7-2.2s.5-4.5 0-5.3-1 .2-2.1 1.2-2.2.7-2.1 0 1.3-1 2.8-2.1.8-1.5 0-2.7-1-1.1-1.1-1.1a26.5 26.5 0 0 0-4.8 2.5c-2.1 1.4-1.9-.6-.9-1.6s2.9-.8 5-2.2-1.3-2-2.9-3.7a15.7 15.7 0 0 0-3.8-3.1c-2-1.4-2.3.7-5.1 2.4l-3 1.6v-.5a39.6 39.6 0 0 1 5.2-3.4c4.1-2.2 2.9-2.8 1.9-4s-1.5-2.6-2.3-3.7-1.6-1.2-2.2-.8-3.8 3.1-7.3 5.6l-1.6 1.1-.7.4c-.1 0 .3-.4.1-.6s.2-.8 1.1-1.7a8.4 8.4 0 0 0 2.4-1.1c.8-.6.7-1 .2-1.4a37.1 37.1 0 0 1 6.1-4.1c2.9-1.6-.8-1.3-1.4-2.2s-1.4-1.1-2.7-2.1-1.9 1.4-3.4 2.7l-2.9 2.1-1.7-1.2 4.3-3.8c1.3-1.1 2-1.9 2.1-2.5s-1.3-2.6-2.7-4.1-4.7-2.5-5.7-3.5.2-2.2 0-3.6-1-1.4-2.2-2.4a12.8 12.8 0 0 1-3.2-3.5c-1.2-1.9 0-.7 0-2.8s-1.6-2.2-1.8-2.8-2.6-1.8-3.4-2.8a24.8 24.8 0 0 1-3.6-4.4c-1.4-2.4-1.4-2-2.2-4s-1.4-2-3.6-3.4 0-1.2-4.2-3.2-1.8-1.8-1.8-4.8-16.4-17.5-17.4-18.5-4.6-4.6-4.9-5.1-.7-.9-2.6-2.3a17.1 17.1 0 0 1-3.2-2.7c-1.8-1.7-1.1-2.1-2.7-4.2s-2.5-1.7-3.5-2.1a19 19 0 0 1-4-3.1 39 39 0 0 0-3.1-2.5l-2.9-2.1a6.8 6.8 0 0 0-1.9-1.3 10.3 10.3 0 0 1-2.6-2c-.5-.4-3.1-1-3.8-2s-.6-.7-1.9-.8a4.8 4.8 0 0 1-3.2-1.9c-.6-.9-.8-.5-2.1-.3s-2.7-.8-3.8-1.5-1.4-.3-2.1.5-.6.6-2.3.9l-1.5.3c-.6-.2-.8.2-1.4.7s-.5.5-2 .8h-.7a1.3 1.3 0 0 0-.9-.5c-.5-.1-2.4 1.1-3.4.4s-.9-.2-2.5.4a21.9 21.9 0 0 1-3.5 1.1c-1.1-.4-1.2 1.1-2.4.4s-1.4.1-2.4.6a8.4 8.4 0 0 1-4.8.4c-1.4-.4-2.2-1-3.5-.5s-3.1-.3-3.9-.9-1.1-.4-3.1-1.2-2.1-.6-3.2-1.3a7.5 7.5 0 0 0-3-1.1 6 6 0 0 1-3.2-1.8 5.9 5.9 0 0 0-2.8-1.7 18.2 18.2 0 0 1-4.4-1.9c-1.5-1-6.6-2.3-7.8-3.6s-6.3-.6-7.1-1.1-6.5 0-7.9.9-4 0-5.3.9-4.5 1.5-5.8 2.1-5.1 1.8-5.9 2.6a6.5 6.5 0 0 1-3.9 1.4c-.7-.2-4.1 2.6-5.9 2.8s-7.6 3-8.5 3.9a7.9 7.9 0 0 1-3.9 2.1c-2.1.6-3.3 2.6-5.2 3.1s-2 .4-3.1 1.3-6.1 3.2-6.7 3.8a20.4 20.4 0 0 1-5.3 3.4c-1.8.6-1.4.8-2.6 2.1s-.8 1.3-3.2 2.2-15.1 9.7-17.3 10-9.1 6.1-9.6 7.5-6 4.4-6.6 5.1-10.1 5.1-12.1 7-3.5 2.3-2.8 3 1.7 2.6.7 1.9a6.1 6.1 0 0 0-3-1.1c-1.2-.1-3.6 2-5.7 3.4a14.2 14.2 0 0 0-4.3 5.1c-.7 1.3 1.1 2.2 2.9 3.7l1.8 1.5a1 1 0 0 0-.3 1.3l.3.5a43.8 43.8 0 0 1-3.8-3.4c-1.1-1.3-1.8-2.1-2.1-2a5.9 5.9 0 0 0-1.8 1.6c-.6.7-1.3 1-.7 1.5s3.1 4.5 2.7 4.5-3.8-4.2-4.7-4.8-.7-.5-1.2 0a1.6 1.6 0 0 0 .1 2.1 16.4 16.4 0 0 1 3 4c.7 1.6-.7.4-1.2 0s-2.2-3.6-2.6-4.1-.6-.6-1 0S82 188 82 188a10.7 10.7 0 0 1 1.4 1.3 13.9 13.9 0 0 1 2.2 3.8c.2 1-1.1.4-1.7-.4a17.5 17.5 0 0 0-3-2.9c-.6-.3-2.4.6-1.8 1.9 2.4 4.8 3.5 6.3 6.5 9.2s3.2 2 3.5 1.2-1-2.8-2.5-5 .2-1.5 1.4-.6 1.7 4 3.3 6.9 3.5 3.3 9.4 4.7 7 .4 7.6-.8-.6-1.8-2.3-4.4-3.7-4.1-6.3-7 1-1.1 2.8.4 11.4 15.2 13.6 15.1 3.3.6 4.1-2.3-.2-2.1-1.7-6.8a7.8 7.8 0 0 1-.6-2.5h.5a13.1 13.1 0 0 1 1.4 2c.9 1.6.6 3.8 1.4 6.8s1.9 2.8 3.7 2.3 5.5.3 10.2.7a12.3 12.3 0 0 0 3.4 0 8.1 8.1 0 0 0 2-.4c.9.4 1.9-.5 4.2-.2s4.9-.3 9.3-.6c1.5-.1 2.1-.3 2.3-.7 1.7-.6 7.2-2 10.1-3.8s7-1.7 8.4-1.6h.6c3.1.1 15.1.2 23-4.1s18.9-1 25.8-5.1c2.2-1.4 5.1-1.1 8.1-.2l.5.4a7.2 7.2 0 0 0 3.3 1.2c4.8 2.3 9.3 5.6 11.1 6.1s11.7 1.5 19.8.5l1.7-.2a19.1 19.1 0 0 1 10 1.4c4.9 2.1 7.7 4.2 14 7.6l1.9.9c6.4 3 15.6 5.6 20.9 7.4a18.7 18.7 0 0 1 5.7 4.4c.2.9 1.5 1.9 3.1 3.5s14.3 9.5 17.1 10.8l2.3 1.2c4 2.3 7 5.1 9.9 5.9s7.1 4 7.7 4.3l1.6.9c1.4.7 6.3 2.7 7.1 2.9l1.4.3 2.2.6c2.6.7 6.7 2.5 7.8 1.3s2.6-1.3 2.6-.5-.9 1.8-.4 3 2.2-.3 4.1-.4 2.2-.4 4.2-1.6l5.9-3.5c2.6-1.5 3.5-1.5 5.8-3.1s4.6-2.1 8.6-3.4.4 1.2-1.1 1.6-9.5 4.4-11.5 5.4-7.1 4.8-6.3 5 5.5-1.3 10.2-1.9 9.1-2.9 12.7-4.9 5.2-2.3 5.5-3-1.4-1.2-2.4-.8zm-309.1-66.7a7.5 7.5 0 0 1-1.5-1.5c.2-.2.5-.2 1 .2a2.1 2.1 0 0 1 .5 1.3zm9-.2a.5.5 0 0 1 .2.6l-.3-.4-.3-.6zm-1 9.2a7.5 7.5 0 0 1 1.7.7c.8.4 1.1 1 1.3 2.6a41.9 41.9 0 0 0-3.1-3.3zm12.2-6.8a1.5 1.5 0 0 1 .1-1.9l.2.5c0 .3.1 1.3-.4 1.3zm1.7 1.6c-.5-2 1.1-1.2 2-.8l.3 1.4c.6 2.9-.4.7-2.4-.7zm9 .3c-1.6-3.1-1.6-1.6-3.1-3.7s-3.1-3.9-4.4-6-.2-1.3.7-.6c1.5 3.1 1.1 2.9 3.7 5.5s3.2 3.1 3.5 5a3.9 3.9 0 0 1 0 .6zm5.7-4.8l-.3-.6-2-4.7.5-.2c1.5-.6 1.5 1.7 2.1 4.5s.2 1.5-.3.9zm7.3 8.7c-.7-2-1.1-2.9-1.5-3.7a13.1 13.1 0 0 0 2.7 3.6l.3 1.2c.5 2-.1 2.9-1.6-1.1zm17.8 2l-2-1.8-1.1-1-2.6-2.1a11 11 0 0 1-2.7-2.7l-.4-1.4c-1.1-3.9-2.6-7.8-1.2-6.1s2.2 5 4.3 6.7c.5 1.5.3 1.8 2.5 3.2a24.1 24.1 0 0 0 2.4 1.2l.6.6.9 1.5c1.1 2 2 2.9 2.4 3.6a24.3 24.3 0 0 1-3.2-1.7zm57.4-15c-.1-.3-.2-.6-.3-1.4l-.2-1.1a13.9 13.9 0 0 1 .7 1.9l.2.6h-.4zm4.2-49.9l-2 3c-.4-1.7.8-2.1 2-3zm7.9-2.8a.5.5 0 0 1 .6-.4 8.9 8.9 0 0 1 1.5 3.7 6.2 6.2 0 0 1-.4 3.5 14.6 14.6 0 0 1-1.7-2.3c-1.5-1.9-.9-2.6-.2-4.4zm1.1 19.3a21 21 0 0 1-1.1-4.2c-.7-3.8-.6-2.5-.1-3.6a7.3 7.3 0 0 1 1.1 2.7 12.2 12.2 0 0 1-.1 5.2zm5.5 18.3c-.2 3.9-1.2 4.2-3.3 10s-1.1 4.7-1.2 6.4c-1.6 5-.5 3.8-1 7.1a16.9 16.9 0 0 0-.1 4.3l-1.9-1.8a9.8 9.8 0 0 1-.1-1.6v-1a6.5 6.5 0 0 0 .3-2.6 23.5 23.5 0 0 1 .7-2.7c.9-3 .3-3 .1-5.1a18.8 18.8 0 0 1 .4-4.6l.4-1.4c1.3-4.8 1.6-4.1 2.3-7s.5-3.8 1.9-6.1 1.4 1.6 1.9 2.9a22.1 22.1 0 0 0-.6 3.3zm1.8-16.4v.3c-.3 3.7-2.1 4.6-2.9 3.3l-.3-.5c.2-.5.3-1 .5-1.8s.2-.9.3-1.3v-.4a15 15 0 0 0 .4-3.4l.5-.8c1.1-1.4 1.5 1.3 1.4 4.7zm.3 19a7.3 7.3 0 0 0 1-2.1 6.1 6.1 0 0 1 .6-1.6 16.1 16.1 0 0 1-.6 2.8c-.6 2.2-.3 2.6.2 3.4l-.2.6a4.7 4.7 0 0 0-.3 2.9l-.5-.9c-1-1.8.2-2.1-.4-5.1zm.9 13.2c.4-.5.7-.6 1.3.1H251zm-.7-3.3l-.2-.5c.6-.9 1-2.2 1.8-1.5a7.4 7.4 0 0 1 .5 2c.4 4.1-1.1 2.2-2.2 0zM254 138c-.7 2.4-1.9 4.1-2.7 1a19.3 19.3 0 0 1-.6-2.7 5.9 5.9 0 0 1 1.4-3.1 3.7 3.7 0 0 1 2.5-1.9.9.9 0 0 1 .6 1 18.9 18.9 0 0 1-1.3 5.7zm12.4 28.1c-.7 3.4-2.5 6.8-.7 5.4l.3-.2v.2c-1.8 2.4-1.9 5.2-3.7 4.6.5-.8.6-1-1.4-1.9l-1.1-.5.3-1c.9-2.3 2.2-2.1-.4-3.3l-.5-.2c.7-1.1 1.3-1.6 2.2.3s1.7 5.1 2.2 3.7.6-.1 0-3.6-.5-6.9 1.1-6.9c-.7 2.9-2 5.6-.5 4.3s1.9-1.5 2.5-1.4v.5zm7.9 16.1c-1.4 2.2-3.1 5.3-4 4v-.2c.6-1.2 1.4-2.7 2.5-4.5 2.7-4.4 2.1-4.6 3.8-9.3a8.7 8.7 0 0 1 .2 1.8 15 15 0 0 1-2.5 8.2zm4.7-17.5a8.8 8.8 0 0 0 .1-3.4 4.6 4.6 0 0 1 .8-3l.2.2c.7 1.4-.1 3.9-1.2 6.1zm6 3.7c-.1 1.6-.4 3.4-.6 5.1-.7-1.7-1.1-1.9-.1-5a10.1 10.1 0 0 1 1.8-3.6c.7.1-1 .6-1.2 3.5zm2.7-9.5c.1-2-.3-3.1.6-5a1.4 1.4 0 0 1 .5 1.3 5.4 5.4 0 0 1-1.2 3.7zm1.7 21.9l-.2-.5.7-.8.4-.8c-.1 2.8-.1 5-1 2.1zm6 3.6l1.9-3.8 1-1 2.4-1.5c4.4-2.7 2.2-2 3.3-3.1a2.3 2.3 0 0 1 2.3-1 6.8 6.8 0 0 0-1.4 2.2 6 6 0 0 1 0 1.8 25.2 25.2 0 0 0-3.5 2.4c-1.4 1-1.9 3.4-6.2 4zm10.8 3.8l-.6.5-2 1.6a9.8 9.8 0 0 1-2.9.8h-.7c1.5-1.8 1.6-1.4 3.5-3.1s1.9-.7 3.5-.9zm2.2-30.1l2.5-3.2c3-3.7 1.7-3.3 2.7-5.2.2-.4.3-.2.9.6l-.4.6a14.2 14.2 0 0 0-2.1 2.9c-1.6 2.6-.5 2.7-2.2 3.5zm3.1 7.8a8 8 0 0 1-.7-2l1 .6a4.4 4.4 0 0 1 1 .8c-.7.9-1.2 1.5-1.5.6zm1.3 29.7a4.1 4.1 0 0 1 1.5-1.4c1.5-.2-.3.4-1.6 1.4zm2.4-50.9v.5a1.7 1.7 0 0 1 0-1.5 6.6 6.6 0 0 1-.1 1.1zm.4-1.5l1.2-1a4.4 4.4 0 0 1-1.3 1zm22.7 58c.1.2-.1.4-.4.6a1 1 0 0 1 .3-.5zm-21-38c.8-1.7 2.3-2.7 3.2-5.4a12.2 12.2 0 0 1 2.3-4.6l.7 1.1c1.2 1.7.6 1.6-.7 3.1l-1 .8c-2.1 2-1.4 2.5-1.7 3.4s-1.2 1.3-2 2.2-1.4.5-.9-.5zm3.6 5.5a2.6 2.6 0 0 0-1.4.5c-1.1.7-.5 1 .2 1.3s-.6.3-.8-.2-.9-1.5-.8-2.5.6.3 1.7-.1 1.2-.9 1.5-2-.2-.9-.1-1.5a11.1 11.1 0 0 0 3.6-4.7l.2-.5.4-.4c2.1-1.9.8-.6.7.2s-2.9 4.4-3.3 5.3a1 1 0 0 0 0 1.1l-1.2 2zm7.6-5.9c0 .3-.6 1.1-.6 1.6s-.3.5-2.1 2.7l-.5.6.2-.4c.8-1.5 2-2.6 2.9-4.5zm-5.2 32.4h-.9a2.3 2.3 0 0 1 .7-2.1l.2-.2h.7c4.1 0 4.1-.2 4.6.4s-2.5 1.6-5.3 1.9zm6.9-18.2a4.5 4.5 0 0 1-2.3 0l.9-1.3a3.3 3.3 0 0 1 1.6.9zm6.2-7.4c-1.2 1.9-1.2 1.1-2.8 3.4a3.8 3.8 0 0 0-2.3.1l-.6.2.9-1.3c1.7-2.5 6.5-5.2 4.8-2.4zm1.4 46.9h-.4l2-.4a4.1 4.1 0 0 1-1.6.4zm13.1-20.1c.9-1.5.4-.8 3.9-4.3l.7-.6c3.6-3 4.3-4 5.4-5s3.4-1.2 2.5.7v.3h-.1l-4.7 4.7-1.6 1.3c-2.3 1.9-2.1 2.6-3.9 3.3s-2.5.5-2.2-.4zm-1.3 13.3c1.6-1.1 2.7-1.2 4-2h.4c3.6-.8-.2.9-2.9 3.1l-.8.7c-1.5-.1-2.4-.7-.7-1.8zm.3 15l-1.9 1.1v-.2a2.8 2.8 0 0 1 2.1-1.9 1 1 0 0 1 1.1.1zm6.5-3.3a30.1 30.1 0 0 1-3.4 1.4h-.2l1.2-1.2c1.8-1.6 2.4-1.2 2.6-.4h-.1zm0-16a.5.5 0 0 1 0-.3l.3-.2a12.5 12.5 0 0 0 2.2-1.2c.7-.2 1.2 0 1.2.6s-1 1.7-2.6 2.5-1-.8-1-1.5zm5.8 30.9a22.3 22.3 0 0 0-3.6 2.3 5.6 5.6 0 0 1 .1-1.2c.1-.6.2-1.2.3-1.7l3.3-2c.9.3 1.9.1 2.1 1.2a8.4 8.4 0 0 1-2.1 1.4zm2.1-18.5l2.6-.7h.2a3.1 3.1 0 0 1-2.8.7zm10.2-24.4c1.2-1.1 3.8-1.3 2.8.8s.4 0-1.6 2a7.7 7.7 0 0 1-1.8-1.1 1.1 1.1 0 0 1-.4-.7zm-5 21.6a1.5 1.5 0 0 0 0-.4c-.1-.6.3-.5 1.6-1.2l-.3.3zm3.9 15.3l-1.5 1-.5.3a1.7 1.7 0 0 1-.7-1.3 16.9 16.9 0 0 0 3-1.7.6.6 0 0 1 1 .4 7.4 7.4 0 0 1-1.2 1.3zm6.4-23.7c-.7.6-2.5 1.8-4.4 3.2a21.2 21.2 0 0 1 3.8-3.2l1.5-1zm4.2-1.6l-1.2-.8h-.1l1.6-.9c1.6-.9 1 .3-.2 1.7zm1.2 33.5v-.3l1.7-1 1.9-1.1a1.8 1.8 0 0 1 1.7.8l-5.2 2.5v-.9zm3.6 6.4c-1.7 2.8-1.1 0-2.3-.7a1.5 1.5 0 0 1-.7-.9h1a20.8 20.8 0 0 0 4.1-1 33.8 33.8 0 0 0-2 2.6zm6.3-10.1l-.2-.3-.4-.4c2.4-.7 1.7 0 .7.7z" transform="translate(-70.5 -70.5)"/><path class="cls-3" d="M382.5 279.8c-2.6-4.3-.4-7.1-2.6-8.2s-1-1.7-2.2-1.1-2.2.2-3.8 3.4v.2c-1.7-4 0-6.6-2-7.7s-1-1.8-2.2-1.2-2.2.2-3.8 3.6-1.2 3.2-.8 5.6 0 3.7-.8.9l-2.4-8.3a1.5 1.5 0 0 0-1.6.2c-.8-1.5-1.8-3.2-2.4-4.1a30.2 30.2 0 0 0-5.2-5.8c-1.3-1-3.4-2.6-4.3-2.2h-.4a28.4 28.4 0 0 0-3.8-4.2c-1.3-1.1-3.4-2.8-4.3-2.4l-.6.6c-1.7-2.7-5-8.3-6.7-9.3a17.7 17.7 0 0 0-3.6-1.4c-1.6-2.8-3.5-5.7-4.7-6.4s-5-1.9-8.2-2.8-3.1-2.1-6-1.3a27.8 27.8 0 0 0-6 2.7l-1.5 1.5c-1.5 1.5-10.7 6.4-12.5 7h-.7a1.6 1.6 0 0 0-1.1.4 7 7 0 0 0-2.6.9l-.3.2c-1.1 1-6.3.8-7.3 1.2s-4.3-.6-6-.3l-2.3.2c-3.1.1-8-.1-8.7-1.1s-1.7-.9-2.1-.7l-1.3.8-2.3 1.4-.6.4c-1.9 1-1.4-.2-.8-1.3a1.8 1.8 0 0 0 .6-1c.2-.5-1.8-.8-3.1-1l-.5-.2h-.4a5.8 5.8 0 0 0-1.7.3c-1.3.3-2.8.9-2.9 1.9s-1.9.9-2.6.2a1.6 1.6 0 0 0-.5-.9 9.1 9.1 0 0 0-1.1-1c-1.1-1-7.1-1.5-10.8.2s-3.9.4-4.7-.7l-.4-.7a.6.6 0 0 0-.4-.5c-.9-1.6-6-1.8-6.5-1.6h-.1a3.6 3.6 0 0 1-2.8-1.4c0-.2-.1-.4-.3-.3a8.9 8.9 0 0 0-2.1-1.8c0-.1 0-.2-.1-.1a7.5 7.5 0 0 0-2.2-1h-.1a17.1 17.1 0 0 1-6.4-2.8.4.4 0 0 0-.3-.3l-5-4.4a3.4 3.4 0 0 0-1.4-1.3 13.5 13.5 0 0 1-3-3.4 6.2 6.2 0 0 0-.2-1.3c-.4-1.6-2.6-2.3-3.8-2.7a12.6 12.6 0 0 1-3.6-1.9c-1.1-.9-1.6-.5-2.3-1.7s-2.1-.5-4.6 0l-2.6.7c-1.9.5-2.3 1.1-4.7 1a18.9 18.9 0 0 0-3.2-2.4c-3.6-2.1-3-.1-5.9.9s-3.5 3.8-4.4 3.3-1.2-2.5-2.5-1.6a30.6 30.6 0 0 0-6.5 6.5c-2.3 3.2-.9 1.6-.2-.6s-1 0-2.8.7l-1.5.5c-.4-1.6.1-2.3.7-4.4s-1 0-2.8.7l-2.4.8c.3-1 .1-1.5-.3-1.5s-3.8 1.1-5.5 1.9a15.4 15.4 0 0 0-4.8 2.9c-1 1-2.8 3.1-4 4.5a6.7 6.7 0 0 1-.9-1.3c-.7-1.5-1-.3-3.3-.7s-2-.1-2.9.7l-.2-.5c-.7-1.7-1-.4-3.3-.8s-1.9-.1-3.1.9-1.1 1.9-2.2 3.5-.5 1.3-1 4.2-1.1 2-2.2 3.4-4.1 1.2-3.3 3.3c-.2.4 0 .6.4.8l.6.8a25.7 25.7 0 0 1 3.7 6 1.6 1.6 0 0 0 .3.8l.6 1.6c.8 2.3 5.8 9.8 8.9 12.3a66.5 66.5 0 0 1 5.4 5.3l.4.4 6.3 7a1.2 1.2 0 0 0 .3.5c.9.9 2.3 3.3 3.7 0s3.2-6.5 3.5-9.1a28.2 28.2 0 0 1 .9-3.7l1.4-1.5 1.3-1c-.6 3.5-2.8 7.6-4.2 11.5s-1.9 6-3 8c0 0-.2.5 1.7 2.6s1.8 1.3 3.1 2.1a27 27 0 0 1 3.5 2.1c1.5 1.2 1.2 1.9 2.1 3.7a3.1 3.1 0 0 0 2.3 1.9l2.9 2 1.5 1.6c.2 1.7 1.1 6.9 10.1 10.1h.2c8.2 2.9 7.7 3.4 11.1 4.3l.8.2.9.3a1.1 1.1 0 0 0 .9 1.6c1.2 0 1.7 4.3 3.8 4.1a15.1 15.1 0 0 0 7 5.2l20.9 7.8c2.4.9 16.7 4 21.2 4.6a26.5 26.5 0 0 1 7.3 1.9c1.4.4 18 2.3 30.7 1.2 4.3-.4 9.6-.9 15-1.7h.2c5.5-.8 40.8-12.1 40.8-12.1l12-4.7a96.7 96.7 0 0 0 15.7-7.6l.6-.2c1.4-.7 10.9-3.5 12.9-6.1s7.5-4.8 7.7-6.7 4-4.7 6.4-5.2 3.8.7 5.8-1.9 4.6 2 2-2.6-1.4-2.5-4-6.8zm-261.4-43.4l-1 .8.3-1.3.2-.8 1.4-1.3a8.2 8.2 0 0 0 1.4-1.2 8.8 8.8 0 0 1-2.3 3.8zm10.2-9l-.5.6a.5.5 0 0 1 .5-.6zm-5 13.2l-.2.5c0-.2 0-.4.2-.4zm.6 16.5l-.4.3-.3-.4a10.8 10.8 0 0 1 1.3-1.5zm4.7-12.4l-1-1a3.8 3.8 0 0 1-.7-1 1 1 0 0 0 1.1 0h.1l1 .7zm3.5-11.5a6.4 6.4 0 0 1-.5-1.5c.4.3.7.1.7-1.2a4 4 0 0 1 .1-.6l.5.4a23.8 23.8 0 0 1-.9 2.9zm44.6 29.2l-1 .2h-.4a6.5 6.5 0 0 0 .1-1.1 4.3 4.3 0 0 0 1.3-1.5c-.1.9-.1 1.7-.1 2.4zm39.1 2.9s.4 2.5.6 4.9l-.2.5c-.5 1.6-.7 2.6-.3 3.3s-.9-.1-1.2-1.2l-.2-.8c-.1-.5-.2-1.1-.3-1.8s.3-1.8.6-3.6c.6-3.3.9-1.3.9-1.3zm-5-2a46 46 0 0 1 2.6-6.4c.4-.9.8-.9 1-.6l-.6 2.4c-.6 2.6-2.1 3.4-3.4 5.8a6.6 6.6 0 0 0 .3-1.2zm3.3 9.4a3.9 3.9 0 0 1-1.3 1.5l-.8.4v-.4c-.3-1.3-.7-.5-.9-.1a6.7 6.7 0 0 0-.9-1.5l-.2-.2a1.9 1.9 0 0 1 .5-1.1c1-.9 1.4-1.2 1.8-1s.4.7.5.6zm-4.1-7.5a20.6 20.6 0 0 0-1 2.5 5.4 5.4 0 0 1 0-.6c.1-1.2.6-1.4 1.2-2.4zm-3.4 4.6c.3-2 .7-3.8.7-4.8s.7-4 .7-6.1a6.4 6.4 0 0 1 1.5-3.7c0 1.3.1 3.2.1 4.1s-.8 3.7-1.6 6.3-.7 3.6.5 4.6l.2.2a6.5 6.5 0 0 0 .4 1.6 2.8 2.8 0 0 0-2.1-.1c-1.1.3 0 0-.1 1.2s-.8 1.3-1.1.9c-.1-2.6.6-2.7.8-4.3zm-6.9-17.2a5.6 5.6 0 0 1 .4-1.9h.1s1.4.2 1.4 1-.7 2-2.2 4.8a29.9 29.9 0 0 0 .3-4zm-6 8.6a17.5 17.5 0 0 1 1.7-2c3.2-3.3.9.6 1.2 2.1v.3l-1.9 3.3c-1.9 3.2-1.3 3.3-.6 3.3a5.5 5.5 0 0 0-.5 1.7c-.5-.9-1.2 1.5-1 3a5.2 5.2 0 0 1 0 1.1c-1 .5-2.3.5-2.4.2s.8-1.2 1.8-2.7-.3-2.7 0-4.7a3.6 3.6 0 0 0 0-1 26.4 26.4 0 0 1 1.4-4.2zm-8.9 3.5a6.3 6.3 0 0 0-.4 3.2c.3 1.9-.8 6.2-2 8.4s-.4 5.4 1.5 6.2l.5.2v2.1l-1.7-1.1c-1.3-1-2.6.6-3 1.6s-2.1 4.1-1.5 7.4-.2.5-.5-1c.1-3 .8-6.8.7-8.8a15.5 15.5 0 0 1 2-4c.7-.9 1-5 1.6-6.4s-.4-3.5-.5-5.1 1.1-3.4 1.6-4.4 1.5-5.8 2.1-7a64.8 64.8 0 0 0 2.3-6.1c.3-.8 4.3-5.7 4.5-6.1s1.4.3 1.4 1.1-.8 2.3-2.4 5.6-1.5 3.4-2.8 5.8-3.2 3.1-3.3 4 0 2.1 0 4.3zm14.2 28c-.1.9-1.6 5.3-1.7 7.9s-.4-.9-.7-1.5-1.3-1.7-1.5-2.3a4.2 4.2 0 0 1-.1-.6v-1a3.3 3.3 0 0 1 .5-1.5c.7-1 .3-3.5.3-3.5l-.3-.2c.2-3-1-.7-1.7-1h-.3l-2.5-1.5c-1.3-1-2.6.6-3 1.5l-.4.7a10 10 0 0 0 0-3.2l-.8-.4a14.6 14.6 0 0 1 1.8-3.1 4.3 4.3 0 0 0 .6-1.6 1.3 1.3 0 0 1 0 .2l.8 1.3a3.8 3.8 0 0 0 1.9 3.5c.3.5.2.3.1.1a1.6 1.6 0 0 0 2.1-.6l2-.7.2-.5a.9.9 0 0 1 1 .9s.5.7 2 3.3l.3.5c.1.8.3 1.9.5 2.8s-1 0-1 .5zm.3-15.3v1.7a1 1 0 0 1-.8-.2c-.2-.3.3-.8.9-1.5zm.8-4.8a3.4 3.4 0 0 1 0-.5 2.4 2.4 0 0 0-1-2.6 26 26 0 0 0-1.4 3.1v-1.7a20.4 20.4 0 0 1-.1-2.3l1.4-1.6c1.2-1.4.4.5 1.5 1.1s.5.3.9-.3c.5 1.3.2.4.4-.6a15 15 0 0 1 1.9-2.2.7.7 0 0 1 .5.3l.7.9a2.1 2.1 0 0 0 0 .7 6.1 6.1 0 0 1-.8 3.4 5.4 5.4 0 0 1-.4-1.1c-.4-1.7-.9 0-.9 0l-1.9 2a3.2 3.2 0 0 0-.7 1.4zm4 25.9c-.5-1.5.9-3.1 1.3-6.6s-1-.1-1.9 2.4c.5-3.9-.8-1.4-1.6-1.7l-.7-.2.3-.6 1-2.2 1.8-.6.5-1.4a1.6 1.6 0 0 0 .5 1.3c.8.1.5-1.1 1.6-3.6l.2-.4c-.1 1 0 1.5 0 2.7a20.4 20.4 0 0 0 .3 3.4c-.6 2.1-1.6 5.6-2 6.8s-.7 2.1-1.2.6zm4.7 26.9v-.2l.6.4zm2.5-26.7l-.2.6-.2.5v-.4a9.9 9.9 0 0 0-.9-4.6l-1.3 5.2a5 5 0 0 1-.2-1.1 4.8 4.8 0 0 0-1.3-2.5 15.3 15.3 0 0 0 0 4 21.3 21.3 0 0 1-.2 4.3c-.7 1.1-1.5 2.1-1.5 1.7s0-1.7 2-12.6l.3-1.6v.7c.3 1.6.9 4.2.9 4.2l.9-2c.3-.5.4-1 2-3.8s1.1 1 1.9 1.1a18.8 18.8 0 0 0-1.8 3.9 16.4 16.4 0 0 0-.3 2.3zm4.3-1.6c2-10.1-1.1 1.4-2 3.6s-.8 2.1-1.2 1.3c.9-3.1 2.4-7.5 2.6-9.7s-.2-1.3-.7-.8a15.3 15.3 0 0 1 .8-2.4 7.2 7.2 0 0 1 1-1.6c1.8-.1 1.2 2.9 1.4 4.4s-.9 3.5-1.8 5.1zm3.5 7.5c-.1 1.2 0 2.1 0 2.3s-.1-2.6 0-4.8a7.5 7.5 0 0 0 0-1.1v-.2l.6-.9a19.9 19.9 0 0 0-.7 4.1 1 1 0 0 0 .2.5zm.9 7.4a19.4 19.4 0 0 1 0-5l.8 1.8zm.9-33.3c-1.1.7-1.5.5-1.8-.1a65.7 65.7 0 0 1-.1-7.7c.1-.8.4-2.5.7-4.4s1.1-2.6 1.7-3.8 1.6.6 1.6.6a65.7 65.7 0 0 1-2.6 7.9c-1.2 2.7-.8 2-.3 3.7s.5.4 1.3.7.7-.6 1.2-3.3a15.5 15.5 0 0 0-.1 4.6 6.1 6.1 0 0 1 .2.9v-.3c-.4-1.8.1 0-1.7 1.3zm2.4 35v.2c0 .1 0 0 .1-.2zm1.3-18.6l-2.3 4.3a24.4 24.4 0 0 0 1-4.1c.1-1.1-.2-1.2-.7-.7a24 24 0 0 0-.6-3.1l1.8-.5h.6l1.1 3a3.6 3.6 0 0 0-.8 1.2zm23.7-23.1c-.4 1.7-1 4.3-1.4 6.9 0-7.4 0-14.6.2-15.3a10 10 0 0 0 .2-1.6 3.7 3.7 0 0 0 1.3-1.6v.6a41.6 41.6 0 0 1 .6 7.4c-.3 1.4-.7 2.6-.9 3.6zm8.6 8.9c-.1.7-.1 1.7-.2 2.9-.5-2-.7-4.1-.1-5.4s.7-4.1.9-7.3c.2 3.9-.3 6.5-.6 9.9zm43.6-22.7a16 16 0 0 1-2-5.5 24.4 24.4 0 0 1 2.1 3.6 16.9 16.9 0 0 1-.1 2zm9.1 7.4c-1-1.8-1.7-3.2-2.2-4.5a20 20 0 0 1 1.3 2.2c.5.9 1 2.1 1.4 3.2zm10 20.2v-.3s-.2-.6-.8.6h-.1a1.7 1.7 0 0 0-.2-.5c-.7-1.2-2.3 1-2.1-3.1s.7-3 .8-5.1 1.1-.5-.1-2.7-.1-1.6-2.6-4.1a17.9 17.9 0 0 0-2.4-2 30.2 30.2 0 0 1-1.4-3.2c-.8-2.3-3.9-8.2-3.2-8.7a3.1 3.1 0 0 1 1.9-.7c1.3 2.6 1.4 3.5 2.1 4.8s2.8 4.5 2.8 4.5h.1l.3.8c2.1 5.3 3.8 10.9 4.6 13.2l-.2.9a6.1 6.1 0 0 0 .7 4.9l.7.6zm4.5-6.6a5.8 5.8 0 0 0 1.5-1.2l1.5 4.2c-2.8-1.2-4.6-2.2-3.1-3zm9.5 6.2h-.1c-1.6-.8-2.3-1.4-1.2-2a6.3 6.3 0 0 0 1.9-1.6l1.7 1.7a4.5 4.5 0 0 0-2.4 1.9zm.3-16c1.2 1 2.3 2 2 3.3l-.6-.6c-2-2-1.8-.2-1.5-2.6zm6.8 11.5c-.9 1.7-1.7 2.7-2 3.4a14.5 14.5 0 0 0-.7 2.2l-1.5-.4a6.6 6.6 0 0 0 .6-1.4c0-.4 1.3-2 1.1-3.8a30.5 30.5 0 0 0-1.1-5c-.4-1.1-.3-3.2-.8-6.4s.4-4.3-1.2-9.4-1.9-8.3-2.3-9.3-1.1-2.3-2.1-4.2.2-1.3.7.2c1.2 3.5 2.8 7.6 3.8 9.9s0 2 1.4 6.3c.5 1.6.9 3 1.2 4.3a19.2 19.2 0 0 0 0 2.9 15.2 15.2 0 0 0 1.5 4.6 4 4 0 0 1 1.3 2.7c0 1.3 1 1.7 0 3.4zm3.4-3.4v.4a14.2 14.2 0 0 1-1.1 1.9 12 12 0 0 0-.5-4.5l-.2-.8c1 .9 2 1.8 1.7 3zm2.9 6.4a9.6 9.6 0 0 1-.6 1.5 2.9 2.9 0 0 0 0-.4 26.4 26.4 0 0 0-1.1-4.7c-.4-1-.3-3-.8-6s.4-4-1.2-8.7c-.3-1-.6-1.9-.9-2.8s1.1-1.7 1.4-1 .1 2.6 1.9 9.1l.5 1.8a14.6 14.6 0 0 0 0 2.3 16.5 16.5 0 0 0 1.1 3.5 14.5 14.5 0 0 1-.3 5.4zm8.2 3.9a27.3 27.3 0 0 1-1.6 3.2c-.6-.5-2.4-6.5-2.5-8.5v-.4c.5-2.7.9-8.3.9-8.3s-.8-3.4-1.3-5.9c.5-.9.9-1.1 1.1-.5s.1 2.4 1.9 8.4l.5 1.8a5.1 5.1 0 0 0-.4 4.2 43.4 43.4 0 0 1 1.5 4.6 6.2 6.2 0 0 1-.1 1.4zm2.7 7.4c0 .6-1.7-.7-1.5-1.7v-.4l1.5.6a12.2 12.2 0 0 0-.1 1.5zm1.4-8.6v-.5c.4-1.7.7-4.6.8-6.3l.4 1c.7 2.3 2.1 6.6 2.1 6.6l-.4 1.6s-1.2 2.4-2.3-.4zm3.3 8.1a3.8 3.8 0 0 1-1.7-1.3v-.3a1.5 1.5 0 0 0-.8-1.6l1-.3 2.6-.9.7 2.5c0 .4-1.5 1.9-1.9 1.9zm7.9-2.1s-1.2 2.2-2.3-.4l-1.7-4.4.9-.3a7.8 7.8 0 0 1 2.2-.2l1.4 3.8z" transform="translate(-70.5 -70.5)"/><g><path d="M133.3 372.9a6.1 6.1 0 0 1-1.7 2.9q-1.5 1.4-6.4 1.6a29.5 29.5 0 0 1-5.9-.8 5.5 5.5 0 0 1-2.1-1 4.3 4.3 0 0 1-1.2-2.2 16 16 0 0 1-.4-4.2V351c0-3.5 1.3-5.4 3.9-5.4h3.1v-2.2l-8.4.4c-4.6-.2-6.6-.3-8.6-.5v2.3h1.3c1.8 0 2.9.2 3.3.7a4.4 4.4 0 0 1 1.1 2.6 31.6 31.6 0 0 1 .3 4.5v19.8a6.5 6.5 0 0 1-.7 3.3 2.9 2.9 0 0 1-2.6 1.1h-2.7v2.2c4-.2 8-.4 12.9-.4s10.7.1 15.3.4a56.6 56.6 0 0 1 2.6-8.6l-2.5-.9a11.9 11.9 0 0 1-.6 2.6zM156.6 352.5a4.4 4.4 0 0 0-3.6-1.8q-5.6.1-8.7 3a14.4 14.4 0 0 0-4.2 7.2 42.7 42.7 0 0 0-1.2 9.9 16.6 16.6 0 0 0 .8 5.8 5.4 5.4 0 0 0 2.2 2.9 7.3 7.3 0 0 0 3.7 1.1h1.1a10.9 10.9 0 0 0 7.4-2.5 13.6 13.6 0 0 0 4.1-6.5 30.5 30.5 0 0 0 1.2-8.9 28.2 28.2 0 0 0-.7-5.7 11.5 11.5 0 0 0-2.1-4.5zm-1.1 12.8a25.9 25.9 0 0 1-1.7 9.4c-1 2.6-2.8 3.9-5.1 3.9a4.5 4.5 0 0 1-3.5-1.7 8 8 0 0 1-1.5-3.7 36.6 36.6 0 0 1-.3-5.1 56.3 56.3 0 0 1 .6-6.4 22.5 22.5 0 0 1 1.7-6.2q1.2-2.7 3.2-2.8a5 5 0 0 1 4.8 3.5 21.6 21.6 0 0 1 1.6 8.2v.9zM181 351.2a4.1 4.1 0 0 0-3.1 1.6 10.3 10.3 0 0 0-1.4 2.2q-.8 1.4-1.5 3.2l-2 4.8-1.3 3.3.8-15.1a30.5 30.5 0 0 1-5 1.8 25.2 25.2 0 0 1-4.9.8v2.4l5.6-1.4-1.7 25h3.1s.2-1.2.7-3.1 1.1-4 1.8-6.4a63.1 63.1 0 0 1 2.6-6.8c2.2-4.7 4.3-7 6.2-7h1.5v-5H181zM200.5 370.1a7.7 7.7 0 0 1-3.4 6.4 6.1 6.1 0 0 1-3.4 1q-6-.3-6.3-9.5a19.1 19.1 0 0 1 .2-2.1 61.4 61.4 0 0 0 12.4-2.7 24.1 24.1 0 0 0 .7-5 10.8 10.8 0 0 0-.7-3.9 5.6 5.6 0 0 0-2.2-2.7 7.2 7.2 0 0 0-4-1 8 8 0 0 0-4.9 1.7 11.4 11.4 0 0 0-3.2 4.2 23.8 23.8 0 0 0-1.7 5.5 46.1 46.1 0 0 0-.8 6.5 18.6 18.6 0 0 0 .9 6 9.1 9.1 0 0 0 2.9 4.3 7.8 7.8 0 0 0 5 1.6 9.1 9.1 0 0 0 6.5-2.2 10.8 10.8 0 0 0 3-4.6 13.7 13.7 0 0 0 .7-3.7l-1.9-.2v.5zm-11.1-13.8q1.5-4.1 4.5-4.1a2.5 2.5 0 0 1 2.6 1.6 11.5 11.5 0 0 1 .6 3.9 6.3 6.3 0 0 1-1 3.6 4.4 4.4 0 0 1-2.9 1.9l-5.3.8v-.2a25.1 25.1 0 0 1 1.5-7.5zM242.5 377.1v-.5c0-.2-.1-.5-.1-.9s-.1-.8-.1-1c0-3.3.2-7.3.6-11.7s.9-8.4 1.5-12.4h-4.7c-2.4 3-4.6 5.6-6.6 8.7a108.7 108.7 0 0 0-5.7 9.9l1.1-18.6h-3.7a122.9 122.9 0 0 0-12.8 18.6l1.5-18.4a20.7 20.7 0 0 1-9 2.3v2.3l4.2-1-1.5 25.1h3.8a43.3 43.3 0 0 1 4.6-12.6 61.5 61.5 0 0 1 8.6-12.4l-1.6 25h3.2a56.9 56.9 0 0 1 2.2-6.6 60.9 60.9 0 0 1 3.2-6.8 64.2 64.2 0 0 1 4-6.4 55 55 0 0 1 4.4-5.5l-2.2 26.5 7.7-2.2v-2.2zM272.1 375.3a26.3 26.3 0 0 1-.6-6.1V351a1.7 1.7 0 0 0-.1-.7 7.5 7.5 0 0 1 .8-3.5 2.9 2.9 0 0 1 2.6-1.2h2.7v-2.2l-8.1.4-7.9-.4v2.2h4.4c.7.1 1.2.9 1.3 2.2a44.6 44.6 0 0 1 .3 5.4v19.9c0 3-1.2 4.3-3.3 4.3h-2.7v2.4a75 75 0 0 1 17 0v-2.4h-3.7a2.6 2.6 0 0 1-2.7-2.1zM302.4 350.4a7.7 7.7 0 0 0-5.1 2.4 24.6 24.6 0 0 0-4.3 5.6 50 50 0 0 0-3 6 15.7 15.7 0 0 0-1.1 3.4q0-1-.2-3.2t.3-4.4q.2-2.1.6-5.2c.3-2 .6-3.5.7-4.5a28.9 28.9 0 0 1-9.8 2.2v2.7l4.8-1.2c-.2 3.1-.4 7.2-.7 12.2s-.4 8.7-.6 11.2-.4 5.5-.7 9.1-.7 7.1-1.1 10.4l3.2-1.3.4-4.9q.4-3.4.8-6.4t1.1-6.3l1.1-5.8a42.2 42.2 0 0 1 3-8.9 40.8 40.8 0 0 1 4.2-7.3c1.4-1.9 2.9-2.8 3.6-2.8a1.9 1.9 0 0 1 1.6 2v6.7a35.8 35.8 0 0 1-1.6 9.5 11.4 11.4 0 0 1-3.6 6.1 9.6 9.6 0 0 1-3.7 1.3l.2 1.4a11.4 11.4 0 0 0 5.5-1.9 13 13 0 0 0 3.9-4.2 20.6 20.6 0 0 0 2.5-5.9 30.9 30.9 0 0 0 .9-7v-6.8a8.2 8.2 0 0 0-.6-3.3 2.5 2.5 0 0 0-2.3-.9zM320.9 364.5l-2.7-1.9a8.1 8.1 0 0 1-3.7-6.1 4.6 4.6 0 0 1 1.1-2.8 3.1 3.1 0 0 1 2.5-1.4 2.9 2.9 0 0 1 2.4 1.1 5.2 5.2 0 0 1 1.1 2.6v1.5h1v-6.3c1 0-.4-.1-1.4-.3l-2.6-.3a8 8 0 0 0-5.8 2.5 8.3 8.3 0 0 0-2 5.7 9.2 9.2 0 0 0 3.6 6.8l3.2 2.3a11.7 11.7 0 0 1 2.7 2.5 5.2 5.2 0 0 1 .9 3.1 4.6 4.6 0 0 1-1.6 3.7 6.1 6.1 0 0 1-4 1.4 5.5 5.5 0 0 1-2.7-.7 5 5 0 0 1-1.9-2 6.3 6.3 0 0 1-.7-3.1l.2-2.2a8 8 0 0 1 .1-1.2l-1.9-.2-.7 9.1a13.9 13.9 0 0 0 2.8 1.4 13.4 13.4 0 0 0 4.7.9h.1a8.5 8.5 0 0 0 5-1.6 10.3 10.3 0 0 0 3.2-3.7 8.9 8.9 0 0 0 1.1-4 8.4 8.4 0 0 0-4-6.8zM351.7 350.6h-3.9a33.8 33.8 0 0 1-2.9 8.6 60 60 0 0 1-4.8 8.3 68.5 68.5 0 0 1-5.6 7.1 93.1 93.1 0 0 1 2.6-23.6l-.8-.8a26.1 26.1 0 0 1-4.4 2 15.9 15.9 0 0 1-4.5.8v2.2l4.3-1.3-1.6 25.7h3.2c4.8-5 9.3-11.9 13.6-19.3a120.5 120.5 0 0 1-1.9 20.2 18.4 18.4 0 0 1 10.4-2.7v-2.4l-5 .7zM397.2 378.6l-.2-2.2-2.5.7v-.5-.9-1c0-3.3.2-7.3.6-11.7s.9-8.4 1.5-12.4h-4.7c-2.4 3-4.6 5.6-6.6 8.7a108.7 108.7 0 0 0-5.7 9.9l1.1-18.6H377a122.9 122.9 0 0 0-12.8 18.6l1.9-18.4a19 19 0 0 1-8.6 2.3v2.3l3.8-1-1.9 25.1h3.7a43.3 43.3 0 0 1 4.6-12.6 61.5 61.5 0 0 1 8.6-12.4l-1.6 25h3.2a56.9 56.9 0 0 1 2.2-6.6 60.9 60.9 0 0 1 3.2-6.8 64.2 64.2 0 0 1 4-6.4 55 55 0 0 1 4.4-5.5l-2.2 26.5z" transform="translate(-70.5 -70.5)"/></g></svg>