<svg id="Layer_3" data-name="Layer 3" xmlns="http://www.w3.org/2000/svg" viewBox="0 0 360 360"><defs><style>.cls-1{fill:#fff}.cls-2,.cls-4{fill:#363942}.cls-2{opacity:.3;isolation:isolate}.cls-3{fill:#fde2d7}.cls-5{fill:none;stroke:#fde2d8;stroke-linecap:round;stroke-linejoin:round;stroke-width:7px}.cls-6{fill:#feee7d}.cls-7{fill:#60c5ba}.cls-8{fill:#ef5285}.cls-9{fill:#a5dff9}</style></defs><title>lolcolors</title><path class="cls-1" d="M0 0h360v360H0z"/><ellipse class="cls-2" cx="180" cy="329" rx="121.6" ry="6.1"/><circle class="cls-1" cx="181.3" cy="177" r="146.6"/><path class="cls-3" d="M397.1 247.5a146.6 146.6 0 0 1-293.3 0c0 42.6 65.7 114.2 146.6 114.2s146.7-69.8 146.7-114.2z" transform="translate(-70.5 -70.5)"/><path class="cls-4" d="M250.5 399.5c-83.8 0-152-68.2-152-152s68.2-152 152-152 152 68.2 152 152-68.2 152-152 152zm0-293.3c-77.9 0-141.3 63.4-141.3 141.3s63.4 141.3 141.3 141.3 141.3-63.4 141.3-141.3-63.4-141.3-141.3-141.3z" transform="translate(-70.5 -70.5)"/><path class="cls-4" d="M249.4 340.6c-33.8 0-52.1-32.6-54.1-37.2a14.8 14.8 0 0 1 21.5-18.3s12.9 7.7 28.1 7.7c17.2 0 38.8-8.8 39.2-9a14.7 14.7 0 0 1 19.2 19.3c-2 4.9-19.9 37.5-53.9 37.5zM322.6 242.8a2.3 2.3 0 0 0 3.2.5 10.8 10.8 0 0 1 5.9-1.6 11.3 11.3 0 0 1 5.9 1.6 2.3 2.3 0 0 0 3.2-.5 10.9 10.9 0 0 0 1.8-8.6 11.2 11.2 0 0 0-8.4-8.4 10.9 10.9 0 0 0-13.2 10.7 8.6 8.6 0 0 0 1.6 6.3zM157.4 242.8a2.3 2.3 0 0 0 3.2.5 10.8 10.8 0 0 1 5.9-1.6 11.3 11.3 0 0 1 5.9 1.6 2.3 2.3 0 0 0 3.2-.5 10.9 10.9 0 0 0 1.8-8.6 11.2 11.2 0 0 0-8.4-8.4 10.9 10.9 0 0 0-13.2 10.7 8.6 8.6 0 0 0 1.6 6.3z" transform="translate(-70.5 -70.5)"/><path class="cls-5" d="M322.3 160.3c6.4 5.2 11.3 9.7 14.9 19.3M294.7 144s5.2 2 10.9 4.7" transform="translate(-70.5 -70.5)"/><path class="cls-4" d="M136.5 216.3a3.7 3.7 0 0 0 1.4 4.7 3.6 3.6 0 0 0 5-1.3c4.8-7.9 10.7-12.4 17.7-13.2a17.8 17.8 0 0 1 8.8.9 3.6 3.6 0 0 0 4.7-1.8v-.2a3.7 3.7 0 0 0-2-4.8c-.2 0-21.1-8.6-35.6 15.2q.2.5 0 .5z" transform="translate(-70.5 -70.5)"/><path class="cls-6" d="M150.8 360.8a18.6 18.6 0 0 1-21.1 18.1c-10.6-1.3-17.9-11.8-16.1-22.4 1.4-8.4 7.9-16.3 17.5-30.4a1.8 1.8 0 0 1 3 .2c9.7 16.4 17 24.6 16.7 34.5z" transform="translate(-70.5 -70.5)"/><path class="cls-7" d="M153.5 335.5a18.8 18.8 0 0 1-22.4 16.5c-10.6-2.1-17-13.2-14.1-23.6 2.1-8.2 9.1-15.6 20.1-28.8a1.8 1.8 0 0 1 3 .4c7.8 16.9 14.4 25.7 13.4 35.5z" transform="translate(-70.5 -70.5)"/><path class="cls-8" d="M156.9 312.6a18.9 18.9 0 0 1-25.4 11.5c-9.8-4.3-13.8-16.5-9.1-26 3.8-7.7 12.2-13.4 25.4-24.2a1.7 1.7 0 0 1 2.9 1.1c4.6 18.3 9.2 28.1 6.2 37.6z" transform="translate(-70.5 -70.5)"/><path class="cls-9" d="M162.8 286.5a18.9 18.9 0 0 1-25.4 11.5c-9.8-4.3-13.8-16.5-9.1-26 3.8-7.7 12.2-13.4 25.4-24.2a1.7 1.7 0 0 1 2.9 1.1c4.4 18.2 9.2 28.3 6.2 37.6z" transform="translate(-70.5 -70.5)"/><path class="cls-6" d="M347.5 360.8a18.6 18.6 0 0 0 21.1 18.1c10.6-1.3 17.9-11.8 16.1-22.4-1.4-8.4-7.9-16.3-17.5-30.4a1.8 1.8 0 0 0-3 .2c-9.7 16.4-17 24.6-16.7 34.5z" transform="translate(-70.5 -70.5)"/><path class="cls-7" d="M344.8 335.5a18.8 18.8 0 0 0 22.4 16.5c10.6-2.1 17-13.2 14.1-23.6-2.1-8.2-9.1-15.6-20.1-28.8a1.8 1.8 0 0 0-3 .4c-7.8 16.9-14.4 25.7-13.4 35.5z" transform="translate(-70.5 -70.5)"/><path class="cls-8" d="M341.4 312.6a18.9 18.9 0 0 0 25.4 11.5c9.8-4.3 13.8-16.5 9.1-26-3.8-7.7-12.2-13.4-25.4-24.2a1.7 1.7 0 0 0-2.9 1.1c-4.5 18.3-9.2 28.1-6.2 37.6z" transform="translate(-70.5 -70.5)"/><path class="cls-9" d="M335.5 286.5a18.9 18.9 0 0 0 25.5 11.4c9.8-4.3 13.8-16.5 9.1-26-3.8-7.7-12.2-13.4-25.4-24.2a1.7 1.7 0 0 0-2.9 1.1c-4.5 18.3-9.3 28.4-6.3 37.7z" transform="translate(-70.5 -70.5)"/><path class="cls-4" d="M361.5 216.3a3.7 3.7 0 0 1-1.4 4.7 3.6 3.6 0 0 1-5-1.3c-4.8-7.9-10.7-12.4-17.7-13.2a17.8 17.8 0 0 0-8.8.9 3.6 3.6 0 0 1-4.7-1.8v-.2a3.7 3.7 0 0 1 2-4.8c.2 0 21.1-8.6 35.6 15.2a.5.5 0 0 0 0 .5z" transform="translate(-70.5 -70.5)"/></svg>