<svg id="Layer_3" data-name="Layer 3" xmlns="http://www.w3.org/2000/svg" viewBox="0 0 360 360"><defs><style>.cls-1{fill:#fff}.cls-2{fill:#0e0e0e}.cls-3{fill:#94be46}</style></defs><title>markdunkley</title><path class="cls-1" d="M0 0h360v360H0z"/><circle class="cls-2" cx="180" cy="180" r="132"/><path class="cls-3" d="M214.5 297.1q-12.8-16-12.8-46.6 0-28.9 13.6-45.7t36.5-16.9q16.1 0 32.5 8.3l8.3-16.6q-17.4-9.2-40.8-9.2-33 0-52.1 21.5t-19.1 58.4q0 38.4 17.5 59.3c11.6 13.9 28.3 20.9 50.3 20.9 15.1 0 28-2.1 38-6.3V307c-13 4.1-25.5 6.2-34.7 6.2-16.3 0-28.7-5.4-37.2-16.1z" transform="translate(-70.5 -70.5)"/></svg>