<svg data-name="Layer 3" xmlns="http://www.w3.org/2000/svg" viewBox="0 0 337 196"><title>markdownlipsum</title><path d="M337 30.4A30.4 30.4 0 0 0 306.6 0H30.4A30.4 30.4 0 0 0 0 30.4v135.2A30.4 30.4 0 0 0 30.4 196h276.2a30.4 30.4 0 0 0 30.4-30.4V30.4zm-20 135.3a10.4 10.4 0 0 1-10.4 10.4H30.4A10.4 10.4 0 0 1 20 165.7V30.4A10.4 10.4 0 0 1 30.4 20h276.2A10.4 10.4 0 0 1 317 30.4v135.2z"/><path d="M148.3 51l-30.5 35.2L87.3 51H68v95h23V85.8l25 31.2h3.6L146 85.8V146h24V51h-21.7zM246 110V51h-23v59h-25.8l36.8 36.8 36.8-36.8H246z"/></svg>