<svg id="Layer_3" data-name="Layer 3" xmlns="http://www.w3.org/2000/svg" viewBox="0 0 360 360"><defs><style>.cls-1{fill:#ef0000}.cls-2{fill:#fff}</style></defs><title>mediaqueri</title><path class="cls-1" d="M0 0h360v360H0z"/><path class="cls-2" d="M146.5 263.6c0 1.1.6 1.2 1.5 1.2 3.2 0 5-.2 5.9-.2l7.5.3c.8 0 1.1-.1 1.1-1.3a1.4 1.4 0 0 0-1.2-.8c-5.5-.6-5.8-4.4-5.8-8.2v-3.2c0-5.5.7-8.5.9-19 0-2.2.3-2.9.7-2.9s.5.1 14 27.6c2.1 4.2 2.5 6.8 3.9 6.8s.5-.1 6-11.2l10-20.2c1.3-2.6 2.2-4.5 2.8-4.5s.6 1.1.6 3.1c0 .2 1 15.6 1 23.8a28.9 28.9 0 0 1-.3 4.6c-1.2 4.9-4.7 2.6-4.7 4.7 0 .4.1 1 1.3 1s3.7-.4 7.5-.4 3.5.3 7.3.3c1.2 0 1.6 0 1.6-1.2a1.3 1.3 0 0 0-1.3-1c-4.7 0-6-1.2-6-11.2 0-6.6-.9-10.6-.9-27.5 0-6.3 1-7.6 3.2-7.8s2.4-.7 2.4-1.6-.7-.9-1.2-.9c-4.5 0-3.1-.1-6.2-.1s-2.2 1-2.7 1.9.2.3-7.4 16.2l-9.3 19.2c-.8 1.7-1.6 4-2.4 4S163.8 229.7 157 215a1.8 1.8 0 0 0-1.7-1h-5.4l-3.8-.3a1.1 1.1 0 0 0-1.3 1.1 1 1 0 0 0 .9 1.1c6.4 1.5 7.5 4.5 7.5 13.8 0 6.6-.9 26.6-1.4 28.7-1.4 6.1-5.3 3.2-5.3 5.2zM226.6 266c8.4 0 12.7-6.2 12.7-7a.8.8 0 0 0-.7-.6c-1.2 0-4.3 3.2-9.4 3.2s-12.2-4.8-12.2-14.4c0-.7 0-.6.8-.6h18.5c2 0 3-.5 3-1.5s-2.4-11.5-13.2-11.5c-8.8 0-14.6 7.7-14.6 17.1s7.4 15.3 15.1 15.3zm-1.8-30.7c5.7 0 7.8 6 7.8 7.9s-.1.9-1.5.9-9.4.4-12.7.4a.8.8 0 0 1-.9-1c-.1-2.5 2.1-8.2 7.3-8.2zM259.1 265.6c6.8 0 9.7-4.7 10.5-4.7s.6.7.6 1.2.2 2 .2 2.7a.7.7 0 0 0 .8.8c.9 0 2.4-.6 4.5-.7 5.3-.4 5.5-.9 5.5-1.3s-1.9-1.2-3.1-1.5-2.5-2.2-2.5-8.7.1-13.3.1-26.3c0-6 .9-14.1.9-15.6s-.4-1.4-.9-1.4-1.7.7-2.6 1.1c-5.7 2.6-7.9 2.4-7.9 3.5 0 .5-.5 1 1 1h.8c3.8 0 3.8 3 3.8 7.9 0 2.6-.1-.1-.1 9.2 0 2.2-.1 2.5-.4 2.5s-5-2.1-8.2-2.1c-11.7 0-17.5 8.9-17.5 17.5s5.1 14.9 14.5 14.9zm1-30.5c2.6 0 6.3 1.8 8.6 3.2s2 1.6 2 5.5c0 1.2 0 0-.1 12.3 0 3.3-4.4 5.7-8.6 5.7-7.5 0-12-8.1-12-14.7s3.7-12 10.1-12zM293 226.2c.6 0 3.4-2.2 3.4-4s-1.7-4.1-3.3-4.1-3.6 3-3.6 4 1.5 4.1 3.5 4.1zM286.2 237.9c1.6.6 4.3-.4 4.3 5.5v6.3c0 12.5-.2 12-3 13a1.7 1.7 0 0 0-1.1 1.4c0 .7 1.1.9 2.9.9h11.3a1.1 1.1 0 0 0 1.2-1.2c0-1-.9-1-2.2-1.1s-4-.6-4-5.3v-19.6c0-1.2.4-2.6.4-3.5a1.2 1.2 0 0 0-1.1-1.4c-1.2 0-1 .2-3.6 1.3s-5.8 1.7-5.8 2.9a1.1 1.1 0 0 0 .7.8zM335 263.7c0-2.6-5.5 1.7-5.5-7.8 0-5.4.4-4 .4-13.4 0-2.7 0-9.1-10.8-9.1-6.2 0-12.1 4.2-12.1 7.9s3.6 2.8 4.5 2.8 1.3-.2 1.3-1.4-.3-1.5-.3-2.6.6-4.3 5.2-4.3c2 0 7 1.5 7 7.8 0 1.2-.1 2.3-.1 3.7s-.4 1-1.2 1.2c-9 1.6-16.6 2.3-16.6 10.1a6.9 6.9 0 0 0 1.8 5c1.7 1.7 3.6 2.2 6.7 2.2 5.2 0 9.2-4.5 9.5-4.5s1.6 4 5.8 4 4.4-.6 4.4-1.6zm-10.5-8.2c0 2.4 0 7.3-6.6 7.3-3.6 0-5.5-2.2-5.5-5.4 0-6 6.3-6.8 10.9-7.6h.7a.5.5 0 0 1 .5.6v5.2zM210.4 331.4c-2 0-1.9 2.4-6.7 2.4s-16.3-5-22.1-7.6a1.9 1.9 0 0 1-1.4-1.4c0-.3.8-.4 5.1-1.7 9.9-2.7 15.4-15 15.4-25 0-7.8-5.1-25.6-26.1-25.6s-27.9 12.4-27.9 27.6A22.6 22.6 0 0 0 156 319a4.6 4.6 0 0 1 1.6 1.4c0 .3-.8.7-1.6 1.3s-4.6 5.4-4.6 10c0 1.5.8 3 1.8 3s1.3-.9 1.3-1.9v-1.3c0-3.4 1.6-7.6 6.5-7.6s27.1 14.7 37.6 14.7c6.2 0 12.5-2.9 12.5-6.3a1.1 1.1 0 0 0-.7-.9zm-51.8-17.7a29.9 29.9 0 0 1-5.3-17.1c0-14.7 9.2-21 18.9-21 12.7 0 23 12 23 27.5 0 8.9-5.8 15.2-9 16.8a23.3 23.3 0 0 1-10.4 2.7c-4.7 0-13.1-3.3-17.2-9zM242.1 322h-1.9c-1.6 0-2-1.8-2-7.6 0-9.8.4-17.9.4-18.4s-.2-2-1.7-2-1.5.4-2.6.4c-4.9 0-6.3.6-6.3 1.7s.8.9 1.6.9c3.1.3 3.3 1.9 3.3 6.3v9.9c0 6.7-2.8 8.8-8.8 8.8-3.2 0-8-2.1-8-11.6 0-7.6.4-8.9.4-12.7s0-3.6-1.7-3.6l-4.1.4c-4.2 0-4.8.8-4.8 1.8a1.1 1.1 0 0 0 1.3 1.2h1.3c.7 0 2.2.8 2.2 3s-.1 1.2-.1 12.9c0 8.8 4.4 12.5 11.6 12.5s9.8-4.6 10.4-4.6.4 3.7 1.3 3.7 5.1-.8 7.3-.8 2.7-.1 2.7-1.2-.7-1-1.8-1zM275.4 318.3c-1.2 0-4.3 3.2-9.4 3.2s-12.2-4.8-12.2-14.4c0-.7 0-.6.8-.6h18.5c2 0 3-.5 3-1.5s-2.4-11.5-13.2-11.5c-8.8 0-14.6 7.7-14.6 17.1s7.5 15.3 15.2 15.3 12.7-6.2 12.7-7a.8.8 0 0 0-.8-.6zm-13.8-23c5.7 0 7.8 6 7.8 7.9s-.1.9-1.5.9-9.4.4-12.7.4a.8.8 0 0 1-.9-1c-.1-2.5 2.1-8.2 7.3-8.2zM303.4 294.6c-1.4-.9-1.9-1.4-3.4-1.4-4.7 0-7 5.8-7.6 5.8s-.6-.1-.6-3.1c0-.7.1-1.4.1-1.9a1.2 1.2 0 0 0-.9-1.4l-1 .3c-5.9 2.8-9.5 2.6-9.5 4.3a1.1 1.1 0 0 0 1.4 1.2h.8c3.2 0 3.6 1.4 3.6 2.7s.1 0 .1 13.8c0 5.7-.1 7.2-2.7 7.8a1.1 1.1 0 0 0-.9 1.2c0 .5 0 .9 1.6.9s3.6-.4 7.5-.4c1.7 0 3.8.4 6.1.4a.9.9 0 0 0 .9-1.2c0-1.1-1.9-.9-3.7-1.2a4.1 4.1 0 0 1-3.5-3.9 58.1 58.1 0 0 1-.2-7.6v-7.5c0-1.5 2.6-4.5 5.4-4.5s3.9 1.7 5.5 1.7a4.1 4.1 0 0 0 2.5-4 2.7 2.7 0 0 0-1.5-2zM322.6 322.8c-1.8-.1-4.1-.6-4.1-5.3v-19.7c0-1.2.5-2.6.5-3.5a1.2 1.2 0 0 0-1.1-1.4c-1.2 0-1 .2-3.6 1.3s-5.8 1.7-5.8 2.9a1.1 1.1 0 0 0 .8.7c1.6.6 4.2-.4 4.2 5.5v6.3c0 12.5-.2 12-3 13a1.6 1.6 0 0 0-1.1 1.4c0 .7 1.1.9 2.9.9h11.3a1.1 1.1 0 0 0 1.2-1.2c0-.8-1-.8-2.2-.9zM319.5 282.2c0-1.4-1.7-4.1-3.3-4.1s-3.6 3-3.6 4 1.4 4.1 3.5 4.1 3.4-2.2 3.4-4zM356 318.3c-1.2 0-4.3 3.2-9.4 3.2s-12.2-4.8-12.2-14.4c0-.7 0-.6.8-.6h18.5c2 0 3-.5 3-1.5s-2.4-11.5-13.2-11.5c-8.8 0-14.6 7.7-14.6 17.1S336.3 326 344 326s12.7-6.2 12.7-7a.8.8 0 0 0-.7-.7zm-13.8-23c5.7 0 7.8 6 7.8 7.9s-.1.9-1.5.9-9.4.4-12.7.4a.8.8 0 0 1-.9-1c0-2.5 2.1-8.2 7.3-8.2zM376.3 305.7c-3.5-1.3-7.7-2.2-7.7-6.5 0-2.2 2.1-3.7 4.8-3.7 6.5 0 7.5 6.6 8.7 6.6s1.3-.5 1.3-2.1-.3-4.1-.3-4.3-.7-2.7-8.2-2.7c-5.6 0-10.9 3.4-10.9 8.9 0 10.4 16.1 7.3 16.1 16 0 4.1-4 5.1-6.3 5.1-4.5 0-6.8-4.8-7.5-6.6s-.4-3.1-1.9-3.1-1.1.8-1.1 1.9v6.3c0 1.8.9 1.7 2.6 2.3a22.6 22.6 0 0 0 8.1 1.9c4.3 0 6.1-1.4 7.1-2.2s3.8-4.8 3.8-7.5c.2-5.6-1.7-7.8-8.6-10.3z" transform="translate(-70.5 -70.5)"/></svg>