<svg id="Layer_3" data-name="Layer 3" xmlns="http://www.w3.org/2000/svg" xmlns:xlink="http://www.w3.org/1999/xlink" viewBox="0 0 346.2 313.3"><defs><style>.cls-1{fill:none}.cls-2{fill:url(#linear-gradient)}.cls-3{fill:url(#linear-gradient-2)}.cls-4{fill:url(#linear-gradient-3)}.cls-5{fill:url(#linear-gradient-4)}.cls-6{fill:url(#linear-gradient-5)}.cls-7{clip-path:url(#clip-path)}.cls-8{fill:#fff}.cls-9{fill:#f2f2f2}</style><linearGradient id="linear-gradient" x1="75.21" y1="-335.32" x2="75.21" y2="-181.17" gradientTransform="matrix(1.98 0 0 -1.98 24.18 -358.72)" gradientUnits="userSpaceOnUse"><stop offset="0" stop-color="#2075bc"/><stop offset="1" stop-color="#29aae1"/></linearGradient><linearGradient id="linear-gradient-2" x1="9.71" y1="-335.32" x2="9.71" y2="-181.17" gradientTransform="matrix(1.98 0 0 -1.98 24.18 -358.72)" gradientUnits="userSpaceOnUse"><stop offset="0" stop-color="#0a6aa8"/><stop offset="1" stop-color="#1699c8"/></linearGradient><linearGradient id="linear-gradient-3" x1="53.29" y1="-335.32" x2="53.29" y2="-181.17" xlink:href="#linear-gradient"/><linearGradient id="linear-gradient-4" x1="97" y1="-335.32" x2="97" y2="-181.17" xlink:href="#linear-gradient-2"/><linearGradient id="linear-gradient-5" x1="140.58" y1="-335.32" x2="140.58" y2="-181.17" xlink:href="#linear-gradient"/><clipPath id="clip-path" transform="translate(-77.4 -97.9)"><path class="cls-1" d="M374 256.4c-3.2-9.2-2.2-24.8-3.8-27-10.2-14-46.9-16.2-63.6-34.5 2.7-9.2-3.2-16.2-9.2-22.1-9.2-6.5-21.6-3.8-31.3-1.1-10.8-2.2-21-6.5-31.8-9.2-23.7-2.7-47.5 14-47.5 14-17.3 10.8-43.7 33.4-56.6 46.4 3.2.5 6.5-2.2 10.2-2.2l24.8-6.5c-10.2 8.6-31.8 23.2-38.3 35.1 7.5-2.7 23.7-11.3 31.8-12.4-7 5.9-21.6 17.8-26.4 25.3.5.5 0 1.1 0 1.6 5.9-3.2 20.5-11.9 27.5-12.4-7 7-19.4 21-22.1 30.2 5.9-3.8 21-11.9 27.5-14-1.6 3.8-4.9 6.5-7 9.7-3.2 4.9-10.2 10.8-10.2 16.7a84.4 84.4 0 0 1 18.3-12.4c-2.7 5.9-8.1 10.8-9.7 18.3 4.3-4.3 12.4-6.5 17.8-8.1l-.5.5c-.5.5-6.5 4.9-10.8 9.7 3.8 0 1.1-.5 5.9.5h2.7a32 32 0 0 1-4.3 2.2l-7 3.8c10.2 12.9 22.6 23.7 37.2 30.7a105.7 105.7 0 0 0 60.4 9.7 13.7 13.7 0 0 0-1.1-3.8 12.7 12.7 0 0 1-1.1-4.3c7-12.9 3.2-35.6 21.6-44.8 12.4-6.5 13.5-9.7 27.5-7 7.5 1.6 24.3 7 31.8 5.4a181.8 181.8 0 0 0 17.3-9.9c7.5 1.6 10.2.5 12.9-3.2-2.7 3.8 4.9-14 8.1-20.5z"/></clipPath></defs><title>mozilla</title><path class="cls-2" d="M259.4.5V0v.5l-.6-.5v.5l-85.7 34L86.8.5V0l-.5.5V0v.5L0 35.1v270.1l86.3-32.9 86.8 32.9 86.3-32.9 86.8 32.9V35.1L259.4.5z"/><path class="cls-3" d="M0 35.1v270.1l86.8-32.9V0L0 35.1z"/><path class="cls-4" d="M173.1 35.1v270.1l-86.8-32.9V0l86.8 35.1z"/><path class="cls-5" d="M173.1 35.1v270.1l86.3-32.9V0l-86.3 35.1z"/><path class="cls-6" d="M346.2 35.1v270.1l-87.4-32.9V0l87.4 35.1z"/><g><g class="cls-7"><ellipse class="cls-8" cx="173.1" cy="159.6" rx="160.7" ry="108.9"/></g><g class="cls-7"><path class="cls-9" d="M2.2 39.9v273.4l85.7-34V5.4L2.2 39.9z"/></g><g class="cls-7"><path class="cls-8" d="M173.6 39.9v273.4l-86.2-34V5.4l86.2 34.5z"/></g><g class="cls-7"><path class="cls-9" d="M173.6 39.9v273.4l85.2-34V5.4l-85.2 34.5z"/></g><g class="cls-7"><path class="cls-8" d="M345.1 39.9v273.4l-86.3-34V5.4l86.3 34.5z"/></g></g></svg>