<svg id="Layer_3" data-name="Layer 3" xmlns="http://www.w3.org/2000/svg" viewBox="0 0 360 360"><defs><style>.cls-1{fill:#fff}.cls-2{fill:#0af}</style></defs><title>myfonts</title><path class="cls-1" d="M0 0h360v360H0z"/><path class="cls-2" d="M211 204c1.2 0 1.7.8 1.7 2.5a17.6 17.6 0 0 1-1.2 5.5 47.3 47.3 0 0 1-2.8 6.4L193 250.1a22.2 22.2 0 0 1-3.2 4.9 4.5 4.5 0 0 1-3.3 1.5q-3 0-5.2-4.1a19.9 19.9 0 0 1-2.2-9.6q0-1 .1-2.4t.3-3.8q.2-2.5.7-6.2t1.2-9.6q.7-6.5 1.4-11.7a71.3 71.3 0 0 0 .7-8.6 11.1 11.1 0 0 0-.4-3.6l-15.2 46.6a51.6 51.6 0 0 1-3.5 8.3 4.7 4.7 0 0 1-4.4 2.5 7 7 0 0 1-4.1-1.4 11.5 11.5 0 0 1-3.3-3.8 23.5 23.5 0 0 1-2.2-5.7 27.1 27.1 0 0 1-.9-7q0-8.3.5-16.2t.5-14.4q0-6.2-.9-7.4-.7 2-1.5 4.9t-1.7 6.6q-.9 3.8-2.1 8.8l-2.6 11.5-4.5 22a55.1 55.1 0 0 1-2.7 8.4 27.3 27.3 0 0 1-4.3 7.2 19.3 19.3 0 0 1-6.5 5 21.6 21.6 0 0 1-9.4 1.9 47.2 47.2 0 0 1-12.4-1.6 37 37 0 0 1-10.3-4.4 23.8 23.8 0 0 1-7-6.7 14.8 14.8 0 0 1-2.6-8.5 11.2 11.2 0 0 1 3.9-8.6q3.9-3.5 11.3-3.6a28.4 28.4 0 0 1 8.5 1.2 23.3 23.3 0 0 1 6.2 2.9 14.2 14.2 0 0 1 3.8 3.7 6.6 6.6 0 0 1 1.3 3.6q0 2.6-2.8 2.6a41.2 41.2 0 0 1-5.4-.5 51.7 51.7 0 0 0-7.3-.5 24.8 24.8 0 0 0-8.4 1.3 17.2 17.2 0 0 0 3.8 3.8 29 29 0 0 0 5.7 3.3 43.2 43.2 0 0 0 6.4 2.3 26.8 26.8 0 0 0 6.9.9 9.6 9.6 0 0 0 6.2-1.9 14.7 14.7 0 0 0 4-6.2 74.3 74.3 0 0 0 3.1-11.6l3.6-18q3-14.8 5.5-23.7a94.2 94.2 0 0 1 4.6-13.6q2.2-4.7 4.2-6.2a6.9 6.9 0 0 1 4.2-1.5 8.7 8.7 0 0 1 4.6 1.5 14.7 14.7 0 0 1 4.1 4 20.9 20.9 0 0 1 2.9 6.1 23 23 0 0 1 .9 7.6l-1.3 29.9 12.7-39.3q1.4-4.4 2.5-7a17.2 17.2 0 0 1 2.2-4.1 5.4 5.4 0 0 1 4.9-2.4 8.3 8.3 0 0 1 4.1 1.2 15.6 15.6 0 0 1 4.1 3.4 17.3 17.3 0 0 1 3 5.2 18.6 18.6 0 0 1 1.2 6.7q0 2.2-.2 4.8t-.7 6.7q-.5 4.1-1.3 10t-2 14.8l9-18q1.7-3.5 3-5.6a15.8 15.8 0 0 1 2.2-3.1 5.2 5.2 0 0 1 1.9-1.3 5.9 5.9 0 0 1 1.9-.3z" transform="translate(-70.5 -70.5)"/><path class="cls-2" d="M208.8 218.4q-.1-2.2-.4-4.4t-.2-4.2a12.8 12.8 0 0 1 .6-4.1 2.2 2.2 0 0 1 2.2-1.7 8.4 8.4 0 0 1 4.1 1.1 11.5 11.5 0 0 1 3.4 2.9 15.7 15.7 0 0 1 2.3 4 11.6 11.6 0 0 1 .9 4.4 55.8 55.8 0 0 1-1.1 9.1q-1.1 6-3.6 18.2l6.7-13.5a49.8 49.8 0 0 1 3.6-6.2 4.4 4.4 0 0 1 3.8-1.7 6 6 0 0 1 4.3 1.7 12.3 12.3 0 0 1 2.9 4.7 32.1 32.1 0 0 1 1.6 6.9 64.3 64.3 0 0 1 .5 8.3 139.4 139.4 0 0 1-1.6 20.7 129.7 129.7 0 0 1-4.9 20.7 101.6 101.6 0 0 1-8.3 19 67.7 67.7 0 0 1-12 15.5 54.3 54.3 0 0 1-15.7 10.5 48.2 48.2 0 0 1-19.7 3.9q-9.1 0-14.9-3t-5.8-8.2c0-1.4.4-2.2 1.2-2.4a3.4 3.4 0 0 1 2.5.2l5.1 2 4.4 1.2 4 .6h4.3a32.9 32.9 0 0 0 16-3.9 43.3 43.3 0 0 0 12.7-10.6 67.8 67.8 0 0 0 9.5-15.6 128 128 0 0 0 6.7-18.9 165.1 165.1 0 0 0 4.1-20.4q1.4-10.5 1.9-20.5l-9.9 19.7q-2.5 4.8-4 7.1a4.3 4.3 0 0 1-3.6 2.3 6 6 0 0 1-2.6-.7 7.9 7.9 0 0 1-2.6-2.2 12.6 12.6 0 0 1-2-3.7 15.4 15.4 0 0 1-.8-5.2 65.3 65.3 0 0 1 .7-9.1q.7-5.1 1.5-10l1.5-8.8a39.5 39.5 0 0 0 .7-5.7zM293.5 213.7c.6 0 .8.5.7 1.5a7 7 0 0 1-1.5 3.3 12.5 12.5 0 0 1-3.9 3.3 13.1 13.1 0 0 1-6.7 1.5l-6.7.3-7.1.4-3.3 22.3a87.2 87.2 0 0 1-2.4 11.8 39.9 39.9 0 0 1-2.9 7.5 10.9 10.9 0 0 1-3.3 4 6.5 6.5 0 0 1-3.6 1.2 3.3 3.3 0 0 1-2.8-1.1 5.5 5.5 0 0 1-.8-3.3q0-1 .4-4.3l.9-8.8 3.5-28.7-4.1.2h-2.7a3.7 3.7 0 0 1-2.6-.7 2.5 2.5 0 0 1-.7-1.9 6.3 6.3 0 0 1 2.9-5.1q2.9-2.2 8.4-2.5l2.3-18.9h-16.1a12.9 12.9 0 0 1-5.3-.7 11.9 11.9 0 0 1-3.7-2.2 9.5 9.5 0 0 1-2.2-2.8 5.7 5.7 0 0 1-.7-2.5q0-2.5 1.8-3a17.7 17.7 0 0 1 4.3-.7l23.5-.7q.6-4.9 1.2-8.2a26.8 26.8 0 0 1 1.3-5.1 6.4 6.4 0 0 1 1.6-2.5 2.9 2.9 0 0 1 1.9-.7q3.8 0 5.8 4.6a31.8 31.8 0 0 1 2.3 11.5l58.2-1.6a6.9 6.9 0 0 1 3.2.4q1.2.5 1.2 2.5a9.6 9.6 0 0 1-.9 3.8 12.7 12.7 0 0 1-2.5 3.8 13.3 13.3 0 0 1-4 2.8 11.8 11.8 0 0 1-5.1 1.1H272l-2.5 18.6 8-.3 7.5-.3 5.7-.2h2.6z" transform="translate(-70.5 -70.5)"/><path class="cls-2" d="M298.7 219a12.1 12.1 0 0 1 3-2.2 7 7 0 0 1 3.3-.9 3.5 3.5 0 0 1 2.3.9 4.6 4.6 0 0 1 1.3 2.9q.3 1.7.5 5.1t.2 5.7a53.2 53.2 0 0 1-1.2 11.6 33.7 33.7 0 0 1-3.7 9.7 20.4 20.4 0 0 1-6.1 6.7 14.6 14.6 0 0 1-8.4 2.5 12.3 12.3 0 0 1-9.6-4q-3.6-4-3.6-11.8a41.8 41.8 0 0 1 1.7-11.1 67.8 67.8 0 0 1 3.8-10.7 19.6 19.6 0 0 1 5.1-6.8q3.3-2.8 6.2-2.8t4 1.8a8.1 8.1 0 0 1 1.2 3.4zm-8.7 26.6a11.6 11.6 0 0 0 .7 4.6 2.3 2.3 0 0 0 2.2 1.7q1.7 0 3-3.1t1.2-10.2q0-3.8-.2-7.5t-.2-5.4q-2 4.2-4.4 9.4a25.7 25.7 0 0 0-2.3 10.5z" transform="translate(-70.5 -70.5)"/><path class="cls-2" d="M366.1 220.8q1.2-2 1.7-1.5c.4.4.6 1.4.6 2.9a32.7 32.7 0 0 1-.9 6.8 39.1 39.1 0 0 1-3.3 8.8q-1.6 3.3-3.4 6.7l-3.4 6.3-3 5.2a40 40 0 0 1-2.3 3.5q-2.2 2.9-3.4 4.3a4 4 0 0 1-3.1 1.4 8 8 0 0 1-3-.7 10.1 10.1 0 0 1-5.1-4.6 7.4 7.4 0 0 1-.9-3.6 48.2 48.2 0 0 1 .4-5q.4-3.6 1-7.6t1-7.9a56.9 56.9 0 0 0 .4-6l-7.9 16q-3 6-4.9 9.1a21.5 21.5 0 0 1-2.9 4.1 3 3 0 0 1-2 .9 5.7 5.7 0 0 1-4.4-2.3 8.5 8.5 0 0 1-2-5.7q0-2.8.5-8.3t1.1-11.4q.6-5.9 1.2-11t.6-7.5l-2.4 1-3 1.5-2.8 1.7-2 1.5a9.1 9.1 0 0 1-3.5 1.8 14.2 14.2 0 0 1-4.1.7 4.6 4.6 0 0 1-2.8-.7q-.9-.7.5-2.5a45.5 45.5 0 0 1 6.3-6.2 47.6 47.6 0 0 1 6.8-4.6 36.8 36.8 0 0 1 6.6-2.9 18.9 18.9 0 0 1 5.7-1q3.3 0 5.5 3.6a16.2 16.2 0 0 1 2.2 8.6c0 .9-.1 2-.1 3.3s-.2 2.8-.4 4.3-.4 3-.7 4.6l-.7 4.4 5.9-11.6q2.2-4.4 3.6-6.7a11.6 11.6 0 0 1 2.4-3.2 3.7 3.7 0 0 1 2.3-.8 7.8 7.8 0 0 1 2.9.7 10.3 10.3 0 0 1 3 1.9 9.6 9.6 0 0 1 2.2 3 9.1 9.1 0 0 1 .9 4q0 1.9-.3 5t-.7 6.9l-.9 8q-.5 4.2-1.1 8.1l4.3-6.8 4.7-7.8 4.2-7.3z" transform="translate(-70.5 -70.5)"/><path class="cls-2" d="M400.8 214.6q2-3.5 3.5-3.5t1.3 3.3a27.1 27.1 0 0 1-1 6.5 31.5 31.5 0 0 1-3 7.5q-8 14.2-14.9 21.7t-11.8 7.5a8.8 8.8 0 0 1-4.2-1.1 11.6 11.6 0 0 1-3.5-2.8 14.5 14.5 0 0 1-2.3-3.9 11.6 11.6 0 0 1-.9-4.4c0-1.1 0-2.3.1-3.7s.1-2.7.2-3.8q.3-4.4.7-8.6t1.2-8.5l1.7-11.9-8.6-.7-6.2-.6-3.3-.6a2.4 2.4 0 0 1-1.4-.7 1.8 1.8 0 0 1-.3-1q0-1.7 2.8-4t9-2.2h9.6l.6-3.3a43.7 43.7 0 0 1 1.8-6.9 69.2 69.2 0 0 1 2.6-6.5 21.6 21.6 0 0 1 3-4.9q1.6-1.9 3-1.9a2.6 2.6 0 0 1 2.8 2 9.5 9.5 0 0 1 .2 3.8l-1.9 17.5 13.3-.3a2.5 2.5 0 0 1 2.2.8 3.5 3.5 0 0 1 .6 2.1 7.5 7.5 0 0 1-.7 3.3 10.8 10.8 0 0 1-1.9 2.8 9.7 9.7 0 0 1-2.5 2 6 6 0 0 1-2.8.7h-4.1l-5-.4q-.7 6.7-1.3 12.8t-1 11q-.4 4.9-.7 8.5t-.2 5a33.8 33.8 0 0 0 4.4-4.9q2.7-3.4 5.9-7.9t6.6-9.6z" transform="translate(-70.5 -70.5)"/><path class="cls-2" d="M401.5 228.5q-.7-2-1.2-4.1a17.9 17.9 0 0 1-.5-4.4 16.8 16.8 0 0 1 1-5.5q2.5-8.3 6.4-12.5t7.3-4.2a4.4 4.4 0 0 1 4.9 4.8 6.2 6.2 0 0 1-.3 1.8 15.5 15.5 0 0 1-1.1 2.6 42.4 42.4 0 0 1-2.2 3.7q-1.5 2.2-3.8 5.2 2.5 8.3 4.4 16.2a67.4 67.4 0 0 1 1.9 15.5q0 7.8-3.6 12.8a11 11 0 0 1-9.4 5 13.3 13.3 0 0 1-7.9-2.5q-3.5-2.5-3.6-6.2a5 5 0 0 1 .7-2.5 10.9 10.9 0 0 1 2-2.5l3.5-3 5.1-4q-.7-3.9-1.6-8.3a83 83 0 0 0-2-7.9z" transform="translate(-70.5 -70.5)"/></svg>