<svg id="Layer_3" data-name="Layer 3" xmlns="http://www.w3.org/2000/svg" viewBox="0 0 360 360"><defs><style>.cls-1{fill:#fff}.cls-2{fill:#ea5d0c}.cls-3{fill:url(#linear-gradient)}.cls-4{fill:url(#linear-gradient-2)}.cls-5{fill:url(#linear-gradient-3)}</style><linearGradient id="linear-gradient" x1="3.05" y1="535.24" x2="3.74" y2="536.18" gradientTransform="matrix(88 0 0 -139.4 37.5 74917.34)" gradientUnits="userSpaceOnUse"><stop offset="0" stop-color="#bfbfbf"/><stop offset=".09" stop-color="#c7c7c7"/><stop offset=".23" stop-color="#ddd"/><stop offset=".4" stop-color="#fff"/><stop offset="1" stop-color="#fff"/></linearGradient><linearGradient id="linear-gradient-2" x1="3.91" y1="536.27" x2="2.82" y2="534.89" gradientTransform="matrix(88 0 0 -139.4 -130.5 74919.84)" gradientUnits="userSpaceOnUse"><stop offset="0" stop-color="#bfbfbf"/><stop offset=".11" stop-color="#c7c7c7"/><stop offset=".28" stop-color="#ddd"/><stop offset=".48" stop-color="#fff"/><stop offset="1" stop-color="#fff"/></linearGradient><linearGradient id="linear-gradient-3" x1="183.6" y1="250.5" x2="317.4" y2="250.5" gradientUnits="userSpaceOnUse"><stop offset="0" stop-color="#fff"/><stop offset="1" stop-color="#fff"/></linearGradient></defs><title>namecheap</title><path class="cls-1" d="M0 0h360v360H0z"/><rect class="cls-2" x="32" y="32" width="296" height="296" rx="38" ry="38"/><path class="cls-3" d="M354.5 179.6a23.9 23.9 0 0 0-20.9 12.3l-.5 1-18.8 37-23.8 46.9 15.6 30.7.9 1.7a24 24 0 0 0 10.4 9.8 24.6 24.6 0 0 0 10.4-9.8l.9-1.7 46.7-92 1.1-2.2a24.1 24.1 0 0 0-22-33.7z" transform="translate(-70.5 -70.5)"/><path class="cls-4" d="M146.5 321.4a23.9 23.9 0 0 0 20.9-12.3l.5-1 18.8-37 23.8-46.9-15.6-30.7-.9-1.7a24 24 0 0 0-10.4-9.8 24.6 24.6 0 0 0-10.4 9.8l-.8 1.7-46.7 92-1.2 2.3a24 24 0 0 0 22 33.6z" transform="translate(-70.5 -70.5)"/><path class="cls-5" d="M210.4 224.2l-15.5-30.6-.9-1.7a24 24 0 0 0-10.4-9.8 24.5 24.5 0 0 1 4.5-1.7 24.1 24.1 0 0 1 6-.8h32.8a24.2 24.2 0 0 1 20.9 12.3l.7 1.7 42.1 83.3 15.5 30.6.9 1.7a24 24 0 0 0 10.4 9.8 23.8 23.8 0 0 1-10.6 2.5h-32.6a24.2 24.2 0 0 1-20.9-12.3l-.9-1.7-42-83.3z" transform="translate(-70.5 -70.5)"/></svg>