<svg id="Layer_3" data-name="Layer 3" xmlns="http://www.w3.org/2000/svg" viewBox="0 0 360 360"><defs><style>.cls-1{fill:#232323}.cls-2{fill:#fff}</style></defs><title>nibbler</title><path class="cls-1" d="M0 0h360v360H0z"/><path class="cls-2" d="M285.5 220.6l-8.8.1 1.7-1.5-16.2-16.2-16.3 16.4-16.3-16.4-16.4 16.4-16.3-16.4-16.4 16.4-16.4-16.4-16.3 16.4-16.4-16.4-16.3 16.4L98.7 203l-15.4 15.4.2.1h-.4l-.7.7-.7-.7h-6.2v49h25v38h47v-22h68v22h45v-38h25v-46.9z"/><path class="cls-2" d="M145.5 125.6v136.7l7.1 7.3 17.4-16.4.6-1 .6.4h.5l-.2 1 15.4 15.8 16.4-16.2 16.2 16.4h.3l16.2-16.2 16.2 16.2h.4l16.2-16.2 16.2 16.2h.4l16.2-16.2 16.2 16.2h.4l16.2-16.2 16.2 16.2h.4l4.8-5.3V125.6h-210zm53.2 80.4a16.4 16.4 0 1 1 16.4-16.4 16.4 16.4 0 0 1-16.4 16.4zm101.8 0a16.4 16.4 0 1 1 16.4-16.4 16.4 16.4 0 0 1-16.4 16.4z" transform="translate(-70 -69.1)"/></svg>