<svg id="Layer_3" data-name="Layer 3" xmlns="http://www.w3.org/2000/svg" viewBox="0 0 360 360"><defs><style>.cls-1{fill:#fff}.cls-2{fill:#211e1f}.cls-3{fill:#232021}.cls-4{fill:#221f20}.cls-5{fill:#252222}.cls-6{fill:#242222}.cls-7{fill:#d1d1cd}.cls-8{fill:#272425}.cls-9{fill:#d9d8d6}.cls-10{fill:#807f74}.cls-11{fill:#252323}.cls-12{fill:#33302f}.cls-13{fill:#4d4c47}.cls-14{fill:#5f6057}.cls-15{fill:#353332}.cls-16{fill:#2f2d2c}.cls-17{fill:#4b4a47}.cls-18{fill:#54534f}.cls-19{fill:#cdcdc9}.cls-20{fill:#5e5d59}.cls-21{fill:#cac9c6}.cls-22{fill:#e9e8e7}.cls-23{fill:#676661}.cls-24{fill:#585652}.cls-25{fill:#343230}.cls-26{fill:#6f8d63}.cls-27{fill:#5a5a53}.cls-28{fill:#8b8a83}.cls-29{fill:#898882}.cls-30{fill:#bcbbb8}.cls-31{fill:#6a6863}.cls-32{fill:#53514e}.cls-33{fill:#bebdba}.cls-34{fill:#76746e}.cls-35{fill:#71706b}.cls-36{fill:#363532}.cls-37{fill:#5a5854}.cls-38{fill:#72726a}.cls-39{fill:#616058}.cls-40{fill:#add277}.cls-41{fill:#fefefe}.cls-42{fill:#80c270}.cls-43{fill:#96ca73}.cls-44{fill:#80c170}.cls-45{fill:#f7f7f6}.cls-46{fill:#7fbb6f}.cls-47{fill:#7fc06f}.cls-48{fill:#7cb36c}.cls-49{fill:#f5f5f5}.cls-50{fill:#a2be75}.cls-51{fill:#282526}.cls-52{fill:#42423c}.cls-53{fill:#7cb26c}.cls-54{fill:#4e5247}.cls-55{fill:#9fbb72}.cls-56{fill:#7ba56d}.cls-57{fill:#8dbb6f}.cls-58{fill:#65655b}.cls-59{fill:#9fbc71}.cls-60{fill:#739b66}.cls-61{fill:#7dae6e}.cls-62{fill:#8dbb70}.cls-63{fill:#c2c1be}.cls-64{fill:#4b4b45}.cls-65{fill:#7aa56c}.cls-66{fill:#52504d}.cls-67{fill:#4c4d42}.cls-68{fill:#739866}.cls-69{fill:#44433e}.cls-70{fill:#728466}.cls-71{fill:#93bf79}.cls-72{fill:#88ad6c}.cls-73{fill:#7a796e}.cls-74{fill:#44443e}.cls-75{fill:#98ab76}.cls-76{fill:#91b170}.cls-77{fill:#cecdca}.cls-78{fill:#7eb16f}.cls-79{fill:#708764}.cls-80{fill:#45443f}.cls-81{fill:#595951}.cls-82{fill:#474841}.cls-83{fill:#5d6250}.cls-84{fill:#585750}.cls-85{fill:#93c37b}.cls-86{fill:#759568}.cls-87{fill:#3a3936}.cls-88{fill:#83a46f}.cls-89{fill:#69805e}.cls-90{fill:#b0b0ab}.cls-91{fill:#79a26c}.cls-92{fill:#494843}.cls-93{fill:#7eb26d}.cls-94{fill:#44453d}.cls-95{fill:#729064}.cls-96{fill:#7b7a71}.cls-97{fill:#5a5953}.cls-98{fill:#44443f}.cls-99{fill:#53534c}.cls-100{fill:#67675e}.cls-101{fill:#727169}.cls-102{fill:#9ba880}.cls-103{fill:#b0afac}.cls-104{fill:#878f70}.cls-105{fill:#43443e}.cls-106{fill:#79786d}.cls-107{fill:#8ec372}.cls-108{fill:#51594a}.cls-109{fill:#768f6a}.cls-110{fill:#808074}.cls-111{fill:#595e51}.cls-112{fill:#fcfcfc}.cls-113{fill:#fbfbfb}.cls-114{fill:#fafafa}.cls-115{fill:#f9f9f9}.cls-116{fill:#9aaf77}.cls-117{fill:#262323}.cls-118{fill:#f7f7f7}.cls-119{fill:#a9ca76}.cls-120{fill:#2c2a29}.cls-121{fill:#7b7e6f}.cls-122{fill:#242122}.cls-123{fill:#95a576}.cls-124{fill:#78776c}.cls-125{fill:#93c472}.cls-126{fill:#94c973}.cls-127{fill:#8ac671}.cls-128{fill:#97ca74}.cls-129{fill:#6a745f}.cls-130{fill:#80a172}.cls-131{fill:#8fc872}.cls-132{fill:#84c470}.cls-133{fill:#91c873}.cls-134{fill:#96ca74}.cls-135{fill:#80bc70}.cls-136{fill:#9bcc74}.cls-137{fill:#bdd699}.cls-138{fill:#97ca73}.cls-139{fill:#282525}.cls-140{fill:#302d2d}.cls-141{fill:#bdbdb8}.cls-142{fill:#9fcd74}.cls-143{fill:#95c576}.cls-144{fill:#a3cb8b}.cls-145{fill:#9dcc74}.cls-146{fill:#afd19d}.cls-147{fill:#a9cd91}.cls-148{fill:#9acc74}.cls-149{fill:#a1c983}.cls-150{fill:#a6ce8d}.cls-151{fill:#a0cd75}.cls-152{fill:#606058}.cls-153{fill:#7fb570}.cls-154{fill:#99b075}.cls-155{fill:#a1bd74}.cls-156{fill:#a4bd7b}.cls-157{fill:#b1c58f}.cls-158{fill:#9fb975}.cls-159{fill:#a7c877}.cls-160{fill:#abc97d}.cls-161{fill:#a2c073}.cls-162{fill:#838e6a}.cls-163{fill:#99cb74}.cls-164{fill:#f2f2f1}.cls-165{fill:#c0d79c}.cls-166{fill:#acd177}</style></defs><title>notepade++</title><path class="cls-1" d="M0 0h360v360H0z"/><path class="cls-2" d="M178.9 161.1l3.7.8c1.2.6 2.6.8 3.8 1.4s3.3.3 3.7-1.9c.5-4.6 2.2-8.9 3.9-13.1 5.1-11.5 22-12.1 29.6-2.3 1.3 1.7 2.4 3.5 3.6 5.2s2.2 2.6 3.3 3.9 2.3 1 3.4 0c5.2-7.1 21.5-9.5 29.2-6a10.8 10.8 0 0 1 5.2 5.2c4.4 8.4 2.9 16.7-.4 25-1.9 3.3-3.5 6.8-6 9.8a7.7 7.7 0 0 1-3.6 3.2c-4.7 2.3-4.7 2.3-1.9 6.6 2.7 5.9 2.1 8.2-3.8 12.4a18 18 0 0 1-6 3c-5.5 1.9-11.1 3-16.7 4.2a8 8 0 0 1-4-.3c-3.5-1-3.8-.6-2.9 3.2.2 1.1 0 1.9-1.2 2.1s-2.4-3.3-5.2-3.6c.7 2.7 2.9 3.9 4.3 5.7a6.4 6.4 0 0 1 1.1 1.8 5.4 5.4 0 0 1 .3 3.5c-.4 1.3.9.7 1.4 1.1s.7 1.8 1.6 2.4a5.2 5.2 0 0 0 3 .5c2.7.2 5.5-.7 8 .8a.9.9 0 0 1 0 1.2c-3.5 1.8-7.3.2-10.9 1.1s-7.9.6-11.2-2.4c.1-1 1.2-1.1 1.7-2.2-3.4-1.9-6.9-.7-10.8-.2 1.3 1.5 3.2.7 4.1 1.8s-2 1.5-3 2.2-2.6-.1-1.6 1.9c9.8.6 19.5 0 29.3.3h6.4a4.8 4.8 0 0 1 2.9.9 2.8 2.8 0 0 1 .9 2.1c-.4.8-1.4 1-1.8 1.9-4.5 6.7-12 9.3-17.2 5.7a15.3 15.3 0 0 1-4.3-4.2 5.8 5.8 0 0 0-6.3-2.9c-3.1.4-6.2-.6-9.3.6s-5.3 3.9-8.8 2.1c-1.1-1.2-2.1-2.4-3.9-2.5a1.7 1.7 0 0 1-1-1.7c.8-1.2.4-2.2-.6-3s1.2-1.9 1.7-2.9-.5-2-1.8-2.2-3.4.2-5-.6a2.1 2.1 0 0 1-.9-1.2c.5-1.8 2.1-1.5 3.4-1.6 3.7-.3 3.8-.3 2.2-3.9a3.1 3.1 0 0 1-.4-2.5c2.4-.2 3.4-1.2 2.8-3.9a36.8 36.8 0 0 1-.4-5.8 11.6 11.6 0 0 1 1.2-4.3c.6-1.4 1.7-2.3 3.3-1.8s1.6 1.9 1.3 3.4-1 2.6-.7 4l.6.8c4.5 2.5 8.7-.3 12.9-1a23.8 23.8 0 0 0 6.9-2.6 10.3 10.3 0 0 1 2-.8 7.6 7.6 0 0 1 4.3.8c2.2 1.5 4.6 1.3 6.9.8s5.9-1.1 8.6-2.3a29.1 29.1 0 0 0 8.2-3.7c4.6-2.7 4.6-3.3 1.1-9.2a18.9 18.9 0 0 0-11.6-9.5c-2.4-.8-4.1-.5-5.6 1.5l-3.5 4.9c-2.3 3.4-5.7 4.8-9.5 5.3-9.8 1.4-17.3-2.9-23.7-9.7a35.5 35.5 0 0 1-4.1-8.5c-.4-1.8-1.1-3.6-1.3-5.5-.6-4.2-3-6.5-6.9-7.4l-2.6-1a23.1 23.1 0 0 0-5.8-1.5c-7.1-2.2-13.4.4-19.8 2.9a17 17 0 0 0-7.5 5l-1.8 1.7a13.8 13.8 0 0 0-2.8 3.4l-.6.9a66 66 0 0 0-10.6 24c-.5 1.7-1.2 3.4-1.7 5.1a21.7 21.7 0 0 0-2.8 13.7c.1.9-.4 2.2 1 2.6s2.4-.4 3.1-1.6a19.3 19.3 0 0 0 1.3-2.3 36.9 36.9 0 0 1 9.9-13.5 18.3 18.3 0 0 1 2.1-1.9c1.7-1 3.3-1.1 4.7.4s.6 3.1-.3 4.4-1 5.3-1.4 7.9.1 2.8 1.2 3.9 2 2.5 1.5 4.2-3.1 1.9-4.2 3.4l-.7.7c-.8.7-1.6 1.4-.9 2.7l.8 1.2a7.7 7.7 0 0 0 3.8 3.3c-.5-1.6-1.8-2.6-2.2-4.2s-.5-3.3 1.4-4.3a2.2 2.2 0 0 1 1.8.3c.9 3.6 3.1 5 6.8 4.5 2-.3 4 .1 5.9-.5a11.6 11.6 0 0 1 6.6 1c2.2 2.4.1 2.7-1.5 2.9s-6 0-9 .2c-1.1.1-2.6-.8-3 1.1a4.5 4.5 0 0 0 1.5 1.3c.6.7 1.8 1.2.4 2.3s-5.7 1.6-8.7.3c-1-1.4-2.8-.9-4.1-1.6a13.7 13.7 0 0 1-2.3-2.5l-.8-.4-.9-.3c-1.1-.3-2.3-.3-3.4-.6s-2.5-.2-3.5-1.1 2-1.6 3.2-1.9 2.8 0 1.5-2c-4.9-2.1-9.9-1.6-14.8-.2-1.7.7-1.2 1.8-.4 2.9a2.2 2.2 0 0 1 .3.9 3.9 3.9 0 0 0 .2 2.1l.8 1 .7.6c1.8.4 3.1 1.1 2.7 3.2s.9 2.8 1.7 4c1.3 7.4 4.9 13.8 8.4 20.3a6.9 6.9 0 0 0 1.2 2.7l.5.9a8.9 8.9 0 0 0 2.9 4c4.1 3.2 7 7.7 11.8 10a7.3 7.3 0 0 0 5.4 1.3 30.7 30.7 0 0 1 8.2-.1l2.4-.3a2.3 2.3 0 0 0 2.3-1 18 18 0 0 1 2.4-1.6c2-1.4 3.9-2.9 4.6-5.4 2.4-3.3 1.8-6.8.8-10.3a65.5 65.5 0 0 0-2.8-8 15.7 15.7 0 0 0-4.4-5.4c-2.6-2.2-5.5-2.3-8.6-1l-.9.4a7.4 7.4 0 0 0-2.8 2l-1.4 1.4c1.3-.4 2-1.5 3.1-2.1 3.8-1.2 7.5-1.4 11 1.1s4 6.5 4.7 10.3a9.6 9.6 0 0 0 .5 2.1 4.9 4.9 0 0 1 .4 2.1 17 17 0 0 0 0 5.2c-.2 1.4-.6 2.6-2.1 3.1a1.5 1.5 0 0 1-1.1-1.2c1.2-5.3.8-10.3-2.5-14.8-1.8-1.8-1.7-4.9-4.4-6-1.1.7-2.4.1-3.6.7a33.7 33.7 0 0 0-5.1 3c-2 1.6.8 3.5-.3 5.1s-.3 1.5.6 1.9 1-.3 1.3-.8c1.5-2.1 3.2-.3 5-.1-1.2-1.6-4.5-1.8-2.9-4.7s2.7 0 4.1.2h.1c2.2 1.9 3 4.1 1.4 6.7-.7 1-2 1-2.9 1.6-8.8 3.6-12.6-3.1-14.8-9.3a3.7 3.7 0 0 1 .3-2.5c1.2-3.9 9.2-9.6 13.2-10.1 13.7-1.6 19.2 10 21.1 22.1a18.5 18.5 0 0 1-1 10c-2.3 5.5-8 6-12.1 8.8a6.6 6.6 0 0 1-1.4.6c-9.8 1.9-19 1.4-27.1-5.4a106.1 106.1 0 0 1-14.9-21.5 25.1 25.1 0 0 1-1.1-3.1c-2.3-4.5-2.8-9.5-3.9-14.3-.5-2.1-1.3-3.1-3.4-3.1s-5.5-.8-8.2-.3-3.7-.8-4.6-2.7c-3.2-4.7-3.2-6.1.1-8.6 3.1.3.9 2.9 1.8 4.1a2.5 2.5 0 0 0 1.1 1.3c.9-1.1.2-2.5.8-3.7s.4-1.8.6-2.7 2-2.1 3.5-2.1a11.5 11.5 0 0 0 6.2-2c-.6-10 1.4-19.8 4.6-29.1s7.4-20.8 16.4-28.2a48.1 48.1 0 0 0 4.3-2.8c9.5-6 19.6-7.9 30.4-5.2z" transform="translate(-70.5 -70.5)"/><path class="cls-3" d="M210.7 262.1c-1.5-2.2-3.8-1.9-5.7-1.1s-2.1 2.8-2.1 4.8q.1 38 0 76.1c0 1.8.3 3.6-2.4 3.6s-3.2-.7-3.2-3c.1-16.8.1-33.6.2-50.5v-28.7c0-4 1.6-6.3 5.4-6.8s9-1 13 1.9c2.5 1.5.4 4.2 1.5 6.1.7 1-.9 2 0 3.1.7 1-.9 2 0 3.1a110.5 110.5 0 0 0 0 13.5c-.9 1 .7 2 0 3.1-1 .9.7 2-.2 3s-.5 2.1.2 3c-.7 3.9-.3 7.7-.3 11.6-.1 9.8 0 19.6 0 29.4 0 1.2-.3 2.5.3 3.7-.2 2.4-1.8 2.8-3.7 2.5s-2.7-1.6-2.7-3.7q.1-35.2 0-70.3c0-1.7.3-3.1-.3-4.4z" transform="translate(-70.5 -70.5)"/><path class="cls-4" d="M366.6 336.8c-4.3 4.1-9.5 3.5-14.5 2.2-2.8-.7-4.7-2.9-4.6-6.4.2-10.8.3-21.5 0-32.3-.1-4.3.6-7.6 4.9-9.3 2-1 4.2-.5 6.2-.4s3.2-.7 3.2-3.2c-.1-9.4-.1-18.8 0-28.2 0-3.2 1.8-4.2 4.7-2.9s1.3 2.2 1.3 3.5c0 12-.1 24.1.1 36.1s-.2 24.2 0 36.3c0 1.8.1 3.4-1.3 4.6zM291.7 328.2v-29c0-5.7 2.2-8 7.9-8.3a37.3 37.3 0 0 1 5.2 0c4.7.4 7 2.8 7 7.5q.1 16.9.1 33.8c0 4.8-2.5 7.1-7.9 7.5s-6.4.4-6.4 6.9c0 4-.1 8 0 12 .1 2.3-.7 3.1-3 3.1s-3-.9-3-3.1c.2-10 .1-20.2.1-30.4zM283.8 295.4a105.1 105.1 0 0 1 .2 21.7c-.3 4.2-4.3 4.8-8 5.4-2 .3-4.5-1.3-5.7.3s-.4 4.8-.6 7.3.5 4.5 3.3 5 5.5-.7 5.5-4.4c0-2-.2-3.6 2.8-3.6s3 1.5 2.9 3.8c-.2 6.6-2.2 8.7-8.8 8.9a27.8 27.8 0 0 1-5.6-.4c-3.9-.7-5.7-2.8-5.7-6.7-.1-11.5 0-23.1-.1-34.6 0-3.6 1.8-5.9 4.9-6.6s9.2-1.7 13.2 1.6c.7.8.9 1.7 1.7 2.3z" transform="translate(-70.5 -70.5)"/><path class="cls-3" d="M319.8 335.5c-.8-7.1-.3-14.3-.2-21.4 0-3.4 2.8-5.3 7.2-5.8 2.3-.3 5.5 1.1 6.8-.7s.3-4.6.4-6.9c.1-4.2-.9-5.2-4.9-5.2s-4 1.7-3.8 4.3-.4 3.8-3.2 3.8-2.5-2.1-2.5-3.8c0-6.5 2-8.6 8.6-8.9a28.1 28.1 0 0 1 5.2.1c3.8.5 5.8 2.8 5.8 6.5.1 11.8 0 23.7 0 35.5 0 1.4 0 2.8-1.2 3.8-6 4.5-13.3 3.9-18.2-1.3z" transform="translate(-70.5 -70.5)"/><path class="cls-5" d="M248.4 317.1V293c0-1.5.5-3.1-2.1-3.6s-1.8-3.4 0-3.9 2.1-2 2.1-3.7c-.1-7.4 0-14.8-.1-22.2 0-2.4.7-3.4 3.2-3.4s2.9 1.3 2.9 3.3c-.1 7.4.2 14.8-.1 22.2-.1 3 1 3.8 3.6 3.6h2.6c1.5 0 1.9.8 1.9 2.2a1.9 1.9 0 0 1-2 2.1c-2 .2-4.7-1.2-5.9 1.1s-.2 3.9-.2 5.9v44.8c0 2.3.2 4.2-3.1 4.2s-2.9-1.9-2.9-4c.1-8.2.1-16.4.1-24.5z" transform="translate(-70.5 -70.5)"/><path class="cls-6" d="M176.6 278.1l.7.8c.6 2.4-1.2 3.5-2.7 4.8l-1.9 1.1a8 8 0 0 1-2.7.9 42.8 42.8 0 0 1-12.4.1c-6.7-2.3-11.3-7.3-15.5-12.6-5.3-9-10.1-18.2-11.7-29-1.1.9-.2 2.5-1.5 3a2.2 2.2 0 0 1-1.9-2.4c.5-2.8-.9-3.8-3.2-4.3 1.5-1.4 3.4-.9 5.2-1.1h6.4c2.4-.2 5 1 7.2-1.1l2.4 2.9c-2.9 1.2-6.1-.2-9 .9h.1c-1.5 1-1.5 2.6-1.3 4 .6 3.2 1.1 6.5 2.7 9.4l9 16.5c5.2 8.8 16.1 13 24.7 9.7 2.2-.9 2.9-3.7 5.4-3.6z" transform="translate(-70.5 -70.5)"/><path class="cls-7" d="M366.6 336.8a15.9 15.9 0 0 0 .8-4.8c0-24 0-47.9-.1-71.9 0-1.2.7-2.8-1.2-3.5s-3.9-.2-3.9 2.9c0 9.4-.1 18.8.1 28.2 0 2.7-.8 3.6-3.4 3.4s-4.2-.1-6.4-.1c1.6-1.7 3.8-1 5.7-.9s3.4-.9 3.3-3.4c-.1-9.2 0-18.3-.1-27.5 0-2.1-.2-4 3-3.9s4 1 4 3.9c-.1 13.2-.1 26.3 0 39.5 0 1.1-1 3.3 1.3 2.9s5.1 1 4.6-3.1a37.5 37.5 0 0 1 0-4.1c0-4.3 1.2-5.3 5.5-4.5 1.4.2 2 .8 2 2.2v3.8c0 4.7 1.4 7.1 5.4 6.7 1.9-.2 4.3-1 6.5-1.3-.4 1.4-.4 1.4-3.1 1.9l-.7.6c-.6.8-.3 2-1.2 2.8s-.7-2.9-1.7-.3a1.5 1.5 0 0 1-1.7 1.2c-4-.6-3.7 2.1-3.6 4.7s-.1 2.3 0 3.4c.3 3-1.2 3.9-4 4s-3.8-1.3-3.6-3.9-.1-3 0-4.5-.3-3.6-3.1-3.7-2.9 1.9-2.9 3.8v21.4c.2 1.6.7 3.5-1.5 4.1z" transform="translate(-70.5 -70.5)"/><path class="cls-5" d="M394.7 290.9c5.3-.6 5.3-.6 5.4 4.7v4.1c0 1.3.7 3.2 2.9 2.8s2.4.1 2.5 1.8-.6 2.8-2.7 2.5-2.8.8-2.7 2.9-.1 3.8.1 5.6-.3 3.2-2.8 3.3-3.3-.9-3.2-3.3-.1-5.3-.2-7.9a2.6 2.6 0 0 0-2.1-.7c-2.9.1-3.4-1.4-2.4-3.8 4.9-.9 4.8-.9 4.9-6.2-.1-1.8-.6-3.8.3-5.8z" transform="translate(-70.5 -70.5)"/><path class="cls-8" d="M243.8 242.5l-.7-1.6c1.3-.8 1.9-1.9 1-3.4a4 4 0 0 1-.2-1 3.1 3.1 0 0 1 .2-1c.1-1.3 3.9-1.1 1.3-3.4a60.8 60.8 0 0 0-16.4-.1c-1.6.2-3.2.5-4.8 0s-1-1.4-.2-2.2l1.1-1.1a5 5 0 0 1 1.5-1.4c1.7-.4 2.8.9 4.3 1.2s1.2.6 1.5-.1-.5-.6-.8-.9a1.7 1.7 0 0 1-.9-1.8c1.7-1.7 3.2.1 4.8.4 4.5 3.6 9.7 2.7 14.9 2.4 2.3-.1 4.7-.3 7 .5s3.1-.1 4.6.8c1.3 1.4 3.6-.8 4.7 1.4a3.1 3.1 0 0 1-2.4 1.4c-2 .1-3.8-1.1-5.8-.9s-2.8-.5-3.5 1.2-.4 2.9-1.7 3.8c-2.2 2.6-2 3.3.9 4.6a2.1 2.1 0 0 1 1.4 1.1 1.1 1.1 0 0 1-.5 1c-4.1.7-7.8 1.2-11.3-.9z" transform="translate(-70.5 -70.5)"/><path class="cls-9" d="M233.9 291c4.1.5 6 2.3 6.1 6.1.1 12.2 0 24.3 0 36.5 0 3.6-2.3 5.4-5.3 6.4s-8 1-11.8-.2-4.7-3.9-4.7-7.3c-.1-11.7-.1-23.3 0-35 0-3.5 1.6-6 5.3-6.8s7-1.4 10.5.2c-1.6 1.4-3.6.8-5.4.9-6.1.3-8 2.4-8 8.3.1 10.4.1 20.9 0 31.3-.1 4.3 1 5.8 5.2 7a13.3 13.3 0 0 0 7.1.1c3.2-.9 4.9-2.8 5.1-6.1a53.5 53.5 0 0 0 0-7.2c-.6-8.2 0-16.3.1-24.5 0-3.3-.2-6.3-3.5-8.1a1.4 1.4 0 0 1-.7-1.6z" transform="translate(-70.5 -70.5)"/><path class="cls-10" d="M109.3 231.1c-3.8 2.6-1.5 5.2 0 7.8s.4 2.5-1.2 2.8a22.2 22.2 0 0 1-4 .1c-2.5-.2-5.6.9-7-2.2s.2-5.5 2.3-7.7a2.2 2.2 0 0 0 .8-2.3 12.6 12.6 0 0 1 9.1-1.8c4.6.9 9.1-.7 13.5-2-1.3 2.2-3.5 2.4-5.7 2.6s-3 .1-3.3 2.1a1.3 1.3 0 0 1-1.4.3c-.9-.7-2-.2-3.1.3z" transform="translate(-70.5 -70.5)"/><path class="cls-11" d="M264.2 231.8a3.1 3.1 0 0 1 2.3-.5c2.5-1.2 5-.2 7.5 0s3.5 1 5.3 1.5a6 6 0 0 0 2.3 1.5c1 2.6-.6 3.4-2.7 3.7s-6.4 1.2-9.6 1.5a4.2 4.2 0 0 1-2.8-.6c-1.4-1.5 0-3.5-.9-5.1l-.5-.7a2.3 2.3 0 0 1-.9-1.3z" transform="translate(-70.5 -70.5)"/><path class="cls-9" d="M210.7 262.1c1.3.9 1 2.2 1 3.4v70.4c0 1.4-.9 3.2 1.4 3.6s3.6.4 4.3-1.9c1.2 2 .1 2.9-1.6 3s-4.2.6-5.1-2a4.9 4.9 0 0 1-.1-1.5q0-37.5.1-75z" transform="translate(-70.5 -70.5)"/><path class="cls-12" d="M176.6 278.1c-6 7-13.7 6-21 3.5-4.1-1.4-8.1-4.5-9.1-9.6a14.2 14.2 0 0 1 1.8 1.8c4.8 6.8 11.8 8.6 19.5 8s9.7-6.1 7.6-13c-.6-1.9-1.3-3.8-1.9-5.7 3.7 3.3 4.2 7.6 3.7 12.2-.1.9-.4 1.8-.6 2.8z" transform="translate(-70.5 -70.5)"/><path class="cls-13" d="M103.5 241.1h4.1c1.5 0 2.1-.6 1.8-2.1 2.3 4.5 6.6 3 10.1 2.8s5.9 1.4 6.5 5.3 2 8.7 3 13.1c-3.1-3.7-3.2-8.5-4.2-12.9-.6-2.8-1.4-3.8-4.5-4-6.5-.4-13-.1-19.5-.2-2 0-3.8-.2-4.5-2.5 2.5.1 4.7 1.9 7.2.5z" transform="translate(-70.5 -70.5)"/><path class="cls-14" d="M148.7 243.4a31.8 31.8 0 0 0 9.1-.8c1.7-1.5 3.7-.9 5.7-1s6.7.3 10-.4a6.3 6.3 0 0 1 2.1-.1c3.8.9 7.6.4 11.4.5a13.9 13.9 0 0 1 5.8.9c1.6.1 3.1.5 3.7 2.3s-.5.5-.8.1a7.5 7.5 0 0 0-5.3-1.5c-9.4.1-18.8-.1-28.2 0a57.9 57.9 0 0 0-8.2 1.2c-2 .2-3.8.4-5.3-1.2z" transform="translate(-70.5 -70.5)"/><path class="cls-15" d="M168.3 262.3l-2.2-.4c-1.4-.4-1.4.5-1.5 1.4s.1 1.6 1.5 1 2 .2 2.2 1.3.3 1.8-.6 2.4a1.8 1.8 0 0 1-2.4-.4c-1-1.4-1.9-1.4-2.9-.1s-2.5-.2-3.1-1.6l.2-.3c.7-1.9-2.4-4 .5-5.8s5.7-3.5 9.3-2.9l-5.4 2.2c-.6 1.2-2.7 1.6-1.8 4 1.4-1.4 2.1-4.4 4.7-2.3z" transform="translate(-70.5 -70.5)"/><path class="cls-16" d="M103.5 241.1c-2.5 1.7-4.8.5-7-.7s-.8-5.4-.5-8 2.7-2.2 4.4-2.7 3-.5 1.3 1.7a8.2 8.2 0 0 1-1.3 1.3c-2.1 1.7-3.5 3.8-2.6 6.4s3.6 1.8 5.7 2z" transform="translate(-70.5 -70.5)"/><path class="cls-9" d="M217.3 337.7c-.7-.7-.5-1.6-.5-2.5v-40.1a2.7 2.7 0 0 1 .5-2.1c.4 14.9.3 29.8 0 44.7z" transform="translate(-70.5 -70.5)"/><path class="cls-17" d="M222.6 221.6a3.2 3.2 0 0 1-.2-4.1c1-1.1 2.3-.2 3.5.2 4.1 1.4 7.7-.8 11.5-1.4a82.4 82.4 0 0 0 9.3-2.4q.7.4 0 .8c-5.3 2.2-11 3.2-16.6 4.4a6.4 6.4 0 0 1-4.1-.2c-3.2-1.4-3.4.1-2.7 2.6a.4.4 0 0 1-.7.1z" transform="translate(-70.5 -70.5)"/><path class="cls-18" d="M178.9 161.1c-2.9.7-5.7-.5-8.5-.7-8.2-.4-15.4 2.5-22.4 6a.5.5 0 0 1-.3-.5l.2-.3c9.8-5.8 19.9-8.3 31-4.5z" transform="translate(-70.5 -70.5)"/><path class="cls-19" d="M145.1 284.7c8.1 6.2 17.5 6.3 27.1 5.4-3.6 2.2-7.8 1.9-11.6 1.4-5.8-.7-11.8-1.4-15.5-6.8z" transform="translate(-70.5 -70.5)"/><path class="cls-20" d="M268.7 238.9c3.5 0 6.9-1 10.3-1.5a2.6 2.6 0 0 0 2.5-3.1c1.2 2.5.6 3.6-2.5 4.2l-19.3 3.5a.9.9 0 0 1 0-1.1c2.7-2.1 6-1.5 9-2z" transform="translate(-70.5 -70.5)"/><path class="cls-21" d="M246.8 214.7v-.8a20.2 20.2 0 0 0 4.9-2.6c4.3-3.1 8-6.4 4.8-12.4 3.3 3.9 3.3 6.3-.1 9.7s-5.6 5.3-9.6 6.1z" transform="translate(-70.5 -70.5)"/><path class="cls-22" d="M166.8 260.9c-3.8-1-3.1 1.8-3.1 4-2-.2-3.7-1.2-3.5-3a3.2 3.2 0 0 1 3.7-2.7c.6 1.2 2.4.2 2.9 1.7z" transform="translate(-70.5 -70.5)"/><path class="cls-23" d="M319.8 335.5c5.7 5 11.9 4.6 18.3 1.4-4.5 5.2-15.2 4.4-18.3-1.4z" transform="translate(-70.5 -70.5)"/><path class="cls-24" d="M259.6 241.1v.9a21.1 21.1 0 0 1-15.2 1.9 6.2 6.2 0 0 0-2.2.3c-.2-1.2.7-1.4 1.5-1.6 3.8 1.1 7.5 1.7 11.3 0 1.3-1.7 2.7-2.5 4.6-1.5z" transform="translate(-70.5 -70.5)"/><path class="cls-25" d="M222.6 221.6h.8a11.6 11.6 0 0 0 1.7 4.3c-.1.9 1.8.4 1.3 1.7a1.7 1.7 0 0 1-.7 1.5c-3.3.3-4-2.2-5-4.5a1.7 1.7 0 0 1 .4-1.6 1.3 1.3 0 0 0 1.5-1.4z" transform="translate(-70.5 -70.5)"/><path class="cls-9" d="M217.3 284.1a47.7 47.7 0 0 1 0-13.5 35.6 35.6 0 0 1 0 13.5z" transform="translate(-70.5 -70.5)"/><path class="cls-26" d="M226.4 227.5c-.1-.8-1.5-.7-1.3-1.7 1.5.8 2.8-.6 4.2-.6a2.9 2.9 0 0 1 1.7.6c.2.7.9.7 1.4.9s-.6 1.7-1.5 2.1-2.8-1.3-4.5-1.3z" transform="translate(-70.5 -70.5)"/><path class="cls-27" d="M136 242c2.8-2.1 6-.4 9-.9.9 1.3 3.3.3 3.7 2.3-4.1-1.5-8.5-.9-12.7-1.4z" transform="translate(-70.5 -70.5)"/><path class="cls-28" d="M194 148.4l-3.7 13.6c-.8-.8-.5-1.6-.3-2.5.7-3.9 1.3-7.9 4-11.1z" transform="translate(-70.5 -70.5)"/><path class="cls-27" d="M137.6 255.4c-2.6-3.5-3.1-7.5-3.1-11.6a1.6 1.6 0 0 1 1.6-1.8c-1.6 3.8.2 7.3 1 10.9.1.8.8 1.5.5 2.5z" transform="translate(-70.5 -70.5)"/><path class="cls-29" d="M394.7 290.9c0 2.4-.1 4.8-.1 7.1 0 5 0 5-5.2 4.9 1-1.7 3.4.4 4.4-1.6s-1-7 .9-10.4z" transform="translate(-70.5 -70.5)"/><path class="cls-30" d="M190.1 159.5l.3 2.5c-.1 2.2-1 2.9-3.1 2.1s-3.4-.8-4.6-2.2c.7 0 1.6-.3 2.1 0 3.1 2.2 4.6.9 5.3-2.4z" transform="translate(-70.5 -70.5)"/><path class="cls-31" d="M261.9 189.1c1.7-3.5 3.4-6.9 6-9.8a20.9 20.9 0 0 1-6 9.8z" transform="translate(-70.5 -70.5)"/><path class="cls-32" d="M274 231.3h-7.5c-1.2-1.4-3.4.2-4.5-1.5a35 35 0 0 1 12 1.5z" transform="translate(-70.5 -70.5)"/><path class="cls-33" d="M195.5 244.9h.8c3.5 2.6 6.1-.1 9-1.4-3.3 4.1-6.5 4.6-9.8 1.4z" transform="translate(-70.5 -70.5)"/><path class="cls-34" d="M234 155.1c-.6 1.7-1.8 2-3.1 1s-3.3-2.6-3.6-4.8c2.3 1.1 2.9 5.2 6.7 3.8z" transform="translate(-70.5 -70.5)"/><path class="cls-35" d="M169.8 268.9c.4-2.4.3-4.7-1.4-6.7 3.4 2.2 3.8 3.9 1.4 6.7z" transform="translate(-70.5 -70.5)"/><path class="cls-29" d="M389.4 303c-.4 2.3.1 3.7 2.8 3.2.9-.2 1.8-.1 1.7 1.3-1.7-.3-3.6.5-5.2-.8.2-1.3-.8-2.7.7-3.7z" transform="translate(-70.5 -70.5)"/><path class="cls-36" d="M231.1 225.9a1.5 1.5 0 0 1-1.7-.6c2.2-1 4.3-1 6.1.8-1.5.5-2.9-1.5-4.4-.2z" transform="translate(-70.5 -70.5)"/><path class="cls-9" d="M217.3 264.6c-.9-1.9 0-4.3-1.5-6.1 3.3 1.3 1.2 4 1.5 6.1z" transform="translate(-70.5 -70.5)"/><path class="cls-37" d="M148 165.6v.8c-1.2.9-2.2 2.1-3.9 2.1.7-1.6 2.4-2.1 3.9-2.9z" transform="translate(-70.5 -70.5)"/><path class="cls-32" d="M261.9 229.8c-1.6.1-3.2.7-4.6-.8a6.9 6.9 0 0 1 4.6.8z" transform="translate(-70.5 -70.5)"/><path class="cls-9" d="M217.3 270.6c-.9-1-.4-2 0-3.1 1.4 1.1 0 2.1 0 3.1z" transform="translate(-70.5 -70.5)"/><path class="cls-35" d="M166.8 270.6a3.3 3.3 0 0 1 2.9-1.6c-.5 1.2-1.4 2-2.9 1.6z" transform="translate(-70.5 -70.5)"/><path class="cls-9" d="M217.3 287.1c-.4-1-.9-2 0-3.1 0 1 1.4 2.1 0 3.1z" transform="translate(-70.5 -70.5)"/><path class="cls-9" d="M217.1 290c-.1-1-.8-2 .2-3-.1 1 1.6 2.1-.2 3z" transform="translate(-70.5 -70.5)"/><path class="cls-38" d="M281.5 234.3c-1.2.2-2.2 0-2.3-1.5s1.8.6 2.3 1.5z" transform="translate(-70.5 -70.5)"/><path class="cls-39" d="M283.8 295.4c-1.6-.1-1.6-1.1-1.5-2.3a1.9 1.9 0 0 1 1.5 2.3z" transform="translate(-70.5 -70.5)"/><path class="cls-9" d="M217.3 267.6c-.9-1-.4-2 0-3.1 1.4 1.1 0 2.1 0 3.1z" transform="translate(-70.5 -70.5)"/><path class="cls-40" d="M219.6 211.7l-1.5.8c-2.1 1.1-3.8.1-5.5-1.1s-4.3-2.2-6.2.4a1.9 1.9 0 0 1-3 .5c-2.5-2-2.5-.1-2.8 1.6s-1.3 3.2-3.6 2.3c-1.1-2.1.5-3.8.9-5.6s1-2.6-.9-3a2.4 2.4 0 0 0-3.2 1.7c-.6 1.7-1.1 3.5-1.7 5.3a1.2 1.2 0 0 1-.9.4c-1.3-.9-1-2.4-1.1-3.7s-.2-2-1.6-1.9l-.8.4c-3.1 5.2-8 2.4-12.1 2.3s-8.4-1-12.9-.5a27.1 27.1 0 0 0 6.6 2.5 2.7 2.7 0 0 1 2.2 2.3c0 1.1-1.1 1.1-2 1.2a34 34 0 0 0-6.2-.6c-4-.6-7.1-2.1-7.4-6.8l-.2-1c-.2-1-.8-1.1-1.7-.7-3.1 1.7-4.1-1.3-5.9-2.6a2.8 2.8 0 0 0-3.2.1l-.8.7c-1 1.1-2 2.1-3.7 1.4s-2.9.3-3.7 1.6c-2 3.5-4 6.9-6.2 10.2a5.4 5.4 0 0 0-.5 4.4c.2.9.4 1.8-1 1.9a1.6 1.6 0 0 1-1.8-1.5c-.6-3.2-1.1-6.5 0-9.6s1.2-4.1 2-6a9.8 9.8 0 0 1 1.7-5.1c.2-3.4 1.8-5.3 5.5-4.9s2.6-1.7 2.9-3.5c.7-4.8 3.5-7.6 8.2-8.5 2.2 1.7 6.4 1 8.2-1.3a7.3 7.3 0 0 1 1.4-1.7 3.7 3.7 0 0 1 2.5-.7 2.1 2.1 0 0 1 .9.6c2.8 3.3 2.8 3.3 6 .6l1-.2h1.9a14.9 14.9 0 0 0 2.2.3h.9l1.8-.2c1.8.1 3.5-.8 5.2-.1s4.7 2.6 5.6 5.4a1.9 1.9 0 0 0 1.7 1.3c3.6.5 6.1 2.9 8.6 5a13.8 13.8 0 0 0 6.2 2.6 3.3 3.3 0 0 0-2.6-2c-5.7-1.3-7.1-6.5-9.9-10.5a2.9 2.9 0 0 1 1.3-4.1c1.2-.4 1.4.7 1.8 1.5a16.4 16.4 0 0 0 3.7 6c5.6 4.5 10.9 9.2 18.7 9.4s11.4-1.6 14.9-7.4 3.8-5.8 10.4-3.7c5 1.6 8 4.9 10.3 9.2.3.6.5 1.4.1 1.7-3.2 2-1.8 4.9-1.4 7.5-3.2 1.8-3.8-1.7-5.6-2.8a2.1 2.1 0 0 0-2.2-.4 5.8 5.8 0 0 0-3.3 1.8c-.7 1.5-1.6 2.9-3.6 2.8-3.6-.2-7.2-.1-9.2 3.8a1 1 0 0 1-.7.1c-1.8.3-3.2-1.3-4.7.1z" transform="translate(-70.5 -70.5)"/><path class="cls-41" d="M194 168.4c.3-6.8 1.2-12.4 4.1-17.3 4.4-7.3 14.1-10.9 21.5-2.5 2.8 3.2 5.4 6.5 8.3 9.6s2.5 7.8 2.6 11.8a40.7 40.7 0 0 1-2.1 12.9c-4.2 13.6-15.1 13.5-24.3 7.5s-8.6-14.5-10.1-22zM259.7 183.9l-7.2 6.5c-1 .9-1.4.5-2-.4-3.1-4.6-7.9-6.8-13-8.3-2.3-.7-2.8-1.8-2.8-4 .1-4.5.5-9-.3-13.5a5 5 0 0 1 1.6-4.4c5.7-5.6 12.5-8.4 20.6-7.7a8.8 8.8 0 0 1 7 3.9c5.1 9.5 2.3 18.1-2.8 26.5a17.6 17.6 0 0 0-1.1 1.4z" transform="translate(-70.5 -70.5)"/><path class="cls-42" d="M147.2 187.6c-4.5 1.8-7.7 4.5-7.6 9.9 0 1.8-1.1 3-2.8 2.6-3.7-.9-5.2 1-6.2 4 .8-6.8 3.7-12.7 6.9-18.6 1.2-2.2 2.3-4.7 4.4-6.4l.5.5-.5-.5a6.5 6.5 0 0 1 3-3.7l.5.2c2.1.7 4.2 1.4 3.3 5.1.9-2.2 0-3.6.3-5.1s1.3-1.4.1-2.2a1.7 1.7 0 0 1 .2-.9 17.9 17.9 0 0 0 3.7-2c.2-.4 1.6-.1.7-1.2a.6.6 0 0 1 .3-.7c6.6-2.7 13.1-5.7 20.5-3a1.6 1.6 0 0 1-.7.7 7.8 7.8 0 0 1-2.4.5h-2.2a.5.5 0 0 0-.5.2h.6a10.2 10.2 0 0 1 2.2.1 1.7 1.7 0 0 1 1 1.3c.1 1.2.6-.1.8.2a4.2 4.2 0 0 0 4.7.6 6.6 6.6 0 0 0 2.7.9 1.4 1.4 0 0 0 1.7-1.1 1.2 1.2 0 0 1 .4-.8c4.1.4 6.9 2.3 7.6 6.6.4 2.3.9 4.6 1.4 6.8-2 1-2-.7-2.3-1.8a13.9 13.9 0 0 0-1.9-4.8c-.6 2.3-3.5 3.1-2 6.2.5 1-2.1 1.6-3.6 1.1s-1.9-1.2-2.9-1.5-2.4-2.6-4.3-1a1.3 1.3 0 0 1-.5.7l-.8.3h-1.6l-1.1.4-.8.4-1.2.5-1.4.2h-1c-3-2.3-5.1-.8-7 1.6l-2.2.7c-1.7.9-3.2 2.3-5.4 1.3s-2.7 2.2-4.6 1.7z" transform="translate(-70.5 -70.5)"/><path class="cls-3" d="M156.2 209.6c.4 4.1 2.9 6.1 6.9 6.6s7.4 1.5 11.1 2.3 6.2-.5 9.2-1.1.9-2.8 1.7-4.1 1.4-3.1 2.5-4.5h.5c2.6-.9 2.6 1 2.6 2.6a66.2 66.2 0 0 0 .9 9.1c.3-1.3-.1-2.6 0-3.8s0-2.5 1.7-2.7l.7 6.8c.1 1.2.5 2.6-.8 3.4s-1.9-.8-2.9-1a97.7 97.7 0 0 0-14.3-.5c-1.7 0-3.3.3-3.5 2.4a7.1 7.1 0 0 1-.8 2.6c-.7 1-.4 1.8.5 2.5s1.3 1.2.6 2.2a18.7 18.7 0 0 1-11 .7c-3.4-.7-6.7-1.6-10.3-1.5a3 3 0 0 1-2-.9H148c-.1-1.8 1.5-1.3 2.4-1.9l.9-.3c.7-.2 1.5-.3 1-1.4-4.8-5.2-3.4-10.9-.7-16.5 1-2.1 2.6-2.6 4.6-1z" transform="translate(-70.5 -70.5)"/><path class="cls-43" d="M178.9 180c2.2-.6 3.7 3.4 6.4.9-2.1-1.4-3.6-2.7.1-4.1 1.3-.5.8-3.1 2.9-3.9.2 2.5 2.2 4.4 1.9 7.1a1.3 1.3 0 0 0 1.4 1.4l3.9 8.3c-3.2-1.2-3.5-4.6-4.9-7a1.8 1.8 0 0 0-1.5 1.7c-.3 1.6 5.7 9.8 7.3 10.4a40.5 40.5 0 0 1 4.8 2.1c1.1.5 1.7 1.3 1 2.7s-1.5-.1-2.2-.1c-3.8-.2-5.9-3.3-8.7-5.2-.5-.3-.9-1.1-1.4-1.2-4.3-.2-6.5-2.8-7.9-6.6-.3-.7-2.1-.9-3.1-1.3a3.8 3.8 0 0 1-1.4-3.6 2.2 2.2 0 0 1 1.4-1.6z" transform="translate(-70.5 -70.5)"/><path class="cls-44" d="M129 209.2c.4 3.9-2.9 7.1-2.2 11.2.4 2 .5 3.9 2 5.5a6.7 6.7 0 0 1 .9-6.9 68.3 68.3 0 0 0 5.9-9.9c1.4-2.6 3.3-2.9 4.9-1.2a.4.4 0 0 1 .3.4c.2.3.3-.1.5 0a1.6 1.6 0 0 1 1.5.4 46.7 46.7 0 0 0-10.6 15.6c-1 2.3-2.8 2.7-4.9 2.3s-.8-2.4-1-3.6a18 18 0 0 1 2.7-13.8z" transform="translate(-70.5 -70.5)"/><path class="cls-45" d="M197.1 226.8c-1.9-4.3-1.1-5.8 3.3-5.7a5.6 5.6 0 0 0 1.8.1c7.8-3 10.8 3.4 15.6 7.8-5.1 1-9.1 0-12.6-2.9-2.3-1.3-3.7 1.2-5.7 1.4a2.9 2.9 0 0 1-2.4-.7z" transform="translate(-70.5 -70.5)"/><path class="cls-46" d="M128.9 247.2a10.4 10.4 0 0 0-.2-2.2c-.3-1-1-2.2.2-2.6s2.3.6 2.6 2l2.7 10.5c1.6 6.5 6.1 11.6 8.6 17.7.3.8.4 1.5-.5 2s-2.4-2.1-3.3-3.4a1.5 1.5 0 0 0-.1-.5c-.7-.6-.8-1.6-1.5-2.3-3.8-6.8-7.8-13.4-8.5-21.2z" transform="translate(-70.5 -70.5)"/><path class="cls-47" d="M197.1 216.2c2.8.3 2.7-1.7 2.8-3.6s-.1-2.4 1.2-2.9 1.8.6 2.4 1.4 1.8 1.2 2.5-.1c1.8-3.5 4.2-2.3 6.5-.9s3.4 2.6 5.7 2.3c-3.4 2.1-7.1 3-10.9 4s-6.9 1.7-10.2-.2z" transform="translate(-70.5 -70.5)"/><path class="cls-48" d="M156.2 209.6c-2.4-.6-3.5.4-4.4 2.6-2.3 5.6-2.7 10.8 2.2 15.3-.4 1.6-2.1.8-2.9 1.6-.8.4-1.6.6-2.2-.1s.2-1.1.6-1.5-1.4-2.8-1.5-4.4a7.3 7.3 0 0 1-1.4-3.1c.1-3.7-.7-7.5 2.2-10.6.8-.8.4-1.6-.4-2.3s-2.8-.8-4.1-.1a.4.4 0 0 1-.2-.4l.2-.2v-.7a4.4 4.4 0 0 1 3.7-.1c1.9 1 3.1 4 6 2.4a2.5 2.5 0 0 1 2.3.7v.9z" transform="translate(-70.5 -70.5)"/><path class="cls-49" d="M139.4 227.5c-2.5.2-3.4-1.1-2.9-3.2a24.4 24.4 0 0 1 4.8-9.6 1.4 1.4 0 0 1 1.6-.7c.8.3.6 1 .6 1.6 0 3-.2 6 1.4 8.8.6 1.1 0 1.9-1.2 2.2z" transform="translate(-70.5 -70.5)"/><path class="cls-50" d="M122.6 232.2a24.2 24.2 0 0 1 17-.1c1.1 2.4-.1 3.3-2.2 3.3s-3.9.5-5.9.4-4.7-.2-7-.6-3.5-.7-1.9-3z" transform="translate(-70.5 -70.5)"/><path class="cls-51" d="M173 231.3c-1.1-1.1-4.4-.8-2.3-3.8 5.8 2.5 11.8.9 17.8 1.1 1.4 0 1.6-1.1.9-2.2s-2.3-3.4-4.6-3.1a38.5 38.5 0 0 1-9.3.3c-1.7-.2-2.4 1.7-4 1.6-.3-2 .4-3.6 2.6-3.7 4.6-.2 9.2-.1 13.7 0 .9 0 1.7.9 2.6 1.4a41.2 41.2 0 0 0 2.1 4.7c1.3 2.2.1 2.6-1.7 2.8s-4-.7-5.8.8a15.2 15.2 0 0 1-12 .1z" transform="translate(-70.5 -70.5)"/><path class="cls-52" d="M193.3 235.9l-2.2 2.1c-2.1 2-4.8.5-7.1 1.4l-1.2.3c-3 .1-6 .5-9-.3a2.7 2.7 0 0 1-1.4-1.5 2.5 2.5 0 0 1 .2-2 3.3 3.3 0 0 1 2.7-1.1c5.6 0 11.2-.4 16.8.2a2.5 2.5 0 0 1 1.2.9z" transform="translate(-70.5 -70.5)"/><path class="cls-53" d="M178.3 269l-.6-1.6c.6-2.5-.9-4.5-1.4-6.7s-.2-2 1.7-1.4c2 2.9 2.8 6.4 3.8 9.7s.9 6.9-1.5 9.9c-2 .7-1.9.7-1.7-1.4s1.1-5.8-.3-8.5z" transform="translate(-70.5 -70.5)"/><path class="cls-54" d="M173 231.3h12l.9.7a2.3 2.3 0 0 1-1 .8c-3.3.8-6.8-.2-10.1.7-1.8.5-3.7.2-5.4.7a8.2 8.2 0 0 1-2.4.3 17.5 17.5 0 0 1-4.7-.9c-3.2.3-6.1-2.1-9.3-1.2-1.2 1.8.5 1.5 1.3 1.6 2.8.6 5.6-.6 8.3.2a.8.8 0 0 1-.1 1c-3.4 1.5-7 .8-10.5.4s-2.6-2.9-2.4-5.1c3.7.1 7.3-.2 11.1 1.1s8.2 1.1 12.3-.3z" transform="translate(-70.5 -70.5)"/><path class="cls-55" d="M209 235.2l-3-.3c-1.1-.1-2.5.1-2.5-1.5s1.2-1.4 2.2-1.4c2.9 0 5.8-1.2 8.8-.2 1.2.4 3.2-.3 3.1 1.6s-1.7 1.9-3.2 1.9-2.4.9-3.7.8a2.9 2.9 0 0 1-1.7-.9z" transform="translate(-70.5 -70.5)"/><path class="cls-56" d="M141.8 274.4a2.1 2.1 0 0 0 1.1-1.8 40.8 40.8 0 0 0 14.1 12.3c-.1 2.3-.1 2.3-3.1.8-5-2.1-8-6.5-12-9.9a1 1 0 0 1-.1-1.4z" transform="translate(-70.5 -70.5)"/><path class="cls-57" d="M248.3 206.4c-2.2-3.1-2-5.1.9-7.5a4.2 4.2 0 0 0 .7-1.7c.9.6 1.1 1.6 1.5 2.5 2.3 4.8 2 5.4-3 7.6a.6.6 0 0 1-.2-.6.4.4 0 0 1 .1-.3z" transform="translate(-70.5 -70.5)"/><path class="cls-58" d="M240.8 240.3l-35.7.2c-1.2 0-2.6.3-2.9-1.6 3.8-.7 7.7-.1 11.5-.2 1.5-.1 3-.1 3.9-1.6s3.9.6 5.8.8 6.7.4 10 .7h2.8a10.3 10.3 0 0 1 3.1.1 3.5 3.5 0 0 1 1.4.6.8.8 0 0 1 .2.6.4.4 0 0 1-.1.4z" transform="translate(-70.5 -70.5)"/><path class="cls-59" d="M217.3 237.4c.3.7 2.6 1.8.3 1.9-5.1.4-10.3 1.2-15.4-.5-.3-2.7 2.2-1.3 3.1-2.1s4-.1 6-.6a18.6 18.6 0 0 1 6 1.3z" transform="translate(-70.5 -70.5)"/><path class="cls-60" d="M197.1 226.8h2.9c1.3.1 2.5-1.2 3.8 0s2.3 2.3-.5 3.3-5.3 2.8-4.7 6.5c-.3.5-.3 1.4-.9 1.5s-.9-.6-.9-1.2a20 20 0 0 0-.4-4.8c-.5-1.8 1.5-1.6 2.2-2.3s-1.8-1.7-1.5-3z" transform="translate(-70.5 -70.5)"/><path class="cls-61" d="M178 259.2c-2.8-.4-1.3 1.5-1 2.2s1.7 3.8.7 6c-.4-3.8-2.4-7-4.1-10.3s-4.1-2.4-6.7-2.4-2.9.7-3.1-1.5c3.4-1.3 6.7-1.5 9.8.7s3.8 2.9 4.4 5.3z" transform="translate(-70.5 -70.5)"/><path class="cls-62" d="M248.3 206.4v.9a14.7 14.7 0 0 1-8.3 3.7 3.7 3.7 0 0 1-2.7.4c-1.2-1.2 0-2.2.7-2 3.1.6 3-1.6 3.4-3.4s.7-1.9 1.6-2.6 1.3-.5 1.6.7a3.1 3.1 0 0 0 3.7 2.3z" transform="translate(-70.5 -70.5)"/><path class="cls-63" d="M259.7 183.9c1.7-3.8 3.6-7.4 4.9-11.3 2-5.7.9-11.3-1.1-16.8 3.9 4.6 3.8 10 2.6 15.4s-2.8 9.2-6.4 12.7z" transform="translate(-70.5 -70.5)"/><path class="cls-64" d="M154 285.7c.9-.7 2.7 2 3.1-.8a61 61 0 0 0 13.6 0 .7.7 0 0 1 .3.8c-.6.7-1.7.7-2.3 1.3l-12.5.2a2.3 2.3 0 0 1-2.2-1.5z" transform="translate(-70.5 -70.5)"/><path class="cls-65" d="M221.1 223v1.5c.5.9.5 1.6-.9 1.6a46.3 46.3 0 0 1-3.5-3.3c-1-1.2-2.6-2.8-.8-4.1s2.6.7 3.5 1.9z" transform="translate(-70.5 -70.5)"/><path class="cls-66" d="M192.7 242.5c-5.9-.1-11.8.9-17.7-.6.5-2 2.2-1.7 3.6-1.7h10.7a3.3 3.3 0 0 1 2.6 1.1z" transform="translate(-70.5 -70.5)"/><path class="cls-67" d="M173.6 241.9c-5.2 1.6-10.6.3-15.9.7l-1.5-1.4c2.3-1.9 5.1-.7 7.6-1.1h3.2a31.2 31.2 0 0 1 4.9.2 2.3 2.3 0 0 1 1.7 1.6z" transform="translate(-70.5 -70.5)"/><path class="cls-68" d="M178.3 269c2.5 2.6 1.2 5.6.8 8.4-.1 1.1-.6 2.1 1.2 1.4-.9 2.6-2.4 4.6-5.2 5.4a1.2 1.2 0 0 1-.7-.8c.6-1.7 2.6-2.6 2.8-4.6l1.5-3a11.5 11.5 0 0 1 0-5.3z" transform="translate(-70.5 -70.5)"/><path class="cls-36" d="M223.5 231.3a150.5 150.5 0 0 1 19.5-.8c1.5 0 3.1-.2 3.9 1.5-1.1.9-2.4.4-3.6.4a62.4 62.4 0 0 0-17.7 1.4l-1.3 1.2c-1.1-.8-.6-2-.7-3.1a.5.5 0 0 1-.1-.5z" transform="translate(-70.5 -70.5)"/><path class="cls-69" d="M131.5 235h5.5c2.1.1 2.8-1 2.7-2.9 1.7 2.3.8 3.3-1.7 3.7s-3-.6-4.3.8a11.9 11.9 0 0 1-10.6 0v-.7c.3-2.1 1.9-.9 2.9-1.1a18.2 18.2 0 0 1 5.5.2z" transform="translate(-70.5 -70.5)"/><path class="cls-67" d="M172.8 236.5v1.7c-1.4 1.4-3.3.9-5 1-4.1.3-8.2-.6-12.2.7l-1.1.6c-2.3-2.3-.7-3 1.4-3 3.9-.1 7.7 0 11.6-.1.9 0 2.3.4 1.4-1.5a1.4 1.4 0 0 1 .9-1.1h1a3 3 0 0 1 2 1.7z" transform="translate(-70.5 -70.5)"/><path class="cls-70" d="M198.5 229.7c-3 2-1.1 4.9-1.3 7.5 0 .5.8-.5 1.3-.6a3.5 3.5 0 0 1 .3.7c.3 1.4 1.5 2.7.7 4.2a1 1 0 0 1-1 .2 7.7 7.7 0 0 1-2.2-4.2c-.2-1.7.1-3.5-.7-5.2-1.3-3.5.4-3.5 2.9-2.6z" transform="translate(-70.5 -70.5)"/><path class="cls-71" d="M178.2 169.4c-2 1.4-3.8 1.4-5.3-.7a2.6 2.6 0 0 1 .7-2.9l.9-.2a11.8 11.8 0 0 1 6 1.5 10.3 10.3 0 0 1-2.3 2.3z" transform="translate(-70.5 -70.5)"/><path class="cls-72" d="M193.2 213.9c-.9.9-.3 2.1-.7 3.1a.7.7 0 0 1-1-.1 1.8 1.8 0 0 1 .2-2.2c0-2.1 1-3.9 1.6-5.8s2.4-2 4-1.6 1.2 2 1.1 3.1-1.7 3.7-1.4 5.8c-1.7-2.1 0-4 .3-5.9s.7-1.8-.5-2.2a1.8 1.8 0 0 0-2.4 1.1 12 12 0 0 0-1.2 4.7z" transform="translate(-70.5 -70.5)"/><path class="cls-73" d="M163.8 253.2c1.1 1.3 2.6.6 3.9.8s4.8.6 5.9 3.1c-3.6-2.4-7.4-2.4-11.3-.9-1 .6-1.6.4-1.6-.8s1.7-2 3.1-2.2z" transform="translate(-70.5 -70.5)"/><path class="cls-74" d="M217.3 237.4c-2.2-.5-4.5.5-6.6-.7-.3.2-.7.2-.9-.2a1 1 0 0 1 .8-1.3h3.8c3.2 2.2 7 1.2 10.4 2l.3.4a.9.9 0 0 1-.4.8 1.1 1.1 0 0 1-1.3-.3c-2.1.3-4-1.1-6.1-.7z" transform="translate(-70.5 -70.5)"/><path class="cls-75" d="M239.3 239.5a3.1 3.1 0 0 0-2.4 0c-.9-.3-1.9-.4-1.7-1.7a1 1 0 0 1 .8-.7l1.2-.4c2.5-.2 5.1-.8 7.4.8s2.1 3.7-1.5 3.6c-.6-.8-1.5-.5-2.3-.7a4.1 4.1 0 0 0-.1-.6c.1-.4.7-.3.8-.7a2.5 2.5 0 0 0-2.2.4z" transform="translate(-70.5 -70.5)"/><path class="cls-76" d="M237 210.9h3c-5.2 1.6-10.3 4.6-16 1.6l.3-.4 1-.3a14.4 14.4 0 0 0 7-.7c1.5-.3 3.1-1.1 4.7-.2z" transform="translate(-70.5 -70.5)"/><path class="cls-77" d="M112.4 230.3l1.6.2a2.1 2.1 0 0 1-.6 2.3c-1.1.9-.4 2.1-.5 3.1s0 1.8-1.4 1.6l-1.3-1.7c-.6-2.3.2-4.1 2.2-5.5z" transform="translate(-70.5 -70.5)"/><path class="cls-54" d="M149.4 227.5c-.6 1.7.6 1.5 1.6 1.6-.6 1.3-2.3.3-3 1.5s-.6 2.9-.7 4.3l-.3.4a1.3 1.3 0 0 1-1.4-.2 24.5 24.5 0 0 1-.4-4.4c.6-2 2.4-2.7 4.2-3.2z" transform="translate(-70.5 -70.5)"/><path class="cls-78" d="M227.1 244.2l1.6.7c.9.8 1.9.3 2.9.4s1.7-.2 1.6 1-1.1.5-1.4 1a4.2 4.2 0 0 1-4.5-.2 7.2 7.2 0 0 1-1.4-2.1c-.4-1.2.2-1.5 1.2-.8z" transform="translate(-70.5 -70.5)"/><path class="cls-79" d="M147.3 234.9a3.9 3.9 0 0 1 1.2 1.4c.3 1.4 3 2.2 1.5 3.6s-2.5-1-3.7-1.7a4.5 4.5 0 0 1-2.2-2.9 1 1 0 0 1 .9-.3c.7.3 1.1 1.8 2.2.5v-.5z" transform="translate(-70.5 -70.5)"/><path class="cls-80" d="M123 236.6h10.6c1.3.2 2.8-.5 3.8.9a.7.7 0 0 1-.4 1c-4 .2-7.9-.2-11.9-.1a6.8 6.8 0 0 0-2.1.5c-.9-.8-.9-1.6 0-2.3z" transform="translate(-70.5 -70.5)"/><path class="cls-81" d="M244.5 235.8v.8c-2.8.3-5.7 1.2-8.4-.8h-8.9a.8.8 0 0 1 .3-1.2c5.8-1.3 11.4-.6 17 1.2z" transform="translate(-70.5 -70.5)"/><path class="cls-18" d="M191.9 241.2h-2.5c-.1-1.5-1.2-1.2-2.2-1.3s-3 .5-3.8-1.3c2.5-.9 5.1-.1 7.7-.5 1 .1 2 0 2.2 1.4a1.5 1.5 0 0 1-1.4 1.7z" transform="translate(-70.5 -70.5)"/><path class="cls-80" d="M131.5 235c-2.7 1-5.7-1.1-8.4.8-2.2-1.3-2.4-2.2-.5-3.6-.5 2.1.7 2.2 2.3 2.2s4.5-.6 6.6.6z" transform="translate(-70.5 -70.5)"/><path class="cls-82" d="M223.5 231.3v.7c-.9.2-1.5 1.8-2.5 1.1s-.1-1.7.5-2.5-.4-2.1-.2-3.2c1.7.1 2.5 1.7 3.8 2.4z" transform="translate(-70.5 -70.5)"/><path class="cls-83" d="M184.7 232.2l1-.2h5.3c2.6.1 3.8 1.2 2.3 3.8h-.9c-1.5-3.2-5-1.2-7.1-2.6a1.5 1.5 0 0 1-.6-1z" transform="translate(-70.5 -70.5)"/><path class="cls-84" d="M169.9 235.3l-.8.5c-2.3.3-4.4-1.2-6.7-.7v-.9a1.2 1.2 0 0 1-.4-.7 1.4 1.4 0 0 1 .3-.8l4.6.7c.6.9 1.7.7 2.5 1a1 1 0 0 1 .5.9z" transform="translate(-70.5 -70.5)"/><path class="cls-85" d="M178.2 169.4c-.2-1.8.8-2.4 2.4-2.3l2.1.9a5.9 5.9 0 0 0 0 .6 3.2 3.2 0 0 1-2.3 1.5 1.3 1.3 0 0 1-2.2-.7z" transform="translate(-70.5 -70.5)"/><path class="cls-86" d="M173.7 253.9c-3.2-1.5-6.5-1.1-9.8-.7 3.6-2.3 6.6-2.1 9.8.7z" transform="translate(-70.5 -70.5)"/><path class="cls-27" d="M137.4 238.2v-.8c1.3 0 2.7-.5 3.9.5s-.6.4-.3.7a1.2 1.2 0 0 0 .8-.5h.7c.3 1.6-.4 2.3-2 2.2h-4.7c-.3-1.3.8-1.6 1.6-2.1z" transform="translate(-70.5 -70.5)"/><path class="cls-87" d="M112.4 230.3a8.4 8.4 0 0 0-2.1 5.5c-2.2-1.2 1-3.4-.9-4.7.6-1.5 1.2-3.4 3-.8z" transform="translate(-70.5 -70.5)"/><path class="cls-88" d="M154 168.6v.9a2.1 2.1 0 0 1-1 1.1c-1.2.6-2.2 1.6-3.5 1.9s0 .5 0 .7a2.9 2.9 0 0 1-1.7 1.3 1.6 1.6 0 0 1-1.5-.5 13.8 13.8 0 0 1 7.7-5.4z" transform="translate(-70.5 -70.5)"/><path class="cls-89" d="M231.8 247.3c-.3-.5 1.9-1.2-.1-1.6s-2.2.3-3-.8h3c1.2-.2 3-1.7 3.4 0s-1.6 2.3-3.3 2.4z" transform="translate(-70.5 -70.5)"/><path class="cls-90" d="M118.6 235.8c1 1.2 1.2 2.5-.1 3.4s-1.5-.6-2.1-1.3c-.9-2.3-.2-2.9 2.2-2.1z" transform="translate(-70.5 -70.5)"/><path class="cls-91" d="M225 229.9c-2.1.5-2.3-1.9-3.8-2.4l-.9-1.4a1.7 1.7 0 0 0 .9-1.6c1.2 1.8 2.2 3.9 4.6 4.6z" transform="translate(-70.5 -70.5)"/><path class="cls-92" d="M160.7 255.4a1.5 1.5 0 0 0 1.6.8c-.8 1.7-2.8 2-4.1 3.2a3.9 3.9 0 0 1 2.5-4z" transform="translate(-70.5 -70.5)"/><path class="cls-93" d="M144.9 235.1h-.9l-.6-.8c-1-1.9.8-2.5 1.6-3.6 1.8 1.2 1.2 2.8.7 4.3a.5.5 0 0 1-.8.1z" transform="translate(-70.5 -70.5)"/><path class="cls-94" d="M236.2 237.3l-.7.2a13.6 13.6 0 0 1-10.5 0l-.2-.3c3.7-1.4 7.6-.3 11.3-.7a.4.4 0 0 1 .2.5z" transform="translate(-70.5 -70.5)"/><path class="cls-95" d="M227.1 244.2c-2.5 1 1 1.9.1 2.9a9 9 0 0 1-1.7-1.3c-.7-.8-2.4-1.6-1.7-2.5s2.4-.2 3.3.9z" transform="translate(-70.5 -70.5)"/><path class="cls-96" d="M118.6 235.8c-1.8-.4-2.2.6-2.2 2.2-1.6-2-.5-3.6.8-5.1s1.6.2 1.3 1.4v1.6z" transform="translate(-70.5 -70.5)"/><path class="cls-97" d="M203.8 226.8c-1.3.1-2.5.8-3.8 0 1.7-1 3.1-3.9 5.4-.8a1.4 1.4 0 0 0-1.6.8z" transform="translate(-70.5 -70.5)"/><path class="cls-98" d="M159.3 265.9l3.1 1.6c.4 1 .4 1.8-.9 1.5s-3.2-.9-2.2-3.1z" transform="translate(-70.5 -70.5)"/><path class="cls-14" d="M164.7 241h-8.5l-1.6-.7.4-.2c2-1.5 4.3-.8 6.5-.9s2.8 0 3.2 1.8z" transform="translate(-70.5 -70.5)"/><path class="cls-99" d="M210.6 235.2c-.2.5-.8 1.1.1 1.5-1.8 1.2-3.5.2-5.3.1.7-1.7 2.7-.2 3.6-1.6h1.6z" transform="translate(-70.5 -70.5)"/><path class="cls-100" d="M236.2 237.3a2.3 2.3 0 0 0 0-.7 1.2 1.2 0 0 0-.1-.7c2.7 1.3 5.6.5 8.4.8a2.8 2.8 0 0 1 .1.7h-8.4z" transform="translate(-70.5 -70.5)"/><path class="cls-101" d="M118.5 234.2l-1.3-1.4c.6-1.3 1.9-2.4 2.8-1.3s-.4 2.1-1.5 2.7z" transform="translate(-70.5 -70.5)"/><path class="cls-102" d="M123 238.9a1.4 1.4 0 0 1 .8-1.3c.9.7 1.9.2 2.8.3s2.5.5 1.1 2.1c-1.3-.1-2.7.3-4-.3z" transform="translate(-70.5 -70.5)"/><path class="cls-76" d="M219.6 211.7c.9-2.3 2.5-.7 3.8-.7s1.1.6.8 1.4l-.2.2z" transform="translate(-70.5 -70.5)"/><path class="cls-103" d="M111.5 237.5c1.9-1 .1-3.6 1.9-4.6a26.1 26.1 0 0 1-.1 4.7c-.4 2.1-1.2 1.2-1.8-.1z" transform="translate(-70.5 -70.5)"/><path class="cls-104" d="M141.8 238.2c-.6 2.3-2 1.3-3.4 1 .6-1.6 2-.8 2.9-1.2z" transform="translate(-70.5 -70.5)"/><path class="cls-105" d="M141.8 274.4l.3 1.4a5.8 5.8 0 0 1-3-4.7z" transform="translate(-70.5 -70.5)"/><path class="cls-106" d="M170.6 285.6a3.7 3.7 0 0 1 0-.7l2.2-.8a.9.9 0 0 1 0 1.4c-.3 1.3-1 1.8-2.2 1a.5.5 0 0 1-.2-.6.3.3 0 0 1 .2-.3z" transform="translate(-70.5 -70.5)"/><path class="cls-54" d="M145.1 230.7c-.2 1.4-1.7 2.1-1.6 3.6-1.8-2.2-.2-3 1.6-3.6z" transform="translate(-70.5 -70.5)"/><path class="cls-107" d="M144.1 206.4v.6a2.8 2.8 0 0 1-1.5 1.7h-2.3v-.8c1.8.5 2.5-1.3 3.8-1.5z" transform="translate(-70.5 -70.5)"/><path class="cls-12" d="M178.8 270.5v5.3a5 5 0 0 1 0-5.3z" transform="translate(-70.5 -70.5)"/><path class="cls-108" d="M146.5 220a3.7 3.7 0 0 1 1.5 3c-1.9-.4-1.8-1.6-1.5-3z" transform="translate(-70.5 -70.5)"/><path class="cls-27" d="M123.8 239.6h4.6c.6-.2.9.1.8.7h-5.4a3.1 3.1 0 0 1 0-.7z" transform="translate(-70.5 -70.5)"/><path class="cls-109" d="M172.8 285.4V284a1.7 1.7 0 0 1 1.7-.6l.7.8a2.6 2.6 0 0 1-2.4 1.2z" transform="translate(-70.5 -70.5)"/><path class="cls-94" d="M227.2 235.1v.7a4.7 4.7 0 0 1-3-.7v-1.7a3.1 3.1 0 0 1 3 1.7z" transform="translate(-70.5 -70.5)"/><path class="cls-110" d="M170.6 285.6v.9c-.6.8-1.4.6-2.1.5-.1-1.7 1.2-1.3 2.1-1.4z" transform="translate(-70.5 -70.5)"/><path class="cls-42" d="M146.3 173.9h1.6c.4 1.2-.6 1.5-1.3 1.9a1.6 1.6 0 0 1-1.5-.3l-.2-.2z" transform="translate(-70.5 -70.5)"/><path class="cls-111" d="M137.4 268.3a2.2 2.2 0 0 1 1.5 2.3c-1.5-.1-1.5-1.3-1.5-2.3z" transform="translate(-70.5 -70.5)"/><path class="cls-112" d="M362.1 315.5c0 5-.1 10 0 15.1.1 3.2-1.4 4.7-4.4 4.7s-4.5-1.4-4.5-4.7c.1-10.2.1-20.4 0-30.5 0-3.1 1.1-4.6 4.4-4.6s4.5 1.6 4.5 4.6c-.1 5.1 0 10.3 0 15.4z" transform="translate(-70.5 -70.5)"/><path class="cls-113" d="M297.6 314.9v-14.7c0-2.9.6-4.8 4.1-4.8s4.8 1.2 4.8 4.6c-.1 10-.1 20.1 0 30.1 0 3.2-1 5.1-4.4 5.1s-4.5-1.4-4.5-5.4v-14.9z" transform="translate(-70.5 -70.5)"/><path class="cls-114" d="M278.6 306.4c0 2.5-.1 5 0 7.5s-1.9 4-4.3 4.1-4.5-1.2-4.5-4c-.1-5-.2-10 0-15 .1-3.1 2.3-3.6 5-3.6s3.9 1.3 3.9 3.9v7.1h-.1z" transform="translate(-70.5 -70.5)"/><path class="cls-115" d="M325.2 324.1v-7.5c0-2.5 1.4-3.9 4-3.8s4.7.7 4.7 4c0 4.9.1 9.7.1 14.6 0 3.1-2.1 4.1-4.7 4s-4.3-1-4.1-4.1 0-4.9 0-7.2z" transform="translate(-70.5 -70.5)"/><path class="cls-116" d="M129.2 240.3l-.8-.7a1.8 1.8 0 0 0-2.7-1 1.2 1.2 0 0 1-1.8-1c4.5-.5 9.1-.7 13.5.7l-1.5 2h-6.6z" transform="translate(-70.5 -70.5)"/><path class="cls-117" d="M375.3 311.3c.1-1.9 1-5.4-4.1-4.7-1.3.2-1.5-1.1-1.5-2.2a1.6 1.6 0 0 1 2.1-1.6c3.3.5 3.7-1.5 3.6-4.1s.1-3.3-.1-4.9.3-3.1 2.6-3 3 .8 2.7 2.9 0 3.3-.1 4.9.4 4.5 3.6 4.2c1.2-.1 2.2.3 2.2 1.9s-1.1 2.1-2.5 2-3.5 1.2-3.3 3.6-.1 3.3 0 4.9-.2 3.2-2.5 3.2-2.8-1.1-2.7-3 0-2.1 0-4.1z" transform="translate(-70.5 -70.5)"/><path class="cls-118" d="M252.3 236c1.8-.8 1.3-2.4 1.3-3.8 1.7-2.3 4-1.3 6-.9a32.9 32.9 0 0 1 5.9 1.7h-.1c1.3 2.8 1 5-2.1 6.3a15.7 15.7 0 0 0-2.1.8c-1.2.5-2.6 0-3.7.8l-1.1.3H255c-1.3.2-2.8.8-3.6-.7a3.3 3.3 0 0 1 .9-4.5z" transform="translate(-70.5 -70.5)"/><path class="cls-119" d="M227.2 235.1a3.9 3.9 0 0 1-2.9-1.7c2.4-2.6 5.6-1.4 8.5-1.7 4.6-.6 9.4-1.3 14 .4 3.6 4-1.3 2.6-2.3 3.7-5.8.1-11.5-1.4-17.3-.7z" transform="translate(-70.5 -70.5)"/><path class="cls-120" d="M261 239.4a1.2 1.2 0 0 1 1.5-.6 31.5 31.5 0 0 1 3.9-.7c.6.9 1.5.7 2.3.8l-9.1 2.2-4.5 1.4v-.7c-.3-1.9 1.9-.5 2.2-1.6 1.1-.7 2.7.6 3.7-.8z" transform="translate(-70.5 -70.5)"/><path class="cls-32" d="M265.6 232.9l-7.7-1.5c-1.5-.3-3-.4-4.2.8 1.5-3.4 4.4-1.2 6.6-1.5s2.6.7 3.9 1.1 1.2.3 1.4 1.1z" transform="translate(-70.5 -70.5)"/><path class="cls-24" d="M257.3 240.3c-.3 1.2-1.7.7-2.2 1.6s-3.8.8-4.4-1.6-.9-3.6 1.6-4.3c-1.7 4.9-1.6 4.9 5 4.3z" transform="translate(-70.5 -70.5)"/><path class="cls-121" d="M231 228.8c-.1-1.1 1.1-1.3 1.5-2.1s2.2 1.2 1.5 2.3a1.7 1.7 0 0 1-3-.2z" transform="translate(-70.5 -70.5)"/><path class="cls-122" d="M233.9 291c4.8 2.1 5.1 6.1 5 10.7-.3 10.1 0 20.2 0 30.3 0 4.7-1.8 6.8-6.6 7.5a20.8 20.8 0 0 1-6.7-.1c-4.6-.8-6.1-2.7-6.1-7.4.1-11 .3-22.1-.1-33.1-.2-4.2 1.4-6.9 7.1-7.7a55.9 55.9 0 0 1 7.5-.2z" transform="translate(-70.5 -70.5)"/><path class="cls-20" d="M266.4 238.1a4.3 4.3 0 0 1-3.9.7c3.4-.7 3.7-3 3-5.8 2.6 1.2.8 3.3.9 5.1z" transform="translate(-70.5 -70.5)"/><path class="cls-123" d="M183.4 238.5l5.5.3c.9.1 2.2-.6 2.4.8s-1.3.9-1.9 1.4c-4.8.4-9.7-1-14.4.8h-1.4l-1.4-.8-.2-.6a1.9 1.9 0 0 1 1-.7 66.1 66.1 0 0 1 13.3.4c-.8-.8-2.7.9-2.8-1.3v-.3z" transform="translate(-70.5 -70.5)"/><path class="cls-124" d="M166.3 266.1c.1-.6.4-.8.8-.6a1.2 1.2 0 0 1 .5.9c0 .4-.2.8-.7.5a2.4 2.4 0 0 1-.6-.8z" transform="translate(-70.5 -70.5)"/><path class="cls-44" d="M187.5 208.8l-1.8 4.4c-.8 4.6-.8 4.7-5.9 5.3-3.4.4-6.9 1-9.9-1.4.3-1.6.2-2-1.7-2.2s-4.2-1.5-6.3-2.2a1.1 1.1 0 0 1-.8-1.5 1 1 0 0 1 .9-.4c2.4.6 4.8-.2 7.2-.1s7.3 1.8 11 .7h.7c3 1.5 4.9-.2 6.6-2.6z" transform="translate(-70.5 -70.5)"/><path class="cls-125" d="M237 210.9c-4 .4-7.8 3.3-12.1 1.5a4.4 4.4 0 0 1 3.8-2.8c2.5-.4 5.3-.2 7.5-1.9a3.4 3.4 0 0 0 .8-3.1v-.5a4.4 4.4 0 0 1 3.8-1.5c.9 1.1 3 1.7 1.5 3.8.5 4.2-3.5 3-5.3 4.5z" transform="translate(-70.5 -70.5)"/><path class="cls-126" d="M159.3 183.8c1.9-4.7 1.9-4.7 7.6-2.3a1.1 1.1 0 0 1 .4 1.1c-.1.4-.2.8-.2 1.2v.8a.9.9 0 0 1-.3.7c-1.1 0-1.4.7-1.6 1.6s-1.8.9-2.8 1-1.6-.4-1.8-1.6-.8-1.6-1.3-2.5z" transform="translate(-70.5 -70.5)"/><path class="cls-127" d="M237 207.9c-1.6 3.4-5.1 1.9-7.7 2.6a11.9 11.9 0 0 0-4.4 1.9h-.7l-.8-1.4a3 3 0 0 0 1.1-.1c1.6-5 5.7-4 9.2-3.8s2.1-2.1 3.2-2.9a3.9 3.9 0 0 1 .1 3.7z" transform="translate(-70.5 -70.5)"/><path class="cls-128" d="M147.2 187.6c1.6-2.3 3.2-4.3 6.5-2.1.6.4 2-1.3 3.4-.9-.7 4.8-5.2 3.8-8.1 5.1s-.5-2-1.8-2.1z" transform="translate(-70.5 -70.5)"/><path class="cls-129" d="M169.9 217c4.4 1.9 8.9.7 13.4.6 2.7-.1 1-3.3 2.5-4.4.4 3.1.2 4.7-3.9 5.7-6.9 1.6-12.7-.8-18.7-2.7a15.9 15.9 0 0 1 6.7.8z" transform="translate(-70.5 -70.5)"/><path class="cls-130" d="M191.7 217h.8l.6 6c-3.7-1-2.9-3.9-3.1-6.1a21.4 21.4 0 0 1 .4-5.2c.2-1.9-.6-2.8-2.4-3 2.2-1.7 2.8-.2 3.1 1.6a29.6 29.6 0 0 1 0 4.4c.7 1.5.2 3 .3 4.1s.8.5.3.5-.2-.1-.2-.3a2.5 2.5 0 0 1 .2-2z" transform="translate(-70.5 -70.5)"/><path class="cls-131" d="M178.2 181.5l.8 3.8c-1.8-.9-3.5.9-5.3 0a2.3 2.3 0 0 1-.1-1.9 4.6 4.6 0 0 1 .6-1.9l.9-.5h1.1c.7 0 .8 2.8 2 .5z" transform="translate(-70.5 -70.5)"/><path class="cls-132" d="M242.3 206.4c.7-1.7-2.2-2-1.5-3.8s2-.8 2.3.7.3 2.3-.8 3.1z" transform="translate(-70.5 -70.5)"/><path class="cls-40" d="M169.8 180.8h.8a1.9 1.9 0 0 1 .9.5 3.2 3.2 0 0 1 .5 1 3.1 3.1 0 0 1-.7 3c-.8.9-1.5-.2-2.3 0a1.1 1.1 0 0 1-.3-.8c.1-.4.1-.8.2-1.3a5.2 5.2 0 0 1 .4-1.7 2.5 2.5 0 0 1 .5-.7z" transform="translate(-70.5 -70.5)"/><path class="cls-40" d="M174.4 183.8l-.7 1.5c-.5.1-1 .8-1.5 0s-.2-2.1-.3-3.1a1.5 1.5 0 0 1 .5-.9l.5-.2a1.7 1.7 0 0 1 1 .3c.3.7-.2 1.7.5 2.4z" transform="translate(-70.5 -70.5)"/><path class="cls-133" d="M167.3 203.5c.2 1.6.6 3-.2 4.7a6.5 6.5 0 0 1 .2-4.7z" transform="translate(-70.5 -70.5)"/><path class="cls-134" d="M168.7 204.5a2 2 0 0 1 .8 2.9c-1.4-.6-1.2-1.6-.8-2.9z" transform="translate(-70.5 -70.5)"/><path class="cls-135" d="M191.7 217v2.9h-.7v-5.2h.7v2.3z" transform="translate(-70.5 -70.5)"/><path class="cls-136" d="M179.9 190.7l-1.3 1a.9.9 0 1 1 .6-1.8c.3-.1.7 0 .7.8z" transform="translate(-70.5 -70.5)"/><path class="cls-137" d="M156.3 208.7c-.8 0-1.7.1-2.3-.7 1.2-1.3 2-1 2.3.7z" transform="translate(-70.5 -70.5)"/><path class="cls-138" d="M170.8 205.5a3.7 3.7 0 0 1 1 2.8c-1.3-.7-1.2-1.7-1-2.8z" transform="translate(-70.5 -70.5)"/><path class="cls-107" d="M147.9 205.6h-3.7c1.3-1.1 2.5-1 3.7 0z" transform="translate(-70.5 -70.5)"/><path class="cls-42" d="M172.1 181.5v3.8h-.7v-3.8l.4-.2zM169.1 184.5v.8h-.7a.5.5 0 0 1-.2-.5v-.2l.4-.2h.4z" transform="translate(-70.5 -70.5)"/><path class="cls-40" d="M168.3 184.5v.8h-.8a.5.5 0 0 1-.1-.5v-.2l.4-.2h.4z" transform="translate(-70.5 -70.5)"/><path class="cls-42" d="M167.6 184.5v.8h-.7v-.8l.2-.2h.3z" transform="translate(-70.5 -70.5)"/><path class="cls-139" d="M206.6 168c3.8 0 6.1 1.8 6 4.6s-3.3 6.4-5.9 6.3-5.5-3.3-5.5-6.2 1.9-4.7 5.4-4.7z" transform="translate(-70.5 -70.5)"/><path class="cls-140" d="M255.9 165c1.7 0 3.6-2.3 5 .1a7.4 7.4 0 0 1 0 7.2c-.8 1.6-2.4 2-4.2 1.2a13.6 13.6 0 0 1-3.2-2.5c-1.4-2.9 1.2-4.2 2.4-6z" transform="translate(-70.5 -70.5)"/><path class="cls-141" d="M255.9 165c-.6 2.1-3.2 3.3-2.3 6-2.2-3.2.1-4.6 2.3-6z" transform="translate(-70.5 -70.5)"/><path class="cls-142" d="M178.2 181.5c-1.3 3-2.5-1.1-3.8 0a1 1 0 0 1 0-1.5l-.9-2a4.8 4.8 0 0 1 2.1-.2 25.3 25.3 0 0 1 3.3 2.1z" transform="translate(-70.5 -70.5)"/><path class="cls-143" d="M145.1 175.6h1.3a2.7 2.7 0 0 1 3.1 0c.5 2.3.9 4.6-.8 6.8.8-3.6-1.6-5.1-3.6-6.8z" transform="translate(-70.5 -70.5)"/><path class="cls-144" d="M180.4 170.2a2.4 2.4 0 0 1 2.3-1.5c.7.5 1.8 1 .2 1.5s-1.8 2.9-2.5 0z" transform="translate(-70.5 -70.5)"/><path class="cls-145" d="M173.6 165.8a4.5 4.5 0 0 1-.7 2.9c-1.3.3-1-1-1.5-1.5a.5.5 0 0 1-.2-.6l.2-.3c.5-.7 1.4-.6 2.2-.5z" transform="translate(-70.5 -70.5)"/><path class="cls-146" d="M149.5 175.5h-3.1l1.5-1.5 1.6-.8c.9.7 1.1 1.5 0 2.3z" transform="translate(-70.5 -70.5)"/><path class="cls-147" d="M149.5 172.4c1.1-.9 2.1-2.1 3.7-2.3a.5.5 0 0 1 .2.5l-.2.3c-1.1.9-1.9 2.5-3.7 1.5z" transform="translate(-70.5 -70.5)"/><path class="cls-148" d="M169.1 167.2a1.8 1.8 0 0 1-2.5-.4.9.9 0 0 1 .2-.8c.9-.5 1.6.2 2.3.5a.6.6 0 0 1 0 .7z" transform="translate(-70.5 -70.5)"/><path class="cls-149" d="M141.9 179.2c.7.4 1.7-.9 2 .4a2 2 0 0 1-1.1 1.6c-1.3 0-.7-1.2-.9-2z" transform="translate(-70.5 -70.5)"/><path class="cls-150" d="M153.3 171v-.8l.8-.7c.6-.1 1.8-1 1.8-.1s-1.9.8-2.6 1.6z" transform="translate(-70.5 -70.5)"/><path class="cls-151" d="M169.1 167.2v-.8c.8-1.1 1.5-.2 2.3 0v.8c-.8.2-1.6 1.2-2.3 0z" transform="translate(-70.5 -70.5)"/><path class="cls-42" d="M167.6 181.5h1.5l.3.3a8.2 8.2 0 0 1 0 1.4 1 1 0 0 1-.5.7l-.9-.3c-.4-.6-.9-1.2-.4-2.1z" transform="translate(-70.5 -70.5)"/><path class="cls-40" d="M167.6 181.5l.7 2.3-.2.3h-.7a1.3 1.3 0 0 1-.5-.5v-1.9h.7z" transform="translate(-70.5 -70.5)"/><path class="cls-42" d="M172.9 181.5h-.7a1 1 0 0 1 0-1.5h.7a1 1 0 0 1 0 1.5z" transform="translate(-70.5 -70.5)"/><path class="cls-40" d="M172.2 180v1.5h-.8a1.1 1.1 0 0 1-.1-1.5h.8z" transform="translate(-70.5 -70.5)"/><path class="cls-42" d="M171.3 180v1.5l-.8-.8zM174.4 180v1.5c-.3.4-.5.3-.7 0a1 1 0 0 1 0-1.5h.7z" transform="translate(-70.5 -70.5)"/><path class="cls-40" d="M173.6 180v1.5h-.8V180h.8z" transform="translate(-70.5 -70.5)"/><path class="cls-42" d="M169.8 180.8v.7c-.2.3-.5.4-.7 0z" transform="translate(-70.5 -70.5)"/><path class="cls-118" d="M171.4 225.3c.7-2.2 2.1-3.1 4.5-2.8a32.7 32.7 0 0 0 8.5-.2c1.8-.2 3.5-.2 4.6 1.7s2.8 3.2 2 4.9-3 .6-4.6.6h-12.7c-1.6 0-2.7-.3-3-2a2.2 2.2 0 0 0 .7-2.2z" transform="translate(-70.5 -70.5)"/><path class="cls-152" d="M153.9 224.7a2.9 2.9 0 0 1-.5-1c-.1-2.1-1.4-4.8.6-6s5 .6 7.4 1.6a1.6 1.6 0 0 1 .8 1.6c.3 2.2-.6 4.4-2.5 4.9s-2 4.2-4.3 1.3l.2-.5a12.9 12.9 0 0 1 2.6-2.1c1-.8 2.1-1.7 1.5-3.1s-1.9-1.6-3.1-1.6-1.5 1.6-1.7 2.7a7.4 7.4 0 0 1-.3 1.5 1.8 1.8 0 0 1-.7.7z" transform="translate(-70.5 -70.5)"/><path class="cls-153" d="M168.2 223.2c.3 1.7.6 3.3-.2 4.8a2.4 2.4 0 0 1-3.6.9c-1.4-.8-.5-2.2.4-2.7s1.2-3.2 3.4-3z" transform="translate(-70.5 -70.5)"/><path class="cls-54" d="M151 229.1l2.9-1.6c0 2.1-1.7 1.5-2.9 1.6z" transform="translate(-70.5 -70.5)"/><path class="cls-48" d="M153.9 224.7l.3-.9c1.5.4 2 1.3 1.3 2.8v.4a3.3 3.3 0 0 1-1.6-2.3z" transform="translate(-70.5 -70.5)"/><path class="cls-107" d="M140.4 208.7c-.1.6-.1 1.3-1 1.1a1 1 0 0 1-.4-.9c.2-1 .9-.3 1.4-.3z" transform="translate(-70.5 -70.5)"/><path class="cls-134" d="M148.1 218.1c-.3-1.3-1.5-2.5 0-4a3.2 3.2 0 0 1 0 4z" transform="translate(-70.5 -70.5)"/><path class="cls-154" d="M161.6 240.4H155c-.5-2.5 1.3-2.1 2.7-2.2h15.2l1 .6c-.3.9-1.2 1-1.7 1.6l-.2.2a4.1 4.1 0 0 1-2 .1c-1.1-1-2.4-.6-3.7-.6s-3.2-.5-4.7.3z" transform="translate(-70.5 -70.5)"/><path class="cls-155" d="M185 232.8h5.1c2.3-.1 2.7 1.1 2.3 3h-16c-1.2 0-2.5-.4-3.5.6l-2.4-1.3c4.2-2.2 8.7-1.2 13.1-1.1 1.5 0 3 .3 4.4.3h.4c-.3.4.2 0-.4 0s-2.4.3-3.2-1v-.5z" transform="translate(-70.5 -70.5)"/><path class="cls-156" d="M172.1 240.3c0-1.1.8-1.5 1.7-1.6h9.6c.9 1.3 2.6.5 3.7 1.5h-15z" transform="translate(-70.5 -70.5)"/><path class="cls-157" d="M162.2 233.6v.8c-3 1.3-6.1.5-9.2.6a2.6 2.6 0 0 1-2.6-1.8c-.4-1 .3-1.6 1.3-1.9l.7.6a11.6 11.6 0 0 0 4.3-.1c1.8 1.1 3.7 1.3 5.5 1.8z" transform="translate(-70.5 -70.5)"/><path class="cls-158" d="M151.8 232v-.7c3.7-.9 6.9 1.1 10.4 1.6a.9.9 0 0 1 .1.7 9.4 9.4 0 0 1-6-1.5 6.2 6.2 0 0 1-4.5-.1z" transform="translate(-70.5 -70.5)"/><path class="cls-155" d="M184.7 232.2l.2.6h-.1c-3.1 1.6-6.4.8-9.7.6a2 2 0 0 1-1-.8c3.6-.9 7.2-.1 10.6-.4z" transform="translate(-70.5 -70.5)"/><path class="cls-155" d="M168.9 233.4c1.6-1.3 3.5-.4 5.3-.7v.2c-.9 2.7-3 1-4.6 1.3a1.5 1.5 0 0 1-.7-.8z" transform="translate(-70.5 -70.5)"/><path class="cls-155" d="M169.1 234.9c-1 0-2.3.3-2.3-1.4l2.1-.2.2.2a.9.9 0 0 1 0 1.4z" transform="translate(-70.5 -70.5)"/><path class="cls-159" d="M223.4 238.1h1.5c.6-.6 1.4-.3 2.1-.3a6.8 6.8 0 0 0 4.2 0 9.8 9.8 0 0 1 2.7.1 1 1 0 0 1 .1 1.5l-8.4.2c-1.1 0-2.1-.1-2.2-1.5z" transform="translate(-70.5 -70.5)"/><path class="cls-59" d="M239.3 239.5c1.3-2.7 3.1-1.1 5.1-.9-1.2 1.6-2.6.8-3.7 1.1h-1.5z" transform="translate(-70.5 -70.5)"/><path class="cls-159" d="M234 239.3v-1.1a.9.9 0 0 1 1.5-.1l1.4 1.2H234z" transform="translate(-70.5 -70.5)"/><path class="cls-156" d="M166.1 239.6c1.5-.6 2.9-1.3 3.8.8-1 .6-2.2 0-3.2.6l-1.4-.2c-.4-.8-.4-1.4.8-1.2z" transform="translate(-70.5 -70.5)"/><path class="cls-160" d="M166.1 239.6l-.8 1.2-.6.2c-.9-.8-2.1-.4-3.2-.6 1.5-.9 2.9-1.6 4.6-.8z" transform="translate(-70.5 -70.5)"/><path class="cls-14" d="M166.7 241c.9-.8 2.1-.4 3.2-.6h2.1l.2.5h-5.5z" transform="translate(-70.5 -70.5)"/><path class="cls-161" d="M169.1 234.9v-1.3c1.8-.3 3.7.7 5.3-.8h10.5c1.1 1.2 2.5.5 3.8.7a1 1 0 0 1 .1 1.5c-6.1-.1-12.2-.4-18.3.1h-.6z" transform="translate(-70.5 -70.5)"/><path class="cls-162" d="M235.5 238.2h-4.6a5.4 5.4 0 0 1-3.7 0h-2.3a1.6 1.6 0 0 1 .2-.6h10.5v.7z" transform="translate(-70.5 -70.5)"/><path class="cls-163" d="M144.9 235.1h.9l1.3.4.7 2.5a7.3 7.3 0 0 1-2.9-2.9z" transform="translate(-70.5 -70.5)"/><path class="cls-24" d="M261 239.4c-.9 1.7-2.4.9-3.7.9 1.1-1 2.4-.8 3.7-.9z" transform="translate(-70.5 -70.5)"/><path class="cls-112" d="M233.5 315.7c0 5.1-.1 10.2 0 15.3.1 3.1-1.5 4.3-4.3 4.3s-4.5-1.1-4.5-4.2v-31.6c0-3.1 1.9-4 4.7-4s4.2 1.4 4.2 4.1c.1 5.4 0 10.7 0 16.1h-.2z" transform="translate(-70.5 -70.5)"/><path class="cls-132" d="M237 207.9v-3.8c1.5 1.3 1.5 2.6 0 3.8z" transform="translate(-70.5 -70.5)"/><path class="cls-40" d="M166.1 183.7l.8-.7.3.4-.2.5a.6.6 0 0 1-.9-.2z" transform="translate(-70.5 -70.5)"/><path class="cls-42" d="M166.1 183.7h.8a.4.4 0 0 1 .2.5l-.2.3z" transform="translate(-70.5 -70.5)"/><path class="cls-40" d="M173.6 181.5h.7v2.3c-.8-.6-.6-1.5-.7-2.3zM169.1 181.5h.7v2.3a.5.5 0 0 1-.8 0v-2.3z" transform="translate(-70.5 -70.5)"/><path class="cls-42" d="M169.1 183.8h.8l-.8.7a.4.4 0 0 1-.3-.5l.3-.3z" transform="translate(-70.5 -70.5)"/><path class="cls-40" d="M169.1 183.8v.8h-.8a.4.4 0 0 1-.3-.5l.3-.3h.8z" transform="translate(-70.5 -70.5)"/><path class="cls-42" d="M168.4 183.8v.8h-.8a.4.4 0 0 1-.2-.5l.2-.3h.8z" transform="translate(-70.5 -70.5)"/><path class="cls-40" d="M167.6 183.8v.8h-.8v-.8a.5.5 0 0 1 .8 0z" transform="translate(-70.5 -70.5)"/><path class="cls-42" d="M167.6 183.8h-.8v-.8z" transform="translate(-70.5 -70.5)"/><path class="cls-164" d="M155.6 226.5l-1.3-2.8a8 8 0 0 1-.2-1.9c.2-1.2-.8-3.1 1.2-3.3s4.4.3 5.7 2.1.1 3-1.3 3.9-2.1 2.7-4.1 2z" transform="translate(-70.5 -70.5)"/><path class="cls-165" d="M188.8 235.1v-1.5c.9.1 1.9-.2 2.7.6s-1.9.6-2.7.9zM151.8 232h4.5a3.4 3.4 0 0 1-4.5 0z" transform="translate(-70.5 -70.5)"/><path class="cls-166" d="M227.2 238.2h3.7a2.6 2.6 0 0 1-3.7 0z" transform="translate(-70.5 -70.5)"/></svg>