<svg id="Layer_3" data-name="Layer 3" xmlns="http://www.w3.org/2000/svg" viewBox="0 0 360 360"><defs><style>.cls-1{fill:#1d1817}.cls-2{fill:#fff}.cls-3{fill:#fa0303}</style></defs><title>novacancy</title><path class="cls-1" d="M0 0h360v360H0z"/><path class="cls-2" d="M205.5 197.4v41.3h-1.9v-44.4h2.3l27.3 44.5H231zm1.9 5.5l1.9 3.3v32.5h-1.9v-35.8zm.7-8.6h2.3l27.3 44.5h-2.3zm3.2 15.1l1.9 3.2v26.2h-1.9v-29.5zm1.4-15.1h2.3l27.3 44.5H240zm2.5 21.4l1.9 3.2v19.9h-1.9v-23.1zm2-21.4h2.3l25.4 41.3v-41.3h1.9v44.5h-2.3zm17.9 23.1l-1.9-3.2v-19.9h1.9v23.1zm3.9 6.3l-1.9-3.2v-26.2h1.9v29.4zm3.9 6.4l-1.9-3.3v-32.5h1.9v35.8zM252.8 225.9a23.9 23.9 0 0 1 0-18.8 23.8 23.8 0 0 1 12.9-12.9 23.9 23.9 0 0 1 18.8 0 23.8 23.8 0 0 1 12.9 12.9 23.9 23.9 0 0 1 0 18.8 23.8 23.8 0 0 1-12.9 12.9 23.9 23.9 0 0 1-18.8 0 23.8 23.8 0 0 1-12.9-12.9zm1.8-18a22.1 22.1 0 0 0 0 17.3 21.8 21.8 0 0 0 11.8 11.8 22.1 22.1 0 0 0 17.3 0 21.8 21.8 0 0 0 11.8-11.8 22.1 22.1 0 0 0 0-17.3 21.8 21.8 0 0 0-11.8-11.9 22.1 22.1 0 0 0-17.3 0 21.8 21.8 0 0 0-11.8 11.9zm2.9 18.8a20.4 20.4 0 0 1 0-20.4 20.2 20.2 0 0 1 7.4-7.4 20.4 20.4 0 0 1 20.4 0 20.2 20.2 0 0 1 7.4 7.4 20.4 20.4 0 0 1 0 20.4 20.2 20.2 0 0 1-7.4 7.4 20.4 20.4 0 0 1-20.4 0 20.2 20.2 0 0 1-7.4-7.4zm.7-17.3a18.3 18.3 0 0 0 0 14.3 17.9 17.9 0 0 0 9.8 9.8 18.3 18.3 0 0 0 14.3 0 17.9 17.9 0 0 0 9.8-9.8 18.3 18.3 0 0 0 0-14.3 17.9 17.9 0 0 0-9.8-9.8 18.3 18.3 0 0 0-14.3 0 17.9 17.9 0 0 0-9.8 9.8zm2.7 15.4a16.5 16.5 0 0 1 0-16.5 16.3 16.3 0 0 1 6-6 16.5 16.5 0 0 1 16.5 0 16.3 16.3 0 0 1 6 6 16.5 16.5 0 0 1 0 16.5 16.3 16.3 0 0 1-6 6 16.5 16.5 0 0 1-16.5 0 16.3 16.3 0 0 1-6.1-6zm1.7-15.5a14.6 14.6 0 0 0 0 14.6 14.5 14.5 0 0 0 5.3 5.3 14.6 14.6 0 0 0 14.6 0 14.5 14.5 0 0 0 5.3-5.3 14.6 14.6 0 0 0 0-14.6 14.5 14.5 0 0 0-5.3-5.3 14.6 14.6 0 0 0-14.6 0 14.5 14.5 0 0 0-5.4 5.2zm1 12.2a12.5 12.5 0 0 1 0-9.7 12.4 12.4 0 0 1 6.7-6.7 12.5 12.5 0 0 1 9.7 0 12.4 12.4 0 0 1 6.7 6.7 12.5 12.5 0 0 1 0 9.7 12.4 12.4 0 0 1-6.7 6.7 12.4 12.4 0 0 1-9.7 0 12.4 12.4 0 0 1-6.8-6.8zm4.1-12.4a10.6 10.6 0 1 0 7.5-3.1 10.2 10.2 0 0 0-7.6 3z" transform="translate(-70.5 -70.5)"/><g><path class="cls-3" d="M83.8 262.3h2.1l16.5 41.9 16.6-41.9h2.1l-17.6 44.5h-2.1zm20 34.8l-1.1 2.5L88 262.3h2.1zm2.1-5.3l-1 2.7-12.7-32.2h2.1zm2-5.4l-1 2.7-10.6-26.8h2.1zm15.2-24.1h2.1l-17.6 44.5h-2.1zm4.2 0h2.1l-17.6 44.5h-2.1zm4.1 0h2.1L116 306.7h-2.1zM135.5 306.7h-2.1l17.6-44.4h2.1l17.6 44.5h-2.1L152 264.9zm16.8-37.3l1.1 2.5-13.7 34.8h-2.1zm2.1 5.1l1 2.7-11.6 29.5h-2.1zm2 5.3l1 2.7-9.5 24.1h-2.1zm-5.3 21.5l.8-1.9h12.7l.8 1.9h-14.2zm1.5-3.9l.8-1.9h9.6l.8 1.9h-11.1zm1.5-3.9l.8-1.9h6.6l.8 1.9h-8.2zm3-31.4l17.6 44.5h-2.1L155 262.1h2.1zm4.2 0l17.6 44.5h-2.1l-17.6-44.5h2.1zm21.8 44.5H181l-17.6-44.5h2.1zM226.8 270.9l-1.6 1a22.1 22.1 0 0 0-7.9-7.1 22.2 22.2 0 0 0-19.1-.8 21.8 21.8 0 0 0-11.8 11.8 22.1 22.1 0 0 0 0 17.3 21.8 21.8 0 0 0 11.8 11.9 22.1 22.1 0 0 0 19.1-.9 22.3 22.3 0 0 0 7.9-7.1l1.6 1.2a24.2 24.2 0 0 1-8.6 7.7 24.1 24.1 0 0 1-20.7.9 23.8 23.8 0 0 1-12.9-12.9 23.9 23.9 0 0 1 0-18.8 23.8 23.8 0 0 1 12.9-12.9 24.1 24.1 0 0 1 20.8.9 24.1 24.1 0 0 1 8.5 7.8zm-3.2 2.2l-1.6 1a18.3 18.3 0 0 0-6.5-5.9 18.4 18.4 0 0 0-15.8-.7 17.9 17.9 0 0 0-9.8 9.8 18.3 18.3 0 0 0 0 14.3 17.9 17.9 0 0 0 9.8 9.8 18.1 18.1 0 0 0 7.1 1.5 17.9 17.9 0 0 0 8.7-2.2 18.4 18.4 0 0 0 6.5-5.9l1.6 1.2a20.2 20.2 0 0 1-7.2 6.5 20.4 20.4 0 0 1-19.7-.3 20.2 20.2 0 0 1-7.4-7.4 20.4 20.4 0 0 1 0-20.4 20.2 20.2 0 0 1 7.4-7.4 20.3 20.3 0 0 1 19.8-.3 20.3 20.3 0 0 1 7.2 6.4zm-3.2 2.1l-1.6 1a14.5 14.5 0 0 0-5.1-4.6 14.6 14.6 0 0 0-14.1.2 14.5 14.5 0 0 0-5.3 5.3 14.6 14.6 0 0 0 0 14.6 14.5 14.5 0 0 0 5.3 5.3 14.5 14.5 0 0 0 14.1.2 14.5 14.5 0 0 0 5.2-4.6l1.6 1.1a16.3 16.3 0 0 1-5.8 5.3 16.5 16.5 0 0 1-16-.3 16.3 16.3 0 0 1-6-6 16.5 16.5 0 0 1 0-16.5 16.4 16.4 0 0 1 14.2-8.2 16.1 16.1 0 0 1 7.7 1.9 16.3 16.3 0 0 1 5.8 5.4zm-3.2 2.2l-1.6 1a10.6 10.6 0 0 0-8.8-4.6 10.6 10.6 0 0 0 0 21.3 10.4 10.4 0 0 0 5-1.3 10.6 10.6 0 0 0 3.8-3.4l1.6 1.1a12.5 12.5 0 0 1-4.5 4 12.5 12.5 0 0 1-10.8.5 12.4 12.4 0 0 1-6.7-6.7 12.5 12.5 0 0 1 0-9.7 12.4 12.4 0 0 1 6.7-6.7 12.5 12.5 0 0 1 10.8.5 12.5 12.5 0 0 1 4.5 4.1zM231 306.7h-2.1l17.6-44.5h2.1l17.6 44.5h-2.1l-16.5-41.9zm16.8-37.3l1.1 2.5-13.7 34.8h-2.1zm2.1 5.1l1 2.7-11.6 29.5h-2.1zm2 5.3l1 2.7-9.5 24.1h-2.1zm-5.3 21.5l.8-1.9h12.7l.8 1.9h-14.2zm1.5-3.9l.8-1.9h9.6l.8 1.9h-11.1zm1.5-3.9l.8-1.9h6.6l.8 1.9h-8.2zm3-31.4l17.6 44.5h-2.1l-17.6-44.5h2.1zm4.2 0l17.6 44.5h-2.1l-17.6-44.5h2.1zm21.8 44.5h-2.1L259 262.3h2.1zM284 265.4v41.3h-2v-44.4h2.3l27.3 44.5h-2.2zm1.9 5.5l1.9 3.3v32.5h-1.9v-35.8zm.7-8.6h2.3l27.3 44.5h-2.3zm3.2 15.1l1.9 3.2v26.2h-1.9v-29.5zm1.4-15.1h2.3l27.3 44.5h-2.3zm2.5 21.4l1.9 3.2v19.9h-1.9v-23.1zm2-21.4h2.3l25.4 41.3v-41.3h1.9v44.5H323zm17.9 23.1l-1.9-3.2v-19.9h1.9v23.1zm3.9 6.3l-1.9-3.2v-26.2h1.9v29.4zm3.9 6.4l-1.9-3.3v-32.5h1.9v35.8zM373.5 270.9l-1.6 1a22.1 22.1 0 0 0-7.9-7.1 22.2 22.2 0 0 0-19.1-.8 21.8 21.8 0 0 0-11.9 11.9 22.1 22.1 0 0 0 0 17.3 21.8 21.8 0 0 0 11.9 11.8 22.1 22.1 0 0 0 19.1-.9 22.3 22.3 0 0 0 7.9-7.1l1.6 1.2a24.2 24.2 0 0 1-8.6 7.7 24.1 24.1 0 0 1-20.7.9 23.8 23.8 0 0 1-12.9-12.9 23.9 23.9 0 0 1 0-18.8 23.8 23.8 0 0 1 12.9-12.9 24.1 24.1 0 0 1 20.8.9 24.1 24.1 0 0 1 8.5 7.8zm-3.2 2.2l-1.6 1a18.3 18.3 0 0 0-6.5-5.9 18.4 18.4 0 0 0-15.8-.7 17.9 17.9 0 0 0-9.8 9.8 18.3 18.3 0 0 0 0 14.3 17.9 17.9 0 0 0 9.8 9.8 18.1 18.1 0 0 0 7.1 1.5 17.9 17.9 0 0 0 8.7-2.2 18.4 18.4 0 0 0 6.5-5.9l1.6 1.2a20.2 20.2 0 0 1-7.2 6.5 20.4 20.4 0 0 1-19.7-.3 20.2 20.2 0 0 1-7.4-7.4 20.4 20.4 0 0 1 0-20.4 20.2 20.2 0 0 1 7.4-7.4 20.3 20.3 0 0 1 19.8-.3 20.3 20.3 0 0 1 7.1 6.4zm-3.2 2.1l-1.6 1a14.5 14.5 0 0 0-5.1-4.6 14.6 14.6 0 0 0-14.1.2 14.5 14.5 0 0 0-5.3 5.3 14.6 14.6 0 0 0 0 14.6 14.5 14.5 0 0 0 5.3 5.3 14.5 14.5 0 0 0 14.1.2 14.5 14.5 0 0 0 5.2-4.6l1.6 1.1a16.3 16.3 0 0 1-5.8 5.3 16.5 16.5 0 0 1-16-.3 16.3 16.3 0 0 1-6-6 16.5 16.5 0 0 1 0-16.5 16.4 16.4 0 0 1 14.2-8.2 16.1 16.1 0 0 1 7.7 1.9 16.3 16.3 0 0 1 5.8 5.4zm-3.2 2.2l-1.6 1a10.6 10.6 0 0 0-8.8-4.6 10.6 10.6 0 0 0 0 21.3 10.4 10.4 0 0 0 5-1.3 10.6 10.6 0 0 0 3.8-3.4l1.6 1.1a12.5 12.5 0 0 1-4.5 4 12.5 12.5 0 0 1-10.8.5 12.4 12.4 0 0 1-6.7-6.7 12.5 12.5 0 0 1 0-9.7 12.4 12.4 0 0 1 6.7-6.7 12.5 12.5 0 0 1 10.8.5 12.5 12.5 0 0 1 4.5 4.1zM390.6 289.7l13-27.4h1.9l-14 29.5v15h-1.9v-15l-14-29.5h1.9zm1.5-5.3l-1 2.1-11.6-24.2h1.9zm1.9-4.2l-1 2.1-9.6-20h1.9zm1.9-4.2l-1 2.1-7.7-15.8h1.9zm-2.4 15.8l14-29.5h1.9l-14 29.5v15h-1.9v-15zm3.9 0l14-29.5h1.9l-14 29.5v15h-1.9v-15zm3.9 0l14-29.5h1.9l-14 29.5v15h-1.9v-15z" transform="translate(-70.5 -70.5)"/></g></svg>