<svg id="Layer_3" data-name="Layer 3" xmlns="http://www.w3.org/2000/svg" viewBox="0 0 360 360"><defs><style>.cls-1{fill:#fff}.cls-2{fill:url(#linear-gradient)}.cls-3{opacity:.3;filter:url(#AI_GaussianBlur_4)}.cls-4{fill:#525252}.cls-5{fill:#fee3ed}</style><linearGradient id="linear-gradient" x1="145.95" y1="315.36" x2="327.98" y2="138.03" gradientUnits="userSpaceOnUse"><stop offset="0" stop-color="#fd6ca3"/><stop offset=".46" stop-color="#fb6ba2"/><stop offset=".62" stop-color="#f4689d"/><stop offset=".74" stop-color="#e96396"/><stop offset=".83" stop-color="#d85c8b"/><stop offset=".92" stop-color="#c2537c"/><stop offset=".99" stop-color="#a7486b"/><stop offset="1" stop-color="#a14567"/></linearGradient><filter id="AI_GaussianBlur_4"><feGaussianBlur stdDeviation="4"/></filter></defs><title>onepagelove</title><path class="cls-1" d="M0 0h360v360H0z"/><path class="cls-2" d="M391.7 216.1c-5.6 48-44.3 107.8-141.3 163.6C-19.5 224.5 162 38.5 250 160.9a1.3 1.3 0 0 0 .4-.5l.4.5c12.6-17.5 27-28.7 41.8-34.6z" transform="translate(-70.5 -70.5)"/><g class="cls-3"><path class="cls-4" d="M291.1 143.8a106.1 106.1 0 0 1 .7-13.9l99 89.7a70.7 70.7 0 0 1-22.4 5c-40 2.2-76.6-31.5-77.3-80.8z" transform="translate(-70.5 -70.5)"/></g><path class="cls-5" d="M292.7 140.6a106.1 106.1 0 0 1 .7-13.9l99 89.7a70.7 70.7 0 0 1-22.4 5c-40.1 2.2-76.6-31.4-77.3-80.8z" transform="translate(-70.5 -70.5)"/></svg>