<svg id="Layer_3" data-name="Layer 3" xmlns="http://www.w3.org/2000/svg" viewBox="0 0 360 360"><defs><style>.cls-1{fill:#fff}.cls-2{fill:#fcfdfd}.cls-3{fill:#f9fbfb}.cls-4{fill:#258587}.cls-5{fill:#38b0b2}.cls-6{fill:#37b0b2}.cls-7{fill:#38b1b3}.cls-8{fill:#fe7863}.cls-9{fill:#fc7a64}.cls-10{fill:#fd7863}.cls-11{fill:#d0d3d3}.cls-12{fill:#ced4d4}.cls-13{fill:#cfd4d5}.cls-14{fill:#c8d3d3}.cls-15{fill:#f57d65}.cls-16{fill:#fa8468}.cls-17{fill:#d1d6d6}.cls-18{fill:#f5fafa}.cls-19{fill:#32aeb0}.cls-20{fill:#218385}.cls-21{fill:#88c2c3}.cls-22{fill:#fe725d}.cls-23{fill:#2cacae}.cls-24{fill:#208285}.cls-25{fill:#57bdbf}.cls-26{fill:#d0d5d6}.cls-27{fill:#c5d0d0}.cls-28{fill:#cfd2d2}.cls-29{fill:#d6d6d6}.cls-30{fill:#f6fbfb}.cls-31{fill:#f9fcfc}.cls-32{fill:#eff8f8}.cls-33{fill:#f2f9f9}.cls-34{fill:#2a2d2d}.cls-35{fill:#434646}.cls-36{fill:#edf8f8}.cls-37{fill:#f3fafa}.cls-38{fill:#fbfdfd}.cls-39{fill:#f4fafa}.cls-40{fill:#2babad}</style></defs><title>optimizilla</title><path class="cls-1" d="M0 0h360v360H0z"/><path class="cls-2" d="M276.3 369.8H172.6a2.7 2.7 0 0 1 1-3.8c10-4.1 20.5-1.8 30.8-2.2s19.3-.3 29 .1c3.9-.5 8.1 1.6 12.3-1.9-2.9-6.8-10.5-5.5-15.1-8.9s-10.4-8-4-15c19.6-2.9 39.2-2.2 58.7-.5 4.9 1.6 4.4 4.9 2.6 8.5s-4.4 8.5-6.5 12.8a64.6 64.6 0 0 0-3.1 8.1 13.8 13.8 0 0 1-2 2.8z" transform="translate(-70.5 -70.5)"/><path class="cls-3" d="M276.3 369.8v-2.6c6.7-4.2 13.3-4.9 19.7.4v2.2h-19.7zM172.6 367.7v2.1h-17.3v-2.1q8.7-7.3 17.3 0z" transform="translate(-70.5 -70.5)"/><path class="cls-4" d="M288.3 340.5h-63.1c-3.6 1.7-6.4-.5-9.1-2.1-14-8.3-27.9-8.5-42-.3-2.7 1.6-5.5 3.8-9.1 2.2l-9.6-.4c-2.6-2.6-3.2-5.9-3.3-9.4 2.2-22.5 7.4-44.2 18.1-64.4 1.4-2.3 2.9-4.5 5.8-5.2s4.3-3.8 3.9-7.1-.7-5.3 1.2-6.9c9.4-8.3 14.9-20.5 26.7-26.4 3.9-.7 6.6-2.7 7.5-6.7 5.8-7.1 12-13.6 22.5-12.1 3.6 5 5.4 10.9 8.4 16.3 7.6 13.7 20.8 18.9 34.5 23.5 8.5 2.5 17.2 1 25.8 1.2s12.2 3.8 10.7 12.3a2.2 2.2 0 0 1-.6 1c-14.1 3-15.9 13.1-14.3 25 0 1.2 0 2.4-.1 3.7s0 2.4 0 3.6 0 4.1-.2 6.1c-.6 8.1.6 13.6 10.6 8.3 1.9-1 4-.8 4.8 2 0 7.2.1 14.3 0 21.5-7.6 9.8-18.6 11.7-29.1 14.3z" transform="translate(-70.5 -70.5)"/><path class="cls-5" d="M276.4 243.8c-21.5-6.5-36-19.5-39.8-42.5-5.3-9-4.6-18.3-.9-27.6a4.6 4.6 0 0 0 .5-1.1c5-37.6 9.3-41.3 47.5-41.3 5.3 0 10.7-.1 16 0 20 .6 28.9 8 33.3 27.6.5 2.4.1 5 2.9 6.3a115.2 115.2 0 0 0 31.9.2c17.6 2.5 29.1 12.2 34.1 29.4-2.8 10.7-12.1 6.4-18.8 8.2l-3.4.2h-5c-3.6 0-7.4-2-10.6 1 .5 4.3 1.5 8.3 6.5 3.5 2.8-2.7 5.4-5 9.5-4.1 4.5 2.9 7.3 9 14.2 7.6 2.3 1.7 2.1 3.9 1.1 6.2-6.7 17.5-18.3 25.5-37.5 26-13.1.3-26.2.4-39.4.6a141.7 141.7 0 0 1-42.1-.2z" transform="translate(-70.5 -70.5)"/><path class="cls-6" d="M172.7 266.8c-8.9 20.4-15.4 41.4-17.5 63.6-.7 6.9-4.3 8.9-11.3 8.8-12.6-.3-25.3-1.4-37.8.8-2.6.1-5.8 2-7.1-2.1a39.7 39.7 0 0 1 20.3-19.2 7.4 7.4 0 0 0 4.7-4.6 51.9 51.9 0 0 1 21-21.2l.5-1.1c5.7-12 14.4-20.7 27.2-25z" transform="translate(-70.5 -70.5)"/><path class="cls-7" d="M164.9 340.4c24.1-16.2 35.9-16.1 60.2.2l7.4 11.7c3.7 3.4 7.4 6.9 5 12.7-6.1 3.2-9.7-1-14-4.3s-8.7-9.1-10.5 2c-.9 5.3-5.5 3.4-9 2.6-12.6-11-12.6-11-26.8-2.2-7.3 4.5-16 4.3-22.3-.6 1-8.4 6.6-14.8 10-22.1zM288.3 340.5c8.1-6.5 17.7-9.8 27.6-12.6q1.2-1.9 2.4 0c16.1 2.7 29.8 9 37.6 24.5 4.1 3.3 6.5 7.3 4.9 12.8-6.9 3.3-10.3-2.4-14.9-5.5s-7.8-7.1-9.1 2.1c-.9 6.3-5.5 4.5-9.5 3.4-12.5-10.9-13.4-11.2-26.9-2.1-6.4 4.3-13.2 3.1-19.9 2.7-2.9-.2-3.3-3-2.1-5.7 1.6-7.4 6.4-13.2 9.9-19.6z" transform="translate(-70.5 -70.5)"/><path class="cls-8" d="M172.7 266.8l-27.3 25a31.8 31.8 0 0 1-10.1-9.9c-2.6-10.9.7-22.1-1.6-33.1 9.7-3.4 19.5-2.6 29.3-.3-4.9 2.8-10.1 1-12.4 1.1 2.2-.5 7.6 1.9 12.4-1.1 6.1 2.3 10.1 6.7 12.8 12.5z" transform="translate(-70.5 -70.5)"/><path class="cls-9" d="M235.6 173.7l.9 27.6-21.4 12.8c-14.7-9.1-9.4-23.7-9.8-36.6-.1-4.3 3.6-5 7.1-4.8 7.8.3 15.6-1.3 23.2 1z" transform="translate(-70.5 -70.5)"/><path class="cls-7" d="M298.6 283.4c0-3.2-.1-6.4-.1-9.6 0-20.5-1-17.1 17.3-17.5q1.2-1.9 2.6-.1c14.7 3.4 26.1 10.1 26.9 27.2a67.8 67.8 0 0 1-46.7 0z" transform="translate(-70.5 -70.5)"/><path class="cls-10" d="M207.7 220.8L179.8 254c-13.3-11-16.8-26.5-9.6-42.1 9.8 2.2 19.6 1.5 29.5.4a13.2 13.2 0 0 1 8 8.5z" transform="translate(-70.5 -70.5)"/><path class="cls-11" d="M316 303.6c-5.3 2.3-11.1 10-15.7 5.7s-1.6-13.7-1.5-20.8c2.1-2.1 4.7-2.5 7.5-2.1 11.8 2.1 23.6 1.1 35.5.7a6 6 0 0 1 3.7 1.3c.5 8.1-3.7 14-9.9 18.1s-14.4 9.2-14.9-5.2a1 1 0 0 0-.7-.7l-2 .8a7.2 7.2 0 0 1-2 2.2z" transform="translate(-70.5 -70.5)"/><path class="cls-12" d="M278.4 360c5.7 7.6 12.8 7.7 20.1.3 11.3-11.6 21.9-10 29.7 4.5q1.3.8.8 1.6a1.2 1.2 0 0 1-.9.8l-32.1.5-19.7-.4c0-2.7-.4-5.4 2.1-7.3z" transform="translate(-70.5 -70.5)"/><path class="cls-13" d="M154.9 362.5c7.7 4.9 14.4 5 21.2-2.4 10.7-11.6 20.8-9.6 28.7 4.5q1.2.9.7 1.8a1.2 1.2 0 0 1-.9.8l-32.1.6h-17.2c-2-1.7-2.7-3.4-.4-5.3z" transform="translate(-70.5 -70.5)"/><path class="cls-14" d="M328.2 367.2v-2.4c2.6 0 5.9 2.1 6.6-2.6.5-3.1-7.2-6.1-.9-8.9s10.2.9 14.7 4.3 4.4 9.8 11.3 6.8a1.8 1.8 0 0 1 .9 1.8q-.2 1-.5 1h-32.1z" transform="translate(-70.5 -70.5)"/><path class="cls-15" d="M145 292.9c-6.6 7.4-12.7 15.4-21.1 21.1-1.6-20.1-1.6-20.1 21.1-21.1z" transform="translate(-70.5 -70.5)"/><path class="cls-16" d="M119.2 318.6c-5.9 7.3-12.4 13.9-20.3 19.2-1.4-20.4-1.4-20.4 20.3-19.2z" transform="translate(-70.5 -70.5)"/><path class="cls-17" d="M360.3 367.2l-.3-2.8-4.1-12a26.7 26.7 0 0 1 4.9.3c6.4 1.6 14.6 3.8 13.4 11.3s-9.1 2.3-13.9 3.2z" transform="translate(-70.5 -70.5)"/><path class="cls-18" d="M392.2 211.7c-12.8 11.7-7.3-6.3-12.1-7.5v-1.5l-.2-.9c5.8-1.2 11.7-2.4 17.3.7q0 1-.1 2c-1.9 2-2 5.6-4.9 7.2z" transform="translate(-70.5 -70.5)"/><path class="cls-19" d="M106 339.9c11.7-4.7 23.9-1.7 35.9-1.9 6.6-.1 10.5-2.1 13.3-7.6l.2 9.6H106z" transform="translate(-70.5 -70.5)"/><path class="cls-20" d="M318.4 256.2h-2.6c.9-7.3-2-9.9-9.6-10.1-9.9-.3-20.3 3.1-29.9-2.4h42V256z" transform="translate(-70.5 -70.5)"/><path class="cls-21" d="M306.1 288.5h-7.3a6.3 6.3 0 0 1-.1-2.4 178.3 178.3 0 0 1 46.8-.2v2.5l-2.5.2a139.3 139.3 0 0 1-36.9-.1z" transform="translate(-70.5 -70.5)"/><path class="cls-19" d="M345.4 285.8l-46.8.2v-2.6h46.7v2.4z" transform="translate(-70.5 -70.5)"/><path class="cls-22" d="M133.7 248.9l4.4 1.1c-5.2 10.3-1.2 21.3-2.8 31.9-5-10.8-2.3-21.9-1.6-33z" transform="translate(-70.5 -70.5)"/><path class="cls-19" d="M367.6 165.3c-10.6 3.2-21.3 3.5-31.9-.2z" transform="translate(-70.5 -70.5)"/><path class="cls-22" d="M199.6 212.2c-9.9 3-19.7 3.7-29.5-.4 9.9-.5 19.7-1.2 29.5.4z" transform="translate(-70.5 -70.5)"/><path class="cls-23" d="M397.4 202.4l-17.3-.7c6.1-5.9 16.6 2.1 21.6-7.1 1.9 4.6 1.1 7.5-4.3 7.8z" transform="translate(-70.5 -70.5)"/><path class="cls-24" d="M316 303.6l1.9-2.2.4 26.5h-2.4v-24.3z" transform="translate(-70.5 -70.5)"/><path class="cls-25" d="M392.2 211.7c.6-3.2 1.7-6 5.1-7.2.1 4.4 1.5 9-2.1 12.8-.4-2.2-.6-4.5-3-5.6z" transform="translate(-70.5 -70.5)"/><path class="cls-14" d="M204.7 367.1v-2.6c3.1.4 6.8 2.2 6.4-3.6-.2-2.6-6.2-5.2-.6-7.8 4-1.8 7.8.8 11.7 2.1 5.6 1.9 5.8 12 14.3 9.3a1.7 1.7 0 0 1 .7 1.7 1.1 1.1 0 0 1-.6.9h-31.9z" transform="translate(-70.5 -70.5)"/><path class="cls-26" d="M236.8 367.2l-.2-2.6-4.1-12.2a31.5 31.5 0 0 1 4.9.3c6.1 1.4 13.8 3.7 13.3 10.2s-9 3-13.9 4.3z" transform="translate(-70.5 -70.5)"/><path class="cls-6" d="M234.6 286.4c-.1-2.9-.8-5.8-.2-8.6 1.4-7.1-4.7-16.4 4.3-21s30.6 1.7 36.2 9.7c3.4 5 7 10.2 6.4 16.9-8.3 6-17.8 2.6-26.8 3.3-5.2.4-10.4 0-15.6.5a7.3 7.3 0 0 1-4.3-.8z" transform="translate(-70.5 -70.5)"/><path class="cls-27" d="M234.6 286.4a5.4 5.4 0 0 0 2.1-.3c14.8-1.9 29.5-2.7 44.3.3 1.9 6.3-1 11.2-4.8 15.7s-8.7 9.2-14.5 7.9-2.2-8.3-3.4-12.6a29.4 29.4 0 0 0-1.4-3.3l-3.3-1.3c-6-2.6-13.4.8-18.8-4.3a4.4 4.4 0 0 1-.2-2.1z" transform="translate(-70.5 -70.5)"/><path class="cls-28" d="M256.5 290.8l.5 3.3c-4.3 8.3-9.7 15.4-20.1 16.1-3.5-21.3-2-22.8 19.6-19.4z" transform="translate(-70.5 -70.5)"/><path class="cls-19" d="M281 286.3l-44.3-.3c14.5-5.7 29.7-1.2 44.5-2.6z" transform="translate(-70.5 -70.5)"/><path class="cls-29" d="M256.5 290.8c-22.1.5-19.3-3.1-19.6 19.4-5.3-6.8-2.2-14.4-2-21.8 7.1 1.1 14.8-2.4 21.6 2.4z" transform="translate(-70.5 -70.5)"/><path class="cls-30" d="M256.6 150.1c6.5-8.2 14.1-7.1 21.4-1.7a12.3 12.3 0 0 1 4.7 13.2c-1.7 6.2-7.3 3.1-11.4 3.2-3.5-4.1-3.4-11.8-11.6-11.1a4.6 4.6 0 0 1-3.1-3.6z" transform="translate(-70.5 -70.5)"/><path class="cls-31" d="M293.4 150c7.1-8.1 14.8-7.3 22.3-.8 3.7 3.2 4 8.1 2.9 12.6-1.6 5.9-6.5 2.8-10.2 3.1-3.4-4.3-3.5-11.9-11.7-11.2a4.9 4.9 0 0 1-3.3-3.7z" transform="translate(-70.5 -70.5)"/><path class="cls-32" d="M355.4 201.9a23.9 23.9 0 0 1-1 4.6c-3.4 7.8-7.1 14.9-13.5 1.8-.5-1-1.8-1.5-2.8-2.2s-1.2-.8-.9-1.3a1.2 1.2 0 0 1 .9-.7 4.4 4.4 0 0 1 .1-2.1c5.6-2.2 11.4-1.8 17.2-.1z" transform="translate(-70.5 -70.5)"/><path class="cls-33" d="M380.3 202.7a13.4 13.4 0 0 0-.1 1.5c-8.5-.8-6.4 9.4-13.2 11.7-3.1-3.8-7.6-7.4-6.5-14.2a23.3 23.3 0 0 1 14.7 0z" transform="translate(-70.5 -70.5)"/><path class="cls-34" d="M296.4 153.1c10.9-4 11.7-3.2 12 11.7H296c-2.9-4-3.5-7.9.4-11.7z" transform="translate(-70.5 -70.5)"/><path class="cls-35" d="M259.1 152.7c14.4-6.5 11.8 4.3 12.2 12h-12.6c-2.5-4.1-3-8.1.4-12z" transform="translate(-70.5 -70.5)"/><path class="cls-33" d="M315.8 202.4l-8.9 15.6c-4.2-6.1-8.3-9.9-8.3-16.1 5.8-1.5 11.5-2.5 17.2.5z" transform="translate(-70.5 -70.5)"/><path class="cls-30" d="M338 204.1v2c-6.7.2-6.4 7.8-11 10.6-4.3-4.2-6.4-9.4-8.7-14.5 5.7-2.3 11.5-2 17.2-.1z" transform="translate(-70.5 -70.5)"/><path class="cls-36" d="M385.2 192.5c-4.5-.4-7.3-2.3-7-6.1a6.5 6.5 0 0 1 6.8-6c3.7.1 6.1 2.8 6.2 6.4s-3.1 5.4-6 5.7z" transform="translate(-70.5 -70.5)"/><path class="cls-37" d="M371.5 187.3c-.6 3.8-3 5.3-6.7 5.1s-5.6-3-5.3-6.5 2.9-6 6.5-5.5 5.3 3.2 5.5 6.9z" transform="translate(-70.5 -70.5)"/><path class="cls-38" d="M296.4 153.1l-.4 11.7c-7.9-2.3-8.2-3.6-2.6-14.8z" transform="translate(-70.5 -70.5)"/><path class="cls-19" d="M266.5 133.4H293v1.1h-26.4v-1.1z" transform="translate(-70.5 -70.5)"/><path class="cls-39" d="M259.1 152.7l-.5 12c-6.8-2.2-7.1-4.9-2.1-14.7z" transform="translate(-70.5 -70.5)"/><path class="cls-23" d="M355.4 201.9l-17.3.2c5.7-4.2 11.5-4 17.3-.2z" transform="translate(-70.5 -70.5)"/><path class="cls-40" d="M335.6 202h-17.2c5.7-4.2 11.4-3.9 17.2 0z" transform="translate(-70.5 -70.5)"/><path class="cls-23" d="M315.8 202.4l-17.2-.5c5.8-3.6 11.6-4.4 17.2.5zM375 201.7h-14.6q7.3-5.2 14.6 0z" transform="translate(-70.5 -70.5)"/><path class="cls-22" d="M163.1 248.6c-5.3 5.3-11.5 1.3-17.3.8l17.3-.8h.1z" transform="translate(-70.5 -70.5)"/><path class="cls-29" d="M306.1 288.5h36.8a61.8 61.8 0 0 1-36.8 0z" transform="translate(-70.5 -70.5)"/></svg>