<svg id="Layer_3" data-name="Layer 3" xmlns="http://www.w3.org/2000/svg" viewBox="0 0 360 360"><defs><style>.cls-1{fill:#fff}.cls-2{fill:#231f20}.cls-3{fill:#2de039}.cls-3,.cls-6{opacity:.59}.cls-4{fill:#6ca838}.cls-5{fill:#7fc242}.cls-6{fill:#e2b72b}</style></defs><title>owlgraphic</title><path class="cls-1" d="M0 0h360v360H0z"/><circle class="cls-2" cx="136.2" cy="135.6" r="19.5"/><circle class="cls-2" cx="220.6" cy="135.6" r="19.5"/><path class="cls-3" d="M185.4 156.6l-.9.4zM188.3 155.5zM192.2 154.4l-.9.2zM314.3 157.5l-.4-.2zM299.7 153.1zM182.4 158l-.7.3zM195.3 153.6l-.7.2zM202.6 152.7zM303.8 153.9l-.9-.2zM199.1 153zM179.1 159.8l-.7.4zM307.2 154.8zM311.1 156.1l-.9-.3zM317.8 159.2l-.9-.5zM324 163.2l-.8-.6zM326.6 165.3l-.3-.3zM170.8 165.7l-.6.5zM296.3 152.8zM320.8 161l-.5-.3zM176.4 161.4l-.7.5zM173.2 163.7z" transform="translate(-70.5 -70.5)"/><path class="cls-4" d="M291.7 259.7a54.2 54.2 0 0 1-43.2-21.6v19.5h19.1l-19.1 49.7v79.5l1.8 3.8 57.3-133.3a53.5 53.5 0 0 1-15.9 2.4z" transform="translate(-70.5 -70.5)"/><path class="cls-5" d="M248.5 238.1c-9 13.1-25.2 21.6-42.8 21.6a54.5 54.5 0 0 1-12.3-1.4l55.1 128.6v-79.6l-18.4-49.7h18.4v-19.5z" transform="translate(-70.5 -70.5)"/><path class="cls-6" d="M326.3 165.1l-2.3-1.8zM320.3 160.7l-2.5-1.5zM323.2 162.7l-2.4-1.6zM303 153.7l-3.3-.6zM316.9 158.8l-2.7-1.3zM307 154.7l-3.1-.8zM310.2 155.8l-3-1zM313.9 157.3l-2.8-1.2zM295.4 152.7zM178.4 160.2l-2 1.3zM299.6 153.1l-3.4-.4zM181.7 158.3l-2.6 1.4zM173 163.8l-2.2 1.8zM184.6 157l-2.2 1zM175.7 161.9l-2.5 1.8zM198.4 153.1l-3.1.5zM188.1 155.6l-2.7 1zM205.9 152.6zM201.7 152.7l-2.6.3zM194.6 153.8l-2.4.6zM191.3 154.6l-2.9.9z" transform="translate(-70.5 -70.5)"/><path class="cls-3" d="M156.6 133l12.8 33.8.7-.6.6-.5 2.2-1.8h.2l2.5-1.8.7-.5 2-1.3.7-.4 2.6-1.4.7-.3 2.2-1 .9-.4 2.7-1h.2l2.9-.9.9-.2 2.4-.6.7-.2 3.1-.5h.7l2.6-.3h4c17.6 0 33.8 8.5 42.8 21.6V149z" transform="translate(-70.5 -70.5)"/><path class="cls-5" d="M148.1 110.4l8.6 22.7-18.2-3.2 21.2 49.2a53.9 53.9 0 0 1 10.6-12.9l.6-.5 2.2-1.8h.2l2.5-1.8.7-.5 2-1.3.7-.4 2.6-1.4.7-.3 2.2-1 .9-.4 2.7-1h.2l2.9-.9.9-.2 2.4-.6.7-.2 3.1-.5h.7l2.6-.3h4c17.6 0 33.8 8.5 42.8 21.6V138z" transform="translate(-70.5 -70.5)"/><path class="cls-3" d="M340.8 133.6l-90.5 15.7-1.8-.3v25.2a54.2 54.2 0 0 1 43.2-21.6h4.5l3.4.4h.1l3.3.6.9.2 3.1.8h.2l3 1 .9.3 2.8 1.2.4.2 2.7 1.3.9.5 2.5 1.5.5.3 2.4 1.6.8.6 2.3 1.8.3.3 1.7 1.5z" transform="translate(-70.5 -70.5)"/><path class="cls-4" d="M340.8 133.6l8.6-23.3L248.5 138v36.3a54.2 54.2 0 0 1 43.2-21.6h4.5l3.4.4h.1l3.3.6.9.2 3.1.8h.2l3 1 .9.3 2.8 1.2.4.2 2.7 1.3.9.5 2.5 1.5.5.3 2.4 1.6.8.6 2.3 1.8.3.3a53.8 53.8 0 0 1 13.3 17.1l22.6-52.6zM248.5 174.2v-8.4c-10-17.1-29.9-28.4-51.7-28.4a61.3 61.3 0 0 0-46.1 20.9l9 20.8a54 54 0 0 1 10.6-12.9l.6-.5 2.2-1.8h.2l2.5-1.8.7-.5 2-1.3.7-.4 2.6-1.4.7-.3 2.2-1 .9-.4 2.7-1h.2l2.9-.9.9-.2 2.4-.6.7-.2 3.1-.5h.7l2.6-.3h4c17.5-.5 33.7 8 42.7 21.1z" transform="translate(-70.5 -70.5)"/><path class="cls-4" d="M159.6 187l9.1 53.6 4.8-14.6-13.9-39z"/></svg>