<svg id="Layer_3" data-name="Layer 3" xmlns="http://www.w3.org/2000/svg" xmlns:xlink="http://www.w3.org/1999/xlink" viewBox="0 0 360 360"><defs><style>.cls-1{fill:#fff}.cls-10,.cls-11,.cls-12,.cls-13,.cls-2,.cls-3,.cls-4,.cls-5,.cls-6,.cls-7,.cls-8,.cls-9{opacity:.9}.cls-2{fill:url(#linear-gradient)}.cls-3{fill:url(#linear-gradient-2)}.cls-4{fill:url(#linear-gradient-3)}.cls-5{fill:url(#linear-gradient-4)}.cls-6{fill:url(#linear-gradient-5)}.cls-7{fill:url(#linear-gradient-6)}.cls-8{fill:url(#linear-gradient-7)}.cls-9{fill:url(#linear-gradient-8)}.cls-10{fill:url(#linear-gradient-9)}.cls-11{fill:url(#linear-gradient-10)}.cls-12{fill:url(#linear-gradient-11)}.cls-13{fill:url(#linear-gradient-12)}</style><linearGradient id="linear-gradient" x1="233.52" y1="199.38" x2="360.7" y2="138.5" gradientUnits="userSpaceOnUse"><stop offset=".36" stop-color="#0c3e96"/><stop offset=".96" stop-color="#1362ed"/></linearGradient><linearGradient id="linear-gradient-2" x1="269.7" y1="125.74" x2="164.02" y2="246.92" gradientUnits="userSpaceOnUse"><stop offset=".27" stop-color="#0289ff"/><stop offset=".4" stop-color="#0577dc"/><stop offset=".52" stop-color="#0769bf"/><stop offset=".64" stop-color="#0960ad"/><stop offset=".72" stop-color="#095da7"/></linearGradient><linearGradient id="linear-gradient-3" x1="321.01" y1="170.49" x2="215.33" y2="291.66" xlink:href="#linear-gradient-2"/><linearGradient id="linear-gradient-4" x1="232.22" y1="196.58" x2="359.25" y2="135.77" xlink:href="#linear-gradient"/><linearGradient id="linear-gradient-5" x1="256.59" y1="247.7" x2="383.66" y2="186.87" xlink:href="#linear-gradient"/><linearGradient id="linear-gradient-6" x1="291.56" y1="144.71" x2="185.84" y2="265.93" xlink:href="#linear-gradient-2"/><linearGradient id="linear-gradient-7" x1="196.41" y1="273.94" x2="148.05" y2="146.56" gradientUnits="userSpaceOnUse"><stop offset=".25" stop-color="#307820"/><stop offset=".41" stop-color="#327c22"/><stop offset=".58" stop-color="#398926"/><stop offset=".76" stop-color="#459e2e"/><stop offset=".93" stop-color="#55bb39"/><stop offset="1" stop-color="#5dc93e"/></linearGradient><linearGradient id="linear-gradient-8" x1="223.62" y1="305.76" x2="86.78" y2="234.5" gradientUnits="userSpaceOnUse"><stop offset=".24" stop-color="#7fa810"/><stop offset=".42" stop-color="#82ac11"/><stop offset=".61" stop-color="#8ab913"/><stop offset=".81" stop-color="#97ce17"/><stop offset="1" stop-color="#aaeb1c"/></linearGradient><linearGradient id="linear-gradient-9" x1="308.19" y1="291.96" x2="152.57" y2="353.39" gradientUnits="userSpaceOnUse"><stop offset=".37" stop-color="#e6be00"/><stop offset=".61" stop-color="#f1cd22"/><stop offset=".86" stop-color="#fbda3e"/><stop offset="1" stop-color="#ffdf49"/></linearGradient><linearGradient id="linear-gradient-10" x1="308.99" y1="256.6" x2="253.3" y2="399.11" gradientUnits="userSpaceOnUse"><stop offset=".46" stop-color="#ff6d00"/><stop offset=".54" stop-color="#ff7c00"/><stop offset=".73" stop-color="#ff9b00"/><stop offset=".89" stop-color="#ffaf00"/><stop offset="1" stop-color="#ffb600"/></linearGradient><linearGradient id="linear-gradient-11" x1="314.5" y1="203.89" x2="324.33" y2="339.85" gradientUnits="userSpaceOnUse"><stop offset=".46" stop-color="#b00000"/><stop offset=".63" stop-color="#c40000"/><stop offset=".85" stop-color="#d70000"/><stop offset="1" stop-color="#de0000"/></linearGradient><linearGradient id="linear-gradient-12" x1="259.98" y1="203.56" x2="412.32" y2="228.13" gradientUnits="userSpaceOnUse"><stop offset=".36" stop-color="#ad006c"/><stop offset=".96" stop-color="#ff26ae"/></linearGradient></defs><title>palettegenerator</title><path class="cls-1" d="M0 0h360v360H0z"/><path class="cls-2" d="M251.5 131.4c-10 12.9-17.9 41.2-.6 119.1h.1l.5-.5V131.4z" transform="translate(-70.5 -70.5)"/><path class="cls-3" d="M251.4 250.8c-77.8-49.4-84.4-76.5-84.4-91.2 0-55.7 72.9-63.1 84.4-63.1v154.3z" transform="translate(-70.5 -70.5)"/><path class="cls-4" d="M251.4 249.9l-.5.5.5.3v-.8z" transform="translate(-70.5 -70.5)"/><path class="cls-5" d="M360 141.4c-8.1-8.1-64.8-54.4-104.2-15.1-1.4 1.4-2.3 3-4.3 5v118.6z" transform="translate(-70.5 -70.5)"/><path class="cls-6" d="M250.9 250.5z" transform="translate(-70.5 -70.5)"/><path class="cls-7" d="M251.5 131.4c-10 12.9-17.9 41.2-.6 119.1h.1l.5-.5V131.4z" transform="translate(-70.5 -70.5)"/><path class="cls-8" d="M251.4 250.8c-90 20.1-113.7 5.6-124.2-4.8-39.4-39.4 6.9-96.1 15.1-104.2z" transform="translate(-70.5 -70.5)"/><path class="cls-9" d="M251.4 250.8c-49.4 77.8-76.5 84.4-91.2 84.4-55.7 0-63.1-72.9-63.1-84.4h154.3z" transform="translate(-70.5 -70.5)"/><path class="cls-10" d="M251.4 250.8c20.1 90 5.6 113.7-4.8 124.2-39.4 39.4-96.1-6.9-104.2-15.1z" transform="translate(-70.5 -70.5)"/><path class="cls-11" d="M249.4 250.2c77.8 49.4 84.4 76.5 84.4 91.2 0 55.7-72.9 63.1-84.4 63.1V250.2z" transform="translate(-70.5 -70.5)"/><path class="cls-12" d="M249.4 250.2c90-20.1 113.7-5.6 124.2 4.8 39.4 39.4-6.9 96.1-15.1 104.2z" transform="translate(-70.5 -70.5)"/><path class="cls-13" d="M249.6 251.8c49.4-77.8 76.5-84.4 91.2-84.4 55.7 0 63.1 72.9 63.1 84.4H249.6z" transform="translate(-70.5 -70.5)"/></svg>