<svg id="Layer_3" data-name="Layer 3" xmlns="http://www.w3.org/2000/svg" viewBox="0 0 360 360"><defs><style>.cls-1{fill:#33322f}.cls-2{fill:#615d4a}.cls-3{fill:#fefefe}.cls-4{fill:#625e4c}</style></defs><title>paletton</title><path class="cls-1" d="M0 0h360v360H0z"/><path class="cls-2" d="M251.1 135.4c65.4 0 114.4 49.6 114.3 115.8-.1 62-52.8 114.8-114.5 114.9-64.5 0-113.2-50.9-115.3-116-1.8-58.9 53.5-120.8 115.5-114.7z" transform="translate(-70.5 -70.5)"/><path class="cls-3" d="M255.5 160.8c13 .5 24.8 3 35.7 8 27.8 12.9 35 40.7 18.3 70.1-5.6 9.8-12.1 19.1-18.6 28.4-8.6 12.4-8.6 24.6-1.2 37.7 10.9 19.3 1.5 35.5-20.2 35.3-35.7-.3-100-60.2-103.6-96.1-2.5-25 6.8-44.4 26-59.5s41.1-20.7 63.6-23.9z" transform="translate(-70.5 -70.5)"/><path class="cls-4" d="M257.6 246.7c-18.2-.6-24.4-8.8-23.8-23.3.5-12.7 7-19.8 19.6-19.5s23 8 22.2 22.2c-.6 12.1-6.6 21.7-18 20.6z" transform="translate(-70.5 -70.5)"/></svg>