<svg id="Layer_1" xmlns="http://www.w3.org/2000/svg" viewBox="0 0 296 300"><style>.st0{fill:#333}.st1{fill:#4e5eea}</style><path class="st0" d="M-73.4 36.7c-8.8 9-9.2 23.2-.9 32.7l.3.4c.3.3.6.6.9 1 3.3 3.2 4.9 7.5 4.8 11.7v.5c0 1.4-.2 2.7-.5 4-.5 1.9-1.4 3.7-2.5 5.3h-.4c-.1.1-.1.2-.2.3-2.3-.2-4.5-.3-6.8-.6-18.7-1.9-36-6.2-50.5-12.6-6.7 15-11.1 33.2-12.7 52.8 1.5.7 3.1 1.1 4.8 1 2.7 0 5.4-1.1 7.5-3.2l.3-.3.9-.8c5.8-5.3 13.1-7.8 20.4-7.7 7.3.1 14.5 2.9 20.1 8.4 11.6 11.4 11.8 30.1.4 41.7-5.9 6-13.7 9-21.5 8.8-6.1-.1-12.2-2.1-17.3-5.9l-4.3-3.8c-2-2-4.7-3.1-7.6-3-1.3 0-2.5.3-3.7.7 1.6 19.8 6 38.1 12.8 53.2 14.5-6.4 31.9-10.7 50.5-12.6 2.2-.2 4.5-.4 6.8-.6 1.3 1.6 2.3 3.4 2.9 5.2 1.8 5.6.5 12.1-4 16.5-.3.3-.6.6-.9 1l-.3.4c-8.3 9.4-7.9 23.7.9 32.7 8.7 8.8 22.5 9.6 32 2.1v-38.8c-1-1.4-2-2.7-2-2.7-1-2.2-1.6-4.6-1.6-7.1 0-1.4.2-2.7.6-4 .5-1.9 1.4-3.7 2.5-5.3h.4V92.5h-.4c-1.2-1.6-2-3.4-2.5-5.3-.4-1.3-.5-2.7-.6-4v-.6c-.2-3.8 1-7.6 3.5-10.7v-37c-1.8-1.6-3.9-2.8-6-3.7-8.8-3.5-19.1-1.6-26.1 5.5zM-329.3 71.3l-3.7 4.3c-2 2-3.1 4.7-3 7.6 0 1.3.3 2.5.7 3.7 19.4-1.6 37.5-5.9 52.4-12.4-6.6-14.8-11.1-32.6-13-51.8-.2-2.2-.4-4.5-.6-6.8 1.6-1.2 3.4-2 5.3-2.5 1.3-.4 2.7-.5 4-.6 2.5 0 4.9.5 7.1 1.5 0 0 5.3 3.9 5.8 4.3 9.5 9.3 24.7 9.1 34-.4 4.9-5 7.2-11.7 6.8-18.3h-103.8v28.5c1.8 1.1 3.5 2.4 5.1 4 10.7 10.6 11.7 27.2 2.9 38.9z"/><path class="st0" d="M-177.2 0c-.4 6.5 1.8 13.2 6.8 18.3 4.6 4.7 10.8 7.1 16.9 7.2 6.1.1 12.3-2.2 17.1-6.9.4-.4 5.8-4.3 5.8-4.3 2.2-1 4.6-1.6 7.1-1.5 1.4 0 2.7.2 4 .6 1.9.5 3.7 1.4 5.3 2.5-.2 2.3-.3 4.5-.6 6.8-1.9 18.9-6.2 36.5-12.7 51.2 15 6.7 33.3 11.1 52.9 12.7.6-1.3.9-2.7.9-4.2-.1-2.7-1.1-5.2-3-7.1l-3.7-4.3c-8.8-11.6-7.8-28.3 2.9-38.8 8.8-8.7 21.8-10.6 32.5-5.9 1.3.5 2.5 1.1 3.7 1.8V0h-135.9zM-173.8 278.2c11.2-10.9 29-11.3 40.5-.7l.9.8.3.3c3.3 3.3 8.2 4.1 12.2 2.1-1.7-19.6-6-37.7-12.6-52.6-14.5 6.4-31.9 10.8-50.6 12.7-2.2.2-4.5.4-6.8.6-.1-.1-.1-.2-.2-.3h-.4c-1.2-1.6-2-3.4-2.5-5.3-.4-1.3-.5-2.7-.6-4v-.5c-.1-4.3 1.5-8.5 4.8-11.8.3-.3.6-.6.9-1l.4-.4c8.2-9.4 7.9-23.7-.9-32.7-6.9-7.1-17.2-8.9-25.8-5.6-2.9 1.2-5.5 3-7.9 5.3-8.8 9-9.2 23.2-.9 32.7l.4.4c.3.3.6.7.9 1 3.4 3.3 5 7.8 4.8 12.2v.6c0 1.4-.2 2.7-.6 4-.5 1.9-1.4 3.7-2.5 5.3-2.3-.2-4.5-.3-6.8-.6-19-1.9-36.6-6.2-51.3-12.7-6.6 15-11 33.1-12.6 52.6 4 1.9 9 1.2 12.2-2.1l.3-.3.9-.8c11.5-10.5 29.3-10.2 40.5.7 6.1 6 9 13.9 8.8 21.8h45.4c-.3-7.8 2.7-15.8 8.8-21.7zM-281.4 220.9c6.6-15 11-33.2 12.6-52.8-1-.4-2.1-.6-3.3-.7-2.6.1-5.1 1.2-6.9 3l-4.3 3.7c-5.4 4-11.8 6-18.2 5.9-7.9.2-15.8-2.8-21.7-8.8-11.4-11.6-11.2-30.3.4-41.7 5.8-5.7 13.5-8.5 21.1-8.4 7.3-.2 14.7 2.4 20.5 7.7l.9.8.3.3c2 2 4.5 3.1 7.1 3.2 1.4-.1 2.8-.4 4-1-1.7-19.5-6-37.6-12.6-52.5-14.5 6.3-31.8 10.5-50.3 12.3-1.9.2-3.8.3-5.7.5V208c1.9.1 3.8.3 5.7.5 18.7 1.9 35.9 6.1 50.4 12.4z"/><path class="st0" d="M-77.2 267.6c-10.9-11.2-11.3-29-.7-40.5l.8-.9.3-.3c3.3-3.3 4.1-8.2 2.1-12.3-19.6 1.7-37.8 6-52.7 12.7 6.4 14.5 10.6 31.8 12.5 50.3.2 2.3.4 4.5.6 6.8-1.6 1.3-3.4 2.3-5.2 2.9-5.6 1.8-12.1.5-16.5-4-.3-.3-.6-.6-1-.9l-.4-.4c-9.4-8.3-23.7-7.9-32.7.9-5 4.9-7.4 11.5-7.2 18h135.9v-27.5c-11.3 6.7-26.2 5.1-35.8-4.8zM-335.7 230.2c-.2-.2-.9-1.1-1.7-2.2v37.3c.4-.4.9-.7 1.3-1.2 9.6-9.2 9.7-24.5.4-33.9zM-336 36.4c-.4-.4-.9-.8-1.3-1.2v37.3c.8-1.1 1.5-2 1.7-2.2 9.2-9.4 9.1-24.7-.4-33.9zM-236.5 22.1c-10.5 10.7-27.1 11.7-38.8 2.9l-4.3-3.7c-2-2-4.7-3.1-7.6-3-1.3 0-2.5.3-3.7.7 1.6 19.8 6 38.1 12.8 53.2 14.5-6.4 31.9-10.7 50.5-12.6 2.2-.2 4.5-.4 6.8-.6.1.1.1.2.2.3h.4c1.2 1.6 2 3.4 2.5 5.3.4 1.3.5 2.7.6 4v.5c.1 4.3-1.5 8.5-4.8 11.7-.3.3-.6.6-.9 1l-.4.4c-8.2 9.4-7.9 23.7.9 32.7 7 7.1 17.3 9 26 5.5 2.8-1.2 5.4-3 7.7-5.3 8.8-9 9.2-23.2.9-32.7l-.4-.4c-.3-.3-.6-.7-.9-1-3.4-3.3-5-7.8-4.8-12.2v-.6c0-1.4.2-2.7.6-4 .5-1.9 1.4-3.7 2.5-5.3 2.3.2 4.5.3 6.8.6 18.9 1.9 36.5 6.2 51.2 12.7 6.7-15.1 11.1-33.4 12.8-53.2-1.2-.4-2.4-.7-3.7-.7-2.8 0-5.5 1.1-7.6 3l-4.3 3.7c-5.1 3.8-11.2 5.8-17.3 5.9-7.8.1-15.7-2.8-21.6-8.8-6-6.1-8.8-14.1-8.4-22.1h-45.4c.5 7.9-2.3 16-8.3 22.1z"/><path class="st0" d="M-273.3 281.1l-.4.4c-.3.3-.7.6-1 .9-4.4 4.5-10.9 5.9-16.5 4-1.9-.6-3.7-1.6-5.2-2.9.2-2.3.4-4.5.6-6.8 1.9-18.8 6.3-36.2 12.7-50.7-14.9-6.5-32.9-10.7-52.2-12.3-.4 1.2-.7 2.4-.7 3.7 0 2.9 1.1 5.5 3 7.6l3.7 4.3c8.8 11.6 7.8 28.3-2.9 38.8-1.6 1.5-3.3 2.9-5.1 4V300h103.8c.2-6.5-2.2-13.1-7.2-18-9-8.8-23.2-9.1-32.6-.9zM-134.4 77.5c-15-6.7-33.2-11.1-52.8-12.7-.6 1.3-1 2.7-1 4.1.1 2.6 1.2 5 3 6.9l3.7 4.3c8.8 11.6 7.8 28.3-2.9 38.8-2.8 2.7-6 4.8-9.4 6.2-10.7 4.7-23.6 2.7-32.5-5.9-10.7-10.5-11.7-27.2-2.9-38.8l3.7-4.3c1.9-1.9 2.9-4.4 3-7.1 0-1.4-.3-2.8-.9-4.1-19.3 1.6-37.2 5.9-52.1 12.4 6.5 14.6 10.9 32.1 12.8 50.9.2 2.2.4 4.5.6 6.8-1.6 1.3-3.4 2.3-5.2 2.9-1.8.6-3.7.9-5.6.8-4.3.1-8.7-1.5-12-4.8-.3-.3-.6-.6-1-.9l-.4-.4c-4.5-3.9-10-5.9-15.6-5.9-5.8.2-11.5 2.5-16 6.8-9.5 9.3-9.6 24.5-.4 34 4.5 4.6 10.5 7 16.5 7.2 5.9-.1 11.9-2.4 16.4-6.8.4-.4 5.8-4.3 5.8-4.3 2.2-1 4.6-1.6 7.1-1.5h1.1c1.4 0 2.7.2 4 .6 1.9.5 3.7 1.4 5.3 2.5-.2 2.3-.3 4.5-.6 6.8-1.9 19-6.3 36.6-12.8 51.4 14.8 6.5 32.7 10.7 51.9 12.3.6-1.3 1-2.7 1-4.1-.1-2.6-1.2-5-3-6.9l-3.7-4.3c-8.8-11.6-7.8-28.3 2.9-38.8 3-2.9 6.4-5.1 10.1-6.5 10.6-4.3 23.2-2.3 31.9 6.2 10.7 10.5 11.7 27.1 2.9 38.8l-3.7 4.3c-1.9 1.9-2.9 4.4-3 7.1 0 1.4.3 2.8.9 4.2 19.6-1.7 37.8-6 52.8-12.7-6.4-14.7-10.7-32.2-12.6-51-.2-2.2-.4-4.5-.6-6.8 1.6-1.2 3.4-2 5.3-2.5 1.3-.4 2.7-.5 4-.6 2.5 0 4.9.5 7.1 1.5 0 0 5.3 3.9 5.8 4.3 4.7 4.6 10.9 6.9 17.1 6.9 6.2-.1 12.3-2.5 16.9-7.2 9.3-9.5 9.1-24.7-.4-34-4.5-4.4-10.3-6.7-16.2-6.9-5.9-.2-11.8 1.8-16.5 5.9l-.4.4c-.3.3-.7.6-1 .9-3.1 3.1-7.1 4.7-11.1 4.8-1.8 0-3.7-.2-5.4-.8-1.9-.6-3.7-1.6-5.2-2.9.2-2.3.4-4.5.6-6.8 2-18.8 6.3-36.1 12.7-50.7z"/><g><path class="st1" d="M292.3 26.3c-10.7-4.7-23.6-2.7-32.5 5.9-10.7 10.5-11.7 27.1-2.9 38.8l3.7 4.3c1.9 1.9 3 4.4 3 7.1 0 1.4-.3 2.8-.9 4.2-19.7-1.7-37.9-6-52.9-12.7 6.5-14.7 10.8-32.3 12.7-51.2.2-2.2.4-4.5.6-6.8-1.6-1.2-3.4-2-5.3-2.5-1.3-.4-2.7-.5-4-.6-2.5 0-4.9.5-7.1 1.5 0 0-5.3 3.9-5.8 4.3-4.7 4.6-10.9 6.9-17.1 6.9-6.1-.1-12.3-2.5-16.9-7.2-4.9-5-7.2-11.7-6.8-18.3h-5.5c-.4 7.9 2.4 16 8.4 22.1 5.9 6 13.7 9 21.6 8.8 6.1-.1 12.1-2.1 17.3-5.9l4.3-3.8c2-2 4.7-3.1 7.6-3 1.3 0 2.5.3 3.7.7-1.6 19.8-6 38.1-12.8 53.2-14.7-6.5-32.3-10.8-51.2-12.7-2.2-.2-4.5-.4-6.8-.6-1.2 1.6-2 3.4-2.5 5.3-.3 1.3-.5 2.7-.5 4v.6c-.2 4.4 1.4 8.9 4.8 12.2.3.3.6.6.9 1l.3.4c8.3 9.4 7.9 23.7-.9 32.7-2.3 2.3-4.9 4.1-7.7 5.3-8.7 3.4-19 1.6-26-5.5-8.8-9-9.2-23.2-.9-32.7l.4-.4c.3-.3.6-.7.9-1 3.3-3.2 4.9-7.5 4.8-11.7v-.5c0-1.4-.2-2.7-.6-4-.5-1.9-1.4-3.7-2.5-5.3h-.4c-.1-.1-.1-.2-.2-.3-2.3.2-4.6.3-6.8.6-18.7 1.9-36 6.2-50.5 12.6C52.5 57 48.1 38.7 46.5 18.9c1.2-.4 2.4-.7 3.7-.7 2.8 0 5.5 1.1 7.6 3l4.3 3.8c11.6 8.8 28.3 7.8 38.8-2.9 6-6.1 8.8-14.2 8.4-22.1h-5.4c.4 6.5-1.9 13.2-6.8 18.3-9.3 9.5-24.5 9.6-34 .3-.4-.4-5.8-4.3-5.8-4.3-2.2-1-4.6-1.6-7.1-1.5-1.4 0-2.7.2-4 .6-1.9.5-3.7 1.4-5.3 2.5.1 2.3.3 4.5.6 6.8 1.9 19.2 6.3 37 13 51.8C39.4 81 21.4 85.3 1.9 86.9c-.4-1.2-.7-2.4-.7-3.7 0-2.8 1.1-5.5 3.1-7.6L8 71.3c8.8-11.6 7.8-28.3-2.9-38.8-1.6-1.5-3.3-2.9-5.1-4v6.7c.4.4.9.8 1.3 1.2 9.5 9.3 9.6 24.5.3 34-.2.2-.9 1.1-1.7 2.2v19.9c1.9-.1 3.8-.3 5.7-.5 18.5-1.8 35.8-6 50.3-12.3 6.6 14.9 10.9 33 12.6 52.5-1.3.6-2.7 1-4.1 1-2.6-.1-5.2-1.2-7.1-3.2l-.3-.3-.9-.8c-5.8-5.3-13.2-7.9-20.5-7.7-7.6-.1-15.2 2.7-21 8.4-11.6 11.3-11.8 30-.4 41.6 5.9 6.1 13.8 9 21.7 8.8 6.4.1 12.8-1.9 18.2-5.9l4.3-3.8c1.9-1.8 4.3-2.9 6.9-3 1.1.1 2.2.3 3.3.7-1.6 19.6-6 37.8-12.6 52.8-14.5-6.3-31.8-10.5-50.3-12.3-1.9-.2-3.8-.3-5.7-.5v20c.8 1.1 1.5 2 1.7 2.2 9.3 9.5 9.1 24.7-.3 34-.4.4-.9.8-1.3 1.2v6.7c1.8-1.1 3.5-2.4 5.1-4 10.7-10.5 11.7-27.1 2.9-38.8L4.3 225c-2-2-3.1-4.7-3.1-7.6 0-1.3.3-2.5.7-3.7 19.4 1.6 37.3 5.8 52.2 12.3-6.5 14.6-10.8 32-12.7 50.7-.2 2.3-.4 4.5-.6 6.8 1.6 1.3 3.4 2.3 5.3 2.9 5.6 1.8 12.1.5 16.5-4 .3-.3.6-.6 1-.9l.4-.4c9.4-8.3 23.7-7.9 32.7.9 5 4.9 7.4 11.5 7.2 18h5.4c.2-7.9-2.7-15.9-8.8-21.8-11.2-10.9-29-11.3-40.5-.7l-.9.8-.3.3c-3.3 3.4-8.2 4.1-12.2 2.2 1.6-19.5 6-37.7 12.6-52.6 14.7 6.5 32.3 10.9 51.3 12.7 2.2.2 4.5.4 6.8.6 1.2-1.6 2-3.4 2.5-5.3.4-1.3.5-2.7.6-4v-.6c.2-4.4-1.4-8.9-4.8-12.2-.3-.3-.6-.6-.9-1l-.4-.4c-8.3-9.4-7.9-23.7.9-32.7 2.3-2.4 5-4.1 7.9-5.3 8.7-3.3 18.9-1.5 25.8 5.6 8.8 9 9.2 23.3.9 32.7l-.3.4c-.3.3-.6.7-.9 1-3.3 3.2-4.9 7.5-4.8 11.8v.5c0 1.4.2 2.7.5 4 .5 1.9 1.4 3.7 2.5 5.3h.4c.1.1.1.2.2.3 2.3-.2 4.5-.3 6.8-.6 18.7-1.9 36.1-6.2 50.6-12.7 6.6 15 11 33.1 12.6 52.6-4 1.9-9 1.2-12.3-2.2l-.3-.3-.9-.8c-11.5-10.5-29.3-10.2-40.5.7-6.1 6-9 13.9-8.8 21.8h5.4c-.2-6.5 2.2-13.1 7.2-18 9-8.8 23.2-9.2 32.7-.9l.4.4c.3.3.6.6 1 .9 4.4 4.5 10.9 5.9 16.5 4 1.9-.6 3.6-1.6 5.2-2.9-.2-2.3-.3-4.6-.6-6.8-1.9-18.6-6.2-35.8-12.5-50.3 15-6.7 33.1-11 52.7-12.7 1.9 4 1.2 9-2.1 12.3l-.3.3-.8.9c-10.5 11.5-10.2 29.3.7 40.5 9.6 9.8 24.5 11.5 35.9 4.8v-6.5c-9.5 7.5-23.4 6.8-32-2.1-8.8-9-9.2-23.3-.9-32.7l.3-.4c.3-.3.6-.6.9-1 4.5-4.4 5.9-10.9 4-16.5-.6-1.9-1.6-3.6-2.9-5.2-2.3.2-4.5.3-6.8.6-18.7 1.9-36 6.2-50.5 12.6-6.7-15.1-11.1-33.4-12.8-53.2 1.2-.4 2.4-.7 3.7-.7 2.9 0 5.5 1.1 7.6 3l4.3 3.8c5.1 3.8 11.2 5.8 17.3 5.9 7.8.1 15.7-2.8 21.5-8.8 11.4-11.6 11.2-30.3-.4-41.7-5.6-5.5-12.8-8.3-20.1-8.4s-14.6 2.4-20.4 7.7l-.9.8-.3.3c-2 2.1-4.8 3.2-7.5 3.2-1.6 0-3.3-.3-4.8-1 1.7-19.6 6-37.8 12.7-52.8 14.5 6.4 31.8 10.7 50.5 12.6 2.2.2 4.5.4 6.8.6.1-.1.1-.2.2-.3h.4c1.2-1.6 2-3.4 2.5-5.3.3-1.3.5-2.7.5-4v-.5c.1-4.3-1.5-8.5-4.8-11.7-.3-.3-.6-.6-.9-1l-.3-.4c-8.3-9.4-7.9-23.7.9-32.7 7-7.1 17.3-9 26-5.6 2.1.9 4.2 2.2 6 3.7v-6.8c-1-.7-2.2-1.3-3.5-1.8zm-102 101.8c-.2 2.3-.4 4.5-.6 6.8 1.6 1.3 3.4 2.3 5.3 2.9 1.8.6 3.6.8 5.4.8 4-.1 8.1-1.7 11.1-4.8.3-.3.6-.6 1-.9l.4-.4c4.7-4.1 10.6-6.1 16.5-5.9s11.7 2.5 16.2 6.9c9.5 9.3 9.6 24.5.4 34-4.6 4.7-10.8 7.1-16.9 7.2-6.1.1-12.3-2.2-17.1-6.9-.4-.4-5.8-4.3-5.8-4.3-2.2-1-4.6-1.6-7.1-1.5-1.4 0-2.7.2-4 .5-1.9.5-3.7 1.4-5.3 2.5.2 2.3.3 4.5.6 6.8 1.9 18.8 6.2 36.3 12.6 51-15 6.7-33.2 11-52.8 12.7-.6-1.3-.9-2.7-.9-4.1.1-2.7 1.1-5.2 3-7.1l3.8-4.3c8.8-11.6 7.8-28.3-2.9-38.8-8.7-8.5-21.3-10.5-31.9-6.2-3.6 1.4-7.1 3.5-10 6.5-10.7 10.5-11.7 27.1-2.9 38.8l3.8 4.3c1.8 1.9 2.9 4.3 3 6.9-.1 1.4-.4 2.8-1 4.1-19.2-1.6-37.1-5.8-51.9-12.3 6.5-14.7 10.9-32.4 12.8-51.4.2-2.2.4-4.5.6-6.8-1.6-1.2-3.4-2-5.3-2.5-1.3-.3-2.7-.5-4-.5h-1.1c-2.5 0-4.9.5-7.1 1.5 0 0-5.3 3.9-5.8 4.3-4.6 4.5-10.5 6.7-16.4 6.8-6-.2-12-2.5-16.5-7.2-9.3-9.5-9.1-24.7.4-34 4.4-4.3 10.2-6.6 16-6.8 5.6 0 11.2 2 15.6 5.9l.4.4c.3.3.6.6 1 .9 3.3 3.3 7.7 4.9 12 4.8 1.9.1 3.8-.2 5.6-.8 1.9-.6 3.7-1.6 5.2-2.9-.1-2.3-.3-4.6-.6-6.8-1.9-18.8-6.3-36.3-12.8-50.9 14.9-6.5 32.8-10.7 52.1-12.4.6 1.3.9 2.7.9 4.1-.1 2.7-1.1 5.2-3 7.1l-3.8 4.3c-8.8 11.6-7.8 28.3 2.9 38.8 8.8 8.7 21.8 10.6 32.5 5.9 3.4-1.4 6.7-3.5 9.5-6.2 10.7-10.5 11.7-27.1 2.9-38.8l-3.8-4.3c-1.8-1.9-2.9-4.3-3-6.9.1-1.4.4-2.8 1-4.1 19.6 1.7 37.8 6 52.8 12.7-6.8 14.6-11.1 31.9-13 50.6z"/><path class="st1" d="M293 213.3c-.4 1.3-.5 2.7-.6 4 0 2.5.5 4.9 1.6 7.1 0 0 1 1.3 2 2.7V208h-.4c-1.2 1.6-2.1 3.4-2.6 5.3zM292.5 83.2c0 1.4.2 2.7.6 4 .5 1.9 1.4 3.7 2.5 5.3h.4V71.9c-2.5 3.1-3.7 6.9-3.5 10.7v.6z"/></g></svg>