<svg data-name="Layer 3" xmlns="http://www.w3.org/2000/svg" viewBox="0 0 310 310"><title>pexels</title><path d="M310 39.8A39.8 39.8 0 0 0 270.2 0H39.8A39.8 39.8 0 0 0 0 39.8v230.3a39.8 39.8 0 0 0 39.8 39.8h230.4a39.8 39.8 0 0 0 39.8-39.8V39.8zM155.5 241.1a86.8 86.8 0 1 1 86.8-86.8 86.9 86.9 0 0 1-86.8 86.8zM282 60.3a7.6 7.6 0 0 1-7.6 7.6h-23.8a7.6 7.6 0 0 1-7.6-7.6V36.6a7.6 7.6 0 0 1 7.6-7.6h23.7a7.6 7.6 0 0 1 7.6 7.6v23.7zM155.5 94.9a59.5 59.5 0 1 0 59.5 59.5 59.6 59.6 0 0 0-59.5-59.5z"/></svg>