<svg id="Layer_3" data-name="Layer 3" xmlns="http://www.w3.org/2000/svg" viewBox="0 0 360 360"><defs><style>.cls-1{fill:#4da74d}.cls-2{fill:#fff}</style></defs><title>pixabay</title><path class="cls-1" d="M0 0h360v360H0z"/><path class="cls-2" d="M180.8 157.9c32.3-.7 62.5 25.5 66 57.7 4.1 28.3-12.6 57.6-38.6 69.1-15.8 7.8-33.6 5.4-50.6 5.8h-16.7v53.2h-26.3c.1-41-.1-82 .1-123.1.9-30.6 25.9-57.9 56.1-62a67.9 67.9 0 0 1 10-.7zm0 106.3c19 .5 36.7-14.3 39.6-33.1s-8.3-39.2-26.7-44.9-39.2 2-47.9 18.8c-6.7 11.5-4.4 25.1-4.8 37.7v21.4h39.9zM316.3 240.7h.9l36.9 49.3h32.2l-50.2-68.2 44.5-64.4h-32.1l-31.3 45.5h-.9L285 157.3h-32.2l44.5 64.4-50.2 68.2h32.2z" transform="translate(-70.5 -70.5)"/></svg>