<svg id="Layer_3" data-name="Layer 3" xmlns="http://www.w3.org/2000/svg" viewBox="0 0 360 360"><defs><style>.cls-1{fill:#fff}.cls-2{fill:#0076cc}.cls-3{fill:#7fbae5}</style></defs><title>placeit</title><path class="cls-1" d="M0 0h360v360H0z"/><circle class="cls-2" cx="180" cy="180" r="150"/><rect class="cls-1" x="103.2" y="80.8" width="153.7" height="198.48" rx="16.3" ry="16.3"/><path class="cls-2" d="M114.4 94.9h131.3v160.06H114.4z"/><circle class="cls-3" cx="180" cy="265.2" r="6.4"/><path class="cls-1" d="M275.6 250.6h-15.5c0-1-.6-.5-.6-.7v-41.6c0-1.4-.5-2.7-2-2.7h-14a3.1 3.1 0 0 0-3 2.7v41.6c0 .1.4-.3.4.7h-15.5a1.3 1.3 0 0 0-1 2.2l25.1 27.5a1.3 1.3 0 0 0 1.9 0l25.1-27.5a1.3 1.3 0 0 0-.9-2.2z" transform="translate(-70.5 -70.5)"/><circle class="cls-3" cx="180" cy="86.6" r="1.6"/><path class="cls-1" d="M178.1 263.3h3.8v3.84h-3.8z"/></svg>