<svg id="Layer_3" data-name="Layer 3" xmlns="http://www.w3.org/2000/svg" viewBox="0 0 360 360"><defs><style>.cls-1{fill:#e8117f}.cls-2{fill:#fff}</style></defs><title>placehold</title><path d="M5 5h350v350H5z"/><path class="cls-1" d="M420.5 80.5v340h-340v-340h340m10-10h-360v360h360v-360z" transform="translate(-70.5 -70.5)"/><g><path class="cls-2" d="M136.9 238.3a23.5 23.5 0 0 0-6-.7h-8.4v25h5v-9h3.6a30.7 30.7 0 0 0 5.2-.3 7.2 7.2 0 0 0 2.6-1.1 6.8 6.8 0 0 0 2.1-2.4 8.1 8.1 0 0 0 .8-3.9 8.2 8.2 0 0 0-1.5-5 6.8 6.8 0 0 0-3.4-2.6zm-.7 9.6a3.4 3.4 0 0 1-1.6 1.3 12.8 12.8 0 0 1-4 .4h-3.1v-7h6.4a3.4 3.4 0 0 1 2 1.1 3.2 3.2 0 0 1 .8 2.2 3.3 3.3 0 0 1-.5 2z" transform="translate(-70.5 -70.5)"/><path class="cls-2" d="M81 167.1h-5v25h17v-4H81v-21z"/><path class="cls-2" d="M174.7 237.6l-9.8 25h5.4l2.1-5h10l2.2 5h5.5l-10-25h-5.3zm-.8 15l3.4-9.3 3.5 9.3H174zM206.7 258.1a5.1 5.1 0 0 1-3.5 1.3 5.5 5.5 0 0 1-4.4-2q-1.7-2-1.7-6.8t1.7-6.5a5.7 5.7 0 0 1 4.5-2 5.2 5.2 0 0 1 5.3 4.2l5-1.2a9.9 9.9 0 0 0-2.6-4.6 10.4 10.4 0 0 0-7.5-2.7 11.1 11.1 0 0 0-8.5 3.5q-3.2 3.5-3.2 9.7t3.2 9.3a11.8 11.8 0 0 0 14.9 1.4 11 11 0 0 0 3.8-6.1l-4.9-1.6a7.4 7.4 0 0 1-2.1 4.1z" transform="translate(-70.5 -70.5)"/><path class="cls-2" d="M153 181.1h12v-4h-12v-5h13v-5h-18v25h19v-4h-14v-7zM186 177.1h-10v-10h-5v25h5v-11h10v11h5v-25h-5v10z"/><path class="cls-2" d="M277.7 237.8a13.8 13.8 0 0 0-5.4 1 9.8 9.8 0 0 0-3.2 2.3 11.8 11.8 0 0 0-2.3 3.4 15.9 15.9 0 0 0-1.1 6.4q0 6 3.3 9.4a13.2 13.2 0 0 0 17.7 0q3.3-3.4 3.3-9.5t-3.3-9.6a11.8 11.8 0 0 0-9-3.4zm5 19.4a6.8 6.8 0 0 1-10 0q-2-2.2-2-6.5t1.9-6.5a7 7 0 0 1 10.1 0q1.9 2.1 1.9 6.4t-1.9 6.6z" transform="translate(-70.5 -70.5)"/><path class="cls-2" d="M229 167.1h-5v25h17v-4h-12v-21z"/><path class="cls-2" d="M333 241a9 9 0 0 0-3.8-2.6 16.2 16.2 0 0 0-4.8-.8h-9v25h9.2a17.1 17.1 0 0 0 4.5-.2 8.7 8.7 0 0 0 3.6-1.8 10.7 10.7 0 0 0 2.7-4.3 16.2 16.2 0 0 0 .8-5.3 18.4 18.4 0 0 0-.8-5.9 10.9 10.9 0 0 0-2.4-4.1zm-2.5 14.3a5.3 5.3 0 0 1-1.3 2.4 4.4 4.4 0 0 1-2 .8 18.1 18.1 0 0 1-3.1 0h-3.6v-16h2.1a25.9 25.9 0 0 1 4.2.2 4.8 4.8 0 0 1 2.3 1.1 5.6 5.6 0 0 1 1.4 2.4 14.9 14.9 0 0 1 .5 4.4 16.3 16.3 0 0 1-.5 4.7z" transform="translate(-70.5 -70.5)"/><path class="cls-2" d="M270 188.1h5v4h-5zM280 167.1h5v25h-5zM288 167.1v5h7v20h5v-20h8v-5h-20z"/></g></svg>