<svg id="Layer_3" data-name="Layer 3" xmlns="http://www.w3.org/2000/svg" viewBox="0 0 360 360"><defs><style>.cls-1{fill:#fff}.cls-2{fill:#88b744}</style></defs><title>randomuser</title><path class="cls-1" d="M0 0h360v360H0z"/><circle class="cls-2" cx="180" cy="180" r="156"/><path class="cls-1" d="M329.8 286.6a87.4 87.4 0 0 0-10.5-17.3 6.1 6.1 0 0 0-4.7-2.3 6 6 0 0 0-4.8 2.2 77.4 77.4 0 0 1-118.7 0 5.9 5.9 0 0 0-4.8-2.2 6.1 6.1 0 0 0-4.7 2.3 87.4 87.4 0 0 0-10.5 17.3 35.9 35.9 0 0 0 14.7 45.8 130.2 130.2 0 0 0 129.3 0 35.9 35.9 0 0 0 14.7-45.8zm-20.7 35.2a118 118 0 0 1-117.2 0 23.6 23.6 0 0 1-9.7-30.2 74.9 74.9 0 0 1 4.9-9 89.6 89.6 0 0 0 126.8 0 74.9 74.9 0 0 1 4.9 9 23.6 23.6 0 0 1-9.7 30.3z" transform="translate(-70.5 -70.5)"/><path class="cls-1" d="M250.5 287.4a68 68 0 1 0-68-68 68.1 68.1 0 0 0 68 68zm0-12.2a55.6 55.6 0 0 1-41.8-19l-5-20.3c3-.3 6.9-1.3 9.6-4.5a11.9 11.9 0 0 0 2.6-6.3c14.3 8.6 50.5 25.9 88.1 10.1a55.9 55.9 0 0 1-53.5 40zm-52.4-43.6a4.4 4.4 0 0 0-.8 3.8l.6 2.4a55.9 55.9 0 1 1 107.7-10.1c-42 20.5-83.4-5.5-91.3-10.9a3 3 0 0 0-4.7 3.1c.6 3.4.3 6-1 7.5s-5.1 2.5-7 2.5a4.4 4.4 0 0 0-3.5 1.7z" transform="translate(-70.5 -70.5)"/></svg>