<svg id="Layer_3" data-name="Layer 3" xmlns="http://www.w3.org/2000/svg" viewBox="0 0 360 360"><defs><style>.cls-1{fill:#fff}.cls-2{fill:#3d84c2}.cls-3{fill:#82add3}.cls-4{fill:#efac4e}.cls-5{fill:#428ac9}.cls-6{fill:#fec678}.cls-7{fill:#fefefe}.cls-8{fill:#5f9dd2}.cls-9{fill:#377db9}</style></defs><title>realfavicongenerator</title><path class="cls-1" d="M0 0h360v360H0z"/><path class="cls-2" d="M133.5 111.2h.3a4.5 4.5 0 0 0 2.1.2H367c10.4 0 19 6.2 21.9 15.7a19.4 19.4 0 0 1 .7 5.7v235.1c0 8.6-4.5 14.6-11.5 19a18.6 18.6 0 0 1-10.1 2.7c-30.4.4-60.9.1-91.3.1H136.4c-3.6 0-7.3.2-10.8-1.3a24.2 24.2 0 0 1-13.2-13.2c-.8-2-.7-4.2-1.1-6.2v-.3a7.1 7.1 0 0 0 .2-2.4V135.8a4.5 4.5 0 0 0-.2-2.1v-2a3 3 0 0 0 .3-1.6c.5-7.7 5.3-12.5 11.3-16.4 2.9-1.9 6.3-2.3 9.7-2.4a1.3 1.3 0 0 0 .9-.1z" transform="translate(-70.5 -70.5)"/><path class="cls-3" d="M111.3 366.7h.3c0 .6.3 1.3-.3 1.9v-2z" transform="translate(-70.5 -70.5)"/><path class="cls-4" d="M234.2 379.3h-41.5a.9.9 0 0 1-.1-1.1c.7-1.4 0-2.5-1-3.5s-3-2.7-4.5-4a2.5 2.5 0 0 1-1-3.1 27.5 27.5 0 0 0 1.3-5.2 2 2 0 0 1 1.6-1.8l6.5-2.1c1.9-.5 2.2-1 2.3-3s0-3 0-4.6-.3-2.1-2.1-2.6-4.6-1-6.9-1.4a2.7 2.7 0 0 1-2.4-2.4 20.5 20.5 0 0 0-1.2-4.2 2 2 0 0 1 .5-2.5c1.8-1.7 3.3-3.6 5-5.4s1.7-2.3.5-4.3-1.3-2.4-2.1-3.5-1.7-1.9-3.5-1.3-3.8 1.3-5.7 2a4.2 4.2 0 0 1-5.3-1.3c-3.1-3.5-3.3-2.3-2.1-7.5.4-1.8.8-3.5 1.2-5.3a2.2 2.2 0 0 0-1.2-2.6l-4.4-2.5c-1.6-.9-2.2-.8-3.4.6s-3.2 3.4-4.7 5.2-2.6 1.8-4.5 1.2c-5.3-1.8-4.2-.6-5.8-5.8l-1.6-4.8a2.5 2.5 0 0 0-2.7-1.9h-4.9a2.4 2.4 0 0 0-2.6 2.1c-.6 2.4-1 4.9-1.5 7.3s-.9 2.3-2.4 2.4l-.8.2c-4.7 1.2-4.7 1.2-8.3-2.1-1.3-1.2-2.9-2.1-3.3-4q0-18.7-.1-37.4c0-4 0-4 4-4h28.9c1.5 0 1.9.5 1.9 1.9-.1 5.9 0 11.9-.1 17.8 0 1.3.2 1.8 1.7 1.8h27.8c1.2 0 1.6-.3 1.6-1.5-.1-8.3 0-16.7-.1-25 0-1.6.5-2 2-2h50.5c1.6 0 2-.4 2-2-.1-8.8 0-17.6-.1-26.5 0-1.5.4-1.9 1.9-1.9h65.2c1.4 0 1.9.3 1.8 1.8-.1 9.1 0 18.2 0 27.3.6.6.2 1.1-.2 1.6l-10.6 11.9c-5 5.6-10 11.1-14.9 16.8-3 3.5-3 3.6-6.5.7a13 13 0 0 1-1.7-1.5 1 1 0 0 1-.2-1.4l.3-1.7c-.7-.7-.2-1.2.2-1.7 2.4-3 2.4-3.1-.4-5.7s-8.8-7.8-13.2-11.7c-1.1-1-2.1-2.1-3.2-3.1s-2-1.2-3.2.1l-10.6 12c-1.7 1.9-1.6 2.3.1 4.1a8.2 8.2 0 0 1 2.3 2.9v.9c.5 1.3-.6 2-1.3 2.8-2.5 3-2.5 2.9.5 5.4.6.5 1.4.9.8 1.8v.9c.6.6.2 1.1-.2 1.6-3.4 3.9-6.7 7.8-10.2 11.6s-2.3 3.1.4 5.3a6.4 6.4 0 0 1 2 2.3v1.1l-7.6 8.7c-1.6 1.8-1.5 2.1.2 3.7a19.3 19.3 0 0 1 2.8 2.7v1.1a83.2 83.2 0 0 1-6.8 8.2c-2.2 2.6-2.3 2.9.3 5.2.7.6 1.6 1 1.5 2.2v.5c.3 1-.4 1.5-.9 2.1-3.8 4.4-7.8 8.7-11.5 13.1-1.1 1.3-1.1 1.7.1 2.9s5.2 4.7 7.9 7.1 4.6 4.3 7.1 6.3c.3.5.9.9.4 1.7z" transform="translate(-70.5 -70.5)"/><path class="cls-5" d="M121.4 170.6v-35.3a13.5 13.5 0 0 1 11.2-13.5l2.4-.2h69a4.8 4.8 0 0 1 4.2 2 59.9 59.9 0 0 1 13 32.1c1.5 17.3-3.2 32.7-14.6 46a58.2 58.2 0 0 1-38.8 20.5c-16.8 1.9-31.9-2.7-45.2-13.1a3.3 3.3 0 0 1-1.1-3q-.1-17.7-.1-35.5z" transform="translate(-70.5 -70.5)"/><path class="cls-4" d="M353.8 344.7v-1a2.4 2.4 0 0 1 .8-1.7l1.7-1.9a1.7 1.7 0 0 0-.3-2.7 9.3 9.3 0 0 1-2.9-3 5.3 5.3 0 0 0 .1-.9c0-1.4 1-2.2 1.9-3.1s1.5-2-.2-3.5-4.6-4.1-6.9-6.2c-.5-.4-1.1-.9-.5-1.6l.2-2.2c-.7-.8 0-1.3.4-1.8 2.2-2.5 2.3-2.6-.2-4.9s-8.1-7.1-12-10.7c-.4-.4-1.2-.8-.6-1.6v-1.1c-.4-1 .3-1.5.8-2.1 2.6-2.7 2.6-2.8-.1-5.4s-4.6-4.4-6.9-6.4-1.4-1.7-.2-3.1c4.9-5.6 9.9-11.1 14.9-16.6 2.4-2.7 4.9-5.3 7.2-8s1.1-1.9-.4-3.2a7.5 7.5 0 0 1-2.7-3 .7.7 0 0 1 .5-.8.6.6 0 0 1 .8 0h27.9c2.1 0 2.1 0 2.1 2.2v114.5c0 7.2-3.8 12.5-10.3 14.1a14.5 14.5 0 0 1-3.4.4h-33c-.5-.9.2-1.5.7-2 4.6-4.9 9-10 13.6-14.9s6.5-7.3 9.8-10.9c1.4-1.5 1.2-2.2-.4-3.5s-1.3-1.3-2.1-1.8a1.5 1.5 0 0 1-.3-1.6z" transform="translate(-70.5 -70.5)"/><path class="cls-5" d="M340.4 121.6H366a13.1 13.1 0 0 1 13.2 13.2V180a5.1 5.1 0 0 1-1.6 3.9 45.3 45.3 0 0 1-77.2-23.3c-2.4-13.4.8-25.5 9.2-36.3a6.4 6.4 0 0 1 5.8-2.7c8.4.1 16.7 0 25 0z" transform="translate(-70.5 -70.5)"/><path class="cls-6" d="M121.5 306.6l6 5.3a2.4 2.4 0 0 0 2.8.6 3.9 3.9 0 0 1 1.3-.3c3.1-.1 4.2-2 4.5-4.8s.9-4 1.2-6.1a1.7 1.7 0 0 1 2.1-1.6h7a1.9 1.9 0 0 1 2.1 1.6c.8 2.8 1.8 5.5 2.6 8.3a2.5 2.5 0 0 0 2.1 2l2 .6c2.8.9 2.7.8 4.6-1.3l5.3-6a1.2 1.2 0 0 1 1.8-.3l6.8 3.9a1.7 1.7 0 0 1 .8 2.2c-.7 2.9-1.3 5.7-1.9 8.6a2.5 2.5 0 0 0 .7 2.5c3.7 3.9 3.7 3.9 8.7 1.9l4.7-1.5a1.8 1.8 0 0 1 2.3.9l3.7 6.3a1.6 1.6 0 0 1-.2 2.1 82.7 82.7 0 0 1-6 6.5 2 2 0 0 0-.6 2.6 18.1 18.1 0 0 1 1.1 3.8 2.2 2.2 0 0 0 2.1 2l7.7 1.5a1.7 1.7 0 0 1 1.7 2q-.1 3.7 0 7.4a1.8 1.8 0 0 1-1.5 2l-7.5 2.3a2 2 0 0 0-1.6 1.8 40.8 40.8 0 0 1-1.2 4.8 1.8 1.8 0 0 0 .7 2.2c1.6 1.3 3.2 2.8 4.7 4.3s2.3 2.3.4 4.9h-23.6c-.6-.9.2-1.4.7-2a34.9 34.9 0 0 0 6.7-13.1 33.8 33.8 0 0 0-52-36.3c-.8.5-1.5 1.5-2.7.9v-22.5z" transform="translate(-70.5 -70.5)"/><path class="cls-4" d="M121.5 328.8a36.7 36.7 0 0 1 18-7.6 34.6 34.6 0 0 1 38.1 27.9c2.1 11.4-.9 21.5-8.7 30.2h-33.3c-8.4 0-14.1-5.8-14.1-14.2q-.1-18.1 0-36.3z" transform="translate(-70.5 -70.5)"/><path class="cls-7" d="M276.3 285l4.3 4.2c.9.9 1.2 0 1.6-.5l11.6-13 15.7-17.7.8-1 15.8-17.6c1.5-1.6 3-3.2 4.3-4.9s1.2-.7 1.9 0a41.6 41.6 0 0 0 3.4 3.1c.9.7 1 1.2.1 2.2L300 279.7 267.6 316c-1 1.2-1.6 1.2-2.6.1a27.9 27.9 0 0 0-3.1-2.9c-.9-.7-.8-1.3 0-2.1l13.3-14.6c.9-.9.8-1.4-.2-2.1s-2.4-2-3.6-3.1-.7-.7-.2-1.2l4.3-4.9a.7.7 0 0 1 .8-.2zM348 249c2 1 3.5 2.7 5.2 4.1s-.1 1.1-.4 1.4l-11.6 12.9c-3.8 4.2-7.5 8.5-11.4 12.6-1 1.1-.8 1.6.2 2.5l9.1 8.4c.7.7.8 1.1.1 1.8s-2.5 2.7-3.7 4.1c-3.6-2.7-6.9-5.8-10.3-8.8-1.3-1.1-1.9-1-3 .2l-17.8 20c-.8.9-1.3 1.2-2.3.1a23.6 23.6 0 0 0-3-2.8c-.9-.7-.7-1.2-.1-1.9l23-25.6 25.4-28.3zM353.8 344.7c1.6 1.4 3.1 2.7 4.7 4s.9 1.2.1 2L334.8 377l-2.1 2.3H323a1.1 1.1 0 0 1 .6-1.1l29.4-32.8zM248.7 280.3c-2-1.1-3.2-3-4.8-4.5s-.2-.8.2-1.1l13.6-15.4c.8-.9 1.2-.1 1.7.3l17.2 15.4 2.9 2.6c.8.6.9 1.1.2 1.9s-2.1 2.5-3.1 3.8-1.1.3-1.7-.2l-14.6-13.3c-1-.9-1.5-.9-2.4.1-3 3.6-6.1 7-9.2 10.4zM335.3 298l15 13.3c1.1 1 1.2 1.6.1 2.6a39.6 39.6 0 0 0-2.7 3c-.7.8-1.2.3-1.7-.2l-8.9-8c-.8-.8-1.3-.8-2 .1l-13 14.4c-.7.8-1.1.9-1.9.2s-2.7-2.2-4.1-3.3a.8.8 0 0 1-.1-1.4l18.4-20.5c.3-.2.5-.6.9-.2zM234.2 379.3l-16.3-14.6c-1.9-1.7-1.9-1.7-.2-3.6l13.4-15c1.5 1.3 2.9 2.6 4.4 3.8s.8 1 .1 1.8l-8.7 9.3c-.9.9-.8 1.3.1 2.1l17 15.2.8.5-.2.4h-10.4zM347.6 319.1l8.5 7.7c1.9 1.7 1.9 1.7.2 3.5l-2.6 2.9c-.3.5-.6.4-.9.1s-3-2.6-4.4-3.9-1.2-.7-1.9.1l-12.8 14.6c-.9 1.1-1.5 1.1-2.4.1a23.8 23.8 0 0 0-3-2.8c-1-.8-1.1-1.4-.2-2.4l17.5-19.6c.6-.6 1.2-1.2 2-.3zM240.6 312.7c-1.1.1-1.4-.8-2-1.4s-3.3-2.1-3.4-3.5 1.9-2.5 2.9-3.7l10.6-12.1c.5-.6.9-.2 1.4.2s2.3 2.1 3.6 3.1 1 1.2.2 2l-12.2 14.2zM236.1 328.9l-.6.2-5-4.2c-.4-.4 0-.7.2-1l8.5-9.9c.4-.5.8-.7 1.4-.3s2.5 2.3 3.8 3.3.9 1.1.2 1.9zM349.4 248.1a.7.7 0 0 1-.8 0l-9.9-9c-.8-.7-.9-1.1-.1-1.9a36.4 36.4 0 0 0 2.9-3.1c.6-.8 1.1-.9 2-.2l9.4 8.1c.9.7.8 1.2.1 1.9s-2.5 2.8-3.6 4.2zM231 345.6a45.5 45.5 0 0 1-4.6-4.1.7.7 0 0 1-.1-1.1l8.9-10.3a.7.7 0 0 1 .9-.1c1.3 1.1 2.6 2.3 3.9 3.4s1 1.1.1 2c-3 3.4-6 6.9-9.1 10.2zM248.7 291c-1.3-1.1-2.6-2.3-3.9-3.4s-.8-1.2-.1-1.9 2.7-3.1 4-4.7c2 1.1 3.4 3 5.1 4.5a.6.6 0 0 1 .1 1l-4.3 4.6a.6.6 0 0 1-.9-.1z" transform="translate(-70.5 -70.5)"/><path class="cls-7" d="M353.8 334.3l4.3 3.8c.4.3.8.6.2 1.2s-2.7 3.3-4.4 4.5c-1.5-1.2-3-2.5-4.5-3.7s-1.1-1.1-.2-2 2.5-2.9 3.7-4.3.6.3.9.5z" transform="translate(-70.5 -70.5)"/><path class="cls-8" d="M353.8 334.3l-1-.6v-.4a1.1 1.1 0 0 0 .9-.1v1.1z" transform="translate(-70.5 -70.5)"/><path class="cls-9" d="M194.3 161.5a33.5 33.5 0 1 1-66.9.1c0-18.8 15.8-33.5 33.8-33.4a33.6 33.6 0 0 1 33.1 33.3zM369.8 151.3a24.9 24.9 0 0 1-49.6 2.8 24.9 24.9 0 1 1 49.6-2.8z" transform="translate(-70.5 -70.5)"/><path class="cls-6" d="M124.7 355.3a19 19 0 1 1 18.8 19.2c-10.7.1-18.9-8.3-18.8-19.2z" transform="translate(-70.5 -70.5)"/><path class="cls-5" d="M176.3 161.7c0 8.3-7.1 15.8-15.1 15.8a16.4 16.4 0 0 1-16.2-16.1c-.1-8 7.6-15.3 15.9-15.3a15.5 15.5 0 0 1 15.4 15.6zM356.4 152.6a11.4 11.4 0 0 1-11.4 11.7c-6.2.1-11.9-5.5-11.8-11.8a11.6 11.6 0 0 1 12.1-11.3 11.1 11.1 0 0 1 11.1 11.4z" transform="translate(-70.5 -70.5)"/><path class="cls-4" d="M143.4 364.5a8.8 8.8 0 1 1 .4-17.7 8.8 8.8 0 0 1-.4 17.7z" transform="translate(-70.5 -70.5)"/></svg>