<svg id="Layer_3" data-name="Layer 3" xmlns="http://www.w3.org/2000/svg" viewBox="0 0 360 360"><defs><style>.cls-1{fill:#c6242c}</style></defs><title>responsivegride</title><path class="cls-1" d="M0 0h360v360H0z"/><path d="M277 250.3a40.8 40.8 0 0 0 22.8-20.1c5.2-9.8 7.8-22 7.8-36.6 0-23.5-6.6-40.5-19.8-50.6s-32.9-15.4-58.9-15.4h-44.4v245h35v-114h26.9l35.3 114h34.7zm-15.3-26.7c-7.3 6.2-18.2 9-32.8 9h-9.4v-79h9.4c14.6 0 25.5 3.4 32.8 9.6s10.9 16.3 10.9 30.2-3.6 24-10.9 30.2z" transform="translate(-70.5 -70.5)"/></svg>