<svg id="Layer_3" data-name="Layer 3" xmlns="http://www.w3.org/2000/svg" viewBox="0 0 360 361"><defs><style>.cls-1{fill:#fff}</style></defs><title>responsivedesignchecker</title><path d="M.5.5h359v179.87H.5z"/><path d="M429.5 70.6v178.9h-358V70.6h358m1-1h-360v180.9h360V69.6z" transform="translate(-70.5 -69.6)"/><path class="cls-1" d="M.5 181.5h359v179.04H.5z"/><path d="M429.5 251.5v178h-358v-178h358m1-1h-360v180h360v-180z" transform="translate(-70.5 -69.6)"/><g><path class="cls-1" d="M154.6 203.5l9.2-.6a51.8 51.8 0 0 1 1 6.8 17.7 17.7 0 0 1 5.2-5.3 11.1 11.1 0 0 1 5.7-1.5 8.5 8.5 0 0 1 5.5 1.7 11.1 11.1 0 0 1 3.3 5.7 17.4 17.4 0 0 1 5.1-5.5 10.9 10.9 0 0 1 6.1-1.8q4.4 0 6.6 2.6a13.5 13.5 0 0 1 2.8 8.8v15.9a2.3 2.3 0 0 0 .7 1.9 4.4 4.4 0 0 0 2.8.8h1.6v2.6h-16.1V233h1.6a4.6 4.6 0 0 0 2.9-.7 2.5 2.5 0 0 0 .8-2.1v-15.9a8 8 0 0 0-1.7-5.5 5.8 5.8 0 0 0-4.6-2 6.9 6.9 0 0 0-3.9 1.1 7.7 7.7 0 0 0-2.7 3.3 12.4 12.4 0 0 0-1.5 5.2v13.8a2.6 2.6 0 0 0 .8 2.1 3.4 3.4 0 0 0 2.3.7h2.2v2.6h-16.4V233h1.8a4.1 4.1 0 0 0 2.6-.7 2.1 2.1 0 0 0 .9-1.7v-14.8q0-4.7-1.7-6.8a5.4 5.4 0 0 0-4.5-2.1 6.7 6.7 0 0 0-5.6 2.5 12.7 12.7 0 0 0-2.8 8.1v12.8a2.5 2.5 0 0 0 .6 2 4.7 4.7 0 0 0 2.9.7h1.6v2.6h-15.9V233h2.4a3 3 0 0 0 2.1-.7 2.3 2.3 0 0 0 .7-1.7v-21a3.5 3.5 0 0 0-.9-2.6 6.1 6.1 0 0 0-3.6-1.1v-2.4zM244.9 219.8H222q.2 7.3 2.7 10.3a9.5 9.5 0 0 0 7.5 3.4q6.7 0 10.8-7.6l2.2 1q-5 9.7-14.4 9.7A14.3 14.3 0 0 1 220 232a16.6 16.6 0 0 1-4.4-11.9q0-7.8 4.3-12.6a13.8 13.8 0 0 1 10.6-4.8 13.6 13.6 0 0 1 8 2.4 14.4 14.4 0 0 1 5.1 6.9 23.5 23.5 0 0 1 1.3 7.8zm-22.9-2.5h13.9a2.3 2.3 0 0 0 1.9-.8 4.6 4.6 0 0 0 .7-2.9 9.3 9.3 0 0 0-2.3-6.4 7.2 7.2 0 0 0-5.5-2.6 7.4 7.4 0 0 0-6 3.2q-2.6 3.2-2.7 9.5zM268 185l12.5-.6v43.8a5.5 5.5 0 0 0 1 3.7 3.7 3.7 0 0 0 2.9 1.1h2.2v2.6h-10.9l-.8-6.5a14.9 14.9 0 0 1-4.6 5.2 10.3 10.3 0 0 1-5.9 1.8 11.8 11.8 0 0 1-9.3-4.6q-3.8-4.6-3.8-12.1t4.9-13a12.3 12.3 0 0 1 8.9-3.8 10.1 10.1 0 0 1 5.5 1.5 13.2 13.2 0 0 1 4.3 4.6v-18a2.7 2.7 0 0 0-1.1-2.3 5.8 5.8 0 0 0-3.5-.8H268V185zm-2 20.4a6.8 6.8 0 0 0-5.9 3q-2.2 3-2.2 10.3t2.2 11a6.7 6.7 0 0 0 5.7 3.2 7.8 7.8 0 0 0 6.4-3.6q2.6-3.6 2.6-10.4t-2.8-10.2a7.4 7.4 0 0 0-5.9-3.3zM289.5 203.5l12.7-.4v27.5a2 2 0 0 0 .5 1.6 2.9 2.9 0 0 0 2 .7h3.6v2.6h-18.2V233h3.4a2.9 2.9 0 0 0 2.2-.7 3 3 0 0 0 .7-2.1v-20.3a3.7 3.7 0 0 0-1.1-2.9 4.7 4.7 0 0 0-3.2-1h-2.6v-2.6zm8.9-19.1a3.7 3.7 0 0 1 2.7 1.2 3.7 3.7 0 0 1 1.2 2.7 3.6 3.6 0 0 1-1.1 2.7 3.8 3.8 0 1 1-2.8-6.6zM346 232l1.2 1.9a7.6 7.6 0 0 1-5.5 2.6 6.1 6.1 0 0 1-3.9-1.3 10.2 10.2 0 0 1-2.8-4.4 20.5 20.5 0 0 1-5.7 4.6 13.9 13.9 0 0 1-5.9 1.1q-4.9 0-7.5-2.1a6.7 6.7 0 0 1-2.6-5.4q0-5 5.9-8.3t15.6-4.4v-4.9a5.7 5.7 0 0 0-2.1-4.4 7.7 7.7 0 0 0-5.3-1.8 10.2 10.2 0 0 0-5.1 1.2q-1.5.9-1.5 1.8a3.3 3.3 0 0 0 .8 1.6 4.3 4.3 0 0 1 1 2.4 3.4 3.4 0 0 1-1 2.5 3.5 3.5 0 0 1-2.6 1 3.8 3.8 0 0 1-2.9-1.2 4.1 4.1 0 0 1-1.1-3q0-3.4 3.8-6.2t10-2.8q5.7 0 8.7 2.5a7.6 7.6 0 0 1 3 6v17.5a6.1 6.1 0 0 0 .8 3.4 2.3 2.3 0 0 0 1.9 1.1 4.8 4.8 0 0 0 2.8-1zm-11.2-13.5q-8.7 1.2-12.3 3.9a6.9 6.9 0 0 0-2.7 5.8 5.8 5.8 0 0 0 1.4 4.1 4.8 4.8 0 0 0 3.7 1.5 9.4 9.4 0 0 0 7-3.1 10.6 10.6 0 0 0 3-7.7v-4.6z" transform="translate(-70.5 -69.6)"/></g><g><path d="M167.5 305.7l-2.4.5a27.7 27.7 0 0 1-4.1.3 14 14 0 0 1-5.9-1.2 11.5 11.5 0 0 1-4.2-3.3 14 14 0 0 1-2.5-5 23.7 23.7 0 0 1-.8-6.5 21.1 21.1 0 0 1 1-6.6 14.9 14.9 0 0 1 2.7-5 11.6 11.6 0 0 1 4.3-3.2 13.7 13.7 0 0 1 5.6-1.1 22.3 22.3 0 0 1 5.6.7 15.1 15.1 0 0 1 4.4 1.8l1.8-4.7-1.3-.7-2.4-.9-3.6-.8a30 30 0 0 0-4.8-.3 20 20 0 0 0-7.5 1.4 17.3 17.3 0 0 0-6.1 4 19.3 19.3 0 0 0-4.1 6.5 24.2 24.2 0 0 0-1.5 8.9 26.7 26.7 0 0 0 1.4 8.9 18.2 18.2 0 0 0 3.8 6.5 16.3 16.3 0 0 0 5.9 4 20.4 20.4 0 0 0 7.7 1.4l4.1-.2 3.7-.5 2.7-.6a4.2 4.2 0 0 0 1.7-.5v-18.9h-5v15.1z" transform="translate(-70.5 -69.6)"/><path d="M117 222h16v-4h-16v-12h18v-5h-24v40h26v-5h-20v-14z"/><path d="M241.5 300.2c-2-2-2.9-4.4-4.6-7s-3.7-5.3-5.8-8-4.1-5.4-6.1-7.9-4-4.7-5.8-6.7h-4.6v40h5v-31.2c2 1.2 2.6 2.6 3.8 4.3s2.7 3.3 4.1 5.2l4.1 5.7 4 5.8 3.6 5.5c1.1 1.8 2.1 3.8 2.9 4.8h4.5v-40h-5v29.6z" transform="translate(-70.5 -69.6)"/><path d="M191 222h17v-4h-17v-12h19v-5h-24v40h26v-5h-21v-14z"/><path d="M310 292.3a15.5 15.5 0 0 0-3.7-2.5l-4.7-2.1-3.4-1.4a15.3 15.3 0 0 1-2.7-1.5 6.2 6.2 0 0 1-1.8-1.9 5.3 5.3 0 0 1-.6-2.7 5 5 0 0 1 .6-2.5 5.1 5.1 0 0 1 1.6-1.8 7.7 7.7 0 0 1 2.4-1 12.3 12.3 0 0 1 3-.3 19.3 19.3 0 0 1 5.6.7 15.8 15.8 0 0 1 3.6 1.5l1.8-4.5a15.1 15.1 0 0 0-4.3-1.7 26 26 0 0 0-6.6-.8q-6.3 0-9.8 2.9a10 10 0 0 0-3.6 8.2 10.1 10.1 0 0 0 .8 4.3 9.5 9.5 0 0 0 2.3 3.1 14.5 14.5 0 0 0 3.4 2.2l4.1 1.7 3.6 1.4a14.6 14.6 0 0 1 3 1.6 7.5 7.5 0 0 1 2.1 2.2 6 6 0 0 1 .8 3.1q0 6-8.7 6a20.7 20.7 0 0 1-6.6-.9 25.1 25.1 0 0 1-4-1.7l-1.7 4.6 1.8.8 2.7.9 3.5.7a27.8 27.8 0 0 0 4.3.3q7 0 10.8-2.8a9.4 9.4 0 0 0 3.8-8.1 12 12 0 0 0-.9-4.8 9.9 9.9 0 0 0-2.5-3.2z" transform="translate(-70.5 -69.6)"/><path d="M249 201h6v40h-6z"/><path d="M358.6 295.7a9.9 9.9 0 0 0-2.4-3.4 15.5 15.5 0 0 0-3.7-2.5l-4.7-2.1-3.4-1.4a15.3 15.3 0 0 1-2.7-1.5 6.2 6.2 0 0 1-1.8-1.9 5.3 5.3 0 0 1-.6-2.7 5 5 0 0 1 .6-2.5 5.1 5.1 0 0 1 1.6-1.8 7.7 7.7 0 0 1 2.4-1 12.3 12.3 0 0 1 3-.3 19.3 19.3 0 0 1 5.6.7 15.8 15.8 0 0 1 3.6 1.5l1.8-4.5a15.1 15.1 0 0 0-4.3-1.7 26 26 0 0 0-6.6-.8q-6.3 0-9.8 2.9a10 10 0 0 0-3.6 8.2 10.1 10.1 0 0 0 .8 4.3 9.5 9.5 0 0 0 2.3 3.1 14.5 14.5 0 0 0 3.4 2.2l4.1 1.7 3.6 1.4a14.6 14.6 0 0 1 3 1.6 7.5 7.5 0 0 1 2.1 2.2 6 6 0 0 1 .8 3.1q0 6-8.7 6a20.7 20.7 0 0 1-6.6-.9 25.1 25.1 0 0 1-4-1.7l-1.7 4.6 1.8.8 2.7.9 3.5.7a27.8 27.8 0 0 0 4.3.3q7 0 10.8-2.8a9.4 9.4 0 0 0 3.8-8.1 12 12 0 0 0-1-4.6z" transform="translate(-70.5 -69.6)"/></g></svg>