<svg id="Layer_3" data-name="Layer 3" xmlns="http://www.w3.org/2000/svg" viewBox="0 0 360 360"><defs><style>.cls-1{fill:#fff}.cls-2{fill:#da4545}</style></defs><title>roundicons</title><path class="cls-1" d="M0 0h360v360H0z"/><circle class="cls-2" cx="180" cy="180" r="148"/><path class="cls-1" d="M329.1 334q-1.8-4.8-7.6-12.3L286 276.5q21.3-8.4 32.3-25.3t11-39.9a77.3 77.3 0 0 0-5.5-29.5 63.6 63.6 0 0 0-15.8-23c-6.9-6.3-15.2-10.9-24.9-14.4s-20.7-4.8-32.9-4.8h-59.5c-6 0-11.4 1.6-15.1 5.3a19.5 19.5 0 0 0-6.1 14.4v182.1a20.2 20.2 0 0 0 6.1 14.7c3.8 3.8 8.9 5.7 14.9 5.7s11.2-1.9 15-5.7a20.1 20.1 0 0 0 6-14.7v-57.8h29.9l48.1 65.9a39.5 39.5 0 0 0 9.2 8.9 20.5 20.5 0 0 0 11.8 3.4q10 0 15.2-5.8t5.2-12.3a28 28 0 0 0-1.8-9.7zm-79.3-86.4h-38.3v-72h37.7c11.6 0 20.9 2.9 27.9 9.1s10.5 15.1 10.5 26.7-3.3 20.3-10 26.7-15.9 9.5-27.8 9.5z" transform="translate(-70.5 -70.5)"/></svg>