<svg id="Layer_3" data-name="Layer 3" xmlns="http://www.w3.org/2000/svg" viewBox="0 0 360 360"><defs><style>.cls-1{fill:#ff3131}.cls-2{fill:#fff}</style></defs><title>rrfoundation</title><path class="cls-1" d="M0 0h360v360H0z"/><path class="cls-2" d="M383.5 115s-184.7 38.6-176 111c4.5 37.5 26 78 124 175-39-67-73.1-116.5-83-166-8-40 135-120 135-120z" transform="translate(-70.5 -70.5)"/><path class="cls-2" d="M277.5 289s20.5 77 113 20c-66 3.5-70 2.5-113-20zM111.5 155s62 25 90 73c6-20 6-84-90-73z" transform="translate(-70.5 -70.5)"/><ellipse class="cls-2" cx="236" cy="128.5" rx="29.8" ry="18.8" transform="rotate(-68.1 148.658 145.403)"/></svg>