<svg id="Layer_3" data-name="Layer 3" xmlns="http://www.w3.org/2000/svg" viewBox="0 0 360 360"><defs><style>.cls-1{fill:#fff}.cls-2{fill:#e98db8}</style></defs><title>sasslang</title><path class="cls-1" d="M0 0h360v360H0z"/><circle class="cls-2" cx="180" cy="180" r="150"/><path class="cls-1" d="M340.4 264.5a51.3 51.3 0 0 0-22.6 5.3c-2.3-4.6-4.7-8.7-5.1-11.7s-1-5.6-.4-9.8 3-10.2 3-10.6-.5-2.6-5.6-2.6-9.3 1-9.8 2.3a49.6 49.6 0 0 0-2.1 7.4c-.9 4.6-10 20.8-15.2 29.3-1.7-3.3-3.1-6.2-3.4-8.6s-1-5.6-.4-9.8 3-10.2 3-10.6-.5-2.6-5.6-2.6-9.3 1-9.8 2.3-1 4.4-2.1 7.4-13.2 30.1-16.4 37.2c-1.6 3.6-3 6.5-4 8.4l-.2.4-1.4 2.6c-.7 1.2-1.4 2.4-1.8 2.4s-.8-3.3.1-7.8c1.8-9.4 6.2-24.1 6.1-24.6s.8-2.8-2.8-4.2-4.8.9-5.1.9a1.2 1.2 0 0 0-.5.8s4-16.5-7.5-16.5c-7.2 0-17.1 7.9-22 15l-16.7 9.2-8.1 4.4-.5-.6c-13.9-14.9-39.7-25.4-38.6-45.4.4-7.3 2.9-26.4 49.5-49.6 38.2-19 68.7-13.8 74-2.2 7.5 16.6-16.3 47.4-55.9 51.8-15.1 1.7-23-4.2-25-6.3s-2.4-2.4-3.2-2-.5 2.7 0 3.9c1.2 3.1 6 8.5 14.3 11.3s25 3.7 46.4-4.6c24-9.3 42.8-35.1 37.2-56.7s-42-29.2-76.5-16.9c-20.5 7.3-42.7 18.7-58.7 33.7-19 17.8-22 33.2-20.8 39.7 4.4 22.9 36.1 37.9 48.7 49l-1.7 1c-6.3 3.1-30.5 15.8-36.5 29.1-6.8 15.1 1.1 26 6.3 27.4 16.3 4.5 32.9-3.6 41.9-17s7.9-30.8 3.8-38.7l-.2-.3 5-2.9 9.2-5.2a61.6 61.6 0 0 0-3.3 16.6c-.7 8.6 2.8 19.7 7.4 24a8.2 8.2 0 0 0 6 2c5.4 0 7.8-4.5 10.5-9.7s6.2-14 6.2-14-3.7 20.3 6.3 20.3c3.6 0 7.3-4.7 9-7.1l.3-.5.6-.9c1.5-2.5 4.7-8.4 9.6-17.9 6.3-12.4 12.3-27.9 12.3-27.9a82.8 82.8 0 0 0 2.4 10.1c1.1 3.7 3.4 7.8 5.2 11.7l-2.4 3.2-3.8 4.9c-5 5.9-10.9 12.7-11.7 14.6s-.7 4 1.1 5.4 3.7 1.1 6.1 1a27.9 27.9 0 0 0 9.2-2.1 30.8 30.8 0 0 0 7.9-4.1 17.5 17.5 0 0 0 7.5-15.5 31.5 31.5 0 0 0-2.9-11l1.3-1.9a208.2 208.2 0 0 0 13.7-24.1 82.8 82.8 0 0 0 2.4 10.1 70.1 70.1 0 0 0 4.4 10c-7.2 5.9-11.7 12.7-13.3 17.2-2.9 8.3-.6 12 3.6 12.9 1.9.4 4.6-.5 6.7-1.4a30.9 30.9 0 0 0 8.4-4.3c4.9-3.6 9.6-8.6 9.3-15.4a28.9 28.9 0 0 0-2.1-9.1c6.1-2.6 14.1-4 24.2-2.8 21.7 2.5 25.9 16.1 25.1 21.7s-5.4 8.8-6.9 9.7-2 1.3-1.9 2 .9 1 2.2.8 11.4-4.6 11.8-15.1c.6-13.4-12.1-27.9-34.7-27.8zm-167.2 56.3c-7.2 7.8-17.2 10.8-21.5 8.3s-2.8-14.2 6-22.5a114.1 114.1 0 0 1 16.9-12.6l4.5-2.7.5-.3 1.1-.7c3.2 11.9.1 22.3-7.5 30.5zm52.3-35.6c-2.5 6.1-7.7 21.7-10.9 20.9s-4.4-12.6-.5-24.3c1.9-5.9 6.1-12.9 8.5-15.6 3.9-4.4 8.2-5.8 9.3-4s-4.7 19.2-6.3 23.1zm43.2 20.6c-1.1.6-2 .9-2.5.6s.4-.9.4-.9 5.4-5.8 7.5-8.5l4.2-5.4v.6c.3 7.1-6.5 11.8-9.5 13.7zm33.3-7.6c-.8-.6-.7-2.4 1.9-8.1a30.4 30.4 0 0 1 7.4-9.6 13.8 13.8 0 0 1 .7 4.2c.2 9-6.1 12.2-9.9 13.6z" transform="translate(-70.5 -70.5)"/></svg>