<svg id="Layer_3" data-name="Layer 3" xmlns="http://www.w3.org/2000/svg" viewBox="0 0 340 340"><defs><style>.cls-1{fill:#30373b}.cls-2{fill:#5f8d3e}.cls-3{fill:#94be46}.cls-4{fill:#fff}</style></defs><title>shopify</title><circle class="cls-1" cx="170" cy="170" r="170"/><path class="cls-2" d="M315.8 190.1a1.9 1.9 0 0 0-.7-1.2 2.2 2.2 0 0 0-1-.3l-15.9-1.1-11.7-11.6a4.3 4.3 0 0 0-1.5-.7l-8.7 174.3 61.1-13.2z" transform="translate(-80.5 -80.5)"/><path class="cls-3" d="M282.1 175.1l-6 1.8c-2.6-7.7-6.2-13.2-10.7-16.3a16.2 16.2 0 0 0-11-3 12.9 12.9 0 0 0-2.7-2.8c-4.4-3.5-10-4.1-16.8-1.7-20.2 7.3-28.8 33.4-32 46.5l-18 5.6s-4.2 1.1-5.2 2.4-1.2 4.7-1.2 4.7l-14.9 115.8 112.8 21.2L285 175a7.2 7.2 0 0 0-2.9.1zm-19.9-9.2c3.5 2.5 6.1 7.4 7.8 13l-9.5 2.9v-2a53.3 53.3 0 0 0-2.5-15.4 8.9 8.9 0 0 1 4.2 1.5zm-28 24.1c2.6-10.1 7.5-20.4 17-24.3 1.9 5.1 2.6 12.1 2.5 18.3l-19.5 6zm3.2-30.5c4.1-1.5 7.2-1.5 9.7.1-12.6 5.7-18.3 20.3-20.7 32.8l-15.5 4.8c3.5-12.6 11.3-32.2 26.6-37.7z" transform="translate(-80.5 -80.5)"/><path class="cls-4" d="M238.4 277.9a34.1 34.1 0 0 0-5.9-6.2 58.5 58.5 0 0 0-6.4-4.7 31.6 31.6 0 0 1-4.1-2.8 21.7 21.7 0 0 1-2.8-2.7 11.2 11.2 0 0 1-1.6-2.7 7.8 7.8 0 0 1-.5-2.8 8.4 8.4 0 0 1 .9-3.5 8.1 8.1 0 0 1 2.1-2.7 10.2 10.2 0 0 1 3.3-1.8 12.6 12.6 0 0 1 4.3-.8 36 36 0 0 1 5 .1 30.4 30.4 0 0 1 4.6.8 27.2 27.2 0 0 1 3.9 1.2l3.2 1.4 7.5-22.4a23.5 23.5 0 0 0-4.1-1.6 32.5 32.5 0 0 0-5.2-1 52.7 52.7 0 0 0-6.2-.3 49 49 0 0 0-6.9.5 43.4 43.4 0 0 0-13.9 4.2 34.1 34.1 0 0 0-10.1 7.5 32.5 32.5 0 0 0-6.5 10.3 37.6 37.6 0 0 0-2.7 12.6 23.2 23.2 0 0 0 .8 7.5 22.3 22.3 0 0 0 2.7 6.5 25.1 25.1 0 0 0 4.3 5.5 45.1 45.1 0 0 0 5.5 4.7 32.2 32.2 0 0 1 4.1 3.4 16.8 16.8 0 0 1 2.7 3.2 13.2 13.2 0 0 1 1.5 3.2 10.1 10.1 0 0 1-.5 6.6 7 7 0 0 1-1.9 2.5 7.7 7.7 0 0 1-3 1.5 11.3 11.3 0 0 1-3.9.1 28.2 28.2 0 0 1-5.1-1.4 36.4 36.4 0 0 1-4.7-2.3 35.7 35.7 0 0 1-4.1-2.6l-3.2-2.4-5.2 17.1a22.3 22.3 0 0 0 3.3 3.3 33.4 33.4 0 0 0 4.4 3 40.4 40.4 0 0 0 5.4 2.7 51.7 51.7 0 0 0 6.3 2h.5a38.9 38.9 0 0 0 13.4.7 26.9 26.9 0 0 0 11.8-4.4 25.5 25.5 0 0 0 8.6-9.9 37 37 0 0 0 3.7-15.3 28.2 28.2 0 0 0-1.4-9.9 23.9 23.9 0 0 0-4.1-7.9z" transform="translate(-80.5 -80.5)"/></svg>