<svg id="Layer_3" data-name="Layer 3" xmlns="http://www.w3.org/2000/svg" viewBox="0 0 360 360"><defs><style>.cls-1{fill:#fff}.cls-2{fill:url(#linear-gradient)}.cls-3{fill:url(#linear-gradient-2)}</style><linearGradient id="linear-gradient" x1="214.5" y1="87.49" x2="194.24" y2="313.21" gradientUnits="userSpaceOnUse"><stop offset=".18" stop-color="#ff8c26"/><stop offset=".42" stop-color="#fc7e1d"/><stop offset=".88" stop-color="#f45b07"/><stop offset="1" stop-color="#f25000"/></linearGradient><linearGradient id="linear-gradient-2" x1="315.39" y1="181.5" x2="279.7" y2="402.39" gradientUnits="userSpaceOnUse"><stop offset="0" stop-color="#398be0"/><stop offset=".08" stop-color="#3684d8"/><stop offset=".47" stop-color="#2c6bb7"/><stop offset=".78" stop-color="#255ba3"/><stop offset="1" stop-color="#23559c"/></linearGradient></defs><title>sitepoint</title><path class="cls-1" d="M0 0h360v360H0z"/><path id="Fill-10" class="cls-2" d="M144.1 233.8l19.8 19.2 62.4 58.3 26.9-26a8.9 8.9 0 0 0-.5-11.2l-24.6-21.6h.1l-26.5-25.7a8.9 8.9 0 0 1 .3-12.2l71.3-68.9-32.3-31.4-96.8 93.4a18.1 18.1 0 0 0-.1 26" transform="translate(-70.5 -70.5)"/><path id="Fill-11" class="cls-3" d="M356.8 267.1L337.1 248l-62.5-58.3-26.9 25.9a9.2 9.2 0 0 0 .5 11.3l24.6 21.6 26.4 25.7a8.9 8.9 0 0 1-.2 12.2l-71.4 68.9 32.4 31.4 77-74.3 19.8-19.2a18 18 0 0 0 0-26" transform="translate(-70.5 -70.5)"/></svg>