<svg id="Layer_3" data-name="Layer 3" xmlns="http://www.w3.org/2000/svg" viewBox="0 0 360 360"><defs><style>.cls-1{fill:#fff}.cls-2{fill:#f33}</style></defs><title>siteinspire</title><path class="cls-1" d="M0 0h360v360H0z"/><circle class="cls-2" cx="180" cy="180" r="153"/><path class="cls-1" d="M161.2 229.4a17 17 0 0 0-3.6-1.9l-4-1.6-3-1.2a14.2 14.2 0 0 1-2.6-1.4 6.7 6.7 0 0 1-1.8-1.8 4.6 4.6 0 0 1-.7-2.6 6.1 6.1 0 0 1 .5-2.3 5.4 5.4 0 0 1 1.4-2 7.6 7.6 0 0 1 2.4-1.4 9.9 9.9 0 0 1 3.5-.5 10.9 10.9 0 0 1 4.6.9 20.4 20.4 0 0 1 3.7 2.2l1.7-2.2a15.5 15.5 0 0 0-4.5-2.6 14.9 14.9 0 0 0-5.4-1 14.5 14.5 0 0 0-4.8.7 10.5 10.5 0 0 0-3.5 2 8.1 8.1 0 0 0-2.2 3 9 9 0 0 0-.7 3.6 7 7 0 0 0 1 3.8 9.3 9.3 0 0 0 2.6 2.7 17.3 17.3 0 0 0 3.6 1.9l3.9 1.5 3 1.2a15.5 15.5 0 0 1 2.7 1.5 7.1 7.1 0 0 1 2 2.1 5.2 5.2 0 0 1 .8 2.8 6.6 6.6 0 0 1-2.1 4.8q-2.1 2.1-6.2 2.1a13.9 13.9 0 0 1-6.3-1.3 24.2 24.2 0 0 1-4.8-3.1l-1.9 2.4a22.2 22.2 0 0 0 5.5 3.3 17.7 17.7 0 0 0 7.1 1.4 14.4 14.4 0 0 0 5-.8 11.4 11.4 0 0 0 3.7-2.1 8.6 8.6 0 0 0 2.3-3.1 9.3 9.3 0 0 0 .8-3.7 8.1 8.1 0 0 0-1-4.2 9.3 9.3 0 0 0-2.7-3.1zM175.7 196.7a2.9 2.9 0 0 0-2.1.8 2.7 2.7 0 0 0-.8 2.1 2.7 2.7 0 0 0 .8 2 3.1 3.1 0 0 0 4.1 0 2.7 2.7 0 0 0 .8-2 2.7 2.7 0 0 0-.8-2.1 2.9 2.9 0 0 0-2-.8zM190.5 235.8a20.5 20.5 0 0 0 .8 4.2 8.5 8.5 0 0 0 1.6 3.3 7 7 0 0 0 2.8 2.1 10.3 10.3 0 0 0 4.2.8 11.7 11.7 0 0 0 2.6-.4l3-.9-.9-2.6-2.1.8-2.2.3a6.7 6.7 0 0 1-2.9-.5 4.3 4.3 0 0 1-1.8-1.5 6.2 6.2 0 0 1-.9-2.3 16 16 0 0 1-.3-3v-22.5h10v-3h-10v-9h-2.7l-.6 9.6h-5.7v2.5h5v22.2zM231.6 245.1a42.7 42.7 0 0 0 4.6-2.3l-1.3-2.4a16.6 16.6 0 0 1-4.2 2.3 14.7 14.7 0 0 1-5.1.8 12.4 12.4 0 0 1-5.3-1.1 12 12 0 0 1-4.1-3.1 14 14 0 0 1-2.6-4.7 20.6 20.6 0 0 1-1-6h24.9a6.1 6.1 0 0 0 0-1.4v-1.3c0-5.1-1.1-9-3.5-11.8a12 12 0 0 0-9.7-4.2 13 13 0 0 0-5.6 1.3 15.1 15.1 0 0 0-4.8 3.6 17.5 17.5 0 0 0-3.4 5.7 21.8 21.8 0 0 0-1.3 7.6 21.4 21.4 0 0 0 1.3 7.6 17.2 17.2 0 0 0 3.4 5.7 14.4 14.4 0 0 0 5.1 3.6 17.6 17.6 0 0 0 12.6.1zm-17.7-24.9a13.4 13.4 0 0 1 2.7-4.1 11.5 11.5 0 0 1 3.6-2.6 9.9 9.9 0 0 1 4.2-.9c3.1 0 5.6.9 7.4 3.1s2.7 5.8 2.7 9.8h-22a30.3 30.3 0 0 1 1.4-5.3z" transform="translate(-70.5 -70.5)"/><path class="cls-1" d="M103 140.1h3v35h-3zM103 184.1h3v34h-3z"/><path class="cls-1" d="M205.1 252.8a12 12 0 0 0-6.4 2.1c-1.9 1.2-3.7 3.7-5.5 4.7h-.2l-.3-5h-2.2v34h2v-26.4a31 31 0 0 1 6-4.9 10.7 10.7 0 0 1 5.8-1.6c2.8 0 4.5.9 5.7 2.6s1.5 4.5 1.5 8.2v22.1h4v-22.5c0-4.5-.8-7.8-2.5-10s-4.3-3.3-7.9-3.3zM244.7 272.3a17 17 0 0 0-3.6-1.9l-4-1.6-3-1.2a14.1 14.1 0 0 1-2.6-1.4 6.7 6.7 0 0 1-1.8-1.8 4.6 4.6 0 0 1-.7-2.6 6.1 6.1 0 0 1 .5-2.3 5.4 5.4 0 0 1 1.4-2 7.6 7.6 0 0 1 2.4-1.4 9.9 9.9 0 0 1 3.5-.5 10.9 10.9 0 0 1 4.6.9 20.4 20.4 0 0 1 3.7 2.2l1.7-2.2a15.5 15.5 0 0 0-4.5-2.6 14.9 14.9 0 0 0-5.4-1 14.5 14.5 0 0 0-4.8.7 10.5 10.5 0 0 0-3.5 2 8.1 8.1 0 0 0-2.2 3 9 9 0 0 0-.7 3.6 7 7 0 0 0 1 3.8 9.3 9.3 0 0 0 2.6 2.7 17.3 17.3 0 0 0 3.6 1.9l3.9 1.5 3 1.2a15.4 15.4 0 0 1 2.7 1.5 7.1 7.1 0 0 1 2 2.1 5.2 5.2 0 0 1 .8 2.8 6.6 6.6 0 0 1-2.1 4.8q-2.1 2.1-6.2 2.1a13.9 13.9 0 0 1-6.3-1.3 24.1 24.1 0 0 1-4.8-3.1l-1.9 2.4a22.2 22.2 0 0 0 5.5 3.3 17.7 17.7 0 0 0 7.1 1.4 14.4 14.4 0 0 0 5-.8 11.4 11.4 0 0 0 3.7-2.1 8.6 8.6 0 0 0 2.3-3.1 9.3 9.3 0 0 0 .8-3.7 8.1 8.1 0 0 0-1-4.2 9.3 9.3 0 0 0-2.7-3.1zM272.4 252.8c-2.2 0-4.2 1.3-6.2 2.4a17.9 17.9 0 0 0-5.5 4.4h-.2l-.3-5h-2.7v50h3v-19.8c1 1.3 3.7 2.4 5.4 3.1a12.8 12.8 0 0 0 5.1 1.1 13.9 13.9 0 0 0 5.8-1.3 14.5 14.5 0 0 0 4.9-3.7 17.8 17.8 0 0 0 3.4-5.9 23.4 23.4 0 0 0 1.2-7.8q0-8.1-3.5-12.9t-10.4-4.6zm9.5 24.1a16 16 0 0 1-2.5 5 11.2 11.2 0 0 1-3.8 3.2 10.4 10.4 0 0 1-4.8 1.2 13.2 13.2 0 0 1-4.7-1c-1.7-.7-4.7-1.8-5.7-3.5v-20.5c1-1.8 4.1-3.2 6-4.2a11.5 11.5 0 0 1 5.4-1.5 10.6 10.6 0 0 1 5.1 1.1 9.1 9.1 0 0 1 3.4 3.1 14.2 14.2 0 0 1 1.9 4.7 27.1 27.1 0 0 1 .6 5.9 21.8 21.8 0 0 1-.8 6.5zM298.3 239.6a2.9 2.9 0 0 0-2.1.8 2.7 2.7 0 0 0-.8 2.1 2.7 2.7 0 0 0 .8 2 3.1 3.1 0 0 0 4.1 0 2.7 2.7 0 0 0 .8-2 2.7 2.7 0 0 0-.8-2.1 2.9 2.9 0 0 0-2-.8z" transform="translate(-70.5 -70.5)"/><path class="cls-1" d="M226 184.1h3v34h-3z"/><path class="cls-1" d="M326.1 252.8a8.4 8.4 0 0 0-5.6 1.8c-1.7 1.3-3.1 5-4.2 5h-.2l-.3-5h-3.3v34h4v-23.9a13.7 13.7 0 0 1 4.5-6.9 7.9 7.9 0 0 1 4.8-2h1.6l1.5.5.7-2.9-1.7-.6h-1.8zM357 257a12 12 0 0 0-9.7-4.2 13 13 0 0 0-5.6 1.3 15.1 15.1 0 0 0-4.8 3.6 17.5 17.5 0 0 0-3.4 5.7 21.7 21.7 0 0 0-1.3 7.6 21.4 21.4 0 0 0 1.3 7.6 17.2 17.2 0 0 0 3.4 5.7 14.4 14.4 0 0 0 5.1 3.6 17.6 17.6 0 0 0 12.5.1 42.7 42.7 0 0 0 4.6-2.3l-1.3-2.4a16.6 16.6 0 0 1-4.2 2.3 14.7 14.7 0 0 1-5.1.8 12.4 12.4 0 0 1-5.3-1.1 12 12 0 0 1-4.1-3.1 13.7 13.7 0 0 1-2.6-4.7 15.6 15.6 0 0 1-1-5.9h24.9a6.9 6.9 0 0 0 0-1.5v-1.3c.1-5.1-1-9-3.4-11.8zm-21.5 12.6a15.3 15.3 0 0 1 1.3-5.9 14.9 14.9 0 0 1 2.7-4.4 12 12 0 0 1 3.6-2.7 10 10 0 0 1 4.2-1 9.3 9.3 0 0 1 7.4 3.7c1.8 2.2 2.7 5.3 2.7 10.3h-22z" transform="translate(-70.5 -70.5)"/></svg>