<svg id="Layer_3" data-name="Layer 3" xmlns="http://www.w3.org/2000/svg" viewBox="0 0 360 360"><defs><style>.cls-1{fill:#fff}.cls-2{fill:#3498db}</style></defs><title>slick</title><path class="cls-1" d="M0 0h360v360H0z"/><path class="cls-2" d="M236.7 237.3q3.2 3.1 9.8 3.1a16.9 16.9 0 0 0 6.6-1.2 13.6 13.6 0 0 0 4.6-3.1 11.6 11.6 0 0 0 2.6-4.3 15.3 15.3 0 0 0 .8-5 10.7 10.7 0 0 0-1-4.8 8.8 8.8 0 0 0-2.8-3.3 12.2 12.2 0 0 0-4.1-1.9 19.9 19.9 0 0 0-5-.6 16.7 16.7 0 0 0-7.1 1.3 13.7 13.7 0 0 0-4.5 3.3 12.7 12.7 0 0 0-3.2 8.1 11.2 11.2 0 0 0 3.3 8.4z" transform="translate(-70.5 -70.5)"/><path class="cls-2" d="M393.8 288.3l-2.9 3.3-3.4 4.1-3.7 4.2q-1.9 2-3.8 3.7a22.9 22.9 0 0 1-3.7 2.7 6.7 6.7 0 0 1-3.3 1 6.1 6.1 0 0 1-4.1-1.2 5 5 0 0 1-1.3-3.9 14.7 14.7 0 0 1 1.5-6.4 43.7 43.7 0 0 1 3.8-6.4q2.3-3.2 4.9-6.4t4.9-6.4a43.2 43.2 0 0 0 3.8-6.3 14.3 14.3 0 0 0 1.5-6.2 18.6 18.6 0 0 0-.8-5.8 13.9 13.9 0 0 0-2.3-4.4 10.2 10.2 0 0 0-3.4-2.8 8.8 8.8 0 0 0-4-1 23.1 23.1 0 0 0-7.6 1.2 22.7 22.7 0 0 0-5.8 2.8 27.1 27.1 0 0 0-4.1 4l-5.8 6.7-6.4 7.9-6 7.6-1.8-1.1 9-13.5 2.8-5.1q2.1-3.9 4.8-9.6t5.7-12.7q3-7 5.4-14.5a143.8 143.8 0 0 0 4.1-14.9 64.8 64.8 0 0 0 1.6-13.9 35.2 35.2 0 0 0-.6-6.7 14.7 14.7 0 0 0-2.1-5.3 10.1 10.1 0 0 0-4-3.5 14.2 14.2 0 0 0-6.4-1.2 20.3 20.3 0 0 0-9.1 2 28.2 28.2 0 0 0-7.6 5.6 42.7 42.7 0 0 0-6.3 8.2 84.2 84.2 0 0 0-5 9.9 107.3 107.3 0 0 0-3.9 10.7q-1.7 5.5-3 10.6t-2.1 9.5q-.8 4.4-1.4 7.5-1.4 8.8-2.5 18.1t-1.6 17.8c-.3 3.8-.5 7.4-.7 10.8l-3.6 3.8a81.2 81.2 0 0 1-8.4 7.5 56.7 56.7 0 0 1-8.8 5.6 17.9 17.9 0 0 1-8 2.2 10.4 10.4 0 0 1-6.1-1.6 12 12 0 0 1-3.7-4.1 16.8 16.8 0 0 1-1.9-5.4 34.4 34.4 0 0 1-.5-5.7q0-1.8.2-4.5a46.8 46.8 0 0 1 .7-5.6 52 52 0 0 1 1.4-5.9 20.9 20.9 0 0 1 2.5-5.4 13.3 13.3 0 0 1 3.7-3.9 9.3 9.3 0 0 1 5.3-1.5 1.6 1.6 0 0 1 1.7 1.2 10.3 10.3 0 0 1 .4 3q0 1.2-.1 2.7t-.1 2.9a10.4 10.4 0 0 0 1.1 5.2q1.1 1.9 4.7 1.9a7.7 7.7 0 0 0 4.2-1.2 10.9 10.9 0 0 0 3.2-3.2 15.5 15.5 0 0 0 2-4.5 19.2 19.2 0 0 0 .7-5.1 16.4 16.4 0 0 0-1.5-6.9 16.9 16.9 0 0 0-4.1-5.6 18.9 18.9 0 0 0-6.3-3.7 23.4 23.4 0 0 0-8-1.3 23 23 0 0 0-9.3 1.9 28 28 0 0 0-7.7 5 35 35 0 0 0-6.1 7.3 51.6 51.6 0 0 0-4.4 8.7 53.3 53.3 0 0 0-2.7 9.3 49 49 0 0 0-.9 9.2 39.1 39.1 0 0 0 .8 7.8l-3 2.4a53.8 53.8 0 0 1-6.7 4.6 12.5 12.5 0 0 1-6.1 1.9 3 3 0 0 1-3.1-2 15.7 15.7 0 0 1-.8-5.4 46.1 46.1 0 0 1 .8-7.8q.8-4.4 1.9-8.9t2.4-9.2l2.4-8.6q1.1-4 1.9-7.1a22.3 22.3 0 0 0 .8-4.8 4.3 4.3 0 0 0-1.1-3.1q-1.1-1.2-4.3-1.2a20.8 20.8 0 0 0-3.9.4 20 20 0 0 0-4.2 1.3 13.6 13.6 0 0 0-3.6 2.3 6.8 6.8 0 0 0-2.1 3.4q-1.4 5.7-3.1 12.4t-3.4 13.5q-1.2 5.2-2.1 10.1l-5 3.5-4.2 2.7-4.3 2.3a30.4 30.4 0 0 1-3.9 1.6 10.8 10.8 0 0 1-3.3.6 1.8 1.8 0 0 1-1.3-.9 10 10 0 0 1-1.3-2.3 20.3 20.3 0 0 1-1.1-3.3 17.4 17.4 0 0 1-.5-3.8v-1.1a14.5 14.5 0 0 1 .7-3.1c.3-1.1.6-2.1.8-3s.5-1.8.8-2.6a16.2 16.2 0 0 1 .8-2q3.5-6.8 7.5-14t7.9-14.5q3.9-7.4 7.6-14.9t6.4-14.9a112.2 112.2 0 0 0 4.4-14.8 67.2 67.2 0 0 0 1.6-14.5 39.4 39.4 0 0 0-.5-6.2 19 19 0 0 0-1.7-5.5 10.2 10.2 0 0 0-3.3-3.9 9.2 9.2 0 0 0-5.4-1.5 17.6 17.6 0 0 0-9.4 2.9 38 38 0 0 0-8.9 7.9 79.1 79.1 0 0 0-8.1 11.8 137.3 137.3 0 0 0-7.2 14.6 171.6 171.6 0 0 0-5.9 16.3q-2.6 8.5-4.5 16.9t-2.9 16.3a119.1 119.1 0 0 0-1 14.6 92.9 92.9 0 0 0 1.3 15.4l-5.8 2.9-6.5 3.1a45.1 45.1 0 0 0-5.9 3.3q0-4.8-.3-8.4a58.7 58.7 0 0 0-.9-6.3q-.6-2.7-1.2-4.8l-1.2-3.9a32 32 0 0 1-.9-3.8 24.7 24.7 0 0 1-.3-4.3 7.8 7.8 0 0 1 1.8-2.5l3.3-3.7a42.2 42.2 0 0 0 3.2-4.2 7.5 7.5 0 0 0 1.4-4 18.4 18.4 0 0 0-.2-2.2 4.7 4.7 0 0 0-1.1-2.4 6.9 6.9 0 0 0-2.9-1.9 15.5 15.5 0 0 0-5.6-.8 11.6 11.6 0 0 0-4 .6 14.1 14.1 0 0 0-3.3 1.7 16.8 16.8 0 0 0-2.7 2.3 26.5 26.5 0 0 0-2.2 2.6q-4.8 6.1-7.9 10.1l-5.1 6.8-3.7 4.8a49.9 49.9 0 0 1-3.4 4q-1.9 2-4.5 4.4l-6.9 6.1-1.8 1.4a22.8 22.8 0 0 0-2.4 2.1 13.7 13.7 0 0 0-2.1 2.8 6.6 6.6 0 0 0-.9 3.4 8.5 8.5 0 0 0 .5 3.1 3.3 3.3 0 0 0 1.2 1.6 3.8 3.8 0 0 0 1.8.6h4.3l2.1-.3a15.5 15.5 0 0 0 2.2 7 14.4 14.4 0 0 0 4.7 4.7 21.6 21.6 0 0 0 6.8 2.6 39.5 39.5 0 0 0 8.3.8 66.4 66.4 0 0 0 13.1-1.4A98.8 98.8 0 0 0 161 318a106.6 106.6 0 0 0 12.9-5.6c2.3-1.2 4.4-2.4 6.4-3.7l.2.6a31.4 31.4 0 0 0 6.1 9.6 10.5 10.5 0 0 0 7.6 3.6 23.4 23.4 0 0 0 5.5-.7 47.8 47.8 0 0 0 6.1-1.9q3.1-1.2 6.2-2.8l5.9-3.1 1.2-.7v.3a11.8 11.8 0 0 0 2.4 4.8 11 11 0 0 0 4.4 3.1 17.5 17.5 0 0 0 6.6 1.1 29.9 29.9 0 0 0 9.3-1.6 66.7 66.7 0 0 0 9.6-4 72.2 72.2 0 0 0 8.7-5.2l1.8-1.3a28.3 28.3 0 0 0 1.9 2.6 26.1 26.1 0 0 0 8.8 6.9 27.5 27.5 0 0 0 12.2 2.6 25.8 25.8 0 0 0 7.9-1.2 41.1 41.1 0 0 0 7.5-3.3 53.5 53.5 0 0 0 6.9-4.6 70.9 70.9 0 0 0 5.9-5.3c1.1-1 2-2.1 3-3.2v.2c0 2.4.3 4.6.5 6.7a18.5 18.5 0 0 0 1.4 5.5 8.8 8.8 0 0 0 2.9 3.8 8.5 8.5 0 0 0 5.2 1.4 7.9 7.9 0 0 0 4.3-1.2 11.8 11.8 0 0 0 3.6-4.2l22.3-39.1a21.8 21.8 0 0 1 4.5-5.8 6 6 0 0 1 3.3-1.7 1.8 1.8 0 0 1 1.6 1 5.1 5.1 0 0 1 .6 2.6 3 3 0 0 1-.5 1.6 9.4 9.4 0 0 1-1.3 1.6l-2 2-2.5 2.5a65.1 65.1 0 0 0-5.5 8.2 51.3 51.3 0 0 0-3.3 7 31.4 31.4 0 0 0-1.6 5.7 27.1 27.1 0 0 0-.4 4.3 22.5 22.5 0 0 0 .7 5.7 11.8 11.8 0 0 0 2.7 5 13.7 13.7 0 0 0 5.4 3.5 25.1 25.1 0 0 0 8.9 1.3 33.3 33.3 0 0 0 8.7-1.2 44 44 0 0 0 8.7-3.4 44.9 44.9 0 0 0 7.8-5.1 30.3 30.3 0 0 0 5.9-6.3zm-252.5 15a10.2 10.2 0 0 1-1.6 3.8 8.2 8.2 0 0 1-3.1 2.6 10.7 10.7 0 0 1-4.9 1 8.2 8.2 0 0 1-4.3-1.1 19.1 19.1 0 0 1-3.3-2.5l-2.5-2.5a3 3 0 0 0-2-1.1l19.5-19.4.9 2.9q.5 1.7.9 3.6t.7 4a33.7 33.7 0 0 1 .3 4.2 21.8 21.8 0 0 1-.6 4.5zm54.5-56a141 141 0 0 1 2.9-14.9q1.8-7.3 4.1-13.7a89.7 89.7 0 0 1 4.8-11.3 38.2 38.2 0 0 1 5.1-7.7q2.5-2.8 4.7-2.8.6 0 .7 1.6t.1 3.7a74.8 74.8 0 0 1-3.2 14.9q-2.5 8-5.9 16t-7.1 15.5q-3.8 7.6-7.2 13.6a109.3 109.3 0 0 1 1-14.9zM334.2 271q.7-9 1.8-18.3.5-3.9 1.1-8.4t1.5-9q.8-4.6 1.9-9.2t2.2-8.9l3.5-8.9a55.5 55.5 0 0 1 3.1-6.8 15.8 15.8 0 0 1 3.3-4.3 6.1 6.1 0 0 1 4.2-1.5q1.6 0 1.6 2.4a18.5 18.5 0 0 1-.6 4.2q-.6 2.5-1.6 5.4t-2.1 6l-2.3 6-2.1 5.4q-1 2.5-1.5 4.2l-2.8 8.7-3.6 10.8-3.9 11.6z" transform="translate(-70.5 -70.5)"/></svg>