<svg id="Layer_3" data-name="Layer 3" xmlns="http://www.w3.org/2000/svg" viewBox="0 0 377.9 417.1"><defs><style>.cls-1{fill:none}.cls-2{fill:#fff}.cls-3{fill:#e43a2c}.cls-4{fill:#e85c32}.cls-5{clip-path:url(#clip-path)}.cls-6,.cls-7{opacity:.65;fill:url(#radial-gradient);isolation:isolate}.cls-7{opacity:.3;fill:url(#radial-gradient-2)}</style><clipPath id="clip-path" transform="translate(-52.6 -13.4)"><path class="cls-1" d="M105.2 183.9a28.7 28.7 0 0 1 21.5-34.5l190.9-44a28.8 28.8 0 0 1 34.5 21.6l44.1 190.9a28.8 28.8 0 0 1-21.6 34.5l-190.9 44a28.8 28.8 0 0 1-34.5-21.6z"/></clipPath><radialGradient id="radial-gradient" cx="195.69" cy="262.26" r="153.94" gradientTransform="matrix(1.17 0 0 -1.17 3.72 500.4)" gradientUnits="userSpaceOnUse"><stop offset="0" stop-color="#fff"/><stop offset=".11" stop-color="#fefaf9" stop-opacity=".89"/><stop offset=".24" stop-color="#fdece9" stop-opacity=".75"/><stop offset=".4" stop-color="#f9d5ce" stop-opacity=".6"/><stop offset=".57" stop-color="#f5b6a8" stop-opacity=".43"/><stop offset=".75" stop-color="#f08d77" stop-opacity=".25"/><stop offset=".94" stop-color="#e95c3d" stop-opacity=".06"/><stop offset="1" stop-color="#e74b29" stop-opacity="0"/></radialGradient><radialGradient id="radial-gradient-2" cx="195.69" cy="262.26" r="153.94" gradientTransform="matrix(1.17 0 0 -1.17 3.72 500.4)" gradientUnits="userSpaceOnUse"><stop offset="0" stop-color="#f9bc3a"/><stop offset=".16" stop-color="#f8b639" stop-opacity=".84"/><stop offset=".36" stop-color="#f5a637" stop-opacity=".64"/><stop offset=".6" stop-color="#f18b33" stop-opacity=".4"/><stop offset=".85" stop-color="#eb652d" stop-opacity=".15"/><stop offset="1" stop-color="#e74b29" stop-opacity="0"/></radialGradient></defs><title>smashingmagazine</title><path class="cls-2" d="M17.9 57.1h360v360h-360z"/><g id="Kasten"><path class="cls-3" d="M398.8 318.7l-45-194.5a29.4 29.4 0 0 0-35.2-22l-32.7 7.6q5.7.9 11.2 2.1l18.3-4.2a29.4 29.4 0 0 1 35.2 22l16.6 71.8c-6.7 13.6-20.2 36.6-40.5 50.4a81.2 81.2 0 0 1 12.5 12.5q16.2 20.6 16.2 49.9t-15.6 48.2l37.1-8.6a29.3 29.3 0 0 0 22-35.2h-.1zm-239.1 55.9l23.3-52q29.3 23.3 66.1 23.2c25.5 0 38.1-9.1 38.2-27.2 0-10.7-3.9-19.4-11.5-26.2s-22.6-14.8-44.8-24.1a182.8 182.8 0 0 1-34.1-18.2c-26.5 7.3-49.1 25.4-63.8 43l-24.8-107.5a29.3 29.3 0 0 1 22-35.2l42.7-9.9a63.6 63.6 0 0 1 5.5-6L124.2 147a29.4 29.4 0 0 0-22 35.2l45 194.5a29.4 29.4 0 0 0 35.2 22l22.3-5.2-1.7-.4q-16.7-4.4-43.1-18.6z" transform="translate(-52.6 -13.4)"/><path class="cls-4" d="M158.7 184.4q0-26.1 14.3-43.8l-42.7 9.9c-20 4.5-25.8 18.4-22 35.2l24.9 107.7c14.7-17.5 37.3-35.6 63.8-43-25.4-17.7-38.3-39.7-38.3-65.9zm161.8-6.5q-21.4-18.3-59.6-18.3-34.2 0-34.2 27.2c0 7.1 3.8 13.6 11.3 19.3s23.5 13.5 48 23.2c16.8 6.6 30.3 14.1 40.6 22.6 20.3-13.8 33.8-36.8 40.5-50.4l-16.6-71.9c-3.4-14.8-15.3-26.6-35.2-22l-18.3 4.3a179.1 179.1 0 0 1 42.3 15.2z" transform="translate(-52.6 -13.4)"/></g><g id="Blendeneffekt"><g class="cls-5"><path class="cls-6" d="M412.9 193.5a180.1 180.1 0 1 1-360.3 0c0-99.5 80.6-180.1 180.1-180.1a180.1 180.1 0 0 1 180.1 180.1z" transform="translate(-52.6 -13.4)"/></g><g class="cls-5"><path class="cls-7" d="M412.9 193.5a180.1 180.1 0 1 1-360.3 0c0-99.5 80.6-180.1 180.1-180.1a180.1 180.1 0 0 1 180.1 180.1z" transform="translate(-52.6 -13.4)"/></g></g><g id="ausgespartes_S" data-name="ausgespartes S"><path class="cls-2" d="M173 140.5l124-28.6c-3.7-.9-7.4-1.5-11.2-2.1l-107.4 24.7a65 65 0 0 0-5.5 6zm166 123.8a80.4 80.4 0 0 0-12.5-12.5c-17.4 11.9-39.9 17-67.4 3.8a86.9 86.9 0 0 0-62.2-5.4 180.2 180.2 0 0 0 34.1 18.3q33.3 13.9 44.8 24.1c7.6 6.8 11.5 15.5 11.5 26.1-.1 18.1-12.7 27.1-38.2 27.1s-46.6-7.8-66.1-23.3l-23.3 52.1c17.6 9.4 32 15.6 43.1 18.6l1.7.4 135.1-31.2q15.5-19.7 15.6-48.2T339 264.3z" transform="translate(-52.6 -13.4)"/><path class="cls-2" d="M158.7 184.4q0 39.4 38.3 65.9a86.9 86.9 0 0 1 62.2 5.4c27.5 13.2 49.9 8 67.4-3.8-10.4-8.5-23.9-16-40.6-22.6q-36.8-14.6-48-23.2c-7.5-5.8-11.3-12.2-11.3-19.3q0-27.2 34.2-27.2 38.2 0 59.6 18.3l18.8-50.7a179.1 179.1 0 0 0-42.3-15.3l-124.1 28.7q-14.3 17.7-14.3 43.8z" transform="translate(-52.6 -13.4)"/></g></svg>