<svg id="Layer_3" data-name="Layer 3" xmlns="http://www.w3.org/2000/svg" viewBox="0 0 360 360"><defs><style>.cls-1{fill:#fff}</style></defs><title>splitshire</title><path d="M0-.1h360v360H0z"/><path class="cls-1" d="M330.9 262.5q-7.7-10.9-22.6-18.8T269.8 230q-19.9-4.8-31.2-8.2t-18-8.4a15.8 15.8 0 0 1-6.7-13.1q0-8.7 9.1-14.6t22.8-5.8q13.4 0 21.2 4.5a45.8 45.8 0 0 1 13.5 11.9 87.4 87.4 0 0 0 12.5 13.4 20.3 20.3 0 0 0 13.3 4.5q10.8 0 16.6-5.6a18.9 18.9 0 0 0 5.8-14.3q0-8-5.5-16.3t-16-15.2q-10.5-6.9-26.2-10.9a140.6 140.6 0 0 0-35.3-4.1q-25 0-42.8 8.1t-26.8 21.6a50.7 50.7 0 0 0-9.1 28.8q0 17.1 9.8 28.8t26.3 18.8q16.4 7.1 42.6 13.6 23.2 5.6 33.3 11.7t10.1 19.5q0 8.7-9.7 15.5t-25 6.8q-18.7 0-29.6-6.7t-18.6-20.2a42.7 42.7 0 0 0-8.2-10.9q-4.3-3.9-12.2-3.9a20.4 20.4 0 0 0-15 5.9 19.5 19.5 0 0 0-5.9 14.3q0 12.6 9.3 25.1t28.8 20.5q19.5 8.3 46.8 8.3t48.5-7.7q19.9-7.7 30.2-22.6t10.2-35.9a41.8 41.8 0 0 0-7.8-24.7z" transform="translate(-71.5 -70.6)"/><path class="cls-1" d="M150.6 360h-42.5L0 251.8v-42.4L150.6 360z"/></svg>