<svg id="Layer_3" data-name="Layer 3" xmlns="http://www.w3.org/2000/svg" viewBox="0 0 360 360"><defs><style>.cls-1{fill:#121212}.cls-2{fill:#fff}</style></defs><title>stocksy</title><path class="cls-1" d="M0 0h360v360H0z"/><path class="cls-2" d="M311.9 280.1h-1.8l-1.7-.2-1.7-.4-1.7-.5-1.6-.6-1.5-.9a15.5 15.5 0 0 1-2.8-2.2l-1.2-1.4a14.8 14.8 0 0 1-1.1-1.4 13.8 13.8 0 0 1-.8-1.6 13.5 13.5 0 0 1-.7-1.7 9.5 9.5 0 0 1-.4-3.6 6 6 0 0 1 .3-1.4c.3-1 .7-1.3 1.1-.4l1 1.5 1.1 1.4a12.6 12.6 0 0 0 1.2 1.4l1.4 1.1 1.5 1 1.7.7 1.7.5 1.8.4h1.4l1.8-.2 1.8-.3 1.7-.7a8.8 8.8 0 0 0 1.4-1.1 8.2 8.2 0 0 0 1.3-1.3 6.9 6.9 0 0 0 .9-1.5 9.8 9.8 0 0 0 .5-1.6 7.6 7.6 0 0 0 .1-1.7 7.1 7.1 0 0 0-.2-1.7 8.4 8.4 0 0 0-.5-1.6l-.8-1.5-1.1-1.3-1-1.3-1.2-1.2-1.1-1.2-1-1.2-1-1.2-.9-1.3a11.7 11.7 0 0 1-.7-1.4 10.2 10.2 0 0 1-.5-1.5 10 10 0 0 1-.3-1.8 9.7 9.7 0 0 1 .1-1.9 9.9 9.9 0 0 1 .4-1.8 10.9 10.9 0 0 1 .7-1.7 11.5 11.5 0 0 1 1.1-1.5 13.3 13.3 0 0 1 1.1-1.4l1.3-1.1 1.4-.9 1.5-.8 1.6-.6 1.6-.5 1.7-.3h3.8l1.6.3 1.6.3 1.6.4 1.5.7 1.3 1a8.7 8.7 0 0 1 1.2 1 6.8 6.8 0 0 1 .9 1.5 6.2 6.2 0 0 1 .5 1.7 5.9 5.9 0 0 1-.1 1.7 3.9 3.9 0 0 1-.4 1.4 2.7 2.7 0 0 1-1.1 1 3.2 3.2 0 0 1-1.4.3 5 5 0 0 1-2-.4 3.7 3.7 0 0 1-1.2-.8l-.9-1.2a6.3 6.3 0 0 0-1.3-1.6 5.3 5.3 0 0 0-1.8-.9 6.6 6.6 0 0 0-2-.3l-1.4.2-1.3.6a3.5 3.5 0 0 0-1 1.1 3.2 3.2 0 0 0-.4 1.8 4.3 4.3 0 0 0 .5 1.8 6.4 6.4 0 0 0 .9 1.2l.9 1.1 1 1.1 1.2 1.2 1.2 1.2 1.1 1.3 1.1 1.3 1 1.4.9 1.4.8 1.5c.2.5.5 1 .7 1.5a16.9 16.9 0 0 1 .5 1.6 15.4 15.4 0 0 1 .3 1.7 15.1 15.1 0 0 1 .1 1.7 14.7 14.7 0 0 1 .1 1.7 15.7 15.7 0 0 1-.2 1.7 16.7 16.7 0 0 1-.5 1.6l-.6 1.6a13.8 13.8 0 0 1-.7 1.5 15.2 15.2 0 0 1-3.2 3.8l-1.3 1.1-1.5.8-1.5.8-1.5.7-1.5.6-1.6.3-1.6.4h-3.3m-142.6 4a9.1 9.1 0 0 1-1.9-.1l-1.8-.6-1.6-1a8 8 0 0 1-1.3-1.3 9 9 0 0 1-1-1.5 11.2 11.2 0 0 1-.6-1.7 13.6 13.6 0 0 1-.4-1.7 17.2 17.2 0 0 1-.2-1.8v-1.8c0-.6-.1-1.2 0-1.8s.2-1.2.2-1.8.1-1.2.2-1.8l.4-1.8.4-1.6.4-1.6.4-1.6.5-1.6c.1-.5.2-1.1.4-1.6l.4-1.6.5-1.6.4-1.6.6-1.6.5-1.6.5-1.6.6-1.6c.2-.5.3-1.1.5-1.6l.7-2.3c.3-1.2.5-1.1-.6-1h-1.2l-1.7-.3-1.7-.5-1.5-.9-1.4-1.1a13.7 13.7 0 0 1-1.6-1.8c-.6-.8-.5-.8 0-1.3a10.2 10.2 0 0 1 2.2-1.5l1.6-.8 1.6-.7 1.6-.7 1.7-.7 1.7-.7 1.7-.5 2.8-.9a1.9 1.9 0 0 0 1.2-1.1l1-2.4.8-1.5.8-1.5.8-1.6.9-1.5.8-1.5.8-1.5 1-1.4 1-1.4 1.1-1.4 1.3-1.1 1.3-1.1 1.4-1 1.5-.8 1.6-.6 1.6-.6 1.7-.4 1.7-.3h1.5a10.6 10.6 0 0 1 2.4 0c.9.2 1.1.4.6 1.1l-1.2 1.9-1 1.5-.9 1.5-.9 1.5-.9 1.5-.9 1.5-.9 1.5-.9 1.5-.8 1.5-1.3 2.4c-.6 1.1-.1 1 .5.9l2.6-.7 1.6-.4 1.7-.2 1.7-.3 1.7-.3 1.7-.3 1.7-.2 1.7-.3 1.7-.2 1.7-.2 1.7-.2 1.7-.3 1.7-.2h3.4l1.7-.2h13.5l1.7.2h1.7l1.7.2h1.7l1.7.2h1.7l1.7.3 1.7.3 1.1.3 1.6.4 1.6.4 1.6.5 1.6.6 1.5.7 3 1.6 1.4.9 1.4 1 1.2 1.2 1.1 1.3a7.7 7.7 0 0 1 .9 1.4c.5 1-.1.8-.6.5l-1.6-.7-1.5-.8-1.6-.7-1.6-.5-1.6-.6-1.7-.5-1.7-.4-1.7-.3-1.7-.2-1.7-.3-1.7-.2h-1.7l-1.7-.2h-12.1l-3.5.3h-1.7l-1.7.3-1.7.2-1.7.2-1.7.2-1.7.3-1.7.3-1.7.2-1.7.4-1.7.3-1.7.3-1.7.3-1.7.4-1.7.3-1.7.4-1.7.4-1.7.5-1.7.4-1.7.5-1.7.4-1.7.4-1.7.5-1.7.5-2.8.9a1.8 1.8 0 0 0-1.2 1.2l-.6 1.3-.7 1.3-.7 1.6-.8 1.6-.7 1.6-.6 1.6-.7 1.6-.6 1.6-.7 1.6-.6 1.6-.6 1.6-.7 1.6-.5 1.7-.5 1.7-.5 1.6-.6 2.2c-.2.6-.2 1.1-.4 1.7l-.4 1.7c-.2.6-.4 1.1-.6 1.7s-.2 1.2-.4 1.7l-.3 1.7-.3 1.7c-.1.6-.2 1.2-.2 1.7s-.2 1.2-.2 1.7a16.1 16.1 0 0 0 0 1.8 8.6 8.6 0 0 0 .4 1.7 4.7 4.7 0 0 0 .6 1.6 2.4 2.4 0 0 0 .9.8c.8.4.8.7.5.9l-1.1.4-2.1.2m36-38.5a4.9 4.9 0 0 0-1.6.4l-1.5.7-1.3 1-1.2 1.2-1 1.4-1 1.4a29.8 29.8 0 0 0-1.6 3l-.7 1.5c-.2.5-.3 1.1-.5 1.6l-.6 1.6c-.2.5-.2 1.1-.4 1.6l-.4 1.6-.4 1.6c-.1.6-.3 1.2-.4 1.7s-.2 1.2-.2 1.8-.2 1.2-.2 1.8a14.5 14.5 0 0 0 .1 1.8 8.7 8.7 0 0 0 .3 1.7 4.6 4.6 0 0 0 .7 1.6 2.5 2.5 0 0 0 2.1 1 4.2 4.2 0 0 0 1.7-.3l1.5-.9 1.3-1.1 1.3-1.2 1-1.4 1-1.5c.3-.5.7-.9 1-1.5l.7-1.6c.2-.5.4-1.1.6-1.7l.7-1.6.6-1.7c.2-.6.3-1.1.4-1.7s.2-1.2.3-1.7.3-1.2.4-1.7.2-1.2.3-1.8.1-1.2.1-1.8 0-1.2-.1-1.8a14.4 14.4 0 0 0-.1-1.8 6.8 6.8 0 0 0-.6-1.6 3.2 3.2 0 0 0-.8-1.2 2.2 2.2 0 0 0-1.3-.5h-.2M194.5 284h-1.8l-1.8-.4-1.7-.7-1.6-.9-1.5-1-1.2-1.2a15.3 15.3 0 0 1-2-2.6l-.8-1.5a15.6 15.6 0 0 1-.7-1.5c-.2-.5-.3-1.1-.4-1.6s-.3-1.1-.4-1.6-.1-1.1-.2-1.7 0-1.1 0-1.7.1-1.1.1-1.7.1-1.1.2-1.6.3-1.1.4-1.6.2-1.1.4-1.6l.5-1.6.7-1.6.6-1.6.8-1.5.7-1.5.8-1.5.9-1.4.8-1.5 1-1.4 1.2-1.3 1.1-1.3 1.1-1.3 1.3-1.1 1.4-1 1.4-1 1.4-.9 1.5-.7 1.6-.6 1.6-.5 1.6-.4 1.7-.2 1.7-.2h.8l1.8.3a11 11 0 0 1 3.3 1.3l1.5 1 1.3 1.3 1.2 1.4.9 1.4.8 1.5.6 1.6c.2.5.2 1.1.3 1.6s.3 1.1.4 1.6.1 1.1.1 1.7v3.4c0 .6-.1 1.1-.2 1.7s-.1 1.1-.2 1.7-.2 1.1-.3 1.6-.4 1.1-.5 1.6-.4 1.1-.6 1.6-.3 1.1-.5 1.7l-.8 1.6-.8 1.6-.8 1.6-1 1.5-1.1 1.4-1 1.4-1.2 1.3-1.2 1.3-1.3 1.1-1.3 1.2-1.4 1-1.5.9-1.5.9-1.6.7a18.1 18.1 0 0 1-3.3 1.1l-1.7.3h-1.7m43.5.1H236l-1.8-.4-1.7-.6-1.6-.8-1.5-.9-1.3-1.2a15 15 0 0 1-2.2-2.6l-.8-1.4a16.2 16.2 0 0 1-.8-1.5c-.2-.5-.3-1.1-.4-1.6s-.4-1-.5-1.6-.2-1.1-.2-1.6-.1-1.1-.1-1.7 0-1.1.1-1.6 0-1.1.1-1.6.2-1.1.3-1.6.1-1.1.2-1.6.2-1.2.4-1.7.4-1.1.5-1.7.3-1.1.5-1.7.5-1.1.7-1.6l.6-1.6.7-1.6.9-1.5c.3-.5.5-1.1.8-1.6l1-1.5 1.1-1.3 1.1-1.4 1.1-1.3 1.3-1.2 1.4-1.1 1.4-1.1 1.4-1 1.5-.8 1.6-.7 1.6-.6 1.7-.5 1.7-.3 1.7-.3h2a11 11 0 0 1 3.6.6l1.7.7 1.5 1.1 1.3 1.3a10.7 10.7 0 0 1 1 1.5 11.3 11.3 0 0 1 1.3 3.2 11.9 11.9 0 0 1 .1 1.7 12.4 12.4 0 0 1 .1 1.7 14.8 14.8 0 0 1-.8 3.4l-.7 1.6a10.2 10.2 0 0 1-1.1 1.6 5.1 5.1 0 0 1-1.3 1.3 3.9 3.9 0 0 1-1.8.5 3.1 3.1 0 0 1-1.4-.4 4.2 4.2 0 0 1-1.2-.8 5.6 5.6 0 0 1-.8-1.2 5.5 5.5 0 0 1-.6-1.4 4.6 4.6 0 0 1-.2-1.5 3.3 3.3 0 0 1 .5-1.4 4.2 4.2 0 0 0 .7-1.8 3.3 3.3 0 0 0-.5-1.9 3.5 3.5 0 0 0-1.5-1.5 4.4 4.4 0 0 0-2.1-.5 5.7 5.7 0 0 0-1.7.2l-1.5.7-1.4.9-1.3 1.1-1.1 1.3-1 1.3-1 1.5-.9 1.5-.8 1.6-.7 1.6-.6 1.6-.6 1.7c-.2.6-.3 1.1-.4 1.7s-.2 1.2-.3 1.7-.1 1.2-.2 1.7-.1 1.2-.1 1.7v1.8a15 15 0 0 0 .2 1.7 11.2 11.2 0 0 0 .6 1.7 8.9 8.9 0 0 0 .8 1.5 7 7 0 0 0 1.1 1.4 6.2 6.2 0 0 0 1.4 1l1.7.5h3.4l1.7-.6 1.6-.8 1.5-1 1.4-1.1 1.2-1.3 1.2-1.3c1.6-1.8 2-1.8 1.9-.2a7.7 7.7 0 0 1-.2 1.5 21.5 21.5 0 0 1-1.1 3l-.8 1.5c-.3.5-.5 1-.8 1.5l-1.1 1.3-1.1 1.3-1.2 1.2-1.3 1.1-1.5.8-1.5.8-1.6.5-1.6.5-1.8.2H237m-113.9 2.1h-1.8l-1.8-.2-1.7-.3-1.7-.3-1.7-.4-1.6-.6-1.6-.7-1.6-.8-1.5-1-1.5-1-1.2-1.3-1.2-1.3-1-1.5a15.4 15.4 0 0 1-.8-1.6 14.7 14.7 0 0 1-.6-1.7 14.5 14.5 0 0 1-.4-1.7 13.8 13.8 0 0 1-.1-1.8 13.4 13.4 0 0 1 0-1.8 14 14 0 0 1 .2-1.8 14.2 14.2 0 0 1 .6-1.7 12.1 12.1 0 0 1 .7-1.7 11.2 11.2 0 0 1 1-1.5l1.1-1.4 1.4-1.2 1.5-.9 1.6-.9 1.7-.6 1.8-.3 1.8-.3 1.8-.2c1.8 0 1.6.6.6 1a7.2 7.2 0 0 0-1.3 1l-1.2 1.2-1.1 1.2a11.4 11.4 0 0 0-.9 1.4l-.7 1.5a15.2 15.2 0 0 0-.4 1.6c-.1.5-.3 1.1-.4 1.6a11.9 11.9 0 0 0 0 1.9 11.1 11.1 0 0 0 .6 3.6 10.3 10.3 0 0 0 1.9 3.2l1.2 1.1 1.3 1 1.5.7 1.6.6 1.6.3h3.4l1.6-.4 1.6-.5 1.6-.7 1.4-.9 1.4-1 1.2-1.2 1.1-1.3 1.1-1.3 1-1.4c.3-.5.5-1 .8-1.5l.8-1.5.7-1.6c.2-.5.3-1.1.5-1.6l.6-1.6c.2-.5.4-1.1.6-1.6s.2-1.1.3-1.7l.4-1.7.3-1.7c.1-.6.3-1.2.3-1.8s0-1.2.1-1.8.1-1.2.1-1.8.1-1.2.1-1.8-.1-1.2-.1-1.8 0-1.2-.1-1.8v-.2c0-.6-.1-1.2-.1-1.8l-.2-1.8-.2-1.8-.2-1.7c-.1-.6-.1-1.1-.1-1.7s-.1-1.1-.2-1.7-.1-1.1-.2-1.7-.1-1.1-.1-1.7-.1-1.1-.1-1.7v-1.7c0-.6.1-1.1.1-1.7v-1.7c0-.6.1-1.1.1-1.7s.2-1.1.3-1.7.2-1.1.4-1.6.3-1.1.4-1.6.3-1.1.6-1.6l.8-1.5a15.9 15.9 0 0 1 .8-1.5l1.1-1.3 1.2-1.2 1.3-1 1.3-1 1.4-.9 1.5-.7 1.6-.6 1.6-.5 1.6-.3 1.7-.2h3.4l1.7.3 1.7.3 1.7.5 1.6.6 1.5.9 1.5.9a10.7 10.7 0 0 1 1.2 1.3 9.3 9.3 0 0 1 1.1 1.3 8 8 0 0 1 .7 1.6 7.3 7.3 0 0 1 .5 1.7 5.3 5.3 0 0 1-.1 1.5 5.4 5.4 0 0 1-.5 1.4 5.3 5.3 0 0 1-.9 1.1 5.6 5.6 0 0 1-1.3 1.1l-1.5.7a6.7 6.7 0 0 1-3 .1l-1.2-.5a1.9 1.9 0 0 1-1.3-1.1 3.4 3.4 0 0 1 .2-1.8 7.3 7.3 0 0 0 .3-1.7 2.9 2.9 0 0 0-.5-1.6 3.9 3.9 0 0 0-1.1-1.2 5.2 5.2 0 0 0-1.5-.7l-1.7-.3-1.6.2-1.5.6a8.3 8.3 0 0 0-1.3 1 9 9 0 0 0-1.2 1.1l-1 1.4a12.3 12.3 0 0 0-.7 1.6 13.3 13.3 0 0 0-.7 1.6 16.7 16.7 0 0 0-.4 1.7c-.1.5-.2 1.1-.3 1.7s-.1 1.2-.1 1.7 0 1.1.1 1.7.1 1.1.1 1.7.2 1.1.3 1.7l.3 1.7c.1.5.1 1.1.2 1.7l.3 1.7.3 1.7c.1.5.1 1.1.3 1.7s.3 1.1.4 1.6.1 1.1.2 1.7l.3 1.6.3 1.7.2 1.7.2 1.7c.1.6.1 1.1.1 1.7s.1 1.1.2 1.7.1 1.1.1 1.7-.1 1.1-.1 1.7-.1 1.1-.1 1.7-.1 1.1-.1 1.7-.1 1.1-.2 1.7-.3 1.1-.4 1.6-.2 1.1-.3 1.6l-.5 1.6-.6 1.6-.6 1.6-.6 1.6-.8 1.5-.8 1.5-.9 1.4-.9 1.4-1.1 1.3-1.1 1.3-1.2 1.2-1.3 1.1-1.3 1.1-1.4 1-1.4.9-1.4.9-1.5.8-1.6.7-1.6.7-1.6.5-1.6.5-1.7.3-1.7.3-1.7.2h-1.7v-.1m179.6 7.6h-1.9l-1.8-.2-1.8-.4-1.8-.5-1.6-.5-1.5-.8a22.4 22.4 0 0 1-2.9-1.8l-1.3-1.1-1.4-1-1.2-1.3-1.2-1.2-1.1-1.3-1-1.4-.9-1.4-.9-1.5-.8-1.5-.8-1.5-.7-1.5-.6-1.6-.7-1.6c-.2-.5-.3-1.1-.4-1.7l-.5-1.6-.4-1.7a18.3 18.3 0 0 0-.5-2.6c-.3-.6-.4-.7-1-.1l-1.6 1.8-1.1 1.3-1 1.3-.9 1.4-.9 1.4-.9 1.4-.9 1.4-.8 1.5-.7 1.5-.8 1.5c-.3.5-.4 1.1-.6 1.6l-.9 2.1c-.6 1.1-.6 1.5-1.5 1.1a5.4 5.4 0 0 1-1.6-1.4 5.6 5.6 0 0 1-.7-1.5 9.9 9.9 0 0 1-.4-1.6 16.5 16.5 0 0 1-.1-1.7v-1.7c0-.6 0-1.1.1-1.7s.3-1.1.4-1.6.1-1.1.2-1.7l.4-1.6.5-1.6.5-1.6.6-1.6.5-1.7.6-1.6.7-1.6.7-1.6c.2-.5.3-1.1.5-1.7l.7-1.6.6-1.6.6-1.6.7-1.6.7-1.6.6-1.6.7-1.6.7-1.6.7-1.6.6-1.6.7-1.6.7-1.6.6-1.6.7-1.6.7-1.6.8-1.6.7-1.6.8-1.6.8-1.5.8-1.5.8-1.5.8-1.5.5-1.8 1.1-1.4 1.3-1.2 1.4-1.1 1.4-1.1 1.5-.9 1.7-.7 1.7-.6 1.7-.5 1.7-.4 1.8-.2c1.8-.1 1.5.2.8 1.3l-1 1.4-1 1.5-.8 1.5-.9 1.5-.9 1.5-.9 1.5-.8 1.5-.9 1.5-.9 1.5-.9 1.5-.8 1.6-.9 1.5-.8 1.5-.8 1.6-.7 1.6-.9 1.5-.7 1.6-.9 1.5-.8 1.6-.8 1.5c-.3.5-.4 1.1-.7 1.6l-.8 1.6c-.6 1.3-.6 1.8-.1 1.3l1.2-1.2 1.2-1.3 1.2-1.2 1.2-1.2 1.3-1.2 1.4-1 1.4-1 1.4-1 1.4-1 1.5-.9 1.5-.9 1.6-.6 1.6-.6 1.6-.6 1.7-.3 1.7-.2h3.7c1.5.3 1.4.7.9 1l-1.6 1.3-1.3 1.1-1.4 1-1.3 1.1-1.3 1.1-1.3 1-1.3 1.1-1.4 1-1.3 1.1-1.3 1.1-1.3 1.1-1.3 1.1-1.3 1.1-1.2 1.2-1.2 1.2-1.3 1.1-1.6 1.5a2 2 0 0 0-.6 2.3c.1.6.2 1.6.4 2.1l.3 1.7.7 1.8.5 1.6c.2.6.3 1.1.5 1.6l.6 1.6.6 1.6.8 1.5.7 1.5.9 1.5.9 1.5.9 1.4 1.1 1.3 1.1 1.3 1.2 1.2 1.3 1.1 1.3 1.1 1.4 1 1.5.8 1.5.8 1.6.6 1.6.6 1.7.4 1.7.3 1.7.3h5l1.6-.2h1.6l1.6-.3c1.2-.3 1.6 0 .9 1.1a6.7 6.7 0 0 1-1.1 1.3l-1.2 1.2-1.3 1-1.5.7-1.5.8-1.5.6-1.6.5-1.6.4-1.7.2-1.6.2h-1.7m43.1-12.8l-1.8.5-1.8.3-1.8.3-1.8.5-1.7.7-1.7.7-1.5 1.1a5.9 5.9 0 0 0-1.2 1.4 3 3 0 0 0-.5 1.8 2.1 2.1 0 0 0 .8 1.3 3.2 3.2 0 0 0 1.3.7h3.1l1.5-.3 1.5-.5 1.6-.7 1.5-1 1.3-1.2 1.3-1.2 1-1.4a17 17 0 0 0 1-1.4c.9-1.6.8-1.9-.6-1.7l-1.6.3m-10 15.2h-2.4l-1.6-.3-1.5-.5-1.4-.7-1.3-.9a6.9 6.9 0 0 1-1-1.3 6.5 6.5 0 0 1-1.1-3 7.1 7.1 0 0 1 .1-1.7 8.3 8.3 0 0 1 .3-1.7 10.4 10.4 0 0 1 .8-1.6 12.6 12.6 0 0 1 .9-1.5l1.2-1.3 1.3-1.2 1.4-1 1.5-1 1.6-.8 1.5-.8 1.6-.7 1.7-.6 1.7-.6 1.6-.4 1.6-.5 1.6-.5 1.6-.4 1.5-.6 2.2-.6c.9-.2.8-.3 1.3-1.3a15.5 15.5 0 0 0 .7-1.8l.5-1.6.5-1.6c0-.2-.2-.2-.3-.2l-1.3 1.2-1.4 1.1-1.4 1-1.5.9-1.6.6-1.7.6-1.8.2-1.9-.2a7.4 7.4 0 0 1-3.3-1.8 8.5 8.5 0 0 1-1.3-1.4 10.4 10.4 0 0 1-.8-1.5 11.9 11.9 0 0 1-.6-1.6 14.9 14.9 0 0 1-.3-1.7 16.2 16.2 0 0 1-.2-1.7c0-.6-.1-1.1-.1-1.7s.2-1.1.2-1.7 0-1.1.1-1.7.3-1.1.4-1.7l.5-1.7.5-1.6.7-1.6.7-1.6.7-1.6.9-1.5.9-1.5.9-1.5 1.1-1.4 1-1.4 1.1-1.4 1.2-1.3 1.3-1.2 1.3-1.2 1.4-1 1.5-.9 1.6-.7 1.6-.6h1.7c.3 0 .8.1.4.8l-1.2 2.2-.8 1.5-.8 1.5-.7 1.5-.7 1.5-.7 1.5-.8 1.5-.7 1.6-.7 1.6-.6 1.6-.6 1.6-.8 1.4c-.2.6-.4 1.1-.6 1.7s-.2 1.2-.4 1.7a13.5 13.5 0 0 0-.2 1.8 8.4 8.4 0 0 0 0 1.8 4 4 0 0 0 .6 1.7 2.7 2.7 0 0 0 1.1.9 3.3 3.3 0 0 0 1.4.2 5.7 5.7 0 0 0 1.8-.3l1.7-.8 1.6-1 1.4-1.2 1.3-1.3c.2-.5.3-1.1.5-1.6l.6-1.6.7-1.5.7-1.5.6-1.6.7-1.5.8-1.5.8-1.5.8-1.5 1-1.4.9-1.4 1-1.4 1-1.4 1.2-1.2 1.1-1.3 1.3-1 1.3-1 1.5-.8 1.5-.8 1.6-.5 1.7-.2c1.3-.1 1.3.4 1.1.9l-1.1 2.5-.8 1.6-.7 1.6-.8 1.6-.7 1.6-.7 1.6-.7 1.6-.6 1.7-.7 1.6-.7 1.6-.7 1.6-.6 1.6-.6 1.6c-.2.6-.3 1.1-.5 1.7l-.7 1.6-.6 1.6-.5 1.7-.7 1.6-.6 1.6-.6 1.4-.5 1.4-.6 2c-.3.9-.1 1.2 1.1.9l2.2-.7 1.7-.5 1.7-.4 1.7-.6 1.7-.4 1.7-.5 1.7-.6 3.3-1.2 1.6-.6 1.6-.7 1.6-.8 1.6-.7 1.6-.8 1.5-1 1.4-1 1.4-1 1.2-1.2 1.2-1.3 1.1-1.4.9-1.5c.3-.5.7-.5.7.1s0 1.2-.1 1.7a16.1 16.1 0 0 1-.4 1.7 15.6 15.6 0 0 1-.4 1.7c-.2.5-.5 1-.7 1.6s-.5 1.1-.8 1.6l-1 1.4-1.1 1.3-1.1 1.3-1.3 1.2-1.3 1.1-1.4 1-1.4 1-1.5.9-1.5.9-1.5.8-1.5.8-1.6.7-1.6.7-1.6.7-1.6.5-1.6.6-1.7.5-1.6.5-1.6.6-1.7.4-1.6.5-1.7.5-2.2.6c-1.1.3-1.4.4-1.8 1.5s-.9 2-1.2 2.6l-.8 1.6-1 1.5-1 1.4-1.7 1.2-1.2 1.3-1.2 1.3-1.4 1-2.9 1.9-1.6.8-1.6.7-1.6.7-1.7.5-1.7.3h-3.5" transform="translate(-70.5 -70.5)"/></svg>