<svg id="Layer_3" data-name="Layer 3" xmlns="http://www.w3.org/2000/svg" viewBox="0 0 360 360"><defs><style>.cls-1{fill:#fff}.cls-2{fill:url(#linear-gradient)}.cls-3{fill:#e4e4e4}.cls-4{fill:url(#linear-gradient-2)}.cls-5{fill:url(#linear-gradient-3)}.cls-6{opacity:.4}.cls-7{fill:#f89832}.cls-8{fill:#583712}.cls-9{fill:#fecd87}.cls-10{opacity:.3}.cls-11{fill:url(#linear-gradient-4)}</style><linearGradient id="linear-gradient" x1="100.1" y1="250.8" x2="400.9" y2="250.8" gradientTransform="matrix(1 0 0 -1 0 515.18)" gradientUnits="userSpaceOnUse"><stop offset="0" stop-color="#bcbec0"/><stop offset=".17" stop-color="#939598"/><stop offset=".82" stop-color="#939598"/><stop offset="1" stop-color="#bcbec0"/></linearGradient><linearGradient id="linear-gradient-2" x1="118.61" y1="188.37" x2="382.39" y2="188.37" gradientTransform="matrix(1 0 0 -1 0 515.18)" gradientUnits="userSpaceOnUse"><stop offset="0" stop-color="#58595b"/><stop offset=".19"/><stop offset=".85"/><stop offset="1" stop-color="#58595b"/></linearGradient><linearGradient id="linear-gradient-3" x1="250.5" y1="191.02" x2="250.5" y2="405.42" gradientTransform="matrix(1 0 0 -1 0 515.18)" gradientUnits="userSpaceOnUse"><stop offset="0" stop-color="#414042"/><stop offset="1" stop-color="#6d6e71"/></linearGradient><linearGradient id="linear-gradient-4" x1="250.5" y1="389.37" x2="250.5" y2="288.86" gradientTransform="matrix(1 0 0 -1 0 515.18)" gradientUnits="userSpaceOnUse"><stop offset="0" stop-color="#fff"/><stop offset="1" stop-color="#fff" stop-opacity=".5"/></linearGradient></defs><title>sublimetext</title><path class="cls-1" d="M0 0h360v360H0z"/><path class="cls-2" d="M400.9 366.5L384 160a6.7 6.7 0 0 0-1.1-3.1 9.4 9.4 0 0 0-2.5-2.5 12.6 12.6 0 0 0-3.5-1.7 14.3 14.3 0 0 0-4.2-.6H128.3a14.3 14.3 0 0 0-4.2.6 12.6 12.6 0 0 0-3.5 1.7 9.4 9.4 0 0 0-2.5 2.5 6.7 6.7 0 0 0-1.1 3.1l-16.9 206.5a8.4 8.4 0 0 0 .6 4 9.2 9.2 0 0 0 2.3 3.3 11.3 11.3 0 0 0 3.7 2.2 13.5 13.5 0 0 0 4.7.8h278.2a13.5 13.5 0 0 0 4.7-.8 11.3 11.3 0 0 0 3.7-2.2 9.2 9.2 0 0 0 2.3-3.3 8.4 8.4 0 0 0 .6-4z" transform="translate(-70.5 -70.5)"/><path class="cls-3" d="M400.9 358.7L384 152.2a6.7 6.7 0 0 0-1.1-3.1 9.4 9.4 0 0 0-2.5-2.5 12.6 12.6 0 0 0-3.5-1.7 14.3 14.3 0 0 0-4.2-.6H128.3a14.3 14.3 0 0 0-4.2.6 12.6 12.6 0 0 0-3.5 1.7 9.4 9.4 0 0 0-2.5 2.5 6.7 6.7 0 0 0-1.1 3.1l-16.9 206.5a8.4 8.4 0 0 0 .6 4 9.2 9.2 0 0 0 2.3 3.3 11.3 11.3 0 0 0 3.7 2.2 13.5 13.5 0 0 0 4.7.8h278.2a13.5 13.5 0 0 0 4.7-.8 11.3 11.3 0 0 0 3.7-2.2 9.2 9.2 0 0 0 2.3-3.3 8.4 8.4 0 0 0 .6-4z" transform="translate(-70.5 -70.5)"/><path class="cls-4" d="M382.4 307.5a11.9 11.9 0 0 1-.9 3.8 13 13 0 0 1-3.3 4.6 15.7 15.7 0 0 1-5.1 3.1 18.6 18.6 0 0 1-6.5 1.1H134.4a18.6 18.6 0 0 1-6.5-1.1 15.7 15.7 0 0 1-5.1-3.1 13 13 0 0 1-3.3-4.6 11.9 11.9 0 0 1-.9-5.5l.2-2.2-.2 2.2v29.9a11.9 11.9 0 0 0 .9 5.5 13 13 0 0 0 3.3 4.6 15.7 15.7 0 0 0 5.1 3.1 18.5 18.5 0 0 0 6.5 1.1h232.2a18.6 18.6 0 0 0 6.5-1.1 15.7 15.7 0 0 0 5.1-3.1 13 13 0 0 0 3.3-4.6 11.9 11.9 0 0 0 .9-5.5v-28.2z" transform="translate(-70.5 -70.5)"/><path class="cls-5" d="M382.4 306.2l-13.6-170.9a9.2 9.2 0 0 0-1.5-4.3 13 13 0 0 0-3.5-3.5 17.6 17.6 0 0 0-4.9-2.4 20.2 20.2 0 0 0-5.9-.9H148a20.1 20.1 0 0 0-5.9.9 17.4 17.4 0 0 0-4.9 2.4 13 13 0 0 0-3.5 3.5 9.3 9.3 0 0 0-1.5 4.3l-13.6 170.9a11.3 11.3 0 0 0 .9 5.4 12.6 12.6 0 0 0 3.3 4.4 15.8 15.8 0 0 0 5.1 3 19 19 0 0 0 6.5 1.1h232.2a19 19 0 0 0 6.5-1.1 15.8 15.8 0 0 0 5.1-3 12.7 12.7 0 0 0 3.3-4.4 11.3 11.3 0 0 0 .9-5.4z" transform="translate(-70.5 -70.5)"/><g class="cls-6"><path class="cls-1" d="M118.6 306.2v.8a10.4 10.4 0 0 0 .3 2.3 12 12 0 0 0 1.4 3.5 13.3 13.3 0 0 0 3.4 3.7c3 2.3 7.6 3.4 12.9 3.2l8.5-.2H356l8.5.2c5.3.3 9.9-.8 12.9-3.2a13.3 13.3 0 0 0 3.4-3.7 12 12 0 0 0 1.4-3.5 10.2 10.2 0 0 0 .3-2.3v-.8.8a10.5 10.5 0 0 1-.2 2.3 12.2 12.2 0 0 1-1.3 3.6 13.7 13.7 0 0 1-3.3 3.9c-3 2.6-7.8 3.9-13.2 3.8l-8.5.2H145l-8.5-.2h-2l-2-.2-1.9-.2-1.7-.5a15.1 15.1 0 0 1-5.7-2.9 13.7 13.7 0 0 1-3.3-3.9 12.2 12.2 0 0 1-1.3-3.6 10.5 10.5 0 0 1-.2-2.3v-.8z" transform="translate(-70.5 -70.5)"/></g><path class="cls-7" d="M285.4 224.7a30.7 30.7 0 0 0-10.8-9.3 66.5 66.5 0 0 0-14.1-5.5c-4.9-1.4-9.9-2.4-14.5-3.3l-10-2.2a51.5 51.5 0 0 1-7.1-2.2 12 12 0 0 1-4.2-2.6 4.7 4.7 0 0 1-1.4-3.4 6.1 6.1 0 0 1 2-4.4 13.8 13.8 0 0 1 5-2.9 33.5 33.5 0 0 1 6.8-1.6 53.9 53.9 0 0 1 7.4-.5l5.8.2 5.7.6 5.6 1 5.4 1.4 1 .3 1.1.3 1.3.2h1.4a14.2 14.2 0 0 0 5.3-1 12.2 12.2 0 0 0 4-2.5 11 11 0 0 0 2.5-3.5 9.4 9.4 0 0 0 .8-3.9 10.1 10.1 0 0 0-.6-3.4 9.9 9.9 0 0 0-1.7-2.9 11.5 11.5 0 0 0-2.7-2.3 14.8 14.8 0 0 0-3.6-1.6q-3.7-1.1-7.6-2t-8-1.4q-4.1-.6-8.4-.9l-8.8-.3a72.7 72.7 0 0 0-16.6 1.9 53.5 53.5 0 0 0-14.9 5.8 32.6 32.6 0 0 0-10.8 9.9 26.4 26.4 0 0 0-4.4 14.4 23 23 0 0 0 4 14 30.8 30.8 0 0 0 10.7 9.1 71.6 71.6 0 0 0 14.3 5.7c5 1.5 10.2 2.6 14.9 3.6l8 1.8c2.6.6 5 1.3 7.1 2a20.7 20.7 0 0 1 5.1 2.4 3.8 3.8 0 0 1 2 2.9 9.1 9.1 0 0 1-.3 2.8 6.6 6.6 0 0 1-2.3 3.3 15.4 15.4 0 0 1-6.2 2.7 53.5 53.5 0 0 1-12.1 1.1q-3.8 0-7.4-.3t-7.2-1q-3.6-.6-7-1.6t-6.8-2.2l-1.4-.4-1.4-.3-1.4-.2h-1.4a15.2 15.2 0 0 0-5.2.9 13.4 13.4 0 0 0-4.2 2.4 11.5 11.5 0 0 0-2.8 3.6 10.6 10.6 0 0 0-1.1 4.5 9.8 9.8 0 0 0 .6 3.4 11.5 11.5 0 0 0 1.7 3.1 12.7 12.7 0 0 0 2.6 2.6 12.9 12.9 0 0 0 3.4 1.8q4.7 1.8 9.6 3.1t10 2.2q5.1.9 10.3 1.3t10.6.4a73.2 73.2 0 0 0 19.2-2.4 48.3 48.3 0 0 0 14.9-6.7 31 31 0 0 0 9.6-10.3 25.6 25.6 0 0 0 3.2-13 26.1 26.1 0 0 0-4.5-14.7z" transform="translate(-70.5 -70.5)"/><path class="cls-8" d="M274.6 215.4a66.5 66.5 0 0 0-14.1-5.5c-4.9-1.4-9.9-2.4-14.5-3.3l-10-2.2a51.5 51.5 0 0 1-7.1-2.2 12 12 0 0 1-4.2-2.6 4.7 4.7 0 0 1-1.3-2.5 5.7 5.7 0 0 0-.1.7 4.7 4.7 0 0 0 1.4 3.4 12 12 0 0 0 4.2 2.6 51.5 51.5 0 0 0 7.1 2.2l10.1 2.2c4.6.9 9.5 1.9 14.5 3.3a66.6 66.6 0 0 1 14.1 5.5 30.7 30.7 0 0 1 10.8 9.3 26 26 0 0 1 4.5 14.5v-1.2a26.1 26.1 0 0 0-4.5-14.8 30.7 30.7 0 0 0-10.9-9.4zM200.6 184.3a32.7 32.7 0 0 1 10.8-9.9 53.5 53.5 0 0 1 14.9-5.8 72.7 72.7 0 0 1 16.6-1.9l8.8.3q4.3.3 8.4.9t8 1.4q3.9.9 7.6 2a14.8 14.8 0 0 1 3.6 1.6 11.6 11.6 0 0 1 2.7 2.3 9.9 9.9 0 0 1 1.7 2.9 10 10 0 0 1 .6 2.9 8.9 8.9 0 0 0 .1-1.1 10.1 10.1 0 0 0-.6-3.4 9.9 9.9 0 0 0-1.7-2.9 11.5 11.5 0 0 0-2.7-2.3 14.8 14.8 0 0 0-3.6-1.6q-3.7-1.1-7.6-2t-8-1.4q-4.1-.6-8.4-.9l-8.8-.3a72.7 72.7 0 0 0-16.6 1.9 53.5 53.5 0 0 0-14.9 5.8 32.6 32.6 0 0 0-10.8 9.9 26.4 26.4 0 0 0-4.4 14.4v1.1a26.3 26.3 0 0 1 4.3-13.9zM195.2 250.9a11.5 11.5 0 0 1 2.8-3.6 13.4 13.4 0 0 1 4.2-2.4 15.2 15.2 0 0 1 5.2-.9h1.4l1.4.2 1.4.3 1.4.4q3.3 1.3 6.8 2.2t7 1.6q3.6.6 7.2 1t7.4.3a53.4 53.4 0 0 0 12.1-1.1 15.4 15.4 0 0 0 6.2-2.7 6.6 6.6 0 0 0 2.3-3.3 9.1 9.1 0 0 0 .3-2.8v-.1a7.2 7.2 0 0 1-.3 1.5 6.5 6.5 0 0 1-2.3 3.3 15.4 15.4 0 0 1-6.2 2.7 53.5 53.5 0 0 1-12.1 1.1q-3.8 0-7.4-.3t-7.2-1q-3.6-.6-7-1.6t-6.8-2.2l-1.4-.4-1.4-.3-1.4-.2h-1.4a15.2 15.2 0 0 0-5.2.9 13.4 13.4 0 0 0-4.2 2.4 11.5 11.5 0 0 0-2.8 3.6 10.6 10.6 0 0 0-1.1 4.5c0 .3 0 .5.1.8a10.6 10.6 0 0 1 1-3.9z" transform="translate(-70.5 -70.5)"/><g><path class="cls-9" d="M281 185.8a12.2 12.2 0 0 1-4 2.5 14.2 14.2 0 0 1-5.3 1h-1.4l-1.3-.2-1.1-.3-1-.3-5.5-1.4-5.6-1-5.7-.6-5.8-.2a53.8 53.8 0 0 0-7.4.5 33.5 33.5 0 0 0-6.8 1.6 13.8 13.8 0 0 0-5 2.9 6.1 6.1 0 0 0-2 4.4 5.1 5.1 0 0 0 .1.9 6.2 6.2 0 0 1 1.9-3.7 13.8 13.8 0 0 1 5-2.9 33.5 33.5 0 0 1 6.8-1.6 53.9 53.9 0 0 1 7.4-.5l5.8.2 5.7.6 5.6 1 5.6 1.3 1 .3 1.1.3 1.3.2h1.4a14.2 14.2 0 0 0 5.3-1 12.2 12.2 0 0 0 4-2.5 11 11 0 0 0 2.5-3.5 9.4 9.4 0 0 0 .8-3.9c0-.2 0-.3-.1-.5a9.6 9.6 0 0 1-.8 2.9 11 11 0 0 1-2.5 3.5zM286.6 251a31 31 0 0 1-9.6 10.3 48.3 48.3 0 0 1-14.9 6.7 73.2 73.2 0 0 1-19.2 2.4q-5.4 0-10.6-.4t-10.3-1.4q-5.1-.9-10-2.2t-9.6-3.1a13 13 0 0 1-3.4-1.8 12.7 12.7 0 0 1-2.6-2.6 11.5 11.5 0 0 1-1.7-3.1 10 10 0 0 1-.5-2.7c0 .3-.1.5-.1.8a9.8 9.8 0 0 0 .6 3.4 11.5 11.5 0 0 0 1.7 3.1 12.7 12.7 0 0 0 2.6 2.6 12.9 12.9 0 0 0 3.4 1.8q4.7 1.8 9.6 3.1t10 2.2q5.1.9 10.3 1.3t10.6.4a73.2 73.2 0 0 0 19.2-2.4 48.3 48.3 0 0 0 14.9-6.7 31 31 0 0 0 9.6-10.3 25.6 25.6 0 0 0 3.2-13v-.3a25.5 25.5 0 0 1-3.2 11.9zM211 220.2a71.6 71.6 0 0 0 14.3 5.7c5 1.5 10.2 2.6 14.9 3.6l8 1.8c2.6.6 5 1.3 7.1 2a20.7 20.7 0 0 1 5.1 2.4 4 4 0 0 1 1.9 2.7v-1.3a3.8 3.8 0 0 0-2-2.9 20.8 20.8 0 0 0-5.1-2.4c-2.1-.7-4.5-1.4-7.1-2l-8-1.8c-4.7-1-9.8-2.2-14.9-3.6a71.6 71.6 0 0 1-14.3-5.7 30.8 30.8 0 0 1-10.7-9.1 22.8 22.8 0 0 1-4-12.8v.4a23 23 0 0 0 4 14 30.8 30.8 0 0 0 10.8 9z" transform="translate(-70.5 -70.5)"/></g><g class="cls-10"><path class="cls-11" d="M368.8 135.3a9.2 9.2 0 0 0-1.5-4.3 13 13 0 0 0-3.5-3.5 17.6 17.6 0 0 0-4.9-2.4 20.2 20.2 0 0 0-5.9-.9H148a20.1 20.1 0 0 0-5.9.9 17.4 17.4 0 0 0-4.9 2.4 13 13 0 0 0-3.5 3.5 9.3 9.3 0 0 0-1.5 4.3l-6.9 86.9h250.4z" transform="translate(-70.5 -70.5)"/></g></svg>