<svg id="Layer_3" data-name="Layer 3" xmlns="http://www.w3.org/2000/svg" viewBox="0 0 323.2 329.9"><defs><style>.cls-1{fill:#fff}.cls-2{fill:#e33629}.cls-3{fill:#f8bd00}.cls-4{fill:#587dbd}.cls-5{fill:#319f43}</style></defs><title>testmysite</title><path class="cls-1" d="M199.9 94.6a165 165 0 0 0 11.3 315.2c27.5 7.4 56.7 7.2 84.4.9 25-5.8 48.6-17.7 67.5-35.1s34.2-42.5 41.7-68.5c8.2-28.3 9.4-58.6 4.2-87.6H253.8v64.4h89.9a77.5 77.5 0 0 1-33 50.9 94.3 94.3 0 0 1-36.3 14.3 107.6 107.6 0 0 1-39.4-.1 96.9 96.9 0 0 1-36.7-15.9 102.5 102.5 0 0 1-37.8-50.6 99.9 99.9 0 0 1 0-64.2 102.3 102.3 0 0 1 23.9-38.9 96.9 96.9 0 0 1 97.7-25.4 89.4 89.4 0 0 1 35.6 21l30.3-30.3c5.3-5.4 10.9-10.6 16-16.2a159.6 159.6 0 0 0-53-32.9 166.8 166.8 0 0 0-111.1-1z" transform="translate(-88.9 -85.6)"/><path class="cls-2" d="M199.9 94.6a166.8 166.8 0 0 1 111.1 1 159.6 159.6 0 0 1 53.1 32.9c-5.1 5.6-10.7 10.8-16 16.2L317.7 175a89.4 89.4 0 0 0-35.6-20.9 96.9 96.9 0 0 0-97.7 25.4 102.3 102.3 0 0 0-23.9 38.9l-54.1-41.9a165.6 165.6 0 0 1 93.5-81.9z" transform="translate(-88.9 -85.6)"/><path class="cls-3" d="M92.1 217.9a164.1 164.1 0 0 1 14.3-41.5l54.1 41.9a99.9 99.9 0 0 0 0 64.2l-54 41.9a165.1 165.1 0 0 1-14.4-106.5z" transform="translate(-88.9 -85.6)"/><path class="cls-4" d="M253.8 219.6H409c5.2 29 4 59.2-4.2 87.6-7.5 26-21.8 50.1-41.7 68.5L310.7 335a77.5 77.5 0 0 0 33-50.9h-89.9v-64.5z" transform="translate(-88.9 -85.6)"/><path class="cls-5" d="M106.4 324.6l54-41.9a102.5 102.5 0 0 0 37.8 50.6 96.9 96.9 0 0 0 36.8 15.8 107.6 107.6 0 0 0 39.4.1 94.3 94.3 0 0 0 36.3-14.3l52.4 40.7c-18.9 17.4-42.5 29.4-67.5 35.1-27.7 6.3-56.9 6.5-84.4-.9a164.2 164.2 0 0 1-59.9-30.2 166.2 166.2 0 0 1-44.9-55z" transform="translate(-88.9 -85.6)"/></svg>