<svg id="Layer_3" data-name="Layer 3" xmlns="http://www.w3.org/2000/svg" viewBox="0 0 360 360"><defs><style>.cls-1{fill:#fff}.cls-2{fill:#00e9fe}.cls-3{fill:#00d2e8}</style></defs><title>theispot</title><path class="cls-1" d="M0 0h360v360H0z"/><path class="cls-2" d="M399.5 250.5a149 149 0 1 1-149-149 149 149 0 0 1 149 149z" transform="translate(-70.5 -70.5)"/><path class="cls-3" d="M278.4 341.5L223 397a149.1 149.1 0 0 1-118.9-118.8l126.3-125.4 43 40.2-40.7 38.8z" transform="translate(-70.5 -70.5)"/><path class="cls-1" d="M250.5 145.7c-16.4 0-29.7 13-29.7 29s13.3 29 29.7 29 29.7-13 29.7-29-13.3-29-29.7-29" transform="translate(-70.5 -70.5)"/><path class="cls-1" d="M151.4 141.4h57.3v130.37h-57.3z"/></svg>