<svg id="Layer_3" data-name="Layer 3" xmlns="http://www.w3.org/2000/svg" viewBox="0 0 360 360"><defs><style>.cls-1{fill:#fff}.cls-2{fill:#8ecee2}.cls-3{fill:#79c3dd}.cls-4{fill:#6db4d1}.cls-5{fill:#9f9f9f}.cls-6{fill:#d46811}.cls-7{fill:#5b5b5a}.cls-8{fill:#2e2e2e}</style></defs><title>tineye</title><path class="cls-1" d="M0 0h360v360H0z"/><path class="cls-2" d="M247.4 390.2c-19.3-6.9-30.9-25.1-30.9-48.6-.1-20.2 8.5-30.2 30.1-35 25.5-5.7 41.7 2.1 52.8 25.3s8.2 49.7-7.9 56.8c-9.7 4.3-33.9 5.1-44 1.5z" transform="translate(-70.5 -70.5)"/><path class="cls-2" d="M268.3 348.7c-2.2-8.1-3-6.5-1.1 2.2.8 3.9 1.8 6.3 2.1 5.4s-.2-4.4-1-7.6zM358.9 306c-2-1.2-2.4-3.1-2.1-10.3s0-9.4-5.9-18.5c-8.1-12.4-23-26.2-35.6-32.8s-10.5-6.2-12.2 6.9c-2.3 16.9-13 34.5-23 37.8-6.6 2.2-21.2 1-27.4-2.2s-13-2.1-27.2 4.3c-7.9 3.6-12.9 4.9-18.2 4.9-13.9 0-19.3-5.2-27.1-25.6-3.1-8.1-6.2-15.3-6.9-16-3.3-3.3-15.3 9-25.2 25.9-5 8.6-6.1 11.5-5.4 15.1s-1.2 10.5-3.6 10.5c-.7 0-1.2-1.6-1-3.5.3-4.2-2.4-4.9-3-.8-.3 1.6-1.1 2.6-1.8 2.1-2.3-1.4-1.4-7.5 1.3-10.2s3.8-6.3 5.1-11c3.1-10.7 11.8-28.2 18.5-36.9 4.9-6.4 5-6.9 2.6-8.8a31.7 31.7 0 0 0-7.9-3.6c-6.1-1.9-6.5-3.6-2.4-8.9 5.9-7.5 8.8-8.1 49.6-10.7 23.1-1.5 24.5-1.8 42.3-9.8 13.9-6.3 22.8-9 38.2-11.7s28.3.5 34.1 9.3c2.4 3.7 2.4 3.8-3.5 9.1-3.3 3-5.9 6.4-5.9 7.7s2.1 3.3 4.6 4.6c9.9 5 25.6 17 33.1 25s18.2 27.5 19.9 36.9c.5 2.9 2.2 6.3 3.6 7.7 3.2 2.9 3.6 10.8.7 13.3s-2 .8-1.8-3-.4-4.8-2.5-5.2-2.6.1-1.7 4.6c.5 2.8.8 5.1.5 5.1z" transform="translate(-70.5 -70.5)"/><path class="cls-2" d="M219.9 269.2c0-1.7.9-3 2.2-3a1.8 1.8 0 0 1 1.8 2.4c-.7 3.6-4 4.1-4 .6zM226.5 269.7c-1.2-3.2-1.1-3.4 1.1-3.4s4 3.5 2.7 4.8-2.9.9-3.8-1.4zM213.1 266a4.4 4.4 0 0 1 3.2-2.4c1.6-.3 2.3.2 1.9 1.4a4.4 4.4 0 0 1-3.2 2.4c-1.6.4-2.3-.1-1.9-1.4zM232 265.7c-1.6-1.2-2-2.2-1-2.8s6 .3 6 2-2.5 2.7-5 .8zM210 258.4c0-2.3 1.3-2.6 4.9-1.3s2.7 3.4-1.3 3.4c-2.3.1-3.6-.7-3.6-2.1zM231.3 258.6c0-1.9 2.9-3.7 5.8-3.7s1.4 3.9-.9 4.8-4.9 1-4.9-1.1zM212.9 252.8c-.9-1.1-1.3-2.7-.8-3.6s6.4.8 6.4 3.5-3.4 2.7-5.6 0zM227.7 253.4c-.5-.8.2-2.8 1.6-4.3 3.2-3.5 5.8-1.4 3.5 2.8s-3.7 3.8-5.1 1.5zM221.6 251.8a8.1 8.1 0 0 1-1.7-5c0-4.5 4-4.2 5.1.4s-.9 7-3.4 4.6zM176.6 207.1c-8.5-2.8-12.6-5.1-16.3-9-13.4-14.2-14.6-16.7-11.3-23 2.4-4.4-.9-29.8-4.2-32.6-5-4.3-6.3-8.3-3.7-12.2 1.3-1.9 3.2-3.9 4.4-4.3 3.7-1.4 9.2.9 10.9 4.6s1.1 4.2-1.5 7.7-4 11.5-2.3 16.1c.6 1.6 2.1.8 5.9-3.5a44.5 44.5 0 0 1 10.2-8.3 36.7 36.7 0 0 0 8.6-6.5c5.4-5.9 12.1-8 28-8.9 12.2-.6 15.1-.3 18.2 1.7s7.3 3.4 11.8 4.5a73.3 73.3 0 0 1 14.3 5.6c3.4 1.9 6.4 3.3 6.6 3.1s-2.3-16.1-3.6-16.5c-6.1-2-7.7-11.5-2.5-15.1s7.6-2.8 11.1.6 3.7 8.9.5 11.5-2.1 22.1 2.1 28c8.9 12.5 11.1 25.3 5.6 32.3-1.9 2.4-9.6 7-19.5 11.7-27 12.8-33.3 14.8-48.4 15.4-11.8.8-15 .4-24.9-2.9z" transform="translate(-70.5 -70.5)"/><path class="cls-2" d="M188.9 191.4c4.9-4.5 2.7-17.5-4-23.4s-14.7-3-14.7 7.4c0 13.3 11.1 22.9 18.7 16z" transform="translate(-70.5 -70.5)"/><path class="cls-2" d="M174.7 186.4c-4-4 .4-11.8 4.7-8.2a6.3 6.3 0 0 1 2.1 4.2c0 2.3-2.6 5.8-4.3 5.8a5.9 5.9 0 0 1-2.5-1.8zM223.1 188.4c9.3-10.7-4.2-35.5-15.4-28.1-7.1 4.6-5.7 20.2 2.4 27 5.1 4.2 9.9 4.6 13 1.1z" transform="translate(-70.5 -70.5)"/><path class="cls-2" d="M208.6 181c-1.9-3.5-1.9-3.8.7-6.3 4.1-4.1 9.2 1 6.3 6.3-1.9 3.5-5.1 3.5-7 0z" transform="translate(-70.5 -70.5)"/><path class="cls-3" d="M249.5 390.8c-17.5-4.7-28.6-18.7-32.5-40.9q-6.5-37.6 34.4-44c13.5-2.1 23.8-.2 32.3 6 18 13.1 27.8 47.3 18.8 65.8-1.8 3.8-4.9 7.9-6.9 9.2-8.3 5.3-32.9 7.4-46.1 3.9z" transform="translate(-70.5 -70.5)"/><path class="cls-3" d="M268.3 348.7c-1-4-2.1-6.9-2.5-6.6s.1 4 1 8 2.1 6.9 2.5 6.6-.1-4-1-8zM358.6 305.2c-2.5-2.5-3-9.2-.8-11.4s0-4.4-3.2-10.6c-6.5-12.8-25.5-31.7-39-38.7-5.6-2.9-10.5-5.3-10.8-5.3s-1.1 3.5-1.6 7.8c-1.1 9.3-6.4 24.6-10.9 31.1-5.8 8.5-11.8 11.5-22.5 11.3-5.3-.1-12.1-1.2-15.5-2.6-7.8-3.1-14.6-2.1-28.9 4.4-12.5 5.6-20.3 6.2-29.1 2.2-7-3.2-10.3-8.1-16.2-24.5-6.6-18.2-6.6-18.2-14.7-11.1-11.7 10.3-24.6 31.6-23 37.9 1.1 4.3-.1 8.4-2.7 9.5s-1.9-.3-1.7-2.6c.3-4.2-2.4-4.8-3-.7-.3 1.6-1.1 2.6-1.8 2.1-2.3-1.4-1.4-7.5 1.4-10.2s3.5-5.4 4.4-8.9c2.6-9.9 12.3-29.6 18.7-38.1l5.8-7.7-3.4-2.6a22.6 22.6 0 0 0-7.3-3.5c-6.3-1.4-4.7-7.3 3.5-12.6 4.7-3.1 16.4-4.7 44.6-6.3l21.5-1.2 18.4-7.9c23.3-10 26.5-10.8 44.7-11.9s20.9.2 27.4 7.9l3.6 4.3-6.3 6.3c-3.4 3.4-6.3 7-6.3 7.8s3.4 3.3 7.5 5.3c25.1 12.6 42.4 31.9 49.7 55.2 1.7 5.5 4.3 11.4 5.8 13.1a9.9 9.9 0 0 1 2.2 7.7c-.6 5.7-3.4 7.2-3.4 1.7 0-2.7-.8-4.1-2.6-4.4s-2.6.1-1.9 4.6.7 6-2.4 2.9z" transform="translate(-70.5 -70.5)"/><path class="cls-3" d="M232.7 273.1c9.3-4.1 13.4-8.6 19.3-22 2.9-6.6 5.9-11.9 6.5-11.9a1.6 1.6 0 0 0 1.2-1.8c0-3.5 6.8-16.3 11.4-21.5a57.7 57.7 0 0 1 11.9-9.6c4-2.3 6.3-4.1 5.1-3.9a10.3 10.3 0 0 1-4.6-.8c-3.6-1.6-16.4 2.9-23.8 8.3-4.2 3-8.8 8.6-13.1 15.9-10.1 16.8-11.2 17.9-16.6 16s-13-.6-17.4 2.9-3.7 2.4-7.1.7-6.3-5-9.3-8.6c-7.8-9.6-20.6-17.5-28.3-17.5-12.6 0-16.1 9.3-4.4 11.7a38.6 38.6 0 0 1 21.4 12.7c6.4 7.5 5.4 9-1.6 2.5-3.1-2.9-2.3-1.7 1.9 3a125.4 125.4 0 0 1 10.8 13.5c5.1 8.1 9.6 11.8 16.1 13.3s11.9.9 20.6-2.9z" transform="translate(-70.5 -70.5)"/><path class="cls-1" d="M229.2 273.4c1 0 3.9-1.6 6.2-3.6 11.2-9.5 3.9-27.6-11.2-27.6-9.1 0-17.1 7.5-17.1 16.1s11.8 18 18.2 15.8a14.4 14.4 0 0 1 3.9-.7z" transform="translate(-70.5 -70.5)"/><path class="cls-3" d="M219.9 269.2c0-1.7.9-3 2.2-3a1.8 1.8 0 0 1 1.8 2.4c-.7 3.6-4 4.1-4 .6zM226.5 269.7c-1.2-3.2-1.1-3.4 1.1-3.4s4 3.5 2.7 4.8-2.9.9-3.8-1.4zM213.1 266a4.4 4.4 0 0 1 3.2-2.4c1.6-.3 2.3.2 1.9 1.4a4.4 4.4 0 0 1-3.2 2.4c-1.6.4-2.3-.1-1.9-1.4zM232 265.7c-1.6-1.2-2-2.2-1-2.8s6 .3 6 2-2.5 2.7-5 .8zM210 258.4c0-2.3 1.3-2.6 4.9-1.3s2.7 3.4-1.3 3.4c-2.3.1-3.6-.7-3.6-2.1zM231.3 258.6c0-1.9 2.9-3.7 5.8-3.7s1.4 3.9-.9 4.8-4.9 1-4.9-1.1zM212.9 252.8c-.9-1.1-1.3-2.7-.8-3.5s6.5 1.3 6.5 3.8-3.6 2.3-5.7-.3zM227.7 253.4c-.5-.8.2-2.8 1.6-4.3 3.2-3.5 5.8-1.4 3.5 2.8s-3.7 3.8-5.1 1.5zM221.6 251.8c-2.1-2.1-2.2-6.3-.3-7.5s5.1 6.1 3.4 7.9-2 .7-3.1-.4zM174.4 240c0-.4-1.4-1.4-3.2-2.2s-3.1-1.5-.4.7 3.6 2.6 3.6 1.5zM189.4 209.9c-12.5-2.6-24.4-7.4-28.3-11.3-13.5-13.6-15.4-17.4-12.1-23.6 2.4-4.6-.8-29.7-4.2-32.5-5.1-4.3-6.3-8.3-3.8-12.2 1.3-1.9 3.2-3.9 4.4-4.3 3.7-1.4 9.2.9 10.9 4.6s1.1 4.2-1.5 7.7-4.1 12.7-2.2 17.8c.7 1.9 1.4 1.5 3.5-2s6.3-6.7 10.8-9.7 9.5-6.9 11-8.8c4.3-5.3 11.3-7.4 27.4-8.3 13.7-.8 15.1-.6 19 2.2 2.3 1.7 5 3.1 6.1 3.1 3.7 0 18.2 5.6 22.6 8.7l4.4 3.1-1-5.6c-1.9-11.3-2.5-13.4-3.7-13.4s-5.7-4.7-5.7-8.6 4.3-8.5 8.8-8.5 8.2 5 8.2 8.8a9.9 9.9 0 0 1-2.3 5.6c-3.3 3.7-2.8 18.7.9 25.7l6 11.3c3.8 7.2 4.3 19.3 1.1 23.2s-39.9 21.2-49.9 23.9c-8.1 2.2-25.6 3.9-30.4 2.9z" transform="translate(-70.5 -70.5)"/><path class="cls-3" d="M188.8 192.2c2.5-2.5 2.9-4.2 2.4-10.9s-1.3-8.5-5.8-12.6-7.9-5.8-12.4-2.1c-6.4 5.2-3.1 20.9 5.6 26.3 4.9 3 6.6 2.8 10.2-.7z" transform="translate(-70.5 -70.5)"/><path class="cls-3" d="M174.7 186.4c-4-4 .4-11.8 4.7-8.2a6.3 6.3 0 0 1 2.1 4.2c0 2.3-2.6 5.8-4.3 5.8a5.9 5.9 0 0 1-2.5-1.8zM223.6 187.9c6.2-6.8 1.3-24.4-7.8-28.2s-16.3 7.6-10.9 20.4c4.2 10.1 13.2 13.9 18.7 7.8z" transform="translate(-70.5 -70.5)"/><path class="cls-3" d="M208.7 181.3c-1.7-3.3.5-7.4 4-7.4s4.6 4.3 2.7 7.6-5 2.9-6.7-.2z" transform="translate(-70.5 -70.5)"/><path class="cls-4" d="M249.5 390.8c-17.5-4.7-28.6-18.7-32.5-40.9q-6.5-37.6 34.4-44c13.5-2.1 23.8-.2 32.3 6 18 13.1 27.8 47.3 18.8 65.8-1.8 3.8-4.9 7.9-6.9 9.2-8.3 5.3-32.9 7.4-46.1 3.9z" transform="translate(-70.5 -70.5)"/><path class="cls-4" d="M268.3 348.7c-1-4-2.1-6.9-2.5-6.6s.1 4 1 8 2.1 6.9 2.5 6.6-.1-4-1-8zM358.6 305.2c-2.5-2.5-3-9.2-.8-11.4s0-4.4-3.2-10.6c-6.6-12.9-25.5-31.7-39.2-38.8-5.7-3-10.6-5.2-10.7-4.9s-1 4.8-1.9 10.1a88.3 88.3 0 0 1-6 19.2c-7.4 15.8-13.2 20.2-26.6 20.2-10.5 0-16.4-1.7-21.9-6.3-2.4-2-5.7-3.6-7.4-3.5s-1.9.5 1.5 1.4c6.8 2 6.8 3.6.1 4.7-3.3.5-10.9 3.2-16.9 5.9s-13 4.9-15.7 4.9H205l4.3-1.9c2.4-1 6.1-4.4 8.4-7.4l4.1-5.5-6 6c-3.3 3.3-6.6 6-7.4 6s-3.9-1.2-6.9-2.8c-7.9-4-18.1-16.1-23.7-28.1l-4.8-10.5-3.9 2.8c-12.3 8.9-28.5 33.7-26.7 41 1.1 4.3-.1 8.4-2.7 9.5s-1.9-.3-1.7-2.6c.3-4.2-2.4-4.8-3-.7-.3 1.6-1.1 2.6-1.8 2.1-2.3-1.4-1.4-7.5 1.4-10.2s3.5-5.4 4.4-8.9c2.6-9.9 12.3-29.6 18.7-38.1 3.4-4.4 5.3-8.2 4.5-8.9a41.5 41.5 0 0 0-6.9-4.1l-5.6-2.8h6.3c11.7-.1 23.9 5.6 29.1 13.7 2.1 3.2 1.8 3.1-3.8-1s-15.3-9-16.4-7.9.7 1 2.3 1.5c4.8 1.5 11.5 10.4 12.5 16.6.6 3.9 1.3 5.2 2.1 3.9s1.2-1.3 1.2-.2 9.3 12.4 15.6 17.1c2.8 2.1 4.2 2.7 3.1 1.4-2.5-3.1-2.2-3.1 6.1 1.1s17.7 4.6 30.3.1c7.4-2.7 11.1-5 15.7-10.1s6-5.8 6-4.8.4 1.4.9.9 1.4-6.1 2.2-12.5c1.4-12.1 3.3-17.7 5.6-16.3.7.5 1.4-.7 1.4-2.5a14.1 14.1 0 0 1 2.4-6.7c1.3-1.9 1.7-3 .8-2.4s-3.9 4.8-6.8 9.6-5.6 8.2-6 7.8 3.9-13.5 7.9-19.7 14.4-14.1 21.4-16.5 16.4-2 20.2 1l3.3 2.7-4.6 5.2c-2.5 2.9-4.6 5.8-4.6 6.5s3.4 3 7.5 5.1c25.1 12.6 42.4 31.9 49.7 55.2 1.7 5.5 4.3 11.4 5.8 13.1a9.9 9.9 0 0 1 2.2 7.7c-.6 5.7-3.4 7.2-3.4 1.7 0-2.7-.8-4.1-2.6-4.4s-2.6.1-1.9 4.6.7 6-2.4 2.9z" transform="translate(-70.5 -70.5)"/><path class="cls-4" d="M219.9 269.2c0-1.7.9-3 2.2-3a1.8 1.8 0 0 1 1.8 2.4c-.7 3.6-4 4.1-4 .6zM226.5 269.7c-1.2-3.2-1.1-3.4 1.1-3.4s4 3.5 2.7 4.8-2.9.9-3.8-1.4zM213.1 266a4.4 4.4 0 0 1 3.2-2.4c1.6-.3 2.3.2 1.9 1.4a4.4 4.4 0 0 1-3.2 2.4c-1.6.4-2.3-.1-1.9-1.4zM232 265.7c-1.6-1.2-2-2.2-1-2.8s6 .3 6 2-2.5 2.7-5 .8zM210 258.4c0-2.3 1.3-2.6 4.9-1.3s2.7 3.4-1.3 3.4c-2.3.1-3.6-.7-3.6-2.1zM231.3 258.6c0-1.9 2.9-3.7 5.8-3.7s1.4 3.9-.9 4.8-4.9 1-4.9-1.1zM212.9 252.8c-.9-1.1-1.3-2.7-.8-3.5s6.5 1.3 6.5 3.8-3.6 2.3-5.7-.3zM227.7 253.4c-.5-.8.2-2.8 1.6-4.3 3.2-3.5 5.8-1.4 3.5 2.8s-3.7 3.8-5.1 1.5zM221.6 251.8c-2.1-2.1-2.2-6.3-.3-7.5s5.1 6.1 3.4 7.9-2 .7-3.1-.4zM208.7 242.7c-1.9-1-7-5.2-11.4-9.5-10.1-9.8-17.8-15.3-21-15.3-1.7 0-2-.5-1.1-1.5s11.7-2 24.2-2.7l22.8-1.2 18.3-7.9c23.1-9.9 26.5-10.8 43.9-11.9s27 1.3 12.8 3c-20 2.4-35.1 8.2-43.9 17a113.3 113.3 0 0 0-11.3 14.8c-7.1 11-9.7 13-17.2 13a24.2 24.2 0 0 0-9 1.9c-3.1 1.5-4.5 1.6-7.2.1z" transform="translate(-70.5 -70.5)"/><path class="cls-4" d="M189.4 209.9c-11.6-2.2-24.4-7.3-28.3-11.3-13.5-13.6-15.4-17.4-12.1-23.6 2.4-4.6-.8-29.7-4.2-32.5-5.1-4.3-6.3-8.3-3.8-12.2 1.3-1.9 3.2-3.9 4.4-4.3 3.7-1.4 9.2.9 10.9 4.6s1.1 4.2-1.5 7.7-4.1 12.7-2.2 17.8c.7 1.9 1.4 1.5 3.5-2s6.3-6.7 10.8-9.7 9.5-6.9 11-8.8c4.3-5.3 11.3-7.4 27.4-8.3 13.3-.8 15.2-.6 18.7 2s7 3.6 11 4.6a76.5 76.5 0 0 1 14.7 5.9l7.6 4.1-.9-5.3c-1.9-10.9-2.5-13.1-3.7-13.1s-5.7-4.7-5.7-8.6 4.3-8.5 8.8-8.5 8.2 5 8.2 8.8a9.9 9.9 0 0 1-2.3 5.6c-3.3 3.7-2.8 18.7.9 25.7l6 11.3c3.8 7.2 4.3 19.3 1.1 23.2s-36.2 19.4-48 23.3c-7.9 2.6-26.5 4.6-32.3 3.5z" transform="translate(-70.5 -70.5)"/><path class="cls-4" d="M219.9 199.7c16.5-5.8 21.5-7.7 21-8.1s-4.7.7-9.8 2.1c-23.4 6.5-53.3 7.5-62.6 2a29.5 29.5 0 0 1-8-7.6c-1.8-2.6-3.2-4.1-3.2-3.2s6.9 10 10.5 12c12.5 6.8 37 8.1 52.1 2.8z" transform="translate(-70.5 -70.5)"/><path class="cls-4" d="M188.8 192.2c2.5-2.5 2.9-4.2 2.4-10.9s-1.3-8.5-5.8-12.6-7.9-5.8-12.4-2.1c-6.4 5.2-3.1 20.9 5.6 26.3 4.9 3 6.6 2.8 10.2-.7z" transform="translate(-70.5 -70.5)"/><path class="cls-4" d="M174.7 186.4c-4-4 .4-11.8 4.7-8.2a6.3 6.3 0 0 1 2.1 4.2c0 2.3-2.6 5.8-4.3 5.8a5.9 5.9 0 0 1-2.5-1.8zM223.6 187.9c6.2-6.8 1.3-24.4-7.8-28.2s-16.3 7.6-10.9 20.4c4.2 10.1 13.2 13.9 18.7 7.8z" transform="translate(-70.5 -70.5)"/><path class="cls-4" d="M208.7 181.3c-1.7-3.3.5-7.4 4-7.4s4.6 4.3 2.7 7.6-5 2.9-6.7-.2z" transform="translate(-70.5 -70.5)"/><path class="cls-4" d="M253.6 185.6c6.9-4.1 9.3-6.3 10.2-9.6s.8-4.3-2.9-4.7c-6.3-.7-8.5-7.7-4.9-15.9 2.2-5-19.5-14.9-34.6-15.9-6-.4-6.4-.2-6.8 3.5s-1 3.9-6.5 3.9a157.4 157.4 0 0 0-19.3 2.3c-10.2 1.8-13.5 1.9-14.3.6s-12.7 8.1-15.8 15.4a32.2 32.2 0 0 0-2.5 11.4c.2 5.1.2 5.1 1.1-1.2 1.8-12.4 6.9-17.1 23.3-21.3 12.1-3.1 42.3-5.8 52.8-4.7l7.1.7v10.2c.1 11.4 2.5 17.4 8.7 21.9l3.9 2.8-5.6 3c-3.1 1.6-5 3-4.3 3s5.4-2.3 10.3-5.2z" transform="translate(-70.5 -70.5)"/><path class="cls-5" d="M249.5 390.8c-17.5-4.7-28.6-18.7-32.5-40.9q-6.5-37.6 34.4-44c13.5-2.1 23.8-.2 32.3 6 18 13.1 27.8 47.3 18.8 65.8-1.8 3.8-4.9 7.9-6.9 9.2-8.3 5.3-32.9 7.4-46.1 3.9z" transform="translate(-70.5 -70.5)"/><path class="cls-5" d="M268.3 348.7c-1-4-2.1-6.9-2.5-6.6s.1 4 1 8 2.1 6.9 2.5 6.6-.1-4-1-8zM358.6 305.2c-2.5-2.5-3-9.2-.8-11.4s0-4.4-3.2-10.6c-6.9-13.5-25.5-31.7-40.2-39.2l-11.4-5.8-3.3 4.1c-1.9 2.4-4.7 4.1-6.6 4.1-7.7 0-14.3-15.7-10.8-25.8 2.3-6.5 2.1-6.6-3.7-1.2-2.9 2.7-4.2 3.6-2.8 1.9s2.5-3.5 2.5-4.1c0-2.4-6.3 4.5-11.7 12.8s-6 6.4-.8-4c8.6-17 31.5-28 42.9-20.5l3.9 2.6-3.8 3.5c-2.9 2.7-4.2 3.1-5.7 1.9s-1.6-.8-.2 2.9 3.7 5.5 8.8 8.1c24.8 12.4 42.1 31.8 49.3 55.1 1.7 5.5 4.3 11.4 5.8 13.1a9.9 9.9 0 0 1 2.2 7.7c-.6 5.7-3.4 7.2-3.4 1.7 0-2.7-.8-4.1-2.6-4.4s-2.6.1-1.9 4.6.7 6-2.4 2.9zM137.9 302.5c.3-4.4-2.4-5.3-3-1-.3 1.8-1.1 2.9-1.8 2.4-2.3-1.4-1.4-7.5 1.4-10.2s3.5-5.4 4.4-8.9c2.6-9.9 12.3-29.6 18.7-38.1s5.8-7.6 8.6-5.1a26.4 26.4 0 0 1 4.7 6.2c1.8 3.5 1.6 3.9-5.1 9.7-11.8 10.1-25 31.7-23.4 38.1 1.1 4.3-.1 8.4-2.7 9.5s-2-.2-1.8-2.6zM217.1 288.3c8.1-7.4 8.9-7.8 16-7.8 4.1 0 9.4.9 11.7 1.9l4.3 1.8-6.4 1c-3.5.6-11.3 3.2-17.2 5.9-16.4 7.5-18.8 6.7-8.4-2.8zM219.9 269.2c0-1.7.9-3 2.2-3a1.8 1.8 0 0 1 1.8 2.4c-.7 3.6-4 4.1-4 .6zM226.5 269.7c-1.2-3.2-1.1-3.4 1.1-3.4s4 3.5 2.7 4.8-2.9.9-3.8-1.4zM213.1 266a4.4 4.4 0 0 1 3.2-2.4c1.6-.3 2.3.2 1.9 1.4a4.4 4.4 0 0 1-3.2 2.4c-1.6.4-2.3-.1-1.9-1.4zM232 265.7c-1.6-1.2-2-2.2-1-2.8s6 .3 6 2-2.5 2.7-5 .8zM210 258.4c0-2.3 1.3-2.6 4.9-1.3s2.7 3.4-1.3 3.4c-2.3.1-3.6-.7-3.6-2.1zM231.3 258.6c0-1.9 2.9-3.7 5.8-3.7s1.4 3.9-.9 4.8-4.9 1-4.9-1.1zM212.9 252.8c-.9-1.1-1.3-2.7-.8-3.5s6.5 1.3 6.5 3.8-3.6 2.3-5.7-.3zM227.7 253.4c-.5-.8.2-2.8 1.6-4.3 3.2-3.5 5.8-1.4 3.5 2.8s-3.7 3.8-5.1 1.5zM221.6 251.8c-2.1-2.1-2.2-6.3-.3-7.5s5.1 6.1 3.4 7.9-2 .7-3.1-.4zM204.3 237.3c-2-1.1-5.5-4.6-7.8-7.8-3.8-5.2-11-10-18.3-12.2-5.2-1.6-1.1-2.3 21.5-3.4l22.7-1.2 18.3-7.9c27.9-12 42-15.1 26.8-5.9-13.3 8-17.2 11.4-25.9 22.9-4.5 6-9.9 12.1-11.9 13.6-4.9 3.6-20.4 4.8-25.4 1.9zM177.7 197.9c-13.8-2.7-19.5-9.2-19.5-22.4 0-6.7.5-8 5-12.6s7.7-5.8 14.8-7.8c12.1-3.4 36.4-5.9 50.4-5.3l10.7.5.9 10.8c1 11.9 2.6 16.2 8 20.7l3.6 3.1-5.7 2.9c-7.7 3.9-25.6 8.4-41 10.1s-18.8 1.7-27.2 0z" transform="translate(-70.5 -70.5)"/><path class="cls-5" d="M188.8 192.2c2.5-2.5 2.9-4.2 2.4-10.9s-1.3-8.5-5.8-12.6-7.9-5.8-12.4-2.1c-6.4 5.2-3.1 20.9 5.6 26.3 4.9 3 6.6 2.8 10.2-.7z" transform="translate(-70.5 -70.5)"/><path class="cls-5" d="M174.7 186.4c-4-4 .4-11.8 4.7-8.2a6.3 6.3 0 0 1 2.1 4.2c0 2.3-2.6 5.8-4.3 5.8a5.9 5.9 0 0 1-2.5-1.8zM223.6 187.9c6.2-6.8 1.3-24.4-7.8-28.2s-16.3 7.6-10.9 20.4c4.2 10.1 13.2 13.9 18.7 7.8z" transform="translate(-70.5 -70.5)"/><path class="cls-5" d="M208.7 181.3c-1.7-3.3.5-7.4 4-7.4s4.6 4.3 2.7 7.6-5 2.9-6.7-.2zM148.6 184.6c-1.7-3.7-.6-10.8 1.7-10.8.8 0 1.4 1.8 1.4 3.9a33.9 33.9 0 0 0 .9 7.1c1.1 4.4-2 4.2-4-.2zM256 167.3c-2-3.1-2.1-4.4-.7-8.3 2.9-8 1-32.1-2.7-33.3-6.1-2.1-7.6-11.5-2.5-15.1s7.6-2.8 11.1.6 3.7 8.1.5 11.6-1.9 26 4 33.7c2.9 3.9 3.4 10.2.9 12.7s-8.1 2.1-10.6-1.9zM149.8 163.9c-.5-2-1.2-7.2-1.7-11.7s-1.7-8.8-3.4-10a17.3 17.3 0 0 1-4.3-5.1c-1.4-2.7-1.3-3.9.6-6.8s3.2-3.9 4.4-4.3c3.7-1.4 9.2.9 10.9 4.6s1.1 4.2-1.7 8-3.2 5.6-2.6 13.1c.4 4.8.2 10.3-.3 12.2l-1 3.6zM173.8 147.4c-1.1-4.3 2.4-11 7.7-15 7.2-5.3 36.3-7.5 42.5-3.1l3.4 2.4-4.8 1.6c-4.4 1.4-7.1 4.8-9 11.2-.6 1.9-2.3 2.5-7.5 2.5a136.9 136.9 0 0 0-18.2 2.1l-12.3 2.1c-.5-.1-1.3-1.8-1.8-3.8z" transform="translate(-70.5 -70.5)"/><path class="cls-6" d="M255.2 391.2c-15.3-2.2-26.3-10.9-33.3-26.2-4.6-10-6.3-28.2-3.4-36.9 4-12 15.1-19.3 33.4-21.8s32.6 2.5 41.9 16.9c15.3 23.6 15.4 53.3.3 63.4-4.3 2.8-7.8 3.6-25.9 5.3a70.2 70.2 0 0 1-13-.7z" transform="translate(-70.5 -70.5)"/><path class="cls-6" d="M270.4 355.5c-2.1-10.4-3.7-15.3-5.1-15.3s-1.1 2.7 1.8 13.9c1.8 7 4.7 8.3 3.3 1.4zM358.1 304.4c-2.1-2.1-2.2-6.1-.2-9.7 1.1-2.1.7-4.3-2-9.5-8.8-17.4-25.1-33.6-42.6-42.3l-9.7-4.9-3.6 4.2c-2.1 2.5-4.9 4.2-6.9 4.2-7.7 0-14.3-15.7-10.8-25.8 2.3-6.5 2.1-6.6-3.7-1.2-2.9 2.7-4.2 3.6-2.8 1.9s2.5-3.5 2.5-4.1c0-2.4-6.3 4.5-11.7 12.8s-6 6.4-.8-4c8.6-17 31.5-28 42.9-20.5l3.9 2.6-3.8 3.5c-2.9 2.7-4.2 3.1-5.7 1.9s-1.6-.8-.2 2.9 3.6 5.5 7.4 7.4c26.2 13.3 43.6 33.2 51.4 58.7 1.4 4.7 3.7 9.4 5.1 10.4s3.5 10.9 1.1 12.4c-.8.5-1.4-.6-1.4-2.6 0-4.5-3.8-8-5.1-4.7a9.9 9.9 0 0 0-.1 5.1c.8 3.2-.4 3.7-3 1.1zM132.8 303.8c-2-2-1.1-7.6 1.6-9.4s3.8-5.7 5.1-10.4c3.5-11.9 11-27.2 18-36.7 5.8-7.8 6.1-8 8.7-5.6a26.1 26.1 0 0 1 4.6 6.2c1.8 3.5 1.6 3.9-3.9 8.2-11.5 8.8-26.4 32.6-24.7 39.4.9 3.6-1.1 9.2-3.3 9.2-.6 0-.9-1.6-.5-3.6s.1-3.6-1.5-3.6-2.4 1.5-2.7 3.7-.8 3.2-1.4 2.6zM216.9 288.4c8.1-7.4 9.1-8 15.7-8 3.9 0 8.8.7 11 1.6l4 1.6-6.2 1.2a76.2 76.2 0 0 0-14.9 5.3 79.5 79.5 0 0 1-13.5 5.2c-4.7 1.1-4.6 1 3.9-6.9zM220.6 270.4a2.7 2.7 0 0 1 .6-3.1c1.2-1.2 1.6-.8 1.6 1.5s-.8 4-2.2 1.6zM227 268.3c0-1.2.6-1.8 1.4-1.3a3 3 0 0 1 1.4 2.2 1.4 1.4 0 0 1-1.4 1.3c-.7 0-1.4-1-1.4-2.2zM214.6 266c.7-2.1 3.9-3.3 3.9-1.4s-1 1.8-2.3 2.3-2 .1-1.6-.9zM231.3 264.8c0-.8.9-1.4 2-1.4a3.8 3.8 0 0 1 2.9 1.4c.5.8-.4 1.4-2 1.4s-2.9-.6-2.9-1.4zM210.7 259.1c-.5-.8.4-1.4 2-1.4s2.9.6 2.9 1.4-.9 1.4-2 1.4a3.8 3.8 0 0 1-2.9-1.4zM231.3 257.7c0-.8 1.6-1.4 3.6-1.4s3.3.6 2.8 1.4-2.1 1.4-3.6 1.4-2.8-.6-2.8-1.4zM214.2 252.7c-1-1.2-1.4-2.6-.9-3s5.2 2.1 5.2 4-2.3 1.4-4.3-1zM228.5 252.3c0-3.5 2.5-5.5 4.4-3.6s.2 2.3-1.5 3.9-2.9 2.6-2.9-.3zM221.3 249.9c0-1.2 0-2.6-.1-3.2a1.8 1.8 0 0 1 1.4-1.5c.8-.3 1.5 1.1 1.5 3.2s-.6 3.7-1.4 3.7-1.4-1-1.4-2.2zM207.7 237.7c-2.7-.8-7-4.3-10.9-8.8s-9.1-8.7-12.6-10.3l-6.1-2.8 22.7-1.5c21.5-1.4 23.3-1.8 34.8-6.9 17.5-7.7 28.3-11.7 34.8-12.9l5.7-1-7.1 3.8c-12 6.4-19.6 13.1-27.8 24.5s-13.3 15.1-23.4 16.4a30.6 30.6 0 0 1-10.1-.5zM177.7 197.9c-13.7-2.7-19.5-9.2-19.5-22.3 0-8.6 3-12.8 12.5-17.4s52.1-10.2 64-8l5.1 1v9.2c0 10.6 2.4 17.4 7.6 21.5l3.6 2.9-5.2 2.9c-6.9 3.9-25 8.4-40.8 10.2s-18.9 1.7-27.3 0z" transform="translate(-70.5 -70.5)"/><path class="cls-6" d="M189 192.7c5.7-6.3 3.4-19.9-4.2-25.9-13.5-10.6-22.2 10.2-9.8 23.4 5.3 5.5 10.4 6.5 14 2.5z" transform="translate(-70.5 -70.5)"/><path class="cls-6" d="M174.5 185.4c-2-3.7-.5-7.3 2.9-7.3s5 3.8 3.1 6.9-4.3 3.5-6 .4zM223.5 188.8c8.5-8.5.1-30.6-11.6-30.6-5.8 0-9 4.7-9 13.3s3.9 15.9 10 19 6.7 2.3 10.6-1.7z" transform="translate(-70.5 -70.5)"/><path class="cls-6" d="M209.1 181.9c-1.4-3.7 0-7.3 3-7.3s2.8 1 2.8 4.2-4.3 6.9-5.8 3.1zM148.7 184.2a8.7 8.7 0 0 1 .1-7.3c2-4.3 2.3-3.9 3.4 4.4s-1.1 9.2-3.5 2.9zM256.3 167.8c-2.7-3.9-2.8-6.7-.2-10.4s1.7-5.4.6-16.3c-1.2-12.5-1.6-13.7-5.5-16.8s-5.5-9-.4-12.9 5.6-3.7 9.8.5 4.4 7 .5 10.9-2.9 4-2.1 11.7c1.2 10.7 3.2 17.6 6.7 22.1s3.5 10.1.9 12.7-7.9 2-10.3-1.5z" transform="translate(-70.5 -70.5)"/><path class="cls-6" d="M252.8 113.7c-1.8-1.8-3.7-.4-2.3 1.8a1.8 1.8 0 0 0 2.4.6c.9-.6.9-1.4-.1-2.4zM149.7 160c-2.2-16.3-2.5-17.3-5.9-19.6-6.5-4.3-2.8-15 5.2-15 5.8 0 9.4 10.5 4.8 14.2-1.7 1.4-2.1 4.5-1.9 13.7.3 13.6-.8 17-2.2 6.7z" transform="translate(-70.5 -70.5)"/><path class="cls-6" d="M147.4 132.7c0-1.7-2.8-3.5-3.8-2.5s.8 3.8 2.5 3.8a1.3 1.3 0 0 0 1.3-1.3zM174.3 147.1c-1.6-4.3 2.3-11.2 8.4-14.8 9.4-5.5 37.8-6.9 42.6-2.1 2.2 2.2 2.1 2.4-1.5 2.4s-9.1 4.1-10.4 9.1c-.8 3.1-1.9 3.6-8.9 4.3-4.4.5-12.7 1.7-18.5 2.7l-10.4 1.8z" transform="translate(-70.5 -70.5)"/><path class="cls-7" d="M255.2 391.2c-15.3-2.2-26.3-10.9-33.3-26.2-4.6-10-6.3-28.2-3.4-36.9 4-12 15.1-19.3 33.4-21.8s32.6 2.5 41.9 16.9c15.3 23.6 15.4 53.3.3 63.4-4.3 2.8-7.8 3.6-25.9 5.3a70.2 70.2 0 0 1-13-.7z" transform="translate(-70.5 -70.5)"/><path class="cls-7" d="M270.4 355.5c-2.1-10.4-3.7-15.3-5.1-15.3s-1.1 2.7 1.8 13.9c1.8 7 4.7 8.3 3.3 1.4zM358.1 304.4c-2.1-2.1-2.2-6.1-.2-9.7 1.1-2.1.7-4.3-2-9.5-8.8-17.4-25.1-33.6-42.6-42.3l-9.7-4.9-3.6 4.2c-2.1 2.5-4.9 4.2-6.9 4.2-7.7 0-14.3-15.7-10.8-25.8 2.3-6.5 2.1-6.6-3.7-1.2-2.9 2.7-4.2 3.6-2.8 1.9s2.5-3.5 2.5-4.1c0-2.4-6.3 4.5-11.7 12.8s-6 6.4-.8-4c8.6-17 31.5-28 42.9-20.5l3.9 2.6-3.8 3.5c-2.9 2.7-4.2 3.1-5.7 1.9s-1.6-.8-.2 2.9 3.6 5.5 7.4 7.4c26.2 13.3 43.6 33.2 51.4 58.7 1.4 4.7 3.7 9.4 5.1 10.4s3.5 10.9 1.1 12.4c-.8.5-1.4-.6-1.4-2.6 0-4.5-3.8-8-5.1-4.7a9.9 9.9 0 0 0-.1 5.1c.8 3.2-.4 3.7-3 1.1zM132.8 303.8c-2-2-1.1-7.6 1.6-9.4s3.8-5.7 5.1-10.4c3.5-11.9 11-27.2 18-36.7 5.8-7.8 6.1-8 8.7-5.6a26.1 26.1 0 0 1 4.6 6.2c1.8 3.5 1.6 3.9-3.9 8.2-11.5 8.8-26.4 32.6-24.7 39.4.9 3.6-1.1 9.2-3.3 9.2-.6 0-.9-1.6-.5-3.6s.1-3.6-1.5-3.6-2.4 1.5-2.7 3.7-.8 3.2-1.4 2.6zM216.9 288.4c8.1-7.4 9.1-8 15.7-8 3.9 0 8.8.7 11 1.6l4 1.6-6.2 1.2a76.2 76.2 0 0 0-14.9 5.3 79.5 79.5 0 0 1-13.5 5.2c-4.7 1.1-4.6 1 3.9-6.9zM207.5 234.9c-2.6-.8-6.6-3.9-9.2-7.2a31.2 31.2 0 0 0-16.7-11.2c-2.1-.6 5.1-1.4 17.1-2 22.1-1.1 27.2-2.4 50.5-12.7 15.7-7 22.5-8.2 11.7-2.2-8.6 4.8-17.2 13.2-24.8 24.4s-17.9 14.1-28.6 10.9zM177.7 197.9c-13.7-2.7-19.5-9.2-19.5-22.3 0-8.6 3-12.8 12.5-17.4s52.1-10.2 64-8l5.1 1v9.2c0 10.6 2.4 17.4 7.6 21.5l3.6 2.9-5.2 2.9c-6.9 3.9-25 8.4-40.8 10.2s-18.9 1.7-27.3 0z" transform="translate(-70.5 -70.5)"/><path class="cls-7" d="M189 192.7c5.7-6.3 3.4-19.9-4.2-25.9-13.5-10.6-22.2 10.2-9.8 23.4 5.3 5.5 10.4 6.5 14 2.5z" transform="translate(-70.5 -70.5)"/><path class="cls-7" d="M174.5 185.4c-2-3.7-.5-7.3 2.9-7.3s5 3.8 3.1 6.9-4.3 3.5-6 .4zM223.5 188.8c8.5-8.5.1-30.6-11.6-30.6-5.8 0-9 4.7-9 13.3s3.9 15.9 10 19 6.7 2.3 10.6-1.7z" transform="translate(-70.5 -70.5)"/><path class="cls-7" d="M209.1 181.9c-1.4-3.7 0-7.3 3-7.3s2.8 1 2.8 4.2-4.3 6.9-5.8 3.1zM272.3 194.2a2.9 2.9 0 0 1 2.7.1c.5.5-.4.8-1.9.7s-2-.4-.9-.9zM148.7 184.2a8.7 8.7 0 0 1 .1-7.3c2-4.3 2.3-3.9 3.4 4.4s-1.1 9.2-3.5 2.9zM256.3 167.8c-2.7-3.9-2.8-6.7-.2-10.4s1.7-5.3.8-14.7c-.7-6.5-1.6-13.7-2.1-16s-.4-4.1 1.1-4.1 2.3 2.8 3 10.6c1.1 12 2.9 18.4 6.8 23.4s3.4 10.2.9 12.7-7.9 2-10.3-1.5zM150.4 165.3c-.4-5.2-2.9-21.1-3.8-23.2s-.1-2.3 2-2.3 2.9 1.1 3.4 10.3c.3 5.7.1 11.9-.5 13.9s-1.1 2.5-1.1 1.3zM173 144.7c0-2.7 5.4-9.8 9.3-12.2 9.3-5.8 38-7.3 43-2.3 2.2 2.2 2 2.4-2.8 2.4s-5.9.9-8.5 4.2-4.4 4.3-16.8 5.7l-18.8 2.4c-3 .5-5.4.4-5.4-.2z" transform="translate(-70.5 -70.5)"/><path class="cls-8" d="M249.8 390c-10.4-3.2-17.9-8.8-23.5-17.6l-2.6-4 5.4 3.7c5.4 3.7 16.1 7.3 17.4 6s-1.3-4.7-3.7-9.7c-5.4-11-7.8-23.4-6.7-33.9.6-5.4.4-7.2-.5-5.7a9.6 9.6 0 0 0-1.4 4.3c0 1.2-2.6 3.2-5.7 4.5a19.9 19.9 0 0 0-8.5 7.1l-2.9 4.8v-6.8c0-16.9 7.1-28 20.8-32.9 10.6-3.7 30.3-4.6 38.1-1.6 12 4.6 24.3 21.8 28 39.4 2.1 9.7.9 23.9-2.6 30.6s-8.1 10.1-17.3 11.9-29 1.7-34.3.1z" transform="translate(-70.5 -70.5)"/><path class="cls-7" d="M268.5 376.2c6-1.9 7.1-1.8 11.1.2 6.3 3.3 12.6 2.3 16.2-2.5s4.9-20.9 1.6-30.8-4.1-8.6-1.2 1.3c4.5 15.5.3 31.5-8.6 32.6-5.5.7-14.5-8.6-15.7-16.2-.5-3.1-2.2-10.6-3.7-16.6s-2.4-12.6-1.9-14.6.5-3.6.1-3.6-1.4 2.1-2 4.6l-1.2 4.6h-24v10c.1 11.7 3.4 20.3 11.1 28.8 5.6 6.2 5.6 6.2 18.2 2.2z" transform="translate(-70.5 -70.5)"/><path class="cls-8" d="M357.8 303.1c-1.1-2.1-1.1-4.2-.1-7.3s1-5.5-1.1-10.2c-7.2-16-25.1-33.9-43.1-42.9l-9.9-5-4 4.3c-4.6 4.9-6.6 5.3-11.1 2.1s-3.9-4.9 1.1-4.9 4.3-.1 2-3.4-3-14.1-.1-18.6 2.2-3.6-1.3-3.6-4.8-2.1-1.3-3.4c5.7-2.2 11.8 1.5 13.9 8.4.5 1.7 4.1 4.5 8.4 6.6 9.8 4.8 29.1 19.5 34.3 26.1s13.2 22.1 16 31.6c1.3 4.5 3.5 9.3 5 10.7s3.6 10.2 1.2 11.7c-.8.5-1.4-.9-1.4-3.4 0-5-2.1-6.8-5-4.4-1.3 1.1-1.7 3-1.2 5.1 1 4.2-.2 4.4-2.4.4zM132.5 301.8c-.9-2.9 1.3-8.6 3.4-8.6s2.6-4.6 4.3-10.3c5-16.5 19.7-42.3 24.1-42.3.6 0 2.7 2.4 4.7 5.4l3.6 5.4-5.7 4.1c-11.8 8.5-26.8 33.1-25.6 42.2.4 3.1 0 5.6-1.1 6.2s-1.4.2-.7-2 .3-3.3-1.4-3.9-5 1.8-3.9 4.7c.4 1 .4 1.9 0 1.9s-1.2-1.2-1.7-2.8zM216.2 289.6c7.4-7.8 12.3-9.6 21.8-8.5s8.7 2.7.8 4.2a54.4 54.4 0 0 0-11.7 4.3 77.5 77.5 0 0 1-11.6 4.7l-5.1 1.4zM207.5 234.9c-2.6-.8-6.6-3.9-9.2-7.2a37.6 37.6 0 0 0-11.8-9.2l-7.1-3.3h14.2c19.8 0 29.9-2 45.1-8.7 13.6-6 28.2-11.5 28.9-10.8s-3.1 2.2-7.3 4.4c-8 4.2-16.7 12.8-24.4 24s-17.7 14-28.4 10.8z" transform="translate(-70.5 -70.5)"/><path class="cls-7" d="M216.4 228.4c-3.1-1.1-6.2-2.6-6.9-3.3s-2-.6-3.1.4c-2.6 2.4 2.8 5.1 10 5.1h5.7z" transform="translate(-70.5 -70.5)"/><path class="cls-8" d="M172.2 196.6c-7.7-2.4-12.4-8.8-13.2-17.8-.4-5 0-9.2 1.2-11.4 4.3-8.1 23.5-13 56.5-14.4l21.7-.9v8.4c0 10.8 2.2 18.5 6.4 22.8l3.4 3.4-5.3 2.2c-11.9 5-28.1 7.9-47.2 8.5-10.6.3-21.1 0-23.5-.8z" transform="translate(-70.5 -70.5)"/><path class="cls-1" d="M190.7 192c5.2-7.4 1-22.1-7.6-27.2-14.4-8.4-20.9 18.4-6.9 28.2 4.7 3.3 11.8 2.8 14.5-1z" transform="translate(-70.5 -70.5)"/><path class="cls-8" d="M174.4 182.4c0-3.2.6-4.3 2.7-4.3a3.9 3.9 0 0 1 3.5 2.1c1.2 3.2-.5 6.4-3.5 6.4s-2.7-1-2.7-4.2z" transform="translate(-70.5 -70.5)"/><path class="cls-1" d="M223.5 190c7.8-7.8 4.9-24.1-5.4-30.4-6.1-3.7-7.6-3.5-12.5 1.4s-5.5 12-1.4 20.9 13.8 13.6 19.3 8.1z" transform="translate(-70.5 -70.5)"/><path class="cls-8" d="M210 181.7c-2.5-3-1.3-7.2 2.1-7.2s4.6 5.2 1.7 7.6-2.4 1.3-3.8-.4zM149.7 185.8c-1-2.6-1.2-11.3-.2-10.4s3.3 12.6 2.2 12.6-1.5-1-2-2.2zM257.3 169.2c-3.7-4.8-3.4-11.5.5-10 2.2.9 2-4.6-1-22.2-1.7-10-1.7-14.3.1-14.3s1.4 2.7 1.4 5.9c0 9.9 3 23.6 5.8 26.9s4.7 8.2 2.1 12-6.7 4.6-8.9 1.7zM150.2 162.1c0-1-.6-6.4-1.1-12.1-.8-8-.6-10.3.8-10.3s1.8 3.2 1.8 12.1c0 6.6-.3 12.1-.7 12.1s-.8-.8-.8-1.8zM174.4 143c0-4 8.4-11.4 14.9-13 10.6-2.6 24.3-3.3 30.8-1.6l6.2 1.7-4.8 1.7a20.2 20.2 0 0 0-7.8 5.4c-2.7 3.4-4.5 4-16.5 5.3-7.4.8-15.6 1.9-18.1 2.3s-4.7.5-4.7-1.8z" transform="translate(-70.5 -70.5)"/></svg>