<svg id="Layer_3" data-name="Layer 3" xmlns="http://www.w3.org/2000/svg" viewBox="0 0 360 360"><defs><style>.cls-1{fill:#fff}.cls-2{fill:#3f444f}.cls-3{fill:#5c6c7d}</style></defs><title>tinypng</title><path class="cls-1" d="M0 0h360v360H0z"/><path class="cls-2" d="M144.7 296.5c-24.7 0-44.7-19.8-44.7-44.1v-3.7c0-24.3 20.1-44.1 44.7-44.1h211.6c24.7 0 44.7 19.8 44.7 44.1v3.7c0 24.3-20.1 44.1-44.7 44.1H144.7z" transform="translate(-70.5 -70.5)"/><path class="cls-1" d="M253.4 290.5H143.9a38.3 38.3 0 0 1-38.3-38.3v-3.4a38.3 38.3 0 0 1 38.3-38.3h103.5" transform="translate(-70.5 -70.5)"/><path class="cls-3" d="M146.7 256.6v-3.5q.1-2.3 2-2.2c1.3 0 1.9.8 1.9 2.5q0 6-1.5 8.3t-6.8 3.2q-4.4 0-6.2-2.8t-1.4-6.9V242a1 1 0 0 0-1.1-1.2h-1.8a2 2 0 0 1-1.5-.6 1.9 1.9 0 0 1-.6-1.4 1.9 1.9 0 0 1 .6-1.4 1.7 1.7 0 0 1 1.3-.6h2.1a.9.9 0 0 0 .9-1v-5.7a1.9 1.9 0 0 1 2.1-2.1 1.8 1.8 0 0 1 2 2.1v5.9a.8.8 0 0 0 1 .8h6q2.1 0 2.1 1.9c0 1.4-.7 2-2.3 2h-6c-.5 0-.8.4-.8 1.2v13.5q0 5.8 3.8 5.8c2.7.1 4-1.5 4.2-4.6zM162.2 248.3v7.1c0 1.8 0 2.9.1 3.2s.7 2.5 1.5 2.5l1.4-.2h.8q2.1 0 2.1 1.8a1.6 1.6 0 0 1-.7 1.3 2.7 2.7 0 0 1-1.7.5l-2.7-.2-2.7-.2-3.2.2-2.9.3q-2.2 0-2.2-1.8a1.6 1.6 0 0 1 1.9-1.8h2.6c.9 0 1.4-1.2 1.6-3.5v-14c-.2-2.3-.7-3.5-1.7-3.5l-1.2.2-1.2.2q-2 0-2-1.8c0-1.2.8-1.9 2.4-1.9h1.5l2.3.2h2.7q1.6 0 1.6 2.1v1.4c0 .2-.1 1.4-.1 3.4s-.2 2.9-.2 4.5zm-2.9-14.4a3.1 3.1 0 0 1-3.1-3.1 2.9 2.9 0 0 1 .9-2.1 3.1 3.1 0 0 1 4.3 0 2.9 2.9 0 0 1 .9 2.1 3.1 3.1 0 0 1-2.9 3.1zM178.8 238.4v1.6a10.6 10.6 0 0 1 8.8-4.2 11.1 11.1 0 0 1 5.6 1.5 7.9 7.9 0 0 1 3.6 3.8 13 13 0 0 1 .8 4.9v10.4c0 1.6 0 2.5.1 2.8s.7 1.9 1.5 1.9h2.4a1.7 1.7 0 0 1 1.2.5 1.6 1.6 0 0 1 .5 1.2 1.7 1.7 0 0 1-.7 1.4 2.4 2.4 0 0 1-1.6.5l-2.5-.2-3.3-.2h-2.4l-2.9.3q-2.2 0-2.2-1.9c0-1.1.6-1.7 1.9-1.7h1l1.3.2c.9 0 1.4-1 1.5-3v-10.4a19.4 19.4 0 0 0-.3-4 5.3 5.3 0 0 0-2.1-3.2 7 7 0 0 0-4.1-1.3q-4.4 0-6.3 3.1t-1.3 7.3v7.3a10.9 10.9 0 0 0 .3 3.3 1.2 1.2 0 0 0 1.2.9l1.2-.2 1.3-.2a1.6 1.6 0 0 1 1.7 1.8q0 1.8-2.2 1.8l-2.9-.3-2.7-.2-3.1.2-2.7.3q-2.3 0-2.3-1.9a1.6 1.6 0 0 1 1.8-1.8l1 .2 1.5.2q1.7 0 1.7-3.2v-14.6a7 7 0 0 0-.5-2.6 1.3 1.3 0 0 0-1.3-.7l-1.1.2-1.1.2c-1.3 0-2-.6-2-1.8s.8-1.8 2.5-1.8h.5l2 .2h3a1.4 1.4 0 0 1 1.7 1.4z" transform="translate(-70.5 -70.5)"/><path class="cls-3" d="M212.8 242l6.3 18.6 6.7-18.3a3.9 3.9 0 0 0 .3-1.2c0-.6-.4-.9-1.3-.9h-2.2a1.6 1.6 0 0 1-1.8-1.8q0-1.9 2.4-1.9h1.1l2 .3h1.6l2.7-.3 2.7-.2q2.4 0 2.4 1.8a1.6 1.6 0 0 1-1.8 1.8h-.8l-1-.2q-1 0-2.1 2.8l-7.5 18.7a38.2 38.2 0 0 1-4.7 9 11.4 11.4 0 0 1-9.3 4.8 9.2 9.2 0 0 1-5.6-1.7 5 5 0 0 1-2.3-4.1 3.9 3.9 0 0 1 1-2.8 3.3 3.3 0 0 1 2.6-1.1 3 3 0 0 1 2.1.7 2.4 2.4 0 0 1 .8 1.8 2.1 2.1 0 0 1-1.6 2.3c.5.8 1.6 1.2 3.1 1.2a7.5 7.5 0 0 0 5.2-2.2 6.5 6.5 0 0 0 2.3-4.9 17.4 17.4 0 0 0-1.5-5.1l-6-15.3-.7-1.8q-.9-2.5-2.1-2.5h-2.3a1.6 1.6 0 0 1-1.9-1.8q0-1.9 2.5-1.9h1.3l2.2.3h1.1l4.2-.3 2.3-.2c1.5 0 2.3.6 2.3 1.8s-.7 1.8-2.1 1.8h-2.1a.7.7 0 0 0-.8.8 3.6 3.6 0 0 0 .3 2z" transform="translate(-70.5 -70.5)"/><g><path class="cls-1" d="M280.1 238v1.8a9.9 9.9 0 0 1 8.5-4.3 11 11 0 0 1 8.8 3.8q3.3 3.8 3.3 10.4t-3.5 11.3a11.4 11.4 0 0 1-9.3 4.2 10 10 0 0 1-7.8-3.4v4.6a19.7 19.7 0 0 0 .1 2.7c.2 1.1.8 1.7 1.6 1.7l1.2-.2 1.2-.2a1.6 1.6 0 0 1 1.8 1.8c0 1.2-.8 1.8-2.3 1.8l-2.5-.2-3.7-.2h-2.2l-2.9.3a2.4 2.4 0 0 1-1.6-.6 1.8 1.8 0 0 1-.7-1.3 1.6 1.6 0 0 1 1.9-1.8h1l1.4.2a1.2 1.2 0 0 0 1.3-1.1 41.5 41.5 0 0 0 .3-6v-21c0-1.7-.5-2.6-1.4-2.6l-1.2.2-1.2.2c-1.4 0-2-.6-2-1.8s.8-1.8 2.4-1.8h6.2a1.3 1.3 0 0 1 1.4 1.5m.8 6.8a26.1 26.1 0 0 0-.6 5.3c0 .2 0 .4-.1.8v.8a17.1 17.1 0 0 0 .6 5.4 6.6 6.6 0 0 0 2.4 3 8.1 8.1 0 0 0 10.7-1.6q2.2-2.9 2.2-8.3 0-11.1-7.9-11.1a7.6 7.6 0 0 0-4.8 1.6 7 7 0 0 0-2.6 4.1M311.8 238.1v1.6a10.8 10.8 0 0 1 8.9-4.2 11.3 11.3 0 0 1 5.7 1.5 8 8 0 0 1 3.6 3.8 13.2 13.2 0 0 1 .8 4.9v10.6c0 1.6 0 2.5.1 2.8s.7 1.9 1.5 1.9h2.4a1.8 1.8 0 0 1 1.3.5 1.6 1.6 0 0 1 .5 1.2 1.8 1.8 0 0 1-.7 1.4 2.4 2.4 0 0 1-1.6.6l-2.6-.2-3.3-.2H326l-2.9.3q-2.2 0-2.2-1.9c0-1.1.6-1.7 1.9-1.7h1l1.4.2c.9 0 1.4-1 1.5-3.1v-10.5a20.2 20.2 0 0 0-.3-4.1 5.4 5.4 0 0 0-2.2-3.3 7.1 7.1 0 0 0-4.2-1.2q-4.4 0-6.4 3.2t-1.3 7.4v7.4a11 11 0 0 0 .3 3.3 1.2 1.2 0 0 0 1.2.9l1.2-.2 1.3-.2a1.6 1.6 0 0 1 1.7 1.9q0 1.8-2.2 1.8l-2.9-.3-2.7-.2-3.1.2-2.8.3q-2.3 0-2.3-1.9a1.6 1.6 0 0 1 1.8-1.8l1.1.2 1.5.2q1.7 0 1.8-3.2v-15a7.2 7.2 0 0 0-.5-2.6 1.3 1.3 0 0 0-1.3-.7l-1.2.2-1.2.2q-2 0-2-1.8t2.5-1.9h.5l2.1.2h3.1a1.5 1.5 0 0 1 1.6 1.7M352.2 235.5a14.2 14.2 0 0 1 3.3.4q.3-5.4 6.3-5.4a6.8 6.8 0 0 1 4.3 1.3 4.1 4.1 0 0 1 1.7 3.4 3.3 3.3 0 0 1-.9 2.3 2.7 2.7 0 0 1-2 .9 2.2 2.2 0 0 1-1.6-.6 1.9 1.9 0 0 1-.7-1.4 2.5 2.5 0 0 1 1.2-1.8 2.8 2.8 0 0 0-2.3-1.1q-2.9 0-3 3.7a8.8 8.8 0 0 1 4.2 7.6 8.2 8.2 0 0 1-2.9 6.4 10.6 10.6 0 0 1-7.3 2.6 15.9 15.9 0 0 1-6.4-1.4 3.9 3.9 0 0 0-1.5-.4 1.8 1.8 0 0 0-1.4.7 2.4 2.4 0 0 0-.6 1.6q0 2.9 5.9 2.9h2a30.6 30.6 0 0 1 8.6 1 10.5 10.5 0 0 1 4.9 2.9 6.5 6.5 0 0 1 1.8 4.5 7.2 7.2 0 0 1-3.7 6.4q-3.8 2.4-10.1 2.4t-10-2.2a6.8 6.8 0 0 1-3.6-6.1q0-4.5 5.1-6.4-4.6-1.8-4.6-5.3c0-2.6 1.5-4.4 4.6-5.3a7.4 7.4 0 0 1-1.4-4.6 7.9 7.9 0 0 1 2.9-6.3 10.8 10.8 0 0 1 7.3-2.5m.2 25.2a15.4 15.4 0 0 0-7 1.3q-2.6 1.3-2.6 3.6a4 4 0 0 0 2.5 3.6 14.7 14.7 0 0 0 6.7 1.3 15.6 15.6 0 0 0 7-1.3q2.6-1.3 2.6-3.6a4 4 0 0 0-2.5-3.6 14.6 14.6 0 0 0-6.8-1.3m0-21.6a6.3 6.3 0 0 0-4.2 1.4 5.1 5.1 0 0 0-1.9 3.6v.3a5.1 5.1 0 0 0 1.7 3.9 6.2 6.2 0 0 0 4.3 1.5 6.8 6.8 0 0 0 4.5-1.5 4.8 4.8 0 0 0 1.7-3.8 5 5 0 0 0-1.8-3.9 6.5 6.5 0 0 0-4.4-1.6" transform="translate(-70.5 -70.5)"/></g></svg>