<svg id="Layer_3" data-name="Layer 3" xmlns="http://www.w3.org/2000/svg" viewBox="0 0 354.5 345.5"><defs><style>.cls-1{fill:#152600}.cls-2{fill:#87ec00}</style></defs><title>typekit</title><path class="cls-1" d="M82.3 86.9h336.4v327.2H82.3V86.9z" transform="translate(-73.2 -77.8)"/><path class="cls-2" d="M73.2 77.8v345.4h354.6V77.8H73.2zM91.4 96h318.2v309H91.4V96z" transform="translate(-73.2 -77.8)"/><path class="cls-2" d="M188 190.7h-38.2a1.7 1.7 0 0 1-1.6-1.6l2.5-18.7a1.7 1.7 0 0 1 1.6-1.6h93.5a1.4 1.4 0 0 1 1.6 1.6L249 189a1.4 1.4 0 0 1-1 1.6h-35.6v131a1.7 1.7 0 0 1-1.6 1.6h-20.4a1.7 1.7 0 0 1-1.6-1.6V190.7h-.8zm101.5 69.9l34.3-46.5a2.7 2.7 0 0 1 2.1-1.5h22.8c1.6 0 1.6.8.8 1.6-5.7 7.4-30.1 37.5-38.3 47.2v1.6l43.1 57.7c.8.8 0 1.6-.8 1.6h-25.6a2.7 2.7 0 0 1-2-1.6c-7.4-9.7-26-36.4-35.8-49.6v49.6a1.4 1.4 0 0 1-1 1.6h-22.2a1.4 1.4 0 0 1-1.6-1.6V170.3a1.4 1.4 0 0 1 1-1.6H288a1.7 1.7 0 0 1 1.6 1.6v90.3h-.2z" transform="translate(-73.2 -77.8)"/></svg>