<svg id="Layer_3" data-name="Layer 3" xmlns="http://www.w3.org/2000/svg" viewBox="0 0 360 360"><defs><style>.cls-1{fill:#fff}.cls-2{fill:none}.cls-3{fill:#cf410f}</style></defs><title>typografier</title><path class="cls-1" d="M0 0h360v360H0z"/><path class="cls-2" d="M282.9 269.5c3.3-37.6-23.4-82.7-32.4-82.7s-35.7 45.1-32.4 82.7c1.4 16.1 6.2 31.6 12.9 42.7a21.1 21.1 0 0 1 1.4 2.4h36.4a21.1 21.1 0 0 1 1.4-2.4c6.5-11 11.3-26.5 12.7-42.7z" transform="translate(-70.5 -70.5)"/><path class="cls-2" d="M250.5 240.6a46.9 46.9 0 0 0-12.3 9.4c4 6.7 8.3 10.4 12.3 10.4s8.3-3.7 12.3-10.4a46.9 46.9 0 0 0-12.3-9.4z" transform="translate(-70.5 -70.5)"/><circle class="cls-3" cx="180" cy="180" r="145.1"/><path class="cls-1" d="M278.7 288.5a110.6 110.6 0 0 0 11.3-38.7c3.8-36-19.1-84.9-36.8-89.2l-.3-2.2 4.9-.8h-5.1l-1.4-24h-1.1l-1.4 24h-5.1l4.9.8-.3 3.9c-17.7 4.3-40.6 52.4-36.8 88.4a108.5 108.5 0 0 0 11.1 37.9c-10.9 13.7-16.1 43.9-16.1 66.1 0 3.4.2 9.8.5 12.8h10.6c.8-20 7.1-40.3 16.7-52.8v-1.5c3.1 4.7 6.4 10.5 10.1 12.4l2.3 41.9h8l2.3-42.7c3.6-1.9 6.9-3.7 9.9-8.3 9.5 12.5 15.8 32 16.5 51H294c.3-3 .5-9.6.5-13 0-22-5.1-52.2-15.8-66zm-9.8 5.9A77.1 77.1 0 0 1 263 307c-4 6.7-8.3 10.4-12.3 10.4s-8.3-3.7-12.3-10.4a77.1 77.1 0 0 1-5.9-12.6l-1.4-2.1c-6.7-11-11.4-26.3-12.9-42.4-3.3-37.6 23.4-82.7 32.4-82.7s35.7 45.1 32.4 82.7c-1.4 16.1-6.2 31.4-12.9 42.4z" transform="translate(-70.5 -70.5)"/></svg>