<svg id="Layer_3" data-name="Layer 3" xmlns="http://www.w3.org/2000/svg" viewBox="0 0 360 360"><defs><style>.cls-1{fill:#fff}.cls-2{fill:#f05722}.cls-3{fill:#43459d}</style></defs><title>typogui</title><path class="cls-1" d="M0 0h360v360H0z"/><circle class="cls-2" cx="180" cy="180" r="156"/><path class="cls-3" d="M191.5 200.3q-24.4 0-38.9 14.4t-14.5 38q0 23.3 13 36.3t36.5 13q14.2 0 24.2-4.5a46.9 46.9 0 0 0 13.2-9.2 48.4 48.4 0 0 0 10.5-15.2 60.2 60.2 0 0 0 5.2-25.2q0-21.7-13.1-34.7t-36.1-12.9zm22.5 75.6q-3 9.9-8.9 14.4a23.6 23.6 0 0 1-14.6 4.5q-12.6 0-19.3-8.8-9.1-11.8-9.1-36.8a71.2 71.2 0 0 1 3.2-22.1q3.2-9.8 9.6-14.4a24.5 24.5 0 0 1 14.6-4.6 23.7 23.7 0 0 1 12.6 3.2 24.2 24.2 0 0 1 8.3 8.3q3.1 5.2 4.9 14.3a99.6 99.6 0 0 1 1.8 19.1 80.2 80.2 0 0 1-3.1 22.9zM316.9 292.1a6.4 6.4 0 0 1-1.3-3.9q-.3-3.9-.3-19.6 0-19.4-.6-23.3a14.4 14.4 0 0 0-4.9-9.1q-4-3.5-11.6-3.5a19.4 19.4 0 0 0-9.4 2.1 49.7 49.7 0 0 0-12.5 10.9v-4.2q0-8.2.6-23.3.5-10.6 1.2-17.1l-3.4-2.1a78.5 78.5 0 0 1-11.2 5.1 124.3 124.3 0 0 1-16.2 4.4v5a38.7 38.7 0 0 1 6.3-.6 4 4 0 0 1 3.4 1.1 6.3 6.3 0 0 1 1.1 4.2l.2 30q0 28.2-.5 38-.3 4.6-1.6 6.2c-.6.7-3 1.5-6.7 2.4-.4.1-1.9.3-1.9.5v4.8c10-.5 17.1-.8 19.9-.8s10.1.3 17.1.8v-4.8c-4-.6-5.3-1.4-6.2-2.2a5.2 5.2 0 0 1-1.6-3.4c-.2-1.4-.2-7.3-.2-17.6s.2-15 .7-16.9a12 12 0 0 1 4.2-6.8 10.9 10.9 0 0 1 7-2.5 8.4 8.4 0 0 1 6.3 2.3q2.3 2.3 2.7 7.9.1 1.2.1 30.5c0 3-.1 4.9-.8 5.8s-4 1.9-7 2.9v4.8c7-.5 12.5-.8 17.3-.8s10.7.3 17.7.8v-4.8l-2.1-.7c-3.6-.9-5-1.7-5.8-2.5zM353.1 271.6c3.9-32 7.2-54.2 9.8-68.5l-3.4-2.7c-5.4 2.2-12.5 4.9-21.4 7.7 2.3 13.6 5.2 35.5 8.6 63.5h6.4zM350 277.3a11.7 11.7 0 0 0-8.6 3.6 11.9 11.9 0 0 0-3.5 8.7 12.2 12.2 0 1 0 12.1-12.3z" transform="translate(-70.5 -70.5)"/></svg>