<svg id="Layer_3" data-name="Layer 3" xmlns="http://www.w3.org/2000/svg" viewBox="0 0 360 360"><defs><style>.cls-1{fill:url(#linear-gradient)}.cls-2{fill:#fff}</style><linearGradient id="linear-gradient" x2="360" y2="360" gradientUnits="userSpaceOnUse"><stop offset="0" stop-color="#ea8917"/><stop offset=".21" stop-color="#eb911c"/><stop offset=".53" stop-color="#efa52a"/><stop offset=".92" stop-color="#f6c740"/><stop offset="1" stop-color="#f7cf45"/></linearGradient></defs><title>vecteezy</title><path class="cls-1" d="M0 0h360v360H0z"/><path class="cls-2" d="M339.2 152.2c6.4 0 12.2 5.8 12.2 5.8L245.2 370.4c-11.7 0-39.8 1.6-46.7 1.6s-12.2-5.8-12.2-5.8l-36.7-235.6c22.3 0 49.9-1.6 57.9-1.6 6.4 0 12.2 5.8 12.2 5.8l11.1 119.8c1.1 9.6 1.1 22.8.5 36.6 3.7-15.4 7.4-29.7 11.1-39.3l44.1-97.7c20.7-.5 45.1-2.1 52.6-2.1z" transform="translate(-70.5 -70.5)"/></svg>