<svg id="Layer_3" data-name="Layer 3" xmlns="http://www.w3.org/2000/svg" viewBox="0 0 360 360"><defs><style>.cls-1{fill:#365d95}.cls-2{fill:#fff}.cls-3{fill-rule:evenodd}</style></defs><title>w3org</title><path class="cls-1" d="M0 0h360v360H0z"/><rect class="cls-2" x="10.5" y="95.5" width="339" height="168.91" rx="12" ry="12"/><path class="cls-1" d="M178 185.7l23.4 79.3 23.3-79.3H288v7.9l-23.8 41a33.2 33.2 0 0 1 19 14.6q6.4 10.6 6.4 24.9 0 17.7-9.4 29.8T255.8 316a29.3 29.3 0 0 1-19.6-7.2q-8.4-7.2-12.4-19.4L237 284a30.1 30.1 0 0 0 7.6 11.7 16.2 16.2 0 0 0 11.2 4.3q6.8 0 11.4-7.6t4.7-18.2q0-11.7-5-18.2t-18.2-7.6h-6.4v-7.7l22.5-38.9h-27.2l-1.5 2.6L203 316h-1.6l-24.1-80.8-24.2 80.8h-1.6l-38.6-130.3h16.9l23.3 79.3 15.8-53.4-7.7-25.9H178z" transform="translate(-70.5 -70.5)"/><path class="cls-3" d="M375.7 192.5c2.5 0 3.6.7 3.6 2.4s-1.1 2.2-3.5 2.2h-2.2v-4.6h2.2zm.5-1.7h-5.3v14h2.6v-6h2.6l2.8 6h2.9l-3.1-6.4a3.6 3.6 0 0 0 3.2-3.8c0-2.5-1.9-3.8-5.8-3.8zm10.4 7.3a10.2 10.2 0 0 1-3.1 7.4 10.8 10.8 0 0 1-7.7 3.1 10.5 10.5 0 0 1-7.5-3.2 10.6 10.6 0 0 1-3.1-7.5 11 11 0 0 1 3.3-7.7 10.3 10.3 0 0 1 7.5-3 10.5 10.5 0 0 1 7.6 3.2 10.6 10.6 0 0 1 3 7.6zm-10.7-12.4a11.7 11.7 0 0 0-8.6 3.5 12.6 12.6 0 0 0-3.7 8.8 12.4 12.4 0 0 0 12.3 12.3 12.6 12.6 0 0 0 8.8-3.7 11.8 11.8 0 0 0 3.6-8.7 12.3 12.3 0 0 0-3.6-8.7 12.1 12.1 0 0 0-8.8-3.7z" transform="translate(-70.5 -70.5)"/><path d="M355.1 185l2.7 16.6-9.7 18.5s-3.7-7.9-9.9-12.2-8.6-4.5-13.9-3.4c-6.8 1.4-14.5 9.6-17.9 19.6-4 12-4.1 17.8-4.2 23.2a52.7 52.7 0 0 0 1.1 13.6s-5.9-10.9-5.8-26.8c0-11.4 1.8-21.7 7.1-31.9s11.5-14.3 17.6-15 11.3 2.4 15.2 5.7 8.1 11 8.1 11l9.5-19zM356.3 279.1s-4.3 7.7-7 10.6-7.4 8.1-13.3 10.7-9 3.1-14.8 2.5-11.2-3.9-13.1-5.3a51 51 0 0 1-9.5-9.4c-2.7-3.9-7-11.6-7-11.6s2.4 7.7 3.9 11a71.9 71.9 0 0 0 7.2 12.7c3.5 4.7 10.3 12.8 20.6 14.6a26.2 26.2 0 0 0 19.2-3.9 52.9 52.9 0 0 0 7.8-6.7 59.3 59.3 0 0 0 6-8c.9-1.5 2.5-4.4 2.5-4.4l-2.5-12.8z" transform="translate(-70.5 -70.5)"/></svg>