<svg id="Layer_3" data-name="Layer 3" xmlns="http://www.w3.org/2000/svg" viewBox="0 0 360 360"><defs><style>.cls-1{fill:url(#linear-gradient)}.cls-2{fill:#fff}</style><linearGradient id="linear-gradient" x1="180" x2="180" y2="360" gradientUnits="userSpaceOnUse"><stop offset="0" stop-color="#a2d91b"/><stop offset=".38" stop-color="#82b412"/><stop offset=".78" stop-color="#66940a"/><stop offset="1" stop-color="#5b8807"/></linearGradient></defs><title>w3school</title><path class="cls-1" d="M0 0h360v360H0z"/><path class="cls-2" d="M277.4 218.2v9.6a6 6 0 0 1-.6 2.7 28.1 28.1 0 0 1-53.3-12.3c0-.8-.3-10.6-.3-10.6h-24v10.6a28.1 28.1 0 0 1-56.2 0h-24.1a52.3 52.3 0 0 0 92.6 33.4 52.2 52.2 0 0 0 90.8-20.4 16.5 16.5 0 0 0 .5-4.1v-8.9h-25.4z" transform="translate(-70.5 -70.5)"/><path class="cls-2" d="M336.1 265.5a26.9 26.9 0 1 1-33.3 26.1h-25.4a52.3 52.3 0 1 0 84.6-41.1 52.3 52.3 0 1 0-84.5-42.9h25.4a26.9 26.9 0 1 1 33.2 27.9l-16.4.9v27.1z" transform="translate(-70.5 -70.5)"/></svg>