<svg id="Layer_3" data-name="Layer 3" xmlns="http://www.w3.org/2000/svg" viewBox="0 0 360 360"><defs><style>.cls-1{fill:#fab23a}.cls-2{fill:#1c2227}</style></defs><title>webdesignerdepot</title><path class="cls-1" d="M0 0h360v360H0z"/><path class="cls-2" d="M386.8 192.2c-.8-25.2-10.4-54.7-35.1-54.7h-1.3c-7 .3-11.6 2-14 5.4s-2.3 5-2.3 8.8a50.4 50.4 0 0 0 1.3 10.1h.5c.9 4.4 2.2 9.1 3.6 13.9 2.8 10 5.6 20.3 5.7 29.8.2 66.4-16.9 91.7-35.4 109.1-8 7.6-16 9.1-21.3 9.1-6.9 0-12.1-6.1-15.4-18.1l-.4-1.3.7-1.1c16.4-25.5 38.1-63.4 37.1-97.2-.4-12-8.1-19.2-20.7-19.2-6.1 0-12.1 3.1-18 9.1-18.2 18.7-30.6 61.3-29.5 101.1v1l-.6.8c-10.6 15.3-19.8 25.4-30.4 25.4s-15.3-6-15.6-15.7 2.1-20.9 8.3-36.8c4.1-10.3 8-19.8 11.6-28.1l.5.2 4.1-9.5c12.2-28.5 20.3-50.6 20.3-66.1v-1.3c-.7-21.4-10.4-29.3-36-29.3-17.7 0-44.1 5-69.1 28.9-18.2 17.4-21 37-21 47.2v1.6c0 .5.2 3.2.3 4.8a18.7 18.7 0 0 0 18.9 16.7 19.5 19.5 0 0 0 8.7-2.1 13.2 13.2 0 0 0 7.3-12 15.3 15.3 0 0 0-.3-3 31.6 31.6 0 0 1-.5-5.3v-.7c0-8.5 4.4-18.2 12.2-26.5 10.5-11.3 21.4-12.2 24.5-12.2s7.1 1.2 8.5 3.3a5 5 0 0 1 .9 2.9 5.6 5.6 0 0 1-.3 1.9c-4.2 11.4-7.6 19.3-15.1 35.9-2.2 4.9-5 11-7.8 17.4l-12.4 30c-9.2 21.7-12.5 40.7-12.5 51.3v1.4c.9 29.1 15.9 44.5 43.2 44.5 20.1 0 38.1-9.1 55-27.8l2.4-2.7 1.7 3.2c7.8 14.8 19.4 22.6 33.7 22.6 18.3 0 36.9-9.1 53.7-26.5 30.8-31.8 50.7-84.6 50.7-134.6-.3-1.9-.4-3.7-.4-5.6z" transform="translate(-70.5 -70.5)"/></svg>