<svg id="Layer_3" data-name="Layer 3" xmlns="http://www.w3.org/2000/svg" viewBox="0 0 290 256"><defs><style>.cls-1{fill:#de1f26}.cls-2{fill:#fff}</style></defs><title>whatfontis</title><path class="cls-1" d="M372.5 122.5h-224l-43 256 75-79H345a23.6 23.6 0 0 0 23-18.5v-.5L395 151v-.5a13.8 13.8 0 0 0 .5-4.5 22.7 22.7 0 0 0-23-23.5z" transform="translate(-105.5 -122.5)"/><path class="cls-2" d="M207.5 272l4-22.5H224l12.5-72.5H224l4-22.5h92.5l-7 38.5h-21l2-16.5H262l-5 27h32.5l-4 22.5H253l-4 23.5h15.5l-4 22.5h-53z" transform="translate(-105.5 -122.5)"/></svg>