<svg id="Layer_3" data-name="Layer 3" xmlns="http://www.w3.org/2000/svg" viewBox="0 0 360 360"><defs><style>.cls-1{fill:#313c47}.cls-2{fill:url(#linear-gradient)}.cls-3{fill:url(#linear-gradient-2)}</style><linearGradient id="linear-gradient" x1="2.28" y1="533.68" x2="2.28" y2="532.81" gradientTransform="matrix(200.81 0 0 -62.59 -136.89 33624.68)" gradientUnits="userSpaceOnUse"><stop offset="0" stop-color="#eb8b2d"/><stop offset="1" stop-color="#f1ae42"/></linearGradient><linearGradient id="linear-gradient-2" x1="2.5" y1="533.62" x2="2.5" y2="532.75" gradientTransform="matrix(160.3 0 0 -61.64 -238.94 33117.98)" gradientUnits="userSpaceOnUse"><stop offset="0" stop-color="#5f5f62"/><stop offset="1" stop-color="#8a8a8d"/></linearGradient></defs><title>workflower</title><path class="cls-1" d="M0 0h360v360H0z"/><g id="Page-1"><g id="workflower"><path id="Shape" class="cls-2" d="M243.3 252.3v23.3h-6.9v-23.3H234v-6.4h2.4v-11.5q0-5.6 2-7.9t7.8-3.2a13.4 13.4 0 0 1 4.6 1.1v7l-.7-.4a8.6 8.6 0 0 0-3.7-1.1 2.5 2.5 0 0 0-2.5 1.3 12.6 12.6 0 0 0-.6 4.9v9.8h7.5v6.4h-7.5zm19.3-28.3v51.5h-6.9V224h6.9zm7.3 36.5a14.8 14.8 0 0 1 4.6-11 16.3 16.3 0 0 1 22.5 0 15.9 15.9 0 0 1 0 22.4 15.7 15.7 0 0 1-11.4 4.5 15.1 15.1 0 0 1-11.2-4.6 15.4 15.4 0 0 1-4.5-11.4zm7 .1a10 10 0 0 0 2.4 7 9.2 9.2 0 0 0 12.9 0 11.2 11.2 0 0 0 0-13.9 9.1 9.1 0 0 0-12.8 0 9.5 9.5 0 0 0-2.4 6.8zm34.5-14.8l7.8 17 8.4-19.7 8.5 19.7 7.7-17h7.7l-15.6 31.9-8.3-19.1-8.4 19.1-15.5-31.9h7.7zm70.8 16.5h-21.4a9 9 0 0 0 2.4 5.8 7.3 7.3 0 0 0 5.4 2.1 7 7 0 0 0 4.2-1.2 17.4 17.4 0 0 0 3.8-4.5l5.8 3.2a23.1 23.1 0 0 1-2.8 3.9 15.1 15.1 0 0 1-3.2 2.7 12.9 12.9 0 0 1-3.7 1.5 18 18 0 0 1-4.3.5 14 14 0 0 1-10.7-4.3q-4-4.3-4-11.4t3.9-11.4A13.5 13.5 0 0 1 368 245q6.6 0 10.4 4.2t3.8 11.5v1.6zm-7-5.6q-1.4-5.5-6.9-5.5a7.1 7.1 0 0 0-2.3.4 6.7 6.7 0 0 0-2 1.1 7 7 0 0 0-1.5 1.7 8 8 0 0 0-1 2.3h13.8zm14.6-10.9h6.9v2.7a13.1 13.1 0 0 1 3.4-2.7 7.7 7.7 0 0 1 3.5-.8 11.1 11.1 0 0 1 5.7 1.8l-3.1 6.3a6.6 6.6 0 0 0-3.8-1.4q-5.6 0-5.6 8.5v15.4h-6.9v-29.8z" transform="translate(-70.5 -70.5)"/><path id="Shape-2" data-name="Shape" class="cls-3" d="M99.6 245.8l7.8 17 8.4-19.7 8.5 19.7 7.7-17h7.7l-15.6 31.9-8.3-19.1-8.4 19.1-15.5-31.9h7.7zm42.1 14.6a14.8 14.8 0 0 1 4.6-11 16.3 16.3 0 0 1 22.5 0 15.9 15.9 0 0 1 0 22.4 15.7 15.7 0 0 1-11.4 4.5 15.1 15.1 0 0 1-11.2-4.6 15.4 15.4 0 0 1-4.5-11.4zm7 .1a10 10 0 0 0 2.4 7 9.2 9.2 0 0 0 12.9 0 11.2 11.2 0 0 0 0-13.9 9.1 9.1 0 0 0-12.8 0 9.5 9.5 0 0 0-2.4 6.8zm31.9-14.8h6.9v2.7a13.1 13.1 0 0 1 3.4-2.7 7.7 7.7 0 0 1 3.5-.8 11.1 11.1 0 0 1 5.7 1.8L197 253a6.6 6.6 0 0 0-3.8-1.4q-5.6 0-5.6 8.5v15.4h-6.9v-29.7zm31.3-21.7v31.4l9.7-9.6h9.2l-12.9 12.5 13.9 17.2h-8.9L213 263l-1.1 1.1v11.4H205V224h6.9z" transform="translate(-70.5 -70.5)"/></g></g></svg>