<svg xmlns="http://www.w3.org/2000/svg" style="display: none;">
	<symbol id="Code_Editor_&_Software" viewBox="0 0 560 560">
	<path d="M274 0C122.7 0 0 122.7 0 274s122.7 274 274 274 274-122.7 274-274S425.3 0 274 0zm112 54.7a28.1 28.1 0 0 1 25 40.4l-1.1 2.2-50.3-24.6 1.1-2.2A28 28 0 0 1 386 54.7zM357.5 77l50.3 24.6-1 2.1L356.4 79zm-2.1 4.2l50.3 24.6-1 2.1-50.3-24.7zm-3.1 6.4l50.3 24.6-37.4 76.6h-62.4zm-216 101.7h166.3L254 288.7c-6.6 13.6-5.3 70.7-5.2 73.8H131.2v-49.8h54.3v-27.2h-54.3v-29.4h86V229h-86v-34.8a5 5 0 0 1 5.1-5zm228.7 0h54.1a5 5 0 0 1 5 5v209.5a5 5 0 0 1-5 5H136.3a5 5 0 0 1-5-5v-14.2h151.5v-27.1h-33.3c4.1-3 48.3-35.9 54.8-49.2zM390.9 364a.3.3 0 0 0-.3.3v2.6a17.8 17.8 0 0 0-6.9 2.8l-1.8-1.8a.3.3 0 0 0-.4 0l-4.2 4.2a.3.3 0 0 0 0 .4l1.9 1.9a17.8 17.8 0 0 0-2.9 6.9h-2.6a.3.3 0 0 0-.3.3v5.9a.3.3 0 0 0 .3.3h2.6a17.8 17.8 0 0 0 2.8 6.9l-1.8 1.8a.3.3 0 0 0 0 .4l4.2 4.2a.3.3 0 0 0 .4 0l1.9-1.9a17.8 17.8 0 0 0 6.9 2.9v2.6a.3.3 0 0 0 .3.3h5.9a.3.3 0 0 0 .3-.3v-2.6a17.8 17.8 0 0 0 6.7-2.7v-8.8a11.6 11.6 0 1 1 0-11.9v-8.8a17.8 17.8 0 0 0-6.7-2.8v-2.6a.3.3 0 0 0-.3-.3H391zm15.1 3.8h-.2l-1.9 1.8v8.9a11.5 11.5 0 0 1 0 11.5v9l1.8 1.8a.3.3 0 0 0 .4 0l4.2-4.2a.3.3 0 0 0 0-.4l-1.9-1.9a17.8 17.8 0 0 0 2.8-6.9h2.6a.3.3 0 0 0 .3-.3v-5.9a.3.3 0 0 0-.3-.3h-2.6a17.8 17.8 0 0 0-2.8-6.9l1.8-1.8a.3.3 0 0 0 0-.4l-4.2-4.2h-.2zm-13.6 6.4h-.1v1.3a8.9 8.9 0 0 0-3.4 1.4l-.9-.9h-.2l-2.1 2.1a.1.1 0 0 0 0 .2l.9.9a8.9 8.9 0 0 0-1.4 3.4h-1.4v3h1.4a8.9 8.9 0 0 0 1.4 3.4l-.9.9a.1.1 0 0 0 0 .2l2.1 2.1h.2l.9-.9a8.9 8.9 0 0 0 3.4 1.4v1.3h3.2v-1a8.9 8.9 0 0 0 3.4-1.4v-4.4a5.8 5.8 0 1 1 0-6v-4.4a8.9 8.9 0 0 0-3.4-1.4v-1.3h-3.1zm7.5 1.9h-.1l-.9.9v4.4a5.8 5.8 0 0 1 0 5.8v4.5l.9.9h.2l2.1-2.1a.1.1 0 0 0 0-.2l-.9-.9a8.9 8.9 0 0 0 1.4-3.4h1.4v-3h-1.4a8.9 8.9 0 0 0-1.4-3.4l.9-.9a.1.1 0 0 0 0-.2l-2.1-2.1h-.1z"/>
	</symbol>
	<symbol id="Color_Tools_&_Site" viewBox="0 0 560 560">
	<path d="M280 0C125.4 0 0 125.4 0 280s125.4 280 280 280 280-125.4 280-280S434.6 0 280 0zm105.9 82.8a47.3 47.3 0 0 1 22.7 6.2c10.6 6.1 19.6 17.5 21.6 29.6 6.4 39.4-20.2 65.1-73.5 118.3-15 15-26.1 19.8 5.7 38.1 26.5 15.3 24.8 27.1 17.8 40.6l-153.7-88.7c8.1-12.8 17.5-20.2 44-4.9 31.8 18.4 30.4 6.4 35.9-14.1 19.5-72.7 28.4-108.6 65.7-122.8a37.9 37.9 0 0 1 13.8-2.3zm-2.9 28.3a21.2 21.2 0 1 0 11.1 2.8 21.2 21.2 0 0 0-11.1-2.8zM225.6 228.3l153.8 88.8-1.1 2-153.9-88.9 1.1-1.9zm-2 3.4l153.9 88.8-1.1 1.9-153.9-88.8 1.1-1.9zm-2 3.4l153.9 88.8-1.2 1.9-2.4-1.4-12.3 21.3-14.3 24.8-9.8 17-1.6-.9 31.4-54.4-1.5-.8-7.6 13.2 1.4.8-3.9 6.8-5.6 9.7-3.9 6.8-1.4-.8-10.4 18-1.9-1.1 31.5-54.5-1.5-.8-6 10.3-1.4-.8-5.6 9.7-5.6 9.7-5.6 9.7 1.4.8-3.9 6.8 1.4.8-4.8 8.4-1.5-.8-1.9-1.1 30-51.7-1.5-.8-4.3 7.4 1.4.8-5.6 9.7-5.6 9.7-5.6 9.7-1.4-.8-7.3 12.6 1.4.8-1.5 2.6-1.5-.8-1.9-1.1 31.4-54.4-1.5-.8-9.3 16.1 1.4.8-2.2 3.9-5.6 9.7-2.2 3.9-1.4-.8-11.8 20.5-1.9-1.1 29.8-51.5-1.5-.8-7.6 13.2-1.4-.8-2.2 3.9-5.6 9.7-2.2 3.9 1.4.8-10.6 18.4 1.4.8-1.5 2.6-1.5-.8-1.9-1.1 31.4-54.4-1.5-.8-9.3 16.1 1.4.8-2.2 3.9-5.6 9.7-2.2 3.9-1.4-.8-10.6 18.4 1.4.8-1.5 2.6-1.5-.8-1.9-1.1 29.8-51.5-1.5-.8-2.6 4.5-1.4-.8-7.3 12.6-5.6 9.7-7.3 12.6 1.4.8-.6 1 1.4.8-6.5 11.3-1.5-.8-1.9-1.1 31.4-54.4-1.5-.8-4.3 7.4 1.4.8-7.3 12.6-5.6 9.7-7.3 12.6-1.4-.8-4.5 7.7 1.4.8-2.6 4.5-1.5-.8-1.9-1.1 28.6-49.6-1.5-.8-2.6 4.5-1.4-.8-6.1 10.6-5.6 9.7-6.1 10.6 1.4.8-2.8 4.8 1.4.8-5.4 9.3-1.5-.8-1.9-1.1 31.4-54.4-1.5-.8-5.4 9.3 1.4.8-6.1 10.6-5.6 9.7-6.1 10.6-1.4-.8-8.2 14.1-1.9-1.1 29.8-51.5-1.5-.8-8.2 14.2-1.4-.8-1.7 2.9-5.6 9.7-1.7 2.9 1.4.8-11.7 20.3 1.4.8-.9 1.6-1.5-.8-1.9-1.1 31.4-54.4-1.5-.8-8.8 15.2-1.4-.8-2.8 4.8-5.6 9.7-2.8 4.8 1.4.8-8.2 15.5 1.4.8-2 3.5-1.5-.8-1.9-1.1 28.6-49.6-1.5-.8-6 10.3 1.4.8-2.8 4.8-5.6 9.7-2.8 4.8-1.4-.8-11.5 19.9-1.9-1.1 31.6-54.4-1.5-.8-9.9 17.1-1.4-.8-1.7 2.9-5.6 9.7-1.7 2.9 1.4.8-11.7 20.3 1.4.8-.9 1.6-1.5-.8-1.9-1.1 30-51.6-1.5-.8-8.2 14.2 1.4.8-1.7 2.9-5.6 9.7-1.7 2.9-1.4-.8-12.6 21.9-1.9-1.1 31.5-54.5-1.5-.8-8.8 15.2-1.4-.8-2.8 4.8-5.6 9.7-2.8 4.8 1.4.8-9.5 16.5 1.4.8-2 3.5-1.5-.8-1.9-1.1 29.2-50.6-1.5-.8-6.5 11.3 1.4.8-2.8 4.8-5.6 9.7-2.8 4.8-1.4-.8-11.5 19.9-1.9-1.1 31.4-54.4-1.5-.8-3.2 5.5-1.4-.8-8.4 14.5-5.6 9.7-8.4 14.5 1.4.8 1.7-2.9 1.5.8-7.6 13.2-1.5-.8-1.9-1.1 29.2-50.6-1.5-.8-.9 1.6 1.4.8-8.4 14.5-5.6 9.7-8.4 14.5-1.4-.8-5.5 10-1.9-1.1 31.4-54.4-1.5-.8-9.3 16.1-1.4-.8-2.2 3.9-5.6 9.7-2.2 3.9 1.4.8-10.6 18.4 1.4.8-1.5 2.6-1.5-.8-1.9-1.1 25.8-44.8-1.5-.8-3.7 6.4 1.4.8-2.2 3.9-5.6 9.7-2.2 3.9-1.4-.8-12.1 20.9-1.9-1.1 31.4-54.4-1.5-.8-11 19 1.4.8-.6 1-5.6 9.7-.6 1-1.4-.8-13.3 23.4-1.9-1.1 31.4-54.4-1.5-.8-5.4 9.3-1.4-.8-6.2 10.6-5.6 9.7-6.1 10.6 1.4.8-2.8 4.8 1.4.8-5.4 9.3-1.5-.8-1.9-1.1 29.8-51.5-1.5-.8-3.7 6.4 1.4.8-6.1 10.6-5.6 9.7-6 10.8-1.4-.8-8.2 14.1-1.9-1.1 31.4-54.4-1.5-.8-8.6 15-1.4-.8-2.8 4.8-5.6 9.7-2.8 4.8 1.4.8-9.5 16.5 1.4.8-2 3.5-1.5-.8-1.9-1.1 23.6-40.9-1.5-.8-.9 1.6 1.4.8-2.8 4.8-5.6 9.7-2.8 4.8-1.4-.8-11.5 19.9-1.9-1.1 31.5-54.4-1.5-.8-8.8 15.2-1.4-.8-2.8 4.8-5.6 9.7-2.8 4.8 1.4.8-9.3 16.5 1.4.8-2 3.5-1.5-.8-1.9-1.1 29.2-50.6-1.5-.8-6.5 11.3 1.4.8-2.8 4.8-5.6 9.7-2.8 4.8-1.4-.8-11.5 19.9-1.9-1.1 31.4-54.4-1.5-.8-9.3 16.1-1.4-.8-2.2 3.9-5.6 9.7-2.2 3.9 1.4.8-10.5 18.2 1.4.8-1.5 2.6-1.5-.8-1.9-1.1 30.3-52.5-1.5-.8-8.2 14.2 1.4.8-2.2 3.9-5.6 9.7-2.2 3.9-1.4-.8-12.1 20.9-1.9-1.1 31.4-54.4-1.5-.8-7.9 13.9-1.4-.8-3.4 5.8-5.6 9.7-3.4 5.8 1.4.8-8.4 14.5 1.4.8-2.6 4.5-1.5-.8-1.9-1.1L259 276l-1.5-.8-6 10.3 1.4.8-3.4 5.8-5.6 9.7-3.4 5.8-1.4-.8-10.9 19-1.9-1.1 30.3-52.5-1.5-.8-8.2 14.2-1.4-.8-2.2 3.9-5.6 9.7-2.2 3.9 1.4.8-10.6 18.4 1.4.8-1.5 2.6-1.5-.8-1.9-1.1 31.4-54.4-1.5-.8-9.3 16.1 1.4.8-2.2 3.9-5.6 9.7-2.2 3.9-1.4-.8-12.1 20.9-1.9-1.1 26.2-45.2-1.5-.8-2.6 4.5-1.4-.8-3.4 5.8-5.6 9.7-3.4 5.8 1.4.8-8.4 14.5 1.4.8-2.6 4.5-1.5-.8-1.9-1.1 28.9-49.7-1.5-.8-5.4 9.3 1.4.8-3.4 5.8-5.6 9.7-3.4 5.8-1.4-.8-10.9 19-1.9-1.1 24.8-42.9-1.5-.8-2.6 4.5-1.4-.8-2.2 3.9-5.6 9.7-2.2 3.9 1.4.8-10.6 18.3 1.4.8-1.5 2.6-1.5-.8-1.9-1.1 29.8-51.5-1.5-.8-7.6 13.2 1.4.8-2.2 3.9-5.6 9.7-2.2 3.9-1.4-.8-12.1 20.9-1.9-1.1 29.8-51.5-1.5-.8-7.5 12.9-1.4-.8-2.2 3.9-5.6 9.7-2.2 3.9 1.4.8-10.6 18.4 1.4.8-1.5 2.6-1.5-.8-1.9-1.1 31.4-54.4-1.5-.8-9.3 16.1 1.4.8-2.2 3.9-5.6 9.7-2.2 3.9-1.4-.8-12.1 20.9-1.9-1.1 29.8-51.5-1.5-.8-7.5 12.9-1.4-.8-2.2 3.9-5.6 9.7-2.2 3.9 1.4.8-10.6 18.4 1.4.8-1.5 2.6-1.5-.8-1.9-1.1 26.4-45.7-1.5-.8-4.3 7.4 1.4.8-2.2 3.9-5.6 9.7-2.2 3.9-1.4-.8-12.1 20.9-1.9-1.1 31.4-54.4-1.5-.8-11 19 1.4.8-.6 1-5.6 9.7-.6 1-1.4-.8-13.7 23.8-1.9-1.1 28.1-48.6-1.5-.8-7.4 12.6 1.4.8-.6 1-5.6 9.7-.6 1-1.4-.8-13.7 23.8-1.6-.9 36.5-63.2-2.4-1.4 1.1-2zm-11.2 33.1l-.6 1-5.6 9.7-.6 1 1.4.8.6-1 5.6-9.7.6-1zm3.4 1.9l-.6 1-5.6 9.7-.6 1 1.4.8.6-1 5.6-9.7.6-1zm4.8 2.8l1.5.8-.6 1-5.6 9.7-.6 1-1.5-.8.6-1 5.6-9.7zm1.9 1.1l-.6 1-5.6 9.7-.6 1 1.4.8.6-1 5.6-9.7.6-1zm4.8 2.8l1.5.8-.6 1-5.6 9.7-.6 1-1.5-.8.6-1 5.6-9.7zm1.9 1.1l-.6 1-5.6 9.7-.6 1 1.4.8.6-1 5.6-9.7.6-1zm4.8 2.8l1.5.8-.6 1-5.6 9.7-.6 1-1.5-.8.6-1 5.6-9.7zm1.9 1.1l-.6 1-5.6 9.7-.6 1 1.4.8.6-1 5.6-9.7.6-1zm4.8 2.8l1.5.8-.6 1-5.6 9.6-.6 1-1.5-.8.6-1 5.6-9.7zm1.9 1.1l-.6 1-5.6 9.7-.6 1 1.4.8.6-1 5.6-9.7.6-1zm4.8 2.8l1.5.8-.6 1-5.6 9.7-.6 1-1.5-.8.6-1 5.6-9.7zm1.9 1.1l-.6 1-5.6 9.7-.6 1 1.4.8.6-1 5.6-9.7.6-1zm4.8 2.8l1.5.8-.6 1-5.6 9.7-.6 1-1.5-.8.6-1 5.6-9.7zm1.9 1.1l-.6 1-5.6 9.7-.6 1 1.4.8.6-1 5.6-9.7.6-1zm4.8 2.8l1.5.8-.6 1-5.6 9.7-.6 1-1.5-.8.6-1 5.6-9.7zm1.9 1.1l-.6 1-5.6 9.7-.6 1 1.4.8.6-1 5.6-9.7.6-1zm4.8 2.8l1.5.8-.6 1-5.6 9.7-.6 1-1.5-.8.6-1 5.7-9.9zm1.9 1.1l-.6 1-5.6 9.7-.6 1 1.4.8.6-1 5.6-9.7.6-1zm4.8 2.8l1.5.8-.6 1-5.6 9.7-.6 1-1.5-.8.6-1 5.6-9.7zm-165.1.1h83.2l11 6.4h-94.1V304zm167 1l-.6 1-5.6 9.7-.6 1 1.4.8.6-1 5.6-9.7.6-1zm4.8 2.8l1.5.8-.6 1-5.6 9.7-.6 1-1.5-.8.6-1 5.6-9.7zm1.9 1.1l-.6 1-5.6 9.7-.6 1 1.4.8.6-1 5.6-9.7.6-1zm3.4 1.9l-.6 1-5.6 9.7-.6 1 1.4.8.6-1 5.6-9.7.6-1zm4.8 2.8l1.5.8-.6 1-5.6 9.7-.6 1-1.5-.8.6-1 5.6-9.7zm1.9 1.1l-.6 1-5.6 9.7-.6 1 1.4.8.6-1 5.6-9.7.6-1zm4.8 2.8l1.5.8-.6 1-5.6 9.7-.6 1-1.5-.8.6-1 5.6-9.7zm1.9 1.1l-.6 1-5.6 9.7-.6 1 1.4.8.6-1 5.6-9.7.6-1zm4.8 2.8l1.5.8-.6 1-5.6 9.7-.6 1-1.5-.8.6-1 5.6-9.7zm1.9 1.1l-.6 1-5.6 9.7-.6 1 1.4.8.6-1 5.6-9.7.6-1zM139 323h83.5l16.5 9.6H139V323zm170.1 2.4l1.5.8-.6 1-5.6 9.7-.6 1-1.5-.8.6-1 5.6-9.7zm1.9 1.1l-.6 1-5.4 9.5-.6 1 1.4.8.6-1 5.6-9.7.6-1zm5.9.8l1.5.8-1.7 2.9-5.6 9.7-1.7 2.9-1.5-.8 1.7-2.9 5.6-9.7zm11.8 2.9l1.5.8-3.4 5.8-5.6 9.7-3.4 5.8-1.5-.8 3.4-5.8 5.6-9.7zm-9.5 1l1.5.8-.6 1-5.6 9.7-.6 1-1.5-.8.6-1 5.6-9.7zm11.4.2l-3.4 5.8-5.6 9.7-3.4 5.8 1.4.8 3.4-5.8 5.6-9.7 3.4-5.8zm-9.5 1l-.6 1-5.6 9.7-.6 1 1.4.8.6-1 5.6-9.7.6-1zm13.2 3.7l1.5.8-2.2 3.9-5.6 9.7-2.2 3.9-1.5-.8 2.2-3.9 5.6-9.7zm1.9 1.1l-2.2 3.9-5.6 9.7-2.2 3.9 1.4.8 2.2-3.9 5.6-9.7 2.2-3.9zm3.1 5.7l1.5.8-.6 1-5.6 9.7-.6 1-1.5-.8.6-1 5.6-9.7zm7 .2l-2.2 3.9-5.6 9.7-2.2 3.9 1.4.8 2.2-3.9 5.6-9.7 2.2-3.9zm-5 1l-.6 1-5.6 9.7-.6 1 1.4.8.6-1 5.6-9.7.6-1zm-168.6.2h86.4l13.7 8h-100v-8zm176.8 4.5l1.5.8-.6 1-5.6 9.7-.6 1-1.5-.8.6-1 5.6-9.7zm1.9 1.1l-.6 1-5.6 9.7-.6 1 1.4.8.6-1 5.6-9.7.6-1zm-164.2 14.5h107l13.7 8H187.2v-8zm-96 13.2h225.5l16.5 9.6h-242v-9.6z"/>
	</symbol>
	<symbol id="CSS_Learning_Center" viewBox="0 0 560 560">
	<path d="M280 0C125.4 0 0 125.4 0 280s125.4 280 280 280 280-125.4 280-280S434.6 0 280 0zM167.1 115.4a20.1 20.1 0 0 1 20.3 20 17.8 17.8 0 0 1-6.2 13.6 21.2 21.2 0 0 1-14.1 4.8h.1c-10.8 0-17.2 1.6-21 3.6a14.6 14.6 0 0 0-6.9 7.5c-.7 1.4-.7 7.4.4 14.2s2.7 14.4 2.9 21.3c.3 15.6 4.3 33.3-1.9 49.9-3.9 10.5-9.4 22.7-19.9 29.9 10.5 7.2 15.9 19.4 19.9 29.9 6.3 16.6 2.3 34.3 1.9 49.9-.1 6.8-1.8 14.5-2.9 21.3s-1.1 12.8-.4 14.2a14.6 14.6 0 0 0 6.9 7.5c3.8 2 10.2 3.6 21 3.6h-.1a21.2 21.2 0 0 1 14.1 4.8 17.8 17.8 0 0 1 6.2 13.6 20.1 20.1 0 0 1-20.3 20c-30.2 0-53.7-12.3-63.3-31.9s-1.5-39.8-.4-55.6c.6-8.7 2-16 2.5-22s.2-10.8-2-15.1c-5.8-11.3-14.1-19.5-21.2-25.3-3.5-2.9-6.7-5.3-9.2-7.3a29 29 0 0 1-3.2-2.9 6 6 0 0 1 0-9 29 29 0 0 1 3.2-2.9c2.5-2 5.6-4.3 9.2-7.3 7-5.9 15.4-14 21.2-25.3 2.2-4.3 2.5-9 2-15.1s-1.9-13.4-2.5-22c-1.1-15.9-9.2-35.9.4-55.6s33.1-31.8 63.3-31.9zm225.7 0c30.2 0 53.7 12.3 63.3 31.9s1.5 39.8.4 55.6c-.6 8.7-2 16-2.5 22s-.2 10.8 2 15.1c5.8 11.3 14.1 19.5 21.2 25.3 3.5 2.9 6.7 5.3 9.2 7.3a29 29 0 0 1 3.2 2.9 6 6 0 0 1 0 9 29 29 0 0 1-3.2 2.9c-2.5 2-5.6 4.3-9.2 7.3-7 5.9-15.4 14-21.2 25.3-2.2 4.3-2.5 9-2 15.1s1.9 13.4 2.5 22c1.1 15.9 9.2 35.9-.4 55.6s-33.1 31.8-63.3 31.9a20.1 20.1 0 0 1-20.3-20 17.8 17.8 0 0 1 6.2-13.6 21.2 21.2 0 0 1 14.1-4.8h-.1c10.8 0 17.2-1.6 21-3.6a14.6 14.6 0 0 0 6.9-7.5c.7-1.4.7-7.4-.4-14.2s-2.7-14.4-2.9-21.3c-.3-15.6-4.3-33.3 1.9-49.9 3.9-10.5 9.4-22.7 19.9-29.9-10.5-7.2-15.9-19.4-19.9-29.9-6.3-16.6-2.3-34.3-1.9-49.9.1-6.8 1.8-14.5 2.9-21.3s1.1-12.8.4-14.2a14.6 14.6 0 0 0-6.9-7.5c-3.8-2-10.2-3.6-21-3.6h.1a21.2 21.2 0 0 1-14.1-4.8 17.8 17.8 0 0 1-6.2-13.6 20.1 20.1 0 0 1 20.3-20zM280 186.6a27.8 27.8 0 1 1-27.8 27.8 27.8 27.8 0 0 1 27.8-27.8zm0 131.2a27.8 27.8 0 1 1-27.8 27.8 27.8 27.8 0 0 1 27.8-27.7z"/>
	</symbol>
	<symbol id="Design_&_Coding_Inspiration" viewBox="0 0 560 560">
	<path d="M280 0C125.4 0 0 125.4 0 280s125.4 280 280 280 280-125.4 280-280S434.6 0 280 0zm0 102.2c5.6 0 10.1 9.4 10.1 21.1v10.3l.3 19c.2 11.7-4.1 21.2-9.7 21.3s-10.2-9.2-10.5-21v-2.5h-.3v-24.6h.1v-2.5c0-11.7 4.5-21.1 10.1-21.1zm-42.1 5.5c5.1 0 11.1 7.6 13.9 18l.8 3.1 7 26.3c3 11.3 1.1 21.6-4.3 23l-1.3.2c-5.1 0-11.1-7.6-13.9-18l-.8-3.1-7-26.3c-3-11.3-1.1-21.6 4.3-23zm84.2 0l1.3.2c5.3 1.4 7.2 11.3 4.4 22.4h.2l-7.2 26.2c-2.8 10.4-8.9 18-14 17.9l-1.3-.2c-5.3-1.4-7.1-11.3-4.3-22.3h-.1l7-26.3c2.9-10.3 8.9-17.9 14-17.9zM199 123.9c4.4.1 10.1 4.4 14.8 11.2h.1l13.7 23.5c5.9 10.1 6.8 20.5 1.9 23.3a5.4 5.4 0 0 1-2.8.7c-4.4 0-10.2-4.4-14.9-11.2h-.2L198 148l-.7-1.3-.9-1.5h.1c-4.5-9.2-4.7-18-.4-20.5a5.4 5.4 0 0 1 2.8-.7zm162 0a5.4 5.4 0 0 1 2.8.7c4.8 2.8 4 13-1.7 23.1h.1l-6.9 11.9-6.9 11.9h-.1c-4.9 8.3-11.6 13.7-16.5 13.7a5.4 5.4 0 0 1-2.8-.7c-4.8-2.8-3.9-13.2 2-23.3l6.8-11.6 6.7-11.6c4.8-8.4 11.6-13.9 16.5-14zm-195 25.7c4.6 0 11.1 3.3 16.9 8.8l19.2 19.1c8.3 8.3 11.8 18.1 7.9 22a6.2 6.2 0 0 1-4.6 1.6c-4.6 0-11.1-3.2-16.9-8.8h-.1l-19.2-19.2c-8.3-8.3-11.8-18.1-7.8-22.1a6.2 6.2 0 0 1 4.6-1.6zm227.9 0a6.2 6.2 0 0 1 4.6 1.6c3.7 3.7.8 12.6-6.4 20.5h.1L373 191l-1.2 1.2-.4.4c-5.5 5-11.6 7.9-15.9 7.9a6.2 6.2 0 0 1-4.6-1.6c-3.7-3.7-.8-12.6 6.4-20.5h-.1l19.2-19.2c6-6 12.7-9.4 17.5-9.5zm-121.4 33h14.9c54 5.8 80.2 47.2 79.6 83-.9 59.4-51.7 63.8-51.8 114.7v12.1h-20.7v-38.6l16.7-61.2a9.8 9.8 0 0 0-2-19.4 9.8 9.8 0 0 0-9.6 8 9.8 9.8 0 0 0-14.2 5.1 9.8 9.8 0 0 0-10.8 0 9.8 9.8 0 0 0-14.2-5.1 9.8 9.8 0 0 0-19.5 1.8 9.8 9.8 0 0 0 9.4 9.8l17.3 63.3v36.3h-22.8v-12.1c-.1-50.9-51-55.3-51.8-114.7-.6-35.9 25.5-77.2 79.5-83zm-130.3.3c4.5 0 10.3 1.7 16 5l1.1.7L183 202c10.1 5.9 16.1 14.5 13.3 19.3-1.2 2.1-3.9 3.1-7.4 3.1s-10.3-1.7-16-5l-1.1-.7-23.6-13.6c-10.1-5.9-16.1-14.5-13.3-19.3 1.2-2.1 3.9-3.1 7.4-3.1zm275.6 0c3.5 0 6.2 1 7.4 3.1 2.8 4.8-3.1 13.4-13.3 19.3l-1.2.7.2.4-18 9.9-4.6 2.6h-.1l-1.2.7c-5.8 3.2-11.6 4.7-16.1 4.6s-6.1-1.2-7.3-3.3c-2.7-4.9 3.4-13.4 13.7-19l5.7-3.1 18.8-10.9c5.7-3.3 11.5-5 16-5zm-287.2 37.8a40.4 40.4 0 0 1 10.5 1.4l26.3 7.1.8.2c11.3 3 19.3 9.8 17.8 15.2-1 3.6-5.9 5.7-12.5 5.7a40.4 40.4 0 0 1-10.5-1.4l-26.3-7.1-.8-.2c-11.3-3-19.3-9.8-17.8-15.2 1-3.6 5.9-5.7 12.5-5.7zm298.8 0c6.6 0 11.5 2.1 12.5 5.7 1.4 5.4-6.5 12.2-17.8 15.2l-21.1 5.6-8.2 2.3a40.4 40.4 0 0 1-10.5 1.5c-6.6 0-11.5-2-12.6-5.6-1.5-5.4 6.4-12.2 17.7-15.3l3.2-.9 5.1-1.4 17.9-4.9v.1l3.3-.9a40.4 40.4 0 0 1 10.5-1.4zm-125.1 70.8h.1l-16.9 61.7h-3.7v-49.7a9.8 9.8 0 0 0 5.3-5.6 9.8 9.8 0 0 0 15-6.4zm-45.8 5.2a9.8 9.8 0 0 0 12.3 1.2 9.8 9.8 0 0 0 6.3 6v49.4h-3zm-13.7 99.8h70.4v5h-70.4v-5zm0 9.1h70.3v5h-70.3v-5zm0 9.1h70.3v5h-70.3v-5zm0 9.1h70.3v5h-70.3v-5zm-6.3 9.1h82.9v9.1h-82.8v-9zm6.2 10.1h70.4v3.6h-70.3V443zm0 4.6h70.4v4.4h-8.6a10.9 10.9 0 0 1-19.3 0h-14.5a10.9 10.9 0 0 1-19.3 0h-8.6v-4.4z" class="cls-1"/>
	</symbol>
	
	<symbol id="Fonts_Tools_&_Site" viewBox="0 0 560 560">
	<path d="M280 0C125.4 0 0 125.4 0 280s125.4 280 280 280 280-125.4 280-280S434.6 0 280 0zM168.2 168.7h170.5l4.7 53-3.8.8q-4.1-12.4-7.5-18.6a54.5 54.5 0 0 0-21.5-22 56 56 0 0 0-18.4-6.4q-10.4-1.8-28.7-1.8h-25.3V270h6.5q28.9 0 41.9-12.9a36.5 36.5 0 0 0 8.6-13.1q2.9-7.7 3.9-19.9l3.8.2-1 98.9H298q-1.8-16.6-6.2-25.6a34 34 0 0 0-13.1-14.7 46.3 46.3 0 0 0-16.2-5.9q-9.5-2-24.5-2v65.1q0 16.6 1.8 24.6a28 28 0 0 0 6.9 13.2 27.5 27.5 0 0 0 10.3 7 55.9 55.9 0 0 0 15.3 2.6v3.8H168.2v-3.8a44.7 44.7 0 0 0 14.8-2.4 27.7 27.7 0 0 0 10.9-6.9q4.6-5.1 6.5-13.9t2-24.3V219.9a215.1 215.1 0 0 0-1.1-21.7q-1.6-14.4-14-21.4-6.9-3.8-19.1-4.4v-3.8zm155.2 135.7H390l1.8 20.7-1.5.3a44.8 44.8 0 0 0-2.9-7.3 21.3 21.3 0 0 0-8.4-8.6 21.8 21.8 0 0 0-7.2-2.5 69.7 69.7 0 0 0-11.2-.7h-9.9V344h2.5q11.3 0 16.4-5a14.3 14.3 0 0 0 3.4-5.1 28.5 28.5 0 0 0 1.5-7.8h1.5l-.4 38.6h-1.5a30.9 30.9 0 0 0-2.4-10 13.3 13.3 0 0 0-5.1-5.7 18.1 18.1 0 0 0-6.3-2.3 48.7 48.7 0 0 0-9.6-.8v25.4a47.9 47.9 0 0 0 .7 9.6 10.9 10.9 0 0 0 2.7 5.2 10.8 10.8 0 0 0 4 2.7 21.8 21.8 0 0 0 6 1v1.5h-40.7v-1.5a17.5 17.5 0 0 0 5.8-1 10.8 10.8 0 0 0 4.3-2.7 11.7 11.7 0 0 0 2.5-5.4 45.9 45.9 0 0 0 .8-9.5v-46.8a83.9 83.9 0 0 0-.4-8.5 10.4 10.4 0 0 0-5.5-8.3 17.7 17.7 0 0 0-7.5-1.7v-1.5z" class="cls-1"/>
	</symbol>
	<symbol id="Framework_&_Boilerplates" viewBox="0 0 560 560">
	<path d="M280 0C125.4 0 0 125.4 0 280s125.4 280 280 280 280-125.4 280-280S434.6 0 280 0zM133.4 153.5h293.2a14.2 14.2 0 0 1 14.3 14.3v224.4a14.2 14.2 0 0 1-14.3 14.3H133.4a14.2 14.2 0 0 1-14.3-14.3V167.8a14.2 14.2 0 0 1 14.3-14.3zm232.8 14.3a9.1 9.1 0 0 0-9.1 9.1 9.1 9.1 0 0 0 9.1 9.1 9.1 9.1 0 0 0 9.1-9.1 9.1 9.1 0 0 0-9.1-9.1zm26.3 0a9.1 9.1 0 0 0-9.1 9.1 9.1 9.1 0 0 0 9.1 9.1 9.1 9.1 0 0 0 9.1-9.1 9.1 9.1 0 0 0-9.1-9.1zm26.3 0a9.1 9.1 0 0 0 0 18.2 9.1 9.1 0 0 0 9.1-9.1 9.1 9.1 0 0 0-9.1-9.1zm-279.5 1.9a7.1 7.1 0 1 0 0 14.3h108.9a7.1 7.1 0 0 0 0-14.3H139.3zm130 0a7.1 7.1 0 1 0 0 14.3h73.9a7.1 7.1 0 1 0 0-14.3h-73.9zm-130.5 34.4a6.6 6.6 0 0 0-6.6 6.6v164.5a6.6 6.6 0 0 0 6.6 6.6h205.9a6.6 6.6 0 0 0 6.6-6.6V210.8a6.6 6.6 0 0 0-6.6-6.6H138.8zm230.9 1.3a6.6 6.6 0 0 0-6.6 6.6v161.9a6.6 6.6 0 0 0 6.6 6.6h51.6a6.6 6.6 0 0 0 6.6-6.6V212.1a6.6 6.6 0 0 0-6.6-6.6h-51.7zm-5 6.5h50.6v1.2h-50.6v-1.2zm-215.2 2.6h79.4a8.3 8.3 0 0 1 8.3 8.3v31.4a8.3 8.3 0 0 1-8.3 8.3h-79.4a8.3 8.3 0 0 1-8.3-8.3v-31.4a8.3 8.3 0 0 1 8.3-8.3zm106.4 0h79.4a8.3 8.3 0 0 1 8.3 8.3v31.4a8.3 8.3 0 0 1-8.3 8.3h-79.5a8.3 8.3 0 0 1-8.3-8.3v-31.4a8.3 8.3 0 0 1 8.3-8.3zm108.8.6h27v1.2h-27v-1.2zm0 3.2h27v1.2h-27v-1.2zm29.1 0h31.1v1.2h-31.1v-1.2zm-29.1 3.2h35.2v1.2h-35.2v-1.2zm37.3 0h20.3v1.2H402v-1.2zm-254.6 1.6v1.7h70.2v-1.7h-70.2zm106.4 0v1.7H324v-1.7h-70.3zm111 1.6h22.4v1.2h-22.5v-1.2zm24.8 0H412v1.2h-22.5v-1.2zm-242.1 2.8v1.5H185v-1.7h-37.6zm106.4 0v1.5h37.5v-1.7h-37.7zm111 .4h30v1.2h-30v-1.2zm31.3 0h29.2v1.2H396v-1.2zm-31.3 3.2h53.2v1.2h-53.4v-1.2zm-217.3.8v1.7h37.5v-1.7h-37.7zm40.4 0v1.7h43.2v-1.7h-43.5zm66 0v1.7h37.5v-1.7h-37.8zm40.4 0v1.7h43.2v-1.7h-43.5zm70.6 2.3h33.4v1.2h-33.7V234zm-217.3 2.1v1.7h48.9v-1.7h-49.2zm51.7 0v1.7h28.1v-1.7h-28.4zm54.6 0v1.7h48.9v-1.7h-49.2zm51.7 0v1.7h28.1v-1.7h-28.3zm-158.1 4.4v1.7h31.1v-1.7h-31.3zm34.4 0v1.7h31.1v-1.7h-31.3zm72 0v1.7h31.1v-1.7h-31.4zm34.4 0v1.7h31.1v-1.7h-31.4zm-140.7 4.4v1.7H189v-1.7h-41.6zm43.5 0v1.7h40.5v-1.7h-40.8zm62.9 0v1.7h41.6v-1.7h-42zm43.5 0v1.7h40.5v-1.7h-40.9zm67.5.8h50.6v1.2h-51v-1.2zm0 3.2h27v.9h-27v-1.2zm-217.3.5v1.4h73.9v-1.7h-74.3zm106.4 0v1.4h73.9v-1.7h-74.4zm111 2.7h27v1.2h-27V252zm29.1 0h31.1v1.2h-31.6V252zM147.9 254v1.7h46.3V254h-46.8zm106.4 0v1.7h46.3V254h-46.9zm111 1.5h35.2v1.2h-35.8v-1.2zm37.3 0h20.3v1.2H402v-1.2zm-37.3 3.2h22.4v1.2h-23v-1.2zm24.8 0h22.4v1.2h-23v-1.2zm-24.8 3.2h30v1.2h-30v-1.2zm31.3 0h29.2v1.2H396v-1.2zm-31.3 3.2h53.2v1.2h-53.8v-1.2zm0 3.2h33.4v.7h-34v-1.2zm-208.2 5.1h168.6a16.5 16.5 0 0 1 16.5 16.5v62.9a16.5 16.5 0 0 1-16.5 16.5H156.5a16.5 16.5 0 0 1-16.5-16.5v-63.4a16.5 16.5 0 0 1 16.5-16.5zm208.2 6.5h50.6v1.2h-51.2v-1.2zm0 3.2h27v1.2h-27v-1.2zm-221.2 2v3.9h159.6v-3.9H143.5zm221.2 1.1h27v1.2h-27v-1.2zm29.1 0h31.1v1.2h-31.7v-1.2zm-29.1 3.2h35.2v1.2h-35.8v-1.2zm37.3 0h20.3v1.2H402v-1.2zm-37.9 2.6h22.4v1.2h-22.4V292zm24.8 0h22.4v1.2h-22.4V292zm-246 2.6v3.9h85.6v-3.9h-85.6zm221.2.6h30v1.2h-30v-1.2zm31.3 0h29.2v1.2H396v-1.2zm-31.3 3.2h53.2v1.2h-53.2v-1.2zm0 3.2h33.4v1.2h-33.4v-1.2zm-221.2 3.1v3.9h85.6v-3.9h-85.6zm92.1 0v3.9h98.6v-3.9h-98.6zm129.1 8.5h50.6v1.2h-50.6v-1.2zm-221.2 1.5v3.9H255v-3.9H143.5zm118 0v3.9h64.2v-3.9h-64.2zm103.2 1.7h27v1.2h-27v-1.2zm0 3.2h27v1.2h-27v-1.2zm29.1 0h31.1v1.2h-31.1v-1.2zm-29.1 3.2h35.2v1.2h-35.2v-1.2zm37.3 0h20.3v1.2H402v-1.2zm-258.5 2v3.9h71v-3.9h-71zm78.5 0v3.9h71v-3.9h-71zm142.7 1.2h22.4v1.2h-22.4V326zm24.8 0h22.4v1.2h-22.4V326zm-24.8 3.2h30v1.2h-30v-1.2zm31.3 0h29.2v1.2H396v-1.2zm-31.3 2.8h53.2v1.2h-53.2V332zm-221.2 2.5v3.9h95v-3.9h-95zm99.2 0v3.9h92.4v-3.9h-92.4zm122 .6h33.4v1.2h-33.4v-1.2zm-221.2 9.4v3.9h168.6v-3.9H143.5zm0 10v3.9h105.7v-3.9H143.5z"/>
	</symbol>
	<symbol id="HTML_Learning_Center" viewBox="0 0 560 560">
	<path d="M280 0C125.4 0 0 125.4 0 280s125.4 280 280 280 280-125.4 280-280S434.6 0 280 0zm-93.3 118.6a20 20 0 0 1 14.1 34.2L73.6 280l127.3 127.3a20 20 0 0 1-28.3 28.3L31.1 294.1a20 20 0 0 1 0-28.3l141.5-141.4a19.9 19.9 0 0 1 14.1-5.8zm186.6 0a19.9 19.9 0 0 1 14.1 5.9l141.5 141.4a20 20 0 0 1 0 28.3L387.4 435.6a20 20 0 0 1-28.3-28.3L486.4 280 359.1 152.7a20 20 0 0 1 14.2-34.1zm-128.8 5.9a18.7 18.7 0 0 1 18.3 13.9l73.1 272.9a18.7 18.7 0 0 1-13.2 22.9l-2.4.7a18.7 18.7 0 0 1-22.9-13.2l-73.3-273a18.7 18.7 0 0 1 13.2-22.9l2.4-.7a18.9 18.9 0 0 1 4.8-.6z" class="cls-1"/>
	</symbol>
	<symbol id="Icon,Graphics_Tools_&_Site" viewBox="0 0 560 560">
	<path d="M280 0C125.4 0 0 125.4 0 280s125.4 280 280 280 280-125.4 280-280S434.6 0 280 0zm-40.7 116.8h5.8V165h-5.8v-48.2zm8.1 0h5.6V165h-5.7v-48.2zm11.3 0h8.5V165h-8.5v-48.2zm11.9 0h9.6V165h-9.6v-48.2zm14.1 0H296V165h-11.3v-48.2zm15.3 0h9V165h-9.1v-48.2zm14.1 0h6.6V165h-6.6v-48.2zM222.3 167h115.4v15.8H222.3V167zm15.5 17.8h84c18.6 24.7 43.5 53.1 64.7 79.2-55 49.5-87.3 106.9-104.9 166.4a6.8 6.8 0 1 1-6.1-.1c-16.6-58.5-55.4-119-101.9-166.3 22.1-25.6 44.1-52.5 64.2-79.2zm40.6 62a18.4 18.4 0 0 0-1.7 36.7v149.4a4 4 0 1 0 3.4-.2V283.5a18.4 18.4 0 0 0-1.8-36.7z" class="cls-1"/>
	</symbol>
	<symbol id="Image,Video_Tools_&_Site" viewBox="0 0 560 560">
	<path d="M280 0C125.4 0 0 125.4 0 280s125.4 280 280 280 280-125.4 280-280S434.6 0 280 0zM113.1 138.5h333.8v8h-7.2a3.2 3.2 0 0 0-3.2 3.2v8.3a3.2 3.2 0 0 0 3.2 3.2h7.2v11.2a17.6 17.6 0 0 0-10.3 16v178.7a17.6 17.6 0 0 0 10.3 16v14.6h-7.2a3.2 3.2 0 0 0-3.2 3.2v8.3a3.2 3.2 0 0 0 3.2 3.2h7.2v9.2H113.1v-8.9H127a3.4 3.4 0 0 0 3.5-3.5v-8.1a3.4 3.4 0 0 0-3.5-3.5h-13.9v-10.7h.1a17.6 17.6 0 0 0 17.6-17.6V190.7a17.6 17.6 0 0 0-17.6-17.6h-.1v-11.6H127a3.4 3.4 0 0 0 3.5-3.5v-8a3.4 3.4 0 0 0-3.5-3.5h-13.9v-8zm36.2 8a3.2 3.2 0 0 0-3.2 3.2v8.6a3.2 3.2 0 0 0 3.2 3.2H174a3.2 3.2 0 0 0 3.2-3.2v-8.6a3.2 3.2 0 0 0-3.2-3.2h-24.6zm40 0a3.2 3.2 0 0 0-3.2 3.2v8.6a3.2 3.2 0 0 0 3.2 3.2H214a3.2 3.2 0 0 0 3.2-3.2v-8.6a3.2 3.2 0 0 0-3.2-3.2h-24.6zm40 0a3.2 3.2 0 0 0-3.2 3.2v8.6a3.2 3.2 0 0 0 3.2 3.2H254a3.2 3.2 0 0 0 3.2-3.2v-8.6a3.2 3.2 0 0 0-3.2-3.2h-24.6zm40 0a3.2 3.2 0 0 0-3.2 3.2v8.6a3.2 3.2 0 0 0 3.2 3.2H294a3.2 3.2 0 0 0 3.2-3.2v-8.6a3.2 3.2 0 0 0-3.2-3.2h-24.6zm40 0a3.2 3.2 0 0 0-3.2 3.2v8.6a3.2 3.2 0 0 0 3.2 3.2H334a3.2 3.2 0 0 0 3.2-3.2v-8.6a3.2 3.2 0 0 0-3.2-3.2h-24.7zm40 0a3.2 3.2 0 0 0-3.2 3.2v8.6a3.2 3.2 0 0 0 3.2 3.2H374a3.2 3.2 0 0 0 3.2-3.2v-8.6a3.2 3.2 0 0 0-3.2-3.2h-24.7zm40 0a3.2 3.2 0 0 0-3.2 3.2v8.6a3.2 3.2 0 0 0 3.2 3.2H414a3.2 3.2 0 0 0 3.2-3.2v-8.6a3.2 3.2 0 0 0-3.2-3.2h-24.7zm-240.5 22.1a9 9 0 0 0-9 9v204.8a9 9 0 0 0 9 9h264.7a9 9 0 0 0 9-9V177.6a9 9 0 0 0-9-9H148.8zm0 9h264.7v116.2s-43.9 38.4-54 49.2l-31.1-41.1-40.6 45.3-48-49.9-28.2 51.9-17.8-25.4-44 58.7h-.8V177.6zm49.5 26.4a28.8 28.8 0 1 0 28.8 28.8 28.8 28.8 0 0 0-28.8-28.8zm-48.9 193.7a3.2 3.2 0 0 0-3.2 3.2v8.6a3.2 3.2 0 0 0 3.2 3.2h24.7a3.2 3.2 0 0 0 3.2-3.2v-8.6a3.2 3.2 0 0 0-3.2-3.2h-24.7zm40 0a3.2 3.2 0 0 0-3.2 3.2v8.6a3.2 3.2 0 0 0 3.2 3.2h24.7a3.2 3.2 0 0 0 3.2-3.2v-8.6a3.2 3.2 0 0 0-3.2-3.2h-24.7zm40 0a3.2 3.2 0 0 0-3.2 3.2v8.6a3.2 3.2 0 0 0 3.2 3.2h24.7a3.2 3.2 0 0 0 3.2-3.2v-8.6a3.2 3.2 0 0 0-3.2-3.2h-24.7zm40 0a3.2 3.2 0 0 0-3.2 3.2v8.6a3.2 3.2 0 0 0 3.2 3.2h24.7a3.2 3.2 0 0 0 3.2-3.2v-8.6a3.2 3.2 0 0 0-3.2-3.2h-24.7zm40 0a3.2 3.2 0 0 0-3.2 3.2v8.6a3.2 3.2 0 0 0 3.2 3.2h24.7a3.2 3.2 0 0 0 3.2-3.2v-8.6a3.2 3.2 0 0 0-3.2-3.2h-24.8zm40 0a3.2 3.2 0 0 0-3.2 3.2v8.6a3.2 3.2 0 0 0 3.2 3.2h24.7a3.2 3.2 0 0 0 3.2-3.2v-8.6a3.2 3.2 0 0 0-3.2-3.2h-24.8zm40 0a3.2 3.2 0 0 0-3.2 3.2v8.6a3.2 3.2 0 0 0 3.2 3.2h24.7a3.2 3.2 0 0 0 3.2-3.2v-8.6a3.2 3.2 0 0 0-3.2-3.2h-24.8z"/>
	</symbol>
	<symbol id="Javascript_Learning_Center" viewBox="0 0 560 560">
	<path d="M280 0C125.4 0 0 125.4 0 280s125.4 280 280 280 280-125.4 280-280S434.6 0 280 0zM156.8 119.4a16 16 0 0 1 16.2 16c0 8.9-7.3 14.5-16.2 14.4-22.4 0-28.1 6.4-31.5 13.3s2.6 24.8 2.9 37.3c.3 16.1 4 33.3-1.7 48.4-4.7 12.3-11 26.1-24.4 31.3 13.4 5.2 19.8 18.9 24.4 31.3 5.7 15.1 2 32.3 1.7 48.4-.3 12.5-6.3 30.3-2.9 37.3s9.2 13.3 31.5 13.3c8.9-.1 16.2 5.5 16.2 14.4a16 16 0 0 1-16.2 16c-29.2 0-51-11.8-59.8-29.6s-1.2-36.7 0-53.6 5.4-28.7 0-39.3C84.7 294.2 61.9 284 61.9 280s22.8-14.2 35.1-38.2c5.4-10.5 1.2-22.4 0-39.3s-8.7-35.7 0-53.6 30.6-29.5 59.8-29.5zm246.5 0c29.2 0 51 11.8 59.8 29.6s1.2 36.7 0 53.6-5.4 28.7 0 39.3c12.3 24 35.1 34.2 35.1 38.2s-22.8 14.2-35.1 38.2c-5.4 10.5-1.2 22.4 0 39.3s8.7 35.7 0 53.6-30.6 29.6-59.8 29.6a16 16 0 0 1-16.2-16c0-8.9 7.3-14.5 16.2-14.4 22.4 0 28.1-6.4 31.5-13.3s-2.6-24.8-2.9-37.3c-.3-16.1-4-33.3 1.7-48.4 4.7-12.3 11-26.1 24.4-31.3-13.4-5.2-19.8-18.9-24.4-31.3-5.7-15.1-2-32.3-1.7-48.4.3-12.5 6.3-30.3 2.9-37.3s-9.2-13.3-31.5-13.3c-8.9.1-16.2-5.5-16.2-14.4a16 16 0 0 1 16.1-16zm-154.5 41.9h.1a74.9 74.9 0 0 1 12.4 1.2 9.6 9.6 0 0 1-.1 18.8c-36 6-65.4 47.5-65.5 98.7 0 51.2 29.4 92.7 65.4 98.7a9.6 9.6 0 0 1 .1 18.8 74.9 74.9 0 0 1-12.3 1.2h-.1c-26.6 0-50.4-14.1-67.1-35.7s-26.6-50.9-26.6-83 10-61.4 26.6-83 40.5-35.7 67.1-35.7zm62.4 0c26.6 0 50.4 14.1 67.1 35.7s26.6 50.9 26.6 83-10 61.4-26.6 83-40.5 35.7-67.1 35.7h-.1a74.9 74.9 0 0 1-12.3-1.2 9.6 9.6 0 0 1 .1-18.8c35.9-6.1 65.3-47.6 65.4-98.7-.1-51.2-29.5-92.7-65.5-98.7a9.6 9.6 0 0 1-.1-18.8 74.9 74.9 0 0 1 12.4-1.2h.1z"/>
	</symbol>
	<symbol id="Javascript_Tools_&_Site" viewBox="0 0 560 560">
	<path d="M280 0C125.4 0 0 125.4 0 280s125.4 280 280 280 280-125.4 280-280S434.6 0 280 0zM156.8 119.4a16 16 0 0 1 16.2 16c0 8.9-7.3 14.5-16.2 14.4-22.4 0-28.1 6.4-31.5 13.3s2.6 24.8 2.9 37.3c.3 16.1 4 33.3-1.7 48.4-4.7 12.3-11 26.1-24.4 31.3 13.4 5.2 19.8 18.9 24.4 31.3 5.7 15.1 2 32.3 1.7 48.4-.3 12.5-6.3 30.3-2.9 37.3s9.2 13.3 31.5 13.3c8.9-.1 16.2 5.5 16.2 14.4a16 16 0 0 1-16.2 16c-29.2 0-51-11.8-59.8-29.6s-1.2-36.7 0-53.6 5.4-28.7 0-39.3C84.7 294.2 61.9 284 61.9 280s22.8-14.2 35.1-38.2c5.4-10.5 1.2-22.4 0-39.3s-8.7-35.7 0-53.6 30.6-29.6 59.8-29.6zm246.5 0c29.2 0 51 11.8 59.8 29.6s1.2 36.7 0 53.6-5.4 28.7 0 39.3c12.3 24 35.1 34.2 35.1 38.2s-22.8 14.2-35.1 38.2c-5.4 10.5-1.2 22.4 0 39.3s8.7 35.7 0 53.6-30.6 29.6-59.8 29.6a16 16 0 0 1-16.2-16c0-8.9 7.3-14.5 16.2-14.4 22.4 0 28.1-6.4 31.5-13.3s-2.6-24.8-2.9-37.3c-.3-16.1-4-33.3 1.7-48.4 4.7-12.3 11-26.1 24.4-31.3-13.4-5.2-19.8-18.9-24.4-31.3-5.7-15.1-2-32.3-1.7-48.4.3-12.5 6.3-30.3 2.9-37.3s-9.2-13.3-31.5-13.3c-8.9.1-16.2-5.5-16.2-14.4a16 16 0 0 1 16.2-16zm-154.5 41.9h.1a74.9 74.9 0 0 1 12.4 1.2 9.6 9.6 0 0 1-.1 18.8c-36 6-65.4 47.5-65.5 98.7 0 51.2 29.4 92.7 65.4 98.7a9.6 9.6 0 0 1 .1 18.8 74.9 74.9 0 0 1-12.3 1.2h-.1c-26.6 0-50.4-14.1-67.1-35.7s-26.6-50.9-26.6-83 10-61.4 26.6-83 40.5-35.7 67.1-35.7zm62.4 0c26.6 0 50.4 14.1 67.1 35.7s26.6 50.9 26.6 83-10 61.4-26.6 83-40.5 35.7-67.1 35.7h-.1a74.9 74.9 0 0 1-12.3-1.2 9.6 9.6 0 0 1 .1-18.8c35.9-6.1 65.3-47.6 65.4-98.7-.1-51.2-29.5-92.7-65.5-98.7a9.6 9.6 0 0 1-.1-18.8 74.9 74.9 0 0 1 12.4-1.2h.1zm-2.4 70.9a2.7 2.7 0 0 1 2.5 2.9v1.3a21.4 21.4 0 0 1 5.9 1.6l.6-1.1a2.5 2.5 0 1 1 4.4 2.5l-.6 1.1a21.4 21.4 0 0 1 4.3 4.3l1.1-.6a2.5 2.5 0 1 1 2.5 4.4l-1.1.6a21.4 21.4 0 0 1 1.6 5.8h1.3a2.5 2.5 0 1 1 0 5H330a21.4 21.4 0 0 1-1.6 5.9l1.1.6a2.5 2.5 0 1 1-2.5 4.5l-1.1-.6a21.4 21.4 0 0 1-4.3 4.3l.6 1.1a2.5 2.5 0 1 1-4.4 2.5l-.6-1.1a21.4 21.4 0 0 1-5.9 1.6v1.2a2.5 2.5 0 1 1-5 0v-1.3a21.4 21.4 0 0 1-5.9-1.6l-.6 1.1a2.5 2.5 0 1 1-4.4-2.5l.6-1.1-.9-.7a4.1 4.1 0 0 1-2.1 4.5l-1.6.9a31.2 31.2 0 0 1 2.3 8.6h1.9a3.7 3.7 0 1 1 0 7.3h-1.8a31.2 31.2 0 0 1-2.3 8.6l1.6.9a3.9 3.9 0 0 1 1.8 5.3 1.5 1.5 0 0 1 .4 1.1v.6a10.7 10.7 0 0 1 3 .8l.3-.5a1.3 1.3 0 1 1 2.2 1.3l-.3.6a10.7 10.7 0 0 1 2.2 2.2l.6-.3a1.3 1.3 0 1 1 1.3 2.2l-.6.3a10.7 10.7 0 0 1 .8 3h.6a1.3 1.3 0 1 1 0 2.5h-.6a10.7 10.7 0 0 1-.8 3l.5.3a1.3 1.3 0 1 1-1.3 2.2l-.6-.3a10.7 10.7 0 0 1-2.2 2.2l.3.6a1.3 1.3 0 1 1-2.2 1.3l-.3-.6a10.7 10.7 0 0 1-3 .8v.6a1.3 1.3 0 1 1-2.5 0v-.9a10.7 10.7 0 0 1-3-.8l-.3.5a1.3 1.3 0 1 1-2.2-1.3l.3-.6a10.7 10.7 0 0 1-2.2-2.2l-.6.3a1.3 1.3 0 1 1-1.3-2.2l.5-.3a10.7 10.7 0 0 1-.8-3h-.6a1.5 1.5 0 0 1-1-.4l-.4.3a3.9 3.9 0 0 1-5.3-1.8l-.9-1.6a31.2 31.2 0 0 1-8.6 2.3v1.9a3.7 3.7 0 1 1-7.3 0v-1.8a31.2 31.2 0 0 1-8.6-2.3l-.9 1.6a3.7 3.7 0 1 1-6.3-3.7l.9-1.6a31.2 31.2 0 0 1-6.3-6.3l-1.6.9a3.7 3.7 0 1 1-3.7-6.3l1.6-.9a31.2 31.2 0 0 1-2.3-8.6H230a3.7 3.7 0 1 1 0-7.3h1.8a31.2 31.2 0 0 1 2.3-8.6l-1.6-.9a3.7 3.7 0 1 1 3.7-6.3l1.6.9a31.2 31.2 0 0 1 6.3-6.3l-.9-1.6a3.7 3.7 0 1 1 6.3-3.7l.9 1.6a31.2 31.2 0 0 1 8.6-2.3v-1.9a3.7 3.7 0 1 1 7.3 0v1.8a31.2 31.2 0 0 1 8.6 2.3l.9-1.6a3.7 3.7 0 1 1 6.3 3.7l-.9 1.6a31.2 31.2 0 0 1 6.3 6.3l1.6-.9a4.5 4.5 0 0 1 3.4-.5l-1-1.2-1.1.6a2.5 2.5 0 1 1-2.5-4.4l1.1-.6a21.4 21.4 0 0 1-1.6-5.9h-1.3a2.5 2.5 0 1 1 0-5h1.3a21.4 21.4 0 0 1 1.6-5.9l-1.1-.6a2.5 2.5 0 1 1 2.5-4.4l1.1.6a21.4 21.4 0 0 1 4.3-4.3l-.6-1.1a2.5 2.5 0 1 1 4.4-2.5l.6 1.1a21.4 21.4 0 0 1 5.9-1.6v-1.3a2.7 2.7 0 0 1 2.5-2.9zm0 13.7a11.7 11.7 0 1 0 0 23.4 11.7 11.7 0 0 0 11.7-11.7 11.7 11.7 0 0 0-11.7-11.7zm0 .2a1.2 1.2 0 0 1 1.1 1.3v.6a9.6 9.6 0 0 1 2.7.7l.3-.5a1.1 1.1 0 1 1 2 1.1l-.3.5a9.6 9.6 0 0 1 2 2l.5-.3a1.1 1.1 0 1 1 1.1 2l-.5.3a9.6 9.6 0 0 1 .7 2.7h.6a1.1 1.1 0 1 1 0 2.3h-.6a9.6 9.6 0 0 1-.7 2.7l.5.3a1.1 1.1 0 1 1-1.1 2l-.5-.3a9.6 9.6 0 0 1-2 2l.3.5a1.1 1.1 0 1 1-2 1.1l-.3-.5a9.6 9.6 0 0 1-2.7.7v.6a1.1 1.1 0 1 1-2.3 0v-.6a9.6 9.6 0 0 1-2.7-.7l-.3.5a1.1 1.1 0 1 1-2-1.1l.3-.5a9.6 9.6 0 0 1-2-2l-.5.3a1.1 1.1 0 1 1-1.1-2l.5-.3a9.6 9.6 0 0 1-.7-2.7h-.6a1.1 1.1 0 1 1 0-2.3h.6a9.6 9.6 0 0 1 .7-2.7l-.5-.3a1.1 1.1 0 1 1 1.1-2l.5.3a9.7 9.7 0 0 1 2-2l-.3-.5a1.1 1.1 0 1 1 2-1.1l.3.5a9.6 9.6 0 0 1 2.7-.7v-.6a1.2 1.2 0 0 1 1.1-1.3zm0 6.2a5.3 5.3 0 0 0 0 10.5 5.3 5.3 0 0 0 5.3-5.3 5.3 5.3 0 0 0-5.3-5.3zm-46 22.3a17 17 0 1 0 17 17 17 17 0 0 0-17-17zm0 .4a1.8 1.8 0 0 1 1.7 1.9v.8a14.1 14.1 0 0 1 3.9 1l.4-.7a1.7 1.7 0 1 1 2.9 1.7l-.4.7a14.1 14.1 0 0 1 2.9 2.8l.7-.4a1.7 1.7 0 1 1 1.7 2.9l-.7.4a14.1 14.1 0 0 1 1 3.9h.8a1.7 1.7 0 1 1 0 3.3h-.8a14.1 14.1 0 0 1-1 3.9l.7.4a1.7 1.7 0 1 1-1.7 2.9l-.9-.5a14.1 14.1 0 0 1-2.8 2.8l.4.7a1.7 1.7 0 1 1-2.9 1.6l-.4-.7a14.1 14.1 0 0 1-3.9 1v.8a1.7 1.7 0 1 1-3.3 0v-.8a14.1 14.1 0 0 1-3.9-1l-.4.7a1.7 1.7 0 1 1-2.9-1.7l.4-.7a14.1 14.1 0 0 1-2.8-2.8l-.7.4a1.7 1.7 0 1 1-1.7-2.9l.7-.4a14.1 14.1 0 0 1-1-3.9h-.8a1.7 1.7 0 1 1 0-3.3h.8a14.1 14.1 0 0 1 1-3.9l-.7-.4a1.7 1.7 0 1 1 1.7-2.9l.7.4a14.1 14.1 0 0 1 2.8-2.9l-.4-.7a1.7 1.7 0 1 1 2.9-1.7l.4.7a14.1 14.1 0 0 1 3.9-1v-.8a1.8 1.8 0 0 1 1.7-1.6zm0 9a7.7 7.7 0 1 0 7.7 7.7 7.7 7.7 0 0 0-7.7-7.7zm24.9 26.3a31.2 31.2 0 0 1-6.3 6.3l.9 1.6a4.5 4.5 0 0 1 .6 3h.4a10.7 10.7 0 0 1 .8-3l-.5-.3a1.3 1.3 0 1 1 1.3-2.2l.6.3a10.7 10.7 0 0 1 2.2-2.2l-.3-.6a1.3 1.3 0 1 1 2.2-1.3l.3.6a10.7 10.7 0 0 1 3-.8 4.5 4.5 0 0 1-3.4-.5l-1.6-.9zm6.2 6.3a5.8 5.8 0 0 0-5.8 5.8 5.8 5.8 0 0 0 5.8 5.8 5.8 5.8 0 0 0 5.8-5.8 5.8 5.8 0 0 0-5.8-5.8zm0 .1a.6.6 0 0 1 .6.6v.3l1.3.4v-.2a.6.6 0 1 1 1 .6v.2l1 1h.2a.6.6 0 1 1 .6 1h-.2a4.8 4.8 0 0 1 .4 1.3h.2a.6.6 0 1 1 0 1.1h-.3a4.8 4.8 0 0 1-.4 1.3h.2a.6.6 0 1 1-.6 1h-.2l-1 1v.2a.6.6 0 1 1-1 .6v-.2l-1.3.4v.3a.6.6 0 1 1-1.1 0v-.3l-1.3-.4v.2a.6.6 0 1 1-1-.6v-.2l-1-1h-.2a.6.6 0 1 1-.6-1h.3a4.8 4.8 0 0 1-.4-1.3h-.3a.6.6 0 1 1 0-1.1h.3a4.8 4.8 0 0 1 .4-1.3h-.2a.6.6 0 1 1 .6-1h.3l1-1v-.2a.6.6 0 1 1 1-.6v.2l1.3-.4v-.3a.6.6 0 0 1 .6-.6zm0 3.1a2.6 2.6 0 1 0 2.6 2.6 2.6 2.6 0 0 0-2.5-2.6z"/>
	</symbol>
	<symbol id="Jquery_Learning_Center" viewBox="0 0 560 560">
	<path d="M280 0C125.4 0 0 125.4 0 280s125.4 280 280 280 280-125.4 280-280S434.6 0 280 0zM156.8 119.4a16 16 0 0 1 16.2 16c0 8.9-7.3 14.5-16.2 14.4-22.4 0-28.1 6.4-31.5 13.3s2.6 24.8 2.9 37.3c.3 16.1 4 33.3-1.7 48.4-4.7 12.3-11 26.1-24.4 31.3 13.4 5.2 19.8 18.9 24.4 31.3 5.7 15.1 2 32.3 1.7 48.4-.3 12.5-6.3 30.3-2.9 37.3s9.2 13.3 31.5 13.3c8.9-.1 16.2 5.5 16.2 14.4a16 16 0 0 1-16.2 16c-29.2 0-51-11.8-59.8-29.6s-1.2-36.7 0-53.6 5.4-28.7 0-39.3C84.7 294.2 61.9 284 61.9 280s22.8-14.2 35.1-38.2c5.4-10.5 1.2-22.4 0-39.3s-8.7-35.7 0-53.6 30.6-29.6 59.8-29.6zm246.5 0c29.2 0 51 11.8 59.8 29.6s1.2 36.7 0 53.6-5.4 28.7 0 39.3c12.3 24 35.1 34.2 35.1 38.2s-22.8 14.2-35.1 38.2c-5.4 10.5-1.2 22.4 0 39.3s8.7 35.7 0 53.6-30.6 29.6-59.8 29.6a16 16 0 0 1-16.2-16c0-8.9 7.3-14.5 16.2-14.4 22.4 0 28.1-6.4 31.5-13.3s-2.6-24.8-2.9-37.3c-.3-16.1-4-33.3 1.7-48.4 4.7-12.3 11-26.1 24.4-31.3-13.4-5.2-19.8-18.9-24.4-31.3-5.7-15.1-2-32.3-1.7-48.4.3-12.5 6.3-30.3 2.9-37.3s-9.2-13.3-31.5-13.3c-8.9.1-16.2-5.5-16.2-14.4a16 16 0 0 1 16.2-16zm-154.5 41.9h.1a74.9 74.9 0 0 1 12.4 1.2 9.6 9.6 0 0 1-.1 18.8c-36 6-65.4 47.5-65.5 98.7 0 51.2 29.4 92.7 65.4 98.7a9.6 9.6 0 0 1 .1 18.8 74.9 74.9 0 0 1-12.3 1.2h-.1c-26.6 0-50.4-14.1-67.1-35.7s-26.6-50.9-26.6-83 10-61.4 26.6-83 40.5-35.7 67.1-35.7zm62.4 0c26.6 0 50.4 14.1 67.1 35.7s26.6 50.9 26.6 83-10 61.4-26.6 83-40.5 35.7-67.1 35.7h-.1a74.9 74.9 0 0 1-12.3-1.2 9.6 9.6 0 0 1 .1-18.8c35.9-6.1 65.3-47.6 65.4-98.7-.1-51.2-29.5-92.7-65.5-98.7a9.6 9.6 0 0 1-.1-18.8 74.9 74.9 0 0 1 12.4-1.2h.1zm-36.3 54.1h10.6v10.3q12.3.6 20.4 8.1t8 19.6h-22q-.7-5.6-6.4-8.8v23.5a47.5 47.5 0 0 1 21.5 10.1q10.1 8.4 10.1 19.5 0 16.2-9.6 26.1a31.9 31.9 0 0 1-22 9.7v11.1h-10.6v-11.1q-14.2 0-22.8-7.8t-9.2-24.1h22.8q0 9.6 9.2 12.3v-26.1q-29.9-6.4-29.9-31.6a28.4 28.4 0 0 1 8.7-20.8 32.1 32.1 0 0 1 21.3-9.7v-10.3zm0 29.8q-7.7 3.2-7.7 11.2t7.7 8.8v-20zm10.6 44.6v24.3q8.4-3.6 8.4-12.8t-8.4-11.5z"/>
	</symbol>
	<symbol id="Project_Management" viewBox="0 0 560 560">
	<path d="M280 0C125.4 0 0 125.4 0 280s125.4 280 280 280 280-125.4 280-280S434.6 0 280 0zm64 86.4a36.8 36.8 0 0 1 0 73.6l-32 74.6a64 64 0 0 1 25.7 34l76.1-5a36.8 36.8 0 0 1 72.6 8.4 36.8 36.8 0 0 1-36.8 36.8 36.8 36.8 0 0 1-34.1-22.9l-74.9 4.9a64 64 0 0 1-10.1 31.7l48.9 43.4a37 37 0 1 1-15.6 16.1l-48.4-43a63.4 63.4 0 0 1-45.4 12.7l-14.3 54.6a36.8 36.8 0 0 1-20.5 67.3 36.8 36.8 0 0 1-36.8-36.8 36.8 36.8 0 0 1 35.8-36.8l14.4-54.7a64 64 0 0 1-33.9-42l-68.5 7.2a36.8 36.8 0 0 1-72.7-8.1 36.8 36.8 0 0 1 36.8-36.8 36.8 36.8 0 0 1 33.9 22.7l68.9-7.3a64 64 0 0 1 13.1-32.2l-59.6-70.4a36.9 36.9 0 1 1 17.5-14l58.7 69.4a63.1 63.1 0 0 1 48.7-8l31.1-72.6A36.8 36.8 0 0 1 344 86.4z"/>
	</symbol>

	<symbol id="Jekyll_Learning_Center" viewBox="0 0 560 560">
		<path class="cls-1" d="M280 0C125.4 0 0 125.4 0 280s125.4 280 280 280 280-125.4 280-280S434.6 0 280 0zm-34 415.5c-8.7 18.1-30.9 25.6-49.2 16.7-18.3-8.9-26.2-30.9-17.4-49L301 131.9a52.9 52.9 0 0 0 5.9 4.7 183.2 183.2 0 0 0 25.8 14.8 182.4 182.4 0 0 0 27.6 11 59.5 59.5 0 0 0 7.3 1.7zm128-254.2c-1.7 3.6-19.8-1.6-40.5-11.6s-36-21-34.2-24.5 19.8 1.6 40.5 11.6 35.9 20.9 34.2 24.5z"/>
		<path class="cls-1" d="M310.3 130.4a173 173 0 0 0 25.4 14.7 168.5 168.5 0 0 0 27.3 10.8 173 173 0 0 0-25.4-14.7 168.5 168.5 0 0 0-27.3-10.8zM307.5 254.7c-3.4 4.4-5.2 9.7-8.4 14.3-6 8.6-15.2 17.9-29.2 29l-5 4c-5.4 4.4-15.2 6.7-25.8 7.8a35.4 35.4 0 0 0-28.1 19.6l-26.6 54.9c-7.8 16.1-1.2 36.1 15.1 43.6a32.1 32.1 0 0 0 42.3-15.1l83.5-172.6-6.3 2.1c-1.9.9-6.5 5.8-11.5 12.4zm-89.9 107.1a4.5 4.5 0 1 1-2.1-6 4.5 4.5 0 0 1 2.1 6zm17.1 27.7a4.5 4.5 0 1 1-2.1-6 4.5 4.5 0 0 1 2.1 6zm4.5-51.7a4.5 4.5 0 1 1-2.1-6 4.5 4.5 0 0 1 2.1 6zm28.5-6.1a4.5 4.5 0 1 1-2.1-6 4.5 4.5 0 0 1 2.1 6z"/>
	</symbol>

	<symbol id="HTML_Tools_&_Site" viewBox="0 0 560 560">
		<path class="cls-1" d="M259.7,294.1a0.3,0.3,0,0,1-.3-0.3,0.3,0.3,0,0,1,.3-0.3l2.3-2.3a20.9,20.9,0,0,1-3.5-8.6H255V275h3.1l-2.6-9.9h0a29.2,29.2,0,0,0,10.1,40.1l0.8,0.5-1.9-7.1Z"/>
	    <path class="cls-1" d="M280,0C125.4,0,0,125.4,0,280S125.4,560,280,560,560,434.6,560,280,434.6,0,280,0ZM200.9,435.6a20,20,0,0,1-28.3,0L31.1,294.1a20,20,0,0,1,0-28.3h0L172.6,124.4a20,20,0,0,1,28.2,28.4L73.6,280,200.9,407.3A20,20,0,0,1,200.9,435.6Zm121.8-1.4-2.4.7a18.6,18.6,0,0,1-22.9-13.2l-24.2-90.1h14.7a0.8,0.8,0,0,0,.8-0.8v-6.5a45.3,45.3,0,0,0,16.9-6.8v-1l4.5,4.5a0.7,0.7,0,0,0,1,0l0.5-.5-6-22.5v-4.2a28.9,28.9,0,0,0,0-29v0.5a29.6,29.6,0,0,0-10.1-10.1l-1.6-.9,1.2,4.6h0.4v0.8h0.3l5.3,5.3a0.3,0.3,0,1,1,0,.6l-2.3,2.3a20.9,20.9,0,0,1,3.5,8.6h3.5V284h-3.5a5.2,5.2,0,0,0-.2,1.1l3,11.2a29.2,29.2,0,0,1-38.7,9.8l4.9,18.2,1.1,0.2v4l-1.1-4.2a43.6,43.6,0,0,1-16.2-7.1l-4.8,4.8a0.7,0.7,0,0,1-1,0l-10.6-10.6a0.7,0.7,0,0,1,0-1l4.5-4.5a45.8,45.8,0,0,1-7.1-17.4h-6.5a0.8,0.8,0,0,1-.8-0.8V272.8a0.8,0.8,0,0,1,.8-0.8h6.5a46.1,46.1,0,0,1,7.3-17.4l-4.8-4.8a0.7,0.7,0,0,1,0-1l9.8-9.8-24.2-90.3a18.6,18.6,0,0,1,13.2-22.9l2.4-.7a19.7,19.7,0,0,1,4.8-.6,18.6,18.6,0,0,1,18.3,13.9l24.2,90.5h-14l-0.3-.5a0.8,0.8,0,0,0-.8.8v6.5a44.8,44.8,0,0,0-17.4,7.1l-4.5-4.5a0.7,0.7,0,0,0-1,0l-0.8.8,7.1,26.4a29.2,29.2,0,0,1,38.5-10.9L289,236.4h-0.3V235l0.3,1.2a46,46,0,0,1,16.6,7v-0.8l4.8-4.5h0.5l-0.5-.5h0.5L321.5,248a0.7,0.7,0,0,1,0,1l-4.5,4.5a45.8,45.8,0,0,1,7.1,17.4h6.5a0.8,0.8,0,0,1,.8.8v14.9a0.8,0.8,0,0,1-.8.8h-6.5a44.8,44.8,0,0,1-7.1,17.4l4.8,4.8a0.7,0.7,0,0,1,0,1l-10.1,10.1L336,411.4A18.7,18.7,0,0,1,322.7,434.2Zm206.2-140L387.4,435.6a20,20,0,0,1-28.3-28.3L486.4,280,359.1,152.7a20,20,0,0,1,14.2-34.1,19.7,19.7,0,0,1,14.1,5.9L528.9,265.9a20,20,0,0,1,0,28.3h0Z"/>
	    <path class="cls-1" d="M293,260.6a20.9,20.9,0,0,0-8.6-3.5v-3.3h-7.8v0.3h-0.3v3.3a24,24,0,0,0-8.6,3.5l-2.3-2.3H265l-5.3,5.3a0.3,0.3,0,0,0-.3.3,0.3,0.3,0,0,0,.3.3l2.3,2.3a20.9,20.9,0,0,0-3.5,8.6h-0.4l6.3,23.6,0.6,0.6h0.5l2.3-2.3a20.9,20.9,0,0,0,8.6,3.5v3.3h8.1v-2.5a24,24,0,0,0,8.6-3.5v0.3l2.3,2.3h0.5l5.3-5.3a0.3,0.3,0,0,0,.3-0.3,0.3,0.3,0,0,0-.3-0.3l-2.3-2.3a23.4,23.4,0,0,0,3.3-7.4l-6.9-25.9-2.1,2.1v-0.7H293Zm0,26.2h0a14.6,14.6,0,1,1-4.9-20.1,14.4,14.4,0,0,1,4.9,4.9v0.5A14.8,14.8,0,0,1,293,286.8Z"/>
	</symbol>

	<symbol id="CSS_Tools_&_Site" viewBox="0 0 560 560">
    	<path d="M275.1,207a9.8,9.8,0,0,0,13.5-3.3h0a9.8,9.8,0,0,0,0-9.8v-0.3A9.8,9.8,0,1,0,275.1,207Z"/>
    	<path d="M270.1,216.2a19.6,19.6,0,0,0,26.9-6.8v-1a19.4,19.4,0,0,0,0-19.4v0.3A19.6,19.6,0,1,0,270.1,216.2Zm-4-7.8,0.2-.2,1.5-1.5a15,15,0,0,1-2.4-5.7h-2.4v-5.1h2.4a15,15,0,0,1,2.4-5.7l-1.5-1.5-0.2-.2,0.2-.2,3.5-3.5h0.3l1.5,1.5a15,15,0,0,1,5.7-2.4v-2.2h0.2v-0.2h5.2v2.2a15,15,0,0,1,5.7,2.4v0.3l1.5-1.5h0.2v0.5h0.2L294,189l0.2,0.2-0.2.2-1.5,1.5a15,15,0,0,1,2.4,5.7h2.4v5.1h-2.4a15,15,0,0,1-2.4,5.7L294,209l0.2,0.2-0.2.2-3.5,3.5h-0.3l-1.5-1.5v-0.2a15,15,0,0,1-5.7,2.4v1.7h-5.4V213a15,15,0,0,1-5.7-2.4l-1.5,1.5h-0.3l-3.5-3.5Z"/>
    	<path d="M288.8,355.3a9.8,9.8,0,1,0,0,10.1h0a9.8,9.8,0,0,0,0-9.8v-0.3Z"/>
    	<path d="M280,0C125.4,0,0,125.4,0,280S125.4,560,280,560,560,434.6,560,280,434.6,0,280,0ZM167.2,153.8c-10.8,0-17.2,1.6-21,3.6a14.6,14.6,0,0,0-6.9,7.5c-0.7,1.4-.7,7.4.4,14.2s2.7,14.4,2.9,21.3c0.3,15.6,4.3,33.3-1.9,49.9-3.9,10.5-9.4,22.7-19.9,29.9,10.5,7.2,15.9,19.4,19.9,29.9,6.3,16.6,2.3,34.3,1.9,49.9-0.1,6.8-1.8,14.5-2.9,21.3s-1.1,12.8-.4,14.2a14.6,14.6,0,0,0,6.9,7.5c3.8,2,10.2,3.6,21,3.6h-0.1a21.2,21.2,0,0,1,14.1,4.8,17.8,17.8,0,0,1,6.2,13.6,20.1,20.1,0,0,1-20.2,20h-0.1c-30.2,0-53.7-12.3-63.3-31.9s-1.5-39.8-.4-55.6c0.6-8.7,2-16,2.5-22s0.2-10.8-2-15.1c-5.8-11.3-14.1-19.5-21.2-25.3-3.5-2.9-6.7-5.3-9.2-7.3a29,29,0,0,1-3.2-2.9,6,6,0,0,1-.5-8.5l0.5-.5a29,29,0,0,1,3.2-2.9c2.5-2,5.6-4.3,9.2-7.3,7-5.9,15.4-14,21.2-25.3,2.2-4.3,2.5-9,2-15.1s-1.9-13.4-2.5-22c-1.1-15.9-9.2-35.9.4-55.6s33.1-31.8,63.3-31.9v-0.4a20.1,20.1,0,0,1,20.3,19.9h0a17.8,17.8,0,0,1-6.2,13.6,21.2,21.2,0,0,1-14.1,4.8h0.1Zm78.3,50.4v-10a0.5,0.5,0,0,1,.5-0.5h4.4a30.1,30.1,0,0,1,4.9-11.7l-3.2-3.2a0.5,0.5,0,0,1,0-.7l7.1-7.1a0.5,0.5,0,0,1,.7,0l3,3a30.1,30.1,0,0,1,11.7-4.7V165a0.5,0.5,0,0,1,.5-0.5l0.2,0.3h10a0.5,0.5,0,0,1,.5.5v4.4a30.1,30.1,0,0,1,11.3,4.7V174l3.2-3h0.3l-0.3-.3h0.3l7.1,7.1a0.5,0.5,0,0,1,0,.7l-3,3a30.1,30.1,0,0,1,4.7,11.7h4.4a0.5,0.5,0,0,1,.5.5v10a0.5,0.5,0,0,1-.5.5h-4.4a30.1,30.1,0,0,1-4.7,11.7l3.2,3.2a0.5,0.5,0,0,1,0,.7l-7.1,7.1a0.5,0.5,0,0,1-.7,0l-3-3v0.7a30.1,30.1,0,0,1-11.3,4.6v4.4a0.5,0.5,0,0,1-.5.5h-10a0.5,0.5,0,0,1-.5-0.5v-4.4a30.1,30.1,0,0,1-11.7-4.9l-3.2,3.2a0.5,0.5,0,0,1-.7,0l-7.1-7.1a0.5,0.5,0,0,1,0-.7l3-3a30.1,30.1,0,0,1-4.7-11.7H246A0.5,0.5,0,0,1,245.5,204.2Zm69,161a0.5,0.5,0,0,1-.5.5h-4.4a30.1,30.1,0,0,1-4.7,11.7l3.2,3.2a0.5,0.5,0,0,1,0,.7l-7.1,7.1a0.5,0.5,0,0,1-.7,0l-3-3V386a30.1,30.1,0,0,1-11.3,4.6V395a0.5,0.5,0,0,1-.5.5h-10a0.5,0.5,0,0,1-.5-0.5v-4.4a30.1,30.1,0,0,1-11.7-4.9l-3.2,3.2a0.5,0.5,0,0,1-.7,0l-7.1-7.1a0.5,0.5,0,0,1,0-.7l3-3a30.1,30.1,0,0,1-4.7-11.7h-4.4a0.5,0.5,0,0,1-.5-0.5v-10a0.5,0.5,0,0,1,.5-0.5h4.4a30.1,30.1,0,0,1,4.9-11.7l-3.2-3.2a0.5,0.5,0,0,1,0-.7l7.1-7.1a0.5,0.5,0,0,1,.7,0l3,3a30.1,30.1,0,0,1,11.7-4.7v-4.4a0.5,0.5,0,0,1,.5-0.5l0.2,0.3h10a0.5,0.5,0,0,1,.5.5v4.4a30.1,30.1,0,0,1,11.3,4.7v-0.5l3.2-3h0.3l-0.3-.3h0.3l7.1,7.1a0.5,0.5,0,0,1,0,.7l-3,3a30.1,30.1,0,0,1,4.7,11.7H314a0.5,0.5,0,0,1,.5.5v10Zm175.1-80.7a29,29,0,0,1-3.2,2.9c-2.5,2-5.6,4.3-9.2,7.3-7,5.9-15.4,14-21.2,25.3-2.2,4.3-2.5,9-2,15.1s1.9,13.4,2.5,22c1.1,15.9,9.2,35.9-.4,55.6s-33.1,31.8-63.3,31.9a20.1,20.1,0,0,1-20.3-19.9h0a17.8,17.8,0,0,1,6.2-13.6,21.2,21.2,0,0,1,14.1-4.8h-0.1c10.8,0,17.2-1.6,21-3.6a14.6,14.6,0,0,0,6.9-7.5c0.7-1.4.7-7.4-.4-14.2s-2.7-14.4-2.9-21.3c-0.3-15.6-4.3-33.3,1.9-49.9,3.9-10.5,9.4-22.7,19.9-29.9-10.5-7.2-15.9-19.4-19.9-29.9-6.3-16.6-2.3-34.3-1.9-49.9,0.1-6.8,1.8-14.5,2.9-21.3s1.1-12.8.4-14.2a14.6,14.6,0,0,0-6.9-7.5c-3.8-2-10.2-3.6-21-3.6h0.1a21.2,21.2,0,0,1-14.1-4.8,17.8,17.8,0,0,1-6.2-13.6,20.1,20.1,0,0,1,20.2-20h0.1v0.4c30.2,0,53.7,12.3,63.3,31.9s1.5,39.8.4,55.6c-0.6,8.7-2,16-2.5,22s-0.2,10.8,2,15.1c5.8,11.3,14.1,19.5,21.2,25.3,3.5,2.9,6.7,5.3,9.2,7.3a29,29,0,0,1,3.2,2.9,6,6,0,0,1,.5,8.5Z"/>
    	<path d="M297.3,351a19.6,19.6,0,1,0,0,20.1v-1a19.4,19.4,0,0,0,0-19.4V351Zm0.2,12.3h-2.4a15,15,0,0,1-2.4,5.7l1.5,1.5,0.2,0.2-0.2.2-3.5,3.5h-0.3l-1.5-1.5v-0.2a15,15,0,0,1-5.7,2.4v1.7h-5.4v-2.2a15,15,0,0,1-5.7-2.4l-1.5,1.5h-0.3l-3.5-3.5-0.2-.2,0.2-.2,1.5-1.5a15,15,0,0,1-2.4-5.7h-2.4v-5.1h2.4a15,15,0,0,1,2.4-5.7l-1.5-1.5-0.2-.2,0.2-.2,3.5-3.5h0.3l1.5,1.5a15,15,0,0,1,5.7-2.4v-2.2h0.2v-0.2h5.2v2.2a15,15,0,0,1,5.7,2.4v0.3l1.5-1.5h0.2v0.5h0.2l3.5,3.5,0.2,0.2-0.2.2-1.5,1.5a15,15,0,0,1,2.4,5.7h2.4v5.1Z"/>		
	</symbol>

	<symbol id="Web_Tools_&_Site" viewBox="0 0 560 560">
		<path class="cls-1" d="M280,0C125.4,0,0,125.4,0,280S125.4,560,280,560,560,434.6,560,280,434.6,0,280,0ZM424.5,404.3l-3,4.3H362l6.9-9.7L280,299,191,398.8l6.8,9.7H138.5l-3-4.3c-29.3-41.8-45.4-96.3-45.4-153.3a286.3,286.3,0,0,1,15.1-92.9l2.3-6.8h56.1l-4.5,13.2a266.4,266.4,0,0,0-14,86.4c0,36.4,7,71.7,20.3,102.9L272.6,233.6l6.1-9.7,1.2,1.4,1.3-1.4,6.1,9.8L394.5,354c13.4-31.2,20.4-66.5,20.4-103a266.4,266.4,0,0,0-14-86.4l-4.5-13.2h56.1l2.3,6.8a286.4,286.4,0,0,1,15.1,92.9C469.8,308.1,453.7,362.5,424.5,404.3Z"/>
    	<path class="cls-1" d="M410.4,161.4a277.5,277.5,0,0,1,14.5,89.6c0,44.8-10.2,86.4-27.7,121L280.1,240.5v0L162.8,372c-17.5-34.5-27.7-76.1-27.7-120.9a277.5,277.5,0,0,1,14.5-89.6H114.7a277.5,277.5,0,0,0-14.5,89.6c0,57,16.5,108.9,43.6,147.5h34.9l-0.3-.5L280,283.9,381.6,398.1l-0.3.4h34.9c27-38.6,43.6-90.5,43.6-147.5a277.5,277.5,0,0,0-14.5-89.6H410.4Z"/>
	</symbol>

	<symbol id="Blog_To_Follow" viewBox="0 0 560 560">
		<path class="cls-1" d="M280,0C125.4,0,0,125.4,0,280S125.4,560,280,560,560,434.6,560,280,434.6,0,280,0ZM237.8,390.9H195.5V130.8h42.3V390.9Zm128.1-44.8a67.4,67.4,0,0,1-13.2,21,64.5,64.5,0,0,1-17.3,13.1,100.8,100.8,0,0,1-18,7.2,79.5,79.5,0,0,1-15.3,3l-8.8.5H252.3V359.8h38.5q18.7,0,29.3-12t10.6-32.1q0-19.1-10.9-32.1t-32.1-13.1H252.3V242h16.9q7.8,0,15.9-.4a37.1,37.1,0,0,0,15.2-3.9q7.1-3.5,11.5-12t4.4-24.3a53.3,53.3,0,0,0-1.8-13.2,28.6,28.6,0,0,0-7.1-12.5q-5.3-5.6-15.2-9.2t-26.1-3.5H252.3V130.8h18a132,132,0,0,1,32.1,3.9,81.6,81.6,0,0,1,27.5,12.4A61,61,0,0,1,349,169.1q7.1,13.6,7.1,32.3a54.3,54.3,0,0,1-3.5,19.9,61.2,61.2,0,0,1-8.8,15.7,49.4,49.4,0,0,1-12.2,11.1,41.3,41.3,0,0,1-13.2,5.8,60.2,60.2,0,0,1,17.3,5.3,61.2,61.2,0,0,1,17.1,12,65.4,65.4,0,0,1,13.2,18.9q5.3,11.1,5.3,25.6Q371.2,333.4,365.9,346.1Z"/>
	</symbol>

	<symbol id="Cheetsheet" viewBox="0 0 560 560">
		<path d="M283.414 1.682c-7.3 0-14.6.3-21.7.8l-2.1 2.4c-5.8 6-13.7 8.9-21.5 8.8-5.7-.1-11.4-1.9-16.3-5.2-5.2 1.2-10.4 2.5-15.4 3.9 2.2 15.7 6.1 30.2 11.6 42.5 14.5-6.4 31.8-10.7 50.5-12.6 2.3-.3 4.5-.4 6.8-.6 1.3 1.6 2.3 3.3 2.9 5.2 1.9 5.6.5 12.1-4 16.5-.3.4-.6.7-.9 1l-.3.4c-8.3 9.4-7.9 23.7.9 32.7 8.6 8.9 22.5 9.6 32 2.1v6.5c-11.4 6.7-26.3 5-35.9-4.8-10.9-11.2-11.2-29-.7-40.5l.8-.9.3-.3c3.3-3.3 4-8.3 2.1-12.3-19.6 1.7-37.7 6-52.7 12.7 6.3 14.5 10.6 31.7 12.5 50.3.3 2.2.4 4.5.6 6.8-1.6 1.3-3.3 2.3-5.2 2.9-5.6 1.9-12.1.5-16.5-4-.4-.3-.7-.6-1-.9l-.4-.4c-9.5-8.3-23.7-7.9-32.7.9-4.5 4.4-6.9 10.2-7.2 16h.1c-.4 6.6 1.9 13.3 6.8 18.3 4.6 4.7 10.8 7.1 16.9 7.2 6.2 0 12.4-2.3 17.1-6.9.5-.4 5.8-4.3 5.8-4.3 2.2-1 4.6-1.5 7.1-1.5 1.3.1 2.7.2 4 .6 1.9.5 3.7 1.3 5.3 2.5-.2 2.3-.4 4.6-.6 6.8-1.9 18.9-6.2 36.5-12.7 51.2 15 6.7 33.2 11 52.9 12.7.6-1.4.9-2.8.9-4.2 0-2.7-1.1-5.2-3-7.1l-3.7-4.3c-8.8-11.7-7.8-28.3 2.9-38.8 8.9-8.6 21.8-10.6 32.5-5.9 1.3.5 2.5 1.1 3.5 1.8v6.8c-1.8-1.5-3.9-2.8-6-3.7-8.7-3.4-19-1.5-26 5.6-8.8 9-9.2 23.3-.9 32.7l.3.4c.3.4.6.7.9 1 3.3 3.2 4.9 7.4 4.8 11.7v.5c0 1.3-.2 2.7-.5 4-.5 1.9-1.3 3.7-2.5 5.3h-.4c-.1.1-.1.2-.2.3-2.3-.2-4.6-.4-6.8-.6-18.7-1.9-36-6.2-50.5-12.6-6.7 15-11 33.2-12.7 52.8 1.5.7 3.2 1 4.8 1 2.7 0 5.5-1.1 7.5-3.2l.3-.3.9-.8c5.8-5.3 13.1-7.8 20.4-7.7 7.3.1 14.5 2.9 20.1 8.4 11.6 11.4 11.8 30.1.4 41.7-5.8 6-13.7 8.9-21.5 8.8-6.1-.1-12.2-2.1-17.3-5.9l-4.3-3.8c-2.1-1.9-4.7-3-7.6-3-1.3 0-2.5.3-3.7.7 1.7 19.8 6.1 38.1 12.8 53.2 14.5-6.4 31.8-10.7 50.5-12.6 2.3-.3 4.5-.4 6.8-.6 1.3 1.6 2.3 3.3 2.9 5.2 1.9 5.6.5 12.1-4 16.5-.3.4-.6.7-.9 1l-.3.4c-8.3 9.4-7.9 23.7.9 32.7 8.6 8.9 22.5 9.6 32 2.1v6.5c-11.4 6.7-26.3 5-35.9-4.8-10.9-11.2-11.2-29-.7-40.5l.8-.9.3-.3c3.3-3.3 4-8.3 2.1-12.3-19.6 1.7-37.7 6-52.7 12.7 6.3 14.5 10.6 31.7 12.5 50.3.3 2.2.4 4.5.6 6.8-1.6 1.3-3.3 2.3-5.2 2.9-5.6 1.9-12.1.5-16.5-4-.4-.3-.7-.6-1-.9l-.4-.4c-9.5-8.3-23.7-7.9-32.7.9-5 4.9-7.4 11.5-7.2 18h.5c-.4 6.6 1.9 13.3 6.8 18.3 4.6 4.7 10.8 7.1 16.9 7.2 6.2 0 12.4-2.3 17.1-6.9.5-.4 5.8-4.3 5.8-4.3 2.2-1 4.6-1.5 7.1-1.5 1.3.1 2.7.2 4 .6 1.9.5 3.7 1.3 5.3 2.5-.2 2.3-.4 4.6-.6 6.8-1.9 18.9-6.2 36.5-12.7 51.2 15 6.7 33.2 11 52.9 12.7.6-1.4.9-2.8.9-4.2 0-2.7-1.1-5.2-3-7.1l-3.7-4.3c-8.8-11.7-7.8-28.3 2.9-38.8 8.9-8.6 21.8-10.6 32.5-5.9 1.3.5 2.5 1.1 3.5 1.8v6.8c-1.8-1.5-3.9-2.8-6-3.7-8.7-3.4-19-1.5-26 5.6-8.8 9-9.2 23.3-.9 32.7l.3.4c.3.4.6.7.9 1 3.3 3.2 4.9 7.4 4.8 11.7v.5c0 1.3-.2 2.7-.5 4-.5 1.9-1.3 3.7-2.5 5.3h-.4c-.1.1-.1.2-.2.3-2.3-.2-4.6-.4-6.8-.6-18.7-1.9-36-6.2-50.5-12.6-5.2 11.7-9 25.3-11.2 40 6.3 1.8 12.7 3.3 19.2 4.7 4.2-2 8.7-2.9 13.2-2.8 6.9.1 13.8 2.6 19.2 7.6 8.1.7 16.4 1.1 24.7 1.1 13.8 0 27.3-1 40.5-2.9 5.3-4 11.7-5.9 18-5.9 2.6-.1 5.2.2 7.8.9 7.8-1.9 15.4-4.1 22.9-6.6-2.3-13.1-5.8-25.2-10.4-35.7-14.5 6.3-31.8 10.5-50.3 12.3-1.9.2-3.8.4-5.7.5h-.4c-1.1-1.6-2-3.4-2.5-5.3-.4-1.3-.6-2.6-.6-4v-.6c-.2-3.8 1-7.6 3.5-10.7v.7c.8-1.1 1.5-2 1.7-2.2 9.3-9.5 9.2-24.7-.3-34-.4-.4-.9-.8-1.3-1.2v-6.7c1.8 1.1 3.5 2.5 5.1 4 10.7 10.5 11.7 27.2 2.9 38.8l-3.7 4.3c-2 2.1-3.1 4.8-3.1 7.6 0 1.3.3 2.5.7 3.7 19.5-1.6 37.5-5.9 52.6-12.4-6.7-14.8-11.1-32.6-13-51.8-.3-2.3-.5-4.5-.6-6.8 1.6-1.1 3.4-2 5.3-2.5 1.3-.4 2.6-.6 4-.6 2.5-.1 4.9.5 7.1 1.5 0 0 5.4 3.9 5.8 4.3 9.5 9.3 24.7 9.2 34-.3 4.9-5.1 7.2-11.8 6.8-18.3h5.4c.4 7.9-2.4 16-8.4 22.1-10.5 10.7-27.2 11.7-38.8 2.9l-4.3-3.8c-2.1-1.9-4.8-3-7.6-3-1.3 0-2.5.3-3.7.7 1.6 19.8 6 38.1 12.8 53.2 14.5-6.4 31.8-10.7 50.5-12.6 2.2-.3 4.5-.4 6.8-.6.1.1.1.2.2.3h.4c1.1 1.6 2 3.4 2.5 5.3.4 1.3.6 2.6.6 4v.5c.1 4.2-1.5 8.5-4.8 11.7-.3.3-.6.7-.9 1l-.4.4c-3.9 4.4-5.8 9.8-5.9 15.3 12.7-6.7 24.8-14.4 36.2-23-.6-1.9-.9-3.8-.8-5.7v-.6c0-1.3.2-2.7.5-4 .5-1.9 1.3-3.7 2.5-5.3 2.3.2 4.6.4 6.8.6 2.8.3 5.5.6 8.2 1 10.7-9.4 20.6-19.6 29.8-30.4-2.3.6-4.6.9-6.9.9-7.8 0-15.6-3-21.5-9-6-6.1-8.8-14.2-8.4-22.1h-.4c-.2-7.9 2.7-15.8 8.8-21.8 11.2-10.9 29-11.2 40.5-.7l.9.8.3.3c3.3 3.4 8.3 4.1 12.3 2.2-1.6-19.5-6-37.6-12.6-52.6-14.5 6.5-31.9 10.8-50.6 12.7-2.3.3-4.5.4-6.8.6-.1-.1-.1-.2-.2-.3h-.4c-1.1-1.6-2-3.4-2.5-5.3-.3-1.3-.5-2.6-.5-4v-.5c-.1-4.3 1.5-8.6 4.8-11.8.3-.3.6-.7.9-1l.3-.4c8.3-9.4 7.9-23.7-.9-32.7-6.9-7.1-17.1-8.9-25.8-5.6-2.9 1.2-5.6 2.9-7.9 5.3-8.8 9-9.2 23.3-.9 32.7l.4.4c.3.4.6.7.9 1 3.4 3.3 5 7.8 4.8 12.2v.6c-.1 1.3-.2 2.7-.6 4-.5 1.9-1.3 3.7-2.5 5.3-2.3-.2-4.6-.4-6.8-.6-19-1.8-36.6-6.2-51.3-12.7-6.6 14.9-11 33.1-12.6 52.6 4 1.9 8.9 1.2 12.2-2.2l.3-.3.9-.8c11.5-10.6 29.3-10.2 40.5.7 6.1 5.9 9 13.9 8.8 21.8h-5.4c.2-6.5-2.2-13.1-7.2-18-9-8.8-23.3-9.2-32.7-.9l-.4.4c-.4.3-.7.6-1 .9-4.4 4.5-10.9 5.8-16.5 4-1.9-.6-3.7-1.6-5.3-2.9.2-2.3.4-4.5.6-6.8 1.9-18.7 6.2-36.1 12.7-50.7-14.9-6.5-32.8-10.7-52.2-12.3-.4 1.2-.7 2.4-.7 3.7 0 2.9 1.1 5.6 3.1 7.6l3.8 4.3c8.8 11.7 7.8 28.3-2.9 38.8-1.6 1.6-3.3 2.9-5.1 4v-6.7c.4-.4.9-.8 1.3-1.2 9.4-9.3 9.6-24.5.3-34-.2-.2-.9-1.1-1.7-2.2v-20c1.9.2 3.8.3 5.7.5 18.5 1.8 35.8 6 50.3 12.3 6.6-15 11-33.2 12.6-52.8-1.1-.4-2.2-.6-3.3-.7-2.6.1-5 1.2-6.9 3l-4.3 3.8c-5.4 4-11.8 6-18.2 5.9-7.9.2-15.8-2.7-21.7-8.8-11.4-11.6-11.2-30.3.4-41.6 5.8-5.7 13.4-8.5 21-8.4 7.3-.2 14.7 2.4 20.5 7.7l.9.8.3.3c1.9 2 4.5 3.1 7.1 3.2 1.4 0 2.8-.4 4.1-1-1.7-19.5-6-37.6-12.6-52.5-14.5 6.3-31.8 10.5-50.3 12.3-1.9.2-3.8.4-5.7.5h-.4c-1.1-1.6-2-3.4-2.5-5.3-.4-1.3-.6-2.6-.6-4v-.6c-.2-3.8 1-7.6 3.5-10.7v.7c.8-1.1 1.5-2 1.7-2.2 9.3-9.5 9.2-24.7-.3-34-.4-.4-.9-.8-1.3-1.2v-6.7c1.8 1.1 3.5 2.5 5.1 4 10.7 10.5 11.7 27.2 2.9 38.8l-3.7 4.3c-2 2.1-3.1 4.8-3.1 7.6 0 1.3.3 2.5.7 3.7 19.5-1.6 37.5-5.9 52.6-12.4-6.7-14.8-11.1-32.6-13-51.8-.3-2.3-.5-4.5-.6-6.8 1.6-1.1 3.4-2 5.3-2.5 1.3-.4 2.6-.6 4-.6 2.5-.1 4.9.5 7.1 1.5 0 0 5.4 3.9 5.8 4.3 9.5 9.3 24.7 9.2 34-.3 4.4-4.6 6.7-10.5 6.8-16.4.2-6.5-2.2-13.1-7.2-18-9-8.8-23.3-9.2-32.7-.9l-.4.4c-.4.3-.7.6-1 .9-4.4 4.5-10.9 5.8-16.5 4-1.9-.6-3.7-1.6-5.3-2.9.2-2.3.4-4.5.6-6.8 1.9-18.7 6.2-36.1 12.7-50.7-14.9-6.5-32.8-10.7-52.2-12.3-.4 1.2-.7 2.4-.7 3.7 0 2.9 1.1 5.6 3.1 7.6l3.8 4.3c8.8 11.7 7.8 28.3-2.9 38.8-1.6 1.6-3.3 2.9-5.1 4v-6.7c.4-.4.9-.8 1.3-1.2 9.4-9.3 9.6-24.5.3-34-.2-.2-.9-1.1-1.7-2.2v-20c1.9.2 3.8.3 5.7.5 18.5 1.8 35.8 6 50.3 12.3 4.9-11.2 8.6-24.1 10.8-38.1-6-2-12-3.8-18.2-5.4-4 1.8-8.4 2.8-12.7 2.7-7.9.2-15.8-2.7-21.7-8.8l-.7-.7c-11.8-1.5-23.9-2.3-36.1-2.3zm-30.2 1.6c-7.7.8-15.4 2-22.9 3.4 2.8 1 5.7 1.6 8.6 1.5 5.1 0 10.1-1.7 14.3-4.9zm79.2 2.7c3 1.4 6.3 2.2 9.5 2.3.5-.1 1-.1 1.5-.1-3.6-.8-7.3-1.5-11-2.2zm-131 8c-10.7 3.3-21.1 7.2-31.2 11.7 3.4 9.2 2 19.8-4.1 27.9l-3.9 4.3c-1.9 1.9-2.9 4.4-3 7.1 0 1.4.3 2.8.9 4.1 19.6-1.7 37.8-6 52.8-12.7-5.4-12.4-9.3-26.9-11.5-42.4zm178 4.5c-2.3 14-6.1 27-11.1 38.3 14.8 6.6 32.7 10.7 51.9 12.3.6-1.3.9-2.7 1-4.1-.1-2.6-1.2-5-3-6.9l-3.8-4.3c-5-6.6-6.8-14.8-5.5-22.5-9.5-4.8-19.4-9.1-29.5-12.8zm-215 9.7c-14.1 6.6-27.5 14.4-40.2 23.2 0 0 0 .1.1.1l.4.4c.3.4.6.7.9 1 3.4 3.3 5 7.8 4.8 12.2v.6c-.1 1.3-.2 2.7-.6 4-.5 1.9-1.3 3.7-2.5 5.3-2.3-.2-4.6-.4-6.8-.6-7.4-.7-14.6-1.8-21.5-3.3-15 13.1-28.5 27.8-40.4 43.9 3.4 1 7.3 0 10.1-2.9l.3-.3.9-.8c11.5-10.6 29.3-10.1 40.5.7 5.6 5.4 8.5 12.6 8.8 19.9.4 7.9-2.4 16-8.4 22.1-10.5 10.7-27.2 11.7-38.8 2.9l-4.3-3.8c-2.1-1.9-4.8-3-7.6-3-1.3 0-2.5.3-3.7.7 1.6 19.8 6 38.1 12.8 53.2 14.5-6.4 31.8-10.7 50.5-12.6 2.2-.3 4.5-.4 6.8-.6.1.1.1.2.2.3h.4c1.1 1.6 2 3.4 2.5 5.3.4 1.3.6 2.6.6 4v.5c.1 4.2-1.5 8.5-4.8 11.7-.3.3-.6.7-.9 1l-.4.4c-8.3 9.5-7.9 23.7.9 32.7 7 7.1 17.3 8.9 26 5.5 2.8-1.2 5.4-3 7.7-5.3 8.8-9 9.2-23.3.9-32.7l-.3-.4c-.3-.4-.6-.7-.9-1-3.4-3.3-5-7.8-4.8-12.2v-.6c0-1.3.2-2.7.5-4 .5-1.9 1.3-3.7 2.5-5.3 2.3.2 4.6.4 6.8.6 18.9 1.9 36.5 6.2 51.2 12.7 6.8-15.1 11.2-33.4 12.8-53.2-1.2-.4-2.4-.7-3.7-.7-2.9-.1-5.6 1-7.6 3l-4.3 3.8c-5.2 3.8-11.2 5.8-17.3 5.9-7.9.2-15.7-2.8-21.6-8.8-6-6.1-8.8-14.2-8.4-22.1.3-7.2 3.2-14.3 8.8-19.8 11.2-10.9 29-11.2 40.5-.7l.9.8.3.3c3.3 3.4 8.3 4.1 12.3 2.2-1.6-19.5-6-37.6-12.6-52.6-14.5 6.5-31.9 10.8-50.6 12.7-2.3.3-4.5.4-6.8.6-.1-.1-.1-.2-.2-.3h-.4c-1.1-1.6-2-3.4-2.5-5.3-.3-1.3-.5-2.6-.5-4v-.5c-.1-4.3 1.5-8.6 4.8-11.8.3-.3.6-.7.9-1l.3-.4c5.9-6.6 7.4-15.7 4.7-23.6zm249.9 5.9c-.4 6.2 1.5 12.4 5.9 17.4l.5.4c.3.4.6.7.9 1 3.4 3.3 5 7.8 4.8 12.2v.6c-.1 1.3-.2 2.7-.6 4-.5 1.9-1.3 3.7-2.5 5.3-2.3-.2-4.6-.4-6.8-.6-19-1.8-36.6-6.2-51.3-12.7-6.6 14.9-11 33.1-12.6 52.6 4 1.9 8.9 1.2 12.2-2.2l.3-.3.9-.8c11.5-10.6 29.3-10.2 40.5.7 5.6 5.4 8.5 12.6 8.8 19.9.4 7.9-2.4 16-8.4 22.1-10.5 10.7-27.2 11.7-38.8 2.9l-4.3-3.8c-2.1-1.9-4.8-3-7.6-3-1.3 0-2.5.3-3.7.7 1.6 19.8 6 38.1 12.8 53.2 14.5-6.4 31.8-10.7 50.5-12.6 2.2-.3 4.5-.4 6.8-.6.1.1.1.2.2.3h.4c1.1 1.6 2 3.4 2.5 5.3.4 1.3.6 2.6.6 4v.5c.1 4.2-1.5 8.5-4.8 11.7-.3.3-.6.7-.9 1l-.4.4c-8.3 9.5-7.9 23.7.9 32.7 7 7.1 17.3 8.9 26 5.5 2.8-1.2 5.4-3 7.7-5.3 8.8-9 9.2-23.3.9-32.7l-.3-.4c-.3-.4-.6-.7-.9-1-3.4-3.3-5-7.8-4.8-12.2v-.6c0-1.3.2-2.7.5-4 .5-1.9 1.3-3.7 2.5-5.3 2.3.2 4.6.4 6.8.6 18.9 1.9 36.5 6.2 51.2 12.7 6.8-15.1 11.2-33.4 12.8-53.2-1.2-.4-2.4-.7-3.7-.7-2.9-.1-5.6 1-7.6 3l-4.3 3.8c-5.2 3.8-11.2 5.8-17.3 5.9-7.9.2-15.7-2.8-21.6-8.8-6-6.1-8.8-14.2-8.4-22.1.3-7.2 3.2-14.3 8.8-19.8 8.6-8.4 21.2-10.5 31.7-6.2-9.4-11.6-19.7-22.4-30.8-32.4-3.3.5-6.7.9-10.2 1.3-2.3.3-4.5.4-6.8.6-.1-.1-.1-.2-.2-.3h-.4c-1.1-1.6-2-3.4-2.5-5.3-.3-1.3-.5-2.6-.5-4v-.5c-.1-2.5.5-5.1 1.6-7.4-11.7-8.8-24-16.6-37-23.5zm-295.1 20.8c-5.1 3.7-10.1 7.6-14.9 11.6 6.4 1.2 13 2.1 19.7 2.7.7-1.3 1-2.8 1.1-4.2-.1-2.6-1.2-5-3-6.9l-2.9-3.2zm336.9 6.4c-.5 1.2-.7 2.4-.8 3.7 0 1.4.3 2.8.9 4.1 2.8-.3 5.5-.6 8.3-.9-2.8-2.3-5.6-4.7-8.4-6.9zm-366.8 47.33c-5.51.1-10.994 2.08-15.4 5.97l-.4.4c-.4.3-.7.6-1 .9-4.4 4.5-10.9 5.8-16.5 4l-.9-.3c-12.9 18.2-23.7 37.9-32 58.9 1.9 8.3.2 17.3-5.2 24.4l-3.7 4.3c-.4.4-.8.9-1.1 1.3-1.3 1.9-2 4-2 6.3 0 .4 0 .8.1 1.2.1.9.3 1.7.6 2.5 19.5-1.6 37.5-5.9 52.6-12.4-6.7-14.8-11.1-32.6-13-51.8-.3-2.3-.5-4.5-.6-6.8 1.6-1.1 3.4-2 5.3-2.5 1.3-.4 2.6-.6 4-.6 2.5-.1 4.9.5 7.1 1.5 0 0 5.4 3.9 5.8 4.3 9.5 9.3 24.7 9.2 34-.3 4.4-4.6 6.7-10.5 6.8-16.4.2-6.5-2.2-13.1-7.2-18-4.782-4.675-11.058-6.98-17.3-6.87zm400.063.144c-5.862.175-11.662 2.476-16.162 6.826-4.5 4.4-6.9 10.2-7.2 16h.098c-.4 6.6 1.9 13.3 6.8 18.3 4.6 4.7 10.802 7.1 16.902 7.2 6.2 0 12.4-2.3 17.1-6.9.5-.4 5.8-4.3 5.8-4.3 2.2-1 4.6-1.5 7.1-1.5 1.3.1 2.7.2 4 .6 1.9.5 3.698 1.3 5.298 2.5-.2 2.3-.4 4.6-.6 6.8-1.9 18.9-6.198 36.5-12.698 51.2 11.7 5.2 25.3 9 40 11.2-8.5-35.7-23.8-68.7-44.5-97.7-1.5-.8-2.8-1.8-4-3-.4-.3-.7-.6-1-.9l-.4-.4c-4.75-4.15-10.675-6.1-16.538-5.926zM160.414 196.38c-.6 1.3-.9 2.702-1 4.102.1 2.6 1.2 5 3 6.9l3.8 4.3c8.8 11.7 7.8 28.3-2.9 38.8-2.8 2.7-6.1 4.8-9.5 6.2-10.7 4.7-23.7 2.8-32.5-5.9-10.7-10.5-11.7-27.2-2.9-38.8l3.8-4.3c1.9-1.9 2.9-4.4 3-7.1 0-1.4-.3-2.8-.9-4.1-19.3 1.7-37.2 5.9-52.1 12.4 6.5 14.6 10.9 32.1 12.8 50.9.3 2.2.5 4.5.6 6.8-1.5 1.3-3.3 2.3-5.2 2.9-1.8.6-3.7.9-5.6.8-4.3.1-8.7-1.5-12-4.8-.4-.3-.7-.6-1-.9l-.4-.4c-4.4-3.9-10-5.9-15.6-5.9-5.8.2-11.6 2.5-16 6.8-9.5 9.3-9.7 24.5-.4 34 4.5 4.7 10.5 7 16.5 7.2 5.9-.1 11.8-2.3 16.4-6.8.5-.4 5.8-4.3 5.8-4.3 2.2-1 4.6-1.5 7.1-1.5h1.1c1.3 0 2.7.2 4 .5 1.9.5 3.7 1.3 5.3 2.5-.2 2.3-.4 4.6-.6 6.8-1.9 19-6.3 36.7-12.8 51.4 14.8 6.5 32.7 10.7 51.9 12.3.6-1.3.9-2.7 1-4.1-.1-2.6-1.2-5-3-6.9l-3.8-4.3c-8.8-11.7-7.8-28.3 2.9-38.8 2.9-3 6.4-5.1 10-6.5 10.6-4.3 23.2-2.3 31.9 6.2 10.7 10.5 11.7 27.2 2.9 38.8l-3.8 4.3c-1.9 1.9-2.9 4.4-3 7.1 0 1.4.3 2.8.9 4.1 19.6-1.7 37.8-6 52.8-12.7-6.4-14.7-10.7-32.2-12.6-51-.3-2.3-.4-4.5-.6-6.8 1.6-1.1 3.4-2 5.3-2.5 1.3-.3 2.6-.5 4-.5 2.5-.1 4.9.5 7.1 1.5 0 0 5.4 3.9 5.8 4.3 4.8 4.7 11 7 17.1 6.9 6.1-.1 12.3-2.5 16.9-7.2 9.2-9.5 9.1-24.7-.4-34-4.5-4.4-10.3-6.7-16.2-6.9-5.9-.2-11.8 1.8-16.5 5.9l-.4.4c-.4.3-.7.6-1 .9-3 3.1-7.1 4.7-11.1 4.8-1.8 0-3.6-.2-5.4-.8-1.9-.6-3.7-1.6-5.3-2.9.2-2.3.4-4.5.6-6.8 1.9-18.7 6.2-36 13-50.6-15-6.7-33.2-11-52.8-12.7zm296.1.102c-.6 1.3-.9 2.7-1 4.1.1 2.6 1.2 5 3 6.9l3.8 4.3c8.8 11.7 7.8 28.3-2.9 38.8-2.8 2.7-6.1 4.8-9.5 6.2-10.7 4.7-23.7 2.8-32.5-5.9-10.7-10.5-11.7-27.2-2.9-38.8l3.8-4.3c1.9-1.9 2.9-4.4 3-7.1 0-1.4-.3-2.8-.9-4.1-19.3 1.7-37.2 5.9-52.1 12.4 6.5 14.6 10.9 32.1 12.8 50.9.3 2.2.5 4.5.6 6.8-1.5 1.3-3.3 2.3-5.2 2.9-1.8.6-3.7.9-5.6.8-4.3.1-8.7-1.5-12-4.8-.4-.3-.7-.6-1-.9l-.4-.4c-4.4-3.9-10-5.9-15.6-5.9-5.8.2-11.6 2.5-16 6.8-9.5 9.3-9.7 24.5-.4 34 4.5 4.7 10.5 7 16.5 7.2 5.9-.1 11.8-2.3 16.4-6.8.5-.4 5.8-4.3 5.8-4.3 2.2-1 4.6-1.5 7.1-1.5h1.1c1.3 0 2.7.2 4 .5 1.9.5 3.7 1.3 5.3 2.5-.2 2.3-.4 4.6-.6 6.8-1.9 19-6.3 36.7-12.8 51.4 14.8 6.5 32.7 10.7 51.9 12.3.6-1.3.9-2.7 1-4.1-.1-2.6-1.2-5-3-6.9l-3.8-4.3c-8.8-11.7-7.8-28.3 2.9-38.8 2.9-3 6.4-5.1 10-6.5 10.6-4.3 23.2-2.3 31.9 6.2 10.7 10.5 11.7 27.2 2.9 38.8l-3.8 4.3c-1.9 1.9-2.9 4.4-3 7.1 0 1.4.3 2.8.9 4.1 19.6-1.7 37.8-6 52.8-12.7-6.4-14.7-10.7-32.2-12.6-51-.3-2.3-.4-4.5-.6-6.8 1.6-1.1 3.4-2 5.3-2.5 1.3-.3 2.6-.5 4-.5 2.5-.1 4.9.5 7.1 1.5 0 0 5.4 3.9 5.8 4.3 4.8 4.7 11 7 17.1 6.9 6.1-.1 12.3-2.5 16.9-7.2 9.2-9.5 9.1-24.7-.4-34-4.5-4.4-10.3-6.7-16.2-6.9-5.9-.2-11.8 1.8-16.5 5.9l-.4.4c-.4.3-.7.6-1 .9-3 3.1-7.1 4.7-11.1 4.8-1.8 0-3.6-.2-5.4-.8-1.9-.6-3.7-1.6-5.3-2.9.2-2.3.4-4.5.6-6.8 1.9-18.7 6.2-36 13-50.6-15-6.7-33.2-11-52.8-12.7zm57.6 14.7c-6.8 14.9-11.1 33.2-12.8 52.8 1.5.7 3.2 1 4.8 1 2.7 0 5.5-1.1 7.5-3.2l.3-.3.9-.8c5.8-5.3 13.1-7.8 20.4-7.7 7.3.1 14.5 2.9 20.1 8.4 4.2 4.1 6.9 9.1 8.1 14.4-.4-18.1-2.5-35.8-6.1-52.9-15.9-2.2-30.6-6.2-43.2-11.7zm-448.3.2c-14.5 6.3-31.8 10.5-50.3 12.3-1.9.2-3.8.4-5.7.5v-1.9c-4.2 19.1-6.4 39-6.4 59.4 0 20.6 2.2 40.6 6.5 59.9v-2c1.9.2 3.8.3 5.7.5 18.5 1.9 35.8 6.1 50.3 12.4 6.6-15 11-33.2 12.6-52.8-1.1-.4-2.2-.6-3.3-.7-2.6.1-5 1.2-6.9 3l-4.3 3.8c-5.4 4-11.8 6-18.2 5.9-7.9.2-15.8-2.7-21.7-8.8-11.4-11.6-11.2-30.3.4-41.6 5.8-5.7 13.4-8.5 21-8.4 7.3-.2 14.7 2.4 20.5 7.7l.9.8.3.3c1.9 2 4.5 3.1 7.1 3.2 1.4 0 2.8-.4 4.1-1-1.7-19.5-6-37.6-12.6-52.5zm497.5 77.8c-1.2 5.1-3.7 9.9-7.6 13.8-5.8 6.1-13.7 9-21.5 8.9-6.1-.1-12.2-2.1-17.3-5.9l-4.3-3.8c-2.1-1.9-4.7-3-7.6-3-1.3 0-2.5.3-3.7.7 1.7 19.8 6.1 38.1 12.8 53.2 12.5-5.5 27.1-9.5 42.9-11.7 3.7-16.9 5.8-34.3 6.3-52.2zm-421.85 20.806c-2.866.03-5.73.563-8.45 1.594-2.9 1.2-5.6 2.9-7.9 5.3-8.8 9-9.2 23.3-.9 32.7l.4.4c.3.4.6.7.9 1 3.4 3.3 5 7.8 4.8 12.2v.6c-.1 1.3-.2 2.7-.6 4-.5 1.9-1.3 3.7-2.5 5.3-2.3-.2-4.6-.4-6.8-.6-19-1.8-36.6-6.2-51.3-12.7-6.6 14.9-11 33.1-12.6 52.6 4 1.9 8.9 1.2 12.2-2.2l.3-.3.9-.8c11.5-10.6 29.3-10.2 40.5.7 6.1 5.9 9 13.9 8.8 21.8h.4c.4 7.9-2.4 16-8.4 22.1-10.5 10.8-27.2 11.8-38.8 3l-4.3-3.8c-2.1-1.9-4.8-3-7.6-3h-.9c12.2 16.2 26 31 41.4 44.1 6.2-1.2 12.5-2.2 19.1-2.9 2.2-.3 4.5-.4 6.8-.6.1.1.1.2.2.3h.4c1.1 1.6 2 3.4 2.5 5.3.4 1.3.6 2.6.6 4v.5c.1 4.2-1.5 8.5-4.8 11.7l-.4.4c12.6 8.6 25.9 16.2 39.8 22.7 1.8-7.4.1-15.5-5.3-21.6l-.2-.2c-.3-.4-.6-.7-.9-1-3.4-3.3-5-7.8-4.8-12.2v-.6c0-1.3.2-2.7.5-4 .5-1.9 1.3-3.7 2.5-5.3 2.3.2 4.6.4 6.8.6 18.9 1.9 36.5 6.2 51.2 12.7 6.8-15.1 11.2-33.4 12.8-53.2-1.2-.4-2.4-.7-3.7-.7-2.9-.1-5.6 1-7.6 3l-4.3 3.8c-5.2 3.8-11.2 5.8-17.3 5.9-7.9.2-15.7-2.8-21.6-8.8-6-6.1-8.8-14.2-8.4-22.1h-.4c-.2-7.9 2.7-15.8 8.8-21.8 11.2-10.9 29-11.2 40.5-.7l.9.8.3.3c3.3 3.4 8.3 4.1 12.3 2.2-1.6-19.5-6-37.6-12.6-52.6-14.5 6.5-31.9 10.8-50.6 12.7-2.3.3-4.5.4-6.8.6-.1-.1-.1-.2-.2-.3h-.4c-1.1-1.6-2-3.4-2.5-5.3-.3-1.3-.5-2.6-.5-4v-.5c-.1-4.3 1.5-8.6 4.8-11.8.3-.3.6-.7.9-1l.3-.4c8.3-9.4 7.9-23.7-.9-32.7-4.743-4.882-11.047-7.258-17.35-7.194zM11.813 345.28c-.2.7-.4 1.402-.6 2.202-.1.5-.1 1-.1 1.5 0 2.5.8 4.8 2.2 6.6.3.3.5.7.9 1l3.8 4.3c5.3 7.1 7.1 16 5.2 24.2 8.5 21.4 19.7 41.6 33 60 .1 0 .2-.1.3-.1 1.3-.4 2.6-.6 4-.6 2.5-.1 4.9.5 7.1 1.5 0 0 5.4 3.9 5.8 4.3 9.5 9.3 24.7 9.2 34-.3 4.9-5.1 7.2-11.8 6.8-18.3h-.4c.2-6.5-2.2-13.1-7.2-18-9-8.8-23.3-9.2-32.7-.9l-.4.4c-.4.3-.7.6-1 .9-4.4 4.5-10.9 5.8-16.5 4-1.9-.6-3.7-1.6-5.3-2.9.2-2.3.4-4.5.6-6.8 1.9-18.7 6.2-36.1 12.7-50.7-14.9-6.5-32.8-10.7-52.2-12.3zm544 1.802c-14.7 2.2-28.2 6-39.9 11.2 6.3 14.4 10.6 31.6 12.5 50.2.3 2.2.4 4.5.6 6.8-1.6 1.3-3.3 2.3-5.2 2.9-5.6 1.9-12.1.5-16.5-4-.4-.3-.7-.6-1-.9l-.4-.4c-9.5-8.3-23.7-7.9-32.7.9-5 4.9-7.4 11.5-7.2 18h.5c-.4 6.6 1.9 13.3 6.8 18.3 4.6 4.7 10.8 7.1 16.9 7.2 5.8 0 11.5-2 16.1-6 23.2-30.5 40.3-65.8 49.5-104.2zm-98.8 149.3c-.7 1.4-1 2.8-1.1 4.2 0 .5.1 1 .2 1.5l6.3-5.1-5.4-.6zm-296.2.1c-.6 1.3-.9 2.7-1 4.1.1 2.6 1.2 5 3 6.9l3.8 4.3c5.8 7.7 7.3 17.6 4.6 26.5 9.9 4.4 20.2 8.2 30.7 11.3 2.3-14.8 6.2-28.5 11.7-40.4-15-6.7-33.2-11-52.8-12.7zm-36.1.1c-6.1.5-12.1 1.3-17.8 2.4 4.6 3.7 9.3 7.3 14.1 10.7l1.7-1.9c1.9-1.9 2.9-4.4 3-7.1-.1-1.4-.4-2.8-1-4.1zm296.1 0c-19.3 1.7-37.2 5.9-52.1 12.4 4.7 10.6 8.3 22.8 10.7 35.8 10.2-3.7 20.1-8 29.7-12.8-.6-7 1.3-14.1 5.8-19.9l3.8-4.3c1.9-1.9 2.9-4.4 3-7.1 0-1.4-.3-2.8-.9-4.1zm-180.9 61.7c1.6.3 3.2.5 4.8.7-1.6-.4-3.2-.6-4.8-.7z"/>		
	</symbol>
</svg>